G04 EAGLE Gerber RS-274X export*
G75*
%MOMM*%
%FSLAX34Y34*%
%LPD*%
%IN*%
%IPPOS*%
%AMOC8*
5,1,8,0,0,1.08239X$1,22.5*%
G01*
%ADD10C,0.254000*%


D10*
X0Y25400D02*
X97Y23186D01*
X386Y20989D01*
X865Y18826D01*
X1532Y16713D01*
X2380Y14666D01*
X3403Y12700D01*
X4594Y10831D01*
X5942Y9073D01*
X7440Y7440D01*
X9073Y5942D01*
X10831Y4594D01*
X12700Y3403D01*
X14666Y2380D01*
X16713Y1532D01*
X18826Y865D01*
X20989Y386D01*
X23186Y97D01*
X25400Y0D01*
X355600Y0D01*
X357814Y97D01*
X360011Y386D01*
X362174Y865D01*
X364287Y1532D01*
X366335Y2380D01*
X368300Y3403D01*
X370169Y4594D01*
X371927Y5942D01*
X373561Y7440D01*
X375058Y9073D01*
X376406Y10831D01*
X377597Y12700D01*
X378620Y14666D01*
X379468Y16713D01*
X380135Y18826D01*
X380614Y20989D01*
X380903Y23186D01*
X381000Y25400D01*
X381000Y546100D01*
X380903Y548314D01*
X380614Y550511D01*
X380135Y552674D01*
X379468Y554787D01*
X378620Y556835D01*
X377597Y558800D01*
X376406Y560669D01*
X375058Y562427D01*
X373561Y564061D01*
X371927Y565558D01*
X370169Y566906D01*
X368300Y568097D01*
X366335Y569120D01*
X364287Y569968D01*
X362174Y570635D01*
X360011Y571114D01*
X357814Y571403D01*
X355600Y571500D01*
X25400Y571500D01*
X23186Y571403D01*
X20989Y571114D01*
X18826Y570635D01*
X16713Y569968D01*
X14666Y569120D01*
X12700Y568097D01*
X10831Y566906D01*
X9073Y565558D01*
X7440Y564061D01*
X5942Y562427D01*
X4594Y560669D01*
X3403Y558800D01*
X2380Y556835D01*
X1532Y554787D01*
X865Y552674D01*
X386Y550511D01*
X97Y548314D01*
X0Y546100D01*
X0Y25400D01*
X40400Y101064D02*
X40324Y99996D01*
X40171Y98935D01*
X39943Y97888D01*
X39641Y96860D01*
X39267Y95856D01*
X38822Y94881D01*
X38308Y93941D01*
X37729Y93040D01*
X37087Y92182D01*
X36385Y91372D01*
X35628Y90615D01*
X34818Y89913D01*
X33960Y89271D01*
X33059Y88692D01*
X32119Y88178D01*
X31144Y87733D01*
X30140Y87359D01*
X29112Y87057D01*
X28065Y86829D01*
X27004Y86676D01*
X25936Y86600D01*
X24864Y86600D01*
X23796Y86676D01*
X22735Y86829D01*
X21688Y87057D01*
X20660Y87359D01*
X19656Y87733D01*
X18681Y88178D01*
X17741Y88692D01*
X16840Y89271D01*
X15982Y89913D01*
X15172Y90615D01*
X14415Y91372D01*
X13713Y92182D01*
X13071Y93040D01*
X12492Y93941D01*
X11978Y94881D01*
X11533Y95856D01*
X11159Y96860D01*
X10857Y97888D01*
X10629Y98935D01*
X10476Y99996D01*
X10400Y101064D01*
X10400Y102136D01*
X10476Y103204D01*
X10629Y104265D01*
X10857Y105312D01*
X11159Y106340D01*
X11533Y107344D01*
X11978Y108319D01*
X12492Y109259D01*
X13071Y110160D01*
X13713Y111018D01*
X14415Y111828D01*
X15172Y112585D01*
X15982Y113287D01*
X16840Y113929D01*
X17741Y114508D01*
X18681Y115022D01*
X19656Y115467D01*
X20660Y115841D01*
X21688Y116143D01*
X22735Y116371D01*
X23796Y116524D01*
X24864Y116600D01*
X25936Y116600D01*
X27004Y116524D01*
X28065Y116371D01*
X29112Y116143D01*
X30140Y115841D01*
X31144Y115467D01*
X32119Y115022D01*
X33059Y114508D01*
X33960Y113929D01*
X34818Y113287D01*
X35628Y112585D01*
X36385Y111828D01*
X37087Y111018D01*
X37729Y110160D01*
X38308Y109259D01*
X38822Y108319D01*
X39267Y107344D01*
X39641Y106340D01*
X39943Y105312D01*
X40171Y104265D01*
X40324Y103204D01*
X40400Y102136D01*
X40400Y101064D01*
X370600Y482064D02*
X370524Y480996D01*
X370371Y479935D01*
X370143Y478888D01*
X369841Y477860D01*
X369467Y476856D01*
X369022Y475881D01*
X368508Y474941D01*
X367929Y474040D01*
X367287Y473182D01*
X366585Y472372D01*
X365828Y471615D01*
X365018Y470913D01*
X364160Y470271D01*
X363259Y469692D01*
X362319Y469178D01*
X361344Y468733D01*
X360340Y468359D01*
X359312Y468057D01*
X358265Y467829D01*
X357204Y467676D01*
X356136Y467600D01*
X355064Y467600D01*
X353996Y467676D01*
X352935Y467829D01*
X351888Y468057D01*
X350860Y468359D01*
X349856Y468733D01*
X348881Y469178D01*
X347941Y469692D01*
X347040Y470271D01*
X346182Y470913D01*
X345372Y471615D01*
X344615Y472372D01*
X343913Y473182D01*
X343271Y474040D01*
X342692Y474941D01*
X342178Y475881D01*
X341733Y476856D01*
X341359Y477860D01*
X341057Y478888D01*
X340829Y479935D01*
X340676Y480996D01*
X340600Y482064D01*
X340600Y483136D01*
X340676Y484204D01*
X340829Y485265D01*
X341057Y486312D01*
X341359Y487340D01*
X341733Y488344D01*
X342178Y489319D01*
X342692Y490259D01*
X343271Y491160D01*
X343913Y492018D01*
X344615Y492828D01*
X345372Y493585D01*
X346182Y494287D01*
X347040Y494929D01*
X347941Y495508D01*
X348881Y496022D01*
X349856Y496467D01*
X350860Y496841D01*
X351888Y497143D01*
X352935Y497371D01*
X353996Y497524D01*
X355064Y497600D01*
X356136Y497600D01*
X357204Y497524D01*
X358265Y497371D01*
X359312Y497143D01*
X360340Y496841D01*
X361344Y496467D01*
X362319Y496022D01*
X363259Y495508D01*
X364160Y494929D01*
X365018Y494287D01*
X365828Y493585D01*
X366585Y492828D01*
X367287Y492018D01*
X367929Y491160D01*
X368508Y490259D01*
X369022Y489319D01*
X369467Y488344D01*
X369841Y487340D01*
X370143Y486312D01*
X370371Y485265D01*
X370524Y484204D01*
X370600Y483136D01*
X370600Y482064D01*
X40400Y482064D02*
X40324Y480996D01*
X40171Y479935D01*
X39943Y478888D01*
X39641Y477860D01*
X39267Y476856D01*
X38822Y475881D01*
X38308Y474941D01*
X37729Y474040D01*
X37087Y473182D01*
X36385Y472372D01*
X35628Y471615D01*
X34818Y470913D01*
X33960Y470271D01*
X33059Y469692D01*
X32119Y469178D01*
X31144Y468733D01*
X30140Y468359D01*
X29112Y468057D01*
X28065Y467829D01*
X27004Y467676D01*
X25936Y467600D01*
X24864Y467600D01*
X23796Y467676D01*
X22735Y467829D01*
X21688Y468057D01*
X20660Y468359D01*
X19656Y468733D01*
X18681Y469178D01*
X17741Y469692D01*
X16840Y470271D01*
X15982Y470913D01*
X15172Y471615D01*
X14415Y472372D01*
X13713Y473182D01*
X13071Y474040D01*
X12492Y474941D01*
X11978Y475881D01*
X11533Y476856D01*
X11159Y477860D01*
X10857Y478888D01*
X10629Y479935D01*
X10476Y480996D01*
X10400Y482064D01*
X10400Y483136D01*
X10476Y484204D01*
X10629Y485265D01*
X10857Y486312D01*
X11159Y487340D01*
X11533Y488344D01*
X11978Y489319D01*
X12492Y490259D01*
X13071Y491160D01*
X13713Y492018D01*
X14415Y492828D01*
X15172Y493585D01*
X15982Y494287D01*
X16840Y494929D01*
X17741Y495508D01*
X18681Y496022D01*
X19656Y496467D01*
X20660Y496841D01*
X21688Y497143D01*
X22735Y497371D01*
X23796Y497524D01*
X24864Y497600D01*
X25936Y497600D01*
X27004Y497524D01*
X28065Y497371D01*
X29112Y497143D01*
X30140Y496841D01*
X31144Y496467D01*
X32119Y496022D01*
X33059Y495508D01*
X33960Y494929D01*
X34818Y494287D01*
X35628Y493585D01*
X36385Y492828D01*
X37087Y492018D01*
X37729Y491160D01*
X38308Y490259D01*
X38822Y489319D01*
X39267Y488344D01*
X39641Y487340D01*
X39943Y486312D01*
X40171Y485265D01*
X40324Y484204D01*
X40400Y483136D01*
X40400Y482064D01*
X370600Y101064D02*
X370524Y99996D01*
X370371Y98935D01*
X370143Y97888D01*
X369841Y96860D01*
X369467Y95856D01*
X369022Y94881D01*
X368508Y93941D01*
X367929Y93040D01*
X367287Y92182D01*
X366585Y91372D01*
X365828Y90615D01*
X365018Y89913D01*
X364160Y89271D01*
X363259Y88692D01*
X362319Y88178D01*
X361344Y87733D01*
X360340Y87359D01*
X359312Y87057D01*
X358265Y86829D01*
X357204Y86676D01*
X356136Y86600D01*
X355064Y86600D01*
X353996Y86676D01*
X352935Y86829D01*
X351888Y87057D01*
X350860Y87359D01*
X349856Y87733D01*
X348881Y88178D01*
X347941Y88692D01*
X347040Y89271D01*
X346182Y89913D01*
X345372Y90615D01*
X344615Y91372D01*
X343913Y92182D01*
X343271Y93040D01*
X342692Y93941D01*
X342178Y94881D01*
X341733Y95856D01*
X341359Y96860D01*
X341057Y97888D01*
X340829Y98935D01*
X340676Y99996D01*
X340600Y101064D01*
X340600Y102136D01*
X340676Y103204D01*
X340829Y104265D01*
X341057Y105312D01*
X341359Y106340D01*
X341733Y107344D01*
X342178Y108319D01*
X342692Y109259D01*
X343271Y110160D01*
X343913Y111018D01*
X344615Y111828D01*
X345372Y112585D01*
X346182Y113287D01*
X347040Y113929D01*
X347941Y114508D01*
X348881Y115022D01*
X349856Y115467D01*
X350860Y115841D01*
X351888Y116143D01*
X352935Y116371D01*
X353996Y116524D01*
X355064Y116600D01*
X356136Y116600D01*
X357204Y116524D01*
X358265Y116371D01*
X359312Y116143D01*
X360340Y115841D01*
X361344Y115467D01*
X362319Y115022D01*
X363259Y114508D01*
X364160Y113929D01*
X365018Y113287D01*
X365828Y112585D01*
X366585Y111828D01*
X367287Y111018D01*
X367929Y110160D01*
X368508Y109259D01*
X369022Y108319D01*
X369467Y107344D01*
X369841Y106340D01*
X370143Y105312D01*
X370371Y104265D01*
X370524Y103204D01*
X370600Y102136D01*
X370600Y101064D01*
M02*
