G04 EAGLE Gerber RS-274X export*
G75*
%MOMM*%
%FSLAX34Y34*%
%LPD*%
%INSoldermask Bottom*%
%IPPOS*%
%AMOC8*
5,1,8,0,0,1.08239X$1,22.5*%
G01*
%ADD10C,3.203200*%
%ADD11R,2.743200X1.473200*%
%ADD12R,1.473200X2.743200*%
%ADD13C,0.662687*%
%ADD14C,2.082800*%
%ADD15C,0.959600*%

G36*
X187152Y338203D02*
X187152Y338203D01*
X187154Y338201D01*
X187514Y338229D01*
X187518Y338233D01*
X187522Y338230D01*
X187873Y338315D01*
X187876Y338320D01*
X187880Y338318D01*
X188213Y338456D01*
X188216Y338461D01*
X188220Y338459D01*
X188528Y338647D01*
X188530Y338653D01*
X188534Y338652D01*
X188808Y338887D01*
X188809Y338892D01*
X188813Y338892D01*
X189048Y339166D01*
X189049Y339172D01*
X189053Y339172D01*
X189241Y339480D01*
X189240Y339486D01*
X189245Y339487D01*
X189383Y339820D01*
X189381Y339826D01*
X189385Y339827D01*
X189470Y340178D01*
X189467Y340186D01*
X189471Y340190D01*
X189499Y345250D01*
X189497Y345252D01*
X189499Y345254D01*
X189471Y345614D01*
X189467Y345618D01*
X189470Y345622D01*
X189385Y345973D01*
X189380Y345976D01*
X189383Y345980D01*
X189245Y346313D01*
X189240Y346316D01*
X189241Y346320D01*
X189053Y346628D01*
X189047Y346630D01*
X189048Y346634D01*
X188813Y346908D01*
X188808Y346909D01*
X188808Y346913D01*
X188534Y347148D01*
X188528Y347149D01*
X188528Y347153D01*
X188220Y347341D01*
X188214Y347340D01*
X188213Y347345D01*
X187880Y347483D01*
X187874Y347481D01*
X187873Y347485D01*
X187522Y347570D01*
X187516Y347568D01*
X187514Y347571D01*
X187154Y347599D01*
X187151Y347598D01*
X187150Y347599D01*
X182550Y347599D01*
X182548Y347597D01*
X182546Y347599D01*
X182186Y347571D01*
X182182Y347567D01*
X182178Y347570D01*
X181827Y347485D01*
X181824Y347480D01*
X181820Y347483D01*
X181487Y347345D01*
X181484Y347340D01*
X181480Y347341D01*
X181172Y347153D01*
X181170Y347147D01*
X181166Y347148D01*
X180892Y346913D01*
X180891Y346908D01*
X180887Y346908D01*
X180652Y346634D01*
X180651Y346628D01*
X180647Y346628D01*
X180459Y346320D01*
X180460Y346314D01*
X180456Y346313D01*
X180318Y345980D01*
X180319Y345974D01*
X180315Y345973D01*
X180230Y345622D01*
X180234Y345614D01*
X180229Y345610D01*
X180201Y340550D01*
X180203Y340548D01*
X180201Y340546D01*
X180229Y340186D01*
X180233Y340182D01*
X180230Y340178D01*
X180315Y339827D01*
X180320Y339824D01*
X180318Y339820D01*
X180456Y339487D01*
X180461Y339484D01*
X180459Y339480D01*
X180647Y339172D01*
X180653Y339170D01*
X180652Y339166D01*
X180887Y338892D01*
X180892Y338891D01*
X180892Y338887D01*
X181166Y338652D01*
X181172Y338651D01*
X181172Y338647D01*
X181480Y338459D01*
X181486Y338460D01*
X181487Y338456D01*
X181820Y338318D01*
X181826Y338319D01*
X181827Y338315D01*
X182178Y338230D01*
X182184Y338233D01*
X182186Y338229D01*
X182546Y338201D01*
X182549Y338203D01*
X182550Y338201D01*
X187150Y338201D01*
X187152Y338203D01*
G37*
G36*
X216362Y338203D02*
X216362Y338203D01*
X216364Y338201D01*
X216724Y338229D01*
X216728Y338233D01*
X216732Y338230D01*
X217083Y338315D01*
X217086Y338320D01*
X217090Y338318D01*
X217423Y338456D01*
X217426Y338461D01*
X217430Y338459D01*
X217738Y338647D01*
X217740Y338653D01*
X217744Y338652D01*
X218018Y338887D01*
X218019Y338892D01*
X218023Y338892D01*
X218258Y339166D01*
X218259Y339172D01*
X218263Y339172D01*
X218451Y339480D01*
X218450Y339486D01*
X218455Y339487D01*
X218593Y339820D01*
X218591Y339826D01*
X218595Y339827D01*
X218680Y340178D01*
X218677Y340186D01*
X218681Y340190D01*
X218709Y345250D01*
X218707Y345252D01*
X218709Y345254D01*
X218681Y345614D01*
X218677Y345618D01*
X218680Y345622D01*
X218595Y345973D01*
X218590Y345976D01*
X218593Y345980D01*
X218455Y346313D01*
X218450Y346316D01*
X218451Y346320D01*
X218263Y346628D01*
X218257Y346630D01*
X218258Y346634D01*
X218023Y346908D01*
X218018Y346909D01*
X218018Y346913D01*
X217744Y347148D01*
X217738Y347149D01*
X217738Y347153D01*
X217430Y347341D01*
X217424Y347340D01*
X217423Y347345D01*
X217090Y347483D01*
X217084Y347481D01*
X217083Y347485D01*
X216732Y347570D01*
X216726Y347568D01*
X216724Y347571D01*
X216364Y347599D01*
X216361Y347598D01*
X216360Y347599D01*
X211760Y347599D01*
X211758Y347597D01*
X211756Y347599D01*
X211396Y347571D01*
X211392Y347567D01*
X211388Y347570D01*
X211037Y347485D01*
X211034Y347480D01*
X211030Y347483D01*
X210697Y347345D01*
X210694Y347340D01*
X210690Y347341D01*
X210382Y347153D01*
X210380Y347147D01*
X210376Y347148D01*
X210102Y346913D01*
X210101Y346908D01*
X210097Y346908D01*
X209862Y346634D01*
X209861Y346628D01*
X209857Y346628D01*
X209669Y346320D01*
X209670Y346314D01*
X209666Y346313D01*
X209528Y345980D01*
X209529Y345974D01*
X209525Y345973D01*
X209440Y345622D01*
X209444Y345614D01*
X209439Y345610D01*
X209411Y340550D01*
X209413Y340548D01*
X209411Y340546D01*
X209439Y340186D01*
X209443Y340182D01*
X209440Y340178D01*
X209525Y339827D01*
X209530Y339824D01*
X209528Y339820D01*
X209666Y339487D01*
X209671Y339484D01*
X209669Y339480D01*
X209857Y339172D01*
X209863Y339170D01*
X209862Y339166D01*
X210097Y338892D01*
X210102Y338891D01*
X210102Y338887D01*
X210376Y338652D01*
X210382Y338651D01*
X210382Y338647D01*
X210690Y338459D01*
X210696Y338460D01*
X210697Y338456D01*
X211030Y338318D01*
X211036Y338319D01*
X211037Y338315D01*
X211388Y338230D01*
X211394Y338233D01*
X211396Y338229D01*
X211756Y338201D01*
X211759Y338203D01*
X211760Y338201D01*
X216360Y338201D01*
X216362Y338203D01*
G37*
G36*
X202262Y338203D02*
X202262Y338203D01*
X202264Y338201D01*
X202624Y338229D01*
X202628Y338233D01*
X202632Y338230D01*
X202983Y338315D01*
X202986Y338320D01*
X202990Y338318D01*
X203323Y338456D01*
X203326Y338461D01*
X203330Y338459D01*
X203638Y338647D01*
X203640Y338653D01*
X203644Y338652D01*
X203918Y338887D01*
X203919Y338892D01*
X203923Y338892D01*
X204158Y339166D01*
X204159Y339172D01*
X204163Y339172D01*
X204351Y339480D01*
X204350Y339486D01*
X204355Y339487D01*
X204493Y339820D01*
X204491Y339826D01*
X204495Y339827D01*
X204580Y340178D01*
X204577Y340186D01*
X204581Y340190D01*
X204609Y345250D01*
X204607Y345252D01*
X204609Y345254D01*
X204581Y345614D01*
X204577Y345618D01*
X204580Y345622D01*
X204495Y345973D01*
X204490Y345976D01*
X204493Y345980D01*
X204355Y346313D01*
X204350Y346316D01*
X204351Y346320D01*
X204163Y346628D01*
X204157Y346630D01*
X204158Y346634D01*
X203923Y346908D01*
X203918Y346909D01*
X203918Y346913D01*
X203644Y347148D01*
X203638Y347149D01*
X203638Y347153D01*
X203330Y347341D01*
X203324Y347340D01*
X203323Y347345D01*
X202990Y347483D01*
X202984Y347481D01*
X202983Y347485D01*
X202632Y347570D01*
X202626Y347568D01*
X202624Y347571D01*
X202264Y347599D01*
X202261Y347598D01*
X202260Y347599D01*
X197660Y347599D01*
X197658Y347597D01*
X197656Y347599D01*
X197296Y347571D01*
X197292Y347567D01*
X197288Y347570D01*
X196937Y347485D01*
X196934Y347480D01*
X196930Y347483D01*
X196597Y347345D01*
X196594Y347340D01*
X196590Y347341D01*
X196282Y347153D01*
X196280Y347147D01*
X196276Y347148D01*
X196002Y346913D01*
X196001Y346908D01*
X195997Y346908D01*
X195762Y346634D01*
X195761Y346628D01*
X195757Y346628D01*
X195569Y346320D01*
X195570Y346314D01*
X195566Y346313D01*
X195428Y345980D01*
X195429Y345974D01*
X195425Y345973D01*
X195340Y345622D01*
X195344Y345614D01*
X195339Y345610D01*
X195311Y340550D01*
X195313Y340548D01*
X195311Y340546D01*
X195339Y340186D01*
X195343Y340182D01*
X195340Y340178D01*
X195425Y339827D01*
X195430Y339824D01*
X195428Y339820D01*
X195566Y339487D01*
X195571Y339484D01*
X195569Y339480D01*
X195757Y339172D01*
X195763Y339170D01*
X195762Y339166D01*
X195997Y338892D01*
X196002Y338891D01*
X196002Y338887D01*
X196276Y338652D01*
X196282Y338651D01*
X196282Y338647D01*
X196590Y338459D01*
X196596Y338460D01*
X196597Y338456D01*
X196930Y338318D01*
X196936Y338319D01*
X196937Y338315D01*
X197288Y338230D01*
X197294Y338233D01*
X197296Y338229D01*
X197656Y338201D01*
X197659Y338203D01*
X197660Y338201D01*
X202260Y338201D01*
X202262Y338203D01*
G37*
G36*
X173052Y338203D02*
X173052Y338203D01*
X173054Y338201D01*
X173414Y338229D01*
X173418Y338233D01*
X173422Y338230D01*
X173773Y338315D01*
X173776Y338320D01*
X173780Y338318D01*
X174113Y338456D01*
X174116Y338461D01*
X174120Y338459D01*
X174428Y338647D01*
X174430Y338653D01*
X174434Y338652D01*
X174708Y338887D01*
X174709Y338892D01*
X174713Y338892D01*
X174948Y339166D01*
X174949Y339172D01*
X174953Y339172D01*
X175141Y339480D01*
X175140Y339486D01*
X175145Y339487D01*
X175283Y339820D01*
X175281Y339826D01*
X175285Y339827D01*
X175370Y340178D01*
X175367Y340186D01*
X175371Y340190D01*
X175399Y345250D01*
X175397Y345252D01*
X175399Y345254D01*
X175371Y345614D01*
X175367Y345618D01*
X175370Y345622D01*
X175285Y345973D01*
X175280Y345976D01*
X175283Y345980D01*
X175145Y346313D01*
X175140Y346316D01*
X175141Y346320D01*
X174953Y346628D01*
X174947Y346630D01*
X174948Y346634D01*
X174713Y346908D01*
X174708Y346909D01*
X174708Y346913D01*
X174434Y347148D01*
X174428Y347149D01*
X174428Y347153D01*
X174120Y347341D01*
X174114Y347340D01*
X174113Y347345D01*
X173780Y347483D01*
X173774Y347481D01*
X173773Y347485D01*
X173422Y347570D01*
X173416Y347568D01*
X173414Y347571D01*
X173054Y347599D01*
X173051Y347598D01*
X173050Y347599D01*
X168450Y347599D01*
X168448Y347597D01*
X168446Y347599D01*
X168086Y347571D01*
X168082Y347567D01*
X168078Y347570D01*
X167727Y347485D01*
X167724Y347480D01*
X167720Y347483D01*
X167387Y347345D01*
X167384Y347340D01*
X167380Y347341D01*
X167072Y347153D01*
X167070Y347147D01*
X167066Y347148D01*
X166792Y346913D01*
X166791Y346908D01*
X166787Y346908D01*
X166552Y346634D01*
X166551Y346628D01*
X166547Y346628D01*
X166359Y346320D01*
X166360Y346314D01*
X166356Y346313D01*
X166218Y345980D01*
X166219Y345974D01*
X166215Y345973D01*
X166130Y345622D01*
X166134Y345614D01*
X166129Y345610D01*
X166101Y340550D01*
X166103Y340548D01*
X166101Y340546D01*
X166129Y340186D01*
X166133Y340182D01*
X166130Y340178D01*
X166215Y339827D01*
X166220Y339824D01*
X166218Y339820D01*
X166356Y339487D01*
X166361Y339484D01*
X166359Y339480D01*
X166547Y339172D01*
X166553Y339170D01*
X166552Y339166D01*
X166787Y338892D01*
X166792Y338891D01*
X166792Y338887D01*
X167066Y338652D01*
X167072Y338651D01*
X167072Y338647D01*
X167380Y338459D01*
X167386Y338460D01*
X167387Y338456D01*
X167720Y338318D01*
X167726Y338319D01*
X167727Y338315D01*
X168078Y338230D01*
X168084Y338233D01*
X168086Y338229D01*
X168446Y338201D01*
X168449Y338203D01*
X168450Y338201D01*
X173050Y338201D01*
X173052Y338203D01*
G37*
G36*
X216362Y322963D02*
X216362Y322963D01*
X216364Y322961D01*
X216724Y322989D01*
X216728Y322993D01*
X216732Y322990D01*
X217083Y323075D01*
X217086Y323080D01*
X217090Y323078D01*
X217423Y323216D01*
X217426Y323221D01*
X217430Y323219D01*
X217738Y323407D01*
X217740Y323413D01*
X217744Y323412D01*
X218018Y323647D01*
X218019Y323652D01*
X218023Y323652D01*
X218258Y323926D01*
X218259Y323932D01*
X218263Y323932D01*
X218451Y324240D01*
X218450Y324246D01*
X218455Y324247D01*
X218593Y324580D01*
X218591Y324586D01*
X218595Y324587D01*
X218680Y324938D01*
X218677Y324946D01*
X218681Y324950D01*
X218709Y330010D01*
X218707Y330012D01*
X218709Y330014D01*
X218681Y330374D01*
X218677Y330378D01*
X218680Y330382D01*
X218595Y330733D01*
X218590Y330736D01*
X218593Y330740D01*
X218455Y331073D01*
X218450Y331076D01*
X218451Y331080D01*
X218263Y331388D01*
X218257Y331390D01*
X218258Y331394D01*
X218023Y331668D01*
X218018Y331669D01*
X218018Y331673D01*
X217744Y331908D01*
X217738Y331909D01*
X217738Y331913D01*
X217430Y332101D01*
X217424Y332100D01*
X217423Y332105D01*
X217090Y332243D01*
X217084Y332241D01*
X217083Y332245D01*
X216732Y332330D01*
X216726Y332328D01*
X216724Y332331D01*
X216364Y332359D01*
X216361Y332358D01*
X216360Y332359D01*
X211760Y332359D01*
X211758Y332357D01*
X211756Y332359D01*
X211396Y332331D01*
X211392Y332327D01*
X211388Y332330D01*
X211037Y332245D01*
X211034Y332240D01*
X211030Y332243D01*
X210697Y332105D01*
X210694Y332100D01*
X210690Y332101D01*
X210382Y331913D01*
X210380Y331907D01*
X210376Y331908D01*
X210102Y331673D01*
X210101Y331668D01*
X210097Y331668D01*
X209862Y331394D01*
X209861Y331388D01*
X209857Y331388D01*
X209669Y331080D01*
X209670Y331074D01*
X209666Y331073D01*
X209528Y330740D01*
X209529Y330734D01*
X209525Y330733D01*
X209440Y330382D01*
X209444Y330374D01*
X209439Y330370D01*
X209411Y325310D01*
X209413Y325308D01*
X209411Y325306D01*
X209439Y324946D01*
X209443Y324942D01*
X209440Y324938D01*
X209525Y324587D01*
X209530Y324584D01*
X209528Y324580D01*
X209666Y324247D01*
X209671Y324244D01*
X209669Y324240D01*
X209857Y323932D01*
X209863Y323930D01*
X209862Y323926D01*
X210097Y323652D01*
X210102Y323651D01*
X210102Y323647D01*
X210376Y323412D01*
X210382Y323411D01*
X210382Y323407D01*
X210690Y323219D01*
X210696Y323220D01*
X210697Y323216D01*
X211030Y323078D01*
X211036Y323079D01*
X211037Y323075D01*
X211388Y322990D01*
X211394Y322993D01*
X211396Y322989D01*
X211756Y322961D01*
X211759Y322963D01*
X211760Y322961D01*
X216360Y322961D01*
X216362Y322963D01*
G37*
G36*
X173052Y322963D02*
X173052Y322963D01*
X173054Y322961D01*
X173414Y322989D01*
X173418Y322993D01*
X173422Y322990D01*
X173773Y323075D01*
X173776Y323080D01*
X173780Y323078D01*
X174113Y323216D01*
X174116Y323221D01*
X174120Y323219D01*
X174428Y323407D01*
X174430Y323413D01*
X174434Y323412D01*
X174708Y323647D01*
X174709Y323652D01*
X174713Y323652D01*
X174948Y323926D01*
X174949Y323932D01*
X174953Y323932D01*
X175141Y324240D01*
X175140Y324246D01*
X175145Y324247D01*
X175283Y324580D01*
X175281Y324586D01*
X175285Y324587D01*
X175370Y324938D01*
X175367Y324946D01*
X175371Y324950D01*
X175399Y330010D01*
X175397Y330012D01*
X175399Y330014D01*
X175371Y330374D01*
X175367Y330378D01*
X175370Y330382D01*
X175285Y330733D01*
X175280Y330736D01*
X175283Y330740D01*
X175145Y331073D01*
X175140Y331076D01*
X175141Y331080D01*
X174953Y331388D01*
X174947Y331390D01*
X174948Y331394D01*
X174713Y331668D01*
X174708Y331669D01*
X174708Y331673D01*
X174434Y331908D01*
X174428Y331909D01*
X174428Y331913D01*
X174120Y332101D01*
X174114Y332100D01*
X174113Y332105D01*
X173780Y332243D01*
X173774Y332241D01*
X173773Y332245D01*
X173422Y332330D01*
X173416Y332328D01*
X173414Y332331D01*
X173054Y332359D01*
X173051Y332358D01*
X173050Y332359D01*
X168450Y332359D01*
X168448Y332357D01*
X168446Y332359D01*
X168086Y332331D01*
X168082Y332327D01*
X168078Y332330D01*
X167727Y332245D01*
X167724Y332240D01*
X167720Y332243D01*
X167387Y332105D01*
X167384Y332100D01*
X167380Y332101D01*
X167072Y331913D01*
X167070Y331907D01*
X167066Y331908D01*
X166792Y331673D01*
X166791Y331668D01*
X166787Y331668D01*
X166552Y331394D01*
X166551Y331388D01*
X166547Y331388D01*
X166359Y331080D01*
X166360Y331074D01*
X166356Y331073D01*
X166218Y330740D01*
X166219Y330734D01*
X166215Y330733D01*
X166130Y330382D01*
X166134Y330374D01*
X166129Y330370D01*
X166101Y325310D01*
X166103Y325308D01*
X166101Y325306D01*
X166129Y324946D01*
X166133Y324942D01*
X166130Y324938D01*
X166215Y324587D01*
X166220Y324584D01*
X166218Y324580D01*
X166356Y324247D01*
X166361Y324244D01*
X166359Y324240D01*
X166547Y323932D01*
X166553Y323930D01*
X166552Y323926D01*
X166787Y323652D01*
X166792Y323651D01*
X166792Y323647D01*
X167066Y323412D01*
X167072Y323411D01*
X167072Y323407D01*
X167380Y323219D01*
X167386Y323220D01*
X167387Y323216D01*
X167720Y323078D01*
X167726Y323079D01*
X167727Y323075D01*
X168078Y322990D01*
X168084Y322993D01*
X168086Y322989D01*
X168446Y322961D01*
X168449Y322963D01*
X168450Y322961D01*
X173050Y322961D01*
X173052Y322963D01*
G37*
G36*
X187152Y322963D02*
X187152Y322963D01*
X187154Y322961D01*
X187514Y322989D01*
X187518Y322993D01*
X187522Y322990D01*
X187873Y323075D01*
X187876Y323080D01*
X187880Y323078D01*
X188213Y323216D01*
X188216Y323221D01*
X188220Y323219D01*
X188528Y323407D01*
X188530Y323413D01*
X188534Y323412D01*
X188808Y323647D01*
X188809Y323652D01*
X188813Y323652D01*
X189048Y323926D01*
X189049Y323932D01*
X189053Y323932D01*
X189241Y324240D01*
X189240Y324246D01*
X189245Y324247D01*
X189383Y324580D01*
X189381Y324586D01*
X189385Y324587D01*
X189470Y324938D01*
X189467Y324946D01*
X189471Y324950D01*
X189499Y330010D01*
X189497Y330012D01*
X189499Y330014D01*
X189471Y330374D01*
X189467Y330378D01*
X189470Y330382D01*
X189385Y330733D01*
X189380Y330736D01*
X189383Y330740D01*
X189245Y331073D01*
X189240Y331076D01*
X189241Y331080D01*
X189053Y331388D01*
X189047Y331390D01*
X189048Y331394D01*
X188813Y331668D01*
X188808Y331669D01*
X188808Y331673D01*
X188534Y331908D01*
X188528Y331909D01*
X188528Y331913D01*
X188220Y332101D01*
X188214Y332100D01*
X188213Y332105D01*
X187880Y332243D01*
X187874Y332241D01*
X187873Y332245D01*
X187522Y332330D01*
X187516Y332328D01*
X187514Y332331D01*
X187154Y332359D01*
X187151Y332358D01*
X187150Y332359D01*
X182550Y332359D01*
X182548Y332357D01*
X182546Y332359D01*
X182186Y332331D01*
X182182Y332327D01*
X182178Y332330D01*
X181827Y332245D01*
X181824Y332240D01*
X181820Y332243D01*
X181487Y332105D01*
X181484Y332100D01*
X181480Y332101D01*
X181172Y331913D01*
X181170Y331907D01*
X181166Y331908D01*
X180892Y331673D01*
X180891Y331668D01*
X180887Y331668D01*
X180652Y331394D01*
X180651Y331388D01*
X180647Y331388D01*
X180459Y331080D01*
X180460Y331074D01*
X180456Y331073D01*
X180318Y330740D01*
X180319Y330734D01*
X180315Y330733D01*
X180230Y330382D01*
X180234Y330374D01*
X180229Y330370D01*
X180201Y325310D01*
X180203Y325308D01*
X180201Y325306D01*
X180229Y324946D01*
X180233Y324942D01*
X180230Y324938D01*
X180315Y324587D01*
X180320Y324584D01*
X180318Y324580D01*
X180456Y324247D01*
X180461Y324244D01*
X180459Y324240D01*
X180647Y323932D01*
X180653Y323930D01*
X180652Y323926D01*
X180887Y323652D01*
X180892Y323651D01*
X180892Y323647D01*
X181166Y323412D01*
X181172Y323411D01*
X181172Y323407D01*
X181480Y323219D01*
X181486Y323220D01*
X181487Y323216D01*
X181820Y323078D01*
X181826Y323079D01*
X181827Y323075D01*
X182178Y322990D01*
X182184Y322993D01*
X182186Y322989D01*
X182546Y322961D01*
X182549Y322963D01*
X182550Y322961D01*
X187150Y322961D01*
X187152Y322963D01*
G37*
G36*
X202262Y322963D02*
X202262Y322963D01*
X202264Y322961D01*
X202624Y322989D01*
X202628Y322993D01*
X202632Y322990D01*
X202983Y323075D01*
X202986Y323080D01*
X202990Y323078D01*
X203323Y323216D01*
X203326Y323221D01*
X203330Y323219D01*
X203638Y323407D01*
X203640Y323413D01*
X203644Y323412D01*
X203918Y323647D01*
X203919Y323652D01*
X203923Y323652D01*
X204158Y323926D01*
X204159Y323932D01*
X204163Y323932D01*
X204351Y324240D01*
X204350Y324246D01*
X204355Y324247D01*
X204493Y324580D01*
X204491Y324586D01*
X204495Y324587D01*
X204580Y324938D01*
X204577Y324946D01*
X204581Y324950D01*
X204609Y330010D01*
X204607Y330012D01*
X204609Y330014D01*
X204581Y330374D01*
X204577Y330378D01*
X204580Y330382D01*
X204495Y330733D01*
X204490Y330736D01*
X204493Y330740D01*
X204355Y331073D01*
X204350Y331076D01*
X204351Y331080D01*
X204163Y331388D01*
X204157Y331390D01*
X204158Y331394D01*
X203923Y331668D01*
X203918Y331669D01*
X203918Y331673D01*
X203644Y331908D01*
X203638Y331909D01*
X203638Y331913D01*
X203330Y332101D01*
X203324Y332100D01*
X203323Y332105D01*
X202990Y332243D01*
X202984Y332241D01*
X202983Y332245D01*
X202632Y332330D01*
X202626Y332328D01*
X202624Y332331D01*
X202264Y332359D01*
X202261Y332358D01*
X202260Y332359D01*
X197660Y332359D01*
X197658Y332357D01*
X197656Y332359D01*
X197296Y332331D01*
X197292Y332327D01*
X197288Y332330D01*
X196937Y332245D01*
X196934Y332240D01*
X196930Y332243D01*
X196597Y332105D01*
X196594Y332100D01*
X196590Y332101D01*
X196282Y331913D01*
X196280Y331907D01*
X196276Y331908D01*
X196002Y331673D01*
X196001Y331668D01*
X195997Y331668D01*
X195762Y331394D01*
X195761Y331388D01*
X195757Y331388D01*
X195569Y331080D01*
X195570Y331074D01*
X195566Y331073D01*
X195428Y330740D01*
X195429Y330734D01*
X195425Y330733D01*
X195340Y330382D01*
X195344Y330374D01*
X195339Y330370D01*
X195311Y325310D01*
X195313Y325308D01*
X195311Y325306D01*
X195339Y324946D01*
X195343Y324942D01*
X195340Y324938D01*
X195425Y324587D01*
X195430Y324584D01*
X195428Y324580D01*
X195566Y324247D01*
X195571Y324244D01*
X195569Y324240D01*
X195757Y323932D01*
X195763Y323930D01*
X195762Y323926D01*
X195997Y323652D01*
X196002Y323651D01*
X196002Y323647D01*
X196276Y323412D01*
X196282Y323411D01*
X196282Y323407D01*
X196590Y323219D01*
X196596Y323220D01*
X196597Y323216D01*
X196930Y323078D01*
X196936Y323079D01*
X196937Y323075D01*
X197288Y322990D01*
X197294Y322993D01*
X197296Y322989D01*
X197656Y322961D01*
X197659Y322963D01*
X197660Y322961D01*
X202260Y322961D01*
X202262Y322963D01*
G37*
G36*
X149452Y192153D02*
X149452Y192153D01*
X149454Y192151D01*
X149751Y192174D01*
X149755Y192178D01*
X149759Y192175D01*
X150049Y192245D01*
X150052Y192250D01*
X150056Y192247D01*
X150332Y192361D01*
X150335Y192367D01*
X150339Y192365D01*
X150593Y192521D01*
X150595Y192526D01*
X150599Y192525D01*
X150826Y192718D01*
X150827Y192724D01*
X150832Y192724D01*
X151025Y192951D01*
X151025Y192957D01*
X151029Y192957D01*
X151185Y193211D01*
X151184Y193217D01*
X151189Y193218D01*
X151303Y193494D01*
X151301Y193500D01*
X151305Y193501D01*
X151375Y193791D01*
X151371Y193799D01*
X151376Y193803D01*
X151399Y199600D01*
X151397Y199602D01*
X151399Y199604D01*
X151376Y199901D01*
X151372Y199905D01*
X151375Y199909D01*
X151305Y200199D01*
X151300Y200202D01*
X151303Y200206D01*
X151189Y200482D01*
X151183Y200485D01*
X151185Y200489D01*
X151029Y200743D01*
X151024Y200745D01*
X151025Y200749D01*
X150832Y200976D01*
X150826Y200977D01*
X150826Y200982D01*
X150599Y201175D01*
X150593Y201175D01*
X150593Y201179D01*
X150339Y201335D01*
X150333Y201334D01*
X150332Y201339D01*
X150056Y201453D01*
X150050Y201451D01*
X150049Y201455D01*
X149759Y201525D01*
X149753Y201523D01*
X149751Y201526D01*
X149454Y201549D01*
X149451Y201548D01*
X149450Y201549D01*
X145850Y201549D01*
X145848Y201547D01*
X145846Y201549D01*
X145549Y201526D01*
X145545Y201522D01*
X145541Y201525D01*
X145251Y201455D01*
X145248Y201450D01*
X145244Y201453D01*
X144968Y201339D01*
X144965Y201333D01*
X144961Y201335D01*
X144707Y201179D01*
X144705Y201174D01*
X144701Y201175D01*
X144474Y200982D01*
X144473Y200976D01*
X144468Y200976D01*
X144275Y200749D01*
X144275Y200743D01*
X144271Y200743D01*
X144115Y200489D01*
X144116Y200483D01*
X144111Y200482D01*
X143997Y200206D01*
X143999Y200200D01*
X143995Y200199D01*
X143925Y199909D01*
X143929Y199901D01*
X143924Y199897D01*
X143901Y194100D01*
X143903Y194098D01*
X143901Y194096D01*
X143924Y193799D01*
X143928Y193795D01*
X143925Y193791D01*
X143995Y193501D01*
X144000Y193498D01*
X143997Y193494D01*
X144111Y193218D01*
X144117Y193215D01*
X144115Y193211D01*
X144271Y192957D01*
X144276Y192955D01*
X144275Y192951D01*
X144468Y192724D01*
X144474Y192723D01*
X144474Y192718D01*
X144701Y192525D01*
X144707Y192525D01*
X144707Y192521D01*
X144961Y192365D01*
X144967Y192366D01*
X144968Y192361D01*
X145244Y192247D01*
X145250Y192249D01*
X145251Y192245D01*
X145541Y192175D01*
X145547Y192178D01*
X145549Y192174D01*
X145846Y192151D01*
X145849Y192153D01*
X145850Y192151D01*
X149450Y192151D01*
X149452Y192153D01*
G37*
G36*
X133552Y192153D02*
X133552Y192153D01*
X133554Y192151D01*
X133851Y192174D01*
X133855Y192178D01*
X133859Y192175D01*
X134149Y192245D01*
X134152Y192250D01*
X134156Y192247D01*
X134432Y192361D01*
X134435Y192367D01*
X134439Y192365D01*
X134693Y192521D01*
X134695Y192526D01*
X134699Y192525D01*
X134926Y192718D01*
X134927Y192724D01*
X134932Y192724D01*
X135125Y192951D01*
X135125Y192957D01*
X135129Y192957D01*
X135285Y193211D01*
X135284Y193217D01*
X135289Y193218D01*
X135403Y193494D01*
X135401Y193500D01*
X135405Y193501D01*
X135475Y193791D01*
X135471Y193799D01*
X135476Y193803D01*
X135499Y199600D01*
X135497Y199602D01*
X135499Y199604D01*
X135476Y199901D01*
X135472Y199905D01*
X135475Y199909D01*
X135405Y200199D01*
X135400Y200202D01*
X135403Y200206D01*
X135289Y200482D01*
X135283Y200485D01*
X135285Y200489D01*
X135129Y200743D01*
X135124Y200745D01*
X135125Y200749D01*
X134932Y200976D01*
X134926Y200977D01*
X134926Y200982D01*
X134699Y201175D01*
X134693Y201175D01*
X134693Y201179D01*
X134439Y201335D01*
X134433Y201334D01*
X134432Y201339D01*
X134156Y201453D01*
X134150Y201451D01*
X134149Y201455D01*
X133859Y201525D01*
X133853Y201523D01*
X133851Y201526D01*
X133554Y201549D01*
X133551Y201548D01*
X133550Y201549D01*
X129950Y201549D01*
X129948Y201547D01*
X129946Y201549D01*
X129649Y201526D01*
X129645Y201522D01*
X129641Y201525D01*
X129351Y201455D01*
X129348Y201450D01*
X129344Y201453D01*
X129068Y201339D01*
X129065Y201333D01*
X129061Y201335D01*
X128807Y201179D01*
X128805Y201174D01*
X128801Y201175D01*
X128574Y200982D01*
X128573Y200976D01*
X128568Y200976D01*
X128375Y200749D01*
X128375Y200743D01*
X128371Y200743D01*
X128215Y200489D01*
X128216Y200483D01*
X128211Y200482D01*
X128097Y200206D01*
X128099Y200200D01*
X128095Y200199D01*
X128025Y199909D01*
X128029Y199901D01*
X128024Y199897D01*
X128001Y194100D01*
X128003Y194098D01*
X128001Y194096D01*
X128024Y193799D01*
X128028Y193795D01*
X128025Y193791D01*
X128095Y193501D01*
X128100Y193498D01*
X128097Y193494D01*
X128211Y193218D01*
X128217Y193215D01*
X128215Y193211D01*
X128371Y192957D01*
X128376Y192955D01*
X128375Y192951D01*
X128568Y192724D01*
X128574Y192723D01*
X128574Y192718D01*
X128801Y192525D01*
X128807Y192525D01*
X128807Y192521D01*
X129061Y192365D01*
X129067Y192366D01*
X129068Y192361D01*
X129344Y192247D01*
X129350Y192249D01*
X129351Y192245D01*
X129641Y192175D01*
X129647Y192178D01*
X129649Y192174D01*
X129946Y192151D01*
X129949Y192153D01*
X129950Y192151D01*
X133550Y192151D01*
X133552Y192153D01*
G37*
G36*
X149452Y128653D02*
X149452Y128653D01*
X149454Y128651D01*
X149751Y128674D01*
X149755Y128678D01*
X149759Y128675D01*
X150049Y128745D01*
X150052Y128750D01*
X150056Y128747D01*
X150332Y128861D01*
X150335Y128867D01*
X150339Y128865D01*
X150593Y129021D01*
X150595Y129026D01*
X150599Y129025D01*
X150826Y129218D01*
X150827Y129224D01*
X150832Y129224D01*
X151025Y129451D01*
X151025Y129457D01*
X151029Y129457D01*
X151185Y129711D01*
X151184Y129717D01*
X151189Y129718D01*
X151303Y129994D01*
X151301Y130000D01*
X151305Y130001D01*
X151375Y130291D01*
X151371Y130299D01*
X151376Y130303D01*
X151399Y136100D01*
X151397Y136102D01*
X151399Y136104D01*
X151376Y136401D01*
X151372Y136405D01*
X151375Y136409D01*
X151305Y136699D01*
X151300Y136702D01*
X151303Y136706D01*
X151189Y136982D01*
X151183Y136985D01*
X151185Y136989D01*
X151029Y137243D01*
X151024Y137245D01*
X151025Y137249D01*
X150832Y137476D01*
X150826Y137477D01*
X150826Y137482D01*
X150599Y137675D01*
X150593Y137675D01*
X150593Y137679D01*
X150339Y137835D01*
X150333Y137834D01*
X150332Y137839D01*
X150056Y137953D01*
X150050Y137951D01*
X150049Y137955D01*
X149759Y138025D01*
X149753Y138023D01*
X149751Y138026D01*
X149454Y138049D01*
X149451Y138048D01*
X149450Y138049D01*
X145850Y138049D01*
X145848Y138047D01*
X145846Y138049D01*
X145549Y138026D01*
X145545Y138022D01*
X145541Y138025D01*
X145251Y137955D01*
X145248Y137950D01*
X145244Y137953D01*
X144968Y137839D01*
X144965Y137833D01*
X144961Y137835D01*
X144707Y137679D01*
X144705Y137674D01*
X144701Y137675D01*
X144474Y137482D01*
X144473Y137476D01*
X144468Y137476D01*
X144275Y137249D01*
X144275Y137243D01*
X144271Y137243D01*
X144115Y136989D01*
X144116Y136983D01*
X144111Y136982D01*
X143997Y136706D01*
X143999Y136700D01*
X143995Y136699D01*
X143925Y136409D01*
X143929Y136401D01*
X143924Y136397D01*
X143901Y130600D01*
X143903Y130598D01*
X143901Y130596D01*
X143924Y130299D01*
X143928Y130295D01*
X143925Y130291D01*
X143995Y130001D01*
X144000Y129998D01*
X143997Y129994D01*
X144111Y129718D01*
X144117Y129715D01*
X144115Y129711D01*
X144271Y129457D01*
X144276Y129455D01*
X144275Y129451D01*
X144468Y129224D01*
X144474Y129223D01*
X144474Y129218D01*
X144701Y129025D01*
X144707Y129025D01*
X144707Y129021D01*
X144961Y128865D01*
X144967Y128866D01*
X144968Y128861D01*
X145244Y128747D01*
X145250Y128749D01*
X145251Y128745D01*
X145541Y128675D01*
X145547Y128678D01*
X145549Y128674D01*
X145846Y128651D01*
X145849Y128653D01*
X145850Y128651D01*
X149450Y128651D01*
X149452Y128653D01*
G37*
G36*
X133552Y128653D02*
X133552Y128653D01*
X133554Y128651D01*
X133851Y128674D01*
X133855Y128678D01*
X133859Y128675D01*
X134149Y128745D01*
X134152Y128750D01*
X134156Y128747D01*
X134432Y128861D01*
X134435Y128867D01*
X134439Y128865D01*
X134693Y129021D01*
X134695Y129026D01*
X134699Y129025D01*
X134926Y129218D01*
X134927Y129224D01*
X134932Y129224D01*
X135125Y129451D01*
X135125Y129457D01*
X135129Y129457D01*
X135285Y129711D01*
X135284Y129717D01*
X135289Y129718D01*
X135403Y129994D01*
X135401Y130000D01*
X135405Y130001D01*
X135475Y130291D01*
X135471Y130299D01*
X135476Y130303D01*
X135499Y136100D01*
X135497Y136102D01*
X135499Y136104D01*
X135476Y136401D01*
X135472Y136405D01*
X135475Y136409D01*
X135405Y136699D01*
X135400Y136702D01*
X135403Y136706D01*
X135289Y136982D01*
X135283Y136985D01*
X135285Y136989D01*
X135129Y137243D01*
X135124Y137245D01*
X135125Y137249D01*
X134932Y137476D01*
X134926Y137477D01*
X134926Y137482D01*
X134699Y137675D01*
X134693Y137675D01*
X134693Y137679D01*
X134439Y137835D01*
X134433Y137834D01*
X134432Y137839D01*
X134156Y137953D01*
X134150Y137951D01*
X134149Y137955D01*
X133859Y138025D01*
X133853Y138023D01*
X133851Y138026D01*
X133554Y138049D01*
X133551Y138048D01*
X133550Y138049D01*
X129950Y138049D01*
X129948Y138047D01*
X129946Y138049D01*
X129649Y138026D01*
X129645Y138022D01*
X129641Y138025D01*
X129351Y137955D01*
X129348Y137950D01*
X129344Y137953D01*
X129068Y137839D01*
X129065Y137833D01*
X129061Y137835D01*
X128807Y137679D01*
X128805Y137674D01*
X128801Y137675D01*
X128574Y137482D01*
X128573Y137476D01*
X128568Y137476D01*
X128375Y137249D01*
X128375Y137243D01*
X128371Y137243D01*
X128215Y136989D01*
X128216Y136983D01*
X128211Y136982D01*
X128097Y136706D01*
X128099Y136700D01*
X128095Y136699D01*
X128025Y136409D01*
X128029Y136401D01*
X128024Y136397D01*
X128001Y130600D01*
X128003Y130598D01*
X128001Y130596D01*
X128024Y130299D01*
X128028Y130295D01*
X128025Y130291D01*
X128095Y130001D01*
X128100Y129998D01*
X128097Y129994D01*
X128211Y129718D01*
X128217Y129715D01*
X128215Y129711D01*
X128371Y129457D01*
X128376Y129455D01*
X128375Y129451D01*
X128568Y129224D01*
X128574Y129223D01*
X128574Y129218D01*
X128801Y129025D01*
X128807Y129025D01*
X128807Y129021D01*
X129061Y128865D01*
X129067Y128866D01*
X129068Y128861D01*
X129344Y128747D01*
X129350Y128749D01*
X129351Y128745D01*
X129641Y128675D01*
X129647Y128678D01*
X129649Y128674D01*
X129946Y128651D01*
X129949Y128653D01*
X129950Y128651D01*
X133550Y128651D01*
X133552Y128653D01*
G37*
D10*
X25400Y101600D03*
X355600Y482600D03*
X25400Y482600D03*
X355600Y101600D03*
D11*
X349250Y189230D03*
X76200Y458470D03*
X76200Y443230D03*
X76200Y412750D03*
X76200Y397510D03*
X76200Y382270D03*
D12*
X152400Y25400D03*
X228600Y25400D03*
D11*
X304800Y57150D03*
X76200Y427990D03*
X139700Y156210D03*
X139700Y173990D03*
X30480Y247650D03*
X30480Y189230D03*
X349250Y248920D03*
D13*
X202263Y330013D02*
X197657Y330013D01*
X202263Y330013D02*
X202263Y325307D01*
X197657Y325307D01*
X197657Y330013D01*
X211757Y325307D02*
X216363Y325307D01*
X211757Y325307D02*
X211757Y330013D01*
X216363Y330013D01*
X216363Y325307D01*
X202263Y345253D02*
X197657Y345253D01*
X202263Y345253D02*
X202263Y340547D01*
X197657Y340547D01*
X197657Y345253D01*
X211757Y340547D02*
X216363Y340547D01*
X211757Y340547D02*
X211757Y345253D01*
X216363Y345253D01*
X216363Y340547D01*
X187153Y325307D02*
X182547Y325307D01*
X182547Y330013D01*
X187153Y330013D01*
X187153Y325307D01*
X173053Y330013D02*
X168447Y330013D01*
X173053Y330013D02*
X173053Y325307D01*
X168447Y325307D01*
X168447Y330013D01*
X182547Y340547D02*
X187153Y340547D01*
X182547Y340547D02*
X182547Y345253D01*
X187153Y345253D01*
X187153Y340547D01*
X173053Y345253D02*
X168447Y345253D01*
X173053Y345253D02*
X173053Y340547D01*
X168447Y340547D01*
X168447Y345253D01*
D14*
X127000Y25400D03*
X101600Y25400D03*
X76200Y25400D03*
X50800Y25400D03*
X254000Y25400D03*
X279400Y25400D03*
X304800Y25400D03*
X330200Y25400D03*
X177800Y25400D03*
X203200Y25400D03*
D15*
X237490Y212090D03*
X217479Y265121D03*
X133350Y226500D03*
X163000Y309880D03*
X266700Y375920D03*
X139700Y379730D03*
X143816Y453390D03*
X161740Y447040D03*
X81458Y182654D03*
X131510Y106680D03*
X200700Y105410D03*
X367058Y354330D03*
X257810Y124460D03*
X156210Y50800D03*
X152400Y342900D03*
X129540Y240030D03*
X115796Y225454D03*
X177800Y310924D03*
X330200Y168910D03*
X330200Y182654D03*
X177800Y236500D03*
X177800Y225306D03*
X247650Y198120D03*
X267970Y330200D03*
X254000Y260350D03*
X254000Y355600D03*
X292100Y195580D03*
X279400Y254000D03*
X190500Y257841D03*
X96520Y186690D03*
X190500Y266929D03*
X96327Y254193D03*
X127000Y342900D03*
X114300Y457200D03*
X119380Y387350D03*
X107950Y419406D03*
X111986Y368300D03*
X104930Y381000D03*
X167640Y256289D03*
X167640Y247201D03*
X182880Y152400D03*
X201930Y152400D03*
X195150Y175690D03*
X186424Y185564D03*
X133576Y281500D03*
X88900Y330200D03*
X139700Y304800D03*
X139700Y368300D03*
X209550Y247650D03*
X303530Y80010D03*
X102870Y440690D03*
M02*
