M48
;GenerationSoftware,Autodesk,EAGLE,9.4.0*%
;CreationDate,2020-11-29T21:11:04Z*%
FMAT,2
ICI,OFF
METRIC,TZ,000.000
T3C0.350
T2C1.016
T1C2.800
%
G90
M71
T1
X52070Y82550
X6350Y82550
X52070Y6350
X6350Y6350
T2
X24130Y19050
X29210Y83820
X31750Y83820
X25400Y62230
X25400Y73660
X6350Y44450
X52070Y69342
X52070Y66802
X52070Y53340
X52070Y50800
X52070Y38100
X52070Y21590
X52070Y19050
X16510Y83820
X11430Y46990
X19050Y83820
X6350Y49530
X6350Y46990
X52070Y35560
X6350Y41910
X6350Y39370
X11430Y44450
X11430Y41910
X11430Y39370
X24130Y31750
T3
X3810Y74930
X8890Y15240
X21082Y16764
X21019Y71438
X8890Y69850
X33020Y17780
X21590Y29210
X8890Y27940
X31750Y66040
X21590Y59944
X38100Y8890
X31750Y35560
X31750Y50800
X35560Y22860
X2540Y20320
X8890Y58420
M30