G04 EAGLE Gerber RS-274X export*
G75*
%MOMM*%
%FSLAX34Y34*%
%LPD*%
%INSoldermask Bottom*%
%IPPOS*%
%AMOC8*
5,1,8,0,0,1.08239X$1,22.5*%
G01*
%ADD10C,3.003200*%
%ADD11C,2.082800*%
%ADD12R,1.727200X1.727200*%
%ADD13C,0.959600*%


D10*
X520700Y825500D03*
X63500Y825500D03*
X520700Y63500D03*
X63500Y63500D03*
D11*
X63500Y495300D03*
X63500Y469900D03*
X63500Y444500D03*
X63500Y419100D03*
X63500Y393700D03*
X114300Y444500D03*
X114300Y419100D03*
X114300Y393700D03*
X241300Y317500D03*
X241300Y190500D03*
D12*
X292100Y838200D03*
X317500Y838200D03*
D11*
X254000Y622300D03*
X254000Y736600D03*
D12*
X520700Y693420D03*
X520700Y668020D03*
X520700Y533400D03*
X520700Y508000D03*
X520700Y381000D03*
X520700Y355600D03*
X520700Y215900D03*
X520700Y190500D03*
D11*
X165100Y838200D03*
X114300Y469900D03*
X190500Y838200D03*
D13*
X38100Y749300D03*
X88900Y152400D03*
X210820Y167640D03*
X210185Y714375D03*
X88900Y698500D03*
X88900Y584200D03*
X330200Y177800D03*
X215900Y292100D03*
X88900Y279400D03*
X317500Y660400D03*
X215900Y599440D03*
X381000Y88900D03*
X317500Y355600D03*
X317500Y508000D03*
X355600Y228600D03*
X25400Y203200D03*
M02*
