M48
;GenerationSoftware,Autodesk,EAGLE,9.4.0*%
;CreationDate,2021-01-21T17:01:36Z*%
FMAT,2
ICI,OFF
METRIC,TZ,000.000
T3C0.350
T2C1.016
T1C3.000
%
G90
M71
T1
X2540Y10160
X35560Y48260
X2540Y48260
X35560Y10160
T2
X20320Y2540
X10160Y2540
X12700Y2540
X7620Y2540
X5080Y2540
X25400Y2540
X27940Y2540
X30480Y2540
X33020Y2540
X17780Y2540
T3
X15240Y34290
X12954Y24003
X11580Y22545
X17780Y31092
X33020Y16891
X33020Y18265
X17780Y23650
X17780Y22531
X24765Y19812
X26797Y33020
X25400Y26035
X25400Y35560
X29210Y19558
X27940Y25400
X19050Y25784
X9652Y18669
X19050Y26693
X9633Y25419
X8146Y18265
X11430Y45720
X11938Y38735
X10795Y41941
X11199Y36830
X10493Y38100
X16764Y25629
X16764Y24720
X18288Y15240
X20193Y15240
X19515Y17569
X18642Y18556
X13358Y28150
X8890Y33020
X13970Y30480
X13970Y36830
X23749Y21209
X30353Y8001
X10287Y44069
X21748Y26512
X13335Y22650
X16300Y30988
X26670Y37592
X13970Y37973
X12700Y34290
X14382Y45339
X16174Y44704
X13151Y10668
X20070Y10541
X36706Y35433
X25781Y12446
X15621Y5080
X20955Y24765
M30