G04 EAGLE Gerber RS-274X export*
G75*
%MOMM*%
%FSLAX34Y34*%
%LPD*%
%INBottom Copper*%
%IPPOS*%
%AMOC8*
5,1,8,0,0,1.08239X$1,22.5*%
G01*
%ADD10C,1.879600*%
%ADD11R,1.524000X1.524000*%
%ADD12C,0.152400*%
%ADD13C,0.756400*%

G36*
X509014Y10163D02*
X509014Y10163D01*
X509037Y10162D01*
X515318Y10470D01*
X515350Y10477D01*
X515429Y10484D01*
X527749Y12935D01*
X527772Y12943D01*
X527892Y12978D01*
X539497Y17785D01*
X539518Y17798D01*
X539629Y17855D01*
X550074Y24834D01*
X550091Y24851D01*
X550189Y24929D01*
X559071Y33811D01*
X559085Y33830D01*
X559166Y33926D01*
X566145Y44371D01*
X566155Y44393D01*
X566215Y44503D01*
X571022Y56108D01*
X571028Y56131D01*
X571065Y56251D01*
X573516Y68571D01*
X573517Y68604D01*
X573530Y68682D01*
X573838Y74963D01*
X573837Y74977D01*
X573839Y75000D01*
X573839Y810700D01*
X573837Y810714D01*
X573838Y810737D01*
X573530Y817018D01*
X573523Y817050D01*
X573516Y817129D01*
X571065Y829449D01*
X571057Y829472D01*
X571022Y829592D01*
X566215Y841197D01*
X566202Y841218D01*
X566145Y841329D01*
X559166Y851774D01*
X559149Y851791D01*
X559134Y851811D01*
X559121Y851833D01*
X559106Y851845D01*
X559071Y851889D01*
X550189Y860771D01*
X550170Y860785D01*
X550074Y860866D01*
X539629Y867845D01*
X539607Y867855D01*
X539497Y867915D01*
X527892Y872722D01*
X527869Y872728D01*
X527749Y872765D01*
X515429Y875216D01*
X515396Y875217D01*
X515318Y875230D01*
X509037Y875538D01*
X509023Y875537D01*
X509000Y875539D01*
X75000Y875539D01*
X74986Y875537D01*
X74962Y875538D01*
X68682Y875230D01*
X68650Y875223D01*
X68571Y875216D01*
X56251Y872765D01*
X56228Y872757D01*
X56108Y872722D01*
X44503Y867915D01*
X44482Y867902D01*
X44371Y867845D01*
X33926Y860866D01*
X33909Y860849D01*
X33811Y860771D01*
X24929Y851889D01*
X24915Y851870D01*
X24834Y851774D01*
X17855Y841329D01*
X17845Y841307D01*
X17785Y841198D01*
X12978Y829592D01*
X12972Y829569D01*
X12942Y829472D01*
X12941Y829471D01*
X12941Y829469D01*
X12935Y829449D01*
X10484Y817129D01*
X10483Y817096D01*
X10470Y817018D01*
X10162Y810737D01*
X10163Y810723D01*
X10161Y810700D01*
X10161Y75000D01*
X10163Y74986D01*
X10162Y74963D01*
X10470Y68682D01*
X10477Y68650D01*
X10484Y68571D01*
X12935Y56251D01*
X12943Y56228D01*
X12978Y56108D01*
X17785Y44503D01*
X17798Y44482D01*
X17855Y44371D01*
X24834Y33926D01*
X24851Y33909D01*
X24929Y33811D01*
X33811Y24929D01*
X33830Y24915D01*
X33926Y24834D01*
X44371Y17855D01*
X44393Y17845D01*
X44502Y17785D01*
X56108Y12978D01*
X56131Y12972D01*
X56251Y12935D01*
X68571Y10484D01*
X68604Y10483D01*
X68682Y10470D01*
X74963Y10162D01*
X74977Y10163D01*
X75000Y10161D01*
X509000Y10161D01*
X509014Y10163D01*
G37*
%LPC*%
G36*
X509714Y29689D02*
X509714Y29689D01*
X499803Y34738D01*
X491938Y42603D01*
X486889Y52514D01*
X485149Y63500D01*
X486889Y74486D01*
X491938Y84397D01*
X499803Y92262D01*
X509714Y97311D01*
X520700Y99051D01*
X531686Y97311D01*
X541597Y92262D01*
X549462Y84397D01*
X554511Y74486D01*
X556251Y63500D01*
X554511Y52514D01*
X549462Y42603D01*
X541597Y34738D01*
X531686Y29689D01*
X520700Y27949D01*
X509714Y29689D01*
G37*
%LPD*%
%LPC*%
G36*
X509714Y791689D02*
X509714Y791689D01*
X499803Y796738D01*
X491938Y804603D01*
X486889Y814514D01*
X485149Y825500D01*
X486889Y836486D01*
X491938Y846397D01*
X499803Y854262D01*
X509714Y859311D01*
X520700Y861051D01*
X531686Y859311D01*
X541597Y854262D01*
X549462Y846397D01*
X554511Y836486D01*
X556251Y825500D01*
X554511Y814514D01*
X549462Y804603D01*
X541597Y796738D01*
X531686Y791689D01*
X520700Y789949D01*
X509714Y791689D01*
G37*
%LPD*%
%LPC*%
G36*
X52514Y29689D02*
X52514Y29689D01*
X42603Y34738D01*
X34738Y42603D01*
X29689Y52514D01*
X27949Y63500D01*
X29689Y74486D01*
X34738Y84397D01*
X42603Y92262D01*
X52514Y97311D01*
X63500Y99051D01*
X74486Y97311D01*
X84397Y92262D01*
X92262Y84397D01*
X97311Y74486D01*
X99051Y63500D01*
X97311Y52514D01*
X92262Y42603D01*
X84397Y34738D01*
X74486Y29689D01*
X63500Y27949D01*
X52514Y29689D01*
G37*
%LPD*%
%LPC*%
G36*
X52514Y791689D02*
X52514Y791689D01*
X42603Y796738D01*
X34738Y804603D01*
X29689Y814514D01*
X27949Y825500D01*
X29689Y836486D01*
X34738Y846397D01*
X42603Y854262D01*
X52514Y859311D01*
X63500Y861051D01*
X74486Y859311D01*
X84397Y854262D01*
X92262Y846397D01*
X97311Y836486D01*
X99051Y825500D01*
X97311Y814514D01*
X92262Y804603D01*
X84397Y796738D01*
X74486Y791689D01*
X63500Y789949D01*
X52514Y791689D01*
G37*
%LPD*%
%LPC*%
G36*
X61327Y458977D02*
X61327Y458977D01*
X57313Y460640D01*
X54240Y463713D01*
X52577Y467727D01*
X52577Y472073D01*
X53998Y475503D01*
X54025Y475617D01*
X54053Y475730D01*
X54053Y475737D01*
X54054Y475743D01*
X54043Y475859D01*
X54034Y475976D01*
X54032Y475981D01*
X54031Y475988D01*
X53983Y476095D01*
X53938Y476202D01*
X53933Y476208D01*
X53931Y476212D01*
X53919Y476226D01*
X53833Y476333D01*
X35813Y494353D01*
X35813Y743767D01*
X35799Y743857D01*
X35791Y743948D01*
X35779Y743977D01*
X35774Y744009D01*
X35731Y744090D01*
X35695Y744174D01*
X35669Y744206D01*
X35658Y744227D01*
X35635Y744249D01*
X35590Y744305D01*
X32793Y747102D01*
X32793Y751498D01*
X35902Y754607D01*
X40298Y754607D01*
X43407Y751498D01*
X43407Y747102D01*
X40610Y744305D01*
X40557Y744231D01*
X40497Y744161D01*
X40485Y744131D01*
X40466Y744105D01*
X40439Y744018D01*
X40405Y743933D01*
X40401Y743892D01*
X40394Y743870D01*
X40395Y743838D01*
X40387Y743767D01*
X40387Y496563D01*
X40401Y496472D01*
X40409Y496382D01*
X40421Y496352D01*
X40426Y496320D01*
X40469Y496239D01*
X40505Y496155D01*
X40531Y496123D01*
X40542Y496102D01*
X40565Y496080D01*
X40610Y496024D01*
X57067Y479567D01*
X57161Y479499D01*
X57256Y479429D01*
X57262Y479427D01*
X57267Y479423D01*
X57378Y479389D01*
X57490Y479353D01*
X57496Y479353D01*
X57502Y479351D01*
X57619Y479354D01*
X57736Y479355D01*
X57743Y479357D01*
X57748Y479357D01*
X57765Y479364D01*
X57897Y479402D01*
X61327Y480823D01*
X65673Y480823D01*
X69687Y479160D01*
X72760Y476087D01*
X74423Y472073D01*
X74423Y467727D01*
X72760Y463713D01*
X69687Y460640D01*
X65673Y458977D01*
X61327Y458977D01*
G37*
%LPD*%
%LPC*%
G36*
X23202Y197893D02*
X23202Y197893D01*
X20093Y201002D01*
X20093Y205398D01*
X22890Y208195D01*
X22943Y208269D01*
X23003Y208339D01*
X23015Y208369D01*
X23034Y208395D01*
X23061Y208482D01*
X23095Y208567D01*
X23099Y208608D01*
X23106Y208630D01*
X23105Y208662D01*
X23113Y208733D01*
X23113Y356547D01*
X53833Y387267D01*
X53901Y387361D01*
X53971Y387456D01*
X53973Y387462D01*
X53977Y387467D01*
X54011Y387578D01*
X54047Y387690D01*
X54047Y387696D01*
X54049Y387702D01*
X54046Y387819D01*
X54045Y387936D01*
X54043Y387943D01*
X54043Y387948D01*
X54036Y387965D01*
X53998Y388097D01*
X52577Y391527D01*
X52577Y395873D01*
X54240Y399887D01*
X57313Y402960D01*
X61327Y404623D01*
X65673Y404623D01*
X69687Y402960D01*
X72760Y399887D01*
X74423Y395873D01*
X74423Y391527D01*
X72760Y387513D01*
X69687Y384440D01*
X65673Y382777D01*
X61327Y382777D01*
X57897Y384198D01*
X57783Y384225D01*
X57670Y384253D01*
X57663Y384253D01*
X57657Y384254D01*
X57541Y384243D01*
X57424Y384234D01*
X57419Y384232D01*
X57412Y384231D01*
X57305Y384183D01*
X57198Y384138D01*
X57192Y384133D01*
X57188Y384131D01*
X57174Y384119D01*
X57067Y384033D01*
X27910Y354876D01*
X27857Y354802D01*
X27797Y354732D01*
X27785Y354702D01*
X27766Y354676D01*
X27739Y354589D01*
X27705Y354504D01*
X27701Y354463D01*
X27694Y354441D01*
X27695Y354409D01*
X27687Y354337D01*
X27687Y208733D01*
X27701Y208643D01*
X27709Y208552D01*
X27721Y208523D01*
X27726Y208491D01*
X27769Y208410D01*
X27805Y208326D01*
X27831Y208294D01*
X27842Y208273D01*
X27865Y208251D01*
X27910Y208195D01*
X30707Y205398D01*
X30707Y201002D01*
X27598Y197893D01*
X23202Y197893D01*
G37*
%LPD*%
%LPC*%
G36*
X239127Y179577D02*
X239127Y179577D01*
X235113Y181240D01*
X232040Y184313D01*
X230377Y188327D01*
X230377Y192673D01*
X232040Y196687D01*
X235113Y199760D01*
X239127Y201423D01*
X243473Y201423D01*
X247487Y199760D01*
X250560Y196687D01*
X251981Y193257D01*
X252042Y193157D01*
X252102Y193057D01*
X252107Y193053D01*
X252110Y193048D01*
X252200Y192973D01*
X252289Y192897D01*
X252295Y192895D01*
X252300Y192891D01*
X252408Y192849D01*
X252517Y192805D01*
X252525Y192804D01*
X252530Y192803D01*
X252548Y192802D01*
X252684Y192787D01*
X352552Y192787D01*
X352572Y192790D01*
X352591Y192788D01*
X352693Y192810D01*
X352795Y192826D01*
X352812Y192836D01*
X352832Y192840D01*
X352921Y192893D01*
X353012Y192942D01*
X353026Y192956D01*
X353043Y192966D01*
X353110Y193045D01*
X353182Y193120D01*
X353190Y193138D01*
X353203Y193153D01*
X353242Y193249D01*
X353285Y193343D01*
X353287Y193363D01*
X353295Y193381D01*
X353313Y193548D01*
X353313Y223067D01*
X353299Y223157D01*
X353291Y223248D01*
X353279Y223277D01*
X353274Y223309D01*
X353231Y223390D01*
X353195Y223474D01*
X353169Y223506D01*
X353158Y223527D01*
X353135Y223549D01*
X353090Y223605D01*
X350293Y226402D01*
X350293Y230798D01*
X353402Y233907D01*
X357798Y233907D01*
X360907Y230798D01*
X360907Y226402D01*
X358110Y223605D01*
X358057Y223531D01*
X357997Y223461D01*
X357985Y223431D01*
X357966Y223405D01*
X357939Y223318D01*
X357905Y223233D01*
X357901Y223192D01*
X357894Y223170D01*
X357895Y223138D01*
X357887Y223067D01*
X357887Y189553D01*
X356547Y188213D01*
X252684Y188213D01*
X252569Y188194D01*
X252453Y188177D01*
X252448Y188175D01*
X252441Y188174D01*
X252339Y188119D01*
X252234Y188066D01*
X252230Y188061D01*
X252224Y188058D01*
X252144Y187974D01*
X252062Y187890D01*
X252058Y187884D01*
X252055Y187880D01*
X252047Y187863D01*
X251981Y187743D01*
X250560Y184313D01*
X247487Y181240D01*
X243473Y179577D01*
X239127Y179577D01*
G37*
%LPD*%
%LPC*%
G36*
X239127Y306577D02*
X239127Y306577D01*
X235113Y308240D01*
X232040Y311313D01*
X230377Y315327D01*
X230377Y319673D01*
X232040Y323687D01*
X235113Y326760D01*
X239127Y328423D01*
X243473Y328423D01*
X247487Y326760D01*
X250560Y323687D01*
X252223Y319673D01*
X252223Y315327D01*
X250560Y311313D01*
X247487Y308240D01*
X243473Y306577D01*
X239127Y306577D01*
G37*
%LPD*%
%LPC*%
G36*
X251827Y725677D02*
X251827Y725677D01*
X247813Y727340D01*
X244740Y730413D01*
X243077Y734427D01*
X243077Y738773D01*
X244740Y742787D01*
X247813Y745860D01*
X251827Y747523D01*
X256173Y747523D01*
X260187Y745860D01*
X263260Y742787D01*
X264923Y738773D01*
X264923Y734427D01*
X263260Y730413D01*
X260187Y727340D01*
X256173Y725677D01*
X251827Y725677D01*
G37*
%LPD*%
%LPC*%
G36*
X162927Y827277D02*
X162927Y827277D01*
X158913Y828940D01*
X155840Y832013D01*
X154177Y836027D01*
X154177Y840373D01*
X155840Y844387D01*
X158913Y847460D01*
X162927Y849123D01*
X167273Y849123D01*
X171287Y847460D01*
X174360Y844387D01*
X176023Y840373D01*
X176023Y836027D01*
X174360Y832013D01*
X171287Y828940D01*
X167273Y827277D01*
X162927Y827277D01*
G37*
%LPD*%
%LPC*%
G36*
X251827Y611377D02*
X251827Y611377D01*
X247813Y613040D01*
X244740Y616113D01*
X243077Y620127D01*
X243077Y624473D01*
X244740Y628487D01*
X247813Y631560D01*
X251827Y633223D01*
X256173Y633223D01*
X260187Y631560D01*
X263260Y628487D01*
X264923Y624473D01*
X264923Y620127D01*
X263260Y616113D01*
X260187Y613040D01*
X256173Y611377D01*
X251827Y611377D01*
G37*
%LPD*%
%LPC*%
G36*
X61327Y408177D02*
X61327Y408177D01*
X57313Y409840D01*
X54240Y412913D01*
X52577Y416927D01*
X52577Y421273D01*
X54240Y425287D01*
X57313Y428360D01*
X61327Y430023D01*
X65673Y430023D01*
X69687Y428360D01*
X72760Y425287D01*
X74423Y421273D01*
X74423Y416927D01*
X72760Y412913D01*
X69687Y409840D01*
X65673Y408177D01*
X61327Y408177D01*
G37*
%LPD*%
%LPC*%
G36*
X112127Y458977D02*
X112127Y458977D01*
X108113Y460640D01*
X105040Y463713D01*
X103377Y467727D01*
X103377Y472073D01*
X105040Y476087D01*
X108113Y479160D01*
X112127Y480823D01*
X116473Y480823D01*
X120487Y479160D01*
X123560Y476087D01*
X125223Y472073D01*
X125223Y467727D01*
X123560Y463713D01*
X120487Y460640D01*
X116473Y458977D01*
X112127Y458977D01*
G37*
%LPD*%
%LPC*%
G36*
X112127Y433577D02*
X112127Y433577D01*
X108113Y435240D01*
X105040Y438313D01*
X103377Y442327D01*
X103377Y446673D01*
X105040Y450687D01*
X108113Y453760D01*
X112127Y455423D01*
X116473Y455423D01*
X120487Y453760D01*
X123560Y450687D01*
X125223Y446673D01*
X125223Y442327D01*
X123560Y438313D01*
X120487Y435240D01*
X116473Y433577D01*
X112127Y433577D01*
G37*
%LPD*%
%LPC*%
G36*
X61327Y433577D02*
X61327Y433577D01*
X57313Y435240D01*
X54240Y438313D01*
X52577Y442327D01*
X52577Y446673D01*
X54240Y450687D01*
X57313Y453760D01*
X61327Y455423D01*
X65673Y455423D01*
X69687Y453760D01*
X72760Y450687D01*
X74423Y446673D01*
X74423Y442327D01*
X72760Y438313D01*
X69687Y435240D01*
X65673Y433577D01*
X61327Y433577D01*
G37*
%LPD*%
%LPC*%
G36*
X112127Y408177D02*
X112127Y408177D01*
X108113Y409840D01*
X105040Y412913D01*
X103377Y416927D01*
X103377Y421273D01*
X105040Y425287D01*
X108113Y428360D01*
X112127Y430023D01*
X116473Y430023D01*
X120487Y428360D01*
X123560Y425287D01*
X125223Y421273D01*
X125223Y416927D01*
X123560Y412913D01*
X120487Y409840D01*
X116473Y408177D01*
X112127Y408177D01*
G37*
%LPD*%
%LPC*%
G36*
X112127Y382777D02*
X112127Y382777D01*
X108113Y384440D01*
X105040Y387513D01*
X103377Y391527D01*
X103377Y395873D01*
X105040Y399887D01*
X108113Y402960D01*
X112127Y404623D01*
X116473Y404623D01*
X120487Y402960D01*
X123560Y399887D01*
X125223Y395873D01*
X125223Y391527D01*
X123560Y387513D01*
X120487Y384440D01*
X116473Y382777D01*
X112127Y382777D01*
G37*
%LPD*%
%LPC*%
G36*
X309248Y829055D02*
X309248Y829055D01*
X308355Y829948D01*
X308355Y846452D01*
X309248Y847345D01*
X325752Y847345D01*
X326645Y846452D01*
X326645Y829948D01*
X325752Y829055D01*
X309248Y829055D01*
G37*
%LPD*%
%LPC*%
G36*
X512448Y524255D02*
X512448Y524255D01*
X511555Y525148D01*
X511555Y541652D01*
X512448Y542545D01*
X528952Y542545D01*
X529845Y541652D01*
X529845Y525148D01*
X528952Y524255D01*
X512448Y524255D01*
G37*
%LPD*%
%LPC*%
G36*
X512448Y658875D02*
X512448Y658875D01*
X511555Y659768D01*
X511555Y676272D01*
X512448Y677165D01*
X528952Y677165D01*
X529845Y676272D01*
X529845Y659768D01*
X528952Y658875D01*
X512448Y658875D01*
G37*
%LPD*%
%LPC*%
G36*
X512448Y371855D02*
X512448Y371855D01*
X511555Y372748D01*
X511555Y389252D01*
X512448Y390145D01*
X528952Y390145D01*
X529845Y389252D01*
X529845Y372748D01*
X528952Y371855D01*
X512448Y371855D01*
G37*
%LPD*%
%LPC*%
G36*
X512448Y346455D02*
X512448Y346455D01*
X511555Y347348D01*
X511555Y363852D01*
X512448Y364745D01*
X528952Y364745D01*
X529845Y363852D01*
X529845Y347348D01*
X528952Y346455D01*
X512448Y346455D01*
G37*
%LPD*%
%LPC*%
G36*
X512448Y498855D02*
X512448Y498855D01*
X511555Y499748D01*
X511555Y516252D01*
X512448Y517145D01*
X528952Y517145D01*
X529845Y516252D01*
X529845Y499748D01*
X528952Y498855D01*
X512448Y498855D01*
G37*
%LPD*%
%LPC*%
G36*
X512448Y684275D02*
X512448Y684275D01*
X511555Y685168D01*
X511555Y701672D01*
X512448Y702565D01*
X528952Y702565D01*
X529845Y701672D01*
X529845Y685168D01*
X528952Y684275D01*
X512448Y684275D01*
G37*
%LPD*%
%LPC*%
G36*
X512448Y206755D02*
X512448Y206755D01*
X511555Y207648D01*
X511555Y224152D01*
X512448Y225045D01*
X528952Y225045D01*
X529845Y224152D01*
X529845Y207648D01*
X528952Y206755D01*
X512448Y206755D01*
G37*
%LPD*%
%LPC*%
G36*
X512448Y181355D02*
X512448Y181355D01*
X511555Y182248D01*
X511555Y198752D01*
X512448Y199645D01*
X528952Y199645D01*
X529845Y198752D01*
X529845Y182248D01*
X528952Y181355D01*
X512448Y181355D01*
G37*
%LPD*%
%LPC*%
G36*
X192023Y839723D02*
X192023Y839723D01*
X192023Y850046D01*
X193296Y849845D01*
X195083Y849264D01*
X196757Y848411D01*
X198278Y847306D01*
X199606Y845978D01*
X200711Y844457D01*
X201564Y842783D01*
X202145Y840996D01*
X202346Y839723D01*
X192023Y839723D01*
G37*
%LPD*%
%LPC*%
G36*
X65023Y496823D02*
X65023Y496823D01*
X65023Y507146D01*
X66296Y506945D01*
X68083Y506364D01*
X69757Y505511D01*
X71278Y504406D01*
X72606Y503078D01*
X73711Y501557D01*
X74564Y499883D01*
X75145Y498096D01*
X75346Y496823D01*
X65023Y496823D01*
G37*
%LPD*%
%LPC*%
G36*
X178654Y839723D02*
X178654Y839723D01*
X178855Y840996D01*
X179436Y842783D01*
X180289Y844457D01*
X181394Y845978D01*
X182722Y847306D01*
X184243Y848411D01*
X185917Y849264D01*
X187704Y849845D01*
X188977Y850046D01*
X188977Y839723D01*
X178654Y839723D01*
G37*
%LPD*%
%LPC*%
G36*
X192023Y836677D02*
X192023Y836677D01*
X202346Y836677D01*
X202145Y835404D01*
X201564Y833617D01*
X200711Y831943D01*
X199606Y830422D01*
X198278Y829094D01*
X196757Y827989D01*
X195083Y827136D01*
X193296Y826555D01*
X192023Y826354D01*
X192023Y836677D01*
G37*
%LPD*%
%LPC*%
G36*
X65023Y493777D02*
X65023Y493777D01*
X75346Y493777D01*
X75145Y492504D01*
X74564Y490717D01*
X73711Y489043D01*
X72606Y487522D01*
X71278Y486194D01*
X69757Y485089D01*
X68083Y484236D01*
X66296Y483655D01*
X65023Y483454D01*
X65023Y493777D01*
G37*
%LPD*%
%LPC*%
G36*
X51654Y496823D02*
X51654Y496823D01*
X51855Y498096D01*
X52436Y499883D01*
X53289Y501557D01*
X54394Y503078D01*
X55722Y504406D01*
X57243Y505511D01*
X58917Y506364D01*
X60704Y506945D01*
X61977Y507146D01*
X61977Y496823D01*
X51654Y496823D01*
G37*
%LPD*%
%LPC*%
G36*
X60704Y483655D02*
X60704Y483655D01*
X58917Y484236D01*
X57243Y485089D01*
X55722Y486194D01*
X54394Y487522D01*
X53289Y489043D01*
X52436Y490717D01*
X51855Y492504D01*
X51654Y493777D01*
X61977Y493777D01*
X61977Y483454D01*
X60704Y483655D01*
G37*
%LPD*%
%LPC*%
G36*
X187704Y826555D02*
X187704Y826555D01*
X185917Y827136D01*
X184243Y827989D01*
X182722Y829094D01*
X181394Y830422D01*
X180289Y831943D01*
X179436Y833617D01*
X178855Y835404D01*
X178654Y836677D01*
X188977Y836677D01*
X188977Y826354D01*
X187704Y826555D01*
G37*
%LPD*%
%LPC*%
G36*
X293623Y839723D02*
X293623Y839723D01*
X293623Y848361D01*
X300054Y848361D01*
X300701Y848188D01*
X301280Y847853D01*
X301753Y847380D01*
X302088Y846801D01*
X302261Y846154D01*
X302261Y839723D01*
X293623Y839723D01*
G37*
%LPD*%
%LPC*%
G36*
X281939Y839723D02*
X281939Y839723D01*
X281939Y846154D01*
X282112Y846801D01*
X282447Y847380D01*
X282920Y847853D01*
X283499Y848188D01*
X284146Y848361D01*
X290577Y848361D01*
X290577Y839723D01*
X281939Y839723D01*
G37*
%LPD*%
%LPC*%
G36*
X293623Y828039D02*
X293623Y828039D01*
X293623Y836677D01*
X302261Y836677D01*
X302261Y830246D01*
X302088Y829599D01*
X301753Y829020D01*
X301280Y828547D01*
X300701Y828212D01*
X300054Y828039D01*
X293623Y828039D01*
G37*
%LPD*%
%LPC*%
G36*
X284146Y828039D02*
X284146Y828039D01*
X283499Y828212D01*
X282920Y828547D01*
X282447Y829020D01*
X282112Y829599D01*
X281939Y830246D01*
X281939Y836677D01*
X290577Y836677D01*
X290577Y828039D01*
X284146Y828039D01*
G37*
%LPD*%
%LPC*%
G36*
X292099Y838199D02*
X292099Y838199D01*
X292099Y838201D01*
X292101Y838201D01*
X292101Y838199D01*
X292099Y838199D01*
G37*
%LPD*%
%LPC*%
G36*
X190499Y838199D02*
X190499Y838199D01*
X190499Y838201D01*
X190501Y838201D01*
X190501Y838199D01*
X190499Y838199D01*
G37*
%LPD*%
%LPC*%
G36*
X63499Y495299D02*
X63499Y495299D01*
X63499Y495301D01*
X63501Y495301D01*
X63501Y495299D01*
X63499Y495299D01*
G37*
%LPD*%
D10*
X63500Y495300D03*
X63500Y469900D03*
X63500Y444500D03*
X63500Y419100D03*
X63500Y393700D03*
X114300Y444500D03*
X114300Y419100D03*
X114300Y393700D03*
X241300Y317500D03*
X241300Y190500D03*
D11*
X292100Y838200D03*
X317500Y838200D03*
D10*
X254000Y622300D03*
X254000Y736600D03*
D11*
X520700Y693420D03*
X520700Y668020D03*
X520700Y533400D03*
X520700Y508000D03*
X520700Y381000D03*
X520700Y355600D03*
X520700Y215900D03*
X520700Y190500D03*
D10*
X165100Y838200D03*
X114300Y469900D03*
X190500Y838200D03*
D12*
X38100Y495300D02*
X63500Y469900D01*
X38100Y495300D02*
X38100Y749300D01*
D13*
X38100Y749300D03*
X88900Y152400D03*
X210820Y167640D03*
X210185Y714375D03*
X88900Y698500D03*
X88900Y584200D03*
X330200Y177800D03*
X215900Y292100D03*
X88900Y279400D03*
X317500Y660400D03*
X215900Y599440D03*
X381000Y88900D03*
X317500Y355600D03*
X317500Y508000D03*
D12*
X355600Y190500D02*
X241300Y190500D01*
X355600Y190500D02*
X355600Y228600D01*
D13*
X355600Y228600D03*
D12*
X63500Y393700D02*
X25400Y355600D01*
X25400Y203200D01*
D13*
X25400Y203200D03*
M02*
