G04 EAGLE Gerber RS-274X export*
G75*
%MOMM*%
%FSLAX34Y34*%
%LPD*%
%INTop Copper*%
%IPPOS*%
%AMOC8*
5,1,8,0,0,1.08239X$1,22.5*%
G01*
%ADD10C,0.460000*%
%ADD11R,3.180000X2.250000*%
%ADD12C,1.879600*%
%ADD13R,1.524000X1.524000*%
%ADD14R,1.000000X4.600000*%
%ADD15R,1.600000X3.400000*%
%ADD16R,1.016000X1.143000*%
%ADD17R,1.100000X1.000000*%
%ADD18C,0.152400*%
%ADD19C,0.756400*%

G36*
X509014Y10163D02*
X509014Y10163D01*
X509037Y10162D01*
X515318Y10470D01*
X515350Y10477D01*
X515429Y10484D01*
X527749Y12935D01*
X527772Y12943D01*
X527892Y12978D01*
X539497Y17785D01*
X539518Y17798D01*
X539629Y17855D01*
X550074Y24834D01*
X550091Y24851D01*
X550189Y24929D01*
X559071Y33811D01*
X559085Y33830D01*
X559166Y33926D01*
X566145Y44371D01*
X566155Y44393D01*
X566215Y44503D01*
X571022Y56108D01*
X571028Y56131D01*
X571065Y56251D01*
X573516Y68571D01*
X573517Y68604D01*
X573530Y68682D01*
X573838Y74963D01*
X573837Y74977D01*
X573839Y75000D01*
X573839Y810700D01*
X573837Y810714D01*
X573838Y810737D01*
X573530Y817018D01*
X573523Y817050D01*
X573516Y817129D01*
X571065Y829449D01*
X571057Y829472D01*
X571022Y829592D01*
X566215Y841197D01*
X566202Y841218D01*
X566145Y841329D01*
X559166Y851774D01*
X559149Y851791D01*
X559134Y851811D01*
X559121Y851833D01*
X559106Y851845D01*
X559071Y851889D01*
X550189Y860771D01*
X550170Y860785D01*
X550074Y860866D01*
X539629Y867845D01*
X539607Y867855D01*
X539497Y867915D01*
X527892Y872722D01*
X527869Y872728D01*
X527749Y872765D01*
X515429Y875216D01*
X515396Y875217D01*
X515318Y875230D01*
X509037Y875538D01*
X509023Y875537D01*
X509000Y875539D01*
X75000Y875539D01*
X74986Y875537D01*
X74962Y875538D01*
X68682Y875230D01*
X68650Y875223D01*
X68571Y875216D01*
X56251Y872765D01*
X56228Y872757D01*
X56108Y872722D01*
X44503Y867915D01*
X44482Y867902D01*
X44371Y867845D01*
X33926Y860866D01*
X33909Y860849D01*
X33811Y860771D01*
X24929Y851889D01*
X24915Y851870D01*
X24834Y851774D01*
X17855Y841329D01*
X17845Y841307D01*
X17785Y841198D01*
X12978Y829592D01*
X12972Y829569D01*
X12942Y829472D01*
X12941Y829471D01*
X12941Y829469D01*
X12935Y829449D01*
X10484Y817129D01*
X10483Y817096D01*
X10470Y817018D01*
X10162Y810737D01*
X10163Y810723D01*
X10161Y810700D01*
X10161Y75000D01*
X10163Y74986D01*
X10162Y74963D01*
X10470Y68682D01*
X10477Y68650D01*
X10484Y68571D01*
X12935Y56251D01*
X12943Y56228D01*
X12978Y56108D01*
X17785Y44503D01*
X17798Y44482D01*
X17855Y44371D01*
X24834Y33926D01*
X24851Y33909D01*
X24929Y33811D01*
X33811Y24929D01*
X33830Y24915D01*
X33926Y24834D01*
X44371Y17855D01*
X44393Y17845D01*
X44502Y17785D01*
X56108Y12978D01*
X56131Y12972D01*
X56251Y12935D01*
X68571Y10484D01*
X68604Y10483D01*
X68682Y10470D01*
X74963Y10162D01*
X74977Y10163D01*
X75000Y10161D01*
X509000Y10161D01*
X509014Y10163D01*
G37*
%LPC*%
G36*
X509714Y29689D02*
X509714Y29689D01*
X499803Y34738D01*
X491938Y42603D01*
X486889Y52514D01*
X485149Y63500D01*
X486889Y74486D01*
X491938Y84397D01*
X499803Y92262D01*
X509714Y97311D01*
X520700Y99051D01*
X531686Y97311D01*
X541597Y92262D01*
X549462Y84397D01*
X554511Y74486D01*
X556251Y63500D01*
X554511Y52514D01*
X549462Y42603D01*
X541597Y34738D01*
X531686Y29689D01*
X520700Y27949D01*
X509714Y29689D01*
G37*
%LPD*%
%LPC*%
G36*
X509714Y791689D02*
X509714Y791689D01*
X499803Y796738D01*
X491938Y804603D01*
X486889Y814514D01*
X485149Y825500D01*
X486889Y836486D01*
X491938Y846397D01*
X499803Y854262D01*
X509714Y859311D01*
X520700Y861051D01*
X531686Y859311D01*
X541597Y854262D01*
X549462Y846397D01*
X554511Y836486D01*
X556251Y825500D01*
X554511Y814514D01*
X549462Y804603D01*
X541597Y796738D01*
X531686Y791689D01*
X520700Y789949D01*
X509714Y791689D01*
G37*
%LPD*%
%LPC*%
G36*
X52514Y29689D02*
X52514Y29689D01*
X42603Y34738D01*
X34738Y42603D01*
X29689Y52514D01*
X27949Y63500D01*
X29689Y74486D01*
X34738Y84397D01*
X42603Y92262D01*
X52514Y97311D01*
X63500Y99051D01*
X74486Y97311D01*
X84397Y92262D01*
X92262Y84397D01*
X97311Y74486D01*
X99051Y63500D01*
X97311Y52514D01*
X92262Y42603D01*
X84397Y34738D01*
X74486Y29689D01*
X63500Y27949D01*
X52514Y29689D01*
G37*
%LPD*%
%LPC*%
G36*
X52514Y791689D02*
X52514Y791689D01*
X42603Y796738D01*
X34738Y804603D01*
X29689Y814514D01*
X27949Y825500D01*
X29689Y836486D01*
X34738Y846397D01*
X42603Y854262D01*
X52514Y859311D01*
X63500Y861051D01*
X74486Y859311D01*
X84397Y854262D01*
X92262Y846397D01*
X97311Y836486D01*
X99051Y825500D01*
X97311Y814514D01*
X92262Y804603D01*
X84397Y796738D01*
X74486Y791689D01*
X63500Y789949D01*
X52514Y791689D01*
G37*
%LPD*%
%LPC*%
G36*
X239127Y306577D02*
X239127Y306577D01*
X235113Y308240D01*
X232040Y311313D01*
X230619Y314743D01*
X230558Y314843D01*
X230498Y314943D01*
X230493Y314947D01*
X230490Y314952D01*
X230400Y315027D01*
X230311Y315103D01*
X230305Y315105D01*
X230300Y315109D01*
X230192Y315151D01*
X230083Y315195D01*
X230075Y315196D01*
X230070Y315197D01*
X230052Y315198D01*
X229916Y315213D01*
X185166Y315213D01*
X185146Y315210D01*
X185127Y315212D01*
X185025Y315190D01*
X184923Y315174D01*
X184906Y315164D01*
X184886Y315160D01*
X184797Y315107D01*
X184706Y315058D01*
X184692Y315044D01*
X184675Y315034D01*
X184608Y314955D01*
X184536Y314880D01*
X184528Y314862D01*
X184515Y314847D01*
X184476Y314751D01*
X184433Y314657D01*
X184431Y314637D01*
X184423Y314619D01*
X184405Y314452D01*
X184405Y308613D01*
X183512Y307720D01*
X172088Y307720D01*
X171195Y308613D01*
X171195Y321307D01*
X172088Y322200D01*
X183512Y322200D01*
X184405Y321307D01*
X184405Y320548D01*
X184408Y320528D01*
X184406Y320509D01*
X184428Y320407D01*
X184444Y320305D01*
X184454Y320288D01*
X184458Y320268D01*
X184511Y320179D01*
X184560Y320088D01*
X184574Y320074D01*
X184584Y320057D01*
X184663Y319990D01*
X184738Y319918D01*
X184756Y319910D01*
X184771Y319897D01*
X184867Y319858D01*
X184961Y319815D01*
X184981Y319813D01*
X184999Y319805D01*
X185166Y319787D01*
X229916Y319787D01*
X230031Y319806D01*
X230147Y319823D01*
X230152Y319825D01*
X230159Y319826D01*
X230261Y319881D01*
X230366Y319934D01*
X230370Y319939D01*
X230376Y319942D01*
X230456Y320026D01*
X230538Y320110D01*
X230542Y320116D01*
X230545Y320120D01*
X230553Y320137D01*
X230619Y320257D01*
X232040Y323687D01*
X235113Y326760D01*
X238543Y328181D01*
X238643Y328242D01*
X238743Y328302D01*
X238747Y328307D01*
X238752Y328310D01*
X238827Y328400D01*
X238903Y328489D01*
X238905Y328495D01*
X238909Y328500D01*
X238951Y328608D01*
X238995Y328717D01*
X238996Y328725D01*
X238997Y328730D01*
X238998Y328748D01*
X239013Y328884D01*
X239013Y381947D01*
X260103Y403037D01*
X310564Y403037D01*
X310584Y403040D01*
X310603Y403038D01*
X310705Y403060D01*
X310807Y403076D01*
X310824Y403086D01*
X310844Y403090D01*
X310933Y403143D01*
X311024Y403192D01*
X311038Y403206D01*
X311055Y403216D01*
X311122Y403295D01*
X311194Y403370D01*
X311202Y403388D01*
X311215Y403403D01*
X311254Y403499D01*
X311297Y403593D01*
X311299Y403613D01*
X311307Y403631D01*
X311325Y403798D01*
X311325Y404634D01*
X313566Y406875D01*
X321434Y406875D01*
X323675Y404634D01*
X323675Y403798D01*
X323678Y403778D01*
X323676Y403759D01*
X323698Y403657D01*
X323714Y403555D01*
X323724Y403538D01*
X323728Y403518D01*
X323781Y403429D01*
X323830Y403338D01*
X323844Y403324D01*
X323854Y403307D01*
X323933Y403240D01*
X324008Y403168D01*
X324026Y403160D01*
X324041Y403147D01*
X324137Y403108D01*
X324231Y403065D01*
X324251Y403063D01*
X324269Y403055D01*
X324436Y403037D01*
X389484Y403037D01*
X389504Y403040D01*
X389523Y403038D01*
X389625Y403060D01*
X389727Y403076D01*
X389744Y403086D01*
X389764Y403090D01*
X389853Y403143D01*
X389944Y403192D01*
X389958Y403206D01*
X389975Y403216D01*
X390042Y403295D01*
X390114Y403370D01*
X390122Y403388D01*
X390135Y403403D01*
X390174Y403499D01*
X390217Y403593D01*
X390219Y403613D01*
X390227Y403631D01*
X390245Y403798D01*
X390245Y404572D01*
X391138Y405465D01*
X424202Y405465D01*
X425095Y404572D01*
X425095Y396748D01*
X425098Y396728D01*
X425096Y396709D01*
X425118Y396607D01*
X425134Y396505D01*
X425144Y396488D01*
X425148Y396468D01*
X425201Y396379D01*
X425250Y396288D01*
X425264Y396274D01*
X425274Y396257D01*
X425353Y396190D01*
X425428Y396118D01*
X425446Y396110D01*
X425461Y396097D01*
X425557Y396058D01*
X425651Y396015D01*
X425671Y396013D01*
X425689Y396005D01*
X425856Y395987D01*
X521647Y395987D01*
X522987Y394647D01*
X522987Y390906D01*
X522990Y390886D01*
X522988Y390867D01*
X523010Y390765D01*
X523026Y390663D01*
X523036Y390646D01*
X523040Y390626D01*
X523093Y390537D01*
X523142Y390446D01*
X523156Y390432D01*
X523166Y390415D01*
X523245Y390348D01*
X523320Y390276D01*
X523338Y390268D01*
X523353Y390255D01*
X523449Y390216D01*
X523543Y390173D01*
X523563Y390171D01*
X523581Y390163D01*
X523748Y390145D01*
X528952Y390145D01*
X529845Y389252D01*
X529845Y372748D01*
X528952Y371855D01*
X512448Y371855D01*
X511555Y372748D01*
X511555Y389252D01*
X512417Y390114D01*
X512459Y390172D01*
X512509Y390224D01*
X512531Y390271D01*
X512561Y390313D01*
X512582Y390382D01*
X512612Y390447D01*
X512618Y390499D01*
X512633Y390549D01*
X512631Y390620D01*
X512639Y390691D01*
X512628Y390742D01*
X512627Y390794D01*
X512602Y390862D01*
X512587Y390932D01*
X512560Y390977D01*
X512543Y391025D01*
X512498Y391081D01*
X512461Y391143D01*
X512421Y391177D01*
X512389Y391217D01*
X512329Y391256D01*
X512274Y391303D01*
X512226Y391322D01*
X512182Y391350D01*
X512112Y391368D01*
X512046Y391395D01*
X511975Y391403D01*
X511943Y391411D01*
X511920Y391409D01*
X511879Y391413D01*
X425856Y391413D01*
X425836Y391410D01*
X425817Y391412D01*
X425715Y391390D01*
X425613Y391374D01*
X425596Y391364D01*
X425576Y391360D01*
X425487Y391307D01*
X425396Y391258D01*
X425382Y391244D01*
X425365Y391234D01*
X425298Y391155D01*
X425226Y391080D01*
X425218Y391062D01*
X425205Y391047D01*
X425166Y390951D01*
X425123Y390857D01*
X425121Y390837D01*
X425113Y390819D01*
X425095Y390652D01*
X425095Y380808D01*
X424202Y379915D01*
X391138Y379915D01*
X390245Y380808D01*
X390245Y397702D01*
X390242Y397722D01*
X390244Y397741D01*
X390222Y397843D01*
X390206Y397945D01*
X390196Y397962D01*
X390192Y397982D01*
X390139Y398071D01*
X390090Y398162D01*
X390076Y398176D01*
X390066Y398193D01*
X389987Y398260D01*
X389912Y398332D01*
X389894Y398340D01*
X389879Y398353D01*
X389783Y398392D01*
X389689Y398435D01*
X389669Y398437D01*
X389651Y398445D01*
X389484Y398463D01*
X324436Y398463D01*
X324416Y398460D01*
X324397Y398462D01*
X324295Y398440D01*
X324193Y398424D01*
X324176Y398414D01*
X324156Y398410D01*
X324067Y398357D01*
X323976Y398308D01*
X323962Y398294D01*
X323945Y398284D01*
X323878Y398205D01*
X323806Y398130D01*
X323798Y398112D01*
X323785Y398097D01*
X323746Y398001D01*
X323703Y397907D01*
X323701Y397887D01*
X323693Y397869D01*
X323675Y397702D01*
X323675Y396866D01*
X321502Y394693D01*
X321433Y394597D01*
X321362Y394500D01*
X321360Y394496D01*
X321358Y394493D01*
X321324Y394381D01*
X321287Y394266D01*
X321287Y394262D01*
X321286Y394258D01*
X321289Y394139D01*
X321291Y394020D01*
X321292Y394016D01*
X321292Y394012D01*
X321333Y393900D01*
X321372Y393788D01*
X321375Y393785D01*
X321376Y393781D01*
X321451Y393687D01*
X321524Y393594D01*
X321528Y393591D01*
X321530Y393589D01*
X321542Y393581D01*
X321659Y393495D01*
X322822Y392823D01*
X323724Y391922D01*
X324361Y390819D01*
X324691Y389587D01*
X324691Y388173D01*
X318262Y388173D01*
X318242Y388170D01*
X318223Y388172D01*
X318121Y388150D01*
X318019Y388133D01*
X318002Y388124D01*
X317982Y388120D01*
X317893Y388067D01*
X317802Y388018D01*
X317788Y388004D01*
X317771Y387994D01*
X317704Y387915D01*
X317633Y387840D01*
X317624Y387822D01*
X317611Y387807D01*
X317572Y387711D01*
X317529Y387617D01*
X317527Y387597D01*
X317519Y387579D01*
X317501Y387412D01*
X317501Y386649D01*
X317499Y386649D01*
X317499Y387412D01*
X317496Y387432D01*
X317498Y387451D01*
X317476Y387553D01*
X317459Y387655D01*
X317450Y387672D01*
X317446Y387692D01*
X317393Y387781D01*
X317344Y387872D01*
X317330Y387886D01*
X317320Y387903D01*
X317241Y387970D01*
X317166Y388041D01*
X317148Y388050D01*
X317133Y388063D01*
X317037Y388102D01*
X316943Y388145D01*
X316923Y388147D01*
X316905Y388155D01*
X316738Y388173D01*
X310309Y388173D01*
X310309Y389587D01*
X310639Y390819D01*
X311276Y391922D01*
X312178Y392824D01*
X313341Y393495D01*
X313432Y393570D01*
X313526Y393645D01*
X313528Y393648D01*
X313531Y393651D01*
X313594Y393751D01*
X313659Y393852D01*
X313660Y393856D01*
X313662Y393859D01*
X313690Y393975D01*
X313719Y394090D01*
X313718Y394094D01*
X313719Y394098D01*
X313709Y394217D01*
X313700Y394335D01*
X313698Y394339D01*
X313698Y394343D01*
X313650Y394453D01*
X313603Y394562D01*
X313600Y394566D01*
X313599Y394569D01*
X313589Y394579D01*
X313498Y394693D01*
X311325Y396866D01*
X311325Y397702D01*
X311322Y397722D01*
X311324Y397741D01*
X311302Y397843D01*
X311286Y397945D01*
X311276Y397962D01*
X311272Y397982D01*
X311219Y398071D01*
X311170Y398162D01*
X311156Y398176D01*
X311146Y398193D01*
X311067Y398260D01*
X310992Y398332D01*
X310974Y398340D01*
X310959Y398353D01*
X310863Y398392D01*
X310769Y398435D01*
X310749Y398437D01*
X310731Y398445D01*
X310564Y398463D01*
X262313Y398463D01*
X262222Y398449D01*
X262132Y398441D01*
X262102Y398429D01*
X262070Y398424D01*
X261989Y398381D01*
X261905Y398345D01*
X261873Y398319D01*
X261852Y398308D01*
X261830Y398285D01*
X261774Y398240D01*
X243810Y380276D01*
X243757Y380202D01*
X243697Y380132D01*
X243685Y380102D01*
X243666Y380076D01*
X243639Y379989D01*
X243605Y379904D01*
X243601Y379863D01*
X243594Y379841D01*
X243595Y379809D01*
X243587Y379737D01*
X243587Y328884D01*
X243606Y328769D01*
X243623Y328653D01*
X243625Y328648D01*
X243626Y328641D01*
X243681Y328539D01*
X243734Y328434D01*
X243739Y328430D01*
X243742Y328424D01*
X243826Y328344D01*
X243910Y328262D01*
X243916Y328258D01*
X243920Y328255D01*
X243937Y328247D01*
X244057Y328181D01*
X247487Y326760D01*
X250560Y323687D01*
X252223Y319673D01*
X252223Y315327D01*
X250560Y311313D01*
X247487Y308240D01*
X243473Y306577D01*
X239127Y306577D01*
G37*
%LPD*%
%LPC*%
G36*
X512448Y524255D02*
X512448Y524255D01*
X511555Y525148D01*
X511555Y541652D01*
X512448Y542545D01*
X517652Y542545D01*
X517672Y542548D01*
X517691Y542546D01*
X517793Y542568D01*
X517895Y542584D01*
X517912Y542594D01*
X517932Y542598D01*
X518021Y542651D01*
X518112Y542700D01*
X518126Y542714D01*
X518143Y542724D01*
X518210Y542803D01*
X518282Y542878D01*
X518290Y542896D01*
X518303Y542911D01*
X518342Y543007D01*
X518385Y543101D01*
X518387Y543121D01*
X518395Y543139D01*
X518413Y543306D01*
X518413Y543312D01*
X518410Y543329D01*
X518412Y543345D01*
X518412Y543347D01*
X518412Y543351D01*
X518390Y543453D01*
X518374Y543555D01*
X518364Y543572D01*
X518360Y543592D01*
X518307Y543681D01*
X518258Y543772D01*
X518244Y543786D01*
X518234Y543803D01*
X518155Y543870D01*
X518080Y543942D01*
X518062Y543950D01*
X518047Y543963D01*
X517951Y544002D01*
X517857Y544045D01*
X517837Y544047D01*
X517819Y544055D01*
X517652Y544073D01*
X424586Y544073D01*
X424566Y544070D01*
X424547Y544072D01*
X424445Y544050D01*
X424343Y544034D01*
X424326Y544024D01*
X424306Y544020D01*
X424217Y543967D01*
X424126Y543918D01*
X424112Y543904D01*
X424095Y543894D01*
X424028Y543815D01*
X423956Y543740D01*
X423948Y543722D01*
X423935Y543707D01*
X423896Y543611D01*
X423853Y543517D01*
X423851Y543497D01*
X423843Y543479D01*
X423825Y543312D01*
X423825Y534478D01*
X422932Y533585D01*
X389868Y533585D01*
X388975Y534478D01*
X388975Y550102D01*
X388972Y550122D01*
X388974Y550141D01*
X388952Y550243D01*
X388936Y550345D01*
X388926Y550362D01*
X388922Y550382D01*
X388869Y550471D01*
X388820Y550562D01*
X388806Y550576D01*
X388796Y550593D01*
X388717Y550660D01*
X388642Y550732D01*
X388624Y550740D01*
X388609Y550753D01*
X388513Y550792D01*
X388419Y550835D01*
X388399Y550837D01*
X388381Y550845D01*
X388214Y550863D01*
X324436Y550863D01*
X324416Y550860D01*
X324397Y550862D01*
X324295Y550840D01*
X324193Y550824D01*
X324176Y550814D01*
X324156Y550810D01*
X324067Y550757D01*
X323976Y550708D01*
X323962Y550694D01*
X323945Y550684D01*
X323878Y550605D01*
X323806Y550530D01*
X323798Y550512D01*
X323785Y550497D01*
X323746Y550401D01*
X323703Y550307D01*
X323701Y550287D01*
X323693Y550269D01*
X323675Y550102D01*
X323675Y549266D01*
X321502Y547093D01*
X321433Y546996D01*
X321362Y546900D01*
X321360Y546896D01*
X321358Y546893D01*
X321323Y546780D01*
X321287Y546666D01*
X321287Y546662D01*
X321286Y546658D01*
X321289Y546539D01*
X321291Y546420D01*
X321292Y546416D01*
X321292Y546412D01*
X321333Y546299D01*
X321372Y546188D01*
X321375Y546185D01*
X321376Y546181D01*
X321451Y546088D01*
X321524Y545994D01*
X321528Y545991D01*
X321530Y545989D01*
X321542Y545981D01*
X321659Y545895D01*
X322822Y545224D01*
X323724Y544322D01*
X324361Y543219D01*
X324691Y541987D01*
X324691Y540573D01*
X318262Y540573D01*
X318242Y540570D01*
X318223Y540572D01*
X318121Y540550D01*
X318019Y540533D01*
X318002Y540524D01*
X317982Y540520D01*
X317893Y540467D01*
X317802Y540418D01*
X317788Y540404D01*
X317771Y540394D01*
X317704Y540315D01*
X317633Y540240D01*
X317624Y540222D01*
X317611Y540207D01*
X317572Y540111D01*
X317529Y540017D01*
X317527Y539997D01*
X317519Y539979D01*
X317501Y539812D01*
X317501Y539049D01*
X317499Y539049D01*
X317499Y539812D01*
X317496Y539832D01*
X317498Y539851D01*
X317476Y539953D01*
X317459Y540055D01*
X317450Y540072D01*
X317446Y540092D01*
X317393Y540181D01*
X317344Y540272D01*
X317330Y540286D01*
X317320Y540303D01*
X317241Y540370D01*
X317166Y540441D01*
X317148Y540450D01*
X317133Y540463D01*
X317037Y540502D01*
X316943Y540545D01*
X316923Y540547D01*
X316905Y540555D01*
X316738Y540573D01*
X310309Y540573D01*
X310309Y541987D01*
X310639Y543219D01*
X311276Y544322D01*
X312178Y545224D01*
X313341Y545895D01*
X313432Y545969D01*
X313526Y546045D01*
X313528Y546048D01*
X313531Y546051D01*
X313594Y546151D01*
X313659Y546252D01*
X313660Y546256D01*
X313662Y546259D01*
X313690Y546375D01*
X313719Y546490D01*
X313718Y546494D01*
X313719Y546498D01*
X313709Y546617D01*
X313700Y546735D01*
X313698Y546739D01*
X313698Y546743D01*
X313650Y546853D01*
X313603Y546962D01*
X313600Y546965D01*
X313599Y546969D01*
X313589Y546979D01*
X313498Y547093D01*
X311325Y549266D01*
X311325Y550102D01*
X311322Y550122D01*
X311324Y550141D01*
X311302Y550243D01*
X311286Y550345D01*
X311276Y550362D01*
X311272Y550382D01*
X311219Y550471D01*
X311170Y550562D01*
X311156Y550576D01*
X311146Y550593D01*
X311067Y550660D01*
X310992Y550732D01*
X310974Y550740D01*
X310959Y550753D01*
X310863Y550792D01*
X310769Y550835D01*
X310749Y550837D01*
X310731Y550845D01*
X310564Y550863D01*
X271403Y550863D01*
X251713Y570553D01*
X251713Y610916D01*
X251694Y611031D01*
X251677Y611147D01*
X251675Y611152D01*
X251674Y611159D01*
X251619Y611261D01*
X251566Y611366D01*
X251561Y611370D01*
X251558Y611376D01*
X251474Y611456D01*
X251390Y611538D01*
X251384Y611542D01*
X251380Y611545D01*
X251363Y611553D01*
X251243Y611619D01*
X247813Y613040D01*
X244740Y616113D01*
X243319Y619543D01*
X243258Y619642D01*
X243198Y619743D01*
X243193Y619747D01*
X243190Y619752D01*
X243100Y619827D01*
X243011Y619903D01*
X243005Y619905D01*
X243000Y619909D01*
X242892Y619951D01*
X242783Y619995D01*
X242775Y619996D01*
X242770Y619997D01*
X242752Y619998D01*
X242616Y620013D01*
X185166Y620013D01*
X185146Y620010D01*
X185127Y620012D01*
X185025Y619990D01*
X184923Y619974D01*
X184906Y619964D01*
X184886Y619960D01*
X184797Y619907D01*
X184706Y619858D01*
X184692Y619844D01*
X184675Y619834D01*
X184608Y619755D01*
X184536Y619680D01*
X184528Y619662D01*
X184515Y619647D01*
X184476Y619551D01*
X184433Y619457D01*
X184431Y619437D01*
X184423Y619419D01*
X184405Y619252D01*
X184405Y613413D01*
X183512Y612520D01*
X172088Y612520D01*
X171195Y613413D01*
X171195Y626107D01*
X172088Y627000D01*
X183512Y627000D01*
X184405Y626107D01*
X184405Y625348D01*
X184408Y625328D01*
X184406Y625309D01*
X184428Y625207D01*
X184444Y625105D01*
X184454Y625088D01*
X184458Y625068D01*
X184511Y624979D01*
X184560Y624888D01*
X184574Y624874D01*
X184584Y624857D01*
X184663Y624790D01*
X184738Y624718D01*
X184756Y624710D01*
X184771Y624697D01*
X184867Y624658D01*
X184961Y624615D01*
X184981Y624613D01*
X184999Y624605D01*
X185166Y624587D01*
X242616Y624587D01*
X242731Y624606D01*
X242847Y624623D01*
X242852Y624625D01*
X242859Y624626D01*
X242961Y624681D01*
X243066Y624734D01*
X243070Y624739D01*
X243076Y624742D01*
X243156Y624826D01*
X243238Y624910D01*
X243242Y624916D01*
X243245Y624920D01*
X243253Y624937D01*
X243319Y625057D01*
X244740Y628487D01*
X247813Y631560D01*
X251827Y633223D01*
X256173Y633223D01*
X260187Y631560D01*
X263260Y628487D01*
X264923Y624473D01*
X264923Y620127D01*
X263260Y616113D01*
X260187Y613040D01*
X256757Y611619D01*
X256657Y611558D01*
X256557Y611498D01*
X256553Y611493D01*
X256548Y611490D01*
X256473Y611400D01*
X256397Y611311D01*
X256395Y611305D01*
X256391Y611300D01*
X256349Y611192D01*
X256305Y611083D01*
X256304Y611075D01*
X256303Y611070D01*
X256302Y611052D01*
X256287Y610916D01*
X256287Y572763D01*
X256301Y572672D01*
X256309Y572582D01*
X256321Y572552D01*
X256326Y572520D01*
X256369Y572439D01*
X256405Y572355D01*
X256431Y572323D01*
X256442Y572302D01*
X256465Y572280D01*
X256510Y572224D01*
X273074Y555660D01*
X273148Y555607D01*
X273218Y555547D01*
X273248Y555535D01*
X273274Y555516D01*
X273361Y555489D01*
X273446Y555455D01*
X273487Y555451D01*
X273509Y555444D01*
X273541Y555445D01*
X273613Y555437D01*
X310564Y555437D01*
X310584Y555440D01*
X310603Y555438D01*
X310705Y555460D01*
X310807Y555476D01*
X310824Y555486D01*
X310844Y555490D01*
X310933Y555543D01*
X311024Y555592D01*
X311038Y555606D01*
X311055Y555616D01*
X311122Y555695D01*
X311194Y555770D01*
X311202Y555788D01*
X311215Y555803D01*
X311254Y555899D01*
X311297Y555993D01*
X311299Y556013D01*
X311307Y556031D01*
X311325Y556198D01*
X311325Y557034D01*
X313566Y559275D01*
X321434Y559275D01*
X323675Y557034D01*
X323675Y556198D01*
X323678Y556178D01*
X323676Y556159D01*
X323698Y556057D01*
X323714Y555955D01*
X323724Y555938D01*
X323728Y555918D01*
X323781Y555829D01*
X323830Y555738D01*
X323844Y555724D01*
X323854Y555707D01*
X323933Y555640D01*
X324008Y555568D01*
X324026Y555560D01*
X324041Y555547D01*
X324137Y555508D01*
X324231Y555465D01*
X324251Y555463D01*
X324269Y555455D01*
X324436Y555437D01*
X388214Y555437D01*
X388234Y555440D01*
X388253Y555438D01*
X388355Y555460D01*
X388457Y555476D01*
X388474Y555486D01*
X388494Y555490D01*
X388583Y555543D01*
X388674Y555592D01*
X388688Y555606D01*
X388705Y555616D01*
X388772Y555695D01*
X388844Y555770D01*
X388852Y555788D01*
X388865Y555803D01*
X388904Y555899D01*
X388947Y555993D01*
X388949Y556013D01*
X388957Y556031D01*
X388975Y556198D01*
X388975Y558242D01*
X389868Y559135D01*
X422932Y559135D01*
X423825Y558242D01*
X423825Y549408D01*
X423828Y549388D01*
X423826Y549369D01*
X423848Y549267D01*
X423864Y549165D01*
X423874Y549148D01*
X423878Y549128D01*
X423931Y549039D01*
X423980Y548948D01*
X423994Y548934D01*
X424004Y548917D01*
X424083Y548850D01*
X424158Y548778D01*
X424176Y548770D01*
X424191Y548757D01*
X424287Y548718D01*
X424381Y548675D01*
X424401Y548673D01*
X424419Y548665D01*
X424586Y548647D01*
X521387Y548647D01*
X522987Y547047D01*
X522987Y543306D01*
X522990Y543286D01*
X522988Y543267D01*
X523010Y543165D01*
X523026Y543063D01*
X523036Y543046D01*
X523040Y543026D01*
X523093Y542937D01*
X523142Y542846D01*
X523156Y542832D01*
X523166Y542815D01*
X523245Y542748D01*
X523320Y542676D01*
X523338Y542668D01*
X523353Y542655D01*
X523449Y542616D01*
X523543Y542573D01*
X523563Y542571D01*
X523581Y542563D01*
X523748Y542545D01*
X528952Y542545D01*
X529845Y541652D01*
X529845Y525148D01*
X528952Y524255D01*
X512448Y524255D01*
G37*
%LPD*%
%LPC*%
G36*
X512448Y684275D02*
X512448Y684275D01*
X511555Y685168D01*
X511555Y701672D01*
X512448Y702565D01*
X517652Y702565D01*
X517672Y702568D01*
X517691Y702566D01*
X517793Y702588D01*
X517895Y702604D01*
X517912Y702614D01*
X517932Y702618D01*
X518021Y702671D01*
X518112Y702720D01*
X518126Y702734D01*
X518143Y702744D01*
X518210Y702823D01*
X518282Y702898D01*
X518290Y702916D01*
X518303Y702931D01*
X518342Y703027D01*
X518385Y703121D01*
X518387Y703141D01*
X518395Y703159D01*
X518413Y703326D01*
X518413Y708152D01*
X518410Y708172D01*
X518412Y708191D01*
X518390Y708293D01*
X518374Y708395D01*
X518364Y708412D01*
X518360Y708432D01*
X518307Y708521D01*
X518258Y708612D01*
X518244Y708626D01*
X518234Y708643D01*
X518155Y708710D01*
X518080Y708782D01*
X518062Y708790D01*
X518047Y708803D01*
X517951Y708842D01*
X517857Y708885D01*
X517837Y708887D01*
X517819Y708895D01*
X517652Y708913D01*
X424586Y708913D01*
X424566Y708910D01*
X424547Y708912D01*
X424445Y708890D01*
X424343Y708874D01*
X424326Y708864D01*
X424306Y708860D01*
X424217Y708807D01*
X424126Y708758D01*
X424112Y708744D01*
X424095Y708734D01*
X424028Y708655D01*
X423956Y708580D01*
X423948Y708562D01*
X423935Y708547D01*
X423896Y708451D01*
X423853Y708357D01*
X423851Y708337D01*
X423843Y708319D01*
X423825Y708152D01*
X423825Y694498D01*
X422932Y693605D01*
X389868Y693605D01*
X388975Y694498D01*
X388975Y715202D01*
X388972Y715222D01*
X388974Y715241D01*
X388952Y715343D01*
X388936Y715445D01*
X388926Y715462D01*
X388922Y715482D01*
X388869Y715571D01*
X388820Y715662D01*
X388806Y715676D01*
X388796Y715693D01*
X388717Y715760D01*
X388642Y715832D01*
X388624Y715840D01*
X388609Y715853D01*
X388513Y715892D01*
X388419Y715935D01*
X388399Y715937D01*
X388381Y715945D01*
X388214Y715963D01*
X324436Y715963D01*
X324416Y715960D01*
X324397Y715962D01*
X324295Y715940D01*
X324193Y715924D01*
X324176Y715914D01*
X324156Y715910D01*
X324067Y715857D01*
X323976Y715808D01*
X323962Y715794D01*
X323945Y715784D01*
X323878Y715705D01*
X323806Y715630D01*
X323798Y715612D01*
X323785Y715597D01*
X323746Y715501D01*
X323703Y715407D01*
X323701Y715387D01*
X323693Y715369D01*
X323675Y715202D01*
X323675Y714366D01*
X321502Y712193D01*
X321433Y712096D01*
X321362Y712000D01*
X321360Y711996D01*
X321358Y711993D01*
X321323Y711880D01*
X321287Y711766D01*
X321287Y711762D01*
X321286Y711758D01*
X321289Y711639D01*
X321291Y711520D01*
X321292Y711516D01*
X321292Y711512D01*
X321333Y711399D01*
X321372Y711288D01*
X321375Y711285D01*
X321376Y711281D01*
X321451Y711188D01*
X321524Y711094D01*
X321528Y711091D01*
X321530Y711089D01*
X321542Y711081D01*
X321659Y710995D01*
X322822Y710324D01*
X323724Y709422D01*
X324361Y708319D01*
X324691Y707087D01*
X324691Y705673D01*
X318262Y705673D01*
X318242Y705670D01*
X318223Y705672D01*
X318121Y705650D01*
X318019Y705633D01*
X318002Y705624D01*
X317982Y705620D01*
X317893Y705567D01*
X317802Y705518D01*
X317788Y705504D01*
X317771Y705494D01*
X317704Y705415D01*
X317633Y705340D01*
X317624Y705322D01*
X317611Y705307D01*
X317572Y705211D01*
X317529Y705117D01*
X317527Y705097D01*
X317519Y705079D01*
X317501Y704912D01*
X317501Y704149D01*
X317499Y704149D01*
X317499Y704912D01*
X317496Y704932D01*
X317498Y704951D01*
X317476Y705053D01*
X317459Y705155D01*
X317450Y705172D01*
X317446Y705192D01*
X317393Y705281D01*
X317344Y705372D01*
X317330Y705386D01*
X317320Y705403D01*
X317241Y705470D01*
X317166Y705541D01*
X317148Y705550D01*
X317133Y705563D01*
X317037Y705602D01*
X316943Y705645D01*
X316923Y705647D01*
X316905Y705655D01*
X316738Y705673D01*
X310309Y705673D01*
X310309Y707087D01*
X310639Y708319D01*
X311276Y709422D01*
X312178Y710324D01*
X313341Y710995D01*
X313432Y711069D01*
X313526Y711145D01*
X313528Y711148D01*
X313531Y711151D01*
X313594Y711251D01*
X313659Y711352D01*
X313660Y711356D01*
X313662Y711359D01*
X313690Y711475D01*
X313719Y711590D01*
X313718Y711594D01*
X313719Y711598D01*
X313709Y711717D01*
X313700Y711835D01*
X313698Y711839D01*
X313698Y711843D01*
X313650Y711953D01*
X313603Y712062D01*
X313600Y712065D01*
X313599Y712069D01*
X313589Y712079D01*
X313498Y712193D01*
X311325Y714366D01*
X311325Y720875D01*
X311311Y720966D01*
X311303Y721056D01*
X311291Y721086D01*
X311286Y721118D01*
X311243Y721199D01*
X311207Y721283D01*
X311181Y721315D01*
X311170Y721336D01*
X311147Y721358D01*
X311102Y721414D01*
X298426Y734090D01*
X298352Y734143D01*
X298282Y734203D01*
X298252Y734215D01*
X298226Y734234D01*
X298139Y734261D01*
X298054Y734295D01*
X298013Y734299D01*
X297991Y734306D01*
X297959Y734305D01*
X297887Y734313D01*
X265384Y734313D01*
X265269Y734294D01*
X265153Y734277D01*
X265148Y734275D01*
X265141Y734274D01*
X265039Y734219D01*
X264934Y734166D01*
X264930Y734161D01*
X264924Y734158D01*
X264844Y734074D01*
X264762Y733990D01*
X264758Y733984D01*
X264755Y733980D01*
X264747Y733963D01*
X264681Y733843D01*
X263260Y730413D01*
X260187Y727340D01*
X256173Y725677D01*
X251827Y725677D01*
X247813Y727340D01*
X244740Y730413D01*
X244371Y731303D01*
X244309Y731403D01*
X244250Y731503D01*
X244245Y731507D01*
X244242Y731512D01*
X244151Y731587D01*
X244063Y731663D01*
X244057Y731665D01*
X244052Y731669D01*
X243944Y731711D01*
X243835Y731755D01*
X243827Y731756D01*
X243823Y731757D01*
X243804Y731758D01*
X243668Y731773D01*
X185166Y731773D01*
X185146Y731770D01*
X185127Y731772D01*
X185025Y731750D01*
X184923Y731734D01*
X184906Y731724D01*
X184886Y731720D01*
X184797Y731667D01*
X184706Y731618D01*
X184692Y731604D01*
X184675Y731594D01*
X184608Y731515D01*
X184536Y731440D01*
X184528Y731422D01*
X184515Y731407D01*
X184476Y731311D01*
X184433Y731217D01*
X184431Y731197D01*
X184423Y731179D01*
X184405Y731012D01*
X184405Y727713D01*
X183512Y726820D01*
X172088Y726820D01*
X171195Y727713D01*
X171195Y740407D01*
X172088Y741300D01*
X183512Y741300D01*
X184405Y740407D01*
X184405Y737108D01*
X184408Y737088D01*
X184406Y737069D01*
X184428Y736967D01*
X184444Y736865D01*
X184454Y736848D01*
X184458Y736828D01*
X184511Y736739D01*
X184560Y736648D01*
X184574Y736634D01*
X184584Y736617D01*
X184663Y736550D01*
X184738Y736478D01*
X184756Y736470D01*
X184771Y736457D01*
X184867Y736418D01*
X184961Y736375D01*
X184981Y736373D01*
X184999Y736365D01*
X185166Y736347D01*
X242316Y736347D01*
X242336Y736350D01*
X242355Y736348D01*
X242457Y736370D01*
X242559Y736386D01*
X242576Y736396D01*
X242596Y736400D01*
X242685Y736453D01*
X242776Y736502D01*
X242790Y736516D01*
X242807Y736526D01*
X242874Y736605D01*
X242946Y736680D01*
X242954Y736698D01*
X242967Y736713D01*
X243006Y736809D01*
X243049Y736903D01*
X243051Y736923D01*
X243059Y736941D01*
X243077Y737108D01*
X243077Y738773D01*
X244740Y742787D01*
X247813Y745860D01*
X251827Y747523D01*
X256173Y747523D01*
X260187Y745860D01*
X263260Y742787D01*
X264681Y739357D01*
X264742Y739257D01*
X264802Y739157D01*
X264807Y739153D01*
X264810Y739148D01*
X264900Y739073D01*
X264989Y738997D01*
X264995Y738995D01*
X265000Y738991D01*
X265108Y738949D01*
X265217Y738905D01*
X265225Y738904D01*
X265230Y738903D01*
X265248Y738902D01*
X265384Y738887D01*
X300097Y738887D01*
X314386Y724598D01*
X314460Y724545D01*
X314530Y724485D01*
X314560Y724473D01*
X314586Y724454D01*
X314673Y724427D01*
X314758Y724393D01*
X314799Y724389D01*
X314821Y724382D01*
X314853Y724383D01*
X314925Y724375D01*
X321434Y724375D01*
X323675Y722134D01*
X323675Y721298D01*
X323678Y721278D01*
X323676Y721259D01*
X323698Y721157D01*
X323714Y721055D01*
X323724Y721038D01*
X323728Y721018D01*
X323781Y720929D01*
X323830Y720838D01*
X323844Y720824D01*
X323854Y720807D01*
X323933Y720740D01*
X324008Y720668D01*
X324026Y720660D01*
X324041Y720647D01*
X324137Y720608D01*
X324231Y720565D01*
X324251Y720563D01*
X324269Y720555D01*
X324436Y720537D01*
X400297Y720537D01*
X401456Y719378D01*
X401530Y719325D01*
X401600Y719265D01*
X401630Y719253D01*
X401656Y719234D01*
X401743Y719207D01*
X401828Y719173D01*
X401869Y719169D01*
X401891Y719162D01*
X401923Y719163D01*
X401994Y719155D01*
X422932Y719155D01*
X423825Y718262D01*
X423825Y714248D01*
X423828Y714228D01*
X423826Y714209D01*
X423848Y714107D01*
X423864Y714005D01*
X423874Y713988D01*
X423878Y713968D01*
X423931Y713879D01*
X423980Y713788D01*
X423994Y713774D01*
X424004Y713757D01*
X424083Y713690D01*
X424158Y713618D01*
X424176Y713610D01*
X424191Y713597D01*
X424287Y713558D01*
X424381Y713515D01*
X424401Y713513D01*
X424419Y713505D01*
X424586Y713487D01*
X521647Y713487D01*
X522987Y712147D01*
X522987Y703326D01*
X522990Y703306D01*
X522988Y703287D01*
X523010Y703185D01*
X523026Y703083D01*
X523036Y703066D01*
X523040Y703046D01*
X523093Y702957D01*
X523142Y702866D01*
X523156Y702852D01*
X523166Y702835D01*
X523245Y702768D01*
X523320Y702696D01*
X523338Y702688D01*
X523353Y702675D01*
X523449Y702636D01*
X523543Y702593D01*
X523563Y702591D01*
X523581Y702583D01*
X523748Y702565D01*
X528952Y702565D01*
X529845Y701672D01*
X529845Y685168D01*
X528952Y684275D01*
X512448Y684275D01*
G37*
%LPD*%
%LPC*%
G36*
X61327Y433577D02*
X61327Y433577D01*
X57313Y435240D01*
X54240Y438313D01*
X52577Y442327D01*
X52577Y446673D01*
X54240Y450687D01*
X57313Y453760D01*
X61327Y455423D01*
X65673Y455423D01*
X69687Y453760D01*
X72760Y450687D01*
X74181Y447257D01*
X74242Y447157D01*
X74302Y447057D01*
X74307Y447053D01*
X74310Y447048D01*
X74400Y446973D01*
X74489Y446897D01*
X74495Y446895D01*
X74500Y446891D01*
X74608Y446849D01*
X74717Y446805D01*
X74725Y446804D01*
X74730Y446803D01*
X74748Y446802D01*
X74884Y446787D01*
X102916Y446787D01*
X103031Y446806D01*
X103147Y446823D01*
X103152Y446825D01*
X103159Y446826D01*
X103261Y446881D01*
X103366Y446934D01*
X103370Y446939D01*
X103376Y446942D01*
X103456Y447026D01*
X103538Y447110D01*
X103542Y447116D01*
X103545Y447120D01*
X103553Y447137D01*
X103619Y447257D01*
X105040Y450687D01*
X108113Y453760D01*
X112127Y455423D01*
X116473Y455423D01*
X120487Y453760D01*
X123560Y450687D01*
X124981Y447257D01*
X125042Y447157D01*
X125102Y447057D01*
X125107Y447053D01*
X125110Y447048D01*
X125200Y446973D01*
X125289Y446897D01*
X125295Y446895D01*
X125300Y446891D01*
X125408Y446849D01*
X125517Y446805D01*
X125525Y446804D01*
X125530Y446803D01*
X125548Y446802D01*
X125684Y446787D01*
X136652Y446787D01*
X136672Y446790D01*
X136691Y446788D01*
X136793Y446810D01*
X136895Y446826D01*
X136912Y446836D01*
X136932Y446840D01*
X137021Y446893D01*
X137112Y446942D01*
X137126Y446956D01*
X137143Y446966D01*
X137210Y447045D01*
X137282Y447120D01*
X137290Y447138D01*
X137303Y447153D01*
X137342Y447249D01*
X137385Y447343D01*
X137387Y447363D01*
X137395Y447381D01*
X137413Y447548D01*
X137413Y499117D01*
X137399Y499208D01*
X137391Y499298D01*
X137379Y499328D01*
X137374Y499360D01*
X137331Y499441D01*
X137295Y499525D01*
X137269Y499557D01*
X137258Y499578D01*
X137235Y499600D01*
X137190Y499656D01*
X73913Y562933D01*
X73913Y635947D01*
X75253Y637287D01*
X110714Y637287D01*
X110734Y637290D01*
X110753Y637288D01*
X110855Y637310D01*
X110957Y637326D01*
X110974Y637336D01*
X110994Y637340D01*
X111083Y637393D01*
X111174Y637442D01*
X111188Y637456D01*
X111205Y637466D01*
X111272Y637545D01*
X111344Y637620D01*
X111352Y637638D01*
X111365Y637653D01*
X111404Y637749D01*
X111447Y637843D01*
X111449Y637863D01*
X111457Y637881D01*
X111475Y638048D01*
X111475Y640632D01*
X112368Y641525D01*
X124632Y641525D01*
X125525Y640632D01*
X125525Y629368D01*
X124632Y628475D01*
X112368Y628475D01*
X111475Y629368D01*
X111475Y631952D01*
X111472Y631972D01*
X111474Y631991D01*
X111452Y632093D01*
X111436Y632195D01*
X111426Y632212D01*
X111422Y632232D01*
X111369Y632321D01*
X111320Y632412D01*
X111306Y632426D01*
X111296Y632443D01*
X111217Y632510D01*
X111142Y632582D01*
X111124Y632590D01*
X111109Y632603D01*
X111013Y632642D01*
X110919Y632685D01*
X110899Y632687D01*
X110881Y632695D01*
X110714Y632713D01*
X79248Y632713D01*
X79228Y632710D01*
X79209Y632712D01*
X79107Y632690D01*
X79005Y632674D01*
X78988Y632664D01*
X78968Y632660D01*
X78879Y632607D01*
X78788Y632558D01*
X78774Y632544D01*
X78757Y632534D01*
X78690Y632455D01*
X78618Y632380D01*
X78610Y632362D01*
X78597Y632347D01*
X78558Y632251D01*
X78515Y632157D01*
X78513Y632137D01*
X78505Y632119D01*
X78487Y631952D01*
X78487Y565143D01*
X78501Y565052D01*
X78509Y564962D01*
X78521Y564932D01*
X78526Y564900D01*
X78569Y564819D01*
X78605Y564735D01*
X78631Y564703D01*
X78642Y564682D01*
X78665Y564660D01*
X78710Y564604D01*
X141987Y501327D01*
X141987Y443553D01*
X140647Y442213D01*
X125684Y442213D01*
X125569Y442194D01*
X125453Y442177D01*
X125448Y442175D01*
X125441Y442174D01*
X125339Y442119D01*
X125234Y442066D01*
X125230Y442061D01*
X125224Y442058D01*
X125144Y441974D01*
X125062Y441890D01*
X125058Y441884D01*
X125055Y441880D01*
X125047Y441863D01*
X124981Y441743D01*
X123560Y438313D01*
X120487Y435240D01*
X116473Y433577D01*
X112127Y433577D01*
X108113Y435240D01*
X105040Y438313D01*
X103619Y441743D01*
X103558Y441843D01*
X103498Y441943D01*
X103493Y441947D01*
X103490Y441952D01*
X103400Y442027D01*
X103311Y442103D01*
X103305Y442105D01*
X103300Y442109D01*
X103192Y442151D01*
X103083Y442195D01*
X103075Y442196D01*
X103070Y442197D01*
X103052Y442198D01*
X102916Y442213D01*
X74884Y442213D01*
X74769Y442194D01*
X74653Y442177D01*
X74648Y442175D01*
X74641Y442174D01*
X74539Y442119D01*
X74434Y442066D01*
X74430Y442061D01*
X74424Y442058D01*
X74344Y441974D01*
X74262Y441890D01*
X74258Y441884D01*
X74255Y441880D01*
X74247Y441863D01*
X74181Y441743D01*
X72760Y438313D01*
X69687Y435240D01*
X65673Y433577D01*
X61327Y433577D01*
G37*
%LPD*%
%LPC*%
G36*
X512448Y206755D02*
X512448Y206755D01*
X511555Y207648D01*
X511555Y224152D01*
X512417Y225014D01*
X512459Y225072D01*
X512509Y225124D01*
X512531Y225171D01*
X512561Y225213D01*
X512582Y225282D01*
X512612Y225347D01*
X512618Y225399D01*
X512633Y225449D01*
X512631Y225520D01*
X512639Y225591D01*
X512628Y225642D01*
X512627Y225694D01*
X512602Y225762D01*
X512587Y225832D01*
X512560Y225877D01*
X512543Y225925D01*
X512498Y225981D01*
X512461Y226043D01*
X512421Y226077D01*
X512389Y226117D01*
X512329Y226156D01*
X512274Y226203D01*
X512226Y226222D01*
X512182Y226250D01*
X512112Y226268D01*
X512046Y226295D01*
X511975Y226303D01*
X511943Y226311D01*
X511920Y226309D01*
X511879Y226313D01*
X424586Y226313D01*
X424566Y226310D01*
X424547Y226312D01*
X424445Y226290D01*
X424343Y226274D01*
X424326Y226264D01*
X424306Y226260D01*
X424217Y226207D01*
X424126Y226158D01*
X424112Y226144D01*
X424095Y226134D01*
X424028Y226055D01*
X423956Y225980D01*
X423948Y225962D01*
X423935Y225947D01*
X423896Y225851D01*
X423853Y225757D01*
X423851Y225737D01*
X423843Y225719D01*
X423825Y225552D01*
X423825Y218248D01*
X422932Y217355D01*
X389868Y217355D01*
X388975Y218248D01*
X388975Y225552D01*
X388972Y225572D01*
X388974Y225591D01*
X388952Y225693D01*
X388936Y225795D01*
X388926Y225812D01*
X388922Y225832D01*
X388869Y225921D01*
X388820Y226012D01*
X388806Y226026D01*
X388796Y226043D01*
X388717Y226110D01*
X388642Y226182D01*
X388624Y226190D01*
X388609Y226203D01*
X388513Y226242D01*
X388419Y226285D01*
X388399Y226287D01*
X388381Y226295D01*
X388214Y226313D01*
X361133Y226313D01*
X361043Y226299D01*
X360952Y226291D01*
X360923Y226279D01*
X360891Y226274D01*
X360810Y226231D01*
X360726Y226195D01*
X360694Y226169D01*
X360673Y226158D01*
X360651Y226135D01*
X360595Y226090D01*
X357798Y223293D01*
X353402Y223293D01*
X350293Y226402D01*
X350293Y230357D01*
X350279Y230448D01*
X350271Y230538D01*
X350259Y230568D01*
X350254Y230600D01*
X350211Y230681D01*
X350175Y230765D01*
X350149Y230797D01*
X350138Y230818D01*
X350115Y230840D01*
X350070Y230896D01*
X347826Y233140D01*
X347752Y233193D01*
X347682Y233253D01*
X347652Y233265D01*
X347626Y233284D01*
X347539Y233311D01*
X347454Y233345D01*
X347413Y233349D01*
X347391Y233356D01*
X347359Y233355D01*
X347287Y233363D01*
X337136Y233363D01*
X337116Y233360D01*
X337097Y233362D01*
X336995Y233340D01*
X336893Y233324D01*
X336876Y233314D01*
X336856Y233310D01*
X336767Y233257D01*
X336676Y233208D01*
X336662Y233194D01*
X336645Y233184D01*
X336578Y233105D01*
X336506Y233030D01*
X336498Y233012D01*
X336485Y232997D01*
X336446Y232901D01*
X336403Y232807D01*
X336401Y232787D01*
X336393Y232769D01*
X336375Y232602D01*
X336375Y231766D01*
X334202Y229593D01*
X334133Y229496D01*
X334062Y229400D01*
X334060Y229396D01*
X334058Y229393D01*
X334023Y229280D01*
X333987Y229166D01*
X333987Y229162D01*
X333986Y229158D01*
X333989Y229039D01*
X333991Y228920D01*
X333992Y228916D01*
X333992Y228912D01*
X334033Y228799D01*
X334072Y228688D01*
X334075Y228685D01*
X334076Y228681D01*
X334151Y228588D01*
X334224Y228494D01*
X334228Y228491D01*
X334230Y228489D01*
X334242Y228481D01*
X334359Y228395D01*
X335522Y227724D01*
X336424Y226822D01*
X337061Y225719D01*
X337391Y224487D01*
X337391Y223073D01*
X330962Y223073D01*
X330942Y223070D01*
X330923Y223072D01*
X330821Y223050D01*
X330719Y223033D01*
X330702Y223024D01*
X330682Y223020D01*
X330593Y222967D01*
X330502Y222918D01*
X330488Y222904D01*
X330471Y222894D01*
X330404Y222815D01*
X330333Y222740D01*
X330324Y222722D01*
X330311Y222707D01*
X330272Y222611D01*
X330229Y222517D01*
X330227Y222497D01*
X330219Y222479D01*
X330201Y222312D01*
X330201Y221549D01*
X330199Y221549D01*
X330199Y222312D01*
X330196Y222332D01*
X330198Y222351D01*
X330176Y222453D01*
X330159Y222555D01*
X330150Y222572D01*
X330146Y222592D01*
X330093Y222681D01*
X330044Y222772D01*
X330030Y222786D01*
X330020Y222803D01*
X329941Y222870D01*
X329866Y222941D01*
X329848Y222950D01*
X329833Y222963D01*
X329737Y223002D01*
X329643Y223045D01*
X329623Y223047D01*
X329605Y223055D01*
X329438Y223073D01*
X323009Y223073D01*
X323009Y224487D01*
X323339Y225719D01*
X323976Y226822D01*
X324878Y227724D01*
X326041Y228395D01*
X326132Y228469D01*
X326226Y228545D01*
X326228Y228548D01*
X326231Y228551D01*
X326294Y228651D01*
X326359Y228752D01*
X326360Y228756D01*
X326362Y228759D01*
X326390Y228875D01*
X326419Y228990D01*
X326418Y228994D01*
X326419Y228998D01*
X326409Y229117D01*
X326400Y229235D01*
X326398Y229239D01*
X326398Y229243D01*
X326350Y229353D01*
X326303Y229462D01*
X326300Y229465D01*
X326299Y229469D01*
X326289Y229479D01*
X326198Y229593D01*
X324025Y231766D01*
X324025Y239534D01*
X326266Y241775D01*
X334134Y241775D01*
X336375Y239534D01*
X336375Y238698D01*
X336378Y238678D01*
X336376Y238659D01*
X336398Y238557D01*
X336414Y238455D01*
X336424Y238438D01*
X336428Y238418D01*
X336481Y238329D01*
X336530Y238238D01*
X336544Y238224D01*
X336554Y238207D01*
X336633Y238140D01*
X336708Y238068D01*
X336726Y238060D01*
X336741Y238047D01*
X336837Y238008D01*
X336931Y237965D01*
X336951Y237963D01*
X336969Y237955D01*
X337136Y237937D01*
X349497Y237937D01*
X353304Y234130D01*
X353378Y234077D01*
X353448Y234017D01*
X353478Y234005D01*
X353504Y233986D01*
X353591Y233959D01*
X353676Y233925D01*
X353717Y233921D01*
X353739Y233914D01*
X353771Y233915D01*
X353843Y233907D01*
X357798Y233907D01*
X360595Y231110D01*
X360669Y231057D01*
X360739Y230997D01*
X360769Y230985D01*
X360795Y230966D01*
X360882Y230939D01*
X360967Y230905D01*
X361008Y230901D01*
X361030Y230894D01*
X361062Y230895D01*
X361133Y230887D01*
X388214Y230887D01*
X388234Y230890D01*
X388253Y230888D01*
X388355Y230910D01*
X388457Y230926D01*
X388474Y230936D01*
X388494Y230940D01*
X388583Y230993D01*
X388674Y231042D01*
X388688Y231056D01*
X388705Y231066D01*
X388772Y231145D01*
X388844Y231220D01*
X388852Y231238D01*
X388865Y231253D01*
X388904Y231349D01*
X388947Y231443D01*
X388949Y231463D01*
X388957Y231481D01*
X388975Y231648D01*
X388975Y242012D01*
X389868Y242905D01*
X422932Y242905D01*
X423825Y242012D01*
X423825Y231648D01*
X423828Y231628D01*
X423826Y231609D01*
X423848Y231507D01*
X423864Y231405D01*
X423874Y231388D01*
X423878Y231368D01*
X423931Y231279D01*
X423980Y231188D01*
X423994Y231174D01*
X424004Y231157D01*
X424083Y231090D01*
X424158Y231018D01*
X424176Y231010D01*
X424191Y230997D01*
X424287Y230958D01*
X424381Y230915D01*
X424401Y230913D01*
X424419Y230905D01*
X424586Y230887D01*
X521647Y230887D01*
X522987Y229547D01*
X522987Y225806D01*
X522990Y225786D01*
X522988Y225767D01*
X523010Y225665D01*
X523026Y225563D01*
X523036Y225546D01*
X523040Y225526D01*
X523093Y225437D01*
X523142Y225346D01*
X523156Y225332D01*
X523166Y225315D01*
X523245Y225248D01*
X523320Y225176D01*
X523338Y225168D01*
X523353Y225155D01*
X523449Y225116D01*
X523543Y225073D01*
X523563Y225071D01*
X523581Y225063D01*
X523748Y225045D01*
X528952Y225045D01*
X529845Y224152D01*
X529845Y207648D01*
X528952Y206755D01*
X512448Y206755D01*
G37*
%LPD*%
%LPC*%
G36*
X112368Y323675D02*
X112368Y323675D01*
X111475Y324568D01*
X111475Y335832D01*
X112368Y336725D01*
X115452Y336725D01*
X115472Y336728D01*
X115491Y336726D01*
X115593Y336748D01*
X115695Y336764D01*
X115712Y336774D01*
X115732Y336778D01*
X115821Y336831D01*
X115912Y336880D01*
X115926Y336894D01*
X115943Y336904D01*
X116010Y336983D01*
X116082Y337058D01*
X116090Y337076D01*
X116103Y337091D01*
X116141Y337187D01*
X116185Y337281D01*
X116187Y337301D01*
X116195Y337319D01*
X116213Y337486D01*
X116213Y348047D01*
X137190Y369024D01*
X137243Y369098D01*
X137303Y369168D01*
X137315Y369198D01*
X137334Y369224D01*
X137361Y369311D01*
X137395Y369396D01*
X137399Y369437D01*
X137406Y369459D01*
X137405Y369491D01*
X137413Y369563D01*
X137413Y416052D01*
X137410Y416072D01*
X137412Y416091D01*
X137390Y416193D01*
X137374Y416295D01*
X137364Y416312D01*
X137360Y416332D01*
X137307Y416421D01*
X137258Y416512D01*
X137244Y416526D01*
X137234Y416543D01*
X137155Y416610D01*
X137080Y416682D01*
X137062Y416690D01*
X137047Y416703D01*
X136951Y416742D01*
X136857Y416785D01*
X136837Y416787D01*
X136819Y416795D01*
X136652Y416813D01*
X125684Y416813D01*
X125569Y416794D01*
X125453Y416777D01*
X125448Y416775D01*
X125441Y416774D01*
X125339Y416719D01*
X125234Y416666D01*
X125230Y416661D01*
X125224Y416658D01*
X125144Y416574D01*
X125062Y416490D01*
X125058Y416484D01*
X125055Y416480D01*
X125047Y416463D01*
X124981Y416343D01*
X123560Y412913D01*
X120487Y409840D01*
X116473Y408177D01*
X112127Y408177D01*
X108113Y409840D01*
X105040Y412913D01*
X103619Y416343D01*
X103558Y416443D01*
X103498Y416543D01*
X103493Y416547D01*
X103490Y416552D01*
X103400Y416627D01*
X103311Y416703D01*
X103305Y416705D01*
X103300Y416709D01*
X103192Y416751D01*
X103083Y416795D01*
X103075Y416796D01*
X103070Y416797D01*
X103052Y416798D01*
X102916Y416813D01*
X74884Y416813D01*
X74769Y416794D01*
X74653Y416777D01*
X74648Y416775D01*
X74641Y416774D01*
X74539Y416719D01*
X74434Y416666D01*
X74430Y416661D01*
X74424Y416658D01*
X74344Y416574D01*
X74262Y416490D01*
X74258Y416484D01*
X74255Y416480D01*
X74247Y416463D01*
X74181Y416343D01*
X72760Y412913D01*
X69687Y409840D01*
X65673Y408177D01*
X61327Y408177D01*
X57313Y409840D01*
X54240Y412913D01*
X52577Y416927D01*
X52577Y421273D01*
X54240Y425287D01*
X57313Y428360D01*
X61327Y430023D01*
X65673Y430023D01*
X69687Y428360D01*
X72760Y425287D01*
X74181Y421857D01*
X74242Y421757D01*
X74302Y421657D01*
X74307Y421653D01*
X74310Y421648D01*
X74400Y421573D01*
X74489Y421497D01*
X74495Y421495D01*
X74500Y421491D01*
X74608Y421449D01*
X74717Y421405D01*
X74725Y421404D01*
X74730Y421403D01*
X74748Y421402D01*
X74884Y421387D01*
X102916Y421387D01*
X103031Y421406D01*
X103147Y421423D01*
X103152Y421425D01*
X103159Y421426D01*
X103261Y421481D01*
X103366Y421534D01*
X103370Y421539D01*
X103376Y421542D01*
X103456Y421626D01*
X103538Y421710D01*
X103542Y421716D01*
X103545Y421720D01*
X103553Y421737D01*
X103619Y421857D01*
X105040Y425287D01*
X108113Y428360D01*
X112127Y430023D01*
X116473Y430023D01*
X120487Y428360D01*
X123560Y425287D01*
X124981Y421857D01*
X125042Y421757D01*
X125102Y421657D01*
X125107Y421653D01*
X125110Y421648D01*
X125200Y421573D01*
X125289Y421497D01*
X125295Y421495D01*
X125300Y421491D01*
X125408Y421449D01*
X125517Y421405D01*
X125525Y421404D01*
X125530Y421403D01*
X125548Y421402D01*
X125684Y421387D01*
X140647Y421387D01*
X141987Y420047D01*
X141987Y367353D01*
X121010Y346376D01*
X120962Y346310D01*
X120953Y346300D01*
X120951Y346295D01*
X120897Y346232D01*
X120885Y346202D01*
X120866Y346176D01*
X120839Y346089D01*
X120805Y346004D01*
X120801Y345963D01*
X120794Y345941D01*
X120795Y345909D01*
X120787Y345837D01*
X120787Y337486D01*
X120789Y337471D01*
X120788Y337459D01*
X120789Y337455D01*
X120788Y337447D01*
X120810Y337345D01*
X120826Y337243D01*
X120836Y337226D01*
X120840Y337206D01*
X120893Y337117D01*
X120942Y337026D01*
X120956Y337012D01*
X120966Y336995D01*
X121045Y336928D01*
X121120Y336856D01*
X121138Y336848D01*
X121153Y336835D01*
X121249Y336796D01*
X121343Y336753D01*
X121363Y336751D01*
X121381Y336743D01*
X121548Y336725D01*
X124632Y336725D01*
X125525Y335832D01*
X125525Y324568D01*
X124632Y323675D01*
X112368Y323675D01*
G37*
%LPD*%
%LPC*%
G36*
X309168Y63275D02*
X309168Y63275D01*
X308275Y64168D01*
X308275Y111432D01*
X309168Y112325D01*
X320432Y112325D01*
X321325Y111432D01*
X321325Y93548D01*
X321328Y93528D01*
X321326Y93509D01*
X321348Y93407D01*
X321364Y93305D01*
X321374Y93288D01*
X321378Y93268D01*
X321431Y93179D01*
X321480Y93088D01*
X321494Y93074D01*
X321504Y93057D01*
X321583Y92990D01*
X321658Y92918D01*
X321676Y92910D01*
X321691Y92897D01*
X321787Y92858D01*
X321881Y92815D01*
X321901Y92813D01*
X321919Y92805D01*
X322086Y92787D01*
X377067Y92787D01*
X377157Y92801D01*
X377248Y92809D01*
X377277Y92821D01*
X377309Y92826D01*
X377390Y92869D01*
X377474Y92905D01*
X377506Y92931D01*
X377527Y92942D01*
X377549Y92965D01*
X377605Y93010D01*
X378802Y94207D01*
X383198Y94207D01*
X386307Y91098D01*
X386307Y86702D01*
X383198Y83593D01*
X378802Y83593D01*
X375693Y86702D01*
X375693Y87452D01*
X375690Y87472D01*
X375692Y87491D01*
X375670Y87593D01*
X375654Y87695D01*
X375644Y87712D01*
X375640Y87732D01*
X375587Y87821D01*
X375538Y87912D01*
X375524Y87926D01*
X375514Y87943D01*
X375435Y88010D01*
X375360Y88082D01*
X375342Y88090D01*
X375327Y88103D01*
X375231Y88142D01*
X375137Y88185D01*
X375117Y88187D01*
X375099Y88195D01*
X374932Y88213D01*
X322086Y88213D01*
X322066Y88210D01*
X322047Y88212D01*
X321945Y88190D01*
X321843Y88174D01*
X321826Y88164D01*
X321806Y88160D01*
X321717Y88107D01*
X321626Y88058D01*
X321612Y88044D01*
X321595Y88034D01*
X321528Y87955D01*
X321456Y87880D01*
X321448Y87862D01*
X321435Y87847D01*
X321396Y87751D01*
X321353Y87657D01*
X321351Y87637D01*
X321343Y87619D01*
X321325Y87452D01*
X321325Y64168D01*
X320432Y63275D01*
X309168Y63275D01*
G37*
%LPD*%
%LPC*%
G36*
X61327Y458977D02*
X61327Y458977D01*
X57313Y460640D01*
X54240Y463713D01*
X52577Y467727D01*
X52577Y472073D01*
X54240Y476087D01*
X57313Y479160D01*
X61327Y480823D01*
X65673Y480823D01*
X69687Y479160D01*
X72760Y476087D01*
X74181Y472657D01*
X74242Y472557D01*
X74302Y472457D01*
X74307Y472453D01*
X74310Y472448D01*
X74400Y472373D01*
X74489Y472297D01*
X74495Y472295D01*
X74500Y472291D01*
X74608Y472249D01*
X74717Y472205D01*
X74725Y472204D01*
X74730Y472203D01*
X74748Y472202D01*
X74884Y472187D01*
X102916Y472187D01*
X103031Y472206D01*
X103147Y472223D01*
X103152Y472225D01*
X103159Y472226D01*
X103261Y472281D01*
X103366Y472334D01*
X103370Y472339D01*
X103376Y472342D01*
X103456Y472426D01*
X103538Y472510D01*
X103542Y472516D01*
X103545Y472520D01*
X103553Y472537D01*
X103619Y472657D01*
X105040Y476087D01*
X108113Y479160D01*
X112127Y480823D01*
X116473Y480823D01*
X120487Y479160D01*
X123560Y476087D01*
X125223Y472073D01*
X125223Y467727D01*
X123560Y463713D01*
X120487Y460640D01*
X116473Y458977D01*
X112127Y458977D01*
X108113Y460640D01*
X105040Y463713D01*
X103619Y467143D01*
X103558Y467243D01*
X103498Y467343D01*
X103493Y467347D01*
X103490Y467352D01*
X103400Y467427D01*
X103311Y467503D01*
X103305Y467505D01*
X103300Y467509D01*
X103192Y467551D01*
X103083Y467595D01*
X103075Y467596D01*
X103070Y467597D01*
X103052Y467598D01*
X102916Y467613D01*
X74884Y467613D01*
X74769Y467594D01*
X74653Y467577D01*
X74648Y467575D01*
X74641Y467574D01*
X74539Y467519D01*
X74434Y467466D01*
X74430Y467461D01*
X74424Y467458D01*
X74344Y467374D01*
X74262Y467290D01*
X74258Y467284D01*
X74255Y467280D01*
X74247Y467263D01*
X74181Y467143D01*
X72760Y463713D01*
X69687Y460640D01*
X65673Y458977D01*
X61327Y458977D01*
G37*
%LPD*%
%LPC*%
G36*
X61327Y382777D02*
X61327Y382777D01*
X57313Y384440D01*
X54240Y387513D01*
X52577Y391527D01*
X52577Y395873D01*
X54240Y399887D01*
X57313Y402960D01*
X61327Y404623D01*
X65673Y404623D01*
X69687Y402960D01*
X72760Y399887D01*
X74181Y396457D01*
X74242Y396357D01*
X74302Y396257D01*
X74307Y396253D01*
X74310Y396248D01*
X74400Y396173D01*
X74489Y396097D01*
X74495Y396095D01*
X74500Y396091D01*
X74608Y396049D01*
X74717Y396005D01*
X74725Y396004D01*
X74730Y396003D01*
X74748Y396002D01*
X74884Y395987D01*
X102916Y395987D01*
X103031Y396006D01*
X103147Y396023D01*
X103152Y396025D01*
X103159Y396026D01*
X103261Y396081D01*
X103366Y396134D01*
X103370Y396139D01*
X103376Y396142D01*
X103455Y396225D01*
X103538Y396310D01*
X103542Y396316D01*
X103545Y396320D01*
X103553Y396337D01*
X103619Y396457D01*
X105040Y399887D01*
X108113Y402960D01*
X112127Y404623D01*
X116473Y404623D01*
X120487Y402960D01*
X123560Y399887D01*
X125223Y395873D01*
X125223Y391527D01*
X123560Y387513D01*
X120487Y384440D01*
X116473Y382777D01*
X112127Y382777D01*
X108113Y384440D01*
X105040Y387513D01*
X103619Y390943D01*
X103558Y391043D01*
X103498Y391143D01*
X103493Y391147D01*
X103490Y391152D01*
X103400Y391227D01*
X103311Y391303D01*
X103305Y391305D01*
X103300Y391309D01*
X103192Y391351D01*
X103083Y391395D01*
X103075Y391396D01*
X103070Y391397D01*
X103052Y391398D01*
X102916Y391413D01*
X74884Y391413D01*
X74769Y391394D01*
X74653Y391377D01*
X74648Y391375D01*
X74641Y391374D01*
X74539Y391319D01*
X74434Y391266D01*
X74430Y391261D01*
X74424Y391258D01*
X74344Y391174D01*
X74262Y391090D01*
X74258Y391084D01*
X74255Y391080D01*
X74247Y391063D01*
X74181Y390943D01*
X72760Y387513D01*
X69687Y384440D01*
X65673Y382777D01*
X61327Y382777D01*
G37*
%LPD*%
%LPC*%
G36*
X129368Y691975D02*
X129368Y691975D01*
X128475Y692868D01*
X128475Y704132D01*
X129368Y705025D01*
X132452Y705025D01*
X132472Y705028D01*
X132491Y705026D01*
X132593Y705048D01*
X132695Y705064D01*
X132712Y705074D01*
X132732Y705078D01*
X132821Y705131D01*
X132912Y705180D01*
X132926Y705194D01*
X132943Y705204D01*
X133010Y705283D01*
X133082Y705358D01*
X133090Y705376D01*
X133103Y705391D01*
X133142Y705487D01*
X133185Y705581D01*
X133187Y705601D01*
X133195Y705619D01*
X133213Y705786D01*
X133213Y742014D01*
X133210Y742034D01*
X133212Y742053D01*
X133190Y742155D01*
X133174Y742257D01*
X133164Y742274D01*
X133160Y742294D01*
X133107Y742383D01*
X133058Y742474D01*
X133044Y742488D01*
X133034Y742505D01*
X132955Y742572D01*
X132880Y742644D01*
X132862Y742652D01*
X132847Y742665D01*
X132751Y742704D01*
X132657Y742747D01*
X132637Y742749D01*
X132619Y742757D01*
X132452Y742775D01*
X129368Y742775D01*
X128475Y743668D01*
X128475Y754932D01*
X129368Y755825D01*
X141632Y755825D01*
X142525Y754932D01*
X142525Y743668D01*
X141632Y742775D01*
X138548Y742775D01*
X138528Y742772D01*
X138509Y742774D01*
X138407Y742752D01*
X138305Y742736D01*
X138288Y742726D01*
X138268Y742722D01*
X138179Y742669D01*
X138088Y742620D01*
X138074Y742606D01*
X138057Y742596D01*
X137990Y742517D01*
X137918Y742442D01*
X137910Y742424D01*
X137897Y742409D01*
X137858Y742313D01*
X137815Y742219D01*
X137813Y742199D01*
X137805Y742181D01*
X137787Y742014D01*
X137787Y714248D01*
X137790Y714228D01*
X137788Y714209D01*
X137810Y714107D01*
X137826Y714005D01*
X137836Y713988D01*
X137840Y713968D01*
X137893Y713879D01*
X137942Y713788D01*
X137956Y713774D01*
X137966Y713757D01*
X138045Y713690D01*
X138120Y713618D01*
X138138Y713610D01*
X138153Y713597D01*
X138249Y713558D01*
X138343Y713515D01*
X138363Y713513D01*
X138381Y713505D01*
X138548Y713487D01*
X161544Y713487D01*
X161564Y713490D01*
X161583Y713488D01*
X161685Y713510D01*
X161787Y713526D01*
X161804Y713536D01*
X161824Y713540D01*
X161913Y713593D01*
X162004Y713642D01*
X162018Y713656D01*
X162035Y713666D01*
X162102Y713745D01*
X162174Y713820D01*
X162182Y713838D01*
X162195Y713853D01*
X162234Y713949D01*
X162277Y714043D01*
X162279Y714063D01*
X162287Y714081D01*
X162305Y714248D01*
X162305Y720087D01*
X163198Y720980D01*
X174622Y720980D01*
X175515Y720087D01*
X175515Y707393D01*
X174622Y706500D01*
X163198Y706500D01*
X162305Y707393D01*
X162305Y708152D01*
X162302Y708172D01*
X162304Y708191D01*
X162282Y708293D01*
X162266Y708395D01*
X162256Y708412D01*
X162252Y708432D01*
X162199Y708521D01*
X162150Y708612D01*
X162136Y708626D01*
X162126Y708643D01*
X162047Y708710D01*
X161972Y708782D01*
X161954Y708790D01*
X161939Y708803D01*
X161843Y708842D01*
X161749Y708885D01*
X161729Y708887D01*
X161711Y708895D01*
X161544Y708913D01*
X138548Y708913D01*
X138528Y708910D01*
X138509Y708912D01*
X138407Y708890D01*
X138305Y708874D01*
X138288Y708864D01*
X138268Y708860D01*
X138179Y708807D01*
X138088Y708758D01*
X138074Y708744D01*
X138057Y708734D01*
X137990Y708655D01*
X137918Y708580D01*
X137910Y708562D01*
X137897Y708547D01*
X137858Y708451D01*
X137815Y708357D01*
X137813Y708337D01*
X137805Y708319D01*
X137787Y708152D01*
X137787Y705786D01*
X137790Y705766D01*
X137788Y705747D01*
X137810Y705645D01*
X137826Y705543D01*
X137836Y705526D01*
X137840Y705506D01*
X137893Y705417D01*
X137942Y705326D01*
X137956Y705312D01*
X137966Y705295D01*
X138045Y705228D01*
X138120Y705156D01*
X138138Y705148D01*
X138153Y705135D01*
X138249Y705096D01*
X138343Y705053D01*
X138363Y705051D01*
X138381Y705043D01*
X138548Y705025D01*
X141632Y705025D01*
X142525Y704132D01*
X142525Y692868D01*
X141632Y691975D01*
X129368Y691975D01*
G37*
%LPD*%
%LPC*%
G36*
X129368Y272875D02*
X129368Y272875D01*
X128475Y273768D01*
X128475Y285032D01*
X129368Y285925D01*
X132452Y285925D01*
X132472Y285928D01*
X132491Y285926D01*
X132593Y285948D01*
X132695Y285964D01*
X132712Y285974D01*
X132732Y285978D01*
X132821Y286031D01*
X132912Y286080D01*
X132926Y286094D01*
X132943Y286104D01*
X133010Y286183D01*
X133082Y286258D01*
X133090Y286276D01*
X133103Y286291D01*
X133142Y286387D01*
X133185Y286481D01*
X133187Y286501D01*
X133195Y286519D01*
X133213Y286686D01*
X133213Y322914D01*
X133210Y322934D01*
X133212Y322953D01*
X133190Y323055D01*
X133174Y323157D01*
X133164Y323174D01*
X133160Y323194D01*
X133107Y323283D01*
X133058Y323374D01*
X133044Y323388D01*
X133034Y323405D01*
X132955Y323472D01*
X132880Y323544D01*
X132862Y323552D01*
X132847Y323565D01*
X132751Y323604D01*
X132657Y323647D01*
X132637Y323649D01*
X132619Y323657D01*
X132452Y323675D01*
X129368Y323675D01*
X128475Y324568D01*
X128475Y335832D01*
X129368Y336725D01*
X141632Y336725D01*
X142525Y335832D01*
X142525Y324568D01*
X141632Y323675D01*
X138548Y323675D01*
X138528Y323672D01*
X138509Y323674D01*
X138407Y323652D01*
X138305Y323636D01*
X138288Y323626D01*
X138268Y323622D01*
X138179Y323569D01*
X138088Y323520D01*
X138074Y323506D01*
X138057Y323496D01*
X137990Y323417D01*
X137918Y323342D01*
X137910Y323324D01*
X137897Y323309D01*
X137858Y323213D01*
X137815Y323119D01*
X137813Y323099D01*
X137805Y323081D01*
X137787Y322914D01*
X137787Y295148D01*
X137790Y295128D01*
X137788Y295109D01*
X137810Y295007D01*
X137826Y294905D01*
X137836Y294888D01*
X137840Y294868D01*
X137893Y294779D01*
X137942Y294688D01*
X137956Y294674D01*
X137966Y294657D01*
X138045Y294590D01*
X138120Y294518D01*
X138138Y294510D01*
X138153Y294497D01*
X138249Y294458D01*
X138343Y294415D01*
X138363Y294413D01*
X138381Y294405D01*
X138548Y294387D01*
X161544Y294387D01*
X161564Y294390D01*
X161583Y294388D01*
X161685Y294410D01*
X161787Y294426D01*
X161804Y294436D01*
X161824Y294440D01*
X161913Y294493D01*
X162004Y294542D01*
X162018Y294556D01*
X162035Y294566D01*
X162102Y294645D01*
X162174Y294720D01*
X162182Y294738D01*
X162195Y294753D01*
X162234Y294849D01*
X162277Y294943D01*
X162279Y294963D01*
X162287Y294981D01*
X162305Y295148D01*
X162305Y300987D01*
X163198Y301880D01*
X174622Y301880D01*
X175515Y300987D01*
X175515Y288293D01*
X174622Y287400D01*
X163198Y287400D01*
X162305Y288293D01*
X162305Y289052D01*
X162302Y289072D01*
X162304Y289091D01*
X162282Y289193D01*
X162266Y289295D01*
X162256Y289312D01*
X162252Y289332D01*
X162199Y289421D01*
X162150Y289512D01*
X162136Y289526D01*
X162126Y289543D01*
X162047Y289610D01*
X161972Y289682D01*
X161954Y289690D01*
X161939Y289703D01*
X161843Y289742D01*
X161749Y289785D01*
X161729Y289787D01*
X161711Y289795D01*
X161544Y289813D01*
X138548Y289813D01*
X138528Y289810D01*
X138509Y289812D01*
X138407Y289790D01*
X138305Y289774D01*
X138288Y289764D01*
X138268Y289760D01*
X138179Y289707D01*
X138088Y289658D01*
X138074Y289644D01*
X138057Y289634D01*
X137990Y289555D01*
X137918Y289480D01*
X137910Y289462D01*
X137897Y289447D01*
X137858Y289351D01*
X137815Y289257D01*
X137813Y289237D01*
X137805Y289219D01*
X137787Y289052D01*
X137787Y286686D01*
X137790Y286666D01*
X137788Y286647D01*
X137810Y286545D01*
X137826Y286443D01*
X137836Y286426D01*
X137840Y286406D01*
X137893Y286317D01*
X137942Y286226D01*
X137956Y286212D01*
X137966Y286195D01*
X138045Y286128D01*
X138120Y286056D01*
X138138Y286048D01*
X138153Y286035D01*
X138249Y285996D01*
X138343Y285953D01*
X138363Y285951D01*
X138381Y285943D01*
X138548Y285925D01*
X141632Y285925D01*
X142525Y285032D01*
X142525Y273768D01*
X141632Y272875D01*
X129368Y272875D01*
G37*
%LPD*%
%LPC*%
G36*
X129368Y577675D02*
X129368Y577675D01*
X128475Y578568D01*
X128475Y589832D01*
X129368Y590725D01*
X132452Y590725D01*
X132472Y590728D01*
X132491Y590726D01*
X132593Y590748D01*
X132695Y590764D01*
X132712Y590774D01*
X132732Y590778D01*
X132821Y590831D01*
X132912Y590880D01*
X132926Y590894D01*
X132943Y590904D01*
X133010Y590983D01*
X133082Y591058D01*
X133090Y591076D01*
X133103Y591091D01*
X133142Y591187D01*
X133185Y591281D01*
X133187Y591301D01*
X133195Y591319D01*
X133213Y591486D01*
X133213Y627714D01*
X133210Y627734D01*
X133212Y627753D01*
X133190Y627855D01*
X133174Y627957D01*
X133164Y627974D01*
X133160Y627994D01*
X133107Y628083D01*
X133058Y628174D01*
X133044Y628188D01*
X133034Y628205D01*
X132955Y628272D01*
X132880Y628344D01*
X132862Y628352D01*
X132847Y628365D01*
X132751Y628404D01*
X132657Y628447D01*
X132637Y628449D01*
X132619Y628457D01*
X132452Y628475D01*
X129368Y628475D01*
X128475Y629368D01*
X128475Y640632D01*
X129368Y641525D01*
X141632Y641525D01*
X142525Y640632D01*
X142525Y629368D01*
X141632Y628475D01*
X138548Y628475D01*
X138528Y628472D01*
X138509Y628474D01*
X138407Y628452D01*
X138305Y628436D01*
X138288Y628426D01*
X138268Y628422D01*
X138179Y628369D01*
X138088Y628320D01*
X138074Y628306D01*
X138057Y628296D01*
X137990Y628217D01*
X137918Y628142D01*
X137910Y628124D01*
X137897Y628109D01*
X137858Y628013D01*
X137815Y627919D01*
X137813Y627899D01*
X137805Y627881D01*
X137787Y627714D01*
X137787Y599948D01*
X137790Y599928D01*
X137788Y599909D01*
X137810Y599807D01*
X137826Y599705D01*
X137836Y599688D01*
X137840Y599668D01*
X137893Y599579D01*
X137942Y599488D01*
X137956Y599474D01*
X137966Y599457D01*
X138045Y599390D01*
X138120Y599318D01*
X138138Y599310D01*
X138153Y599297D01*
X138249Y599258D01*
X138343Y599215D01*
X138363Y599213D01*
X138381Y599205D01*
X138548Y599187D01*
X161544Y599187D01*
X161564Y599190D01*
X161583Y599188D01*
X161685Y599210D01*
X161787Y599226D01*
X161804Y599236D01*
X161824Y599240D01*
X161913Y599293D01*
X162004Y599342D01*
X162018Y599356D01*
X162035Y599366D01*
X162102Y599445D01*
X162174Y599520D01*
X162182Y599538D01*
X162195Y599553D01*
X162234Y599649D01*
X162277Y599743D01*
X162279Y599763D01*
X162287Y599781D01*
X162305Y599948D01*
X162305Y605787D01*
X163198Y606680D01*
X174622Y606680D01*
X175515Y605787D01*
X175515Y593093D01*
X174622Y592200D01*
X163198Y592200D01*
X162305Y593093D01*
X162305Y593852D01*
X162302Y593872D01*
X162304Y593891D01*
X162282Y593993D01*
X162266Y594095D01*
X162256Y594112D01*
X162252Y594132D01*
X162199Y594221D01*
X162150Y594312D01*
X162136Y594326D01*
X162126Y594343D01*
X162047Y594410D01*
X161972Y594482D01*
X161954Y594490D01*
X161939Y594503D01*
X161843Y594542D01*
X161749Y594585D01*
X161729Y594587D01*
X161711Y594595D01*
X161544Y594613D01*
X138548Y594613D01*
X138528Y594610D01*
X138509Y594612D01*
X138407Y594590D01*
X138305Y594574D01*
X138288Y594564D01*
X138268Y594560D01*
X138179Y594507D01*
X138088Y594458D01*
X138074Y594444D01*
X138057Y594434D01*
X137990Y594355D01*
X137918Y594280D01*
X137910Y594262D01*
X137897Y594247D01*
X137858Y594151D01*
X137815Y594057D01*
X137813Y594037D01*
X137805Y594019D01*
X137787Y593852D01*
X137787Y591486D01*
X137790Y591466D01*
X137788Y591447D01*
X137810Y591345D01*
X137826Y591243D01*
X137836Y591226D01*
X137840Y591206D01*
X137893Y591117D01*
X137942Y591026D01*
X137956Y591012D01*
X137966Y590995D01*
X138045Y590928D01*
X138120Y590856D01*
X138138Y590848D01*
X138153Y590835D01*
X138249Y590796D01*
X138343Y590753D01*
X138363Y590751D01*
X138381Y590743D01*
X138548Y590725D01*
X141632Y590725D01*
X142525Y589832D01*
X142525Y578568D01*
X141632Y577675D01*
X129368Y577675D01*
G37*
%LPD*%
%LPC*%
G36*
X129368Y145875D02*
X129368Y145875D01*
X128475Y146768D01*
X128475Y158032D01*
X129368Y158925D01*
X132452Y158925D01*
X132472Y158928D01*
X132491Y158926D01*
X132593Y158948D01*
X132695Y158964D01*
X132712Y158974D01*
X132732Y158978D01*
X132821Y159031D01*
X132912Y159080D01*
X132926Y159094D01*
X132943Y159104D01*
X133010Y159183D01*
X133082Y159258D01*
X133090Y159276D01*
X133103Y159291D01*
X133142Y159387D01*
X133185Y159481D01*
X133187Y159501D01*
X133195Y159519D01*
X133213Y159686D01*
X133213Y195914D01*
X133211Y195930D01*
X133212Y195945D01*
X133212Y195948D01*
X133212Y195953D01*
X133190Y196055D01*
X133174Y196157D01*
X133164Y196174D01*
X133160Y196194D01*
X133107Y196283D01*
X133058Y196374D01*
X133044Y196388D01*
X133034Y196405D01*
X132955Y196472D01*
X132880Y196544D01*
X132862Y196552D01*
X132847Y196565D01*
X132751Y196604D01*
X132657Y196647D01*
X132637Y196649D01*
X132619Y196657D01*
X132452Y196675D01*
X129368Y196675D01*
X128475Y197568D01*
X128475Y208832D01*
X129368Y209725D01*
X141632Y209725D01*
X142525Y208832D01*
X142525Y197568D01*
X141632Y196675D01*
X138548Y196675D01*
X138528Y196672D01*
X138509Y196674D01*
X138407Y196652D01*
X138305Y196636D01*
X138288Y196626D01*
X138268Y196622D01*
X138179Y196569D01*
X138088Y196520D01*
X138074Y196506D01*
X138057Y196496D01*
X137990Y196417D01*
X137918Y196342D01*
X137910Y196324D01*
X137897Y196309D01*
X137858Y196213D01*
X137815Y196119D01*
X137813Y196099D01*
X137805Y196081D01*
X137787Y195914D01*
X137787Y168148D01*
X137790Y168128D01*
X137788Y168109D01*
X137810Y168007D01*
X137826Y167905D01*
X137836Y167888D01*
X137840Y167868D01*
X137893Y167779D01*
X137942Y167688D01*
X137956Y167674D01*
X137966Y167657D01*
X138045Y167590D01*
X138120Y167518D01*
X138138Y167510D01*
X138153Y167497D01*
X138249Y167458D01*
X138343Y167415D01*
X138363Y167413D01*
X138381Y167405D01*
X138548Y167387D01*
X161544Y167387D01*
X161564Y167390D01*
X161583Y167388D01*
X161685Y167410D01*
X161787Y167426D01*
X161804Y167436D01*
X161824Y167440D01*
X161913Y167493D01*
X162004Y167542D01*
X162018Y167556D01*
X162035Y167566D01*
X162102Y167645D01*
X162174Y167720D01*
X162182Y167738D01*
X162195Y167753D01*
X162234Y167849D01*
X162277Y167943D01*
X162279Y167963D01*
X162287Y167981D01*
X162305Y168148D01*
X162305Y173987D01*
X163198Y174880D01*
X174622Y174880D01*
X175515Y173987D01*
X175515Y161293D01*
X174622Y160400D01*
X163198Y160400D01*
X162305Y161293D01*
X162305Y162052D01*
X162302Y162072D01*
X162304Y162091D01*
X162282Y162193D01*
X162266Y162295D01*
X162256Y162312D01*
X162252Y162332D01*
X162199Y162421D01*
X162150Y162512D01*
X162136Y162526D01*
X162126Y162543D01*
X162047Y162610D01*
X161972Y162682D01*
X161954Y162690D01*
X161939Y162703D01*
X161843Y162742D01*
X161749Y162785D01*
X161729Y162787D01*
X161711Y162795D01*
X161544Y162813D01*
X138548Y162813D01*
X138528Y162810D01*
X138509Y162812D01*
X138407Y162790D01*
X138305Y162774D01*
X138288Y162764D01*
X138268Y162760D01*
X138179Y162707D01*
X138088Y162658D01*
X138074Y162644D01*
X138057Y162634D01*
X137990Y162555D01*
X137918Y162480D01*
X137910Y162462D01*
X137897Y162447D01*
X137858Y162351D01*
X137815Y162257D01*
X137813Y162237D01*
X137805Y162219D01*
X137787Y162052D01*
X137787Y159686D01*
X137790Y159666D01*
X137788Y159647D01*
X137810Y159545D01*
X137826Y159443D01*
X137836Y159426D01*
X137840Y159406D01*
X137893Y159317D01*
X137942Y159226D01*
X137956Y159212D01*
X137966Y159195D01*
X138045Y159128D01*
X138120Y159056D01*
X138138Y159048D01*
X138153Y159035D01*
X138249Y158996D01*
X138343Y158953D01*
X138363Y158951D01*
X138381Y158943D01*
X138548Y158925D01*
X141632Y158925D01*
X142525Y158032D01*
X142525Y146768D01*
X141632Y145875D01*
X129368Y145875D01*
G37*
%LPD*%
%LPC*%
G36*
X239127Y179577D02*
X239127Y179577D01*
X235113Y181240D01*
X232040Y184313D01*
X231671Y185203D01*
X231610Y185303D01*
X231550Y185403D01*
X231545Y185407D01*
X231542Y185412D01*
X231452Y185487D01*
X231363Y185563D01*
X231357Y185565D01*
X231352Y185569D01*
X231244Y185611D01*
X231135Y185655D01*
X231127Y185656D01*
X231123Y185657D01*
X231104Y185658D01*
X230968Y185673D01*
X185166Y185673D01*
X185146Y185670D01*
X185127Y185672D01*
X185025Y185650D01*
X184923Y185634D01*
X184906Y185624D01*
X184886Y185620D01*
X184797Y185567D01*
X184706Y185518D01*
X184692Y185504D01*
X184675Y185494D01*
X184608Y185415D01*
X184536Y185340D01*
X184528Y185322D01*
X184515Y185307D01*
X184476Y185211D01*
X184433Y185117D01*
X184431Y185097D01*
X184423Y185079D01*
X184405Y184912D01*
X184405Y181613D01*
X183512Y180720D01*
X172088Y180720D01*
X171195Y181613D01*
X171195Y194307D01*
X172088Y195200D01*
X183512Y195200D01*
X184405Y194307D01*
X184405Y191008D01*
X184408Y190988D01*
X184406Y190969D01*
X184428Y190867D01*
X184444Y190765D01*
X184454Y190748D01*
X184458Y190728D01*
X184511Y190639D01*
X184560Y190548D01*
X184574Y190534D01*
X184584Y190517D01*
X184663Y190450D01*
X184738Y190378D01*
X184756Y190370D01*
X184771Y190357D01*
X184867Y190318D01*
X184961Y190275D01*
X184981Y190273D01*
X184999Y190265D01*
X185166Y190247D01*
X229616Y190247D01*
X229636Y190250D01*
X229655Y190248D01*
X229757Y190270D01*
X229859Y190286D01*
X229876Y190296D01*
X229896Y190300D01*
X229985Y190353D01*
X230076Y190402D01*
X230090Y190416D01*
X230107Y190426D01*
X230174Y190505D01*
X230246Y190580D01*
X230254Y190598D01*
X230267Y190613D01*
X230306Y190709D01*
X230349Y190803D01*
X230351Y190823D01*
X230359Y190841D01*
X230377Y191008D01*
X230377Y192673D01*
X232040Y196687D01*
X235113Y199760D01*
X239127Y201423D01*
X243473Y201423D01*
X247487Y199760D01*
X250560Y196687D01*
X252223Y192673D01*
X252223Y188327D01*
X250560Y184313D01*
X247487Y181240D01*
X243473Y179577D01*
X239127Y179577D01*
G37*
%LPD*%
%LPC*%
G36*
X330168Y17275D02*
X330168Y17275D01*
X329275Y18168D01*
X329275Y53432D01*
X330168Y54325D01*
X347432Y54325D01*
X348325Y53432D01*
X348325Y18168D01*
X347432Y17275D01*
X330168Y17275D01*
G37*
%LPD*%
%LPC*%
G36*
X262168Y17275D02*
X262168Y17275D01*
X261275Y18168D01*
X261275Y53432D01*
X262168Y54325D01*
X279432Y54325D01*
X280325Y53432D01*
X280325Y18168D01*
X279432Y17275D01*
X262168Y17275D01*
G37*
%LPD*%
%LPC*%
G36*
X112368Y196675D02*
X112368Y196675D01*
X111475Y197568D01*
X111475Y200152D01*
X111472Y200172D01*
X111474Y200191D01*
X111452Y200293D01*
X111436Y200395D01*
X111426Y200412D01*
X111422Y200432D01*
X111369Y200521D01*
X111320Y200612D01*
X111306Y200626D01*
X111296Y200643D01*
X111217Y200710D01*
X111142Y200782D01*
X111124Y200790D01*
X111109Y200803D01*
X111013Y200842D01*
X110919Y200885D01*
X110899Y200887D01*
X110881Y200895D01*
X110714Y200913D01*
X30933Y200913D01*
X30843Y200899D01*
X30752Y200891D01*
X30723Y200879D01*
X30691Y200874D01*
X30610Y200831D01*
X30526Y200795D01*
X30494Y200769D01*
X30473Y200758D01*
X30451Y200735D01*
X30395Y200690D01*
X27598Y197893D01*
X23202Y197893D01*
X20093Y201002D01*
X20093Y205398D01*
X23202Y208507D01*
X27598Y208507D01*
X30395Y205710D01*
X30469Y205657D01*
X30539Y205597D01*
X30569Y205585D01*
X30595Y205566D01*
X30682Y205539D01*
X30767Y205505D01*
X30808Y205501D01*
X30830Y205494D01*
X30862Y205495D01*
X30933Y205487D01*
X110714Y205487D01*
X110734Y205490D01*
X110753Y205488D01*
X110855Y205510D01*
X110957Y205526D01*
X110974Y205536D01*
X110994Y205540D01*
X111083Y205593D01*
X111174Y205642D01*
X111188Y205656D01*
X111205Y205666D01*
X111272Y205745D01*
X111344Y205820D01*
X111352Y205838D01*
X111365Y205853D01*
X111404Y205949D01*
X111447Y206043D01*
X111449Y206063D01*
X111457Y206081D01*
X111475Y206248D01*
X111475Y208832D01*
X112368Y209725D01*
X124632Y209725D01*
X125525Y208832D01*
X125525Y197568D01*
X124632Y196675D01*
X112368Y196675D01*
G37*
%LPD*%
%LPC*%
G36*
X112368Y742775D02*
X112368Y742775D01*
X111475Y743668D01*
X111475Y746252D01*
X111472Y746272D01*
X111474Y746291D01*
X111452Y746393D01*
X111436Y746495D01*
X111426Y746512D01*
X111422Y746532D01*
X111369Y746621D01*
X111320Y746712D01*
X111306Y746726D01*
X111296Y746743D01*
X111217Y746810D01*
X111142Y746882D01*
X111124Y746890D01*
X111109Y746903D01*
X111013Y746942D01*
X110919Y746985D01*
X110899Y746987D01*
X110881Y746995D01*
X110714Y747013D01*
X43633Y747013D01*
X43543Y746999D01*
X43452Y746991D01*
X43423Y746979D01*
X43391Y746974D01*
X43310Y746931D01*
X43226Y746895D01*
X43194Y746869D01*
X43173Y746858D01*
X43151Y746835D01*
X43095Y746790D01*
X40298Y743993D01*
X35902Y743993D01*
X32793Y747102D01*
X32793Y751498D01*
X35902Y754607D01*
X40298Y754607D01*
X43095Y751810D01*
X43169Y751757D01*
X43239Y751697D01*
X43269Y751685D01*
X43295Y751666D01*
X43382Y751639D01*
X43467Y751605D01*
X43508Y751601D01*
X43530Y751594D01*
X43562Y751595D01*
X43633Y751587D01*
X110714Y751587D01*
X110734Y751590D01*
X110753Y751588D01*
X110855Y751610D01*
X110957Y751626D01*
X110974Y751636D01*
X110994Y751640D01*
X111083Y751693D01*
X111174Y751742D01*
X111188Y751756D01*
X111205Y751766D01*
X111272Y751845D01*
X111344Y751920D01*
X111352Y751938D01*
X111365Y751953D01*
X111404Y752049D01*
X111447Y752143D01*
X111449Y752163D01*
X111457Y752181D01*
X111475Y752348D01*
X111475Y754932D01*
X112368Y755825D01*
X124632Y755825D01*
X125525Y754932D01*
X125525Y743668D01*
X124632Y742775D01*
X112368Y742775D01*
G37*
%LPD*%
%LPC*%
G36*
X61327Y484377D02*
X61327Y484377D01*
X57313Y486040D01*
X54240Y489113D01*
X52577Y493127D01*
X52577Y497473D01*
X54240Y501487D01*
X57313Y504560D01*
X61327Y506223D01*
X65673Y506223D01*
X69687Y504560D01*
X72760Y501487D01*
X74423Y497473D01*
X74423Y493127D01*
X72760Y489113D01*
X69687Y486040D01*
X65673Y484377D01*
X61327Y484377D01*
G37*
%LPD*%
%LPC*%
G36*
X188327Y827277D02*
X188327Y827277D01*
X184313Y828940D01*
X181240Y832013D01*
X179577Y836027D01*
X179577Y840373D01*
X181240Y844387D01*
X184313Y847460D01*
X188327Y849123D01*
X192673Y849123D01*
X196687Y847460D01*
X199760Y844387D01*
X201423Y840373D01*
X201423Y836027D01*
X199760Y832013D01*
X196687Y828940D01*
X192673Y827277D01*
X188327Y827277D01*
G37*
%LPD*%
%LPC*%
G36*
X317499Y467929D02*
X317499Y467929D01*
X317499Y468692D01*
X317496Y468712D01*
X317498Y468731D01*
X317476Y468833D01*
X317459Y468935D01*
X317450Y468952D01*
X317446Y468972D01*
X317393Y469061D01*
X317344Y469152D01*
X317330Y469166D01*
X317320Y469183D01*
X317241Y469250D01*
X317166Y469321D01*
X317148Y469330D01*
X317133Y469343D01*
X317037Y469382D01*
X316943Y469425D01*
X316923Y469427D01*
X316905Y469435D01*
X316738Y469453D01*
X310309Y469453D01*
X310309Y470867D01*
X310639Y472099D01*
X311276Y473202D01*
X312178Y474103D01*
X313341Y474775D01*
X313434Y474851D01*
X313526Y474925D01*
X313528Y474928D01*
X313531Y474931D01*
X313595Y475032D01*
X313659Y475132D01*
X313660Y475136D01*
X313662Y475139D01*
X313690Y475255D01*
X313719Y475370D01*
X313718Y475374D01*
X313719Y475378D01*
X313709Y475497D01*
X313700Y475615D01*
X313698Y475619D01*
X313698Y475623D01*
X313650Y475733D01*
X313603Y475842D01*
X313600Y475845D01*
X313599Y475849D01*
X313589Y475859D01*
X313498Y475973D01*
X311325Y478146D01*
X311325Y485914D01*
X313566Y488155D01*
X314452Y488155D01*
X314472Y488158D01*
X314491Y488156D01*
X314593Y488178D01*
X314695Y488194D01*
X314712Y488204D01*
X314732Y488208D01*
X314821Y488261D01*
X314912Y488310D01*
X314926Y488324D01*
X314943Y488334D01*
X315010Y488413D01*
X315082Y488488D01*
X315090Y488506D01*
X315103Y488521D01*
X315142Y488617D01*
X315185Y488711D01*
X315187Y488731D01*
X315195Y488749D01*
X315213Y488916D01*
X315213Y502467D01*
X315199Y502557D01*
X315191Y502648D01*
X315179Y502677D01*
X315174Y502709D01*
X315131Y502790D01*
X315095Y502874D01*
X315069Y502906D01*
X315058Y502927D01*
X315035Y502949D01*
X314990Y503005D01*
X312193Y505802D01*
X312193Y510198D01*
X315302Y513307D01*
X319698Y513307D01*
X322807Y510198D01*
X322807Y505802D01*
X320010Y503005D01*
X319957Y502931D01*
X319897Y502861D01*
X319885Y502831D01*
X319866Y502805D01*
X319839Y502718D01*
X319805Y502633D01*
X319801Y502592D01*
X319794Y502570D01*
X319795Y502538D01*
X319787Y502467D01*
X319787Y488916D01*
X319790Y488896D01*
X319788Y488877D01*
X319810Y488775D01*
X319826Y488673D01*
X319836Y488656D01*
X319840Y488636D01*
X319893Y488547D01*
X319942Y488456D01*
X319956Y488442D01*
X319966Y488425D01*
X320045Y488358D01*
X320120Y488286D01*
X320138Y488278D01*
X320153Y488265D01*
X320249Y488226D01*
X320343Y488183D01*
X320363Y488181D01*
X320381Y488173D01*
X320548Y488155D01*
X321434Y488155D01*
X323675Y485914D01*
X323675Y478146D01*
X321502Y475973D01*
X321433Y475876D01*
X321362Y475780D01*
X321360Y475776D01*
X321358Y475773D01*
X321323Y475660D01*
X321287Y475546D01*
X321287Y475542D01*
X321286Y475538D01*
X321289Y475419D01*
X321291Y475300D01*
X321292Y475296D01*
X321292Y475292D01*
X321333Y475179D01*
X321372Y475068D01*
X321375Y475065D01*
X321376Y475061D01*
X321451Y474968D01*
X321524Y474874D01*
X321528Y474871D01*
X321530Y474869D01*
X321542Y474861D01*
X321659Y474775D01*
X322822Y474104D01*
X323724Y473202D01*
X324361Y472099D01*
X324691Y470867D01*
X324691Y469453D01*
X318262Y469453D01*
X318242Y469450D01*
X318223Y469452D01*
X318121Y469430D01*
X318019Y469413D01*
X318002Y469404D01*
X317982Y469400D01*
X317893Y469347D01*
X317802Y469298D01*
X317788Y469284D01*
X317771Y469274D01*
X317704Y469195D01*
X317633Y469120D01*
X317624Y469102D01*
X317611Y469087D01*
X317572Y468991D01*
X317529Y468897D01*
X317527Y468877D01*
X317519Y468859D01*
X317501Y468692D01*
X317501Y467929D01*
X317499Y467929D01*
G37*
%LPD*%
%LPC*%
G36*
X318769Y315529D02*
X318769Y315529D01*
X318769Y316292D01*
X318766Y316312D01*
X318768Y316331D01*
X318746Y316433D01*
X318729Y316535D01*
X318720Y316552D01*
X318716Y316572D01*
X318663Y316661D01*
X318614Y316752D01*
X318600Y316766D01*
X318590Y316783D01*
X318511Y316850D01*
X318436Y316921D01*
X318418Y316930D01*
X318403Y316943D01*
X318307Y316982D01*
X318213Y317025D01*
X318193Y317027D01*
X318175Y317035D01*
X318008Y317053D01*
X311579Y317053D01*
X311579Y318467D01*
X311909Y319699D01*
X312546Y320802D01*
X313448Y321704D01*
X314611Y322375D01*
X314649Y322406D01*
X314690Y322428D01*
X314738Y322479D01*
X314796Y322525D01*
X314798Y322528D01*
X314801Y322531D01*
X314827Y322573D01*
X314859Y322606D01*
X314889Y322670D01*
X314929Y322732D01*
X314930Y322736D01*
X314932Y322739D01*
X314943Y322787D01*
X314963Y322829D01*
X314971Y322899D01*
X314989Y322970D01*
X314988Y322974D01*
X314989Y322978D01*
X314985Y323027D01*
X314990Y323074D01*
X314975Y323143D01*
X314970Y323215D01*
X314968Y323219D01*
X314968Y323223D01*
X314948Y323268D01*
X314938Y323314D01*
X314901Y323375D01*
X314873Y323442D01*
X314870Y323445D01*
X314869Y323449D01*
X314859Y323459D01*
X314828Y323498D01*
X314812Y323525D01*
X314794Y323541D01*
X314768Y323573D01*
X312595Y325746D01*
X312595Y333514D01*
X314990Y335909D01*
X315043Y335983D01*
X315103Y336053D01*
X315115Y336083D01*
X315134Y336109D01*
X315161Y336196D01*
X315195Y336281D01*
X315199Y336322D01*
X315206Y336344D01*
X315205Y336376D01*
X315213Y336448D01*
X315213Y350067D01*
X315199Y350157D01*
X315191Y350248D01*
X315179Y350277D01*
X315174Y350309D01*
X315131Y350390D01*
X315095Y350474D01*
X315069Y350506D01*
X315058Y350527D01*
X315035Y350549D01*
X314990Y350605D01*
X312193Y353402D01*
X312193Y357798D01*
X315302Y360907D01*
X319698Y360907D01*
X322807Y357798D01*
X322807Y353402D01*
X320010Y350605D01*
X319957Y350531D01*
X319897Y350461D01*
X319885Y350431D01*
X319866Y350405D01*
X319839Y350318D01*
X319805Y350233D01*
X319801Y350192D01*
X319794Y350170D01*
X319795Y350138D01*
X319787Y350067D01*
X319787Y336516D01*
X319790Y336496D01*
X319788Y336477D01*
X319810Y336375D01*
X319826Y336273D01*
X319836Y336256D01*
X319840Y336236D01*
X319893Y336147D01*
X319942Y336056D01*
X319956Y336042D01*
X319966Y336025D01*
X320045Y335958D01*
X320120Y335886D01*
X320138Y335878D01*
X320153Y335865D01*
X320249Y335826D01*
X320343Y335783D01*
X320363Y335781D01*
X320381Y335773D01*
X320548Y335755D01*
X322704Y335755D01*
X324945Y333514D01*
X324945Y325746D01*
X322772Y323573D01*
X322730Y323514D01*
X322681Y323463D01*
X322660Y323419D01*
X322632Y323380D01*
X322630Y323376D01*
X322628Y323373D01*
X322607Y323304D01*
X322577Y323239D01*
X322572Y323192D01*
X322557Y323146D01*
X322557Y323142D01*
X322556Y323138D01*
X322558Y323065D01*
X322550Y322995D01*
X322560Y322949D01*
X322561Y322900D01*
X322562Y322896D01*
X322562Y322892D01*
X322587Y322823D01*
X322602Y322755D01*
X322626Y322715D01*
X322642Y322668D01*
X322645Y322665D01*
X322646Y322661D01*
X322693Y322603D01*
X322728Y322544D01*
X322764Y322513D01*
X322794Y322474D01*
X322798Y322471D01*
X322800Y322469D01*
X322812Y322461D01*
X322901Y322396D01*
X322915Y322384D01*
X322920Y322382D01*
X322929Y322375D01*
X324092Y321704D01*
X324994Y320802D01*
X325631Y319699D01*
X325961Y318467D01*
X325961Y317053D01*
X319532Y317053D01*
X319512Y317050D01*
X319493Y317052D01*
X319391Y317030D01*
X319289Y317013D01*
X319272Y317004D01*
X319252Y317000D01*
X319163Y316947D01*
X319072Y316898D01*
X319058Y316884D01*
X319041Y316874D01*
X318974Y316795D01*
X318903Y316720D01*
X318894Y316702D01*
X318881Y316687D01*
X318842Y316591D01*
X318799Y316497D01*
X318797Y316477D01*
X318789Y316459D01*
X318771Y316292D01*
X318771Y315529D01*
X318769Y315529D01*
G37*
%LPD*%
%LPC*%
G36*
X213702Y286793D02*
X213702Y286793D01*
X210905Y289590D01*
X210831Y289643D01*
X210761Y289703D01*
X210731Y289715D01*
X210705Y289734D01*
X210618Y289761D01*
X210533Y289795D01*
X210492Y289799D01*
X210470Y289806D01*
X210438Y289805D01*
X210367Y289813D01*
X194056Y289813D01*
X194036Y289810D01*
X194017Y289812D01*
X193915Y289790D01*
X193813Y289774D01*
X193796Y289764D01*
X193776Y289760D01*
X193687Y289707D01*
X193596Y289658D01*
X193582Y289644D01*
X193565Y289634D01*
X193498Y289555D01*
X193426Y289480D01*
X193418Y289462D01*
X193405Y289447D01*
X193366Y289351D01*
X193323Y289257D01*
X193321Y289237D01*
X193313Y289219D01*
X193295Y289052D01*
X193295Y288293D01*
X192402Y287400D01*
X180978Y287400D01*
X180085Y288293D01*
X180085Y300987D01*
X180978Y301880D01*
X192402Y301880D01*
X193295Y300987D01*
X193295Y295148D01*
X193298Y295128D01*
X193296Y295109D01*
X193318Y295007D01*
X193334Y294905D01*
X193344Y294888D01*
X193348Y294868D01*
X193401Y294779D01*
X193450Y294688D01*
X193464Y294674D01*
X193474Y294657D01*
X193553Y294590D01*
X193628Y294518D01*
X193646Y294510D01*
X193661Y294497D01*
X193757Y294458D01*
X193851Y294415D01*
X193871Y294413D01*
X193889Y294405D01*
X194056Y294387D01*
X210367Y294387D01*
X210457Y294401D01*
X210548Y294409D01*
X210577Y294421D01*
X210609Y294426D01*
X210690Y294469D01*
X210774Y294505D01*
X210806Y294531D01*
X210827Y294542D01*
X210849Y294565D01*
X210905Y294610D01*
X213702Y297407D01*
X218098Y297407D01*
X221207Y294298D01*
X221207Y289902D01*
X218098Y286793D01*
X213702Y286793D01*
G37*
%LPD*%
%LPC*%
G36*
X180978Y592200D02*
X180978Y592200D01*
X180085Y593093D01*
X180085Y605787D01*
X180978Y606680D01*
X192402Y606680D01*
X193295Y605787D01*
X193295Y602488D01*
X193298Y602468D01*
X193296Y602449D01*
X193318Y602347D01*
X193334Y602245D01*
X193344Y602228D01*
X193348Y602208D01*
X193401Y602119D01*
X193450Y602028D01*
X193464Y602014D01*
X193474Y601997D01*
X193553Y601930D01*
X193628Y601858D01*
X193646Y601850D01*
X193661Y601837D01*
X193757Y601798D01*
X193851Y601755D01*
X193871Y601753D01*
X193889Y601745D01*
X194056Y601727D01*
X210367Y601727D01*
X210457Y601741D01*
X210548Y601749D01*
X210577Y601761D01*
X210609Y601766D01*
X210690Y601809D01*
X210774Y601845D01*
X210806Y601871D01*
X210827Y601882D01*
X210849Y601905D01*
X210905Y601950D01*
X213702Y604747D01*
X218098Y604747D01*
X221207Y601638D01*
X221207Y597242D01*
X218098Y594133D01*
X213702Y594133D01*
X210905Y596930D01*
X210831Y596983D01*
X210761Y597043D01*
X210731Y597055D01*
X210705Y597074D01*
X210618Y597101D01*
X210533Y597135D01*
X210492Y597139D01*
X210470Y597146D01*
X210438Y597145D01*
X210367Y597153D01*
X194056Y597153D01*
X194036Y597150D01*
X194017Y597152D01*
X193915Y597130D01*
X193813Y597114D01*
X193796Y597104D01*
X193776Y597100D01*
X193687Y597047D01*
X193596Y596998D01*
X193582Y596984D01*
X193565Y596974D01*
X193498Y596895D01*
X193426Y596820D01*
X193418Y596802D01*
X193405Y596787D01*
X193366Y596691D01*
X193323Y596597D01*
X193321Y596577D01*
X193313Y596559D01*
X193295Y596392D01*
X193295Y593093D01*
X192402Y592200D01*
X180978Y592200D01*
G37*
%LPD*%
%LPC*%
G36*
X112368Y272875D02*
X112368Y272875D01*
X111475Y273768D01*
X111475Y276352D01*
X111472Y276372D01*
X111474Y276391D01*
X111452Y276493D01*
X111436Y276595D01*
X111426Y276612D01*
X111422Y276632D01*
X111369Y276721D01*
X111320Y276812D01*
X111306Y276826D01*
X111296Y276843D01*
X111217Y276910D01*
X111142Y276982D01*
X111124Y276990D01*
X111109Y277003D01*
X111013Y277042D01*
X110919Y277085D01*
X110899Y277087D01*
X110881Y277095D01*
X110714Y277113D01*
X94433Y277113D01*
X94343Y277099D01*
X94252Y277091D01*
X94223Y277079D01*
X94191Y277074D01*
X94110Y277031D01*
X94026Y276995D01*
X93994Y276969D01*
X93973Y276958D01*
X93951Y276935D01*
X93895Y276890D01*
X91098Y274093D01*
X86702Y274093D01*
X83593Y277202D01*
X83593Y281598D01*
X86702Y284707D01*
X91098Y284707D01*
X93895Y281910D01*
X93969Y281857D01*
X94039Y281797D01*
X94069Y281785D01*
X94095Y281766D01*
X94182Y281739D01*
X94267Y281705D01*
X94308Y281701D01*
X94330Y281694D01*
X94362Y281695D01*
X94433Y281687D01*
X110714Y281687D01*
X110734Y281690D01*
X110753Y281688D01*
X110855Y281710D01*
X110957Y281726D01*
X110974Y281736D01*
X110994Y281740D01*
X111083Y281793D01*
X111174Y281842D01*
X111188Y281856D01*
X111205Y281866D01*
X111272Y281945D01*
X111344Y282020D01*
X111352Y282038D01*
X111365Y282053D01*
X111404Y282149D01*
X111447Y282243D01*
X111449Y282263D01*
X111457Y282281D01*
X111475Y282448D01*
X111475Y285032D01*
X112368Y285925D01*
X124632Y285925D01*
X125525Y285032D01*
X125525Y273768D01*
X124632Y272875D01*
X112368Y272875D01*
G37*
%LPD*%
%LPC*%
G36*
X112368Y145875D02*
X112368Y145875D01*
X111475Y146768D01*
X111475Y149352D01*
X111472Y149372D01*
X111474Y149391D01*
X111452Y149493D01*
X111436Y149595D01*
X111426Y149612D01*
X111422Y149632D01*
X111369Y149721D01*
X111320Y149812D01*
X111306Y149826D01*
X111296Y149843D01*
X111217Y149910D01*
X111142Y149982D01*
X111124Y149990D01*
X111109Y150003D01*
X111013Y150042D01*
X110919Y150085D01*
X110899Y150087D01*
X110881Y150095D01*
X110714Y150113D01*
X94433Y150113D01*
X94343Y150099D01*
X94252Y150091D01*
X94223Y150079D01*
X94191Y150074D01*
X94110Y150031D01*
X94026Y149995D01*
X93994Y149969D01*
X93973Y149958D01*
X93951Y149935D01*
X93895Y149890D01*
X91098Y147093D01*
X86702Y147093D01*
X83593Y150202D01*
X83593Y154598D01*
X86702Y157707D01*
X91098Y157707D01*
X93895Y154910D01*
X93969Y154857D01*
X94039Y154797D01*
X94069Y154785D01*
X94095Y154766D01*
X94182Y154739D01*
X94267Y154705D01*
X94308Y154701D01*
X94330Y154694D01*
X94362Y154695D01*
X94433Y154687D01*
X110714Y154687D01*
X110734Y154690D01*
X110753Y154688D01*
X110855Y154710D01*
X110957Y154726D01*
X110974Y154736D01*
X110994Y154740D01*
X111083Y154793D01*
X111174Y154842D01*
X111188Y154856D01*
X111205Y154866D01*
X111272Y154945D01*
X111344Y155020D01*
X111352Y155038D01*
X111365Y155053D01*
X111404Y155149D01*
X111447Y155243D01*
X111449Y155263D01*
X111457Y155281D01*
X111475Y155448D01*
X111475Y158032D01*
X112368Y158925D01*
X124632Y158925D01*
X125525Y158032D01*
X125525Y146768D01*
X124632Y145875D01*
X112368Y145875D01*
G37*
%LPD*%
%LPC*%
G36*
X112368Y577675D02*
X112368Y577675D01*
X111475Y578568D01*
X111475Y581152D01*
X111472Y581172D01*
X111474Y581191D01*
X111452Y581293D01*
X111436Y581395D01*
X111426Y581412D01*
X111422Y581432D01*
X111369Y581521D01*
X111320Y581612D01*
X111306Y581626D01*
X111296Y581643D01*
X111217Y581710D01*
X111142Y581782D01*
X111124Y581790D01*
X111109Y581803D01*
X111013Y581842D01*
X110919Y581885D01*
X110899Y581887D01*
X110881Y581895D01*
X110714Y581913D01*
X94433Y581913D01*
X94343Y581899D01*
X94252Y581891D01*
X94223Y581879D01*
X94191Y581874D01*
X94110Y581831D01*
X94026Y581795D01*
X93994Y581769D01*
X93973Y581758D01*
X93951Y581735D01*
X93895Y581690D01*
X91098Y578893D01*
X86702Y578893D01*
X83593Y582002D01*
X83593Y586398D01*
X86702Y589507D01*
X91098Y589507D01*
X93895Y586710D01*
X93969Y586657D01*
X94039Y586597D01*
X94069Y586585D01*
X94095Y586566D01*
X94182Y586539D01*
X94267Y586505D01*
X94308Y586501D01*
X94330Y586494D01*
X94362Y586495D01*
X94433Y586487D01*
X110714Y586487D01*
X110734Y586490D01*
X110753Y586488D01*
X110855Y586510D01*
X110957Y586526D01*
X110974Y586536D01*
X110994Y586540D01*
X111083Y586593D01*
X111174Y586642D01*
X111188Y586656D01*
X111205Y586666D01*
X111272Y586745D01*
X111344Y586820D01*
X111352Y586838D01*
X111365Y586853D01*
X111404Y586949D01*
X111447Y587043D01*
X111449Y587063D01*
X111457Y587081D01*
X111475Y587248D01*
X111475Y589832D01*
X112368Y590725D01*
X124632Y590725D01*
X125525Y589832D01*
X125525Y578568D01*
X124632Y577675D01*
X112368Y577675D01*
G37*
%LPD*%
%LPC*%
G36*
X112368Y691975D02*
X112368Y691975D01*
X111475Y692868D01*
X111475Y695452D01*
X111472Y695472D01*
X111474Y695491D01*
X111452Y695593D01*
X111436Y695695D01*
X111426Y695712D01*
X111422Y695732D01*
X111369Y695821D01*
X111320Y695912D01*
X111306Y695926D01*
X111296Y695943D01*
X111217Y696010D01*
X111142Y696082D01*
X111124Y696090D01*
X111109Y696103D01*
X111013Y696142D01*
X110919Y696185D01*
X110899Y696187D01*
X110881Y696195D01*
X110714Y696213D01*
X94433Y696213D01*
X94343Y696199D01*
X94252Y696191D01*
X94223Y696179D01*
X94191Y696174D01*
X94110Y696131D01*
X94026Y696095D01*
X93994Y696069D01*
X93973Y696058D01*
X93951Y696035D01*
X93895Y695990D01*
X91098Y693193D01*
X86702Y693193D01*
X83593Y696302D01*
X83593Y700698D01*
X86702Y703807D01*
X91098Y703807D01*
X93895Y701010D01*
X93969Y700957D01*
X94039Y700897D01*
X94069Y700885D01*
X94095Y700866D01*
X94182Y700839D01*
X94267Y700805D01*
X94308Y700801D01*
X94330Y700794D01*
X94362Y700795D01*
X94433Y700787D01*
X110714Y700787D01*
X110734Y700790D01*
X110753Y700788D01*
X110855Y700810D01*
X110957Y700826D01*
X110974Y700836D01*
X110994Y700840D01*
X111083Y700893D01*
X111174Y700942D01*
X111188Y700956D01*
X111205Y700966D01*
X111272Y701045D01*
X111344Y701120D01*
X111352Y701138D01*
X111365Y701153D01*
X111404Y701249D01*
X111447Y701343D01*
X111449Y701363D01*
X111457Y701381D01*
X111475Y701548D01*
X111475Y704132D01*
X112368Y705025D01*
X124632Y705025D01*
X125525Y704132D01*
X125525Y692868D01*
X124632Y691975D01*
X112368Y691975D01*
G37*
%LPD*%
%LPC*%
G36*
X317499Y627949D02*
X317499Y627949D01*
X317499Y628712D01*
X317496Y628732D01*
X317498Y628751D01*
X317476Y628853D01*
X317459Y628955D01*
X317450Y628972D01*
X317446Y628992D01*
X317393Y629081D01*
X317344Y629172D01*
X317330Y629186D01*
X317320Y629203D01*
X317241Y629270D01*
X317166Y629341D01*
X317148Y629350D01*
X317133Y629363D01*
X317037Y629402D01*
X316943Y629445D01*
X316923Y629447D01*
X316905Y629455D01*
X316738Y629473D01*
X310309Y629473D01*
X310309Y630887D01*
X310639Y632119D01*
X311276Y633222D01*
X312178Y634124D01*
X313341Y634795D01*
X313432Y634869D01*
X313526Y634945D01*
X313528Y634948D01*
X313531Y634951D01*
X313594Y635051D01*
X313659Y635152D01*
X313660Y635156D01*
X313662Y635159D01*
X313690Y635275D01*
X313719Y635390D01*
X313718Y635394D01*
X313719Y635398D01*
X313709Y635517D01*
X313700Y635635D01*
X313698Y635639D01*
X313698Y635643D01*
X313649Y635754D01*
X313603Y635862D01*
X313600Y635865D01*
X313599Y635869D01*
X313589Y635879D01*
X313498Y635993D01*
X311325Y638166D01*
X311325Y645934D01*
X313566Y648175D01*
X314452Y648175D01*
X314472Y648178D01*
X314491Y648176D01*
X314593Y648198D01*
X314695Y648214D01*
X314712Y648224D01*
X314732Y648228D01*
X314821Y648281D01*
X314912Y648330D01*
X314926Y648344D01*
X314943Y648354D01*
X315010Y648433D01*
X315082Y648508D01*
X315090Y648526D01*
X315103Y648541D01*
X315142Y648637D01*
X315185Y648731D01*
X315187Y648751D01*
X315195Y648769D01*
X315213Y648936D01*
X315213Y654867D01*
X315199Y654957D01*
X315191Y655048D01*
X315179Y655077D01*
X315174Y655109D01*
X315131Y655190D01*
X315095Y655274D01*
X315069Y655306D01*
X315058Y655327D01*
X315035Y655349D01*
X314990Y655405D01*
X312193Y658202D01*
X312193Y662598D01*
X315302Y665707D01*
X319698Y665707D01*
X322807Y662598D01*
X322807Y658202D01*
X320010Y655405D01*
X319957Y655331D01*
X319897Y655261D01*
X319885Y655231D01*
X319866Y655205D01*
X319839Y655118D01*
X319805Y655033D01*
X319801Y654992D01*
X319794Y654970D01*
X319795Y654938D01*
X319787Y654867D01*
X319787Y648936D01*
X319790Y648916D01*
X319788Y648897D01*
X319810Y648795D01*
X319826Y648693D01*
X319836Y648676D01*
X319840Y648656D01*
X319893Y648567D01*
X319942Y648476D01*
X319956Y648462D01*
X319966Y648445D01*
X320045Y648378D01*
X320120Y648306D01*
X320138Y648298D01*
X320153Y648285D01*
X320249Y648246D01*
X320343Y648203D01*
X320363Y648201D01*
X320381Y648193D01*
X320548Y648175D01*
X321434Y648175D01*
X323675Y645934D01*
X323675Y638166D01*
X321502Y635993D01*
X321433Y635896D01*
X321362Y635800D01*
X321360Y635796D01*
X321358Y635793D01*
X321323Y635680D01*
X321287Y635566D01*
X321287Y635562D01*
X321286Y635558D01*
X321289Y635439D01*
X321291Y635320D01*
X321292Y635316D01*
X321292Y635312D01*
X321333Y635199D01*
X321372Y635088D01*
X321375Y635085D01*
X321376Y635081D01*
X321451Y634988D01*
X321524Y634894D01*
X321528Y634891D01*
X321530Y634889D01*
X321542Y634881D01*
X321659Y634795D01*
X322822Y634124D01*
X323724Y633222D01*
X324361Y632119D01*
X324691Y630887D01*
X324691Y629473D01*
X318262Y629473D01*
X318242Y629470D01*
X318223Y629472D01*
X318121Y629450D01*
X318019Y629433D01*
X318002Y629424D01*
X317982Y629420D01*
X317893Y629367D01*
X317802Y629318D01*
X317788Y629304D01*
X317771Y629294D01*
X317704Y629215D01*
X317633Y629140D01*
X317624Y629122D01*
X317611Y629107D01*
X317572Y629011D01*
X317529Y628917D01*
X317527Y628897D01*
X317519Y628879D01*
X317501Y628712D01*
X317501Y627949D01*
X317499Y627949D01*
G37*
%LPD*%
%LPC*%
G36*
X330199Y145349D02*
X330199Y145349D01*
X330199Y146112D01*
X330196Y146132D01*
X330198Y146151D01*
X330176Y146253D01*
X330159Y146355D01*
X330150Y146372D01*
X330146Y146392D01*
X330093Y146481D01*
X330044Y146572D01*
X330030Y146586D01*
X330020Y146603D01*
X329941Y146670D01*
X329866Y146741D01*
X329848Y146750D01*
X329833Y146763D01*
X329737Y146802D01*
X329643Y146845D01*
X329623Y146847D01*
X329605Y146855D01*
X329438Y146873D01*
X323009Y146873D01*
X323009Y148287D01*
X323339Y149519D01*
X323976Y150622D01*
X324878Y151524D01*
X326041Y152195D01*
X326132Y152269D01*
X326226Y152345D01*
X326228Y152348D01*
X326231Y152351D01*
X326294Y152451D01*
X326359Y152552D01*
X326360Y152556D01*
X326362Y152559D01*
X326390Y152675D01*
X326419Y152790D01*
X326418Y152794D01*
X326419Y152798D01*
X326409Y152917D01*
X326400Y153035D01*
X326398Y153039D01*
X326398Y153043D01*
X326349Y153154D01*
X326303Y153262D01*
X326300Y153265D01*
X326299Y153269D01*
X326289Y153279D01*
X326198Y153393D01*
X324025Y155566D01*
X324025Y163334D01*
X326266Y165575D01*
X327152Y165575D01*
X327172Y165578D01*
X327191Y165576D01*
X327293Y165598D01*
X327395Y165614D01*
X327412Y165624D01*
X327432Y165628D01*
X327521Y165681D01*
X327612Y165730D01*
X327626Y165744D01*
X327643Y165754D01*
X327710Y165833D01*
X327782Y165908D01*
X327790Y165926D01*
X327803Y165941D01*
X327842Y166037D01*
X327885Y166131D01*
X327887Y166151D01*
X327895Y166169D01*
X327913Y166336D01*
X327913Y172267D01*
X327899Y172357D01*
X327891Y172448D01*
X327879Y172477D01*
X327874Y172509D01*
X327831Y172590D01*
X327795Y172674D01*
X327769Y172706D01*
X327758Y172727D01*
X327735Y172749D01*
X327690Y172805D01*
X324893Y175602D01*
X324893Y179998D01*
X328002Y183107D01*
X332398Y183107D01*
X335507Y179998D01*
X335507Y175602D01*
X332710Y172805D01*
X332662Y172738D01*
X332659Y172735D01*
X332658Y172733D01*
X332657Y172731D01*
X332597Y172661D01*
X332585Y172631D01*
X332566Y172605D01*
X332539Y172518D01*
X332505Y172433D01*
X332501Y172392D01*
X332494Y172370D01*
X332495Y172338D01*
X332487Y172267D01*
X332487Y166336D01*
X332490Y166316D01*
X332488Y166297D01*
X332510Y166195D01*
X332526Y166093D01*
X332536Y166076D01*
X332540Y166056D01*
X332593Y165967D01*
X332642Y165876D01*
X332656Y165862D01*
X332666Y165845D01*
X332745Y165778D01*
X332820Y165706D01*
X332838Y165698D01*
X332853Y165685D01*
X332949Y165646D01*
X333043Y165603D01*
X333063Y165601D01*
X333081Y165593D01*
X333248Y165575D01*
X334134Y165575D01*
X336375Y163334D01*
X336375Y155566D01*
X334202Y153393D01*
X334133Y153296D01*
X334062Y153200D01*
X334060Y153196D01*
X334058Y153193D01*
X334023Y153080D01*
X333987Y152966D01*
X333987Y152962D01*
X333986Y152958D01*
X333989Y152839D01*
X333991Y152720D01*
X333992Y152716D01*
X333992Y152712D01*
X334033Y152599D01*
X334072Y152488D01*
X334075Y152485D01*
X334076Y152481D01*
X334151Y152388D01*
X334224Y152294D01*
X334228Y152291D01*
X334230Y152289D01*
X334242Y152281D01*
X334359Y152195D01*
X335522Y151524D01*
X336424Y150622D01*
X337061Y149519D01*
X337391Y148287D01*
X337391Y146873D01*
X330962Y146873D01*
X330942Y146870D01*
X330923Y146872D01*
X330821Y146850D01*
X330719Y146833D01*
X330702Y146824D01*
X330682Y146820D01*
X330593Y146767D01*
X330502Y146718D01*
X330488Y146704D01*
X330471Y146694D01*
X330404Y146615D01*
X330333Y146540D01*
X330324Y146522D01*
X330311Y146507D01*
X330272Y146411D01*
X330229Y146317D01*
X330227Y146297D01*
X330219Y146279D01*
X330201Y146112D01*
X330201Y145349D01*
X330199Y145349D01*
G37*
%LPD*%
%LPC*%
G36*
X180978Y160400D02*
X180978Y160400D01*
X180085Y161293D01*
X180085Y173987D01*
X180978Y174880D01*
X192402Y174880D01*
X193295Y173987D01*
X193295Y170688D01*
X193298Y170668D01*
X193296Y170649D01*
X193318Y170547D01*
X193334Y170445D01*
X193344Y170428D01*
X193348Y170408D01*
X193401Y170319D01*
X193450Y170228D01*
X193464Y170214D01*
X193474Y170197D01*
X193553Y170130D01*
X193628Y170058D01*
X193646Y170050D01*
X193661Y170037D01*
X193757Y169998D01*
X193851Y169955D01*
X193871Y169953D01*
X193889Y169945D01*
X194056Y169927D01*
X205287Y169927D01*
X205377Y169941D01*
X205468Y169949D01*
X205497Y169961D01*
X205529Y169966D01*
X205610Y170009D01*
X205694Y170045D01*
X205726Y170071D01*
X205747Y170082D01*
X205769Y170105D01*
X205825Y170150D01*
X208622Y172947D01*
X213018Y172947D01*
X216127Y169838D01*
X216127Y165442D01*
X213018Y162333D01*
X208622Y162333D01*
X205825Y165130D01*
X205751Y165183D01*
X205681Y165243D01*
X205651Y165255D01*
X205625Y165274D01*
X205538Y165301D01*
X205453Y165335D01*
X205412Y165339D01*
X205390Y165346D01*
X205358Y165345D01*
X205287Y165353D01*
X194056Y165353D01*
X194036Y165350D01*
X194017Y165352D01*
X193915Y165330D01*
X193813Y165314D01*
X193796Y165304D01*
X193776Y165300D01*
X193687Y165247D01*
X193596Y165198D01*
X193582Y165184D01*
X193565Y165174D01*
X193498Y165095D01*
X193426Y165020D01*
X193418Y165002D01*
X193405Y164987D01*
X193366Y164891D01*
X193323Y164797D01*
X193321Y164777D01*
X193313Y164759D01*
X193295Y164592D01*
X193295Y161293D01*
X192402Y160400D01*
X180978Y160400D01*
G37*
%LPD*%
%LPC*%
G36*
X180978Y706500D02*
X180978Y706500D01*
X180085Y707393D01*
X180085Y720087D01*
X180978Y720980D01*
X192402Y720980D01*
X193295Y720087D01*
X193295Y716788D01*
X193298Y716768D01*
X193296Y716749D01*
X193318Y716647D01*
X193334Y716545D01*
X193344Y716528D01*
X193348Y716508D01*
X193401Y716419D01*
X193450Y716328D01*
X193464Y716314D01*
X193474Y716297D01*
X193553Y716230D01*
X193628Y716158D01*
X193646Y716150D01*
X193661Y716137D01*
X193757Y716098D01*
X193851Y716055D01*
X193871Y716053D01*
X193889Y716045D01*
X194056Y716027D01*
X204117Y716027D01*
X204137Y716030D01*
X204156Y716028D01*
X204258Y716050D01*
X204360Y716066D01*
X204377Y716076D01*
X204397Y716080D01*
X204486Y716133D01*
X204577Y716182D01*
X204591Y716196D01*
X204608Y716206D01*
X204675Y716285D01*
X204747Y716360D01*
X204755Y716378D01*
X204768Y716393D01*
X204807Y716489D01*
X204817Y716512D01*
X207987Y719682D01*
X212383Y719682D01*
X215492Y716573D01*
X215492Y712177D01*
X212383Y709068D01*
X207987Y709068D01*
X205825Y711230D01*
X205751Y711283D01*
X205681Y711343D01*
X205651Y711355D01*
X205625Y711374D01*
X205538Y711401D01*
X205453Y711435D01*
X205412Y711439D01*
X205390Y711446D01*
X205358Y711445D01*
X205287Y711453D01*
X194056Y711453D01*
X194036Y711450D01*
X194017Y711452D01*
X193915Y711430D01*
X193813Y711414D01*
X193796Y711404D01*
X193776Y711400D01*
X193687Y711347D01*
X193596Y711298D01*
X193582Y711284D01*
X193565Y711274D01*
X193498Y711195D01*
X193426Y711120D01*
X193418Y711102D01*
X193405Y711087D01*
X193366Y710991D01*
X193323Y710897D01*
X193321Y710877D01*
X193313Y710859D01*
X193295Y710692D01*
X193295Y707393D01*
X192402Y706500D01*
X180978Y706500D01*
G37*
%LPD*%
%LPC*%
G36*
X283848Y829055D02*
X283848Y829055D01*
X282955Y829948D01*
X282955Y846452D01*
X283848Y847345D01*
X300352Y847345D01*
X301245Y846452D01*
X301245Y829948D01*
X300352Y829055D01*
X283848Y829055D01*
G37*
%LPD*%
%LPC*%
G36*
X409193Y325113D02*
X409193Y325113D01*
X409193Y337381D01*
X423904Y337381D01*
X424551Y337208D01*
X425130Y336873D01*
X425603Y336400D01*
X425938Y335821D01*
X426111Y335174D01*
X426111Y325113D01*
X409193Y325113D01*
G37*
%LPD*%
%LPC*%
G36*
X407923Y162553D02*
X407923Y162553D01*
X407923Y174821D01*
X422634Y174821D01*
X423281Y174648D01*
X423860Y174313D01*
X424333Y173840D01*
X424668Y173261D01*
X424841Y172614D01*
X424841Y162553D01*
X407923Y162553D01*
G37*
%LPD*%
%LPC*%
G36*
X407923Y638803D02*
X407923Y638803D01*
X407923Y651071D01*
X422634Y651071D01*
X423281Y650898D01*
X423860Y650563D01*
X424333Y650090D01*
X424668Y649511D01*
X424841Y648864D01*
X424841Y638803D01*
X407923Y638803D01*
G37*
%LPD*%
%LPC*%
G36*
X407923Y478783D02*
X407923Y478783D01*
X407923Y491051D01*
X422634Y491051D01*
X423281Y490878D01*
X423860Y490543D01*
X424333Y490070D01*
X424668Y489491D01*
X424841Y488844D01*
X424841Y478783D01*
X407923Y478783D01*
G37*
%LPD*%
%LPC*%
G36*
X389229Y325113D02*
X389229Y325113D01*
X389229Y335174D01*
X389402Y335821D01*
X389737Y336400D01*
X390210Y336873D01*
X390789Y337208D01*
X391436Y337381D01*
X406147Y337381D01*
X406147Y325113D01*
X389229Y325113D01*
G37*
%LPD*%
%LPC*%
G36*
X387959Y162553D02*
X387959Y162553D01*
X387959Y172614D01*
X388132Y173261D01*
X388467Y173840D01*
X388940Y174313D01*
X389519Y174648D01*
X390166Y174821D01*
X404877Y174821D01*
X404877Y162553D01*
X387959Y162553D01*
G37*
%LPD*%
%LPC*%
G36*
X387959Y478783D02*
X387959Y478783D01*
X387959Y488844D01*
X388132Y489491D01*
X388467Y490070D01*
X388940Y490543D01*
X389519Y490878D01*
X390166Y491051D01*
X404877Y491051D01*
X404877Y478783D01*
X387959Y478783D01*
G37*
%LPD*%
%LPC*%
G36*
X387959Y638803D02*
X387959Y638803D01*
X387959Y648864D01*
X388132Y649511D01*
X388467Y650090D01*
X388940Y650563D01*
X389519Y650898D01*
X390166Y651071D01*
X404877Y651071D01*
X404877Y638803D01*
X387959Y638803D01*
G37*
%LPD*%
%LPC*%
G36*
X407923Y147239D02*
X407923Y147239D01*
X407923Y159507D01*
X424841Y159507D01*
X424841Y149446D01*
X424668Y148799D01*
X424333Y148220D01*
X423860Y147747D01*
X423281Y147412D01*
X422634Y147239D01*
X407923Y147239D01*
G37*
%LPD*%
%LPC*%
G36*
X407923Y623489D02*
X407923Y623489D01*
X407923Y635757D01*
X424841Y635757D01*
X424841Y625696D01*
X424668Y625049D01*
X424333Y624470D01*
X423860Y623997D01*
X423281Y623662D01*
X422634Y623489D01*
X407923Y623489D01*
G37*
%LPD*%
%LPC*%
G36*
X409193Y309799D02*
X409193Y309799D01*
X409193Y322067D01*
X426111Y322067D01*
X426111Y312006D01*
X425938Y311359D01*
X425603Y310780D01*
X425130Y310307D01*
X424551Y309972D01*
X423904Y309799D01*
X409193Y309799D01*
G37*
%LPD*%
%LPC*%
G36*
X407923Y463469D02*
X407923Y463469D01*
X407923Y475737D01*
X424841Y475737D01*
X424841Y465676D01*
X424668Y465029D01*
X424333Y464450D01*
X423860Y463977D01*
X423281Y463642D01*
X422634Y463469D01*
X407923Y463469D01*
G37*
%LPD*%
%LPC*%
G36*
X390166Y623489D02*
X390166Y623489D01*
X389519Y623662D01*
X388940Y623997D01*
X388467Y624470D01*
X388132Y625049D01*
X387959Y625696D01*
X387959Y635757D01*
X404877Y635757D01*
X404877Y623489D01*
X390166Y623489D01*
G37*
%LPD*%
%LPC*%
G36*
X391436Y309799D02*
X391436Y309799D01*
X390789Y309972D01*
X390210Y310307D01*
X389737Y310780D01*
X389402Y311359D01*
X389229Y312006D01*
X389229Y322067D01*
X406147Y322067D01*
X406147Y309799D01*
X391436Y309799D01*
G37*
%LPD*%
%LPC*%
G36*
X390166Y463469D02*
X390166Y463469D01*
X389519Y463642D01*
X388940Y463977D01*
X388467Y464450D01*
X388132Y465029D01*
X387959Y465676D01*
X387959Y475737D01*
X404877Y475737D01*
X404877Y463469D01*
X390166Y463469D01*
G37*
%LPD*%
%LPC*%
G36*
X390166Y147239D02*
X390166Y147239D01*
X389519Y147412D01*
X388940Y147747D01*
X388467Y148220D01*
X388132Y148799D01*
X387959Y149446D01*
X387959Y159507D01*
X404877Y159507D01*
X404877Y147239D01*
X390166Y147239D01*
G37*
%LPD*%
%LPC*%
G36*
X296323Y89323D02*
X296323Y89323D01*
X296323Y113341D01*
X300134Y113341D01*
X300781Y113168D01*
X301360Y112833D01*
X301833Y112360D01*
X302168Y111781D01*
X302341Y111134D01*
X302341Y89323D01*
X296323Y89323D01*
G37*
%LPD*%
%LPC*%
G36*
X296323Y62259D02*
X296323Y62259D01*
X296323Y86277D01*
X302341Y86277D01*
X302341Y64466D01*
X302168Y63819D01*
X301833Y63240D01*
X301360Y62767D01*
X300781Y62432D01*
X300134Y62259D01*
X296323Y62259D01*
G37*
%LPD*%
%LPC*%
G36*
X287259Y89323D02*
X287259Y89323D01*
X287259Y111134D01*
X287432Y111781D01*
X287767Y112360D01*
X288240Y112833D01*
X288819Y113168D01*
X289466Y113341D01*
X293277Y113341D01*
X293277Y89323D01*
X287259Y89323D01*
G37*
%LPD*%
%LPC*%
G36*
X289466Y62259D02*
X289466Y62259D01*
X288819Y62432D01*
X288240Y62767D01*
X287767Y63240D01*
X287432Y63819D01*
X287259Y64466D01*
X287259Y86277D01*
X293277Y86277D01*
X293277Y62259D01*
X289466Y62259D01*
G37*
%LPD*%
%LPC*%
G36*
X166623Y839723D02*
X166623Y839723D01*
X166623Y850046D01*
X167896Y849845D01*
X169683Y849264D01*
X171357Y848411D01*
X172878Y847306D01*
X174206Y845978D01*
X175311Y844457D01*
X176164Y842783D01*
X176745Y840996D01*
X176946Y839723D01*
X166623Y839723D01*
G37*
%LPD*%
%LPC*%
G36*
X153254Y839723D02*
X153254Y839723D01*
X153455Y840996D01*
X154036Y842783D01*
X154889Y844457D01*
X155994Y845978D01*
X157322Y847306D01*
X158843Y848411D01*
X160517Y849264D01*
X162304Y849845D01*
X163577Y850046D01*
X163577Y839723D01*
X153254Y839723D01*
G37*
%LPD*%
%LPC*%
G36*
X166623Y836677D02*
X166623Y836677D01*
X176946Y836677D01*
X176745Y835404D01*
X176164Y833617D01*
X175311Y831943D01*
X174206Y830422D01*
X172878Y829094D01*
X171357Y827989D01*
X169683Y827136D01*
X167896Y826555D01*
X166623Y826354D01*
X166623Y836677D01*
G37*
%LPD*%
%LPC*%
G36*
X162304Y826555D02*
X162304Y826555D01*
X160517Y827136D01*
X158843Y827989D01*
X157322Y829094D01*
X155994Y830422D01*
X154889Y831943D01*
X154036Y833617D01*
X153455Y835404D01*
X153254Y836677D01*
X163577Y836677D01*
X163577Y826354D01*
X162304Y826555D01*
G37*
%LPD*%
%LPC*%
G36*
X522223Y669543D02*
X522223Y669543D01*
X522223Y678181D01*
X528654Y678181D01*
X529301Y678008D01*
X529880Y677673D01*
X530353Y677200D01*
X530688Y676621D01*
X530861Y675974D01*
X530861Y669543D01*
X522223Y669543D01*
G37*
%LPD*%
%LPC*%
G36*
X522223Y357123D02*
X522223Y357123D01*
X522223Y365761D01*
X528654Y365761D01*
X529301Y365588D01*
X529880Y365253D01*
X530353Y364780D01*
X530688Y364201D01*
X530861Y363554D01*
X530861Y357123D01*
X522223Y357123D01*
G37*
%LPD*%
%LPC*%
G36*
X522223Y509523D02*
X522223Y509523D01*
X522223Y518161D01*
X528654Y518161D01*
X529301Y517988D01*
X529880Y517653D01*
X530353Y517180D01*
X530688Y516601D01*
X530861Y515954D01*
X530861Y509523D01*
X522223Y509523D01*
G37*
%LPD*%
%LPC*%
G36*
X522223Y192023D02*
X522223Y192023D01*
X522223Y200661D01*
X528654Y200661D01*
X529301Y200488D01*
X529880Y200153D01*
X530353Y199680D01*
X530688Y199101D01*
X530861Y198454D01*
X530861Y192023D01*
X522223Y192023D01*
G37*
%LPD*%
%LPC*%
G36*
X319023Y839723D02*
X319023Y839723D01*
X319023Y848361D01*
X325454Y848361D01*
X326101Y848188D01*
X326680Y847853D01*
X327153Y847380D01*
X327488Y846801D01*
X327661Y846154D01*
X327661Y839723D01*
X319023Y839723D01*
G37*
%LPD*%
%LPC*%
G36*
X307339Y839723D02*
X307339Y839723D01*
X307339Y846154D01*
X307512Y846801D01*
X307847Y847380D01*
X308320Y847853D01*
X308899Y848188D01*
X309546Y848361D01*
X315977Y848361D01*
X315977Y839723D01*
X307339Y839723D01*
G37*
%LPD*%
%LPC*%
G36*
X510539Y357123D02*
X510539Y357123D01*
X510539Y363554D01*
X510712Y364201D01*
X511047Y364780D01*
X511520Y365253D01*
X512099Y365588D01*
X512746Y365761D01*
X519177Y365761D01*
X519177Y357123D01*
X510539Y357123D01*
G37*
%LPD*%
%LPC*%
G36*
X510539Y192023D02*
X510539Y192023D01*
X510539Y198454D01*
X510712Y199101D01*
X511047Y199680D01*
X511520Y200153D01*
X512099Y200488D01*
X512746Y200661D01*
X519177Y200661D01*
X519177Y192023D01*
X510539Y192023D01*
G37*
%LPD*%
%LPC*%
G36*
X510539Y509523D02*
X510539Y509523D01*
X510539Y515954D01*
X510712Y516601D01*
X511047Y517180D01*
X511520Y517653D01*
X512099Y517988D01*
X512746Y518161D01*
X519177Y518161D01*
X519177Y509523D01*
X510539Y509523D01*
G37*
%LPD*%
%LPC*%
G36*
X510539Y669543D02*
X510539Y669543D01*
X510539Y675974D01*
X510712Y676621D01*
X511047Y677200D01*
X511520Y677673D01*
X512099Y678008D01*
X512746Y678181D01*
X519177Y678181D01*
X519177Y669543D01*
X510539Y669543D01*
G37*
%LPD*%
%LPC*%
G36*
X319023Y828039D02*
X319023Y828039D01*
X319023Y836677D01*
X327661Y836677D01*
X327661Y830246D01*
X327488Y829599D01*
X327153Y829020D01*
X326680Y828547D01*
X326101Y828212D01*
X325454Y828039D01*
X319023Y828039D01*
G37*
%LPD*%
%LPC*%
G36*
X522223Y497839D02*
X522223Y497839D01*
X522223Y506477D01*
X530861Y506477D01*
X530861Y500046D01*
X530688Y499399D01*
X530353Y498820D01*
X529880Y498347D01*
X529301Y498012D01*
X528654Y497839D01*
X522223Y497839D01*
G37*
%LPD*%
%LPC*%
G36*
X522223Y345439D02*
X522223Y345439D01*
X522223Y354077D01*
X530861Y354077D01*
X530861Y347646D01*
X530688Y346999D01*
X530353Y346420D01*
X529880Y345947D01*
X529301Y345612D01*
X528654Y345439D01*
X522223Y345439D01*
G37*
%LPD*%
%LPC*%
G36*
X522223Y657859D02*
X522223Y657859D01*
X522223Y666497D01*
X530861Y666497D01*
X530861Y660066D01*
X530688Y659419D01*
X530353Y658840D01*
X529880Y658367D01*
X529301Y658032D01*
X528654Y657859D01*
X522223Y657859D01*
G37*
%LPD*%
%LPC*%
G36*
X522223Y180339D02*
X522223Y180339D01*
X522223Y188977D01*
X530861Y188977D01*
X530861Y182546D01*
X530688Y181899D01*
X530353Y181320D01*
X529880Y180847D01*
X529301Y180512D01*
X528654Y180339D01*
X522223Y180339D01*
G37*
%LPD*%
%LPC*%
G36*
X512746Y497839D02*
X512746Y497839D01*
X512099Y498012D01*
X511520Y498347D01*
X511047Y498820D01*
X510712Y499399D01*
X510539Y500046D01*
X510539Y506477D01*
X519177Y506477D01*
X519177Y497839D01*
X512746Y497839D01*
G37*
%LPD*%
%LPC*%
G36*
X512746Y345439D02*
X512746Y345439D01*
X512099Y345612D01*
X511520Y345947D01*
X511047Y346420D01*
X510712Y346999D01*
X510539Y347646D01*
X510539Y354077D01*
X519177Y354077D01*
X519177Y345439D01*
X512746Y345439D01*
G37*
%LPD*%
%LPC*%
G36*
X512746Y657859D02*
X512746Y657859D01*
X512099Y658032D01*
X511520Y658367D01*
X511047Y658840D01*
X510712Y659419D01*
X510539Y660066D01*
X510539Y666497D01*
X519177Y666497D01*
X519177Y657859D01*
X512746Y657859D01*
G37*
%LPD*%
%LPC*%
G36*
X512746Y180339D02*
X512746Y180339D01*
X512099Y180512D01*
X511520Y180847D01*
X511047Y181320D01*
X510712Y181899D01*
X510539Y182546D01*
X510539Y188977D01*
X519177Y188977D01*
X519177Y180339D01*
X512746Y180339D01*
G37*
%LPD*%
%LPC*%
G36*
X309546Y828039D02*
X309546Y828039D01*
X308899Y828212D01*
X308320Y828547D01*
X307847Y829020D01*
X307512Y829599D01*
X307339Y830246D01*
X307339Y836677D01*
X315977Y836677D01*
X315977Y828039D01*
X309546Y828039D01*
G37*
%LPD*%
%LPC*%
G36*
X319023Y620809D02*
X319023Y620809D01*
X319023Y626427D01*
X324691Y626427D01*
X324691Y625013D01*
X324361Y623781D01*
X323724Y622678D01*
X322822Y621776D01*
X321719Y621139D01*
X320487Y620809D01*
X319023Y620809D01*
G37*
%LPD*%
%LPC*%
G36*
X319023Y531909D02*
X319023Y531909D01*
X319023Y537527D01*
X324691Y537527D01*
X324691Y536113D01*
X324361Y534881D01*
X323724Y533778D01*
X322822Y532876D01*
X321719Y532239D01*
X320487Y531909D01*
X319023Y531909D01*
G37*
%LPD*%
%LPC*%
G36*
X320293Y308389D02*
X320293Y308389D01*
X320293Y314007D01*
X325961Y314007D01*
X325961Y312593D01*
X325631Y311361D01*
X324994Y310258D01*
X324092Y309356D01*
X322989Y308719D01*
X321757Y308389D01*
X320293Y308389D01*
G37*
%LPD*%
%LPC*%
G36*
X319023Y379509D02*
X319023Y379509D01*
X319023Y385127D01*
X324691Y385127D01*
X324691Y383713D01*
X324361Y382481D01*
X323724Y381378D01*
X322822Y380476D01*
X321719Y379839D01*
X320487Y379509D01*
X319023Y379509D01*
G37*
%LPD*%
%LPC*%
G36*
X319023Y697009D02*
X319023Y697009D01*
X319023Y702627D01*
X324691Y702627D01*
X324691Y701213D01*
X324361Y699981D01*
X323724Y698878D01*
X322822Y697976D01*
X321719Y697339D01*
X320487Y697009D01*
X319023Y697009D01*
G37*
%LPD*%
%LPC*%
G36*
X331723Y214409D02*
X331723Y214409D01*
X331723Y220027D01*
X337391Y220027D01*
X337391Y218613D01*
X337061Y217381D01*
X336424Y216278D01*
X335522Y215376D01*
X334419Y214739D01*
X333187Y214409D01*
X331723Y214409D01*
G37*
%LPD*%
%LPC*%
G36*
X319023Y460789D02*
X319023Y460789D01*
X319023Y466407D01*
X324691Y466407D01*
X324691Y464993D01*
X324361Y463761D01*
X323724Y462658D01*
X322822Y461756D01*
X321719Y461119D01*
X320487Y460789D01*
X319023Y460789D01*
G37*
%LPD*%
%LPC*%
G36*
X331723Y138209D02*
X331723Y138209D01*
X331723Y143827D01*
X337391Y143827D01*
X337391Y142413D01*
X337061Y141181D01*
X336424Y140078D01*
X335522Y139176D01*
X334419Y138539D01*
X333187Y138209D01*
X331723Y138209D01*
G37*
%LPD*%
%LPC*%
G36*
X315783Y308389D02*
X315783Y308389D01*
X314551Y308719D01*
X313448Y309356D01*
X312546Y310258D01*
X311909Y311361D01*
X311579Y312593D01*
X311579Y314007D01*
X317247Y314007D01*
X317247Y308389D01*
X315783Y308389D01*
G37*
%LPD*%
%LPC*%
G36*
X314513Y531909D02*
X314513Y531909D01*
X313281Y532239D01*
X312178Y532876D01*
X311276Y533778D01*
X310639Y534881D01*
X310309Y536113D01*
X310309Y537527D01*
X315977Y537527D01*
X315977Y531909D01*
X314513Y531909D01*
G37*
%LPD*%
%LPC*%
G36*
X327213Y214409D02*
X327213Y214409D01*
X325981Y214739D01*
X324878Y215376D01*
X323976Y216278D01*
X323339Y217381D01*
X323009Y218613D01*
X323009Y220027D01*
X328677Y220027D01*
X328677Y214409D01*
X327213Y214409D01*
G37*
%LPD*%
%LPC*%
G36*
X314513Y697009D02*
X314513Y697009D01*
X313281Y697339D01*
X312178Y697976D01*
X311276Y698878D01*
X310639Y699981D01*
X310309Y701213D01*
X310309Y702627D01*
X315977Y702627D01*
X315977Y697009D01*
X314513Y697009D01*
G37*
%LPD*%
%LPC*%
G36*
X327213Y138209D02*
X327213Y138209D01*
X325981Y138539D01*
X324878Y139176D01*
X323976Y140078D01*
X323339Y141181D01*
X323009Y142413D01*
X323009Y143827D01*
X328677Y143827D01*
X328677Y138209D01*
X327213Y138209D01*
G37*
%LPD*%
%LPC*%
G36*
X314513Y620809D02*
X314513Y620809D01*
X313281Y621139D01*
X312178Y621776D01*
X311276Y622678D01*
X310639Y623781D01*
X310309Y625013D01*
X310309Y626427D01*
X315977Y626427D01*
X315977Y620809D01*
X314513Y620809D01*
G37*
%LPD*%
%LPC*%
G36*
X314513Y379509D02*
X314513Y379509D01*
X313281Y379839D01*
X312178Y380476D01*
X311276Y381378D01*
X310639Y382481D01*
X310309Y383713D01*
X310309Y385127D01*
X315977Y385127D01*
X315977Y379509D01*
X314513Y379509D01*
G37*
%LPD*%
%LPC*%
G36*
X314513Y460789D02*
X314513Y460789D01*
X313281Y461119D01*
X312178Y461756D01*
X311276Y462658D01*
X310639Y463761D01*
X310309Y464993D01*
X310309Y466407D01*
X315977Y466407D01*
X315977Y460789D01*
X314513Y460789D01*
G37*
%LPD*%
%LPC*%
G36*
X520699Y190499D02*
X520699Y190499D01*
X520699Y190501D01*
X520701Y190501D01*
X520701Y190499D01*
X520699Y190499D01*
G37*
%LPD*%
%LPC*%
G36*
X520699Y668019D02*
X520699Y668019D01*
X520699Y668021D01*
X520701Y668021D01*
X520701Y668019D01*
X520699Y668019D01*
G37*
%LPD*%
%LPC*%
G36*
X317499Y838199D02*
X317499Y838199D01*
X317499Y838201D01*
X317501Y838201D01*
X317501Y838199D01*
X317499Y838199D01*
G37*
%LPD*%
%LPC*%
G36*
X520699Y355599D02*
X520699Y355599D01*
X520699Y355601D01*
X520701Y355601D01*
X520701Y355599D01*
X520699Y355599D01*
G37*
%LPD*%
%LPC*%
G36*
X520699Y507999D02*
X520699Y507999D01*
X520699Y508001D01*
X520701Y508001D01*
X520701Y507999D01*
X520699Y507999D01*
G37*
%LPD*%
%LPC*%
G36*
X165099Y838199D02*
X165099Y838199D01*
X165099Y838201D01*
X165101Y838201D01*
X165101Y838199D01*
X165099Y838199D01*
G37*
%LPD*%
%LPC*%
G36*
X406399Y637279D02*
X406399Y637279D01*
X406399Y637281D01*
X406401Y637281D01*
X406401Y637279D01*
X406399Y637279D01*
G37*
%LPD*%
%LPC*%
G36*
X406399Y161029D02*
X406399Y161029D01*
X406399Y161031D01*
X406401Y161031D01*
X406401Y161029D01*
X406399Y161029D01*
G37*
%LPD*%
%LPC*%
G36*
X407669Y323589D02*
X407669Y323589D01*
X407669Y323591D01*
X407671Y323591D01*
X407671Y323589D01*
X407669Y323589D01*
G37*
%LPD*%
%LPC*%
G36*
X294799Y87799D02*
X294799Y87799D01*
X294799Y87801D01*
X294801Y87801D01*
X294801Y87799D01*
X294799Y87799D01*
G37*
%LPD*%
%LPC*%
G36*
X406399Y477259D02*
X406399Y477259D01*
X406399Y477261D01*
X406401Y477261D01*
X406401Y477259D01*
X406399Y477259D01*
G37*
%LPD*%
D10*
X315150Y701850D02*
X315150Y706450D01*
X319850Y706450D01*
X319850Y701850D01*
X315150Y701850D01*
X315150Y706220D02*
X319850Y706220D01*
X319850Y715950D02*
X319850Y720550D01*
X319850Y715950D02*
X315150Y715950D01*
X315150Y720550D01*
X319850Y720550D01*
X319850Y720320D02*
X315150Y720320D01*
X315150Y630250D02*
X315150Y625650D01*
X315150Y630250D02*
X319850Y630250D01*
X319850Y625650D01*
X315150Y625650D01*
X315150Y630020D02*
X319850Y630020D01*
X319850Y639750D02*
X319850Y644350D01*
X319850Y639750D02*
X315150Y639750D01*
X315150Y644350D01*
X319850Y644350D01*
X319850Y644120D02*
X315150Y644120D01*
X315150Y541350D02*
X315150Y536750D01*
X315150Y541350D02*
X319850Y541350D01*
X319850Y536750D01*
X315150Y536750D01*
X315150Y541120D02*
X319850Y541120D01*
X319850Y550850D02*
X319850Y555450D01*
X319850Y550850D02*
X315150Y550850D01*
X315150Y555450D01*
X319850Y555450D01*
X319850Y555220D02*
X315150Y555220D01*
X316420Y317830D02*
X316420Y313230D01*
X316420Y317830D02*
X321120Y317830D01*
X321120Y313230D01*
X316420Y313230D01*
X316420Y317600D02*
X321120Y317600D01*
X321120Y327330D02*
X321120Y331930D01*
X321120Y327330D02*
X316420Y327330D01*
X316420Y331930D01*
X321120Y331930D01*
X321120Y331700D02*
X316420Y331700D01*
X315150Y384350D02*
X315150Y388950D01*
X319850Y388950D01*
X319850Y384350D01*
X315150Y384350D01*
X315150Y388720D02*
X319850Y388720D01*
X319850Y398450D02*
X319850Y403050D01*
X319850Y398450D02*
X315150Y398450D01*
X315150Y403050D01*
X319850Y403050D01*
X319850Y402820D02*
X315150Y402820D01*
X315150Y465630D02*
X315150Y470230D01*
X319850Y470230D01*
X319850Y465630D01*
X315150Y465630D01*
X315150Y470000D02*
X319850Y470000D01*
X319850Y479730D02*
X319850Y484330D01*
X319850Y479730D02*
X315150Y479730D01*
X315150Y484330D01*
X319850Y484330D01*
X319850Y484100D02*
X315150Y484100D01*
X327850Y223850D02*
X327850Y219250D01*
X327850Y223850D02*
X332550Y223850D01*
X332550Y219250D01*
X327850Y219250D01*
X327850Y223620D02*
X332550Y223620D01*
X332550Y233350D02*
X332550Y237950D01*
X332550Y233350D02*
X327850Y233350D01*
X327850Y237950D01*
X332550Y237950D01*
X332550Y237720D02*
X327850Y237720D01*
X327850Y147650D02*
X327850Y143050D01*
X327850Y147650D02*
X332550Y147650D01*
X332550Y143050D01*
X327850Y143050D01*
X327850Y147420D02*
X332550Y147420D01*
X332550Y157150D02*
X332550Y161750D01*
X332550Y157150D02*
X327850Y157150D01*
X327850Y161750D01*
X332550Y161750D01*
X332550Y161520D02*
X327850Y161520D01*
D11*
X406400Y637280D03*
X406400Y706380D03*
X406400Y477260D03*
X406400Y546360D03*
X407670Y323590D03*
X407670Y392690D03*
X406400Y161030D03*
X406400Y230130D03*
D12*
X63500Y495300D03*
X63500Y469900D03*
X63500Y444500D03*
X63500Y419100D03*
X63500Y393700D03*
X114300Y444500D03*
X114300Y419100D03*
X114300Y393700D03*
X241300Y317500D03*
X241300Y190500D03*
D13*
X292100Y838200D03*
X317500Y838200D03*
D12*
X254000Y622300D03*
X254000Y736600D03*
D14*
X314800Y87800D03*
X294800Y87800D03*
D15*
X338800Y35800D03*
X270800Y35800D03*
D13*
X520700Y693420D03*
X520700Y668020D03*
X520700Y533400D03*
X520700Y508000D03*
X520700Y381000D03*
X520700Y355600D03*
X520700Y215900D03*
X520700Y190500D03*
D12*
X165100Y838200D03*
X114300Y469900D03*
D16*
X177800Y734060D03*
X186690Y713740D03*
X168910Y713740D03*
X177800Y619760D03*
X186690Y599440D03*
X168910Y599440D03*
X177800Y314960D03*
X186690Y294640D03*
X168910Y294640D03*
X177800Y187960D03*
X186690Y167640D03*
X168910Y167640D03*
D17*
X118500Y749300D03*
X135500Y749300D03*
X118500Y698500D03*
X135500Y698500D03*
X118500Y635000D03*
X135500Y635000D03*
X118500Y584200D03*
X135500Y584200D03*
X118500Y330200D03*
X135500Y330200D03*
X118500Y279400D03*
X135500Y279400D03*
X118500Y203200D03*
X135500Y203200D03*
X118500Y152400D03*
X135500Y152400D03*
D12*
X190500Y838200D03*
D18*
X114300Y469900D02*
X63500Y469900D01*
D19*
X38100Y749300D03*
D18*
X118500Y749300D01*
X135500Y749300D02*
X135500Y711200D01*
X135500Y698500D01*
X166370Y711200D02*
X168910Y713740D01*
X166370Y711200D02*
X135500Y711200D01*
X118500Y152400D02*
X88900Y152400D01*
D19*
X88900Y152400D03*
D18*
X186690Y167640D02*
X210820Y167640D01*
D19*
X210820Y167640D03*
D18*
X208280Y713740D02*
X186690Y713740D01*
X208280Y713740D02*
X209550Y715010D01*
X210185Y714375D01*
D19*
X210185Y714375D03*
D18*
X118500Y698500D02*
X88900Y698500D01*
D19*
X88900Y698500D03*
D18*
X88900Y584200D02*
X118500Y584200D01*
D19*
X88900Y584200D03*
D18*
X330200Y177800D02*
X330200Y159450D01*
D19*
X330200Y177800D03*
D18*
X189230Y292100D02*
X186690Y294640D01*
X189230Y292100D02*
X215900Y292100D01*
D19*
X215900Y292100D03*
D18*
X118500Y279400D02*
X88900Y279400D01*
D19*
X88900Y279400D03*
D18*
X317500Y642050D02*
X317500Y660400D01*
D19*
X317500Y660400D03*
D18*
X317500Y90500D02*
X314800Y87800D01*
D19*
X215900Y599440D03*
D18*
X186690Y599440D01*
X317500Y90500D02*
X379400Y90500D01*
X381000Y88900D01*
D19*
X381000Y88900D03*
D18*
X318770Y329630D02*
X317500Y330900D01*
X317500Y355600D01*
D19*
X317500Y355600D03*
D18*
X317500Y482030D02*
X317500Y508000D01*
D19*
X317500Y508000D03*
D18*
X251460Y734060D02*
X177800Y734060D01*
X251460Y734060D02*
X254000Y736600D01*
X520440Y693680D02*
X520700Y693420D01*
X408810Y708790D02*
X406400Y706380D01*
X408810Y708790D02*
X411220Y711200D01*
X520700Y711200D01*
X520700Y693940D01*
X520440Y693680D01*
X399350Y718250D02*
X317500Y718250D01*
X399350Y718250D02*
X408810Y708790D01*
X299150Y736600D02*
X254000Y736600D01*
X299150Y736600D02*
X317500Y718250D01*
X135500Y635000D02*
X135500Y596900D01*
X135500Y584200D01*
X166370Y596900D02*
X168910Y599440D01*
X166370Y596900D02*
X135500Y596900D01*
X177800Y619760D02*
X180340Y622300D01*
X254000Y622300D01*
X406400Y546360D02*
X406660Y546100D01*
X406400Y546360D02*
X520440Y546360D01*
X520700Y546100D01*
X520700Y533400D01*
X399610Y553150D02*
X317500Y553150D01*
X399610Y553150D02*
X406400Y546360D01*
X254000Y571500D02*
X254000Y622300D01*
X272350Y553150D02*
X317500Y553150D01*
X272350Y553150D02*
X254000Y571500D01*
X135500Y330200D02*
X135500Y292100D01*
X135500Y279400D01*
X166370Y292100D02*
X168910Y294640D01*
X166370Y292100D02*
X135500Y292100D01*
X177800Y314960D02*
X180340Y317500D01*
X241300Y317500D01*
X519690Y379990D02*
X520700Y381000D01*
X407670Y392690D02*
X406660Y393700D01*
X407670Y392690D02*
X408680Y393700D01*
X520700Y393700D01*
X520700Y381000D01*
X401630Y400750D02*
X317500Y400750D01*
X401630Y400750D02*
X408680Y393700D01*
X241300Y381000D02*
X241300Y317500D01*
X261050Y400750D02*
X317500Y400750D01*
X261050Y400750D02*
X241300Y381000D01*
X135500Y203200D02*
X135500Y165100D01*
X135500Y152400D01*
X166370Y165100D02*
X168910Y167640D01*
X166370Y165100D02*
X135500Y165100D01*
X177800Y187960D02*
X238760Y187960D01*
X241300Y190500D01*
X330200Y235650D02*
X330770Y236220D01*
X406400Y230130D02*
X407930Y228600D01*
X520700Y228600D01*
X520700Y215900D01*
D19*
X355600Y228600D03*
D18*
X407930Y228600D01*
X348550Y235650D02*
X330200Y235650D01*
X348550Y235650D02*
X355600Y228600D01*
X114300Y444500D02*
X63500Y444500D01*
X114300Y444500D02*
X139700Y444500D01*
X139700Y500380D02*
X76200Y563880D01*
X76200Y635000D01*
X118500Y635000D01*
X139700Y500380D02*
X139700Y444500D01*
X114300Y419100D02*
X63500Y419100D01*
X118500Y347100D02*
X118500Y330200D01*
X118500Y347100D02*
X139700Y368300D01*
X139700Y419100D01*
X114300Y419100D01*
X114300Y393700D02*
X63500Y393700D01*
D19*
X25400Y203200D03*
D18*
X118500Y203200D01*
M02*
