%TF.GenerationSoftware,KiCad,Pcbnew,(5.1.9)-1*%
%TF.CreationDate,2021-03-06T18:52:22-05:00*%
%TF.ProjectId,final_design_v2,66696e61-6c5f-4646-9573-69676e5f7632,rev?*%
%TF.SameCoordinates,Original*%
%TF.FileFunction,Legend,Top*%
%TF.FilePolarity,Positive*%
%FSLAX46Y46*%
G04 Gerber Fmt 4.6, Leading zero omitted, Abs format (unit mm)*
G04 Created by KiCad (PCBNEW (5.1.9)-1) date 2021-03-06 18:52:22*
%MOMM*%
%LPD*%
G01*
G04 APERTURE LIST*
%ADD10C,0.400000*%
%ADD11C,0.100000*%
%ADD12C,0.450000*%
%ADD13C,0.120000*%
%ADD14C,0.127000*%
%ADD15C,0.200000*%
%ADD16C,0.150000*%
G04 APERTURE END LIST*
D10*
X154484605Y-108458000D02*
G75*
G03*
X154484605Y-108458000I-179605J0D01*
G01*
D11*
X150241047Y-119130000D02*
X150193428Y-119106190D01*
X150122000Y-119106190D01*
X150050571Y-119130000D01*
X150002952Y-119177619D01*
X149979142Y-119225238D01*
X149955333Y-119320476D01*
X149955333Y-119391904D01*
X149979142Y-119487142D01*
X150002952Y-119534761D01*
X150050571Y-119582380D01*
X150122000Y-119606190D01*
X150169619Y-119606190D01*
X150241047Y-119582380D01*
X150264857Y-119558571D01*
X150264857Y-119391904D01*
X150169619Y-119391904D01*
X150479142Y-119606190D02*
X150479142Y-119106190D01*
X150764857Y-119606190D01*
X150764857Y-119106190D01*
X151002952Y-119606190D02*
X151002952Y-119106190D01*
X151122000Y-119106190D01*
X151193428Y-119130000D01*
X151241047Y-119177619D01*
X151264857Y-119225238D01*
X151288666Y-119320476D01*
X151288666Y-119391904D01*
X151264857Y-119487142D01*
X151241047Y-119534761D01*
X151193428Y-119582380D01*
X151122000Y-119606190D01*
X151002952Y-119606190D01*
X147415333Y-119106190D02*
X147582000Y-119606190D01*
X147748666Y-119106190D01*
X148201047Y-119558571D02*
X148177238Y-119582380D01*
X148105809Y-119606190D01*
X148058190Y-119606190D01*
X147986761Y-119582380D01*
X147939142Y-119534761D01*
X147915333Y-119487142D01*
X147891523Y-119391904D01*
X147891523Y-119320476D01*
X147915333Y-119225238D01*
X147939142Y-119177619D01*
X147986761Y-119130000D01*
X148058190Y-119106190D01*
X148105809Y-119106190D01*
X148177238Y-119130000D01*
X148201047Y-119153809D01*
X148701047Y-119558571D02*
X148677238Y-119582380D01*
X148605809Y-119606190D01*
X148558190Y-119606190D01*
X148486761Y-119582380D01*
X148439142Y-119534761D01*
X148415333Y-119487142D01*
X148391523Y-119391904D01*
X148391523Y-119320476D01*
X148415333Y-119225238D01*
X148439142Y-119177619D01*
X148486761Y-119130000D01*
X148558190Y-119106190D01*
X148605809Y-119106190D01*
X148677238Y-119130000D01*
X148701047Y-119153809D01*
D12*
X154230605Y-95250000D02*
G75*
G03*
X154230605Y-95250000I-179605J0D01*
G01*
D11*
X148522666Y-87221190D02*
X148522666Y-86721190D01*
X148808380Y-87221190D01*
X148808380Y-86721190D01*
X149332190Y-87221190D02*
X149165523Y-86983095D01*
X149046476Y-87221190D02*
X149046476Y-86721190D01*
X149236952Y-86721190D01*
X149284571Y-86745000D01*
X149308380Y-86768809D01*
X149332190Y-86816428D01*
X149332190Y-86887857D01*
X149308380Y-86935476D01*
X149284571Y-86959285D01*
X149236952Y-86983095D01*
X149046476Y-86983095D01*
X149713142Y-86959285D02*
X149546476Y-86959285D01*
X149546476Y-87221190D02*
X149546476Y-86721190D01*
X149784571Y-86721190D01*
X149951238Y-86768809D02*
X149975047Y-86745000D01*
X150022666Y-86721190D01*
X150141714Y-86721190D01*
X150189333Y-86745000D01*
X150213142Y-86768809D01*
X150236952Y-86816428D01*
X150236952Y-86864047D01*
X150213142Y-86935476D01*
X149927428Y-87221190D01*
X150236952Y-87221190D01*
X150665523Y-86887857D02*
X150665523Y-87221190D01*
X150546476Y-86697380D02*
X150427428Y-87054523D01*
X150736952Y-87054523D01*
D13*
X143510000Y-81534000D02*
X155448000Y-81534000D01*
X143383000Y-74930000D02*
X143383000Y-92964000D01*
X155448000Y-74930000D02*
X143383000Y-74930000D01*
X155448000Y-92964000D02*
X155448000Y-74930000D01*
X143383000Y-92964000D02*
X155448000Y-92964000D01*
D11*
X136652047Y-90809000D02*
X136604428Y-90785190D01*
X136533000Y-90785190D01*
X136461571Y-90809000D01*
X136413952Y-90856619D01*
X136390142Y-90904238D01*
X136366333Y-90999476D01*
X136366333Y-91070904D01*
X136390142Y-91166142D01*
X136413952Y-91213761D01*
X136461571Y-91261380D01*
X136533000Y-91285190D01*
X136580619Y-91285190D01*
X136652047Y-91261380D01*
X136675857Y-91237571D01*
X136675857Y-91070904D01*
X136580619Y-91070904D01*
X136890142Y-91285190D02*
X136890142Y-90785190D01*
X137175857Y-91285190D01*
X137175857Y-90785190D01*
X137413952Y-91285190D02*
X137413952Y-90785190D01*
X137533000Y-90785190D01*
X137604428Y-90809000D01*
X137652047Y-90856619D01*
X137675857Y-90904238D01*
X137699666Y-90999476D01*
X137699666Y-91070904D01*
X137675857Y-91166142D01*
X137652047Y-91213761D01*
X137604428Y-91261380D01*
X137533000Y-91285190D01*
X137413952Y-91285190D01*
X135786904Y-98659190D02*
X136096428Y-98659190D01*
X135929761Y-98849666D01*
X136001190Y-98849666D01*
X136048809Y-98873476D01*
X136072619Y-98897285D01*
X136096428Y-98944904D01*
X136096428Y-99063952D01*
X136072619Y-99111571D01*
X136048809Y-99135380D01*
X136001190Y-99159190D01*
X135858333Y-99159190D01*
X135810714Y-99135380D01*
X135786904Y-99111571D01*
X136310714Y-99111571D02*
X136334523Y-99135380D01*
X136310714Y-99159190D01*
X136286904Y-99135380D01*
X136310714Y-99111571D01*
X136310714Y-99159190D01*
X136501190Y-98659190D02*
X136810714Y-98659190D01*
X136644047Y-98849666D01*
X136715476Y-98849666D01*
X136763095Y-98873476D01*
X136786904Y-98897285D01*
X136810714Y-98944904D01*
X136810714Y-99063952D01*
X136786904Y-99111571D01*
X136763095Y-99135380D01*
X136715476Y-99159190D01*
X136572619Y-99159190D01*
X136525000Y-99135380D01*
X136501190Y-99111571D01*
X136953571Y-98659190D02*
X137120238Y-99159190D01*
X137286904Y-98659190D01*
X135913904Y-102723190D02*
X136223428Y-102723190D01*
X136056761Y-102913666D01*
X136128190Y-102913666D01*
X136175809Y-102937476D01*
X136199619Y-102961285D01*
X136223428Y-103008904D01*
X136223428Y-103127952D01*
X136199619Y-103175571D01*
X136175809Y-103199380D01*
X136128190Y-103223190D01*
X135985333Y-103223190D01*
X135937714Y-103199380D01*
X135913904Y-103175571D01*
X136437714Y-103175571D02*
X136461523Y-103199380D01*
X136437714Y-103223190D01*
X136413904Y-103199380D01*
X136437714Y-103175571D01*
X136437714Y-103223190D01*
X136628190Y-102723190D02*
X136937714Y-102723190D01*
X136771047Y-102913666D01*
X136842476Y-102913666D01*
X136890095Y-102937476D01*
X136913904Y-102961285D01*
X136937714Y-103008904D01*
X136937714Y-103127952D01*
X136913904Y-103175571D01*
X136890095Y-103199380D01*
X136842476Y-103223190D01*
X136699619Y-103223190D01*
X136652000Y-103199380D01*
X136628190Y-103175571D01*
X137080571Y-102723190D02*
X137247238Y-103223190D01*
X137413904Y-102723190D01*
X136525047Y-110367000D02*
X136477428Y-110343190D01*
X136406000Y-110343190D01*
X136334571Y-110367000D01*
X136286952Y-110414619D01*
X136263142Y-110462238D01*
X136239333Y-110557476D01*
X136239333Y-110628904D01*
X136263142Y-110724142D01*
X136286952Y-110771761D01*
X136334571Y-110819380D01*
X136406000Y-110843190D01*
X136453619Y-110843190D01*
X136525047Y-110819380D01*
X136548857Y-110795571D01*
X136548857Y-110628904D01*
X136453619Y-110628904D01*
X136763142Y-110843190D02*
X136763142Y-110343190D01*
X137048857Y-110843190D01*
X137048857Y-110343190D01*
X137286952Y-110843190D02*
X137286952Y-110343190D01*
X137406000Y-110343190D01*
X137477428Y-110367000D01*
X137525047Y-110414619D01*
X137548857Y-110462238D01*
X137572666Y-110557476D01*
X137572666Y-110628904D01*
X137548857Y-110724142D01*
X137525047Y-110771761D01*
X137477428Y-110819380D01*
X137406000Y-110843190D01*
X137286952Y-110843190D01*
X136949666Y-108176190D02*
X136783000Y-107938095D01*
X136663952Y-108176190D02*
X136663952Y-107676190D01*
X136854428Y-107676190D01*
X136902047Y-107700000D01*
X136925857Y-107723809D01*
X136949666Y-107771428D01*
X136949666Y-107842857D01*
X136925857Y-107890476D01*
X136902047Y-107914285D01*
X136854428Y-107938095D01*
X136663952Y-107938095D01*
X137116333Y-107676190D02*
X137449666Y-108176190D01*
X137449666Y-107676190D02*
X137116333Y-108176190D01*
X136779047Y-105263190D02*
X137064761Y-105263190D01*
X136921904Y-105763190D02*
X136921904Y-105263190D01*
X137183809Y-105263190D02*
X137517142Y-105763190D01*
X137517142Y-105263190D02*
X137183809Y-105763190D01*
X135592476Y-96341380D02*
X135663904Y-96365190D01*
X135782952Y-96365190D01*
X135830571Y-96341380D01*
X135854380Y-96317571D01*
X135878190Y-96269952D01*
X135878190Y-96222333D01*
X135854380Y-96174714D01*
X135830571Y-96150904D01*
X135782952Y-96127095D01*
X135687714Y-96103285D01*
X135640095Y-96079476D01*
X135616285Y-96055666D01*
X135592476Y-96008047D01*
X135592476Y-95960428D01*
X135616285Y-95912809D01*
X135640095Y-95889000D01*
X135687714Y-95865190D01*
X135806761Y-95865190D01*
X135878190Y-95889000D01*
X136044857Y-95865190D02*
X136163904Y-96365190D01*
X136259142Y-96008047D01*
X136354380Y-96365190D01*
X136473428Y-95865190D01*
X136663904Y-96365190D02*
X136663904Y-95865190D01*
X136782952Y-95865190D01*
X136854380Y-95889000D01*
X136902000Y-95936619D01*
X136925809Y-95984238D01*
X136949619Y-96079476D01*
X136949619Y-96150904D01*
X136925809Y-96246142D01*
X136902000Y-96293761D01*
X136854380Y-96341380D01*
X136782952Y-96365190D01*
X136663904Y-96365190D01*
X137163904Y-96365190D02*
X137163904Y-95865190D01*
X137497238Y-95865190D02*
X137592476Y-95865190D01*
X137640095Y-95889000D01*
X137687714Y-95936619D01*
X137711523Y-96031857D01*
X137711523Y-96198523D01*
X137687714Y-96293761D01*
X137640095Y-96341380D01*
X137592476Y-96365190D01*
X137497238Y-96365190D01*
X137449619Y-96341380D01*
X137402000Y-96293761D01*
X137378190Y-96198523D01*
X137378190Y-96031857D01*
X137402000Y-95936619D01*
X137449619Y-95889000D01*
X137497238Y-95865190D01*
X135394047Y-93801380D02*
X135465476Y-93825190D01*
X135584523Y-93825190D01*
X135632142Y-93801380D01*
X135655952Y-93777571D01*
X135679761Y-93729952D01*
X135679761Y-93682333D01*
X135655952Y-93634714D01*
X135632142Y-93610904D01*
X135584523Y-93587095D01*
X135489285Y-93563285D01*
X135441666Y-93539476D01*
X135417857Y-93515666D01*
X135394047Y-93468047D01*
X135394047Y-93420428D01*
X135417857Y-93372809D01*
X135441666Y-93349000D01*
X135489285Y-93325190D01*
X135608333Y-93325190D01*
X135679761Y-93349000D01*
X135846428Y-93325190D02*
X135965476Y-93825190D01*
X136060714Y-93468047D01*
X136155952Y-93825190D01*
X136275000Y-93325190D01*
X136751190Y-93777571D02*
X136727380Y-93801380D01*
X136655952Y-93825190D01*
X136608333Y-93825190D01*
X136536904Y-93801380D01*
X136489285Y-93753761D01*
X136465476Y-93706142D01*
X136441666Y-93610904D01*
X136441666Y-93539476D01*
X136465476Y-93444238D01*
X136489285Y-93396619D01*
X136536904Y-93349000D01*
X136608333Y-93325190D01*
X136655952Y-93325190D01*
X136727380Y-93349000D01*
X136751190Y-93372809D01*
X137203571Y-93825190D02*
X136965476Y-93825190D01*
X136965476Y-93325190D01*
X137370238Y-93825190D02*
X137370238Y-93325190D01*
X137655952Y-93825190D02*
X137441666Y-93539476D01*
X137655952Y-93325190D02*
X137370238Y-93610904D01*
D13*
%TO.C,C19*%
X136785567Y-83898200D02*
X136493033Y-83898200D01*
X136785567Y-82878200D02*
X136493033Y-82878200D01*
%TO.C,C20*%
X161943833Y-82903600D02*
X162236367Y-82903600D01*
X161943833Y-83923600D02*
X162236367Y-83923600D01*
%TO.C,C22*%
X147914900Y-115068133D02*
X147914900Y-115360667D01*
X148934900Y-115068133D02*
X148934900Y-115360667D01*
%TO.C,C23*%
X149997700Y-115068133D02*
X149997700Y-115360667D01*
X151017700Y-115068133D02*
X151017700Y-115360667D01*
%TO.C,C25*%
X147309300Y-115068133D02*
X147309300Y-115360667D01*
X146289300Y-115068133D02*
X146289300Y-115360667D01*
%TO.C,C26*%
X152617900Y-115068133D02*
X152617900Y-115360667D01*
X151597900Y-115068133D02*
X151597900Y-115360667D01*
%TO.C,PWR*%
X141478100Y-121283400D02*
X143938100Y-121283400D01*
X143938100Y-121283400D02*
X143938100Y-119813400D01*
X143938100Y-119813400D02*
X141478100Y-119813400D01*
%TO.C,HEARTBEAT*%
X156003100Y-109374000D02*
X153543100Y-109374000D01*
X156003100Y-110844000D02*
X156003100Y-109374000D01*
X153543100Y-110844000D02*
X156003100Y-110844000D01*
%TO.C,COMMS*%
X144246500Y-97944000D02*
X141786500Y-97944000D01*
X141786500Y-97944000D02*
X141786500Y-99414000D01*
X141786500Y-99414000D02*
X144246500Y-99414000D01*
%TO.C,SWD*%
X138408100Y-99958200D02*
X141068100Y-99958200D01*
X138408100Y-92278200D02*
X138408100Y-99958200D01*
X141068100Y-92278200D02*
X141068100Y-99958200D01*
X138408100Y-92278200D02*
X141068100Y-92278200D01*
X138408100Y-91008200D02*
X138408100Y-89678200D01*
X138408100Y-89678200D02*
X139738100Y-89678200D01*
%TO.C,UART*%
X141068100Y-111947000D02*
X139738100Y-111947000D01*
X141068100Y-110617000D02*
X141068100Y-111947000D01*
X141068100Y-109347000D02*
X138408100Y-109347000D01*
X138408100Y-109347000D02*
X138408100Y-101667000D01*
X141068100Y-109347000D02*
X141068100Y-101667000D01*
X141068100Y-101667000D02*
X138408100Y-101667000D01*
%TO.C,J3*%
X151990100Y-122894400D02*
X151990100Y-120234400D01*
X149390100Y-122894400D02*
X151990100Y-122894400D01*
X149390100Y-120234400D02*
X151990100Y-120234400D01*
X149390100Y-122894400D02*
X149390100Y-120234400D01*
X148120100Y-122894400D02*
X146790100Y-122894400D01*
X146790100Y-122894400D02*
X146790100Y-121564400D01*
%TO.C,M1+*%
X135240100Y-87454400D02*
X135240100Y-84554400D01*
X138140100Y-87454400D02*
X135240100Y-87454400D01*
X138140100Y-84554400D02*
X138140100Y-87454400D01*
X135240100Y-84554400D02*
X138140100Y-84554400D01*
%TO.C,M1-*%
X139050100Y-87454400D02*
X139050100Y-84554400D01*
X141950100Y-87454400D02*
X139050100Y-87454400D01*
X141950100Y-84554400D02*
X141950100Y-87454400D01*
X139050100Y-84554400D02*
X141950100Y-84554400D01*
%TO.C,M3+*%
X163540100Y-87454400D02*
X160640100Y-87454400D01*
X160640100Y-87454400D02*
X160640100Y-84554400D01*
X160640100Y-84554400D02*
X163540100Y-84554400D01*
X163540100Y-84554400D02*
X163540100Y-87454400D01*
%TO.C,M3-*%
X159730100Y-84554400D02*
X159730100Y-87454400D01*
X156830100Y-84554400D02*
X159730100Y-84554400D01*
X156830100Y-87454400D02*
X156830100Y-84554400D01*
X159730100Y-87454400D02*
X156830100Y-87454400D01*
%TO.C,M2+*%
X135240100Y-113764400D02*
X138140100Y-113764400D01*
X138140100Y-113764400D02*
X138140100Y-116664400D01*
X138140100Y-116664400D02*
X135240100Y-116664400D01*
X135240100Y-116664400D02*
X135240100Y-113764400D01*
%TO.C,M2-*%
X139050100Y-116664400D02*
X139050100Y-113764400D01*
X141950100Y-116664400D02*
X139050100Y-116664400D01*
X141950100Y-113764400D02*
X141950100Y-116664400D01*
X139050100Y-113764400D02*
X141950100Y-113764400D01*
%TO.C,M4+*%
X163540100Y-116664400D02*
X160640100Y-116664400D01*
X160640100Y-116664400D02*
X160640100Y-113764400D01*
X160640100Y-113764400D02*
X163540100Y-113764400D01*
X163540100Y-113764400D02*
X163540100Y-116664400D01*
%TO.C,M4-*%
X159730100Y-113764400D02*
X159730100Y-116664400D01*
X156830100Y-113764400D02*
X159730100Y-113764400D01*
X156830100Y-116664400D02*
X156830100Y-113764400D01*
X159730100Y-116664400D02*
X156830100Y-116664400D01*
%TO.C,Q1*%
X142080100Y-81663000D02*
X142080100Y-83123000D01*
X138920100Y-81663000D02*
X138920100Y-83823000D01*
X138920100Y-81663000D02*
X139850100Y-81663000D01*
X142080100Y-81663000D02*
X141150100Y-81663000D01*
%TO.C,Q2*%
X159860100Y-81663000D02*
X159860100Y-83123000D01*
X156700100Y-81663000D02*
X156700100Y-83823000D01*
X156700100Y-81663000D02*
X157630100Y-81663000D01*
X159860100Y-81663000D02*
X158930100Y-81663000D01*
%TO.C,Q3*%
X144917700Y-116794400D02*
X144917700Y-115864400D01*
X144917700Y-113634400D02*
X144917700Y-114564400D01*
X144917700Y-113634400D02*
X142757700Y-113634400D01*
X144917700Y-116794400D02*
X143457700Y-116794400D01*
%TO.C,Q4*%
X153938700Y-113634400D02*
X153938700Y-114564400D01*
X153938700Y-116794400D02*
X153938700Y-115864400D01*
X153938700Y-116794400D02*
X156098700Y-116794400D01*
X153938700Y-113634400D02*
X155398700Y-113634400D01*
%TO.C,R1*%
X142023376Y-122975900D02*
X142532824Y-122975900D01*
X142023376Y-121930900D02*
X142532824Y-121930900D01*
%TO.C,R4*%
X144182376Y-110225100D02*
X144691824Y-110225100D01*
X144182376Y-109180100D02*
X144691824Y-109180100D01*
%TO.C,R5*%
X144182376Y-111799900D02*
X144691824Y-111799900D01*
X144182376Y-110754900D02*
X144691824Y-110754900D01*
%TO.C,R11*%
X140194576Y-78754500D02*
X140704024Y-78754500D01*
X140194576Y-77709500D02*
X140704024Y-77709500D01*
%TO.C,R12*%
X158534824Y-77811100D02*
X158025376Y-77811100D01*
X158534824Y-78856100D02*
X158025376Y-78856100D01*
%TO.C,R13*%
X140194576Y-79309700D02*
X140704024Y-79309700D01*
X140194576Y-80354700D02*
X140704024Y-80354700D01*
%TO.C,R14*%
X158025376Y-79385900D02*
X158534824Y-79385900D01*
X158025376Y-80430900D02*
X158534824Y-80430900D01*
%TO.C,U1*%
X146230100Y-100174400D02*
X145780100Y-100174400D01*
X145780100Y-100174400D02*
X145780100Y-100624400D01*
X152550100Y-100174400D02*
X153000100Y-100174400D01*
X153000100Y-100174400D02*
X153000100Y-100624400D01*
X146230100Y-107394400D02*
X145780100Y-107394400D01*
X145780100Y-107394400D02*
X145780100Y-106944400D01*
X152550100Y-107394400D02*
X153000100Y-107394400D01*
X153000100Y-107394400D02*
X153000100Y-106944400D01*
X153000100Y-106944400D02*
X154290100Y-106944400D01*
D14*
%TO.C,U2*%
X150240100Y-110425200D02*
X150420100Y-110425200D01*
X150420100Y-110425200D02*
X150420100Y-110825200D01*
X150420100Y-112085200D02*
X150420100Y-112485200D01*
X150420100Y-112485200D02*
X150240100Y-112485200D01*
X148540100Y-112485200D02*
X148360100Y-112485200D01*
X148360100Y-112485200D02*
X148360100Y-112085200D01*
X148540100Y-110425200D02*
X148360100Y-110425200D01*
X148360100Y-110425200D02*
X148360100Y-110825200D01*
D15*
X150990100Y-111755200D02*
G75*
G03*
X150990100Y-111755200I-100000J0D01*
G01*
D13*
%TO.C,U3*%
X157298100Y-119142400D02*
X158608100Y-119142400D01*
X158608100Y-119142400D02*
X158608100Y-121862400D01*
X154118100Y-123002400D02*
X154118100Y-121862400D01*
X153888100Y-119142400D02*
X155198100Y-119142400D01*
X153888100Y-121862400D02*
X153888100Y-119142400D01*
X153888100Y-121862400D02*
X154118100Y-121862400D01*
X158608100Y-121862400D02*
X158378100Y-121862400D01*
D16*
%TO.C,U5*%
X160164100Y-94338800D02*
X160164100Y-94863800D01*
X155864100Y-98638800D02*
X155864100Y-98113800D01*
X160164100Y-98638800D02*
X160164100Y-98113800D01*
X155864100Y-94338800D02*
X156389100Y-94338800D01*
X155864100Y-98638800D02*
X156389100Y-98638800D01*
X160164100Y-98638800D02*
X159639100Y-98638800D01*
X160164100Y-94338800D02*
X159639100Y-94338800D01*
D13*
%TO.C,Y1*%
X158802166Y-108145842D02*
X158802166Y-109495842D01*
X160552166Y-108145842D02*
X160552166Y-109495842D01*
%TO.C,Y2*%
X155376100Y-102188400D02*
X155376100Y-105888400D01*
X155376100Y-105888400D02*
X160676100Y-105888400D01*
%TO.C,C19*%
D11*
X136305171Y-82449171D02*
X136281361Y-82472980D01*
X136209933Y-82496790D01*
X136162314Y-82496790D01*
X136090885Y-82472980D01*
X136043266Y-82425361D01*
X136019457Y-82377742D01*
X135995647Y-82282504D01*
X135995647Y-82211076D01*
X136019457Y-82115838D01*
X136043266Y-82068219D01*
X136090885Y-82020600D01*
X136162314Y-81996790D01*
X136209933Y-81996790D01*
X136281361Y-82020600D01*
X136305171Y-82044409D01*
X136781361Y-82496790D02*
X136495647Y-82496790D01*
X136638504Y-82496790D02*
X136638504Y-81996790D01*
X136590885Y-82068219D01*
X136543266Y-82115838D01*
X136495647Y-82139647D01*
X137019457Y-82496790D02*
X137114695Y-82496790D01*
X137162314Y-82472980D01*
X137186123Y-82449171D01*
X137233742Y-82377742D01*
X137257552Y-82282504D01*
X137257552Y-82092028D01*
X137233742Y-82044409D01*
X137209933Y-82020600D01*
X137162314Y-81996790D01*
X137067076Y-81996790D01*
X137019457Y-82020600D01*
X136995647Y-82044409D01*
X136971838Y-82092028D01*
X136971838Y-82211076D01*
X136995647Y-82258695D01*
X137019457Y-82282504D01*
X137067076Y-82306314D01*
X137162314Y-82306314D01*
X137209933Y-82282504D01*
X137233742Y-82258695D01*
X137257552Y-82211076D01*
%TO.C,C20*%
X161730571Y-82474571D02*
X161706761Y-82498380D01*
X161635333Y-82522190D01*
X161587714Y-82522190D01*
X161516285Y-82498380D01*
X161468666Y-82450761D01*
X161444857Y-82403142D01*
X161421047Y-82307904D01*
X161421047Y-82236476D01*
X161444857Y-82141238D01*
X161468666Y-82093619D01*
X161516285Y-82046000D01*
X161587714Y-82022190D01*
X161635333Y-82022190D01*
X161706761Y-82046000D01*
X161730571Y-82069809D01*
X161921047Y-82069809D02*
X161944857Y-82046000D01*
X161992476Y-82022190D01*
X162111523Y-82022190D01*
X162159142Y-82046000D01*
X162182952Y-82069809D01*
X162206761Y-82117428D01*
X162206761Y-82165047D01*
X162182952Y-82236476D01*
X161897238Y-82522190D01*
X162206761Y-82522190D01*
X162516285Y-82022190D02*
X162563904Y-82022190D01*
X162611523Y-82046000D01*
X162635333Y-82069809D01*
X162659142Y-82117428D01*
X162682952Y-82212666D01*
X162682952Y-82331714D01*
X162659142Y-82426952D01*
X162635333Y-82474571D01*
X162611523Y-82498380D01*
X162563904Y-82522190D01*
X162516285Y-82522190D01*
X162468666Y-82498380D01*
X162444857Y-82474571D01*
X162421047Y-82426952D01*
X162397238Y-82331714D01*
X162397238Y-82212666D01*
X162421047Y-82117428D01*
X162444857Y-82069809D01*
X162468666Y-82046000D01*
X162516285Y-82022190D01*
%TO.C,C22*%
X148014571Y-117526571D02*
X147990761Y-117550380D01*
X147919333Y-117574190D01*
X147871714Y-117574190D01*
X147800285Y-117550380D01*
X147752666Y-117502761D01*
X147728857Y-117455142D01*
X147705047Y-117359904D01*
X147705047Y-117288476D01*
X147728857Y-117193238D01*
X147752666Y-117145619D01*
X147800285Y-117098000D01*
X147871714Y-117074190D01*
X147919333Y-117074190D01*
X147990761Y-117098000D01*
X148014571Y-117121809D01*
X148205047Y-117121809D02*
X148228857Y-117098000D01*
X148276476Y-117074190D01*
X148395523Y-117074190D01*
X148443142Y-117098000D01*
X148466952Y-117121809D01*
X148490761Y-117169428D01*
X148490761Y-117217047D01*
X148466952Y-117288476D01*
X148181238Y-117574190D01*
X148490761Y-117574190D01*
X148681238Y-117121809D02*
X148705047Y-117098000D01*
X148752666Y-117074190D01*
X148871714Y-117074190D01*
X148919333Y-117098000D01*
X148943142Y-117121809D01*
X148966952Y-117169428D01*
X148966952Y-117217047D01*
X148943142Y-117288476D01*
X148657428Y-117574190D01*
X148966952Y-117574190D01*
%TO.C,C23*%
X150173571Y-117526571D02*
X150149761Y-117550380D01*
X150078333Y-117574190D01*
X150030714Y-117574190D01*
X149959285Y-117550380D01*
X149911666Y-117502761D01*
X149887857Y-117455142D01*
X149864047Y-117359904D01*
X149864047Y-117288476D01*
X149887857Y-117193238D01*
X149911666Y-117145619D01*
X149959285Y-117098000D01*
X150030714Y-117074190D01*
X150078333Y-117074190D01*
X150149761Y-117098000D01*
X150173571Y-117121809D01*
X150364047Y-117121809D02*
X150387857Y-117098000D01*
X150435476Y-117074190D01*
X150554523Y-117074190D01*
X150602142Y-117098000D01*
X150625952Y-117121809D01*
X150649761Y-117169428D01*
X150649761Y-117217047D01*
X150625952Y-117288476D01*
X150340238Y-117574190D01*
X150649761Y-117574190D01*
X150816428Y-117074190D02*
X151125952Y-117074190D01*
X150959285Y-117264666D01*
X151030714Y-117264666D01*
X151078333Y-117288476D01*
X151102142Y-117312285D01*
X151125952Y-117359904D01*
X151125952Y-117478952D01*
X151102142Y-117526571D01*
X151078333Y-117550380D01*
X151030714Y-117574190D01*
X150887857Y-117574190D01*
X150840238Y-117550380D01*
X150816428Y-117526571D01*
%TO.C,C25*%
X146490571Y-117526571D02*
X146466761Y-117550380D01*
X146395333Y-117574190D01*
X146347714Y-117574190D01*
X146276285Y-117550380D01*
X146228666Y-117502761D01*
X146204857Y-117455142D01*
X146181047Y-117359904D01*
X146181047Y-117288476D01*
X146204857Y-117193238D01*
X146228666Y-117145619D01*
X146276285Y-117098000D01*
X146347714Y-117074190D01*
X146395333Y-117074190D01*
X146466761Y-117098000D01*
X146490571Y-117121809D01*
X146681047Y-117121809D02*
X146704857Y-117098000D01*
X146752476Y-117074190D01*
X146871523Y-117074190D01*
X146919142Y-117098000D01*
X146942952Y-117121809D01*
X146966761Y-117169428D01*
X146966761Y-117217047D01*
X146942952Y-117288476D01*
X146657238Y-117574190D01*
X146966761Y-117574190D01*
X147419142Y-117074190D02*
X147181047Y-117074190D01*
X147157238Y-117312285D01*
X147181047Y-117288476D01*
X147228666Y-117264666D01*
X147347714Y-117264666D01*
X147395333Y-117288476D01*
X147419142Y-117312285D01*
X147442952Y-117359904D01*
X147442952Y-117478952D01*
X147419142Y-117526571D01*
X147395333Y-117550380D01*
X147347714Y-117574190D01*
X147228666Y-117574190D01*
X147181047Y-117550380D01*
X147157238Y-117526571D01*
%TO.C,C26*%
X151824571Y-117526571D02*
X151800761Y-117550380D01*
X151729333Y-117574190D01*
X151681714Y-117574190D01*
X151610285Y-117550380D01*
X151562666Y-117502761D01*
X151538857Y-117455142D01*
X151515047Y-117359904D01*
X151515047Y-117288476D01*
X151538857Y-117193238D01*
X151562666Y-117145619D01*
X151610285Y-117098000D01*
X151681714Y-117074190D01*
X151729333Y-117074190D01*
X151800761Y-117098000D01*
X151824571Y-117121809D01*
X152015047Y-117121809D02*
X152038857Y-117098000D01*
X152086476Y-117074190D01*
X152205523Y-117074190D01*
X152253142Y-117098000D01*
X152276952Y-117121809D01*
X152300761Y-117169428D01*
X152300761Y-117217047D01*
X152276952Y-117288476D01*
X151991238Y-117574190D01*
X152300761Y-117574190D01*
X152729333Y-117074190D02*
X152634095Y-117074190D01*
X152586476Y-117098000D01*
X152562666Y-117121809D01*
X152515047Y-117193238D01*
X152491238Y-117288476D01*
X152491238Y-117478952D01*
X152515047Y-117526571D01*
X152538857Y-117550380D01*
X152586476Y-117574190D01*
X152681714Y-117574190D01*
X152729333Y-117550380D01*
X152753142Y-117526571D01*
X152776952Y-117478952D01*
X152776952Y-117359904D01*
X152753142Y-117312285D01*
X152729333Y-117288476D01*
X152681714Y-117264666D01*
X152586476Y-117264666D01*
X152538857Y-117288476D01*
X152515047Y-117312285D01*
X152491238Y-117359904D01*
%TO.C,PWR*%
X141700333Y-119606190D02*
X141700333Y-119106190D01*
X141890809Y-119106190D01*
X141938428Y-119130000D01*
X141962238Y-119153809D01*
X141986047Y-119201428D01*
X141986047Y-119272857D01*
X141962238Y-119320476D01*
X141938428Y-119344285D01*
X141890809Y-119368095D01*
X141700333Y-119368095D01*
X142152714Y-119106190D02*
X142271761Y-119606190D01*
X142367000Y-119249047D01*
X142462238Y-119606190D01*
X142581285Y-119106190D01*
X143057476Y-119606190D02*
X142890809Y-119368095D01*
X142771761Y-119606190D02*
X142771761Y-119106190D01*
X142962238Y-119106190D01*
X143009857Y-119130000D01*
X143033666Y-119153809D01*
X143057476Y-119201428D01*
X143057476Y-119272857D01*
X143033666Y-119320476D01*
X143009857Y-119344285D01*
X142962238Y-119368095D01*
X142771761Y-119368095D01*
%TO.C,HEARTBEAT*%
X152438338Y-111605190D02*
X152438338Y-111105190D01*
X152438338Y-111343285D02*
X152724052Y-111343285D01*
X152724052Y-111605190D02*
X152724052Y-111105190D01*
X152962147Y-111343285D02*
X153128814Y-111343285D01*
X153200242Y-111605190D02*
X152962147Y-111605190D01*
X152962147Y-111105190D01*
X153200242Y-111105190D01*
X153390719Y-111462333D02*
X153628814Y-111462333D01*
X153343100Y-111605190D02*
X153509766Y-111105190D01*
X153676433Y-111605190D01*
X154128814Y-111605190D02*
X153962147Y-111367095D01*
X153843100Y-111605190D02*
X153843100Y-111105190D01*
X154033576Y-111105190D01*
X154081195Y-111129000D01*
X154105004Y-111152809D01*
X154128814Y-111200428D01*
X154128814Y-111271857D01*
X154105004Y-111319476D01*
X154081195Y-111343285D01*
X154033576Y-111367095D01*
X153843100Y-111367095D01*
X154271671Y-111105190D02*
X154557385Y-111105190D01*
X154414528Y-111605190D02*
X154414528Y-111105190D01*
X154890719Y-111343285D02*
X154962147Y-111367095D01*
X154985957Y-111390904D01*
X155009766Y-111438523D01*
X155009766Y-111509952D01*
X154985957Y-111557571D01*
X154962147Y-111581380D01*
X154914528Y-111605190D01*
X154724052Y-111605190D01*
X154724052Y-111105190D01*
X154890719Y-111105190D01*
X154938338Y-111129000D01*
X154962147Y-111152809D01*
X154985957Y-111200428D01*
X154985957Y-111248047D01*
X154962147Y-111295666D01*
X154938338Y-111319476D01*
X154890719Y-111343285D01*
X154724052Y-111343285D01*
X155224052Y-111343285D02*
X155390719Y-111343285D01*
X155462147Y-111605190D02*
X155224052Y-111605190D01*
X155224052Y-111105190D01*
X155462147Y-111105190D01*
X155652623Y-111462333D02*
X155890719Y-111462333D01*
X155605004Y-111605190D02*
X155771671Y-111105190D01*
X155938338Y-111605190D01*
X156033576Y-111105190D02*
X156319290Y-111105190D01*
X156176433Y-111605190D02*
X156176433Y-111105190D01*
%TO.C,COMMS*%
X142529833Y-97714571D02*
X142506023Y-97738380D01*
X142434595Y-97762190D01*
X142386976Y-97762190D01*
X142315547Y-97738380D01*
X142267928Y-97690761D01*
X142244119Y-97643142D01*
X142220309Y-97547904D01*
X142220309Y-97476476D01*
X142244119Y-97381238D01*
X142267928Y-97333619D01*
X142315547Y-97286000D01*
X142386976Y-97262190D01*
X142434595Y-97262190D01*
X142506023Y-97286000D01*
X142529833Y-97309809D01*
X142839357Y-97262190D02*
X142934595Y-97262190D01*
X142982214Y-97286000D01*
X143029833Y-97333619D01*
X143053642Y-97428857D01*
X143053642Y-97595523D01*
X143029833Y-97690761D01*
X142982214Y-97738380D01*
X142934595Y-97762190D01*
X142839357Y-97762190D01*
X142791738Y-97738380D01*
X142744119Y-97690761D01*
X142720309Y-97595523D01*
X142720309Y-97428857D01*
X142744119Y-97333619D01*
X142791738Y-97286000D01*
X142839357Y-97262190D01*
X143267928Y-97762190D02*
X143267928Y-97262190D01*
X143434595Y-97619333D01*
X143601261Y-97262190D01*
X143601261Y-97762190D01*
X143839357Y-97762190D02*
X143839357Y-97262190D01*
X144006023Y-97619333D01*
X144172690Y-97262190D01*
X144172690Y-97762190D01*
X144386976Y-97738380D02*
X144458404Y-97762190D01*
X144577452Y-97762190D01*
X144625071Y-97738380D01*
X144648880Y-97714571D01*
X144672690Y-97666952D01*
X144672690Y-97619333D01*
X144648880Y-97571714D01*
X144625071Y-97547904D01*
X144577452Y-97524095D01*
X144482214Y-97500285D01*
X144434595Y-97476476D01*
X144410785Y-97452666D01*
X144386976Y-97405047D01*
X144386976Y-97357428D01*
X144410785Y-97309809D01*
X144434595Y-97286000D01*
X144482214Y-97262190D01*
X144601261Y-97262190D01*
X144672690Y-97286000D01*
%TO.C,M1+*%
X136166314Y-88440390D02*
X136166314Y-87940390D01*
X136332980Y-88297533D01*
X136499647Y-87940390D01*
X136499647Y-88440390D01*
X136999647Y-88440390D02*
X136713933Y-88440390D01*
X136856790Y-88440390D02*
X136856790Y-87940390D01*
X136809171Y-88011819D01*
X136761552Y-88059438D01*
X136713933Y-88083247D01*
X137213933Y-88249914D02*
X137594885Y-88249914D01*
X137404409Y-88440390D02*
X137404409Y-88059438D01*
%TO.C,M1-*%
X140077914Y-88440390D02*
X140077914Y-87940390D01*
X140244580Y-88297533D01*
X140411247Y-87940390D01*
X140411247Y-88440390D01*
X140911247Y-88440390D02*
X140625533Y-88440390D01*
X140768390Y-88440390D02*
X140768390Y-87940390D01*
X140720771Y-88011819D01*
X140673152Y-88059438D01*
X140625533Y-88083247D01*
X141125533Y-88249914D02*
X141506485Y-88249914D01*
%TO.C,M3+*%
X161375814Y-88378590D02*
X161375814Y-87878590D01*
X161542480Y-88235733D01*
X161709147Y-87878590D01*
X161709147Y-88378590D01*
X161899623Y-87878590D02*
X162209147Y-87878590D01*
X162042480Y-88069066D01*
X162113909Y-88069066D01*
X162161528Y-88092876D01*
X162185338Y-88116685D01*
X162209147Y-88164304D01*
X162209147Y-88283352D01*
X162185338Y-88330971D01*
X162161528Y-88354780D01*
X162113909Y-88378590D01*
X161971052Y-88378590D01*
X161923433Y-88354780D01*
X161899623Y-88330971D01*
X162423433Y-88188114D02*
X162804385Y-88188114D01*
X162613909Y-88378590D02*
X162613909Y-87997638D01*
%TO.C,M3-*%
X157565814Y-88378590D02*
X157565814Y-87878590D01*
X157732480Y-88235733D01*
X157899147Y-87878590D01*
X157899147Y-88378590D01*
X158089623Y-87878590D02*
X158399147Y-87878590D01*
X158232480Y-88069066D01*
X158303909Y-88069066D01*
X158351528Y-88092876D01*
X158375338Y-88116685D01*
X158399147Y-88164304D01*
X158399147Y-88283352D01*
X158375338Y-88330971D01*
X158351528Y-88354780D01*
X158303909Y-88378590D01*
X158161052Y-88378590D01*
X158113433Y-88354780D01*
X158089623Y-88330971D01*
X158613433Y-88188114D02*
X158994385Y-88188114D01*
%TO.C,M2+*%
X136191714Y-117701190D02*
X136191714Y-117201190D01*
X136358380Y-117558333D01*
X136525047Y-117201190D01*
X136525047Y-117701190D01*
X136739333Y-117248809D02*
X136763142Y-117225000D01*
X136810761Y-117201190D01*
X136929809Y-117201190D01*
X136977428Y-117225000D01*
X137001238Y-117248809D01*
X137025047Y-117296428D01*
X137025047Y-117344047D01*
X137001238Y-117415476D01*
X136715523Y-117701190D01*
X137025047Y-117701190D01*
X137239333Y-117510714D02*
X137620285Y-117510714D01*
X137429809Y-117701190D02*
X137429809Y-117320238D01*
%TO.C,M2-*%
X139874714Y-117701190D02*
X139874714Y-117201190D01*
X140041380Y-117558333D01*
X140208047Y-117201190D01*
X140208047Y-117701190D01*
X140422333Y-117248809D02*
X140446142Y-117225000D01*
X140493761Y-117201190D01*
X140612809Y-117201190D01*
X140660428Y-117225000D01*
X140684238Y-117248809D01*
X140708047Y-117296428D01*
X140708047Y-117344047D01*
X140684238Y-117415476D01*
X140398523Y-117701190D01*
X140708047Y-117701190D01*
X140922333Y-117510714D02*
X141303285Y-117510714D01*
%TO.C,M4+*%
X161375814Y-117701190D02*
X161375814Y-117201190D01*
X161542480Y-117558333D01*
X161709147Y-117201190D01*
X161709147Y-117701190D01*
X162161528Y-117367857D02*
X162161528Y-117701190D01*
X162042480Y-117177380D02*
X161923433Y-117534523D01*
X162232957Y-117534523D01*
X162423433Y-117510714D02*
X162804385Y-117510714D01*
X162613909Y-117701190D02*
X162613909Y-117320238D01*
%TO.C,M4-*%
X157654714Y-117701190D02*
X157654714Y-117201190D01*
X157821380Y-117558333D01*
X157988047Y-117201190D01*
X157988047Y-117701190D01*
X158440428Y-117367857D02*
X158440428Y-117701190D01*
X158321380Y-117177380D02*
X158202333Y-117534523D01*
X158511857Y-117534523D01*
X158702333Y-117510714D02*
X159083285Y-117510714D01*
%TO.C,R1*%
X144625190Y-122511333D02*
X144387095Y-122678000D01*
X144625190Y-122797047D02*
X144125190Y-122797047D01*
X144125190Y-122606571D01*
X144149000Y-122558952D01*
X144172809Y-122535142D01*
X144220428Y-122511333D01*
X144291857Y-122511333D01*
X144339476Y-122535142D01*
X144363285Y-122558952D01*
X144387095Y-122606571D01*
X144387095Y-122797047D01*
X144625190Y-122035142D02*
X144625190Y-122320857D01*
X144625190Y-122178000D02*
X144125190Y-122178000D01*
X144196619Y-122225619D01*
X144244238Y-122273238D01*
X144268047Y-122320857D01*
%TO.C,R4*%
X144353766Y-108811190D02*
X144187100Y-108573095D01*
X144068052Y-108811190D02*
X144068052Y-108311190D01*
X144258528Y-108311190D01*
X144306147Y-108335000D01*
X144329957Y-108358809D01*
X144353766Y-108406428D01*
X144353766Y-108477857D01*
X144329957Y-108525476D01*
X144306147Y-108549285D01*
X144258528Y-108573095D01*
X144068052Y-108573095D01*
X144782338Y-108477857D02*
X144782338Y-108811190D01*
X144663290Y-108287380D02*
X144544242Y-108644523D01*
X144853766Y-108644523D01*
%TO.C,R5*%
X144315666Y-112621190D02*
X144149000Y-112383095D01*
X144029952Y-112621190D02*
X144029952Y-112121190D01*
X144220428Y-112121190D01*
X144268047Y-112145000D01*
X144291857Y-112168809D01*
X144315666Y-112216428D01*
X144315666Y-112287857D01*
X144291857Y-112335476D01*
X144268047Y-112359285D01*
X144220428Y-112383095D01*
X144029952Y-112383095D01*
X144768047Y-112121190D02*
X144529952Y-112121190D01*
X144506142Y-112359285D01*
X144529952Y-112335476D01*
X144577571Y-112311666D01*
X144696619Y-112311666D01*
X144744238Y-112335476D01*
X144768047Y-112359285D01*
X144791857Y-112406904D01*
X144791857Y-112525952D01*
X144768047Y-112573571D01*
X144744238Y-112597380D01*
X144696619Y-112621190D01*
X144577571Y-112621190D01*
X144529952Y-112597380D01*
X144506142Y-112573571D01*
%TO.C,R11*%
X142694790Y-78528028D02*
X142456695Y-78694695D01*
X142694790Y-78813742D02*
X142194790Y-78813742D01*
X142194790Y-78623266D01*
X142218600Y-78575647D01*
X142242409Y-78551838D01*
X142290028Y-78528028D01*
X142361457Y-78528028D01*
X142409076Y-78551838D01*
X142432885Y-78575647D01*
X142456695Y-78623266D01*
X142456695Y-78813742D01*
X142694790Y-78051838D02*
X142694790Y-78337552D01*
X142694790Y-78194695D02*
X142194790Y-78194695D01*
X142266219Y-78242314D01*
X142313838Y-78289933D01*
X142337647Y-78337552D01*
X142694790Y-77575647D02*
X142694790Y-77861361D01*
X142694790Y-77718504D02*
X142194790Y-77718504D01*
X142266219Y-77766123D01*
X142313838Y-77813742D01*
X142337647Y-77861361D01*
%TO.C,R12*%
X156436190Y-78680428D02*
X156198095Y-78847095D01*
X156436190Y-78966142D02*
X155936190Y-78966142D01*
X155936190Y-78775666D01*
X155960000Y-78728047D01*
X155983809Y-78704238D01*
X156031428Y-78680428D01*
X156102857Y-78680428D01*
X156150476Y-78704238D01*
X156174285Y-78728047D01*
X156198095Y-78775666D01*
X156198095Y-78966142D01*
X156436190Y-78204238D02*
X156436190Y-78489952D01*
X156436190Y-78347095D02*
X155936190Y-78347095D01*
X156007619Y-78394714D01*
X156055238Y-78442333D01*
X156079047Y-78489952D01*
X155983809Y-78013761D02*
X155960000Y-77989952D01*
X155936190Y-77942333D01*
X155936190Y-77823285D01*
X155960000Y-77775666D01*
X155983809Y-77751857D01*
X156031428Y-77728047D01*
X156079047Y-77728047D01*
X156150476Y-77751857D01*
X156436190Y-78037571D01*
X156436190Y-77728047D01*
%TO.C,R13*%
X142694790Y-80128228D02*
X142456695Y-80294895D01*
X142694790Y-80413942D02*
X142194790Y-80413942D01*
X142194790Y-80223466D01*
X142218600Y-80175847D01*
X142242409Y-80152038D01*
X142290028Y-80128228D01*
X142361457Y-80128228D01*
X142409076Y-80152038D01*
X142432885Y-80175847D01*
X142456695Y-80223466D01*
X142456695Y-80413942D01*
X142694790Y-79652038D02*
X142694790Y-79937752D01*
X142694790Y-79794895D02*
X142194790Y-79794895D01*
X142266219Y-79842514D01*
X142313838Y-79890133D01*
X142337647Y-79937752D01*
X142194790Y-79485371D02*
X142194790Y-79175847D01*
X142385266Y-79342514D01*
X142385266Y-79271085D01*
X142409076Y-79223466D01*
X142432885Y-79199657D01*
X142480504Y-79175847D01*
X142599552Y-79175847D01*
X142647171Y-79199657D01*
X142670980Y-79223466D01*
X142694790Y-79271085D01*
X142694790Y-79413942D01*
X142670980Y-79461561D01*
X142647171Y-79485371D01*
%TO.C,R14*%
X156436190Y-80204428D02*
X156198095Y-80371095D01*
X156436190Y-80490142D02*
X155936190Y-80490142D01*
X155936190Y-80299666D01*
X155960000Y-80252047D01*
X155983809Y-80228238D01*
X156031428Y-80204428D01*
X156102857Y-80204428D01*
X156150476Y-80228238D01*
X156174285Y-80252047D01*
X156198095Y-80299666D01*
X156198095Y-80490142D01*
X156436190Y-79728238D02*
X156436190Y-80013952D01*
X156436190Y-79871095D02*
X155936190Y-79871095D01*
X156007619Y-79918714D01*
X156055238Y-79966333D01*
X156079047Y-80013952D01*
X156102857Y-79299666D02*
X156436190Y-79299666D01*
X155912380Y-79418714D02*
X156269523Y-79537761D01*
X156269523Y-79228238D01*
%TD*%
M02*
