M48
; DRILL file {KiCad (5.1.9)-1} date 03/06/21 18:52:12
; FORMAT={-:-/ absolute / inch / decimal}
; #@! TF.CreationDate,2021-03-06T18:52:12-05:00
; #@! TF.GenerationSoftware,Kicad,Pcbnew,(5.1.9)-1
; #@! TF.FileFunction,Plated,1,4,PTH
FMAT,2
INCH
T1C0.0157
T2C0.0394
T3C0.0866
%
G90
G05
T1
X5.3457Y-3.3196
X5.4915Y-3.9324
X5.4936Y-3.1981
X5.5015Y-3.526
X5.5015Y-4.406
X5.5215Y-4.746
X5.5242Y-4.8217
X5.5268Y-4.0024
X5.5575Y-4.312
X5.6135Y-3.918
X5.6337Y-4.1038
X5.6515Y-4.416
X5.6605Y-4.1834
X5.6615Y-4.076
X5.6625Y-3.66
X5.6795Y-4.534
X5.6825Y-4.2795
X5.6835Y-3.932
X5.6835Y-4.586
X5.6998Y-3.5545
X5.7015Y-3.827
X5.7125Y-4.854
X5.7515Y-3.526
X5.7755Y-4.041
X5.7755Y-4.169
X5.7815Y-3.86
X5.7855Y-3.589
X5.7895Y-3.389
X5.7915Y-3.986
X5.8083Y-3.7279
X5.83Y-4.3545
X5.8445Y-4.464
X5.8695Y-4.191
X5.8815Y-4.326
X5.9015Y-4.448
X5.9115Y-3.746
X5.9385Y-4.187
X5.9593Y-4.326
X5.9715Y-3.826
X5.9775Y-4.169
X5.9795Y-4.027
X5.983Y-4.7035
X5.9899Y-3.9886
X5.9933Y-3.8588
X5.9947Y-4.3089
X6.0171Y-3.4975
X6.038Y-4.236
X6.0385Y-4.384
X6.0444Y-4.855
X6.0465Y-3.938
X6.0565Y-3.4975
X6.0783Y-4.2151
X6.0805Y-4.482
X6.0825Y-3.801
X6.0892Y-4.536
X6.09Y-4.396
X6.0955Y-3.7498
X6.109Y-3.981
X6.1105Y-4.299
X6.1176Y-3.9001
X6.1558Y-4.1849
X6.1615Y-3.976
X6.196Y-3.2053
X6.2091Y-3.9919
X6.2115Y-4.6121
X6.2115Y-4.776
X6.2225Y-4.2
X6.2225Y-4.302
X6.2479Y-3.9821
X6.253Y-4.3935
X6.2866Y-4.0135
X6.2872Y-4.1825
X6.3015Y-3.666
X6.3115Y-3.716
X6.3115Y-3.886
X6.3125Y-4.285
X6.3167Y-3.9791
X6.3515Y-4.666
X6.3823Y-3.3188
T2
X5.5015Y-3.583
X5.5015Y-3.683
X5.5015Y-3.783
X5.5015Y-3.883
X5.5015Y-4.055
X5.5015Y-4.155
X5.5015Y-4.255
X5.5015Y-4.355
X5.8315Y-4.786
X5.9315Y-4.786
T3
X5.3815Y-3.136
X5.3815Y-4.786
X6.3815Y-3.136
X6.3815Y-4.786
T0
M30
