%TF.GenerationSoftware,KiCad,Pcbnew,(5.1.9)-1*%
%TF.CreationDate,2021-03-06T18:52:22-05:00*%
%TF.ProjectId,final_design_v2,66696e61-6c5f-4646-9573-69676e5f7632,rev?*%
%TF.SameCoordinates,Original*%
%TF.FileFunction,Copper,L4,Bot*%
%TF.FilePolarity,Positive*%
%FSLAX46Y46*%
G04 Gerber Fmt 4.6, Leading zero omitted, Abs format (unit mm)*
G04 Created by KiCad (PCBNEW (5.1.9)-1) date 2021-03-06 18:52:22*
%MOMM*%
%LPD*%
G01*
G04 APERTURE LIST*
%TA.AperFunction,ComponentPad*%
%ADD10C,3.500000*%
%TD*%
%TA.AperFunction,ComponentPad*%
%ADD11R,1.700000X1.700000*%
%TD*%
%TA.AperFunction,ComponentPad*%
%ADD12O,1.700000X1.700000*%
%TD*%
%TA.AperFunction,ViaPad*%
%ADD13C,0.800000*%
%TD*%
%TA.AperFunction,Conductor*%
%ADD14C,0.250000*%
%TD*%
%TA.AperFunction,Conductor*%
%ADD15C,0.508000*%
%TD*%
G04 APERTURE END LIST*
D10*
%TO.P,H4,1*%
%TO.N,GND*%
X162090100Y-121564400D03*
%TD*%
%TO.P,C1,1*%
%TO.N,+3V3*%
%TA.AperFunction,SMDPad,CuDef*%
G36*
G01*
X148091700Y-102091500D02*
X148091700Y-101616500D01*
G75*
G02*
X148329200Y-101379000I237500J0D01*
G01*
X148929200Y-101379000D01*
G75*
G02*
X149166700Y-101616500I0J-237500D01*
G01*
X149166700Y-102091500D01*
G75*
G02*
X148929200Y-102329000I-237500J0D01*
G01*
X148329200Y-102329000D01*
G75*
G02*
X148091700Y-102091500I0J237500D01*
G01*
G37*
%TD.AperFunction*%
%TO.P,C1,2*%
%TO.N,GND*%
%TA.AperFunction,SMDPad,CuDef*%
G36*
G01*
X149816700Y-102091500D02*
X149816700Y-101616500D01*
G75*
G02*
X150054200Y-101379000I237500J0D01*
G01*
X150654200Y-101379000D01*
G75*
G02*
X150891700Y-101616500I0J-237500D01*
G01*
X150891700Y-102091500D01*
G75*
G02*
X150654200Y-102329000I-237500J0D01*
G01*
X150054200Y-102329000D01*
G75*
G02*
X149816700Y-102091500I0J237500D01*
G01*
G37*
%TD.AperFunction*%
%TD*%
%TO.P,C2,2*%
%TO.N,GND*%
%TA.AperFunction,SMDPad,CuDef*%
G36*
G01*
X147886300Y-103666300D02*
X147886300Y-103191300D01*
G75*
G02*
X148123800Y-102953800I237500J0D01*
G01*
X148723800Y-102953800D01*
G75*
G02*
X148961300Y-103191300I0J-237500D01*
G01*
X148961300Y-103666300D01*
G75*
G02*
X148723800Y-103903800I-237500J0D01*
G01*
X148123800Y-103903800D01*
G75*
G02*
X147886300Y-103666300I0J237500D01*
G01*
G37*
%TD.AperFunction*%
%TO.P,C2,1*%
%TO.N,+3V3*%
%TA.AperFunction,SMDPad,CuDef*%
G36*
G01*
X146161300Y-103666300D02*
X146161300Y-103191300D01*
G75*
G02*
X146398800Y-102953800I237500J0D01*
G01*
X146998800Y-102953800D01*
G75*
G02*
X147236300Y-103191300I0J-237500D01*
G01*
X147236300Y-103666300D01*
G75*
G02*
X146998800Y-103903800I-237500J0D01*
G01*
X146398800Y-103903800D01*
G75*
G02*
X146161300Y-103666300I0J237500D01*
G01*
G37*
%TD.AperFunction*%
%TD*%
%TO.P,C3,1*%
%TO.N,+3V3*%
%TA.AperFunction,SMDPad,CuDef*%
G36*
G01*
X146161300Y-105215700D02*
X146161300Y-104740700D01*
G75*
G02*
X146398800Y-104503200I237500J0D01*
G01*
X146998800Y-104503200D01*
G75*
G02*
X147236300Y-104740700I0J-237500D01*
G01*
X147236300Y-105215700D01*
G75*
G02*
X146998800Y-105453200I-237500J0D01*
G01*
X146398800Y-105453200D01*
G75*
G02*
X146161300Y-105215700I0J237500D01*
G01*
G37*
%TD.AperFunction*%
%TO.P,C3,2*%
%TO.N,GND*%
%TA.AperFunction,SMDPad,CuDef*%
G36*
G01*
X147886300Y-105215700D02*
X147886300Y-104740700D01*
G75*
G02*
X148123800Y-104503200I237500J0D01*
G01*
X148723800Y-104503200D01*
G75*
G02*
X148961300Y-104740700I0J-237500D01*
G01*
X148961300Y-105215700D01*
G75*
G02*
X148723800Y-105453200I-237500J0D01*
G01*
X148123800Y-105453200D01*
G75*
G02*
X147886300Y-105215700I0J237500D01*
G01*
G37*
%TD.AperFunction*%
%TD*%
%TO.P,C4,2*%
%TO.N,GND*%
%TA.AperFunction,SMDPad,CuDef*%
G36*
G01*
X150639900Y-103191300D02*
X150639900Y-103666300D01*
G75*
G02*
X150402400Y-103903800I-237500J0D01*
G01*
X149802400Y-103903800D01*
G75*
G02*
X149564900Y-103666300I0J237500D01*
G01*
X149564900Y-103191300D01*
G75*
G02*
X149802400Y-102953800I237500J0D01*
G01*
X150402400Y-102953800D01*
G75*
G02*
X150639900Y-103191300I0J-237500D01*
G01*
G37*
%TD.AperFunction*%
%TO.P,C4,1*%
%TO.N,+3V3*%
%TA.AperFunction,SMDPad,CuDef*%
G36*
G01*
X152364900Y-103191300D02*
X152364900Y-103666300D01*
G75*
G02*
X152127400Y-103903800I-237500J0D01*
G01*
X151527400Y-103903800D01*
G75*
G02*
X151289900Y-103666300I0J237500D01*
G01*
X151289900Y-103191300D01*
G75*
G02*
X151527400Y-102953800I237500J0D01*
G01*
X152127400Y-102953800D01*
G75*
G02*
X152364900Y-103191300I0J-237500D01*
G01*
G37*
%TD.AperFunction*%
%TD*%
%TO.P,C5,1*%
%TO.N,+3V3*%
%TA.AperFunction,SMDPad,CuDef*%
G36*
G01*
X152364900Y-104740700D02*
X152364900Y-105215700D01*
G75*
G02*
X152127400Y-105453200I-237500J0D01*
G01*
X151527400Y-105453200D01*
G75*
G02*
X151289900Y-105215700I0J237500D01*
G01*
X151289900Y-104740700D01*
G75*
G02*
X151527400Y-104503200I237500J0D01*
G01*
X152127400Y-104503200D01*
G75*
G02*
X152364900Y-104740700I0J-237500D01*
G01*
G37*
%TD.AperFunction*%
%TO.P,C5,2*%
%TO.N,GND*%
%TA.AperFunction,SMDPad,CuDef*%
G36*
G01*
X150639900Y-104740700D02*
X150639900Y-105215700D01*
G75*
G02*
X150402400Y-105453200I-237500J0D01*
G01*
X149802400Y-105453200D01*
G75*
G02*
X149564900Y-105215700I0J237500D01*
G01*
X149564900Y-104740700D01*
G75*
G02*
X149802400Y-104503200I237500J0D01*
G01*
X150402400Y-104503200D01*
G75*
G02*
X150639900Y-104740700I0J-237500D01*
G01*
G37*
%TD.AperFunction*%
%TD*%
%TO.P,C6,2*%
%TO.N,GND*%
%TA.AperFunction,SMDPad,CuDef*%
G36*
G01*
X157077400Y-114371000D02*
X157552400Y-114371000D01*
G75*
G02*
X157789900Y-114608500I0J-237500D01*
G01*
X157789900Y-115208500D01*
G75*
G02*
X157552400Y-115446000I-237500J0D01*
G01*
X157077400Y-115446000D01*
G75*
G02*
X156839900Y-115208500I0J237500D01*
G01*
X156839900Y-114608500D01*
G75*
G02*
X157077400Y-114371000I237500J0D01*
G01*
G37*
%TD.AperFunction*%
%TO.P,C6,1*%
%TO.N,+3.3VA*%
%TA.AperFunction,SMDPad,CuDef*%
G36*
G01*
X157077400Y-112646000D02*
X157552400Y-112646000D01*
G75*
G02*
X157789900Y-112883500I0J-237500D01*
G01*
X157789900Y-113483500D01*
G75*
G02*
X157552400Y-113721000I-237500J0D01*
G01*
X157077400Y-113721000D01*
G75*
G02*
X156839900Y-113483500I0J237500D01*
G01*
X156839900Y-112883500D01*
G75*
G02*
X157077400Y-112646000I237500J0D01*
G01*
G37*
%TD.AperFunction*%
%TD*%
%TO.P,C7,2*%
%TO.N,GND*%
%TA.AperFunction,SMDPad,CuDef*%
G36*
G01*
X155553400Y-115666400D02*
X156028400Y-115666400D01*
G75*
G02*
X156265900Y-115903900I0J-237500D01*
G01*
X156265900Y-116503900D01*
G75*
G02*
X156028400Y-116741400I-237500J0D01*
G01*
X155553400Y-116741400D01*
G75*
G02*
X155315900Y-116503900I0J237500D01*
G01*
X155315900Y-115903900D01*
G75*
G02*
X155553400Y-115666400I237500J0D01*
G01*
G37*
%TD.AperFunction*%
%TO.P,C7,1*%
%TO.N,+3.3VA*%
%TA.AperFunction,SMDPad,CuDef*%
G36*
G01*
X155553400Y-113941400D02*
X156028400Y-113941400D01*
G75*
G02*
X156265900Y-114178900I0J-237500D01*
G01*
X156265900Y-114778900D01*
G75*
G02*
X156028400Y-115016400I-237500J0D01*
G01*
X155553400Y-115016400D01*
G75*
G02*
X155315900Y-114778900I0J237500D01*
G01*
X155315900Y-114178900D01*
G75*
G02*
X155553400Y-113941400I237500J0D01*
G01*
G37*
%TD.AperFunction*%
%TD*%
%TO.P,C8,2*%
%TO.N,OSC8_IN*%
%TA.AperFunction,SMDPad,CuDef*%
G36*
G01*
X158587113Y-104626708D02*
X158587113Y-105101708D01*
G75*
G02*
X158349613Y-105339208I-237500J0D01*
G01*
X157749613Y-105339208D01*
G75*
G02*
X157512113Y-105101708I0J237500D01*
G01*
X157512113Y-104626708D01*
G75*
G02*
X157749613Y-104389208I237500J0D01*
G01*
X158349613Y-104389208D01*
G75*
G02*
X158587113Y-104626708I0J-237500D01*
G01*
G37*
%TD.AperFunction*%
%TO.P,C8,1*%
%TO.N,GND*%
%TA.AperFunction,SMDPad,CuDef*%
G36*
G01*
X160312113Y-104626708D02*
X160312113Y-105101708D01*
G75*
G02*
X160074613Y-105339208I-237500J0D01*
G01*
X159474613Y-105339208D01*
G75*
G02*
X159237113Y-105101708I0J237500D01*
G01*
X159237113Y-104626708D01*
G75*
G02*
X159474613Y-104389208I237500J0D01*
G01*
X160074613Y-104389208D01*
G75*
G02*
X160312113Y-104626708I0J-237500D01*
G01*
G37*
%TD.AperFunction*%
%TD*%
%TO.P,C9,1*%
%TO.N,GND*%
%TA.AperFunction,SMDPad,CuDef*%
G36*
G01*
X160315100Y-109896900D02*
X160315100Y-110371900D01*
G75*
G02*
X160077600Y-110609400I-237500J0D01*
G01*
X159477600Y-110609400D01*
G75*
G02*
X159240100Y-110371900I0J237500D01*
G01*
X159240100Y-109896900D01*
G75*
G02*
X159477600Y-109659400I237500J0D01*
G01*
X160077600Y-109659400D01*
G75*
G02*
X160315100Y-109896900I0J-237500D01*
G01*
G37*
%TD.AperFunction*%
%TO.P,C9,2*%
%TO.N,OSC32_IN*%
%TA.AperFunction,SMDPad,CuDef*%
G36*
G01*
X158590100Y-109896900D02*
X158590100Y-110371900D01*
G75*
G02*
X158352600Y-110609400I-237500J0D01*
G01*
X157752600Y-110609400D01*
G75*
G02*
X157515100Y-110371900I0J237500D01*
G01*
X157515100Y-109896900D01*
G75*
G02*
X157752600Y-109659400I237500J0D01*
G01*
X158352600Y-109659400D01*
G75*
G02*
X158590100Y-109896900I0J-237500D01*
G01*
G37*
%TD.AperFunction*%
%TD*%
%TO.P,C10,1*%
%TO.N,GND*%
%TA.AperFunction,SMDPad,CuDef*%
G36*
G01*
X160315100Y-107356900D02*
X160315100Y-107831900D01*
G75*
G02*
X160077600Y-108069400I-237500J0D01*
G01*
X159477600Y-108069400D01*
G75*
G02*
X159240100Y-107831900I0J237500D01*
G01*
X159240100Y-107356900D01*
G75*
G02*
X159477600Y-107119400I237500J0D01*
G01*
X160077600Y-107119400D01*
G75*
G02*
X160315100Y-107356900I0J-237500D01*
G01*
G37*
%TD.AperFunction*%
%TO.P,C10,2*%
%TO.N,OSC32_OUT*%
%TA.AperFunction,SMDPad,CuDef*%
G36*
G01*
X158590100Y-107356900D02*
X158590100Y-107831900D01*
G75*
G02*
X158352600Y-108069400I-237500J0D01*
G01*
X157752600Y-108069400D01*
G75*
G02*
X157515100Y-107831900I0J237500D01*
G01*
X157515100Y-107356900D01*
G75*
G02*
X157752600Y-107119400I237500J0D01*
G01*
X158352600Y-107119400D01*
G75*
G02*
X158590100Y-107356900I0J-237500D01*
G01*
G37*
%TD.AperFunction*%
%TD*%
%TO.P,C11,2*%
%TO.N,OSC8_OUT*%
%TA.AperFunction,SMDPad,CuDef*%
G36*
G01*
X158587113Y-102797908D02*
X158587113Y-103272908D01*
G75*
G02*
X158349613Y-103510408I-237500J0D01*
G01*
X157749613Y-103510408D01*
G75*
G02*
X157512113Y-103272908I0J237500D01*
G01*
X157512113Y-102797908D01*
G75*
G02*
X157749613Y-102560408I237500J0D01*
G01*
X158349613Y-102560408D01*
G75*
G02*
X158587113Y-102797908I0J-237500D01*
G01*
G37*
%TD.AperFunction*%
%TO.P,C11,1*%
%TO.N,GND*%
%TA.AperFunction,SMDPad,CuDef*%
G36*
G01*
X160312113Y-102797908D02*
X160312113Y-103272908D01*
G75*
G02*
X160074613Y-103510408I-237500J0D01*
G01*
X159474613Y-103510408D01*
G75*
G02*
X159237113Y-103272908I0J237500D01*
G01*
X159237113Y-102797908D01*
G75*
G02*
X159474613Y-102560408I237500J0D01*
G01*
X160074613Y-102560408D01*
G75*
G02*
X160312113Y-102797908I0J-237500D01*
G01*
G37*
%TD.AperFunction*%
%TD*%
%TO.P,C12,2*%
%TO.N,GND*%
%TA.AperFunction,SMDPad,CuDef*%
G36*
G01*
X151812000Y-111689000D02*
X151337000Y-111689000D01*
G75*
G02*
X151099500Y-111451500I0J237500D01*
G01*
X151099500Y-110851500D01*
G75*
G02*
X151337000Y-110614000I237500J0D01*
G01*
X151812000Y-110614000D01*
G75*
G02*
X152049500Y-110851500I0J-237500D01*
G01*
X152049500Y-111451500D01*
G75*
G02*
X151812000Y-111689000I-237500J0D01*
G01*
G37*
%TD.AperFunction*%
%TO.P,C12,1*%
%TO.N,+3V3*%
%TA.AperFunction,SMDPad,CuDef*%
G36*
G01*
X151812000Y-113414000D02*
X151337000Y-113414000D01*
G75*
G02*
X151099500Y-113176500I0J237500D01*
G01*
X151099500Y-112576500D01*
G75*
G02*
X151337000Y-112339000I237500J0D01*
G01*
X151812000Y-112339000D01*
G75*
G02*
X152049500Y-112576500I0J-237500D01*
G01*
X152049500Y-113176500D01*
G75*
G02*
X151812000Y-113414000I-237500J0D01*
G01*
G37*
%TD.AperFunction*%
%TD*%
%TO.P,C13,1*%
%TO.N,GND*%
%TA.AperFunction,SMDPad,CuDef*%
G36*
G01*
X147468600Y-113388600D02*
X146993600Y-113388600D01*
G75*
G02*
X146756100Y-113151100I0J237500D01*
G01*
X146756100Y-112551100D01*
G75*
G02*
X146993600Y-112313600I237500J0D01*
G01*
X147468600Y-112313600D01*
G75*
G02*
X147706100Y-112551100I0J-237500D01*
G01*
X147706100Y-113151100D01*
G75*
G02*
X147468600Y-113388600I-237500J0D01*
G01*
G37*
%TD.AperFunction*%
%TO.P,C13,2*%
%TO.N,+3V3*%
%TA.AperFunction,SMDPad,CuDef*%
G36*
G01*
X147468600Y-111663600D02*
X146993600Y-111663600D01*
G75*
G02*
X146756100Y-111426100I0J237500D01*
G01*
X146756100Y-110826100D01*
G75*
G02*
X146993600Y-110588600I237500J0D01*
G01*
X147468600Y-110588600D01*
G75*
G02*
X147706100Y-110826100I0J-237500D01*
G01*
X147706100Y-111426100D01*
G75*
G02*
X147468600Y-111663600I-237500J0D01*
G01*
G37*
%TD.AperFunction*%
%TD*%
%TO.P,C14,1*%
%TO.N,GND*%
%TA.AperFunction,SMDPad,CuDef*%
G36*
G01*
X141138100Y-100498900D02*
X141138100Y-100973900D01*
G75*
G02*
X140900600Y-101211400I-237500J0D01*
G01*
X140300600Y-101211400D01*
G75*
G02*
X140063100Y-100973900I0J237500D01*
G01*
X140063100Y-100498900D01*
G75*
G02*
X140300600Y-100261400I237500J0D01*
G01*
X140900600Y-100261400D01*
G75*
G02*
X141138100Y-100498900I0J-237500D01*
G01*
G37*
%TD.AperFunction*%
%TO.P,C14,2*%
%TO.N,+3V3*%
%TA.AperFunction,SMDPad,CuDef*%
G36*
G01*
X139413100Y-100498900D02*
X139413100Y-100973900D01*
G75*
G02*
X139175600Y-101211400I-237500J0D01*
G01*
X138575600Y-101211400D01*
G75*
G02*
X138338100Y-100973900I0J237500D01*
G01*
X138338100Y-100498900D01*
G75*
G02*
X138575600Y-100261400I237500J0D01*
G01*
X139175600Y-100261400D01*
G75*
G02*
X139413100Y-100498900I0J-237500D01*
G01*
G37*
%TD.AperFunction*%
%TD*%
%TO.P,C15,1*%
%TO.N,GND*%
%TA.AperFunction,SMDPad,CuDef*%
G36*
G01*
X159058600Y-117878400D02*
X159533600Y-117878400D01*
G75*
G02*
X159771100Y-118115900I0J-237500D01*
G01*
X159771100Y-118715900D01*
G75*
G02*
X159533600Y-118953400I-237500J0D01*
G01*
X159058600Y-118953400D01*
G75*
G02*
X158821100Y-118715900I0J237500D01*
G01*
X158821100Y-118115900D01*
G75*
G02*
X159058600Y-117878400I237500J0D01*
G01*
G37*
%TD.AperFunction*%
%TO.P,C15,2*%
%TO.N,VCC*%
%TA.AperFunction,SMDPad,CuDef*%
G36*
G01*
X159058600Y-119603400D02*
X159533600Y-119603400D01*
G75*
G02*
X159771100Y-119840900I0J-237500D01*
G01*
X159771100Y-120440900D01*
G75*
G02*
X159533600Y-120678400I-237500J0D01*
G01*
X159058600Y-120678400D01*
G75*
G02*
X158821100Y-120440900I0J237500D01*
G01*
X158821100Y-119840900D01*
G75*
G02*
X159058600Y-119603400I237500J0D01*
G01*
G37*
%TD.AperFunction*%
%TD*%
%TO.P,C16,2*%
%TO.N,+3V3*%
%TA.AperFunction,SMDPad,CuDef*%
G36*
G01*
X157534600Y-119603400D02*
X158009600Y-119603400D01*
G75*
G02*
X158247100Y-119840900I0J-237500D01*
G01*
X158247100Y-120440900D01*
G75*
G02*
X158009600Y-120678400I-237500J0D01*
G01*
X157534600Y-120678400D01*
G75*
G02*
X157297100Y-120440900I0J237500D01*
G01*
X157297100Y-119840900D01*
G75*
G02*
X157534600Y-119603400I237500J0D01*
G01*
G37*
%TD.AperFunction*%
%TO.P,C16,1*%
%TO.N,GND*%
%TA.AperFunction,SMDPad,CuDef*%
G36*
G01*
X157534600Y-117878400D02*
X158009600Y-117878400D01*
G75*
G02*
X158247100Y-118115900I0J-237500D01*
G01*
X158247100Y-118715900D01*
G75*
G02*
X158009600Y-118953400I-237500J0D01*
G01*
X157534600Y-118953400D01*
G75*
G02*
X157297100Y-118715900I0J237500D01*
G01*
X157297100Y-118115900D01*
G75*
G02*
X157534600Y-117878400I237500J0D01*
G01*
G37*
%TD.AperFunction*%
%TD*%
%TO.P,C17,2*%
%TO.N,VCC*%
%TA.AperFunction,SMDPad,CuDef*%
G36*
G01*
X136314300Y-82591900D02*
X136314300Y-83066900D01*
G75*
G02*
X136076800Y-83304400I-237500J0D01*
G01*
X135476800Y-83304400D01*
G75*
G02*
X135239300Y-83066900I0J237500D01*
G01*
X135239300Y-82591900D01*
G75*
G02*
X135476800Y-82354400I237500J0D01*
G01*
X136076800Y-82354400D01*
G75*
G02*
X136314300Y-82591900I0J-237500D01*
G01*
G37*
%TD.AperFunction*%
%TO.P,C17,1*%
%TO.N,GND*%
%TA.AperFunction,SMDPad,CuDef*%
G36*
G01*
X138039300Y-82591900D02*
X138039300Y-83066900D01*
G75*
G02*
X137801800Y-83304400I-237500J0D01*
G01*
X137201800Y-83304400D01*
G75*
G02*
X136964300Y-83066900I0J237500D01*
G01*
X136964300Y-82591900D01*
G75*
G02*
X137201800Y-82354400I237500J0D01*
G01*
X137801800Y-82354400D01*
G75*
G02*
X138039300Y-82591900I0J-237500D01*
G01*
G37*
%TD.AperFunction*%
%TD*%
%TO.P,C18,2*%
%TO.N,VCC*%
%TA.AperFunction,SMDPad,CuDef*%
G36*
G01*
X162415100Y-83066900D02*
X162415100Y-82591900D01*
G75*
G02*
X162652600Y-82354400I237500J0D01*
G01*
X163252600Y-82354400D01*
G75*
G02*
X163490100Y-82591900I0J-237500D01*
G01*
X163490100Y-83066900D01*
G75*
G02*
X163252600Y-83304400I-237500J0D01*
G01*
X162652600Y-83304400D01*
G75*
G02*
X162415100Y-83066900I0J237500D01*
G01*
G37*
%TD.AperFunction*%
%TO.P,C18,1*%
%TO.N,GND*%
%TA.AperFunction,SMDPad,CuDef*%
G36*
G01*
X160690100Y-83066900D02*
X160690100Y-82591900D01*
G75*
G02*
X160927600Y-82354400I237500J0D01*
G01*
X161527600Y-82354400D01*
G75*
G02*
X161765100Y-82591900I0J-237500D01*
G01*
X161765100Y-83066900D01*
G75*
G02*
X161527600Y-83304400I-237500J0D01*
G01*
X160927600Y-83304400D01*
G75*
G02*
X160690100Y-83066900I0J237500D01*
G01*
G37*
%TD.AperFunction*%
%TD*%
%TO.P,C21,2*%
%TO.N,GND*%
%TA.AperFunction,SMDPad,CuDef*%
G36*
G01*
X155923100Y-99736900D02*
X155923100Y-100211900D01*
G75*
G02*
X155685600Y-100449400I-237500J0D01*
G01*
X155085600Y-100449400D01*
G75*
G02*
X154848100Y-100211900I0J237500D01*
G01*
X154848100Y-99736900D01*
G75*
G02*
X155085600Y-99499400I237500J0D01*
G01*
X155685600Y-99499400D01*
G75*
G02*
X155923100Y-99736900I0J-237500D01*
G01*
G37*
%TD.AperFunction*%
%TO.P,C21,1*%
%TO.N,+3V3*%
%TA.AperFunction,SMDPad,CuDef*%
G36*
G01*
X157648100Y-99736900D02*
X157648100Y-100211900D01*
G75*
G02*
X157410600Y-100449400I-237500J0D01*
G01*
X156810600Y-100449400D01*
G75*
G02*
X156573100Y-100211900I0J237500D01*
G01*
X156573100Y-99736900D01*
G75*
G02*
X156810600Y-99499400I237500J0D01*
G01*
X157410600Y-99499400D01*
G75*
G02*
X157648100Y-99736900I0J-237500D01*
G01*
G37*
%TD.AperFunction*%
%TD*%
%TO.P,C24,1*%
%TO.N,GND*%
%TA.AperFunction,SMDPad,CuDef*%
G36*
G01*
X161243000Y-95094600D02*
X161718000Y-95094600D01*
G75*
G02*
X161955500Y-95332100I0J-237500D01*
G01*
X161955500Y-95932100D01*
G75*
G02*
X161718000Y-96169600I-237500J0D01*
G01*
X161243000Y-96169600D01*
G75*
G02*
X161005500Y-95932100I0J237500D01*
G01*
X161005500Y-95332100D01*
G75*
G02*
X161243000Y-95094600I237500J0D01*
G01*
G37*
%TD.AperFunction*%
%TO.P,C24,2*%
%TO.N,+3V3*%
%TA.AperFunction,SMDPad,CuDef*%
G36*
G01*
X161243000Y-96819600D02*
X161718000Y-96819600D01*
G75*
G02*
X161955500Y-97057100I0J-237500D01*
G01*
X161955500Y-97657100D01*
G75*
G02*
X161718000Y-97894600I-237500J0D01*
G01*
X161243000Y-97894600D01*
G75*
G02*
X161005500Y-97657100I0J237500D01*
G01*
X161005500Y-97057100D01*
G75*
G02*
X161243000Y-96819600I237500J0D01*
G01*
G37*
%TD.AperFunction*%
%TD*%
%TO.P,C27,2*%
%TO.N,Net-(C27-Pad2)*%
%TA.AperFunction,SMDPad,CuDef*%
G36*
G01*
X158352200Y-93379300D02*
X158352200Y-92904300D01*
G75*
G02*
X158589700Y-92666800I237500J0D01*
G01*
X159189700Y-92666800D01*
G75*
G02*
X159427200Y-92904300I0J-237500D01*
G01*
X159427200Y-93379300D01*
G75*
G02*
X159189700Y-93616800I-237500J0D01*
G01*
X158589700Y-93616800D01*
G75*
G02*
X158352200Y-93379300I0J237500D01*
G01*
G37*
%TD.AperFunction*%
%TO.P,C27,1*%
%TO.N,GND*%
%TA.AperFunction,SMDPad,CuDef*%
G36*
G01*
X156627200Y-93379300D02*
X156627200Y-92904300D01*
G75*
G02*
X156864700Y-92666800I237500J0D01*
G01*
X157464700Y-92666800D01*
G75*
G02*
X157702200Y-92904300I0J-237500D01*
G01*
X157702200Y-93379300D01*
G75*
G02*
X157464700Y-93616800I-237500J0D01*
G01*
X156864700Y-93616800D01*
G75*
G02*
X156627200Y-93379300I0J237500D01*
G01*
G37*
%TD.AperFunction*%
%TD*%
%TO.P,C28,1*%
%TO.N,Net-(C28-Pad1)*%
%TA.AperFunction,SMDPad,CuDef*%
G36*
G01*
X158150100Y-100211900D02*
X158150100Y-99736900D01*
G75*
G02*
X158387600Y-99499400I237500J0D01*
G01*
X158987600Y-99499400D01*
G75*
G02*
X159225100Y-99736900I0J-237500D01*
G01*
X159225100Y-100211900D01*
G75*
G02*
X158987600Y-100449400I-237500J0D01*
G01*
X158387600Y-100449400D01*
G75*
G02*
X158150100Y-100211900I0J237500D01*
G01*
G37*
%TD.AperFunction*%
%TO.P,C28,2*%
%TO.N,GND*%
%TA.AperFunction,SMDPad,CuDef*%
G36*
G01*
X159875100Y-100211900D02*
X159875100Y-99736900D01*
G75*
G02*
X160112600Y-99499400I237500J0D01*
G01*
X160712600Y-99499400D01*
G75*
G02*
X160950100Y-99736900I0J-237500D01*
G01*
X160950100Y-100211900D01*
G75*
G02*
X160712600Y-100449400I-237500J0D01*
G01*
X160112600Y-100449400D01*
G75*
G02*
X159875100Y-100211900I0J237500D01*
G01*
G37*
%TD.AperFunction*%
%TD*%
%TO.P,H1,1*%
%TO.N,GND*%
X136690100Y-79654400D03*
%TD*%
%TO.P,H2,1*%
%TO.N,GND*%
X136690100Y-121564400D03*
%TD*%
%TO.P,H3,1*%
%TO.N,GND*%
X162090100Y-79654400D03*
%TD*%
D11*
%TO.P,SWD,1*%
%TO.N,GND*%
X139738100Y-91008200D03*
D12*
%TO.P,SWD,2*%
%TO.N,SWCLK*%
X139738100Y-93548200D03*
%TO.P,SWD,3*%
%TO.N,SWDIO*%
X139738100Y-96088200D03*
%TO.P,SWD,4*%
%TO.N,+3V3*%
X139738100Y-98628200D03*
%TD*%
%TO.P,UART,4*%
%TO.N,+3V3*%
X139738100Y-102997000D03*
%TO.P,UART,3*%
%TO.N,UART1_TX*%
X139738100Y-105537000D03*
%TO.P,UART,2*%
%TO.N,UART1_RX*%
X139738100Y-108077000D03*
D11*
%TO.P,UART,1*%
%TO.N,GND*%
X139738100Y-110617000D03*
%TD*%
%TO.P,J3,1*%
%TO.N,VCC*%
X148120100Y-121564400D03*
D12*
%TO.P,J3,2*%
%TO.N,GND*%
X150660100Y-121564400D03*
%TD*%
%TO.P,L1,1*%
%TO.N,+3V3*%
%TA.AperFunction,SMDPad,CuDef*%
G36*
G01*
X158219600Y-111382800D02*
X158219600Y-111857800D01*
G75*
G02*
X157982100Y-112095300I-237500J0D01*
G01*
X157407100Y-112095300D01*
G75*
G02*
X157169600Y-111857800I0J237500D01*
G01*
X157169600Y-111382800D01*
G75*
G02*
X157407100Y-111145300I237500J0D01*
G01*
X157982100Y-111145300D01*
G75*
G02*
X158219600Y-111382800I0J-237500D01*
G01*
G37*
%TD.AperFunction*%
%TO.P,L1,2*%
%TO.N,+3.3VA*%
%TA.AperFunction,SMDPad,CuDef*%
G36*
G01*
X156469600Y-111382800D02*
X156469600Y-111857800D01*
G75*
G02*
X156232100Y-112095300I-237500J0D01*
G01*
X155657100Y-112095300D01*
G75*
G02*
X155419600Y-111857800I0J237500D01*
G01*
X155419600Y-111382800D01*
G75*
G02*
X155657100Y-111145300I237500J0D01*
G01*
X156232100Y-111145300D01*
G75*
G02*
X156469600Y-111382800I0J-237500D01*
G01*
G37*
%TD.AperFunction*%
%TD*%
%TO.P,R2,1*%
%TO.N,GND*%
%TA.AperFunction,SMDPad,CuDef*%
G36*
G01*
X152892300Y-110346500D02*
X152892300Y-109871500D01*
G75*
G02*
X153129800Y-109634000I237500J0D01*
G01*
X153629800Y-109634000D01*
G75*
G02*
X153867300Y-109871500I0J-237500D01*
G01*
X153867300Y-110346500D01*
G75*
G02*
X153629800Y-110584000I-237500J0D01*
G01*
X153129800Y-110584000D01*
G75*
G02*
X152892300Y-110346500I0J237500D01*
G01*
G37*
%TD.AperFunction*%
%TO.P,R2,2*%
%TO.N,Net-(D2-Pad1)*%
%TA.AperFunction,SMDPad,CuDef*%
G36*
G01*
X154717300Y-110346500D02*
X154717300Y-109871500D01*
G75*
G02*
X154954800Y-109634000I237500J0D01*
G01*
X155454800Y-109634000D01*
G75*
G02*
X155692300Y-109871500I0J-237500D01*
G01*
X155692300Y-110346500D01*
G75*
G02*
X155454800Y-110584000I-237500J0D01*
G01*
X154954800Y-110584000D01*
G75*
G02*
X154717300Y-110346500I0J237500D01*
G01*
G37*
%TD.AperFunction*%
%TD*%
%TO.P,R3,2*%
%TO.N,Net-(D3-Pad1)*%
%TA.AperFunction,SMDPad,CuDef*%
G36*
G01*
X143021500Y-98441500D02*
X143021500Y-98916500D01*
G75*
G02*
X142784000Y-99154000I-237500J0D01*
G01*
X142284000Y-99154000D01*
G75*
G02*
X142046500Y-98916500I0J237500D01*
G01*
X142046500Y-98441500D01*
G75*
G02*
X142284000Y-98204000I237500J0D01*
G01*
X142784000Y-98204000D01*
G75*
G02*
X143021500Y-98441500I0J-237500D01*
G01*
G37*
%TD.AperFunction*%
%TO.P,R3,1*%
%TO.N,GND*%
%TA.AperFunction,SMDPad,CuDef*%
G36*
G01*
X144846500Y-98441500D02*
X144846500Y-98916500D01*
G75*
G02*
X144609000Y-99154000I-237500J0D01*
G01*
X144109000Y-99154000D01*
G75*
G02*
X143871500Y-98916500I0J237500D01*
G01*
X143871500Y-98441500D01*
G75*
G02*
X144109000Y-98204000I237500J0D01*
G01*
X144609000Y-98204000D01*
G75*
G02*
X144846500Y-98441500I0J-237500D01*
G01*
G37*
%TD.AperFunction*%
%TD*%
%TO.P,R6,2*%
%TO.N,I2C2_SCL*%
%TA.AperFunction,SMDPad,CuDef*%
G36*
G01*
X145850600Y-87445400D02*
X146325600Y-87445400D01*
G75*
G02*
X146563100Y-87682900I0J-237500D01*
G01*
X146563100Y-88182900D01*
G75*
G02*
X146325600Y-88420400I-237500J0D01*
G01*
X145850600Y-88420400D01*
G75*
G02*
X145613100Y-88182900I0J237500D01*
G01*
X145613100Y-87682900D01*
G75*
G02*
X145850600Y-87445400I237500J0D01*
G01*
G37*
%TD.AperFunction*%
%TO.P,R6,1*%
%TO.N,+3V3*%
%TA.AperFunction,SMDPad,CuDef*%
G36*
G01*
X145850600Y-85620400D02*
X146325600Y-85620400D01*
G75*
G02*
X146563100Y-85857900I0J-237500D01*
G01*
X146563100Y-86357900D01*
G75*
G02*
X146325600Y-86595400I-237500J0D01*
G01*
X145850600Y-86595400D01*
G75*
G02*
X145613100Y-86357900I0J237500D01*
G01*
X145613100Y-85857900D01*
G75*
G02*
X145850600Y-85620400I237500J0D01*
G01*
G37*
%TD.AperFunction*%
%TD*%
%TO.P,R7,1*%
%TO.N,+3V3*%
%TA.AperFunction,SMDPad,CuDef*%
G36*
G01*
X144326600Y-85620400D02*
X144801600Y-85620400D01*
G75*
G02*
X145039100Y-85857900I0J-237500D01*
G01*
X145039100Y-86357900D01*
G75*
G02*
X144801600Y-86595400I-237500J0D01*
G01*
X144326600Y-86595400D01*
G75*
G02*
X144089100Y-86357900I0J237500D01*
G01*
X144089100Y-85857900D01*
G75*
G02*
X144326600Y-85620400I237500J0D01*
G01*
G37*
%TD.AperFunction*%
%TO.P,R7,2*%
%TO.N,I2C2_SDA*%
%TA.AperFunction,SMDPad,CuDef*%
G36*
G01*
X144326600Y-87445400D02*
X144801600Y-87445400D01*
G75*
G02*
X145039100Y-87682900I0J-237500D01*
G01*
X145039100Y-88182900D01*
G75*
G02*
X144801600Y-88420400I-237500J0D01*
G01*
X144326600Y-88420400D01*
G75*
G02*
X144089100Y-88182900I0J237500D01*
G01*
X144089100Y-87682900D01*
G75*
G02*
X144326600Y-87445400I237500J0D01*
G01*
G37*
%TD.AperFunction*%
%TD*%
%TO.P,R8,1*%
%TO.N,OSC8_OUT*%
%TA.AperFunction,SMDPad,CuDef*%
G36*
G01*
X155956813Y-102549808D02*
X156431813Y-102549808D01*
G75*
G02*
X156669313Y-102787308I0J-237500D01*
G01*
X156669313Y-103287308D01*
G75*
G02*
X156431813Y-103524808I-237500J0D01*
G01*
X155956813Y-103524808D01*
G75*
G02*
X155719313Y-103287308I0J237500D01*
G01*
X155719313Y-102787308D01*
G75*
G02*
X155956813Y-102549808I237500J0D01*
G01*
G37*
%TD.AperFunction*%
%TO.P,R8,2*%
%TO.N,OSC8_IN*%
%TA.AperFunction,SMDPad,CuDef*%
G36*
G01*
X155956813Y-104374808D02*
X156431813Y-104374808D01*
G75*
G02*
X156669313Y-104612308I0J-237500D01*
G01*
X156669313Y-105112308D01*
G75*
G02*
X156431813Y-105349808I-237500J0D01*
G01*
X155956813Y-105349808D01*
G75*
G02*
X155719313Y-105112308I0J237500D01*
G01*
X155719313Y-104612308D01*
G75*
G02*
X155956813Y-104374808I237500J0D01*
G01*
G37*
%TD.AperFunction*%
%TD*%
%TO.P,R9,1*%
%TO.N,ADC_BATT*%
%TA.AperFunction,SMDPad,CuDef*%
G36*
G01*
X149641100Y-118779300D02*
X149641100Y-118304300D01*
G75*
G02*
X149878600Y-118066800I237500J0D01*
G01*
X150378600Y-118066800D01*
G75*
G02*
X150616100Y-118304300I0J-237500D01*
G01*
X150616100Y-118779300D01*
G75*
G02*
X150378600Y-119016800I-237500J0D01*
G01*
X149878600Y-119016800D01*
G75*
G02*
X149641100Y-118779300I0J237500D01*
G01*
G37*
%TD.AperFunction*%
%TO.P,R9,2*%
%TO.N,VCC*%
%TA.AperFunction,SMDPad,CuDef*%
G36*
G01*
X151466100Y-118779300D02*
X151466100Y-118304300D01*
G75*
G02*
X151703600Y-118066800I237500J0D01*
G01*
X152203600Y-118066800D01*
G75*
G02*
X152441100Y-118304300I0J-237500D01*
G01*
X152441100Y-118779300D01*
G75*
G02*
X152203600Y-119016800I-237500J0D01*
G01*
X151703600Y-119016800D01*
G75*
G02*
X151466100Y-118779300I0J237500D01*
G01*
G37*
%TD.AperFunction*%
%TD*%
%TO.P,R10,2*%
%TO.N,ADC_BATT*%
%TA.AperFunction,SMDPad,CuDef*%
G36*
G01*
X148087900Y-118779300D02*
X148087900Y-118304300D01*
G75*
G02*
X148325400Y-118066800I237500J0D01*
G01*
X148825400Y-118066800D01*
G75*
G02*
X149062900Y-118304300I0J-237500D01*
G01*
X149062900Y-118779300D01*
G75*
G02*
X148825400Y-119016800I-237500J0D01*
G01*
X148325400Y-119016800D01*
G75*
G02*
X148087900Y-118779300I0J237500D01*
G01*
G37*
%TD.AperFunction*%
%TO.P,R10,1*%
%TO.N,GND*%
%TA.AperFunction,SMDPad,CuDef*%
G36*
G01*
X146262900Y-118779300D02*
X146262900Y-118304300D01*
G75*
G02*
X146500400Y-118066800I237500J0D01*
G01*
X147000400Y-118066800D01*
G75*
G02*
X147237900Y-118304300I0J-237500D01*
G01*
X147237900Y-118779300D01*
G75*
G02*
X147000400Y-119016800I-237500J0D01*
G01*
X146500400Y-119016800D01*
G75*
G02*
X146262900Y-118779300I0J237500D01*
G01*
G37*
%TD.AperFunction*%
%TD*%
%TO.P,R15,1*%
%TO.N,Net-(Q3-Pad2)*%
%TA.AperFunction,SMDPad,CuDef*%
G36*
G01*
X145532300Y-117542300D02*
X145532300Y-118017300D01*
G75*
G02*
X145294800Y-118254800I-237500J0D01*
G01*
X144794800Y-118254800D01*
G75*
G02*
X144557300Y-118017300I0J237500D01*
G01*
X144557300Y-117542300D01*
G75*
G02*
X144794800Y-117304800I237500J0D01*
G01*
X145294800Y-117304800D01*
G75*
G02*
X145532300Y-117542300I0J-237500D01*
G01*
G37*
%TD.AperFunction*%
%TO.P,R15,2*%
%TO.N,M2_PWM*%
%TA.AperFunction,SMDPad,CuDef*%
G36*
G01*
X143707300Y-117542300D02*
X143707300Y-118017300D01*
G75*
G02*
X143469800Y-118254800I-237500J0D01*
G01*
X142969800Y-118254800D01*
G75*
G02*
X142732300Y-118017300I0J237500D01*
G01*
X142732300Y-117542300D01*
G75*
G02*
X142969800Y-117304800I237500J0D01*
G01*
X143469800Y-117304800D01*
G75*
G02*
X143707300Y-117542300I0J-237500D01*
G01*
G37*
%TD.AperFunction*%
%TD*%
%TO.P,R16,1*%
%TO.N,Net-(Q4-Pad2)*%
%TA.AperFunction,SMDPad,CuDef*%
G36*
G01*
X153324100Y-118093500D02*
X153324100Y-117618500D01*
G75*
G02*
X153561600Y-117381000I237500J0D01*
G01*
X154061600Y-117381000D01*
G75*
G02*
X154299100Y-117618500I0J-237500D01*
G01*
X154299100Y-118093500D01*
G75*
G02*
X154061600Y-118331000I-237500J0D01*
G01*
X153561600Y-118331000D01*
G75*
G02*
X153324100Y-118093500I0J237500D01*
G01*
G37*
%TD.AperFunction*%
%TO.P,R16,2*%
%TO.N,M4_PWM*%
%TA.AperFunction,SMDPad,CuDef*%
G36*
G01*
X155149100Y-118093500D02*
X155149100Y-117618500D01*
G75*
G02*
X155386600Y-117381000I237500J0D01*
G01*
X155886600Y-117381000D01*
G75*
G02*
X156124100Y-117618500I0J-237500D01*
G01*
X156124100Y-118093500D01*
G75*
G02*
X155886600Y-118331000I-237500J0D01*
G01*
X155386600Y-118331000D01*
G75*
G02*
X155149100Y-118093500I0J237500D01*
G01*
G37*
%TD.AperFunction*%
%TD*%
%TO.P,R17,2*%
%TO.N,Net-(Q3-Pad2)*%
%TA.AperFunction,SMDPad,CuDef*%
G36*
G01*
X145335000Y-121063200D02*
X144860000Y-121063200D01*
G75*
G02*
X144622500Y-120825700I0J237500D01*
G01*
X144622500Y-120325700D01*
G75*
G02*
X144860000Y-120088200I237500J0D01*
G01*
X145335000Y-120088200D01*
G75*
G02*
X145572500Y-120325700I0J-237500D01*
G01*
X145572500Y-120825700D01*
G75*
G02*
X145335000Y-121063200I-237500J0D01*
G01*
G37*
%TD.AperFunction*%
%TO.P,R17,1*%
%TO.N,GND*%
%TA.AperFunction,SMDPad,CuDef*%
G36*
G01*
X145335000Y-122888200D02*
X144860000Y-122888200D01*
G75*
G02*
X144622500Y-122650700I0J237500D01*
G01*
X144622500Y-122150700D01*
G75*
G02*
X144860000Y-121913200I237500J0D01*
G01*
X145335000Y-121913200D01*
G75*
G02*
X145572500Y-122150700I0J-237500D01*
G01*
X145572500Y-122650700D01*
G75*
G02*
X145335000Y-122888200I-237500J0D01*
G01*
G37*
%TD.AperFunction*%
%TD*%
%TO.P,R18,1*%
%TO.N,GND*%
%TA.AperFunction,SMDPad,CuDef*%
G36*
G01*
X153742400Y-122862800D02*
X153267400Y-122862800D01*
G75*
G02*
X153029900Y-122625300I0J237500D01*
G01*
X153029900Y-122125300D01*
G75*
G02*
X153267400Y-121887800I237500J0D01*
G01*
X153742400Y-121887800D01*
G75*
G02*
X153979900Y-122125300I0J-237500D01*
G01*
X153979900Y-122625300D01*
G75*
G02*
X153742400Y-122862800I-237500J0D01*
G01*
G37*
%TD.AperFunction*%
%TO.P,R18,2*%
%TO.N,Net-(Q4-Pad2)*%
%TA.AperFunction,SMDPad,CuDef*%
G36*
G01*
X153742400Y-121037800D02*
X153267400Y-121037800D01*
G75*
G02*
X153029900Y-120800300I0J237500D01*
G01*
X153029900Y-120300300D01*
G75*
G02*
X153267400Y-120062800I237500J0D01*
G01*
X153742400Y-120062800D01*
G75*
G02*
X153979900Y-120300300I0J-237500D01*
G01*
X153979900Y-120800300D01*
G75*
G02*
X153742400Y-121037800I-237500J0D01*
G01*
G37*
%TD.AperFunction*%
%TD*%
D13*
%TO.N,GND*%
X160444968Y-101068326D03*
X155386675Y-99063754D03*
X154826831Y-95243735D03*
X160312100Y-94386400D03*
X157377131Y-81414449D03*
X157710040Y-101394371D03*
X159695982Y-106235629D03*
X140381255Y-101659849D03*
X139738100Y-111912400D03*
X139738100Y-89560400D03*
X139536800Y-81231100D03*
X140314646Y-122470447D03*
X145096371Y-123291395D03*
X153528803Y-123316728D03*
X157772100Y-117146400D03*
X160337500Y-108839000D03*
X146850100Y-98044000D03*
X150837900Y-106349800D03*
X153377900Y-111353600D03*
X148450300Y-113385600D03*
X154665600Y-115214400D03*
X144259300Y-115163600D03*
X146951700Y-91160600D03*
X144360900Y-99872800D03*
X143776700Y-106259400D03*
%TO.N,+3V3*%
X160312100Y-98704400D03*
X156502100Y-100990400D03*
X139484967Y-99883934D03*
X140246100Y-120548400D03*
X157772100Y-121310400D03*
X146697700Y-105892600D03*
X151828500Y-105892600D03*
X146697700Y-102641400D03*
X149898100Y-112979200D03*
X143548100Y-112166400D03*
X147053300Y-86080600D03*
X143827500Y-92964000D03*
X152266376Y-109447150D03*
X158826200Y-111594900D03*
X148082000Y-110605400D03*
X154388739Y-107063057D03*
%TO.N,+3.3VA*%
X153365200Y-107594400D03*
X151879300Y-102285800D03*
X154686000Y-111658400D03*
%TO.N,OSC8_IN*%
X156357810Y-106297410D03*
%TO.N,OSC32_IN*%
X158051500Y-109270800D03*
%TO.N,OSC32_OUT*%
X158051500Y-106680000D03*
%TO.N,OSC8_OUT*%
X159680793Y-101943179D03*
%TO.N,VCC*%
X162109974Y-84298165D03*
X135779941Y-84318309D03*
X161328100Y-118516400D03*
X151968200Y-119468900D03*
%TO.N,Net-(C27-Pad2)*%
X160058100Y-93116400D03*
%TO.N,Net-(C28-Pad1)*%
X158697442Y-101144581D03*
%TO.N,Net-(D2-Pad1)*%
X155206700Y-109194600D03*
%TO.N,Net-(D3-Pad1)*%
X142582900Y-99517200D03*
%TO.N,UART1_RX*%
X143094992Y-104237508D03*
%TO.N,UART1_TX*%
X143802100Y-103530400D03*
%TO.N,I2C1_SDA*%
X149390100Y-109880400D03*
X151365100Y-109880400D03*
%TO.N,I2C2_SCL*%
X146088100Y-89560400D03*
X147104100Y-101244400D03*
%TO.N,I2C2_SDA*%
X144774079Y-90284053D03*
X144818100Y-97205800D03*
%TO.N,SPI1_CE*%
X147530100Y-94687517D03*
X152230801Y-98012451D03*
%TO.N,SPI1_SCK*%
X151676100Y-97180400D03*
X150152100Y-95148400D03*
%TO.N,ADC_BATT*%
X149085300Y-106451400D03*
X141160500Y-109524800D03*
X144335500Y-108700400D03*
%TO.N,M1_PWM*%
X152143715Y-101311666D03*
X152835097Y-88835400D03*
%TO.N,M2_PWM*%
X155168600Y-101117400D03*
%TO.N,M3_PWM*%
X153581100Y-100025200D03*
X153835100Y-88835400D03*
%TO.N,M4_PWM*%
X154495500Y-96545400D03*
%TO.N,Net-(Q3-Pad2)*%
X144360900Y-116484400D03*
%TO.N,Net-(Q4-Pad2)*%
X154444700Y-113842800D03*
%TD*%
D14*
%TO.N,GND*%
X160412600Y-101035958D02*
X160444968Y-101068326D01*
X160412600Y-99974400D02*
X160412600Y-101035958D01*
X155385600Y-99064829D02*
X155386675Y-99063754D01*
X155385600Y-99974400D02*
X155385600Y-99064829D01*
X160312100Y-94386400D02*
X161074100Y-94386400D01*
X161480500Y-94792800D02*
X161480500Y-95632100D01*
X161074100Y-94386400D02*
X161480500Y-94792800D01*
X157164700Y-93141800D02*
X155206700Y-93141800D01*
X154826831Y-93521669D02*
X154826831Y-95243735D01*
X155206700Y-93141800D02*
X154826831Y-93521669D01*
X159774613Y-103035408D02*
X159774613Y-104864208D01*
X159774613Y-106156998D02*
X159695982Y-106235629D01*
X159774613Y-104864208D02*
X159774613Y-106156998D01*
X140600600Y-101440504D02*
X140381255Y-101659849D01*
X140600600Y-100736400D02*
X140600600Y-101440504D01*
X137501800Y-82829400D02*
X138849100Y-82829400D01*
X139536800Y-82141700D02*
X139536800Y-81231100D01*
X138849100Y-82829400D02*
X139536800Y-82141700D01*
X161227600Y-80516900D02*
X162090100Y-79654400D01*
X161092051Y-81414449D02*
X161227600Y-81278900D01*
X157377131Y-81414449D02*
X161092051Y-81414449D01*
X161227600Y-81278900D02*
X161227600Y-80516900D01*
X161227600Y-82829400D02*
X161227600Y-81278900D01*
X138266800Y-81231100D02*
X136690100Y-79654400D01*
X139536800Y-81231100D02*
X138266800Y-81231100D01*
X139408599Y-121564400D02*
X140314646Y-122470447D01*
X136690100Y-121564400D02*
X139408599Y-121564400D01*
X145097500Y-123290266D02*
X145096371Y-123291395D01*
X145097500Y-122400700D02*
X145097500Y-123290266D01*
X153504900Y-123292825D02*
X153528803Y-123316728D01*
X153504900Y-122375300D02*
X153504900Y-123292825D01*
X157772100Y-118415900D02*
X157772100Y-117146400D01*
X157772100Y-117146400D02*
X159196100Y-117146400D01*
X159296100Y-117246400D02*
X159296100Y-118415900D01*
X159196100Y-117146400D02*
X159296100Y-117246400D01*
X160336400Y-108840100D02*
X160337500Y-108839000D01*
X159777600Y-108840100D02*
X160336400Y-108840100D01*
X159777600Y-107594400D02*
X159777600Y-108840100D01*
X159777600Y-108840100D02*
X159777600Y-110134400D01*
X148423800Y-103428800D02*
X148423800Y-104978200D01*
X148423800Y-103428800D02*
X150102400Y-103428800D01*
X150354200Y-103177000D02*
X150102400Y-103428800D01*
X150354200Y-101854000D02*
X150354200Y-103177000D01*
X148423800Y-104978200D02*
X150102400Y-104978200D01*
X153175800Y-111151500D02*
X153377900Y-111353600D01*
X151574500Y-111151500D02*
X153175800Y-111151500D01*
X153379800Y-111351700D02*
X153377900Y-111353600D01*
X153379800Y-110109000D02*
X153379800Y-111351700D01*
X148450300Y-113385600D02*
X148450300Y-112903000D01*
X148398400Y-112851100D02*
X147231100Y-112851100D01*
X148450300Y-112903000D02*
X148398400Y-112851100D01*
X144359000Y-99870900D02*
X144360900Y-99872800D01*
X144359000Y-98679000D02*
X144359000Y-99870900D01*
X146750400Y-120747800D02*
X145097500Y-122400700D01*
X146750400Y-118541800D02*
X146750400Y-120747800D01*
X157086300Y-114908500D02*
X155790900Y-116203900D01*
X157314900Y-114908500D02*
X157086300Y-114908500D01*
X154801400Y-115214400D02*
X155790900Y-116203900D01*
X154665600Y-115214400D02*
X154801400Y-115214400D01*
X150102400Y-105614300D02*
X150837900Y-106349800D01*
X150102400Y-104978200D02*
X150102400Y-105614300D01*
%TO.N,+3V3*%
X160312100Y-98704400D02*
X161328100Y-98704400D01*
X161480500Y-98552000D02*
X161328100Y-98704400D01*
X161480500Y-97357100D02*
X161480500Y-98552000D01*
X157010100Y-100990400D02*
X156502100Y-100990400D01*
X157110600Y-99974400D02*
X157110600Y-100889900D01*
X157110600Y-100889900D02*
X157010100Y-100990400D01*
X138875600Y-100493301D02*
X139484967Y-99883934D01*
X138875600Y-100736400D02*
X138875600Y-100493301D01*
X157772100Y-121310400D02*
X157772100Y-120140900D01*
X151827400Y-103428800D02*
X151827400Y-104978200D01*
X146698800Y-103428800D02*
X146698800Y-104978200D01*
X146698800Y-105891500D02*
X146697700Y-105892600D01*
X146698800Y-104978200D02*
X146698800Y-105891500D01*
X148273600Y-101854000D02*
X146698800Y-103428800D01*
X148629200Y-101854000D02*
X148273600Y-101854000D01*
X151827400Y-105891500D02*
X151828500Y-105892600D01*
X151827400Y-104978200D02*
X151827400Y-105891500D01*
X146698800Y-102642500D02*
X146697700Y-102641400D01*
X146698800Y-103428800D02*
X146698800Y-102642500D01*
X151471800Y-112979200D02*
X151574500Y-112876500D01*
X149898100Y-112979200D02*
X151471800Y-112979200D01*
X144564100Y-86107900D02*
X146088100Y-86107900D01*
X147026000Y-86107900D02*
X147053300Y-86080600D01*
X146088100Y-86107900D02*
X147026000Y-86107900D01*
X158800800Y-111620300D02*
X158826200Y-111594900D01*
X157694600Y-111620300D02*
X158800800Y-111620300D01*
X147561300Y-111126100D02*
X148082000Y-110605400D01*
X147231100Y-111126100D02*
X147561300Y-111126100D01*
%TO.N,+3.3VA*%
X152444985Y-102285800D02*
X153365200Y-103206015D01*
X151879300Y-102285800D02*
X152444985Y-102285800D01*
X155906500Y-111658400D02*
X155944600Y-111620300D01*
X154686000Y-111658400D02*
X155906500Y-111658400D01*
X155790900Y-111774000D02*
X155944600Y-111620300D01*
X155792000Y-113183500D02*
X155790900Y-113182400D01*
X157314900Y-113183500D02*
X155792000Y-113183500D01*
X155790900Y-113182400D02*
X155790900Y-111774000D01*
X155790900Y-114478900D02*
X155790900Y-113182400D01*
X153365200Y-107594400D02*
X153365200Y-103206015D01*
%TO.N,OSC8_IN*%
X156196213Y-104864208D02*
X156194313Y-104862308D01*
X158049613Y-104864208D02*
X156196213Y-104864208D01*
X156357810Y-105025805D02*
X156194313Y-104862308D01*
X156357810Y-106297410D02*
X156357810Y-105025805D01*
%TO.N,OSC32_IN*%
X158052600Y-109271900D02*
X158051500Y-109270800D01*
X158052600Y-110134400D02*
X158052600Y-109271900D01*
%TO.N,OSC32_OUT*%
X158051500Y-107593300D02*
X158052600Y-107594400D01*
X158051500Y-106680000D02*
X158051500Y-107593300D01*
%TO.N,OSC8_OUT*%
X156196213Y-103035408D02*
X156194313Y-103037308D01*
X158049613Y-103035408D02*
X156196213Y-103035408D01*
X159141842Y-101943179D02*
X159680793Y-101943179D01*
X158049613Y-103035408D02*
X159141842Y-101943179D01*
%TO.N,VCC*%
X162109974Y-84298165D02*
X162526335Y-84298165D01*
X162952600Y-83871900D02*
X162952600Y-82829400D01*
X162526335Y-84298165D02*
X162952600Y-83871900D01*
X135776800Y-84315168D02*
X135779941Y-84318309D01*
X135776800Y-82829400D02*
X135776800Y-84315168D01*
X159703600Y-120140900D02*
X161328100Y-118516400D01*
X159296100Y-120140900D02*
X159703600Y-120140900D01*
X151953600Y-119454300D02*
X151968200Y-119468900D01*
X151953600Y-118541800D02*
X151953600Y-119454300D01*
%TO.N,Net-(C27-Pad2)*%
X160032700Y-93141800D02*
X160058100Y-93116400D01*
X158889700Y-93141800D02*
X160032700Y-93141800D01*
%TO.N,Net-(C28-Pad1)*%
X158697442Y-99984242D02*
X158687600Y-99974400D01*
X158697442Y-101144581D02*
X158697442Y-99984242D01*
%TO.N,Net-(D2-Pad1)*%
X155206700Y-110107100D02*
X155204800Y-110109000D01*
X155206700Y-109194600D02*
X155206700Y-110107100D01*
%TO.N,Net-(D3-Pad1)*%
X142582900Y-98727900D02*
X142534000Y-98679000D01*
X142582900Y-99517200D02*
X142582900Y-98727900D01*
%TO.N,UART1_RX*%
X143094992Y-104237508D02*
X141316992Y-104237508D01*
X141316992Y-104237508D02*
X141316992Y-107539508D01*
X140779500Y-108077000D02*
X139738100Y-108077000D01*
X141316992Y-107539508D02*
X140779500Y-108077000D01*
%TO.N,UART1_TX*%
X139738100Y-105179990D02*
X139738100Y-105537000D01*
X141405583Y-103512507D02*
X139738100Y-105179990D01*
X143460886Y-103530400D02*
X143442993Y-103512507D01*
X143442993Y-103512507D02*
X141405583Y-103512507D01*
X143802100Y-103530400D02*
X143460886Y-103530400D01*
%TO.N,I2C1_SDA*%
X149390100Y-109880400D02*
X151365100Y-109880400D01*
%TO.N,I2C2_SCL*%
X146088100Y-87932900D02*
X146088100Y-89560400D01*
X146088100Y-100228400D02*
X146088100Y-89560400D01*
X147104100Y-101244400D02*
X146088100Y-100228400D01*
%TO.N,I2C2_SDA*%
X144564100Y-87932900D02*
X144564100Y-90074074D01*
X144564100Y-90074074D02*
X144774079Y-90284053D01*
X144818100Y-90328074D02*
X144774079Y-90284053D01*
X144774079Y-97161779D02*
X144818100Y-97205800D01*
X144774079Y-90284053D02*
X144774079Y-97161779D01*
%TO.N,SPI1_CE*%
X152230801Y-98012451D02*
X152230801Y-97989101D01*
X152230801Y-97989101D02*
X149690801Y-97989101D01*
X147530100Y-95828400D02*
X147530100Y-94687517D01*
X149690801Y-97989101D02*
X147530100Y-95828400D01*
%TO.N,SPI1_SCK*%
X150152100Y-95656400D02*
X150152100Y-95148400D01*
X151676100Y-97180400D02*
X150152100Y-95656400D01*
%TO.N,ADC_BATT*%
X149339300Y-118541800D02*
X148272500Y-118541800D01*
X150128600Y-118541800D02*
X149339300Y-118541800D01*
X149339300Y-118541800D02*
X148575400Y-118541800D01*
X146353699Y-106617601D02*
X148919099Y-106617601D01*
X148919099Y-106617601D02*
X149085300Y-106451400D01*
X148272500Y-118541800D02*
X145884900Y-116154200D01*
X145884900Y-116154200D02*
X145732500Y-116001800D01*
X146353699Y-106617601D02*
X145058299Y-106617601D01*
X145058299Y-106617601D02*
X144462500Y-107213400D01*
X144462500Y-107213400D02*
X142455900Y-107213400D01*
X141160500Y-108508800D02*
X141160500Y-109524800D01*
X142455900Y-107213400D02*
X141160500Y-108508800D01*
X144335500Y-108700400D02*
X145670100Y-108700400D01*
X145884900Y-108915200D02*
X145884900Y-110109000D01*
X145670100Y-108700400D02*
X145884900Y-108915200D01*
X145884900Y-110109000D02*
X145884900Y-109728000D01*
X145884900Y-116154200D02*
X145884900Y-110109000D01*
%TO.N,M1_PWM*%
X152143715Y-101311666D02*
X152143715Y-100141785D01*
X152143715Y-100141785D02*
X152996900Y-99288600D01*
X152996900Y-88997203D02*
X152835097Y-88835400D01*
X152996900Y-99288600D02*
X152996900Y-88997203D01*
%TO.N,M2_PWM*%
X155155900Y-106168502D02*
X155155900Y-101498400D01*
X155181300Y-106193902D02*
X155155900Y-106168502D01*
X155168600Y-101485700D02*
X155155900Y-101498400D01*
X155168600Y-101117400D02*
X155168600Y-101485700D01*
X155181300Y-108089700D02*
X155181300Y-106934000D01*
X142659100Y-107975400D02*
X152260300Y-107975400D01*
X142100300Y-108534200D02*
X142659100Y-107975400D01*
X154914600Y-108356400D02*
X155181300Y-108089700D01*
X152260300Y-107975400D02*
X152641300Y-108356400D01*
X142100300Y-112115600D02*
X142100300Y-108534200D01*
X143219800Y-113235100D02*
X142100300Y-112115600D01*
X143219800Y-117779800D02*
X143219800Y-113235100D01*
X152641300Y-108356400D02*
X154914600Y-108356400D01*
X155181300Y-106934000D02*
X155181300Y-106193902D01*
X155181300Y-107295802D02*
X155181300Y-106934000D01*
%TO.N,M3_PWM*%
X153581100Y-89089400D02*
X153835100Y-88835400D01*
X153581100Y-100025200D02*
X153581100Y-89089400D01*
%TO.N,M4_PWM*%
X154546300Y-96494600D02*
X163436300Y-96494600D01*
X154495500Y-96545400D02*
X154546300Y-96494600D01*
X155636600Y-117856000D02*
X155636600Y-118070000D01*
X156917400Y-116789200D02*
X156917400Y-116640600D01*
X155636600Y-118070000D02*
X156917400Y-116789200D01*
X156917400Y-116640600D02*
X157454600Y-116103400D01*
X163436300Y-109575600D02*
X163436300Y-115658900D01*
X163436300Y-96494600D02*
X163436300Y-109575600D01*
X163436300Y-109575600D02*
X163436300Y-110056300D01*
X162991800Y-116103400D02*
X157454600Y-116103400D01*
X163436300Y-115658900D02*
X162991800Y-116103400D01*
D15*
%TO.N,Net-(Q3-Pad2)*%
X145097500Y-117832500D02*
X145044800Y-117779800D01*
X145097500Y-120575700D02*
X145097500Y-117832500D01*
X145044800Y-117168300D02*
X144360900Y-116484400D01*
X145044800Y-117779800D02*
X145044800Y-117168300D01*
%TO.N,Net-(Q4-Pad2)*%
X153811600Y-114475900D02*
X154444700Y-113842800D01*
X153811600Y-117856000D02*
X153811600Y-114475900D01*
X153811600Y-120243600D02*
X153504900Y-120550300D01*
X153811600Y-117856000D02*
X153811600Y-120243600D01*
%TD*%
M02*
