%TF.GenerationSoftware,KiCad,Pcbnew,(5.1.9)-1*%
%TF.CreationDate,2021-03-06T18:52:22-05:00*%
%TF.ProjectId,final_design_v2,66696e61-6c5f-4646-9573-69676e5f7632,rev?*%
%TF.SameCoordinates,Original*%
%TF.FileFunction,Legend,Bot*%
%TF.FilePolarity,Positive*%
%FSLAX46Y46*%
G04 Gerber Fmt 4.6, Leading zero omitted, Abs format (unit mm)*
G04 Created by KiCad (PCBNEW (5.1.9)-1) date 2021-03-06 18:52:22*
%MOMM*%
%LPD*%
G01*
G04 APERTURE LIST*
%ADD10C,0.120000*%
%ADD11C,0.100000*%
G04 APERTURE END LIST*
D10*
%TO.C,C1*%
X149345433Y-102364000D02*
X149637967Y-102364000D01*
X149345433Y-101344000D02*
X149637967Y-101344000D01*
%TO.C,C2*%
X147415033Y-102918800D02*
X147707567Y-102918800D01*
X147415033Y-103938800D02*
X147707567Y-103938800D01*
%TO.C,C3*%
X147415033Y-105488200D02*
X147707567Y-105488200D01*
X147415033Y-104468200D02*
X147707567Y-104468200D01*
%TO.C,C4*%
X151111167Y-103938800D02*
X150818633Y-103938800D01*
X151111167Y-102918800D02*
X150818633Y-102918800D01*
%TO.C,C5*%
X151111167Y-104468200D02*
X150818633Y-104468200D01*
X151111167Y-105488200D02*
X150818633Y-105488200D01*
%TO.C,C6*%
X157824900Y-113899733D02*
X157824900Y-114192267D01*
X156804900Y-113899733D02*
X156804900Y-114192267D01*
%TO.C,C7*%
X156300900Y-115195133D02*
X156300900Y-115487667D01*
X155280900Y-115195133D02*
X155280900Y-115487667D01*
%TO.C,C8*%
X159058380Y-105374208D02*
X158765846Y-105374208D01*
X159058380Y-104354208D02*
X158765846Y-104354208D01*
%TO.C,C9*%
X159061367Y-109624400D02*
X158768833Y-109624400D01*
X159061367Y-110644400D02*
X158768833Y-110644400D01*
%TO.C,C10*%
X159061367Y-107084400D02*
X158768833Y-107084400D01*
X159061367Y-108104400D02*
X158768833Y-108104400D01*
%TO.C,C11*%
X159058380Y-103545408D02*
X158765846Y-103545408D01*
X159058380Y-102525408D02*
X158765846Y-102525408D01*
%TO.C,C12*%
X151064500Y-112160267D02*
X151064500Y-111867733D01*
X152084500Y-112160267D02*
X152084500Y-111867733D01*
%TO.C,C13*%
X147741100Y-112134867D02*
X147741100Y-111842333D01*
X146721100Y-112134867D02*
X146721100Y-111842333D01*
%TO.C,C14*%
X139884367Y-100226400D02*
X139591833Y-100226400D01*
X139884367Y-101246400D02*
X139591833Y-101246400D01*
%TO.C,C15*%
X158786100Y-119132133D02*
X158786100Y-119424667D01*
X159806100Y-119132133D02*
X159806100Y-119424667D01*
%TO.C,C16*%
X158282100Y-119132133D02*
X158282100Y-119424667D01*
X157262100Y-119132133D02*
X157262100Y-119424667D01*
%TO.C,C17*%
X136785567Y-83339400D02*
X136493033Y-83339400D01*
X136785567Y-82319400D02*
X136493033Y-82319400D01*
%TO.C,C18*%
X161943833Y-82319400D02*
X162236367Y-82319400D01*
X161943833Y-83339400D02*
X162236367Y-83339400D01*
%TO.C,C21*%
X156394367Y-100484400D02*
X156101833Y-100484400D01*
X156394367Y-99464400D02*
X156101833Y-99464400D01*
%TO.C,C24*%
X160970500Y-96348333D02*
X160970500Y-96640867D01*
X161990500Y-96348333D02*
X161990500Y-96640867D01*
%TO.C,C27*%
X157880933Y-92631800D02*
X158173467Y-92631800D01*
X157880933Y-93651800D02*
X158173467Y-93651800D01*
%TO.C,C28*%
X159403833Y-100484400D02*
X159696367Y-100484400D01*
X159403833Y-99464400D02*
X159696367Y-99464400D01*
%TO.C,L1*%
X156990867Y-111110300D02*
X156648333Y-111110300D01*
X156990867Y-112130300D02*
X156648333Y-112130300D01*
%TO.C,R2*%
X154037576Y-110631500D02*
X154547024Y-110631500D01*
X154037576Y-109586500D02*
X154547024Y-109586500D01*
%TO.C,R3*%
X143701224Y-99201500D02*
X143191776Y-99201500D01*
X143701224Y-98156500D02*
X143191776Y-98156500D01*
%TO.C,R6*%
X146610600Y-86765676D02*
X146610600Y-87275124D01*
X145565600Y-86765676D02*
X145565600Y-87275124D01*
%TO.C,R7*%
X144041600Y-86765676D02*
X144041600Y-87275124D01*
X145086600Y-86765676D02*
X145086600Y-87275124D01*
%TO.C,R8*%
X155671813Y-103695084D02*
X155671813Y-104204532D01*
X156716813Y-103695084D02*
X156716813Y-104204532D01*
%TO.C,R9*%
X150786376Y-119064300D02*
X151295824Y-119064300D01*
X150786376Y-118019300D02*
X151295824Y-118019300D01*
%TO.C,R10*%
X147408176Y-118019300D02*
X147917624Y-118019300D01*
X147408176Y-119064300D02*
X147917624Y-119064300D01*
%TO.C,R15*%
X144387024Y-117257300D02*
X143877576Y-117257300D01*
X144387024Y-118302300D02*
X143877576Y-118302300D01*
%TO.C,R16*%
X154469376Y-118378500D02*
X154978824Y-118378500D01*
X154469376Y-117333500D02*
X154978824Y-117333500D01*
%TO.C,R17*%
X144575000Y-121742924D02*
X144575000Y-121233476D01*
X145620000Y-121742924D02*
X145620000Y-121233476D01*
%TO.C,R18*%
X154027400Y-121717524D02*
X154027400Y-121208076D01*
X152982400Y-121717524D02*
X152982400Y-121208076D01*
%TO.C,C1*%
D11*
X149575033Y-100889571D02*
X149598842Y-100913380D01*
X149670271Y-100937190D01*
X149717890Y-100937190D01*
X149789319Y-100913380D01*
X149836938Y-100865761D01*
X149860747Y-100818142D01*
X149884557Y-100722904D01*
X149884557Y-100651476D01*
X149860747Y-100556238D01*
X149836938Y-100508619D01*
X149789319Y-100461000D01*
X149717890Y-100437190D01*
X149670271Y-100437190D01*
X149598842Y-100461000D01*
X149575033Y-100484809D01*
X149098842Y-100937190D02*
X149384557Y-100937190D01*
X149241700Y-100937190D02*
X149241700Y-100437190D01*
X149289319Y-100508619D01*
X149336938Y-100556238D01*
X149384557Y-100580047D01*
%TO.C,C2*%
X145371333Y-103683571D02*
X145395142Y-103707380D01*
X145466571Y-103731190D01*
X145514190Y-103731190D01*
X145585619Y-103707380D01*
X145633238Y-103659761D01*
X145657047Y-103612142D01*
X145680857Y-103516904D01*
X145680857Y-103445476D01*
X145657047Y-103350238D01*
X145633238Y-103302619D01*
X145585619Y-103255000D01*
X145514190Y-103231190D01*
X145466571Y-103231190D01*
X145395142Y-103255000D01*
X145371333Y-103278809D01*
X145180857Y-103278809D02*
X145157047Y-103255000D01*
X145109428Y-103231190D01*
X144990380Y-103231190D01*
X144942761Y-103255000D01*
X144918952Y-103278809D01*
X144895142Y-103326428D01*
X144895142Y-103374047D01*
X144918952Y-103445476D01*
X145204666Y-103731190D01*
X144895142Y-103731190D01*
%TO.C,C3*%
X145371333Y-105207571D02*
X145395142Y-105231380D01*
X145466571Y-105255190D01*
X145514190Y-105255190D01*
X145585619Y-105231380D01*
X145633238Y-105183761D01*
X145657047Y-105136142D01*
X145680857Y-105040904D01*
X145680857Y-104969476D01*
X145657047Y-104874238D01*
X145633238Y-104826619D01*
X145585619Y-104779000D01*
X145514190Y-104755190D01*
X145466571Y-104755190D01*
X145395142Y-104779000D01*
X145371333Y-104802809D01*
X145204666Y-104755190D02*
X144895142Y-104755190D01*
X145061809Y-104945666D01*
X144990380Y-104945666D01*
X144942761Y-104969476D01*
X144918952Y-104993285D01*
X144895142Y-105040904D01*
X144895142Y-105159952D01*
X144918952Y-105207571D01*
X144942761Y-105231380D01*
X144990380Y-105255190D01*
X145133238Y-105255190D01*
X145180857Y-105231380D01*
X145204666Y-105207571D01*
%TO.C,C4*%
X153372333Y-103683571D02*
X153396142Y-103707380D01*
X153467571Y-103731190D01*
X153515190Y-103731190D01*
X153586619Y-103707380D01*
X153634238Y-103659761D01*
X153658047Y-103612142D01*
X153681857Y-103516904D01*
X153681857Y-103445476D01*
X153658047Y-103350238D01*
X153634238Y-103302619D01*
X153586619Y-103255000D01*
X153515190Y-103231190D01*
X153467571Y-103231190D01*
X153396142Y-103255000D01*
X153372333Y-103278809D01*
X152943761Y-103397857D02*
X152943761Y-103731190D01*
X153062809Y-103207380D02*
X153181857Y-103564523D01*
X152872333Y-103564523D01*
%TO.C,C5*%
X153372333Y-105207571D02*
X153396142Y-105231380D01*
X153467571Y-105255190D01*
X153515190Y-105255190D01*
X153586619Y-105231380D01*
X153634238Y-105183761D01*
X153658047Y-105136142D01*
X153681857Y-105040904D01*
X153681857Y-104969476D01*
X153658047Y-104874238D01*
X153634238Y-104826619D01*
X153586619Y-104779000D01*
X153515190Y-104755190D01*
X153467571Y-104755190D01*
X153396142Y-104779000D01*
X153372333Y-104802809D01*
X152919952Y-104755190D02*
X153158047Y-104755190D01*
X153181857Y-104993285D01*
X153158047Y-104969476D01*
X153110428Y-104945666D01*
X152991380Y-104945666D01*
X152943761Y-104969476D01*
X152919952Y-104993285D01*
X152896142Y-105040904D01*
X152896142Y-105159952D01*
X152919952Y-105207571D01*
X152943761Y-105231380D01*
X152991380Y-105255190D01*
X153110428Y-105255190D01*
X153158047Y-105231380D01*
X153181857Y-105207571D01*
%TO.C,C6*%
X157436333Y-116256571D02*
X157460142Y-116280380D01*
X157531571Y-116304190D01*
X157579190Y-116304190D01*
X157650619Y-116280380D01*
X157698238Y-116232761D01*
X157722047Y-116185142D01*
X157745857Y-116089904D01*
X157745857Y-116018476D01*
X157722047Y-115923238D01*
X157698238Y-115875619D01*
X157650619Y-115828000D01*
X157579190Y-115804190D01*
X157531571Y-115804190D01*
X157460142Y-115828000D01*
X157436333Y-115851809D01*
X157007761Y-115804190D02*
X157103000Y-115804190D01*
X157150619Y-115828000D01*
X157174428Y-115851809D01*
X157222047Y-115923238D01*
X157245857Y-116018476D01*
X157245857Y-116208952D01*
X157222047Y-116256571D01*
X157198238Y-116280380D01*
X157150619Y-116304190D01*
X157055380Y-116304190D01*
X157007761Y-116280380D01*
X156983952Y-116256571D01*
X156960142Y-116208952D01*
X156960142Y-116089904D01*
X156983952Y-116042285D01*
X157007761Y-116018476D01*
X157055380Y-115994666D01*
X157150619Y-115994666D01*
X157198238Y-116018476D01*
X157222047Y-116042285D01*
X157245857Y-116089904D01*
%TO.C,C7*%
X155785333Y-113462571D02*
X155809142Y-113486380D01*
X155880571Y-113510190D01*
X155928190Y-113510190D01*
X155999619Y-113486380D01*
X156047238Y-113438761D01*
X156071047Y-113391142D01*
X156094857Y-113295904D01*
X156094857Y-113224476D01*
X156071047Y-113129238D01*
X156047238Y-113081619D01*
X155999619Y-113034000D01*
X155928190Y-113010190D01*
X155880571Y-113010190D01*
X155809142Y-113034000D01*
X155785333Y-113057809D01*
X155618666Y-113010190D02*
X155285333Y-113010190D01*
X155499619Y-113510190D01*
%TO.C,C8*%
X159087333Y-106223571D02*
X159111142Y-106247380D01*
X159182571Y-106271190D01*
X159230190Y-106271190D01*
X159301619Y-106247380D01*
X159349238Y-106199761D01*
X159373047Y-106152142D01*
X159396857Y-106056904D01*
X159396857Y-105985476D01*
X159373047Y-105890238D01*
X159349238Y-105842619D01*
X159301619Y-105795000D01*
X159230190Y-105771190D01*
X159182571Y-105771190D01*
X159111142Y-105795000D01*
X159087333Y-105818809D01*
X158801619Y-105985476D02*
X158849238Y-105961666D01*
X158873047Y-105937857D01*
X158896857Y-105890238D01*
X158896857Y-105866428D01*
X158873047Y-105818809D01*
X158849238Y-105795000D01*
X158801619Y-105771190D01*
X158706380Y-105771190D01*
X158658761Y-105795000D01*
X158634952Y-105818809D01*
X158611142Y-105866428D01*
X158611142Y-105890238D01*
X158634952Y-105937857D01*
X158658761Y-105961666D01*
X158706380Y-105985476D01*
X158801619Y-105985476D01*
X158849238Y-106009285D01*
X158873047Y-106033095D01*
X158896857Y-106080714D01*
X158896857Y-106175952D01*
X158873047Y-106223571D01*
X158849238Y-106247380D01*
X158801619Y-106271190D01*
X158706380Y-106271190D01*
X158658761Y-106247380D01*
X158634952Y-106223571D01*
X158611142Y-106175952D01*
X158611142Y-106080714D01*
X158634952Y-106033095D01*
X158658761Y-106009285D01*
X158706380Y-105985476D01*
%TO.C,C9*%
X161246333Y-110414571D02*
X161270142Y-110438380D01*
X161341571Y-110462190D01*
X161389190Y-110462190D01*
X161460619Y-110438380D01*
X161508238Y-110390761D01*
X161532047Y-110343142D01*
X161555857Y-110247904D01*
X161555857Y-110176476D01*
X161532047Y-110081238D01*
X161508238Y-110033619D01*
X161460619Y-109986000D01*
X161389190Y-109962190D01*
X161341571Y-109962190D01*
X161270142Y-109986000D01*
X161246333Y-110009809D01*
X161008238Y-110462190D02*
X160913000Y-110462190D01*
X160865380Y-110438380D01*
X160841571Y-110414571D01*
X160793952Y-110343142D01*
X160770142Y-110247904D01*
X160770142Y-110057428D01*
X160793952Y-110009809D01*
X160817761Y-109986000D01*
X160865380Y-109962190D01*
X160960619Y-109962190D01*
X161008238Y-109986000D01*
X161032047Y-110009809D01*
X161055857Y-110057428D01*
X161055857Y-110176476D01*
X161032047Y-110224095D01*
X161008238Y-110247904D01*
X160960619Y-110271714D01*
X160865380Y-110271714D01*
X160817761Y-110247904D01*
X160793952Y-110224095D01*
X160770142Y-110176476D01*
%TO.C,C10*%
X161738428Y-107747571D02*
X161762238Y-107771380D01*
X161833666Y-107795190D01*
X161881285Y-107795190D01*
X161952714Y-107771380D01*
X162000333Y-107723761D01*
X162024142Y-107676142D01*
X162047952Y-107580904D01*
X162047952Y-107509476D01*
X162024142Y-107414238D01*
X162000333Y-107366619D01*
X161952714Y-107319000D01*
X161881285Y-107295190D01*
X161833666Y-107295190D01*
X161762238Y-107319000D01*
X161738428Y-107342809D01*
X161262238Y-107795190D02*
X161547952Y-107795190D01*
X161405095Y-107795190D02*
X161405095Y-107295190D01*
X161452714Y-107366619D01*
X161500333Y-107414238D01*
X161547952Y-107438047D01*
X160952714Y-107295190D02*
X160905095Y-107295190D01*
X160857476Y-107319000D01*
X160833666Y-107342809D01*
X160809857Y-107390428D01*
X160786047Y-107485666D01*
X160786047Y-107604714D01*
X160809857Y-107699952D01*
X160833666Y-107747571D01*
X160857476Y-107771380D01*
X160905095Y-107795190D01*
X160952714Y-107795190D01*
X161000333Y-107771380D01*
X161024142Y-107747571D01*
X161047952Y-107699952D01*
X161071761Y-107604714D01*
X161071761Y-107485666D01*
X161047952Y-107390428D01*
X161024142Y-107342809D01*
X161000333Y-107319000D01*
X160952714Y-107295190D01*
%TO.C,C11*%
X159198428Y-102032571D02*
X159222238Y-102056380D01*
X159293666Y-102080190D01*
X159341285Y-102080190D01*
X159412714Y-102056380D01*
X159460333Y-102008761D01*
X159484142Y-101961142D01*
X159507952Y-101865904D01*
X159507952Y-101794476D01*
X159484142Y-101699238D01*
X159460333Y-101651619D01*
X159412714Y-101604000D01*
X159341285Y-101580190D01*
X159293666Y-101580190D01*
X159222238Y-101604000D01*
X159198428Y-101627809D01*
X158722238Y-102080190D02*
X159007952Y-102080190D01*
X158865095Y-102080190D02*
X158865095Y-101580190D01*
X158912714Y-101651619D01*
X158960333Y-101699238D01*
X159007952Y-101723047D01*
X158246047Y-102080190D02*
X158531761Y-102080190D01*
X158388904Y-102080190D02*
X158388904Y-101580190D01*
X158436523Y-101651619D01*
X158484142Y-101699238D01*
X158531761Y-101723047D01*
%TO.C,C12*%
X151959428Y-110160571D02*
X151983238Y-110184380D01*
X152054666Y-110208190D01*
X152102285Y-110208190D01*
X152173714Y-110184380D01*
X152221333Y-110136761D01*
X152245142Y-110089142D01*
X152268952Y-109993904D01*
X152268952Y-109922476D01*
X152245142Y-109827238D01*
X152221333Y-109779619D01*
X152173714Y-109732000D01*
X152102285Y-109708190D01*
X152054666Y-109708190D01*
X151983238Y-109732000D01*
X151959428Y-109755809D01*
X151483238Y-110208190D02*
X151768952Y-110208190D01*
X151626095Y-110208190D02*
X151626095Y-109708190D01*
X151673714Y-109779619D01*
X151721333Y-109827238D01*
X151768952Y-109851047D01*
X151292761Y-109755809D02*
X151268952Y-109732000D01*
X151221333Y-109708190D01*
X151102285Y-109708190D01*
X151054666Y-109732000D01*
X151030857Y-109755809D01*
X151007047Y-109803428D01*
X151007047Y-109851047D01*
X151030857Y-109922476D01*
X151316571Y-110208190D01*
X151007047Y-110208190D01*
%TO.C,C13*%
X147641428Y-110160571D02*
X147665238Y-110184380D01*
X147736666Y-110208190D01*
X147784285Y-110208190D01*
X147855714Y-110184380D01*
X147903333Y-110136761D01*
X147927142Y-110089142D01*
X147950952Y-109993904D01*
X147950952Y-109922476D01*
X147927142Y-109827238D01*
X147903333Y-109779619D01*
X147855714Y-109732000D01*
X147784285Y-109708190D01*
X147736666Y-109708190D01*
X147665238Y-109732000D01*
X147641428Y-109755809D01*
X147165238Y-110208190D02*
X147450952Y-110208190D01*
X147308095Y-110208190D02*
X147308095Y-109708190D01*
X147355714Y-109779619D01*
X147403333Y-109827238D01*
X147450952Y-109851047D01*
X146998571Y-109708190D02*
X146689047Y-109708190D01*
X146855714Y-109898666D01*
X146784285Y-109898666D01*
X146736666Y-109922476D01*
X146712857Y-109946285D01*
X146689047Y-109993904D01*
X146689047Y-110112952D01*
X146712857Y-110160571D01*
X146736666Y-110184380D01*
X146784285Y-110208190D01*
X146927142Y-110208190D01*
X146974761Y-110184380D01*
X146998571Y-110160571D01*
%TO.C,C14*%
X142561428Y-100889571D02*
X142585238Y-100913380D01*
X142656666Y-100937190D01*
X142704285Y-100937190D01*
X142775714Y-100913380D01*
X142823333Y-100865761D01*
X142847142Y-100818142D01*
X142870952Y-100722904D01*
X142870952Y-100651476D01*
X142847142Y-100556238D01*
X142823333Y-100508619D01*
X142775714Y-100461000D01*
X142704285Y-100437190D01*
X142656666Y-100437190D01*
X142585238Y-100461000D01*
X142561428Y-100484809D01*
X142085238Y-100937190D02*
X142370952Y-100937190D01*
X142228095Y-100937190D02*
X142228095Y-100437190D01*
X142275714Y-100508619D01*
X142323333Y-100556238D01*
X142370952Y-100580047D01*
X141656666Y-100603857D02*
X141656666Y-100937190D01*
X141775714Y-100413380D02*
X141894761Y-100770523D01*
X141585238Y-100770523D01*
%TO.C,C15*%
X159706428Y-117399571D02*
X159730238Y-117423380D01*
X159801666Y-117447190D01*
X159849285Y-117447190D01*
X159920714Y-117423380D01*
X159968333Y-117375761D01*
X159992142Y-117328142D01*
X160015952Y-117232904D01*
X160015952Y-117161476D01*
X159992142Y-117066238D01*
X159968333Y-117018619D01*
X159920714Y-116971000D01*
X159849285Y-116947190D01*
X159801666Y-116947190D01*
X159730238Y-116971000D01*
X159706428Y-116994809D01*
X159230238Y-117447190D02*
X159515952Y-117447190D01*
X159373095Y-117447190D02*
X159373095Y-116947190D01*
X159420714Y-117018619D01*
X159468333Y-117066238D01*
X159515952Y-117090047D01*
X158777857Y-116947190D02*
X159015952Y-116947190D01*
X159039761Y-117185285D01*
X159015952Y-117161476D01*
X158968333Y-117137666D01*
X158849285Y-117137666D01*
X158801666Y-117161476D01*
X158777857Y-117185285D01*
X158754047Y-117232904D01*
X158754047Y-117351952D01*
X158777857Y-117399571D01*
X158801666Y-117423380D01*
X158849285Y-117447190D01*
X158968333Y-117447190D01*
X159015952Y-117423380D01*
X159039761Y-117399571D01*
%TO.C,C16*%
X158055428Y-117399571D02*
X158079238Y-117423380D01*
X158150666Y-117447190D01*
X158198285Y-117447190D01*
X158269714Y-117423380D01*
X158317333Y-117375761D01*
X158341142Y-117328142D01*
X158364952Y-117232904D01*
X158364952Y-117161476D01*
X158341142Y-117066238D01*
X158317333Y-117018619D01*
X158269714Y-116971000D01*
X158198285Y-116947190D01*
X158150666Y-116947190D01*
X158079238Y-116971000D01*
X158055428Y-116994809D01*
X157579238Y-117447190D02*
X157864952Y-117447190D01*
X157722095Y-117447190D02*
X157722095Y-116947190D01*
X157769714Y-117018619D01*
X157817333Y-117066238D01*
X157864952Y-117090047D01*
X157150666Y-116947190D02*
X157245904Y-116947190D01*
X157293523Y-116971000D01*
X157317333Y-116994809D01*
X157364952Y-117066238D01*
X157388761Y-117161476D01*
X157388761Y-117351952D01*
X157364952Y-117399571D01*
X157341142Y-117423380D01*
X157293523Y-117447190D01*
X157198285Y-117447190D01*
X157150666Y-117423380D01*
X157126857Y-117399571D01*
X157103047Y-117351952D01*
X157103047Y-117232904D01*
X157126857Y-117185285D01*
X157150666Y-117161476D01*
X157198285Y-117137666D01*
X157293523Y-117137666D01*
X157341142Y-117161476D01*
X157364952Y-117185285D01*
X157388761Y-117232904D01*
%TO.C,C17*%
X136960728Y-84125571D02*
X136984538Y-84149380D01*
X137055966Y-84173190D01*
X137103585Y-84173190D01*
X137175014Y-84149380D01*
X137222633Y-84101761D01*
X137246442Y-84054142D01*
X137270252Y-83958904D01*
X137270252Y-83887476D01*
X137246442Y-83792238D01*
X137222633Y-83744619D01*
X137175014Y-83697000D01*
X137103585Y-83673190D01*
X137055966Y-83673190D01*
X136984538Y-83697000D01*
X136960728Y-83720809D01*
X136484538Y-84173190D02*
X136770252Y-84173190D01*
X136627395Y-84173190D02*
X136627395Y-83673190D01*
X136675014Y-83744619D01*
X136722633Y-83792238D01*
X136770252Y-83816047D01*
X136317871Y-83673190D02*
X135984538Y-83673190D01*
X136198823Y-84173190D01*
%TO.C,C18*%
X162411528Y-84125571D02*
X162435338Y-84149380D01*
X162506766Y-84173190D01*
X162554385Y-84173190D01*
X162625814Y-84149380D01*
X162673433Y-84101761D01*
X162697242Y-84054142D01*
X162721052Y-83958904D01*
X162721052Y-83887476D01*
X162697242Y-83792238D01*
X162673433Y-83744619D01*
X162625814Y-83697000D01*
X162554385Y-83673190D01*
X162506766Y-83673190D01*
X162435338Y-83697000D01*
X162411528Y-83720809D01*
X161935338Y-84173190D02*
X162221052Y-84173190D01*
X162078195Y-84173190D02*
X162078195Y-83673190D01*
X162125814Y-83744619D01*
X162173433Y-83792238D01*
X162221052Y-83816047D01*
X161649623Y-83887476D02*
X161697242Y-83863666D01*
X161721052Y-83839857D01*
X161744861Y-83792238D01*
X161744861Y-83768428D01*
X161721052Y-83720809D01*
X161697242Y-83697000D01*
X161649623Y-83673190D01*
X161554385Y-83673190D01*
X161506766Y-83697000D01*
X161482957Y-83720809D01*
X161459147Y-83768428D01*
X161459147Y-83792238D01*
X161482957Y-83839857D01*
X161506766Y-83863666D01*
X161554385Y-83887476D01*
X161649623Y-83887476D01*
X161697242Y-83911285D01*
X161721052Y-83935095D01*
X161744861Y-83982714D01*
X161744861Y-84077952D01*
X161721052Y-84125571D01*
X161697242Y-84149380D01*
X161649623Y-84173190D01*
X161554385Y-84173190D01*
X161506766Y-84149380D01*
X161482957Y-84125571D01*
X161459147Y-84077952D01*
X161459147Y-83982714D01*
X161482957Y-83935095D01*
X161506766Y-83911285D01*
X161554385Y-83887476D01*
%TO.C,C21*%
X156569528Y-98984571D02*
X156593338Y-99008380D01*
X156664766Y-99032190D01*
X156712385Y-99032190D01*
X156783814Y-99008380D01*
X156831433Y-98960761D01*
X156855242Y-98913142D01*
X156879052Y-98817904D01*
X156879052Y-98746476D01*
X156855242Y-98651238D01*
X156831433Y-98603619D01*
X156783814Y-98556000D01*
X156712385Y-98532190D01*
X156664766Y-98532190D01*
X156593338Y-98556000D01*
X156569528Y-98579809D01*
X156379052Y-98579809D02*
X156355242Y-98556000D01*
X156307623Y-98532190D01*
X156188576Y-98532190D01*
X156140957Y-98556000D01*
X156117147Y-98579809D01*
X156093338Y-98627428D01*
X156093338Y-98675047D01*
X156117147Y-98746476D01*
X156402861Y-99032190D01*
X156093338Y-99032190D01*
X155617147Y-99032190D02*
X155902861Y-99032190D01*
X155760004Y-99032190D02*
X155760004Y-98532190D01*
X155807623Y-98603619D01*
X155855242Y-98651238D01*
X155902861Y-98675047D01*
%TO.C,C24*%
X161865428Y-94666571D02*
X161889238Y-94690380D01*
X161960666Y-94714190D01*
X162008285Y-94714190D01*
X162079714Y-94690380D01*
X162127333Y-94642761D01*
X162151142Y-94595142D01*
X162174952Y-94499904D01*
X162174952Y-94428476D01*
X162151142Y-94333238D01*
X162127333Y-94285619D01*
X162079714Y-94238000D01*
X162008285Y-94214190D01*
X161960666Y-94214190D01*
X161889238Y-94238000D01*
X161865428Y-94261809D01*
X161674952Y-94261809D02*
X161651142Y-94238000D01*
X161603523Y-94214190D01*
X161484476Y-94214190D01*
X161436857Y-94238000D01*
X161413047Y-94261809D01*
X161389238Y-94309428D01*
X161389238Y-94357047D01*
X161413047Y-94428476D01*
X161698761Y-94714190D01*
X161389238Y-94714190D01*
X160960666Y-94380857D02*
X160960666Y-94714190D01*
X161079714Y-94190380D02*
X161198761Y-94547523D01*
X160889238Y-94547523D01*
%TO.C,C27*%
X158309428Y-92253571D02*
X158333238Y-92277380D01*
X158404666Y-92301190D01*
X158452285Y-92301190D01*
X158523714Y-92277380D01*
X158571333Y-92229761D01*
X158595142Y-92182142D01*
X158618952Y-92086904D01*
X158618952Y-92015476D01*
X158595142Y-91920238D01*
X158571333Y-91872619D01*
X158523714Y-91825000D01*
X158452285Y-91801190D01*
X158404666Y-91801190D01*
X158333238Y-91825000D01*
X158309428Y-91848809D01*
X158118952Y-91848809D02*
X158095142Y-91825000D01*
X158047523Y-91801190D01*
X157928476Y-91801190D01*
X157880857Y-91825000D01*
X157857047Y-91848809D01*
X157833238Y-91896428D01*
X157833238Y-91944047D01*
X157857047Y-92015476D01*
X158142761Y-92301190D01*
X157833238Y-92301190D01*
X157666571Y-91801190D02*
X157333238Y-91801190D01*
X157547523Y-92301190D01*
%TO.C,C28*%
X159833428Y-98984571D02*
X159857238Y-99008380D01*
X159928666Y-99032190D01*
X159976285Y-99032190D01*
X160047714Y-99008380D01*
X160095333Y-98960761D01*
X160119142Y-98913142D01*
X160142952Y-98817904D01*
X160142952Y-98746476D01*
X160119142Y-98651238D01*
X160095333Y-98603619D01*
X160047714Y-98556000D01*
X159976285Y-98532190D01*
X159928666Y-98532190D01*
X159857238Y-98556000D01*
X159833428Y-98579809D01*
X159642952Y-98579809D02*
X159619142Y-98556000D01*
X159571523Y-98532190D01*
X159452476Y-98532190D01*
X159404857Y-98556000D01*
X159381047Y-98579809D01*
X159357238Y-98627428D01*
X159357238Y-98675047D01*
X159381047Y-98746476D01*
X159666761Y-99032190D01*
X159357238Y-99032190D01*
X159071523Y-98746476D02*
X159119142Y-98722666D01*
X159142952Y-98698857D01*
X159166761Y-98651238D01*
X159166761Y-98627428D01*
X159142952Y-98579809D01*
X159119142Y-98556000D01*
X159071523Y-98532190D01*
X158976285Y-98532190D01*
X158928666Y-98556000D01*
X158904857Y-98579809D01*
X158881047Y-98627428D01*
X158881047Y-98651238D01*
X158904857Y-98698857D01*
X158928666Y-98722666D01*
X158976285Y-98746476D01*
X159071523Y-98746476D01*
X159119142Y-98770285D01*
X159142952Y-98794095D01*
X159166761Y-98841714D01*
X159166761Y-98936952D01*
X159142952Y-98984571D01*
X159119142Y-99008380D01*
X159071523Y-99032190D01*
X158976285Y-99032190D01*
X158928666Y-99008380D01*
X158904857Y-98984571D01*
X158881047Y-98936952D01*
X158881047Y-98841714D01*
X158904857Y-98794095D01*
X158928666Y-98770285D01*
X158976285Y-98746476D01*
%TO.C,L1*%
X159087333Y-111859190D02*
X159325428Y-111859190D01*
X159325428Y-111359190D01*
X158658761Y-111859190D02*
X158944476Y-111859190D01*
X158801619Y-111859190D02*
X158801619Y-111359190D01*
X158849238Y-111430619D01*
X158896857Y-111478238D01*
X158944476Y-111502047D01*
%TO.C,R2*%
X154388333Y-109192190D02*
X154555000Y-108954095D01*
X154674047Y-109192190D02*
X154674047Y-108692190D01*
X154483571Y-108692190D01*
X154435952Y-108716000D01*
X154412142Y-108739809D01*
X154388333Y-108787428D01*
X154388333Y-108858857D01*
X154412142Y-108906476D01*
X154435952Y-108930285D01*
X154483571Y-108954095D01*
X154674047Y-108954095D01*
X154197857Y-108739809D02*
X154174047Y-108716000D01*
X154126428Y-108692190D01*
X154007380Y-108692190D01*
X153959761Y-108716000D01*
X153935952Y-108739809D01*
X153912142Y-108787428D01*
X153912142Y-108835047D01*
X153935952Y-108906476D01*
X154221666Y-109192190D01*
X153912142Y-109192190D01*
%TO.C,R3*%
X143529833Y-97762190D02*
X143696500Y-97524095D01*
X143815547Y-97762190D02*
X143815547Y-97262190D01*
X143625071Y-97262190D01*
X143577452Y-97286000D01*
X143553642Y-97309809D01*
X143529833Y-97357428D01*
X143529833Y-97428857D01*
X143553642Y-97476476D01*
X143577452Y-97500285D01*
X143625071Y-97524095D01*
X143815547Y-97524095D01*
X143363166Y-97262190D02*
X143053642Y-97262190D01*
X143220309Y-97452666D01*
X143148880Y-97452666D01*
X143101261Y-97476476D01*
X143077452Y-97500285D01*
X143053642Y-97547904D01*
X143053642Y-97666952D01*
X143077452Y-97714571D01*
X143101261Y-97738380D01*
X143148880Y-97762190D01*
X143291738Y-97762190D01*
X143339357Y-97738380D01*
X143363166Y-97714571D01*
%TO.C,R6*%
X146133333Y-85189190D02*
X146300000Y-84951095D01*
X146419047Y-85189190D02*
X146419047Y-84689190D01*
X146228571Y-84689190D01*
X146180952Y-84713000D01*
X146157142Y-84736809D01*
X146133333Y-84784428D01*
X146133333Y-84855857D01*
X146157142Y-84903476D01*
X146180952Y-84927285D01*
X146228571Y-84951095D01*
X146419047Y-84951095D01*
X145704761Y-84689190D02*
X145800000Y-84689190D01*
X145847619Y-84713000D01*
X145871428Y-84736809D01*
X145919047Y-84808238D01*
X145942857Y-84903476D01*
X145942857Y-85093952D01*
X145919047Y-85141571D01*
X145895238Y-85165380D01*
X145847619Y-85189190D01*
X145752380Y-85189190D01*
X145704761Y-85165380D01*
X145680952Y-85141571D01*
X145657142Y-85093952D01*
X145657142Y-84974904D01*
X145680952Y-84927285D01*
X145704761Y-84903476D01*
X145752380Y-84879666D01*
X145847619Y-84879666D01*
X145895238Y-84903476D01*
X145919047Y-84927285D01*
X145942857Y-84974904D01*
%TO.C,R7*%
X144609333Y-85189190D02*
X144776000Y-84951095D01*
X144895047Y-85189190D02*
X144895047Y-84689190D01*
X144704571Y-84689190D01*
X144656952Y-84713000D01*
X144633142Y-84736809D01*
X144609333Y-84784428D01*
X144609333Y-84855857D01*
X144633142Y-84903476D01*
X144656952Y-84927285D01*
X144704571Y-84951095D01*
X144895047Y-84951095D01*
X144442666Y-84689190D02*
X144109333Y-84689190D01*
X144323619Y-85189190D01*
%TO.C,R8*%
X156293333Y-102080190D02*
X156460000Y-101842095D01*
X156579047Y-102080190D02*
X156579047Y-101580190D01*
X156388571Y-101580190D01*
X156340952Y-101604000D01*
X156317142Y-101627809D01*
X156293333Y-101675428D01*
X156293333Y-101746857D01*
X156317142Y-101794476D01*
X156340952Y-101818285D01*
X156388571Y-101842095D01*
X156579047Y-101842095D01*
X156007619Y-101794476D02*
X156055238Y-101770666D01*
X156079047Y-101746857D01*
X156102857Y-101699238D01*
X156102857Y-101675428D01*
X156079047Y-101627809D01*
X156055238Y-101604000D01*
X156007619Y-101580190D01*
X155912380Y-101580190D01*
X155864761Y-101604000D01*
X155840952Y-101627809D01*
X155817142Y-101675428D01*
X155817142Y-101699238D01*
X155840952Y-101746857D01*
X155864761Y-101770666D01*
X155912380Y-101794476D01*
X156007619Y-101794476D01*
X156055238Y-101818285D01*
X156079047Y-101842095D01*
X156102857Y-101889714D01*
X156102857Y-101984952D01*
X156079047Y-102032571D01*
X156055238Y-102056380D01*
X156007619Y-102080190D01*
X155912380Y-102080190D01*
X155864761Y-102056380D01*
X155840952Y-102032571D01*
X155817142Y-101984952D01*
X155817142Y-101889714D01*
X155840952Y-101842095D01*
X155864761Y-101818285D01*
X155912380Y-101794476D01*
%TO.C,R9*%
X151086333Y-117701190D02*
X151253000Y-117463095D01*
X151372047Y-117701190D02*
X151372047Y-117201190D01*
X151181571Y-117201190D01*
X151133952Y-117225000D01*
X151110142Y-117248809D01*
X151086333Y-117296428D01*
X151086333Y-117367857D01*
X151110142Y-117415476D01*
X151133952Y-117439285D01*
X151181571Y-117463095D01*
X151372047Y-117463095D01*
X150848238Y-117701190D02*
X150753000Y-117701190D01*
X150705380Y-117677380D01*
X150681571Y-117653571D01*
X150633952Y-117582142D01*
X150610142Y-117486904D01*
X150610142Y-117296428D01*
X150633952Y-117248809D01*
X150657761Y-117225000D01*
X150705380Y-117201190D01*
X150800619Y-117201190D01*
X150848238Y-117225000D01*
X150872047Y-117248809D01*
X150895857Y-117296428D01*
X150895857Y-117415476D01*
X150872047Y-117463095D01*
X150848238Y-117486904D01*
X150800619Y-117510714D01*
X150705380Y-117510714D01*
X150657761Y-117486904D01*
X150633952Y-117463095D01*
X150610142Y-117415476D01*
%TO.C,R10*%
X148022428Y-117701190D02*
X148189095Y-117463095D01*
X148308142Y-117701190D02*
X148308142Y-117201190D01*
X148117666Y-117201190D01*
X148070047Y-117225000D01*
X148046238Y-117248809D01*
X148022428Y-117296428D01*
X148022428Y-117367857D01*
X148046238Y-117415476D01*
X148070047Y-117439285D01*
X148117666Y-117463095D01*
X148308142Y-117463095D01*
X147546238Y-117701190D02*
X147831952Y-117701190D01*
X147689095Y-117701190D02*
X147689095Y-117201190D01*
X147736714Y-117272619D01*
X147784333Y-117320238D01*
X147831952Y-117344047D01*
X147236714Y-117201190D02*
X147189095Y-117201190D01*
X147141476Y-117225000D01*
X147117666Y-117248809D01*
X147093857Y-117296428D01*
X147070047Y-117391666D01*
X147070047Y-117510714D01*
X147093857Y-117605952D01*
X147117666Y-117653571D01*
X147141476Y-117677380D01*
X147189095Y-117701190D01*
X147236714Y-117701190D01*
X147284333Y-117677380D01*
X147308142Y-117653571D01*
X147331952Y-117605952D01*
X147355761Y-117510714D01*
X147355761Y-117391666D01*
X147331952Y-117296428D01*
X147308142Y-117248809D01*
X147284333Y-117225000D01*
X147236714Y-117201190D01*
%TO.C,R15*%
X144453728Y-116939190D02*
X144620395Y-116701095D01*
X144739442Y-116939190D02*
X144739442Y-116439190D01*
X144548966Y-116439190D01*
X144501347Y-116463000D01*
X144477538Y-116486809D01*
X144453728Y-116534428D01*
X144453728Y-116605857D01*
X144477538Y-116653476D01*
X144501347Y-116677285D01*
X144548966Y-116701095D01*
X144739442Y-116701095D01*
X143977538Y-116939190D02*
X144263252Y-116939190D01*
X144120395Y-116939190D02*
X144120395Y-116439190D01*
X144168014Y-116510619D01*
X144215633Y-116558238D01*
X144263252Y-116582047D01*
X143525157Y-116439190D02*
X143763252Y-116439190D01*
X143787061Y-116677285D01*
X143763252Y-116653476D01*
X143715633Y-116629666D01*
X143596585Y-116629666D01*
X143548966Y-116653476D01*
X143525157Y-116677285D01*
X143501347Y-116724904D01*
X143501347Y-116843952D01*
X143525157Y-116891571D01*
X143548966Y-116915380D01*
X143596585Y-116939190D01*
X143715633Y-116939190D01*
X143763252Y-116915380D01*
X143787061Y-116891571D01*
%TO.C,R16*%
X155045528Y-119225190D02*
X155212195Y-118987095D01*
X155331242Y-119225190D02*
X155331242Y-118725190D01*
X155140766Y-118725190D01*
X155093147Y-118749000D01*
X155069338Y-118772809D01*
X155045528Y-118820428D01*
X155045528Y-118891857D01*
X155069338Y-118939476D01*
X155093147Y-118963285D01*
X155140766Y-118987095D01*
X155331242Y-118987095D01*
X154569338Y-119225190D02*
X154855052Y-119225190D01*
X154712195Y-119225190D02*
X154712195Y-118725190D01*
X154759814Y-118796619D01*
X154807433Y-118844238D01*
X154855052Y-118868047D01*
X154140766Y-118725190D02*
X154236004Y-118725190D01*
X154283623Y-118749000D01*
X154307433Y-118772809D01*
X154355052Y-118844238D01*
X154378861Y-118939476D01*
X154378861Y-119129952D01*
X154355052Y-119177571D01*
X154331242Y-119201380D01*
X154283623Y-119225190D01*
X154188385Y-119225190D01*
X154140766Y-119201380D01*
X154116957Y-119177571D01*
X154093147Y-119129952D01*
X154093147Y-119010904D01*
X154116957Y-118963285D01*
X154140766Y-118939476D01*
X154188385Y-118915666D01*
X154283623Y-118915666D01*
X154331242Y-118939476D01*
X154355052Y-118963285D01*
X154378861Y-119010904D01*
%TO.C,R17*%
X145482428Y-123797190D02*
X145649095Y-123559095D01*
X145768142Y-123797190D02*
X145768142Y-123297190D01*
X145577666Y-123297190D01*
X145530047Y-123321000D01*
X145506238Y-123344809D01*
X145482428Y-123392428D01*
X145482428Y-123463857D01*
X145506238Y-123511476D01*
X145530047Y-123535285D01*
X145577666Y-123559095D01*
X145768142Y-123559095D01*
X145006238Y-123797190D02*
X145291952Y-123797190D01*
X145149095Y-123797190D02*
X145149095Y-123297190D01*
X145196714Y-123368619D01*
X145244333Y-123416238D01*
X145291952Y-123440047D01*
X144839571Y-123297190D02*
X144506238Y-123297190D01*
X144720523Y-123797190D01*
%TO.C,R18*%
X153864428Y-123797190D02*
X154031095Y-123559095D01*
X154150142Y-123797190D02*
X154150142Y-123297190D01*
X153959666Y-123297190D01*
X153912047Y-123321000D01*
X153888238Y-123344809D01*
X153864428Y-123392428D01*
X153864428Y-123463857D01*
X153888238Y-123511476D01*
X153912047Y-123535285D01*
X153959666Y-123559095D01*
X154150142Y-123559095D01*
X153388238Y-123797190D02*
X153673952Y-123797190D01*
X153531095Y-123797190D02*
X153531095Y-123297190D01*
X153578714Y-123368619D01*
X153626333Y-123416238D01*
X153673952Y-123440047D01*
X153102523Y-123511476D02*
X153150142Y-123487666D01*
X153173952Y-123463857D01*
X153197761Y-123416238D01*
X153197761Y-123392428D01*
X153173952Y-123344809D01*
X153150142Y-123321000D01*
X153102523Y-123297190D01*
X153007285Y-123297190D01*
X152959666Y-123321000D01*
X152935857Y-123344809D01*
X152912047Y-123392428D01*
X152912047Y-123416238D01*
X152935857Y-123463857D01*
X152959666Y-123487666D01*
X153007285Y-123511476D01*
X153102523Y-123511476D01*
X153150142Y-123535285D01*
X153173952Y-123559095D01*
X153197761Y-123606714D01*
X153197761Y-123701952D01*
X153173952Y-123749571D01*
X153150142Y-123773380D01*
X153102523Y-123797190D01*
X153007285Y-123797190D01*
X152959666Y-123773380D01*
X152935857Y-123749571D01*
X152912047Y-123701952D01*
X152912047Y-123606714D01*
X152935857Y-123559095D01*
X152959666Y-123535285D01*
X153007285Y-123511476D01*
%TD*%
M02*
