M48
; DRILL file {KiCad (5.1.9)-1} date 04/28/21 15:16:45
; FORMAT={-:-/ absolute / inch / decimal}
; #@! TF.CreationDate,2021-04-28T15:16:45-04:00
; #@! TF.GenerationSoftware,Kicad,Pcbnew,(5.1.9)-1
FMAT,2
INCH
T1C0.0157
T2C0.0394
T3C0.0866
%
G90
G05
T1
X4.9055Y-3.9606
X4.9055Y-4.1654
X4.9134Y-4.063
X4.972Y-4.33
X4.978Y-3.83
X4.98Y-3.53
X5.084Y-4.378
X5.0906Y-4.8071
X5.1406Y-4.3312
X5.165Y-3.025
X5.1732Y-2.9803
X5.176Y-4.85
X5.206Y-4.162
X5.216Y-3.746
X5.2478Y-4.0056
X5.2804Y-3.7601
X5.2816Y-3.6439
X5.2982Y-3.4803
X5.344Y-4.306
X5.3494Y-3.4803
X5.35Y-4.255
X5.3502Y-4.575
X5.37Y-3.242
X5.3789Y-4.0167
X5.3799Y-3.8642
X5.3845Y-3.6861
X5.3925Y-4.3575
X5.3937Y-4.6929
X5.398Y-4.456
X5.4003Y-3.8305
X5.4006Y-3.6112
X5.41Y-4.1975
X5.4232Y-3.6791
X5.442Y-3.802
X5.448Y-4.02
X5.474Y-4.3575
X5.4778Y-3.6171
X5.485Y-4.1575
X5.503Y-4.0256
X5.5556Y-3.6869
X5.556Y-3.812
X5.5575Y-4.1975
X5.578Y-4.284
X5.578Y-4.326
X5.5827Y-4.7441
X5.5852Y-4.0241
X5.5984Y-3.689
X5.632Y-3.34
X5.636Y-3.734
X5.648Y-4.306
X5.658Y-4.096
X5.6648Y-4.0572
X5.68Y-3.7625
X5.696Y-4.232
X5.7008Y-4.0413
X5.704Y-4.336
X5.722Y-3.8986
X5.746Y-3.34
X5.7598Y-2.9843
X5.7688Y-3.8613
X5.7795Y-4.811
X5.7795Y-4.8543
X5.782Y-3.65
X5.7894Y-4.1043
X5.7913Y-3.4606
X5.815Y-4.0591
X5.8543Y-3.0236
X5.8543Y-3.2776
X5.8543Y-4.1398
X5.878Y-3.9596
X5.8842Y-3.9004
X5.8858Y-3.3071
X5.8858Y-3.6929
X5.92Y-4.338
X5.9449Y-3.6929
X5.9488Y-4.1398
X5.9862Y-3.3701
X5.9941Y-4.0591
X6.01Y-4.532
X6.0217Y-3.8622
X6.0217Y-3.9409
X6.0217Y-3.7625
X6.0492Y-3.6496
X6.0551Y-3.439
X6.0551Y-3.5846
T2
X5.0472Y-3.5307
X5.0472Y-3.6307
X5.0472Y-3.7307
X5.0472Y-3.8307
X5.6693Y-4.6913
X5.6693Y-4.7913
T3
X4.87Y-3.03
X4.87Y-4.8
X6.07Y-3.03
X6.07Y-4.8031
T0
M30
