%TF.GenerationSoftware,KiCad,Pcbnew,(5.1.9)-1*%
%TF.CreationDate,2021-04-28T15:16:42-04:00*%
%TF.ProjectId,final_design_v3,66696e61-6c5f-4646-9573-69676e5f7633,rev?*%
%TF.SameCoordinates,Original*%
%TF.FileFunction,Legend,Bot*%
%TF.FilePolarity,Positive*%
%FSLAX46Y46*%
G04 Gerber Fmt 4.6, Leading zero omitted, Abs format (unit mm)*
G04 Created by KiCad (PCBNEW (5.1.9)-1) date 2021-04-28 15:16:42*
%MOMM*%
%LPD*%
G01*
G04 APERTURE LIST*
%ADD10C,0.120000*%
%ADD11C,0.150000*%
G04 APERTURE END LIST*
D10*
%TO.C,C1*%
X139103980Y-97254600D02*
X138822820Y-97254600D01*
X139103980Y-98274600D02*
X138822820Y-98274600D01*
%TO.C,C2*%
X140602580Y-101449600D02*
X140321420Y-101449600D01*
X140602580Y-100429600D02*
X140321420Y-100429600D01*
%TO.C,C3*%
X137273420Y-101449600D02*
X137554580Y-101449600D01*
X137273420Y-100429600D02*
X137554580Y-100429600D01*
%TO.C,C4*%
X137273420Y-98880200D02*
X137554580Y-98880200D01*
X137273420Y-99900200D02*
X137554580Y-99900200D01*
%TO.C,C5*%
X140606979Y-98882601D02*
X140325819Y-98882601D01*
X140606979Y-99902601D02*
X140325819Y-99902601D01*
%TO.C,C8*%
X150940580Y-99590000D02*
X150659420Y-99590000D01*
X150940580Y-100610000D02*
X150659420Y-100610000D01*
%TO.C,C9*%
X149210000Y-103640580D02*
X149210000Y-103359420D01*
X148190000Y-103640580D02*
X148190000Y-103359420D01*
%TO.C,C10*%
X150590000Y-103640580D02*
X150590000Y-103359420D01*
X151610000Y-103640580D02*
X151610000Y-103359420D01*
%TO.C,C11*%
X150940580Y-98610000D02*
X150659420Y-98610000D01*
X150940580Y-97590000D02*
X150659420Y-97590000D01*
%TO.C,C12*%
X139153020Y-107088400D02*
X139434180Y-107088400D01*
X139153020Y-106068400D02*
X139434180Y-106068400D01*
%TO.C,C13*%
X136446800Y-109004980D02*
X136446800Y-108723820D01*
X137466800Y-109004980D02*
X137466800Y-108723820D01*
%TO.C,C15*%
X136386180Y-118112000D02*
X136105020Y-118112000D01*
X136386180Y-117092000D02*
X136105020Y-117092000D01*
%TO.C,C16*%
X140460000Y-118223420D02*
X140460000Y-118504580D01*
X141480000Y-118223420D02*
X141480000Y-118504580D01*
%TO.C,C21*%
X148840580Y-93210000D02*
X148559420Y-93210000D01*
X148840580Y-92190000D02*
X148559420Y-92190000D01*
%TO.C,C24*%
X154310000Y-89059420D02*
X154310000Y-89340580D01*
X153290000Y-89059420D02*
X153290000Y-89340580D01*
%TO.C,C27*%
X150059420Y-86110000D02*
X150340580Y-86110000D01*
X150059420Y-85090000D02*
X150340580Y-85090000D01*
%TO.C,C28*%
X151659420Y-92190000D02*
X151940580Y-92190000D01*
X151659420Y-93210000D02*
X151940580Y-93210000D01*
%TO.C,R1*%
X128583458Y-110504500D02*
X128108942Y-110504500D01*
X128583458Y-109459500D02*
X128108942Y-109459500D01*
%TO.C,R2*%
X145425900Y-103191542D02*
X145425900Y-103666058D01*
X146470900Y-103191542D02*
X146470900Y-103666058D01*
%TO.C,R3*%
X133536458Y-94553300D02*
X133061942Y-94553300D01*
X133536458Y-93508300D02*
X133061942Y-93508300D01*
%TO.C,R4*%
X139056342Y-110148900D02*
X139530858Y-110148900D01*
X139056342Y-109103900D02*
X139530858Y-109103900D01*
%TO.C,R5*%
X139056342Y-107579900D02*
X139530858Y-107579900D01*
X139056342Y-108624900D02*
X139530858Y-108624900D01*
%TO.C,R6*%
X138577500Y-82912742D02*
X138577500Y-83387258D01*
X139622500Y-82912742D02*
X139622500Y-83387258D01*
%TO.C,R7*%
X137077500Y-82912742D02*
X137077500Y-83387258D01*
X138122500Y-82912742D02*
X138122500Y-83387258D01*
%TO.C,R8*%
X147477500Y-98862742D02*
X147477500Y-99337258D01*
X148522500Y-98862742D02*
X148522500Y-99337258D01*
%TO.C,R13*%
X130772500Y-76462742D02*
X130772500Y-76937258D01*
X129727500Y-76462742D02*
X129727500Y-76937258D01*
%TO.C,R14*%
X130799100Y-122563658D02*
X130799100Y-122089142D01*
X129754100Y-122563658D02*
X129754100Y-122089142D01*
%TO.C,R17*%
X148272500Y-76512742D02*
X148272500Y-76987258D01*
X147227500Y-76512742D02*
X147227500Y-76987258D01*
%TO.C,R18*%
X147277500Y-122537258D02*
X147277500Y-122062742D01*
X148322500Y-122537258D02*
X148322500Y-122062742D01*
%TO.C,C1*%
D11*
X139088400Y-96867857D02*
X139124114Y-96903571D01*
X139231257Y-96939285D01*
X139302685Y-96939285D01*
X139409828Y-96903571D01*
X139481257Y-96832142D01*
X139516971Y-96760714D01*
X139552685Y-96617857D01*
X139552685Y-96510714D01*
X139516971Y-96367857D01*
X139481257Y-96296428D01*
X139409828Y-96225000D01*
X139302685Y-96189285D01*
X139231257Y-96189285D01*
X139124114Y-96225000D01*
X139088400Y-96260714D01*
X138374114Y-96939285D02*
X138802685Y-96939285D01*
X138588400Y-96939285D02*
X138588400Y-96189285D01*
X138659828Y-96296428D01*
X138731257Y-96367857D01*
X138802685Y-96403571D01*
%TO.C,C2*%
X142925000Y-101267857D02*
X142960714Y-101303571D01*
X143067857Y-101339285D01*
X143139285Y-101339285D01*
X143246428Y-101303571D01*
X143317857Y-101232142D01*
X143353571Y-101160714D01*
X143389285Y-101017857D01*
X143389285Y-100910714D01*
X143353571Y-100767857D01*
X143317857Y-100696428D01*
X143246428Y-100625000D01*
X143139285Y-100589285D01*
X143067857Y-100589285D01*
X142960714Y-100625000D01*
X142925000Y-100660714D01*
X142639285Y-100660714D02*
X142603571Y-100625000D01*
X142532142Y-100589285D01*
X142353571Y-100589285D01*
X142282142Y-100625000D01*
X142246428Y-100660714D01*
X142210714Y-100732142D01*
X142210714Y-100803571D01*
X142246428Y-100910714D01*
X142675000Y-101339285D01*
X142210714Y-101339285D01*
%TO.C,C3*%
X135325000Y-101267857D02*
X135360714Y-101303571D01*
X135467857Y-101339285D01*
X135539285Y-101339285D01*
X135646428Y-101303571D01*
X135717857Y-101232142D01*
X135753571Y-101160714D01*
X135789285Y-101017857D01*
X135789285Y-100910714D01*
X135753571Y-100767857D01*
X135717857Y-100696428D01*
X135646428Y-100625000D01*
X135539285Y-100589285D01*
X135467857Y-100589285D01*
X135360714Y-100625000D01*
X135325000Y-100660714D01*
X135075000Y-100589285D02*
X134610714Y-100589285D01*
X134860714Y-100875000D01*
X134753571Y-100875000D01*
X134682142Y-100910714D01*
X134646428Y-100946428D01*
X134610714Y-101017857D01*
X134610714Y-101196428D01*
X134646428Y-101267857D01*
X134682142Y-101303571D01*
X134753571Y-101339285D01*
X134967857Y-101339285D01*
X135039285Y-101303571D01*
X135075000Y-101267857D01*
%TO.C,C4*%
X135325000Y-99667857D02*
X135360714Y-99703571D01*
X135467857Y-99739285D01*
X135539285Y-99739285D01*
X135646428Y-99703571D01*
X135717857Y-99632142D01*
X135753571Y-99560714D01*
X135789285Y-99417857D01*
X135789285Y-99310714D01*
X135753571Y-99167857D01*
X135717857Y-99096428D01*
X135646428Y-99025000D01*
X135539285Y-98989285D01*
X135467857Y-98989285D01*
X135360714Y-99025000D01*
X135325000Y-99060714D01*
X134682142Y-99239285D02*
X134682142Y-99739285D01*
X134860714Y-98953571D02*
X135039285Y-99489285D01*
X134575000Y-99489285D01*
%TO.C,C5*%
X142925000Y-99667857D02*
X142960714Y-99703571D01*
X143067857Y-99739285D01*
X143139285Y-99739285D01*
X143246428Y-99703571D01*
X143317857Y-99632142D01*
X143353571Y-99560714D01*
X143389285Y-99417857D01*
X143389285Y-99310714D01*
X143353571Y-99167857D01*
X143317857Y-99096428D01*
X143246428Y-99025000D01*
X143139285Y-98989285D01*
X143067857Y-98989285D01*
X142960714Y-99025000D01*
X142925000Y-99060714D01*
X142246428Y-98989285D02*
X142603571Y-98989285D01*
X142639285Y-99346428D01*
X142603571Y-99310714D01*
X142532142Y-99275000D01*
X142353571Y-99275000D01*
X142282142Y-99310714D01*
X142246428Y-99346428D01*
X142210714Y-99417857D01*
X142210714Y-99596428D01*
X142246428Y-99667857D01*
X142282142Y-99703571D01*
X142353571Y-99739285D01*
X142532142Y-99739285D01*
X142603571Y-99703571D01*
X142639285Y-99667857D01*
%TO.C,C8*%
X150925000Y-101667857D02*
X150960714Y-101703571D01*
X151067857Y-101739285D01*
X151139285Y-101739285D01*
X151246428Y-101703571D01*
X151317857Y-101632142D01*
X151353571Y-101560714D01*
X151389285Y-101417857D01*
X151389285Y-101310714D01*
X151353571Y-101167857D01*
X151317857Y-101096428D01*
X151246428Y-101025000D01*
X151139285Y-100989285D01*
X151067857Y-100989285D01*
X150960714Y-101025000D01*
X150925000Y-101060714D01*
X150496428Y-101310714D02*
X150567857Y-101275000D01*
X150603571Y-101239285D01*
X150639285Y-101167857D01*
X150639285Y-101132142D01*
X150603571Y-101060714D01*
X150567857Y-101025000D01*
X150496428Y-100989285D01*
X150353571Y-100989285D01*
X150282142Y-101025000D01*
X150246428Y-101060714D01*
X150210714Y-101132142D01*
X150210714Y-101167857D01*
X150246428Y-101239285D01*
X150282142Y-101275000D01*
X150353571Y-101310714D01*
X150496428Y-101310714D01*
X150567857Y-101346428D01*
X150603571Y-101382142D01*
X150639285Y-101453571D01*
X150639285Y-101596428D01*
X150603571Y-101667857D01*
X150567857Y-101703571D01*
X150496428Y-101739285D01*
X150353571Y-101739285D01*
X150282142Y-101703571D01*
X150246428Y-101667857D01*
X150210714Y-101596428D01*
X150210714Y-101453571D01*
X150246428Y-101382142D01*
X150282142Y-101346428D01*
X150353571Y-101310714D01*
%TO.C,C9*%
X148725000Y-105867857D02*
X148760714Y-105903571D01*
X148867857Y-105939285D01*
X148939285Y-105939285D01*
X149046428Y-105903571D01*
X149117857Y-105832142D01*
X149153571Y-105760714D01*
X149189285Y-105617857D01*
X149189285Y-105510714D01*
X149153571Y-105367857D01*
X149117857Y-105296428D01*
X149046428Y-105225000D01*
X148939285Y-105189285D01*
X148867857Y-105189285D01*
X148760714Y-105225000D01*
X148725000Y-105260714D01*
X148367857Y-105939285D02*
X148225000Y-105939285D01*
X148153571Y-105903571D01*
X148117857Y-105867857D01*
X148046428Y-105760714D01*
X148010714Y-105617857D01*
X148010714Y-105332142D01*
X148046428Y-105260714D01*
X148082142Y-105225000D01*
X148153571Y-105189285D01*
X148296428Y-105189285D01*
X148367857Y-105225000D01*
X148403571Y-105260714D01*
X148439285Y-105332142D01*
X148439285Y-105510714D01*
X148403571Y-105582142D01*
X148367857Y-105617857D01*
X148296428Y-105653571D01*
X148153571Y-105653571D01*
X148082142Y-105617857D01*
X148046428Y-105582142D01*
X148010714Y-105510714D01*
%TO.C,C10*%
X151682142Y-105867857D02*
X151717857Y-105903571D01*
X151825000Y-105939285D01*
X151896428Y-105939285D01*
X152003571Y-105903571D01*
X152075000Y-105832142D01*
X152110714Y-105760714D01*
X152146428Y-105617857D01*
X152146428Y-105510714D01*
X152110714Y-105367857D01*
X152075000Y-105296428D01*
X152003571Y-105225000D01*
X151896428Y-105189285D01*
X151825000Y-105189285D01*
X151717857Y-105225000D01*
X151682142Y-105260714D01*
X150967857Y-105939285D02*
X151396428Y-105939285D01*
X151182142Y-105939285D02*
X151182142Y-105189285D01*
X151253571Y-105296428D01*
X151325000Y-105367857D01*
X151396428Y-105403571D01*
X150503571Y-105189285D02*
X150432142Y-105189285D01*
X150360714Y-105225000D01*
X150325000Y-105260714D01*
X150289285Y-105332142D01*
X150253571Y-105475000D01*
X150253571Y-105653571D01*
X150289285Y-105796428D01*
X150325000Y-105867857D01*
X150360714Y-105903571D01*
X150432142Y-105939285D01*
X150503571Y-105939285D01*
X150575000Y-105903571D01*
X150610714Y-105867857D01*
X150646428Y-105796428D01*
X150682142Y-105653571D01*
X150682142Y-105475000D01*
X150646428Y-105332142D01*
X150610714Y-105260714D01*
X150575000Y-105225000D01*
X150503571Y-105189285D01*
%TO.C,C11*%
X151282142Y-97067857D02*
X151317857Y-97103571D01*
X151425000Y-97139285D01*
X151496428Y-97139285D01*
X151603571Y-97103571D01*
X151675000Y-97032142D01*
X151710714Y-96960714D01*
X151746428Y-96817857D01*
X151746428Y-96710714D01*
X151710714Y-96567857D01*
X151675000Y-96496428D01*
X151603571Y-96425000D01*
X151496428Y-96389285D01*
X151425000Y-96389285D01*
X151317857Y-96425000D01*
X151282142Y-96460714D01*
X150567857Y-97139285D02*
X150996428Y-97139285D01*
X150782142Y-97139285D02*
X150782142Y-96389285D01*
X150853571Y-96496428D01*
X150925000Y-96567857D01*
X150996428Y-96603571D01*
X149853571Y-97139285D02*
X150282142Y-97139285D01*
X150067857Y-97139285D02*
X150067857Y-96389285D01*
X150139285Y-96496428D01*
X150210714Y-96567857D01*
X150282142Y-96603571D01*
%TO.C,C12*%
X139775742Y-105667857D02*
X139811457Y-105703571D01*
X139918600Y-105739285D01*
X139990028Y-105739285D01*
X140097171Y-105703571D01*
X140168600Y-105632142D01*
X140204314Y-105560714D01*
X140240028Y-105417857D01*
X140240028Y-105310714D01*
X140204314Y-105167857D01*
X140168600Y-105096428D01*
X140097171Y-105025000D01*
X139990028Y-104989285D01*
X139918600Y-104989285D01*
X139811457Y-105025000D01*
X139775742Y-105060714D01*
X139061457Y-105739285D02*
X139490028Y-105739285D01*
X139275742Y-105739285D02*
X139275742Y-104989285D01*
X139347171Y-105096428D01*
X139418600Y-105167857D01*
X139490028Y-105203571D01*
X138775742Y-105060714D02*
X138740028Y-105025000D01*
X138668600Y-104989285D01*
X138490028Y-104989285D01*
X138418600Y-105025000D01*
X138382885Y-105060714D01*
X138347171Y-105132142D01*
X138347171Y-105203571D01*
X138382885Y-105310714D01*
X138811457Y-105739285D01*
X138347171Y-105739285D01*
%TO.C,C13*%
X135482142Y-109132257D02*
X135517857Y-109167971D01*
X135625000Y-109203685D01*
X135696428Y-109203685D01*
X135803571Y-109167971D01*
X135875000Y-109096542D01*
X135910714Y-109025114D01*
X135946428Y-108882257D01*
X135946428Y-108775114D01*
X135910714Y-108632257D01*
X135875000Y-108560828D01*
X135803571Y-108489400D01*
X135696428Y-108453685D01*
X135625000Y-108453685D01*
X135517857Y-108489400D01*
X135482142Y-108525114D01*
X134767857Y-109203685D02*
X135196428Y-109203685D01*
X134982142Y-109203685D02*
X134982142Y-108453685D01*
X135053571Y-108560828D01*
X135125000Y-108632257D01*
X135196428Y-108667971D01*
X134517857Y-108453685D02*
X134053571Y-108453685D01*
X134303571Y-108739400D01*
X134196428Y-108739400D01*
X134125000Y-108775114D01*
X134089285Y-108810828D01*
X134053571Y-108882257D01*
X134053571Y-109060828D01*
X134089285Y-109132257D01*
X134125000Y-109167971D01*
X134196428Y-109203685D01*
X134410714Y-109203685D01*
X134482142Y-109167971D01*
X134517857Y-109132257D01*
%TO.C,C15*%
X136727742Y-116667857D02*
X136763457Y-116703571D01*
X136870600Y-116739285D01*
X136942028Y-116739285D01*
X137049171Y-116703571D01*
X137120600Y-116632142D01*
X137156314Y-116560714D01*
X137192028Y-116417857D01*
X137192028Y-116310714D01*
X137156314Y-116167857D01*
X137120600Y-116096428D01*
X137049171Y-116025000D01*
X136942028Y-115989285D01*
X136870600Y-115989285D01*
X136763457Y-116025000D01*
X136727742Y-116060714D01*
X136013457Y-116739285D02*
X136442028Y-116739285D01*
X136227742Y-116739285D02*
X136227742Y-115989285D01*
X136299171Y-116096428D01*
X136370600Y-116167857D01*
X136442028Y-116203571D01*
X135334885Y-115989285D02*
X135692028Y-115989285D01*
X135727742Y-116346428D01*
X135692028Y-116310714D01*
X135620600Y-116275000D01*
X135442028Y-116275000D01*
X135370600Y-116310714D01*
X135334885Y-116346428D01*
X135299171Y-116417857D01*
X135299171Y-116596428D01*
X135334885Y-116667857D01*
X135370600Y-116703571D01*
X135442028Y-116739285D01*
X135620600Y-116739285D01*
X135692028Y-116703571D01*
X135727742Y-116667857D01*
%TO.C,C16*%
X141482142Y-116667857D02*
X141517857Y-116703571D01*
X141625000Y-116739285D01*
X141696428Y-116739285D01*
X141803571Y-116703571D01*
X141875000Y-116632142D01*
X141910714Y-116560714D01*
X141946428Y-116417857D01*
X141946428Y-116310714D01*
X141910714Y-116167857D01*
X141875000Y-116096428D01*
X141803571Y-116025000D01*
X141696428Y-115989285D01*
X141625000Y-115989285D01*
X141517857Y-116025000D01*
X141482142Y-116060714D01*
X140767857Y-116739285D02*
X141196428Y-116739285D01*
X140982142Y-116739285D02*
X140982142Y-115989285D01*
X141053571Y-116096428D01*
X141125000Y-116167857D01*
X141196428Y-116203571D01*
X140125000Y-115989285D02*
X140267857Y-115989285D01*
X140339285Y-116025000D01*
X140375000Y-116060714D01*
X140446428Y-116167857D01*
X140482142Y-116310714D01*
X140482142Y-116596428D01*
X140446428Y-116667857D01*
X140410714Y-116703571D01*
X140339285Y-116739285D01*
X140196428Y-116739285D01*
X140125000Y-116703571D01*
X140089285Y-116667857D01*
X140053571Y-116596428D01*
X140053571Y-116417857D01*
X140089285Y-116346428D01*
X140125000Y-116310714D01*
X140196428Y-116275000D01*
X140339285Y-116275000D01*
X140410714Y-116310714D01*
X140446428Y-116346428D01*
X140482142Y-116417857D01*
%TO.C,C21*%
X149282142Y-94267857D02*
X149317857Y-94303571D01*
X149425000Y-94339285D01*
X149496428Y-94339285D01*
X149603571Y-94303571D01*
X149675000Y-94232142D01*
X149710714Y-94160714D01*
X149746428Y-94017857D01*
X149746428Y-93910714D01*
X149710714Y-93767857D01*
X149675000Y-93696428D01*
X149603571Y-93625000D01*
X149496428Y-93589285D01*
X149425000Y-93589285D01*
X149317857Y-93625000D01*
X149282142Y-93660714D01*
X148996428Y-93660714D02*
X148960714Y-93625000D01*
X148889285Y-93589285D01*
X148710714Y-93589285D01*
X148639285Y-93625000D01*
X148603571Y-93660714D01*
X148567857Y-93732142D01*
X148567857Y-93803571D01*
X148603571Y-93910714D01*
X149032142Y-94339285D01*
X148567857Y-94339285D01*
X147853571Y-94339285D02*
X148282142Y-94339285D01*
X148067857Y-94339285D02*
X148067857Y-93589285D01*
X148139285Y-93696428D01*
X148210714Y-93767857D01*
X148282142Y-93803571D01*
%TO.C,C24*%
X152282142Y-89467857D02*
X152317857Y-89503571D01*
X152425000Y-89539285D01*
X152496428Y-89539285D01*
X152603571Y-89503571D01*
X152675000Y-89432142D01*
X152710714Y-89360714D01*
X152746428Y-89217857D01*
X152746428Y-89110714D01*
X152710714Y-88967857D01*
X152675000Y-88896428D01*
X152603571Y-88825000D01*
X152496428Y-88789285D01*
X152425000Y-88789285D01*
X152317857Y-88825000D01*
X152282142Y-88860714D01*
X151996428Y-88860714D02*
X151960714Y-88825000D01*
X151889285Y-88789285D01*
X151710714Y-88789285D01*
X151639285Y-88825000D01*
X151603571Y-88860714D01*
X151567857Y-88932142D01*
X151567857Y-89003571D01*
X151603571Y-89110714D01*
X152032142Y-89539285D01*
X151567857Y-89539285D01*
X150925000Y-89039285D02*
X150925000Y-89539285D01*
X151103571Y-88753571D02*
X151282142Y-89289285D01*
X150817857Y-89289285D01*
%TO.C,C27*%
X150682142Y-87297857D02*
X150717857Y-87333571D01*
X150825000Y-87369285D01*
X150896428Y-87369285D01*
X151003571Y-87333571D01*
X151075000Y-87262142D01*
X151110714Y-87190714D01*
X151146428Y-87047857D01*
X151146428Y-86940714D01*
X151110714Y-86797857D01*
X151075000Y-86726428D01*
X151003571Y-86655000D01*
X150896428Y-86619285D01*
X150825000Y-86619285D01*
X150717857Y-86655000D01*
X150682142Y-86690714D01*
X150396428Y-86690714D02*
X150360714Y-86655000D01*
X150289285Y-86619285D01*
X150110714Y-86619285D01*
X150039285Y-86655000D01*
X150003571Y-86690714D01*
X149967857Y-86762142D01*
X149967857Y-86833571D01*
X150003571Y-86940714D01*
X150432142Y-87369285D01*
X149967857Y-87369285D01*
X149717857Y-86619285D02*
X149217857Y-86619285D01*
X149539285Y-87369285D01*
%TO.C,C28*%
X152282142Y-94267857D02*
X152317857Y-94303571D01*
X152425000Y-94339285D01*
X152496428Y-94339285D01*
X152603571Y-94303571D01*
X152675000Y-94232142D01*
X152710714Y-94160714D01*
X152746428Y-94017857D01*
X152746428Y-93910714D01*
X152710714Y-93767857D01*
X152675000Y-93696428D01*
X152603571Y-93625000D01*
X152496428Y-93589285D01*
X152425000Y-93589285D01*
X152317857Y-93625000D01*
X152282142Y-93660714D01*
X151996428Y-93660714D02*
X151960714Y-93625000D01*
X151889285Y-93589285D01*
X151710714Y-93589285D01*
X151639285Y-93625000D01*
X151603571Y-93660714D01*
X151567857Y-93732142D01*
X151567857Y-93803571D01*
X151603571Y-93910714D01*
X152032142Y-94339285D01*
X151567857Y-94339285D01*
X151139285Y-93910714D02*
X151210714Y-93875000D01*
X151246428Y-93839285D01*
X151282142Y-93767857D01*
X151282142Y-93732142D01*
X151246428Y-93660714D01*
X151210714Y-93625000D01*
X151139285Y-93589285D01*
X150996428Y-93589285D01*
X150925000Y-93625000D01*
X150889285Y-93660714D01*
X150853571Y-93732142D01*
X150853571Y-93767857D01*
X150889285Y-93839285D01*
X150925000Y-93875000D01*
X150996428Y-93910714D01*
X151139285Y-93910714D01*
X151210714Y-93946428D01*
X151246428Y-93982142D01*
X151282142Y-94053571D01*
X151282142Y-94196428D01*
X151246428Y-94267857D01*
X151210714Y-94303571D01*
X151139285Y-94339285D01*
X150996428Y-94339285D01*
X150925000Y-94303571D01*
X150889285Y-94267857D01*
X150853571Y-94196428D01*
X150853571Y-94053571D01*
X150889285Y-93982142D01*
X150925000Y-93946428D01*
X150996428Y-93910714D01*
%TO.C,R1*%
X128525000Y-109139285D02*
X128775000Y-108782142D01*
X128953571Y-109139285D02*
X128953571Y-108389285D01*
X128667857Y-108389285D01*
X128596428Y-108425000D01*
X128560714Y-108460714D01*
X128525000Y-108532142D01*
X128525000Y-108639285D01*
X128560714Y-108710714D01*
X128596428Y-108746428D01*
X128667857Y-108782142D01*
X128953571Y-108782142D01*
X127810714Y-109139285D02*
X128239285Y-109139285D01*
X128025000Y-109139285D02*
X128025000Y-108389285D01*
X128096428Y-108496428D01*
X128167857Y-108567857D01*
X128239285Y-108603571D01*
%TO.C,R2*%
X146125000Y-105939285D02*
X146375000Y-105582142D01*
X146553571Y-105939285D02*
X146553571Y-105189285D01*
X146267857Y-105189285D01*
X146196428Y-105225000D01*
X146160714Y-105260714D01*
X146125000Y-105332142D01*
X146125000Y-105439285D01*
X146160714Y-105510714D01*
X146196428Y-105546428D01*
X146267857Y-105582142D01*
X146553571Y-105582142D01*
X145839285Y-105260714D02*
X145803571Y-105225000D01*
X145732142Y-105189285D01*
X145553571Y-105189285D01*
X145482142Y-105225000D01*
X145446428Y-105260714D01*
X145410714Y-105332142D01*
X145410714Y-105403571D01*
X145446428Y-105510714D01*
X145875000Y-105939285D01*
X145410714Y-105939285D01*
%TO.C,R3*%
X133465866Y-93053180D02*
X133799200Y-92576990D01*
X134037295Y-93053180D02*
X134037295Y-92053180D01*
X133656342Y-92053180D01*
X133561104Y-92100800D01*
X133513485Y-92148419D01*
X133465866Y-92243657D01*
X133465866Y-92386514D01*
X133513485Y-92481752D01*
X133561104Y-92529371D01*
X133656342Y-92576990D01*
X134037295Y-92576990D01*
X133132533Y-92053180D02*
X132513485Y-92053180D01*
X132846819Y-92434133D01*
X132703961Y-92434133D01*
X132608723Y-92481752D01*
X132561104Y-92529371D01*
X132513485Y-92624609D01*
X132513485Y-92862704D01*
X132561104Y-92957942D01*
X132608723Y-93005561D01*
X132703961Y-93053180D01*
X132989676Y-93053180D01*
X133084914Y-93005561D01*
X133132533Y-92957942D01*
%TO.C,R4*%
X139418600Y-111339285D02*
X139668600Y-110982142D01*
X139847171Y-111339285D02*
X139847171Y-110589285D01*
X139561457Y-110589285D01*
X139490028Y-110625000D01*
X139454314Y-110660714D01*
X139418600Y-110732142D01*
X139418600Y-110839285D01*
X139454314Y-110910714D01*
X139490028Y-110946428D01*
X139561457Y-110982142D01*
X139847171Y-110982142D01*
X138775742Y-110839285D02*
X138775742Y-111339285D01*
X138954314Y-110553571D02*
X139132885Y-111089285D01*
X138668600Y-111089285D01*
%TO.C,R5*%
X141725000Y-108539285D02*
X141975000Y-108182142D01*
X142153571Y-108539285D02*
X142153571Y-107789285D01*
X141867857Y-107789285D01*
X141796428Y-107825000D01*
X141760714Y-107860714D01*
X141725000Y-107932142D01*
X141725000Y-108039285D01*
X141760714Y-108110714D01*
X141796428Y-108146428D01*
X141867857Y-108182142D01*
X142153571Y-108182142D01*
X141046428Y-107789285D02*
X141403571Y-107789285D01*
X141439285Y-108146428D01*
X141403571Y-108110714D01*
X141332142Y-108075000D01*
X141153571Y-108075000D01*
X141082142Y-108110714D01*
X141046428Y-108146428D01*
X141010714Y-108217857D01*
X141010714Y-108396428D01*
X141046428Y-108467857D01*
X141082142Y-108503571D01*
X141153571Y-108539285D01*
X141332142Y-108539285D01*
X141403571Y-108503571D01*
X141439285Y-108467857D01*
%TO.C,R6*%
X140925000Y-83489285D02*
X141175000Y-83132142D01*
X141353571Y-83489285D02*
X141353571Y-82739285D01*
X141067857Y-82739285D01*
X140996428Y-82775000D01*
X140960714Y-82810714D01*
X140925000Y-82882142D01*
X140925000Y-82989285D01*
X140960714Y-83060714D01*
X140996428Y-83096428D01*
X141067857Y-83132142D01*
X141353571Y-83132142D01*
X140282142Y-82739285D02*
X140425000Y-82739285D01*
X140496428Y-82775000D01*
X140532142Y-82810714D01*
X140603571Y-82917857D01*
X140639285Y-83060714D01*
X140639285Y-83346428D01*
X140603571Y-83417857D01*
X140567857Y-83453571D01*
X140496428Y-83489285D01*
X140353571Y-83489285D01*
X140282142Y-83453571D01*
X140246428Y-83417857D01*
X140210714Y-83346428D01*
X140210714Y-83167857D01*
X140246428Y-83096428D01*
X140282142Y-83060714D01*
X140353571Y-83025000D01*
X140496428Y-83025000D01*
X140567857Y-83060714D01*
X140603571Y-83096428D01*
X140639285Y-83167857D01*
%TO.C,R7*%
X136125000Y-83539285D02*
X136375000Y-83182142D01*
X136553571Y-83539285D02*
X136553571Y-82789285D01*
X136267857Y-82789285D01*
X136196428Y-82825000D01*
X136160714Y-82860714D01*
X136125000Y-82932142D01*
X136125000Y-83039285D01*
X136160714Y-83110714D01*
X136196428Y-83146428D01*
X136267857Y-83182142D01*
X136553571Y-83182142D01*
X135875000Y-82789285D02*
X135375000Y-82789285D01*
X135696428Y-83539285D01*
%TO.C,R8*%
X148125000Y-97139285D02*
X148375000Y-96782142D01*
X148553571Y-97139285D02*
X148553571Y-96389285D01*
X148267857Y-96389285D01*
X148196428Y-96425000D01*
X148160714Y-96460714D01*
X148125000Y-96532142D01*
X148125000Y-96639285D01*
X148160714Y-96710714D01*
X148196428Y-96746428D01*
X148267857Y-96782142D01*
X148553571Y-96782142D01*
X147696428Y-96710714D02*
X147767857Y-96675000D01*
X147803571Y-96639285D01*
X147839285Y-96567857D01*
X147839285Y-96532142D01*
X147803571Y-96460714D01*
X147767857Y-96425000D01*
X147696428Y-96389285D01*
X147553571Y-96389285D01*
X147482142Y-96425000D01*
X147446428Y-96460714D01*
X147410714Y-96532142D01*
X147410714Y-96567857D01*
X147446428Y-96639285D01*
X147482142Y-96675000D01*
X147553571Y-96710714D01*
X147696428Y-96710714D01*
X147767857Y-96746428D01*
X147803571Y-96782142D01*
X147839285Y-96853571D01*
X147839285Y-96996428D01*
X147803571Y-97067857D01*
X147767857Y-97103571D01*
X147696428Y-97139285D01*
X147553571Y-97139285D01*
X147482142Y-97103571D01*
X147446428Y-97067857D01*
X147410714Y-96996428D01*
X147410714Y-96853571D01*
X147446428Y-96782142D01*
X147482142Y-96746428D01*
X147553571Y-96710714D01*
%TO.C,R13*%
X130682142Y-79339285D02*
X130932142Y-78982142D01*
X131110714Y-79339285D02*
X131110714Y-78589285D01*
X130825000Y-78589285D01*
X130753571Y-78625000D01*
X130717857Y-78660714D01*
X130682142Y-78732142D01*
X130682142Y-78839285D01*
X130717857Y-78910714D01*
X130753571Y-78946428D01*
X130825000Y-78982142D01*
X131110714Y-78982142D01*
X129967857Y-79339285D02*
X130396428Y-79339285D01*
X130182142Y-79339285D02*
X130182142Y-78589285D01*
X130253571Y-78696428D01*
X130325000Y-78767857D01*
X130396428Y-78803571D01*
X129717857Y-78589285D02*
X129253571Y-78589285D01*
X129503571Y-78875000D01*
X129396428Y-78875000D01*
X129325000Y-78910714D01*
X129289285Y-78946428D01*
X129253571Y-79017857D01*
X129253571Y-79196428D01*
X129289285Y-79267857D01*
X129325000Y-79303571D01*
X129396428Y-79339285D01*
X129610714Y-79339285D01*
X129682142Y-79303571D01*
X129717857Y-79267857D01*
%TO.C,R14*%
X130882142Y-120739285D02*
X131132142Y-120382142D01*
X131310714Y-120739285D02*
X131310714Y-119989285D01*
X131025000Y-119989285D01*
X130953571Y-120025000D01*
X130917857Y-120060714D01*
X130882142Y-120132142D01*
X130882142Y-120239285D01*
X130917857Y-120310714D01*
X130953571Y-120346428D01*
X131025000Y-120382142D01*
X131310714Y-120382142D01*
X130167857Y-120739285D02*
X130596428Y-120739285D01*
X130382142Y-120739285D02*
X130382142Y-119989285D01*
X130453571Y-120096428D01*
X130525000Y-120167857D01*
X130596428Y-120203571D01*
X129525000Y-120239285D02*
X129525000Y-120739285D01*
X129703571Y-119953571D02*
X129882142Y-120489285D01*
X129417857Y-120489285D01*
%TO.C,R17*%
X148282142Y-79339285D02*
X148532142Y-78982142D01*
X148710714Y-79339285D02*
X148710714Y-78589285D01*
X148425000Y-78589285D01*
X148353571Y-78625000D01*
X148317857Y-78660714D01*
X148282142Y-78732142D01*
X148282142Y-78839285D01*
X148317857Y-78910714D01*
X148353571Y-78946428D01*
X148425000Y-78982142D01*
X148710714Y-78982142D01*
X147567857Y-79339285D02*
X147996428Y-79339285D01*
X147782142Y-79339285D02*
X147782142Y-78589285D01*
X147853571Y-78696428D01*
X147925000Y-78767857D01*
X147996428Y-78803571D01*
X147317857Y-78589285D02*
X146817857Y-78589285D01*
X147139285Y-79339285D01*
%TO.C,R18*%
X148282142Y-120739285D02*
X148532142Y-120382142D01*
X148710714Y-120739285D02*
X148710714Y-119989285D01*
X148425000Y-119989285D01*
X148353571Y-120025000D01*
X148317857Y-120060714D01*
X148282142Y-120132142D01*
X148282142Y-120239285D01*
X148317857Y-120310714D01*
X148353571Y-120346428D01*
X148425000Y-120382142D01*
X148710714Y-120382142D01*
X147567857Y-120739285D02*
X147996428Y-120739285D01*
X147782142Y-120739285D02*
X147782142Y-119989285D01*
X147853571Y-120096428D01*
X147925000Y-120167857D01*
X147996428Y-120203571D01*
X147139285Y-120310714D02*
X147210714Y-120275000D01*
X147246428Y-120239285D01*
X147282142Y-120167857D01*
X147282142Y-120132142D01*
X147246428Y-120060714D01*
X147210714Y-120025000D01*
X147139285Y-119989285D01*
X146996428Y-119989285D01*
X146925000Y-120025000D01*
X146889285Y-120060714D01*
X146853571Y-120132142D01*
X146853571Y-120167857D01*
X146889285Y-120239285D01*
X146925000Y-120275000D01*
X146996428Y-120310714D01*
X147139285Y-120310714D01*
X147210714Y-120346428D01*
X147246428Y-120382142D01*
X147282142Y-120453571D01*
X147282142Y-120596428D01*
X147246428Y-120667857D01*
X147210714Y-120703571D01*
X147139285Y-120739285D01*
X146996428Y-120739285D01*
X146925000Y-120703571D01*
X146889285Y-120667857D01*
X146853571Y-120596428D01*
X146853571Y-120453571D01*
X146889285Y-120382142D01*
X146925000Y-120346428D01*
X146996428Y-120310714D01*
%TD*%
M02*
