%TF.GenerationSoftware,KiCad,Pcbnew,(5.1.9)-1*%
%TF.CreationDate,2021-04-28T15:16:42-04:00*%
%TF.ProjectId,final_design_v3,66696e61-6c5f-4646-9573-69676e5f7633,rev?*%
%TF.SameCoordinates,Original*%
%TF.FileFunction,Copper,L2,Inr*%
%TF.FilePolarity,Positive*%
%FSLAX46Y46*%
G04 Gerber Fmt 4.6, Leading zero omitted, Abs format (unit mm)*
G04 Created by KiCad (PCBNEW (5.1.9)-1) date 2021-04-28 15:16:42*
%MOMM*%
%LPD*%
G01*
G04 APERTURE LIST*
%TA.AperFunction,ComponentPad*%
%ADD10C,3.500000*%
%TD*%
%TA.AperFunction,ComponentPad*%
%ADD11R,1.700000X1.700000*%
%TD*%
%TA.AperFunction,ComponentPad*%
%ADD12O,1.700000X1.700000*%
%TD*%
%TA.AperFunction,ViaPad*%
%ADD13C,0.800000*%
%TD*%
%TA.AperFunction,Conductor*%
%ADD14C,0.254000*%
%TD*%
%TA.AperFunction,Conductor*%
%ADD15C,0.100000*%
%TD*%
G04 APERTURE END LIST*
D10*
%TO.N,GND*%
%TO.C,H1*%
X123698000Y-76962000D03*
%TD*%
%TO.N,GND*%
%TO.C,H2*%
X154178000Y-122000000D03*
%TD*%
%TO.N,GND*%
%TO.C,H3*%
X154178000Y-76962000D03*
%TD*%
%TO.N,GND*%
%TO.C,H4*%
X123698000Y-121920000D03*
%TD*%
D11*
%TO.N,GND*%
%TO.C,J2*%
X128200000Y-97300000D03*
D12*
%TO.N,UART1_RX*%
X128200000Y-94760000D03*
%TO.N,UART1_TX*%
X128200000Y-92220000D03*
%TO.N,+3V3*%
X128200000Y-89680000D03*
%TD*%
D11*
%TO.N,+BATT*%
%TO.C,J3*%
X144000000Y-121700000D03*
D12*
%TO.N,GND*%
X144000000Y-119160000D03*
%TD*%
D13*
%TO.N,GND*%
X131400000Y-75700000D03*
X146300000Y-75800000D03*
X146800000Y-123300000D03*
X137000000Y-119200000D03*
X146528356Y-98076503D03*
X152950000Y-98100000D03*
X152950000Y-100100000D03*
X148700000Y-105150000D03*
X151100000Y-105150000D03*
X144800000Y-102650000D03*
X153650000Y-92700000D03*
X153800000Y-87350000D03*
X147100000Y-87900000D03*
X135875000Y-88400000D03*
X139775000Y-102250000D03*
X137168302Y-97294801D03*
X133295343Y-101743481D03*
X141160500Y-106616500D03*
X136969500Y-110680500D03*
X141681200Y-109880400D03*
X134152783Y-92556120D03*
X126441200Y-97282000D03*
X137109200Y-113182400D03*
X130571200Y-110012569D03*
X144881600Y-110134400D03*
X131470400Y-123190000D03*
X146862800Y-92710000D03*
X124800000Y-103200000D03*
X124600000Y-105800000D03*
%TO.N,+3V3*%
X141800000Y-120500000D03*
X149500000Y-93800000D03*
X153800000Y-91050000D03*
X134575000Y-88400000D03*
X136625000Y-102025000D03*
X141862980Y-102212855D03*
X136650000Y-98150000D03*
X135890000Y-108077000D03*
X137414000Y-106616500D03*
X141681200Y-108813600D03*
X126492000Y-89662000D03*
X129133600Y-111201200D03*
X150368000Y-110185200D03*
X136398000Y-82346800D03*
X124600000Y-100600000D03*
%TO.N,+3.3VA*%
X138379200Y-102108000D03*
X143713200Y-104038400D03*
%TO.N,OSC8_IN*%
X149300000Y-100574990D03*
%TO.N,OSC32_IN*%
X147700000Y-103100000D03*
%TO.N,OSC32_OUT*%
X152250000Y-103100000D03*
%TO.N,OSC8_OUT*%
X149458035Y-99069222D03*
%TO.N,VCC*%
X135895000Y-116205000D03*
%TO.N,Net-(C27-Pad2)*%
X152050000Y-85600000D03*
%TO.N,Net-(C28-Pad1)*%
X151000000Y-93800000D03*
%TO.N,Net-(D1-Pad1)*%
X126288800Y-109982000D03*
%TO.N,Net-(D2-Pad1)*%
X147050000Y-104250000D03*
%TO.N,Net-(D3-Pad1)*%
X132486400Y-95148400D03*
%TO.N,LED2*%
X138226800Y-96570800D03*
X134121483Y-95505687D03*
%TO.N,NRST*%
X145338800Y-99025000D03*
X132232400Y-105714800D03*
%TO.N,M1_PWM*%
X131191000Y-76835000D03*
X145948400Y-84836000D03*
X143052800Y-84836000D03*
%TO.N,M3_PWM*%
X129300000Y-122100000D03*
X144272000Y-95568600D03*
X152950001Y-95568600D03*
X152654000Y-115112800D03*
%TO.N,M2_PWM*%
X148700000Y-76800000D03*
%TO.N,M4_PWM*%
X146800000Y-122200000D03*
X143154400Y-94843600D03*
%TO.N,I2C1_SCL*%
X135737600Y-109372400D03*
%TO.N,I2C1_SDA*%
X139319000Y-105600500D03*
X139039600Y-110680501D03*
%TO.N,I2C2_SCL*%
X137750000Y-93450000D03*
X149500000Y-84000000D03*
%TO.N,I2C2_SDA*%
X136765727Y-93626664D03*
X148700000Y-83250000D03*
%TO.N,ADC_BATT*%
X141122400Y-96824800D03*
X143884909Y-103053251D03*
X144678400Y-107492800D03*
X143459200Y-109372400D03*
%TO.N,SPI1_CE*%
X142200000Y-93700000D03*
X137175000Y-91725000D03*
%TO.N,SPI1_SCK*%
X141112561Y-93646431D03*
X139135000Y-91875000D03*
%TD*%
D14*
%TO.N,GND*%
X152394021Y-75357629D02*
X152508390Y-75471998D01*
X152167234Y-75658073D01*
X151951487Y-76075409D01*
X151821304Y-76526815D01*
X151781687Y-76994946D01*
X151834158Y-77461811D01*
X151976703Y-77909468D01*
X152167234Y-78265927D01*
X152508391Y-78452003D01*
X153998395Y-76962000D01*
X153984252Y-76947858D01*
X154163858Y-76768252D01*
X154178000Y-76782395D01*
X154192143Y-76768253D01*
X154371748Y-76947858D01*
X154357605Y-76962000D01*
X154371748Y-76976142D01*
X154192142Y-77155748D01*
X154178000Y-77141605D01*
X152687997Y-78631609D01*
X152874073Y-78972766D01*
X153291409Y-79188513D01*
X153742815Y-79318696D01*
X154210946Y-79358313D01*
X154677811Y-79305842D01*
X155125468Y-79163297D01*
X155481927Y-78972766D01*
X155668002Y-78631610D01*
X155782371Y-78745979D01*
X155804001Y-78724349D01*
X155804000Y-120237650D01*
X155782371Y-120216021D01*
X155668002Y-120330390D01*
X155481927Y-119989234D01*
X155064591Y-119773487D01*
X154613185Y-119643304D01*
X154145054Y-119603687D01*
X153678189Y-119656158D01*
X153230532Y-119798703D01*
X152874073Y-119989234D01*
X152687997Y-120330391D01*
X154178000Y-121820395D01*
X154192142Y-121806252D01*
X154371748Y-121985858D01*
X154357605Y-122000000D01*
X154371748Y-122014142D01*
X154192142Y-122193748D01*
X154178000Y-122179605D01*
X154163858Y-122193748D01*
X153984252Y-122014142D01*
X153998395Y-122000000D01*
X152508391Y-120509997D01*
X152167234Y-120696073D01*
X151951487Y-121113409D01*
X151821304Y-121564815D01*
X151781687Y-122032946D01*
X151834158Y-122499811D01*
X151976703Y-122947468D01*
X152167234Y-123303927D01*
X152508390Y-123490002D01*
X152452392Y-123546000D01*
X125460350Y-123546000D01*
X125481979Y-123524371D01*
X125367610Y-123410002D01*
X125708766Y-123223927D01*
X125924513Y-122806591D01*
X126054696Y-122355185D01*
X126084918Y-121998061D01*
X128265000Y-121998061D01*
X128265000Y-122201939D01*
X128304774Y-122401898D01*
X128382795Y-122590256D01*
X128496063Y-122759774D01*
X128640226Y-122903937D01*
X128809744Y-123017205D01*
X128998102Y-123095226D01*
X129198061Y-123135000D01*
X129401939Y-123135000D01*
X129601898Y-123095226D01*
X129790256Y-123017205D01*
X129959774Y-122903937D01*
X130103937Y-122759774D01*
X130217205Y-122590256D01*
X130295226Y-122401898D01*
X130335000Y-122201939D01*
X130335000Y-121998061D01*
X130295226Y-121798102D01*
X130217205Y-121609744D01*
X130103937Y-121440226D01*
X129959774Y-121296063D01*
X129790256Y-121182795D01*
X129601898Y-121104774D01*
X129401939Y-121065000D01*
X129198061Y-121065000D01*
X128998102Y-121104774D01*
X128809744Y-121182795D01*
X128640226Y-121296063D01*
X128496063Y-121440226D01*
X128382795Y-121609744D01*
X128304774Y-121798102D01*
X128265000Y-121998061D01*
X126084918Y-121998061D01*
X126094313Y-121887054D01*
X126041842Y-121420189D01*
X125899297Y-120972532D01*
X125708766Y-120616073D01*
X125367609Y-120429997D01*
X123877605Y-121920000D01*
X123891748Y-121934142D01*
X123712142Y-122113748D01*
X123698000Y-122099605D01*
X123683858Y-122113748D01*
X123504252Y-121934142D01*
X123518395Y-121920000D01*
X123504252Y-121905858D01*
X123683858Y-121726252D01*
X123698000Y-121740395D01*
X125040333Y-120398061D01*
X140765000Y-120398061D01*
X140765000Y-120601939D01*
X140804774Y-120801898D01*
X140882795Y-120990256D01*
X140996063Y-121159774D01*
X141140226Y-121303937D01*
X141309744Y-121417205D01*
X141498102Y-121495226D01*
X141698061Y-121535000D01*
X141901939Y-121535000D01*
X142101898Y-121495226D01*
X142290256Y-121417205D01*
X142459774Y-121303937D01*
X142511928Y-121251783D01*
X142511928Y-122550000D01*
X142524188Y-122674482D01*
X142560498Y-122794180D01*
X142619463Y-122904494D01*
X142698815Y-123001185D01*
X142795506Y-123080537D01*
X142905820Y-123139502D01*
X143025518Y-123175812D01*
X143150000Y-123188072D01*
X144850000Y-123188072D01*
X144974482Y-123175812D01*
X145094180Y-123139502D01*
X145204494Y-123080537D01*
X145301185Y-123001185D01*
X145380537Y-122904494D01*
X145439502Y-122794180D01*
X145475812Y-122674482D01*
X145488072Y-122550000D01*
X145488072Y-122098061D01*
X145765000Y-122098061D01*
X145765000Y-122301939D01*
X145804774Y-122501898D01*
X145882795Y-122690256D01*
X145996063Y-122859774D01*
X146140226Y-123003937D01*
X146309744Y-123117205D01*
X146498102Y-123195226D01*
X146698061Y-123235000D01*
X146901939Y-123235000D01*
X147101898Y-123195226D01*
X147290256Y-123117205D01*
X147459774Y-123003937D01*
X147603937Y-122859774D01*
X147717205Y-122690256D01*
X147795226Y-122501898D01*
X147835000Y-122301939D01*
X147835000Y-122098061D01*
X147795226Y-121898102D01*
X147717205Y-121709744D01*
X147603937Y-121540226D01*
X147459774Y-121396063D01*
X147290256Y-121282795D01*
X147101898Y-121204774D01*
X146901939Y-121165000D01*
X146698061Y-121165000D01*
X146498102Y-121204774D01*
X146309744Y-121282795D01*
X146140226Y-121396063D01*
X145996063Y-121540226D01*
X145882795Y-121709744D01*
X145804774Y-121898102D01*
X145765000Y-122098061D01*
X145488072Y-122098061D01*
X145488072Y-120850000D01*
X145475812Y-120725518D01*
X145439502Y-120605820D01*
X145380537Y-120495506D01*
X145301185Y-120398815D01*
X145204494Y-120319463D01*
X145094180Y-120260498D01*
X145013534Y-120236034D01*
X145097588Y-120160269D01*
X145271641Y-119926920D01*
X145396825Y-119664099D01*
X145441476Y-119516890D01*
X145320155Y-119287000D01*
X144127000Y-119287000D01*
X144127000Y-119307000D01*
X143873000Y-119307000D01*
X143873000Y-119287000D01*
X142679845Y-119287000D01*
X142558524Y-119516890D01*
X142603175Y-119664099D01*
X142728359Y-119926920D01*
X142902412Y-120160269D01*
X142986466Y-120236034D01*
X142905820Y-120260498D01*
X142817073Y-120307935D01*
X142795226Y-120198102D01*
X142717205Y-120009744D01*
X142603937Y-119840226D01*
X142459774Y-119696063D01*
X142290256Y-119582795D01*
X142101898Y-119504774D01*
X141901939Y-119465000D01*
X141698061Y-119465000D01*
X141498102Y-119504774D01*
X141309744Y-119582795D01*
X141140226Y-119696063D01*
X140996063Y-119840226D01*
X140882795Y-120009744D01*
X140804774Y-120198102D01*
X140765000Y-120398061D01*
X125040333Y-120398061D01*
X125188003Y-120250391D01*
X125001927Y-119909234D01*
X124584591Y-119693487D01*
X124133185Y-119563304D01*
X123665054Y-119523687D01*
X123198189Y-119576158D01*
X122750532Y-119718703D01*
X122394073Y-119909234D01*
X122207998Y-120250390D01*
X122093629Y-120136021D01*
X122072000Y-120157650D01*
X122072000Y-118803110D01*
X142558524Y-118803110D01*
X142679845Y-119033000D01*
X143873000Y-119033000D01*
X143873000Y-117839186D01*
X144127000Y-117839186D01*
X144127000Y-119033000D01*
X145320155Y-119033000D01*
X145441476Y-118803110D01*
X145396825Y-118655901D01*
X145271641Y-118393080D01*
X145097588Y-118159731D01*
X144881355Y-117964822D01*
X144631252Y-117815843D01*
X144356891Y-117718519D01*
X144127000Y-117839186D01*
X143873000Y-117839186D01*
X143643109Y-117718519D01*
X143368748Y-117815843D01*
X143118645Y-117964822D01*
X142902412Y-118159731D01*
X142728359Y-118393080D01*
X142603175Y-118655901D01*
X142558524Y-118803110D01*
X122072000Y-118803110D01*
X122072000Y-116103061D01*
X134860000Y-116103061D01*
X134860000Y-116306939D01*
X134899774Y-116506898D01*
X134977795Y-116695256D01*
X135091063Y-116864774D01*
X135235226Y-117008937D01*
X135404744Y-117122205D01*
X135593102Y-117200226D01*
X135793061Y-117240000D01*
X135996939Y-117240000D01*
X136196898Y-117200226D01*
X136385256Y-117122205D01*
X136554774Y-117008937D01*
X136698937Y-116864774D01*
X136812205Y-116695256D01*
X136890226Y-116506898D01*
X136930000Y-116306939D01*
X136930000Y-116103061D01*
X136890226Y-115903102D01*
X136812205Y-115714744D01*
X136698937Y-115545226D01*
X136554774Y-115401063D01*
X136385256Y-115287795D01*
X136196898Y-115209774D01*
X135996939Y-115170000D01*
X135793061Y-115170000D01*
X135593102Y-115209774D01*
X135404744Y-115287795D01*
X135235226Y-115401063D01*
X135091063Y-115545226D01*
X134977795Y-115714744D01*
X134899774Y-115903102D01*
X134860000Y-116103061D01*
X122072000Y-116103061D01*
X122072000Y-115010861D01*
X151619000Y-115010861D01*
X151619000Y-115214739D01*
X151658774Y-115414698D01*
X151736795Y-115603056D01*
X151850063Y-115772574D01*
X151994226Y-115916737D01*
X152163744Y-116030005D01*
X152352102Y-116108026D01*
X152552061Y-116147800D01*
X152755939Y-116147800D01*
X152955898Y-116108026D01*
X153144256Y-116030005D01*
X153313774Y-115916737D01*
X153457937Y-115772574D01*
X153571205Y-115603056D01*
X153649226Y-115414698D01*
X153689000Y-115214739D01*
X153689000Y-115010861D01*
X153649226Y-114810902D01*
X153571205Y-114622544D01*
X153457937Y-114453026D01*
X153313774Y-114308863D01*
X153144256Y-114195595D01*
X152955898Y-114117574D01*
X152755939Y-114077800D01*
X152552061Y-114077800D01*
X152352102Y-114117574D01*
X152163744Y-114195595D01*
X151994226Y-114308863D01*
X151850063Y-114453026D01*
X151736795Y-114622544D01*
X151658774Y-114810902D01*
X151619000Y-115010861D01*
X122072000Y-115010861D01*
X122072000Y-111099261D01*
X128098600Y-111099261D01*
X128098600Y-111303139D01*
X128138374Y-111503098D01*
X128216395Y-111691456D01*
X128329663Y-111860974D01*
X128473826Y-112005137D01*
X128643344Y-112118405D01*
X128831702Y-112196426D01*
X129031661Y-112236200D01*
X129235539Y-112236200D01*
X129435498Y-112196426D01*
X129623856Y-112118405D01*
X129793374Y-112005137D01*
X129937537Y-111860974D01*
X130050805Y-111691456D01*
X130128826Y-111503098D01*
X130168600Y-111303139D01*
X130168600Y-111099261D01*
X130128826Y-110899302D01*
X130050805Y-110710944D01*
X129962351Y-110578562D01*
X138004600Y-110578562D01*
X138004600Y-110782440D01*
X138044374Y-110982399D01*
X138122395Y-111170757D01*
X138235663Y-111340275D01*
X138379826Y-111484438D01*
X138549344Y-111597706D01*
X138737702Y-111675727D01*
X138937661Y-111715501D01*
X139141539Y-111715501D01*
X139341498Y-111675727D01*
X139529856Y-111597706D01*
X139699374Y-111484438D01*
X139843537Y-111340275D01*
X139956805Y-111170757D01*
X140034826Y-110982399D01*
X140074600Y-110782440D01*
X140074600Y-110578562D01*
X140034826Y-110378603D01*
X139956805Y-110190245D01*
X139843537Y-110020727D01*
X139699374Y-109876564D01*
X139529856Y-109763296D01*
X139341498Y-109685275D01*
X139141539Y-109645501D01*
X138937661Y-109645501D01*
X138737702Y-109685275D01*
X138549344Y-109763296D01*
X138379826Y-109876564D01*
X138235663Y-110020727D01*
X138122395Y-110190245D01*
X138044374Y-110378603D01*
X138004600Y-110578562D01*
X129962351Y-110578562D01*
X129937537Y-110541426D01*
X129793374Y-110397263D01*
X129623856Y-110283995D01*
X129435498Y-110205974D01*
X129235539Y-110166200D01*
X129031661Y-110166200D01*
X128831702Y-110205974D01*
X128643344Y-110283995D01*
X128473826Y-110397263D01*
X128329663Y-110541426D01*
X128216395Y-110710944D01*
X128138374Y-110899302D01*
X128098600Y-111099261D01*
X122072000Y-111099261D01*
X122072000Y-109880061D01*
X125253800Y-109880061D01*
X125253800Y-110083939D01*
X125293574Y-110283898D01*
X125371595Y-110472256D01*
X125484863Y-110641774D01*
X125629026Y-110785937D01*
X125798544Y-110899205D01*
X125986902Y-110977226D01*
X126186861Y-111017000D01*
X126390739Y-111017000D01*
X126590698Y-110977226D01*
X126779056Y-110899205D01*
X126948574Y-110785937D01*
X127092737Y-110641774D01*
X127206005Y-110472256D01*
X127284026Y-110283898D01*
X127323800Y-110083939D01*
X127323800Y-109880061D01*
X127284026Y-109680102D01*
X127206005Y-109491744D01*
X127092737Y-109322226D01*
X127040972Y-109270461D01*
X134702600Y-109270461D01*
X134702600Y-109474339D01*
X134742374Y-109674298D01*
X134820395Y-109862656D01*
X134933663Y-110032174D01*
X135077826Y-110176337D01*
X135247344Y-110289605D01*
X135435702Y-110367626D01*
X135635661Y-110407400D01*
X135839539Y-110407400D01*
X136039498Y-110367626D01*
X136227856Y-110289605D01*
X136397374Y-110176337D01*
X136541537Y-110032174D01*
X136654805Y-109862656D01*
X136732826Y-109674298D01*
X136772600Y-109474339D01*
X136772600Y-109270461D01*
X136732826Y-109070502D01*
X136654805Y-108882144D01*
X136612252Y-108818459D01*
X136693937Y-108736774D01*
X136710716Y-108711661D01*
X140646200Y-108711661D01*
X140646200Y-108915539D01*
X140685974Y-109115498D01*
X140763995Y-109303856D01*
X140877263Y-109473374D01*
X141021426Y-109617537D01*
X141190944Y-109730805D01*
X141379302Y-109808826D01*
X141579261Y-109848600D01*
X141783139Y-109848600D01*
X141983098Y-109808826D01*
X142171456Y-109730805D01*
X142340974Y-109617537D01*
X142434150Y-109524361D01*
X142463974Y-109674298D01*
X142541995Y-109862656D01*
X142655263Y-110032174D01*
X142799426Y-110176337D01*
X142968944Y-110289605D01*
X143157302Y-110367626D01*
X143357261Y-110407400D01*
X143561139Y-110407400D01*
X143761098Y-110367626D01*
X143949456Y-110289605D01*
X144118974Y-110176337D01*
X144212050Y-110083261D01*
X149333000Y-110083261D01*
X149333000Y-110287139D01*
X149372774Y-110487098D01*
X149450795Y-110675456D01*
X149564063Y-110844974D01*
X149708226Y-110989137D01*
X149877744Y-111102405D01*
X150066102Y-111180426D01*
X150266061Y-111220200D01*
X150469939Y-111220200D01*
X150669898Y-111180426D01*
X150858256Y-111102405D01*
X151027774Y-110989137D01*
X151171937Y-110844974D01*
X151285205Y-110675456D01*
X151363226Y-110487098D01*
X151403000Y-110287139D01*
X151403000Y-110083261D01*
X151363226Y-109883302D01*
X151285205Y-109694944D01*
X151171937Y-109525426D01*
X151027774Y-109381263D01*
X150858256Y-109267995D01*
X150669898Y-109189974D01*
X150469939Y-109150200D01*
X150266061Y-109150200D01*
X150066102Y-109189974D01*
X149877744Y-109267995D01*
X149708226Y-109381263D01*
X149564063Y-109525426D01*
X149450795Y-109694944D01*
X149372774Y-109883302D01*
X149333000Y-110083261D01*
X144212050Y-110083261D01*
X144263137Y-110032174D01*
X144376405Y-109862656D01*
X144454426Y-109674298D01*
X144494200Y-109474339D01*
X144494200Y-109270461D01*
X144454426Y-109070502D01*
X144376405Y-108882144D01*
X144263137Y-108712626D01*
X144118974Y-108568463D01*
X143949456Y-108455195D01*
X143761098Y-108377174D01*
X143561139Y-108337400D01*
X143357261Y-108337400D01*
X143157302Y-108377174D01*
X142968944Y-108455195D01*
X142799426Y-108568463D01*
X142706250Y-108661639D01*
X142676426Y-108511702D01*
X142598405Y-108323344D01*
X142485137Y-108153826D01*
X142340974Y-108009663D01*
X142171456Y-107896395D01*
X141983098Y-107818374D01*
X141783139Y-107778600D01*
X141579261Y-107778600D01*
X141379302Y-107818374D01*
X141190944Y-107896395D01*
X141021426Y-108009663D01*
X140877263Y-108153826D01*
X140763995Y-108323344D01*
X140685974Y-108511702D01*
X140646200Y-108711661D01*
X136710716Y-108711661D01*
X136807205Y-108567256D01*
X136885226Y-108378898D01*
X136925000Y-108178939D01*
X136925000Y-107975061D01*
X136885226Y-107775102D01*
X136807205Y-107586744D01*
X136693937Y-107417226D01*
X136549774Y-107273063D01*
X136380256Y-107159795D01*
X136191898Y-107081774D01*
X135991939Y-107042000D01*
X135788061Y-107042000D01*
X135588102Y-107081774D01*
X135399744Y-107159795D01*
X135230226Y-107273063D01*
X135086063Y-107417226D01*
X134972795Y-107586744D01*
X134894774Y-107775102D01*
X134855000Y-107975061D01*
X134855000Y-108178939D01*
X134894774Y-108378898D01*
X134972795Y-108567256D01*
X135015348Y-108630941D01*
X134933663Y-108712626D01*
X134820395Y-108882144D01*
X134742374Y-109070502D01*
X134702600Y-109270461D01*
X127040972Y-109270461D01*
X126948574Y-109178063D01*
X126779056Y-109064795D01*
X126590698Y-108986774D01*
X126390739Y-108947000D01*
X126186861Y-108947000D01*
X125986902Y-108986774D01*
X125798544Y-109064795D01*
X125629026Y-109178063D01*
X125484863Y-109322226D01*
X125371595Y-109491744D01*
X125293574Y-109680102D01*
X125253800Y-109880061D01*
X122072000Y-109880061D01*
X122072000Y-105612861D01*
X131197400Y-105612861D01*
X131197400Y-105816739D01*
X131237174Y-106016698D01*
X131315195Y-106205056D01*
X131428463Y-106374574D01*
X131572626Y-106518737D01*
X131742144Y-106632005D01*
X131930502Y-106710026D01*
X132130461Y-106749800D01*
X132334339Y-106749800D01*
X132534298Y-106710026D01*
X132722656Y-106632005D01*
X132892174Y-106518737D01*
X132896350Y-106514561D01*
X136379000Y-106514561D01*
X136379000Y-106718439D01*
X136418774Y-106918398D01*
X136496795Y-107106756D01*
X136610063Y-107276274D01*
X136754226Y-107420437D01*
X136923744Y-107533705D01*
X137112102Y-107611726D01*
X137312061Y-107651500D01*
X137515939Y-107651500D01*
X137715898Y-107611726D01*
X137904256Y-107533705D01*
X138073774Y-107420437D01*
X138103350Y-107390861D01*
X143643400Y-107390861D01*
X143643400Y-107594739D01*
X143683174Y-107794698D01*
X143761195Y-107983056D01*
X143874463Y-108152574D01*
X144018626Y-108296737D01*
X144188144Y-108410005D01*
X144376502Y-108488026D01*
X144576461Y-108527800D01*
X144780339Y-108527800D01*
X144980298Y-108488026D01*
X145168656Y-108410005D01*
X145338174Y-108296737D01*
X145482337Y-108152574D01*
X145595605Y-107983056D01*
X145673626Y-107794698D01*
X145713400Y-107594739D01*
X145713400Y-107390861D01*
X145673626Y-107190902D01*
X145595605Y-107002544D01*
X145482337Y-106833026D01*
X145338174Y-106688863D01*
X145168656Y-106575595D01*
X144980298Y-106497574D01*
X144780339Y-106457800D01*
X144576461Y-106457800D01*
X144376502Y-106497574D01*
X144188144Y-106575595D01*
X144018626Y-106688863D01*
X143874463Y-106833026D01*
X143761195Y-107002544D01*
X143683174Y-107190902D01*
X143643400Y-107390861D01*
X138103350Y-107390861D01*
X138217937Y-107276274D01*
X138331205Y-107106756D01*
X138409226Y-106918398D01*
X138449000Y-106718439D01*
X138449000Y-106514561D01*
X138409226Y-106314602D01*
X138331205Y-106126244D01*
X138217937Y-105956726D01*
X138073774Y-105812563D01*
X137904256Y-105699295D01*
X137715898Y-105621274D01*
X137515939Y-105581500D01*
X137312061Y-105581500D01*
X137112102Y-105621274D01*
X136923744Y-105699295D01*
X136754226Y-105812563D01*
X136610063Y-105956726D01*
X136496795Y-106126244D01*
X136418774Y-106314602D01*
X136379000Y-106514561D01*
X132896350Y-106514561D01*
X133036337Y-106374574D01*
X133149605Y-106205056D01*
X133227626Y-106016698D01*
X133267400Y-105816739D01*
X133267400Y-105612861D01*
X133244665Y-105498561D01*
X138284000Y-105498561D01*
X138284000Y-105702439D01*
X138323774Y-105902398D01*
X138401795Y-106090756D01*
X138515063Y-106260274D01*
X138659226Y-106404437D01*
X138828744Y-106517705D01*
X139017102Y-106595726D01*
X139217061Y-106635500D01*
X139420939Y-106635500D01*
X139620898Y-106595726D01*
X139809256Y-106517705D01*
X139978774Y-106404437D01*
X140122937Y-106260274D01*
X140236205Y-106090756D01*
X140314226Y-105902398D01*
X140354000Y-105702439D01*
X140354000Y-105498561D01*
X140314226Y-105298602D01*
X140236205Y-105110244D01*
X140122937Y-104940726D01*
X139978774Y-104796563D01*
X139809256Y-104683295D01*
X139620898Y-104605274D01*
X139420939Y-104565500D01*
X139217061Y-104565500D01*
X139017102Y-104605274D01*
X138828744Y-104683295D01*
X138659226Y-104796563D01*
X138515063Y-104940726D01*
X138401795Y-105110244D01*
X138323774Y-105298602D01*
X138284000Y-105498561D01*
X133244665Y-105498561D01*
X133227626Y-105412902D01*
X133149605Y-105224544D01*
X133036337Y-105055026D01*
X132892174Y-104910863D01*
X132722656Y-104797595D01*
X132534298Y-104719574D01*
X132334339Y-104679800D01*
X132130461Y-104679800D01*
X131930502Y-104719574D01*
X131742144Y-104797595D01*
X131572626Y-104910863D01*
X131428463Y-105055026D01*
X131315195Y-105224544D01*
X131237174Y-105412902D01*
X131197400Y-105612861D01*
X122072000Y-105612861D01*
X122072000Y-103936461D01*
X142678200Y-103936461D01*
X142678200Y-104140339D01*
X142717974Y-104340298D01*
X142795995Y-104528656D01*
X142909263Y-104698174D01*
X143053426Y-104842337D01*
X143222944Y-104955605D01*
X143411302Y-105033626D01*
X143611261Y-105073400D01*
X143815139Y-105073400D01*
X144015098Y-105033626D01*
X144203456Y-104955605D01*
X144372974Y-104842337D01*
X144517137Y-104698174D01*
X144630405Y-104528656D01*
X144708426Y-104340298D01*
X144746664Y-104148061D01*
X146015000Y-104148061D01*
X146015000Y-104351939D01*
X146054774Y-104551898D01*
X146132795Y-104740256D01*
X146246063Y-104909774D01*
X146390226Y-105053937D01*
X146559744Y-105167205D01*
X146748102Y-105245226D01*
X146948061Y-105285000D01*
X147151939Y-105285000D01*
X147351898Y-105245226D01*
X147540256Y-105167205D01*
X147709774Y-105053937D01*
X147853937Y-104909774D01*
X147967205Y-104740256D01*
X148045226Y-104551898D01*
X148085000Y-104351939D01*
X148085000Y-104148061D01*
X148068965Y-104067446D01*
X148190256Y-104017205D01*
X148359774Y-103903937D01*
X148503937Y-103759774D01*
X148617205Y-103590256D01*
X148695226Y-103401898D01*
X148735000Y-103201939D01*
X148735000Y-102998061D01*
X151215000Y-102998061D01*
X151215000Y-103201939D01*
X151254774Y-103401898D01*
X151332795Y-103590256D01*
X151446063Y-103759774D01*
X151590226Y-103903937D01*
X151759744Y-104017205D01*
X151948102Y-104095226D01*
X152148061Y-104135000D01*
X152351939Y-104135000D01*
X152551898Y-104095226D01*
X152740256Y-104017205D01*
X152909774Y-103903937D01*
X153053937Y-103759774D01*
X153167205Y-103590256D01*
X153245226Y-103401898D01*
X153285000Y-103201939D01*
X153285000Y-102998061D01*
X153245226Y-102798102D01*
X153167205Y-102609744D01*
X153053937Y-102440226D01*
X152909774Y-102296063D01*
X152740256Y-102182795D01*
X152551898Y-102104774D01*
X152351939Y-102065000D01*
X152148061Y-102065000D01*
X151948102Y-102104774D01*
X151759744Y-102182795D01*
X151590226Y-102296063D01*
X151446063Y-102440226D01*
X151332795Y-102609744D01*
X151254774Y-102798102D01*
X151215000Y-102998061D01*
X148735000Y-102998061D01*
X148695226Y-102798102D01*
X148617205Y-102609744D01*
X148503937Y-102440226D01*
X148359774Y-102296063D01*
X148190256Y-102182795D01*
X148001898Y-102104774D01*
X147801939Y-102065000D01*
X147598061Y-102065000D01*
X147398102Y-102104774D01*
X147209744Y-102182795D01*
X147040226Y-102296063D01*
X146896063Y-102440226D01*
X146782795Y-102609744D01*
X146704774Y-102798102D01*
X146665000Y-102998061D01*
X146665000Y-103201939D01*
X146681035Y-103282554D01*
X146559744Y-103332795D01*
X146390226Y-103446063D01*
X146246063Y-103590226D01*
X146132795Y-103759744D01*
X146054774Y-103948102D01*
X146015000Y-104148061D01*
X144746664Y-104148061D01*
X144748200Y-104140339D01*
X144748200Y-103936461D01*
X144708426Y-103736502D01*
X144694930Y-103703920D01*
X144802114Y-103543507D01*
X144880135Y-103355149D01*
X144919909Y-103155190D01*
X144919909Y-102951312D01*
X144880135Y-102751353D01*
X144802114Y-102562995D01*
X144688846Y-102393477D01*
X144544683Y-102249314D01*
X144375165Y-102136046D01*
X144186807Y-102058025D01*
X143986848Y-102018251D01*
X143782970Y-102018251D01*
X143583011Y-102058025D01*
X143394653Y-102136046D01*
X143225135Y-102249314D01*
X143080972Y-102393477D01*
X142967704Y-102562995D01*
X142889683Y-102751353D01*
X142849909Y-102951312D01*
X142849909Y-103155190D01*
X142889683Y-103355149D01*
X142903179Y-103387731D01*
X142795995Y-103548144D01*
X142717974Y-103736502D01*
X142678200Y-103936461D01*
X122072000Y-103936461D01*
X122072000Y-101923061D01*
X135590000Y-101923061D01*
X135590000Y-102126939D01*
X135629774Y-102326898D01*
X135707795Y-102515256D01*
X135821063Y-102684774D01*
X135965226Y-102828937D01*
X136134744Y-102942205D01*
X136323102Y-103020226D01*
X136523061Y-103060000D01*
X136726939Y-103060000D01*
X136926898Y-103020226D01*
X137115256Y-102942205D01*
X137284774Y-102828937D01*
X137428937Y-102684774D01*
X137474371Y-102616778D01*
X137575263Y-102767774D01*
X137719426Y-102911937D01*
X137888944Y-103025205D01*
X138077302Y-103103226D01*
X138277261Y-103143000D01*
X138481139Y-103143000D01*
X138681098Y-103103226D01*
X138869456Y-103025205D01*
X139038974Y-102911937D01*
X139183137Y-102767774D01*
X139296405Y-102598256D01*
X139374426Y-102409898D01*
X139414200Y-102209939D01*
X139414200Y-102110916D01*
X140827980Y-102110916D01*
X140827980Y-102314794D01*
X140867754Y-102514753D01*
X140945775Y-102703111D01*
X141059043Y-102872629D01*
X141203206Y-103016792D01*
X141372724Y-103130060D01*
X141561082Y-103208081D01*
X141761041Y-103247855D01*
X141964919Y-103247855D01*
X142164878Y-103208081D01*
X142353236Y-103130060D01*
X142522754Y-103016792D01*
X142666917Y-102872629D01*
X142780185Y-102703111D01*
X142858206Y-102514753D01*
X142897980Y-102314794D01*
X142897980Y-102110916D01*
X142858206Y-101910957D01*
X142780185Y-101722599D01*
X142666917Y-101553081D01*
X142522754Y-101408918D01*
X142353236Y-101295650D01*
X142164878Y-101217629D01*
X141964919Y-101177855D01*
X141761041Y-101177855D01*
X141561082Y-101217629D01*
X141372724Y-101295650D01*
X141203206Y-101408918D01*
X141059043Y-101553081D01*
X140945775Y-101722599D01*
X140867754Y-101910957D01*
X140827980Y-102110916D01*
X139414200Y-102110916D01*
X139414200Y-102006061D01*
X139374426Y-101806102D01*
X139296405Y-101617744D01*
X139183137Y-101448226D01*
X139038974Y-101304063D01*
X138869456Y-101190795D01*
X138681098Y-101112774D01*
X138481139Y-101073000D01*
X138277261Y-101073000D01*
X138077302Y-101112774D01*
X137888944Y-101190795D01*
X137719426Y-101304063D01*
X137575263Y-101448226D01*
X137529829Y-101516222D01*
X137428937Y-101365226D01*
X137284774Y-101221063D01*
X137115256Y-101107795D01*
X136926898Y-101029774D01*
X136726939Y-100990000D01*
X136523061Y-100990000D01*
X136323102Y-101029774D01*
X136134744Y-101107795D01*
X135965226Y-101221063D01*
X135821063Y-101365226D01*
X135707795Y-101534744D01*
X135629774Y-101723102D01*
X135590000Y-101923061D01*
X122072000Y-101923061D01*
X122072000Y-100498061D01*
X123565000Y-100498061D01*
X123565000Y-100701939D01*
X123604774Y-100901898D01*
X123682795Y-101090256D01*
X123796063Y-101259774D01*
X123940226Y-101403937D01*
X124109744Y-101517205D01*
X124298102Y-101595226D01*
X124498061Y-101635000D01*
X124701939Y-101635000D01*
X124901898Y-101595226D01*
X125090256Y-101517205D01*
X125259774Y-101403937D01*
X125403937Y-101259774D01*
X125517205Y-101090256D01*
X125595226Y-100901898D01*
X125635000Y-100701939D01*
X125635000Y-100498061D01*
X125630026Y-100473051D01*
X148265000Y-100473051D01*
X148265000Y-100676929D01*
X148304774Y-100876888D01*
X148382795Y-101065246D01*
X148496063Y-101234764D01*
X148640226Y-101378927D01*
X148809744Y-101492195D01*
X148998102Y-101570216D01*
X149198061Y-101609990D01*
X149401939Y-101609990D01*
X149601898Y-101570216D01*
X149790256Y-101492195D01*
X149959774Y-101378927D01*
X150103937Y-101234764D01*
X150217205Y-101065246D01*
X150295226Y-100876888D01*
X150335000Y-100676929D01*
X150335000Y-100473051D01*
X150295226Y-100273092D01*
X150217205Y-100084734D01*
X150103937Y-99915216D01*
X150084282Y-99895561D01*
X150117809Y-99873159D01*
X150261972Y-99728996D01*
X150375240Y-99559478D01*
X150453261Y-99371120D01*
X150493035Y-99171161D01*
X150493035Y-98967283D01*
X150453261Y-98767324D01*
X150375240Y-98578966D01*
X150261972Y-98409448D01*
X150117809Y-98265285D01*
X149948291Y-98152017D01*
X149759933Y-98073996D01*
X149559974Y-98034222D01*
X149356096Y-98034222D01*
X149156137Y-98073996D01*
X148967779Y-98152017D01*
X148798261Y-98265285D01*
X148654098Y-98409448D01*
X148540830Y-98578966D01*
X148462809Y-98767324D01*
X148423035Y-98967283D01*
X148423035Y-99171161D01*
X148462809Y-99371120D01*
X148540830Y-99559478D01*
X148654098Y-99728996D01*
X148673753Y-99748651D01*
X148640226Y-99771053D01*
X148496063Y-99915216D01*
X148382795Y-100084734D01*
X148304774Y-100273092D01*
X148265000Y-100473051D01*
X125630026Y-100473051D01*
X125595226Y-100298102D01*
X125517205Y-100109744D01*
X125403937Y-99940226D01*
X125259774Y-99796063D01*
X125090256Y-99682795D01*
X124901898Y-99604774D01*
X124701939Y-99565000D01*
X124498061Y-99565000D01*
X124298102Y-99604774D01*
X124109744Y-99682795D01*
X123940226Y-99796063D01*
X123796063Y-99940226D01*
X123682795Y-100109744D01*
X123604774Y-100298102D01*
X123565000Y-100498061D01*
X122072000Y-100498061D01*
X122072000Y-98150000D01*
X126711928Y-98150000D01*
X126724188Y-98274482D01*
X126760498Y-98394180D01*
X126819463Y-98504494D01*
X126898815Y-98601185D01*
X126995506Y-98680537D01*
X127105820Y-98739502D01*
X127225518Y-98775812D01*
X127350000Y-98788072D01*
X127914250Y-98785000D01*
X128073000Y-98626250D01*
X128073000Y-97427000D01*
X128327000Y-97427000D01*
X128327000Y-98626250D01*
X128485750Y-98785000D01*
X129050000Y-98788072D01*
X129174482Y-98775812D01*
X129294180Y-98739502D01*
X129404494Y-98680537D01*
X129501185Y-98601185D01*
X129580537Y-98504494D01*
X129639502Y-98394180D01*
X129675812Y-98274482D01*
X129688072Y-98150000D01*
X129687518Y-98048061D01*
X135615000Y-98048061D01*
X135615000Y-98251939D01*
X135654774Y-98451898D01*
X135732795Y-98640256D01*
X135846063Y-98809774D01*
X135990226Y-98953937D01*
X136159744Y-99067205D01*
X136348102Y-99145226D01*
X136548061Y-99185000D01*
X136751939Y-99185000D01*
X136951898Y-99145226D01*
X137140256Y-99067205D01*
X137309774Y-98953937D01*
X137340650Y-98923061D01*
X144303800Y-98923061D01*
X144303800Y-99126939D01*
X144343574Y-99326898D01*
X144421595Y-99515256D01*
X144534863Y-99684774D01*
X144679026Y-99828937D01*
X144848544Y-99942205D01*
X145036902Y-100020226D01*
X145236861Y-100060000D01*
X145440739Y-100060000D01*
X145640698Y-100020226D01*
X145829056Y-99942205D01*
X145998574Y-99828937D01*
X146142737Y-99684774D01*
X146256005Y-99515256D01*
X146334026Y-99326898D01*
X146373800Y-99126939D01*
X146373800Y-98923061D01*
X146334026Y-98723102D01*
X146256005Y-98534744D01*
X146142737Y-98365226D01*
X145998574Y-98221063D01*
X145829056Y-98107795D01*
X145640698Y-98029774D01*
X145440739Y-97990000D01*
X145236861Y-97990000D01*
X145036902Y-98029774D01*
X144848544Y-98107795D01*
X144679026Y-98221063D01*
X144534863Y-98365226D01*
X144421595Y-98534744D01*
X144343574Y-98723102D01*
X144303800Y-98923061D01*
X137340650Y-98923061D01*
X137453937Y-98809774D01*
X137567205Y-98640256D01*
X137645226Y-98451898D01*
X137685000Y-98251939D01*
X137685000Y-98048061D01*
X137645226Y-97848102D01*
X137567205Y-97659744D01*
X137453937Y-97490226D01*
X137309774Y-97346063D01*
X137140256Y-97232795D01*
X136951898Y-97154774D01*
X136751939Y-97115000D01*
X136548061Y-97115000D01*
X136348102Y-97154774D01*
X136159744Y-97232795D01*
X135990226Y-97346063D01*
X135846063Y-97490226D01*
X135732795Y-97659744D01*
X135654774Y-97848102D01*
X135615000Y-98048061D01*
X129687518Y-98048061D01*
X129685000Y-97585750D01*
X129526250Y-97427000D01*
X128327000Y-97427000D01*
X128073000Y-97427000D01*
X126873750Y-97427000D01*
X126715000Y-97585750D01*
X126711928Y-98150000D01*
X122072000Y-98150000D01*
X122072000Y-89560061D01*
X125457000Y-89560061D01*
X125457000Y-89763939D01*
X125496774Y-89963898D01*
X125574795Y-90152256D01*
X125688063Y-90321774D01*
X125832226Y-90465937D01*
X126001744Y-90579205D01*
X126190102Y-90657226D01*
X126390061Y-90697000D01*
X126593939Y-90697000D01*
X126793898Y-90657226D01*
X126982256Y-90579205D01*
X127004779Y-90564155D01*
X127046525Y-90626632D01*
X127253368Y-90833475D01*
X127427760Y-90950000D01*
X127253368Y-91066525D01*
X127046525Y-91273368D01*
X126884010Y-91516589D01*
X126772068Y-91786842D01*
X126715000Y-92073740D01*
X126715000Y-92366260D01*
X126772068Y-92653158D01*
X126884010Y-92923411D01*
X127046525Y-93166632D01*
X127253368Y-93373475D01*
X127427760Y-93490000D01*
X127253368Y-93606525D01*
X127046525Y-93813368D01*
X126884010Y-94056589D01*
X126772068Y-94326842D01*
X126715000Y-94613740D01*
X126715000Y-94906260D01*
X126772068Y-95193158D01*
X126884010Y-95463411D01*
X127046525Y-95706632D01*
X127178380Y-95838487D01*
X127105820Y-95860498D01*
X126995506Y-95919463D01*
X126898815Y-95998815D01*
X126819463Y-96095506D01*
X126760498Y-96205820D01*
X126724188Y-96325518D01*
X126711928Y-96450000D01*
X126715000Y-97014250D01*
X126873750Y-97173000D01*
X128073000Y-97173000D01*
X128073000Y-97153000D01*
X128327000Y-97153000D01*
X128327000Y-97173000D01*
X129526250Y-97173000D01*
X129685000Y-97014250D01*
X129688072Y-96450000D01*
X129675812Y-96325518D01*
X129639502Y-96205820D01*
X129580537Y-96095506D01*
X129501185Y-95998815D01*
X129404494Y-95919463D01*
X129294180Y-95860498D01*
X129221620Y-95838487D01*
X129353475Y-95706632D01*
X129515990Y-95463411D01*
X129627932Y-95193158D01*
X129657112Y-95046461D01*
X131451400Y-95046461D01*
X131451400Y-95250339D01*
X131491174Y-95450298D01*
X131569195Y-95638656D01*
X131682463Y-95808174D01*
X131826626Y-95952337D01*
X131996144Y-96065605D01*
X132184502Y-96143626D01*
X132384461Y-96183400D01*
X132588339Y-96183400D01*
X132788298Y-96143626D01*
X132976656Y-96065605D01*
X133146174Y-95952337D01*
X133174488Y-95924023D01*
X133204278Y-95995943D01*
X133317546Y-96165461D01*
X133461709Y-96309624D01*
X133631227Y-96422892D01*
X133819585Y-96500913D01*
X134019544Y-96540687D01*
X134223422Y-96540687D01*
X134423381Y-96500913D01*
X134500760Y-96468861D01*
X137191800Y-96468861D01*
X137191800Y-96672739D01*
X137231574Y-96872698D01*
X137309595Y-97061056D01*
X137422863Y-97230574D01*
X137567026Y-97374737D01*
X137736544Y-97488005D01*
X137924902Y-97566026D01*
X138124861Y-97605800D01*
X138328739Y-97605800D01*
X138528698Y-97566026D01*
X138717056Y-97488005D01*
X138886574Y-97374737D01*
X139030737Y-97230574D01*
X139144005Y-97061056D01*
X139222026Y-96872698D01*
X139251830Y-96722861D01*
X140087400Y-96722861D01*
X140087400Y-96926739D01*
X140127174Y-97126698D01*
X140205195Y-97315056D01*
X140318463Y-97484574D01*
X140462626Y-97628737D01*
X140632144Y-97742005D01*
X140820502Y-97820026D01*
X141020461Y-97859800D01*
X141224339Y-97859800D01*
X141424298Y-97820026D01*
X141612656Y-97742005D01*
X141782174Y-97628737D01*
X141926337Y-97484574D01*
X142039605Y-97315056D01*
X142117626Y-97126698D01*
X142157400Y-96926739D01*
X142157400Y-96722861D01*
X142117626Y-96522902D01*
X142039605Y-96334544D01*
X141926337Y-96165026D01*
X141782174Y-96020863D01*
X141612656Y-95907595D01*
X141424298Y-95829574D01*
X141224339Y-95789800D01*
X141020461Y-95789800D01*
X140820502Y-95829574D01*
X140632144Y-95907595D01*
X140462626Y-96020863D01*
X140318463Y-96165026D01*
X140205195Y-96334544D01*
X140127174Y-96522902D01*
X140087400Y-96722861D01*
X139251830Y-96722861D01*
X139261800Y-96672739D01*
X139261800Y-96468861D01*
X139222026Y-96268902D01*
X139144005Y-96080544D01*
X139030737Y-95911026D01*
X138886574Y-95766863D01*
X138717056Y-95653595D01*
X138528698Y-95575574D01*
X138328739Y-95535800D01*
X138124861Y-95535800D01*
X137924902Y-95575574D01*
X137736544Y-95653595D01*
X137567026Y-95766863D01*
X137422863Y-95911026D01*
X137309595Y-96080544D01*
X137231574Y-96268902D01*
X137191800Y-96468861D01*
X134500760Y-96468861D01*
X134611739Y-96422892D01*
X134781257Y-96309624D01*
X134925420Y-96165461D01*
X135038688Y-95995943D01*
X135116709Y-95807585D01*
X135156483Y-95607626D01*
X135156483Y-95403748D01*
X135116709Y-95203789D01*
X135038688Y-95015431D01*
X134925420Y-94845913D01*
X134781257Y-94701750D01*
X134611739Y-94588482D01*
X134423381Y-94510461D01*
X134223422Y-94470687D01*
X134019544Y-94470687D01*
X133819585Y-94510461D01*
X133631227Y-94588482D01*
X133461709Y-94701750D01*
X133433395Y-94730064D01*
X133403605Y-94658144D01*
X133290337Y-94488626D01*
X133146174Y-94344463D01*
X132976656Y-94231195D01*
X132788298Y-94153174D01*
X132588339Y-94113400D01*
X132384461Y-94113400D01*
X132184502Y-94153174D01*
X131996144Y-94231195D01*
X131826626Y-94344463D01*
X131682463Y-94488626D01*
X131569195Y-94658144D01*
X131491174Y-94846502D01*
X131451400Y-95046461D01*
X129657112Y-95046461D01*
X129685000Y-94906260D01*
X129685000Y-94613740D01*
X129627932Y-94326842D01*
X129515990Y-94056589D01*
X129353475Y-93813368D01*
X129146632Y-93606525D01*
X129024210Y-93524725D01*
X135730727Y-93524725D01*
X135730727Y-93728603D01*
X135770501Y-93928562D01*
X135848522Y-94116920D01*
X135961790Y-94286438D01*
X136105953Y-94430601D01*
X136275471Y-94543869D01*
X136463829Y-94621890D01*
X136663788Y-94661664D01*
X136867666Y-94661664D01*
X137067625Y-94621890D01*
X137255983Y-94543869D01*
X137420638Y-94433850D01*
X137448102Y-94445226D01*
X137648061Y-94485000D01*
X137851939Y-94485000D01*
X138051898Y-94445226D01*
X138240256Y-94367205D01*
X138409774Y-94253937D01*
X138553937Y-94109774D01*
X138667205Y-93940256D01*
X138745226Y-93751898D01*
X138785000Y-93551939D01*
X138785000Y-93544492D01*
X140077561Y-93544492D01*
X140077561Y-93748370D01*
X140117335Y-93948329D01*
X140195356Y-94136687D01*
X140308624Y-94306205D01*
X140452787Y-94450368D01*
X140622305Y-94563636D01*
X140810663Y-94641657D01*
X141010622Y-94681431D01*
X141214500Y-94681431D01*
X141414459Y-94641657D01*
X141602817Y-94563636D01*
X141616195Y-94554697D01*
X141709744Y-94617205D01*
X141898102Y-94695226D01*
X142098061Y-94735000D01*
X142120725Y-94735000D01*
X142119400Y-94741661D01*
X142119400Y-94945539D01*
X142159174Y-95145498D01*
X142237195Y-95333856D01*
X142350463Y-95503374D01*
X142494626Y-95647537D01*
X142664144Y-95760805D01*
X142852502Y-95838826D01*
X143052461Y-95878600D01*
X143256339Y-95878600D01*
X143278319Y-95874228D01*
X143354795Y-96058856D01*
X143468063Y-96228374D01*
X143612226Y-96372537D01*
X143781744Y-96485805D01*
X143970102Y-96563826D01*
X144170061Y-96603600D01*
X144373939Y-96603600D01*
X144573898Y-96563826D01*
X144762256Y-96485805D01*
X144931774Y-96372537D01*
X145075937Y-96228374D01*
X145189205Y-96058856D01*
X145267226Y-95870498D01*
X145307000Y-95670539D01*
X145307000Y-95466661D01*
X151915001Y-95466661D01*
X151915001Y-95670539D01*
X151954775Y-95870498D01*
X152032796Y-96058856D01*
X152146064Y-96228374D01*
X152290227Y-96372537D01*
X152459745Y-96485805D01*
X152648103Y-96563826D01*
X152848062Y-96603600D01*
X153051940Y-96603600D01*
X153251899Y-96563826D01*
X153440257Y-96485805D01*
X153609775Y-96372537D01*
X153753938Y-96228374D01*
X153867206Y-96058856D01*
X153945227Y-95870498D01*
X153985001Y-95670539D01*
X153985001Y-95466661D01*
X153945227Y-95266702D01*
X153867206Y-95078344D01*
X153753938Y-94908826D01*
X153609775Y-94764663D01*
X153440257Y-94651395D01*
X153251899Y-94573374D01*
X153051940Y-94533600D01*
X152848062Y-94533600D01*
X152648103Y-94573374D01*
X152459745Y-94651395D01*
X152290227Y-94764663D01*
X152146064Y-94908826D01*
X152032796Y-95078344D01*
X151954775Y-95266702D01*
X151915001Y-95466661D01*
X145307000Y-95466661D01*
X145267226Y-95266702D01*
X145189205Y-95078344D01*
X145075937Y-94908826D01*
X144931774Y-94764663D01*
X144762256Y-94651395D01*
X144573898Y-94573374D01*
X144373939Y-94533600D01*
X144170061Y-94533600D01*
X144148081Y-94537972D01*
X144071605Y-94353344D01*
X143958337Y-94183826D01*
X143814174Y-94039663D01*
X143644656Y-93926395D01*
X143456298Y-93848374D01*
X143256339Y-93808600D01*
X143233675Y-93808600D01*
X143235000Y-93801939D01*
X143235000Y-93698061D01*
X148465000Y-93698061D01*
X148465000Y-93901939D01*
X148504774Y-94101898D01*
X148582795Y-94290256D01*
X148696063Y-94459774D01*
X148840226Y-94603937D01*
X149009744Y-94717205D01*
X149198102Y-94795226D01*
X149398061Y-94835000D01*
X149601939Y-94835000D01*
X149801898Y-94795226D01*
X149990256Y-94717205D01*
X150159774Y-94603937D01*
X150250000Y-94513711D01*
X150340226Y-94603937D01*
X150509744Y-94717205D01*
X150698102Y-94795226D01*
X150898061Y-94835000D01*
X151101939Y-94835000D01*
X151301898Y-94795226D01*
X151490256Y-94717205D01*
X151659774Y-94603937D01*
X151803937Y-94459774D01*
X151917205Y-94290256D01*
X151995226Y-94101898D01*
X152035000Y-93901939D01*
X152035000Y-93698061D01*
X151995226Y-93498102D01*
X151917205Y-93309744D01*
X151803937Y-93140226D01*
X151659774Y-92996063D01*
X151490256Y-92882795D01*
X151301898Y-92804774D01*
X151101939Y-92765000D01*
X150898061Y-92765000D01*
X150698102Y-92804774D01*
X150509744Y-92882795D01*
X150340226Y-92996063D01*
X150250000Y-93086289D01*
X150159774Y-92996063D01*
X149990256Y-92882795D01*
X149801898Y-92804774D01*
X149601939Y-92765000D01*
X149398061Y-92765000D01*
X149198102Y-92804774D01*
X149009744Y-92882795D01*
X148840226Y-92996063D01*
X148696063Y-93140226D01*
X148582795Y-93309744D01*
X148504774Y-93498102D01*
X148465000Y-93698061D01*
X143235000Y-93698061D01*
X143235000Y-93598061D01*
X143195226Y-93398102D01*
X143117205Y-93209744D01*
X143003937Y-93040226D01*
X142859774Y-92896063D01*
X142690256Y-92782795D01*
X142501898Y-92704774D01*
X142301939Y-92665000D01*
X142098061Y-92665000D01*
X141898102Y-92704774D01*
X141709744Y-92782795D01*
X141696366Y-92791734D01*
X141602817Y-92729226D01*
X141414459Y-92651205D01*
X141214500Y-92611431D01*
X141010622Y-92611431D01*
X140810663Y-92651205D01*
X140622305Y-92729226D01*
X140452787Y-92842494D01*
X140308624Y-92986657D01*
X140195356Y-93156175D01*
X140117335Y-93344533D01*
X140077561Y-93544492D01*
X138785000Y-93544492D01*
X138785000Y-93348061D01*
X138745226Y-93148102D01*
X138667205Y-92959744D01*
X138553937Y-92790226D01*
X138409774Y-92646063D01*
X138240256Y-92532795D01*
X138051898Y-92454774D01*
X137932656Y-92431055D01*
X137978937Y-92384774D01*
X138092205Y-92215256D01*
X138129496Y-92125228D01*
X138139774Y-92176898D01*
X138217795Y-92365256D01*
X138331063Y-92534774D01*
X138475226Y-92678937D01*
X138644744Y-92792205D01*
X138833102Y-92870226D01*
X139033061Y-92910000D01*
X139236939Y-92910000D01*
X139436898Y-92870226D01*
X139625256Y-92792205D01*
X139794774Y-92678937D01*
X139938937Y-92534774D01*
X140052205Y-92365256D01*
X140130226Y-92176898D01*
X140170000Y-91976939D01*
X140170000Y-91773061D01*
X140130226Y-91573102D01*
X140052205Y-91384744D01*
X139938937Y-91215226D01*
X139794774Y-91071063D01*
X139625256Y-90957795D01*
X139601757Y-90948061D01*
X152765000Y-90948061D01*
X152765000Y-91151939D01*
X152804774Y-91351898D01*
X152882795Y-91540256D01*
X152996063Y-91709774D01*
X153140226Y-91853937D01*
X153309744Y-91967205D01*
X153498102Y-92045226D01*
X153698061Y-92085000D01*
X153901939Y-92085000D01*
X154101898Y-92045226D01*
X154290256Y-91967205D01*
X154459774Y-91853937D01*
X154603937Y-91709774D01*
X154717205Y-91540256D01*
X154795226Y-91351898D01*
X154835000Y-91151939D01*
X154835000Y-90948061D01*
X154795226Y-90748102D01*
X154717205Y-90559744D01*
X154603937Y-90390226D01*
X154459774Y-90246063D01*
X154290256Y-90132795D01*
X154101898Y-90054774D01*
X153901939Y-90015000D01*
X153698061Y-90015000D01*
X153498102Y-90054774D01*
X153309744Y-90132795D01*
X153140226Y-90246063D01*
X152996063Y-90390226D01*
X152882795Y-90559744D01*
X152804774Y-90748102D01*
X152765000Y-90948061D01*
X139601757Y-90948061D01*
X139436898Y-90879774D01*
X139236939Y-90840000D01*
X139033061Y-90840000D01*
X138833102Y-90879774D01*
X138644744Y-90957795D01*
X138475226Y-91071063D01*
X138331063Y-91215226D01*
X138217795Y-91384744D01*
X138180504Y-91474772D01*
X138170226Y-91423102D01*
X138092205Y-91234744D01*
X137978937Y-91065226D01*
X137834774Y-90921063D01*
X137665256Y-90807795D01*
X137476898Y-90729774D01*
X137276939Y-90690000D01*
X137073061Y-90690000D01*
X136873102Y-90729774D01*
X136684744Y-90807795D01*
X136515226Y-90921063D01*
X136371063Y-91065226D01*
X136257795Y-91234744D01*
X136179774Y-91423102D01*
X136140000Y-91623061D01*
X136140000Y-91826939D01*
X136179774Y-92026898D01*
X136257795Y-92215256D01*
X136371063Y-92384774D01*
X136515226Y-92528937D01*
X136621648Y-92600046D01*
X136463829Y-92631438D01*
X136275471Y-92709459D01*
X136105953Y-92822727D01*
X135961790Y-92966890D01*
X135848522Y-93136408D01*
X135770501Y-93324766D01*
X135730727Y-93524725D01*
X129024210Y-93524725D01*
X128972240Y-93490000D01*
X129146632Y-93373475D01*
X129353475Y-93166632D01*
X129515990Y-92923411D01*
X129627932Y-92653158D01*
X129685000Y-92366260D01*
X129685000Y-92073740D01*
X129627932Y-91786842D01*
X129515990Y-91516589D01*
X129353475Y-91273368D01*
X129146632Y-91066525D01*
X128972240Y-90950000D01*
X129146632Y-90833475D01*
X129353475Y-90626632D01*
X129515990Y-90383411D01*
X129627932Y-90113158D01*
X129685000Y-89826260D01*
X129685000Y-89533740D01*
X129627932Y-89246842D01*
X129515990Y-88976589D01*
X129353475Y-88733368D01*
X129146632Y-88526525D01*
X128903411Y-88364010D01*
X128744196Y-88298061D01*
X133540000Y-88298061D01*
X133540000Y-88501939D01*
X133579774Y-88701898D01*
X133657795Y-88890256D01*
X133771063Y-89059774D01*
X133915226Y-89203937D01*
X134084744Y-89317205D01*
X134273102Y-89395226D01*
X134473061Y-89435000D01*
X134676939Y-89435000D01*
X134876898Y-89395226D01*
X135065256Y-89317205D01*
X135234774Y-89203937D01*
X135378937Y-89059774D01*
X135492205Y-88890256D01*
X135570226Y-88701898D01*
X135610000Y-88501939D01*
X135610000Y-88298061D01*
X135570226Y-88098102D01*
X135492205Y-87909744D01*
X135378937Y-87740226D01*
X135234774Y-87596063D01*
X135065256Y-87482795D01*
X134876898Y-87404774D01*
X134676939Y-87365000D01*
X134473061Y-87365000D01*
X134273102Y-87404774D01*
X134084744Y-87482795D01*
X133915226Y-87596063D01*
X133771063Y-87740226D01*
X133657795Y-87909744D01*
X133579774Y-88098102D01*
X133540000Y-88298061D01*
X128744196Y-88298061D01*
X128633158Y-88252068D01*
X128346260Y-88195000D01*
X128053740Y-88195000D01*
X127766842Y-88252068D01*
X127496589Y-88364010D01*
X127253368Y-88526525D01*
X127046525Y-88733368D01*
X127021409Y-88770956D01*
X126982256Y-88744795D01*
X126793898Y-88666774D01*
X126593939Y-88627000D01*
X126390061Y-88627000D01*
X126190102Y-88666774D01*
X126001744Y-88744795D01*
X125832226Y-88858063D01*
X125688063Y-89002226D01*
X125574795Y-89171744D01*
X125496774Y-89360102D01*
X125457000Y-89560061D01*
X122072000Y-89560061D01*
X122072000Y-84734061D01*
X142017800Y-84734061D01*
X142017800Y-84937939D01*
X142057574Y-85137898D01*
X142135595Y-85326256D01*
X142248863Y-85495774D01*
X142393026Y-85639937D01*
X142562544Y-85753205D01*
X142750902Y-85831226D01*
X142950861Y-85871000D01*
X143154739Y-85871000D01*
X143354698Y-85831226D01*
X143543056Y-85753205D01*
X143712574Y-85639937D01*
X143856737Y-85495774D01*
X143970005Y-85326256D01*
X144048026Y-85137898D01*
X144087800Y-84937939D01*
X144087800Y-84734061D01*
X144913400Y-84734061D01*
X144913400Y-84937939D01*
X144953174Y-85137898D01*
X145031195Y-85326256D01*
X145144463Y-85495774D01*
X145288626Y-85639937D01*
X145458144Y-85753205D01*
X145646502Y-85831226D01*
X145846461Y-85871000D01*
X146050339Y-85871000D01*
X146250298Y-85831226D01*
X146438656Y-85753205D01*
X146608174Y-85639937D01*
X146750050Y-85498061D01*
X151015000Y-85498061D01*
X151015000Y-85701939D01*
X151054774Y-85901898D01*
X151132795Y-86090256D01*
X151246063Y-86259774D01*
X151390226Y-86403937D01*
X151559744Y-86517205D01*
X151748102Y-86595226D01*
X151948061Y-86635000D01*
X152151939Y-86635000D01*
X152351898Y-86595226D01*
X152540256Y-86517205D01*
X152709774Y-86403937D01*
X152853937Y-86259774D01*
X152967205Y-86090256D01*
X153045226Y-85901898D01*
X153085000Y-85701939D01*
X153085000Y-85498061D01*
X153045226Y-85298102D01*
X152967205Y-85109744D01*
X152853937Y-84940226D01*
X152709774Y-84796063D01*
X152540256Y-84682795D01*
X152351898Y-84604774D01*
X152151939Y-84565000D01*
X151948061Y-84565000D01*
X151748102Y-84604774D01*
X151559744Y-84682795D01*
X151390226Y-84796063D01*
X151246063Y-84940226D01*
X151132795Y-85109744D01*
X151054774Y-85298102D01*
X151015000Y-85498061D01*
X146750050Y-85498061D01*
X146752337Y-85495774D01*
X146865605Y-85326256D01*
X146943626Y-85137898D01*
X146983400Y-84937939D01*
X146983400Y-84734061D01*
X146943626Y-84534102D01*
X146865605Y-84345744D01*
X146752337Y-84176226D01*
X146608174Y-84032063D01*
X146438656Y-83918795D01*
X146250298Y-83840774D01*
X146050339Y-83801000D01*
X145846461Y-83801000D01*
X145646502Y-83840774D01*
X145458144Y-83918795D01*
X145288626Y-84032063D01*
X145144463Y-84176226D01*
X145031195Y-84345744D01*
X144953174Y-84534102D01*
X144913400Y-84734061D01*
X144087800Y-84734061D01*
X144048026Y-84534102D01*
X143970005Y-84345744D01*
X143856737Y-84176226D01*
X143712574Y-84032063D01*
X143543056Y-83918795D01*
X143354698Y-83840774D01*
X143154739Y-83801000D01*
X142950861Y-83801000D01*
X142750902Y-83840774D01*
X142562544Y-83918795D01*
X142393026Y-84032063D01*
X142248863Y-84176226D01*
X142135595Y-84345744D01*
X142057574Y-84534102D01*
X142017800Y-84734061D01*
X122072000Y-84734061D01*
X122072000Y-82244861D01*
X135363000Y-82244861D01*
X135363000Y-82448739D01*
X135402774Y-82648698D01*
X135480795Y-82837056D01*
X135594063Y-83006574D01*
X135738226Y-83150737D01*
X135907744Y-83264005D01*
X136096102Y-83342026D01*
X136296061Y-83381800D01*
X136499939Y-83381800D01*
X136699898Y-83342026D01*
X136888256Y-83264005D01*
X137057774Y-83150737D01*
X137060450Y-83148061D01*
X147665000Y-83148061D01*
X147665000Y-83351939D01*
X147704774Y-83551898D01*
X147782795Y-83740256D01*
X147896063Y-83909774D01*
X148040226Y-84053937D01*
X148209744Y-84167205D01*
X148398102Y-84245226D01*
X148497431Y-84264984D01*
X148504774Y-84301898D01*
X148582795Y-84490256D01*
X148696063Y-84659774D01*
X148840226Y-84803937D01*
X149009744Y-84917205D01*
X149198102Y-84995226D01*
X149398061Y-85035000D01*
X149601939Y-85035000D01*
X149801898Y-84995226D01*
X149990256Y-84917205D01*
X150159774Y-84803937D01*
X150303937Y-84659774D01*
X150417205Y-84490256D01*
X150495226Y-84301898D01*
X150535000Y-84101939D01*
X150535000Y-83898061D01*
X150495226Y-83698102D01*
X150417205Y-83509744D01*
X150303937Y-83340226D01*
X150159774Y-83196063D01*
X149990256Y-83082795D01*
X149801898Y-83004774D01*
X149702569Y-82985016D01*
X149695226Y-82948102D01*
X149617205Y-82759744D01*
X149503937Y-82590226D01*
X149359774Y-82446063D01*
X149190256Y-82332795D01*
X149001898Y-82254774D01*
X148801939Y-82215000D01*
X148598061Y-82215000D01*
X148398102Y-82254774D01*
X148209744Y-82332795D01*
X148040226Y-82446063D01*
X147896063Y-82590226D01*
X147782795Y-82759744D01*
X147704774Y-82948102D01*
X147665000Y-83148061D01*
X137060450Y-83148061D01*
X137201937Y-83006574D01*
X137315205Y-82837056D01*
X137393226Y-82648698D01*
X137433000Y-82448739D01*
X137433000Y-82244861D01*
X137393226Y-82044902D01*
X137315205Y-81856544D01*
X137201937Y-81687026D01*
X137057774Y-81542863D01*
X136888256Y-81429595D01*
X136699898Y-81351574D01*
X136499939Y-81311800D01*
X136296061Y-81311800D01*
X136096102Y-81351574D01*
X135907744Y-81429595D01*
X135738226Y-81542863D01*
X135594063Y-81687026D01*
X135480795Y-81856544D01*
X135402774Y-82044902D01*
X135363000Y-82244861D01*
X122072000Y-82244861D01*
X122072000Y-78724350D01*
X122093629Y-78745979D01*
X122207998Y-78631610D01*
X122394073Y-78972766D01*
X122811409Y-79188513D01*
X123262815Y-79318696D01*
X123730946Y-79358313D01*
X124197811Y-79305842D01*
X124645468Y-79163297D01*
X125001927Y-78972766D01*
X125188003Y-78631609D01*
X123698000Y-77141605D01*
X123683858Y-77155748D01*
X123504252Y-76976142D01*
X123518395Y-76962000D01*
X123504253Y-76947858D01*
X123683858Y-76768252D01*
X123698000Y-76782395D01*
X123712142Y-76768252D01*
X123891748Y-76947858D01*
X123877605Y-76962000D01*
X125367609Y-78452003D01*
X125708766Y-78265927D01*
X125924513Y-77848591D01*
X126054696Y-77397185D01*
X126094313Y-76929054D01*
X126072286Y-76733061D01*
X130156000Y-76733061D01*
X130156000Y-76936939D01*
X130195774Y-77136898D01*
X130273795Y-77325256D01*
X130387063Y-77494774D01*
X130531226Y-77638937D01*
X130700744Y-77752205D01*
X130889102Y-77830226D01*
X131089061Y-77870000D01*
X131292939Y-77870000D01*
X131492898Y-77830226D01*
X131681256Y-77752205D01*
X131850774Y-77638937D01*
X131994937Y-77494774D01*
X132108205Y-77325256D01*
X132186226Y-77136898D01*
X132226000Y-76936939D01*
X132226000Y-76733061D01*
X132219039Y-76698061D01*
X147665000Y-76698061D01*
X147665000Y-76901939D01*
X147704774Y-77101898D01*
X147782795Y-77290256D01*
X147896063Y-77459774D01*
X148040226Y-77603937D01*
X148209744Y-77717205D01*
X148398102Y-77795226D01*
X148598061Y-77835000D01*
X148801939Y-77835000D01*
X149001898Y-77795226D01*
X149190256Y-77717205D01*
X149359774Y-77603937D01*
X149503937Y-77459774D01*
X149617205Y-77290256D01*
X149695226Y-77101898D01*
X149735000Y-76901939D01*
X149735000Y-76698061D01*
X149695226Y-76498102D01*
X149617205Y-76309744D01*
X149503937Y-76140226D01*
X149359774Y-75996063D01*
X149190256Y-75882795D01*
X149001898Y-75804774D01*
X148801939Y-75765000D01*
X148598061Y-75765000D01*
X148398102Y-75804774D01*
X148209744Y-75882795D01*
X148040226Y-75996063D01*
X147896063Y-76140226D01*
X147782795Y-76309744D01*
X147704774Y-76498102D01*
X147665000Y-76698061D01*
X132219039Y-76698061D01*
X132186226Y-76533102D01*
X132108205Y-76344744D01*
X131994937Y-76175226D01*
X131850774Y-76031063D01*
X131681256Y-75917795D01*
X131492898Y-75839774D01*
X131292939Y-75800000D01*
X131089061Y-75800000D01*
X130889102Y-75839774D01*
X130700744Y-75917795D01*
X130531226Y-76031063D01*
X130387063Y-76175226D01*
X130273795Y-76344744D01*
X130195774Y-76533102D01*
X130156000Y-76733061D01*
X126072286Y-76733061D01*
X126041842Y-76462189D01*
X125899297Y-76014532D01*
X125708766Y-75658073D01*
X125367610Y-75471998D01*
X125481979Y-75357629D01*
X125460350Y-75336000D01*
X152415650Y-75336000D01*
X152394021Y-75357629D01*
%TA.AperFunction,Conductor*%
D15*
G36*
X152394021Y-75357629D02*
G01*
X152508390Y-75471998D01*
X152167234Y-75658073D01*
X151951487Y-76075409D01*
X151821304Y-76526815D01*
X151781687Y-76994946D01*
X151834158Y-77461811D01*
X151976703Y-77909468D01*
X152167234Y-78265927D01*
X152508391Y-78452003D01*
X153998395Y-76962000D01*
X153984252Y-76947858D01*
X154163858Y-76768252D01*
X154178000Y-76782395D01*
X154192143Y-76768253D01*
X154371748Y-76947858D01*
X154357605Y-76962000D01*
X154371748Y-76976142D01*
X154192142Y-77155748D01*
X154178000Y-77141605D01*
X152687997Y-78631609D01*
X152874073Y-78972766D01*
X153291409Y-79188513D01*
X153742815Y-79318696D01*
X154210946Y-79358313D01*
X154677811Y-79305842D01*
X155125468Y-79163297D01*
X155481927Y-78972766D01*
X155668002Y-78631610D01*
X155782371Y-78745979D01*
X155804001Y-78724349D01*
X155804000Y-120237650D01*
X155782371Y-120216021D01*
X155668002Y-120330390D01*
X155481927Y-119989234D01*
X155064591Y-119773487D01*
X154613185Y-119643304D01*
X154145054Y-119603687D01*
X153678189Y-119656158D01*
X153230532Y-119798703D01*
X152874073Y-119989234D01*
X152687997Y-120330391D01*
X154178000Y-121820395D01*
X154192142Y-121806252D01*
X154371748Y-121985858D01*
X154357605Y-122000000D01*
X154371748Y-122014142D01*
X154192142Y-122193748D01*
X154178000Y-122179605D01*
X154163858Y-122193748D01*
X153984252Y-122014142D01*
X153998395Y-122000000D01*
X152508391Y-120509997D01*
X152167234Y-120696073D01*
X151951487Y-121113409D01*
X151821304Y-121564815D01*
X151781687Y-122032946D01*
X151834158Y-122499811D01*
X151976703Y-122947468D01*
X152167234Y-123303927D01*
X152508390Y-123490002D01*
X152452392Y-123546000D01*
X125460350Y-123546000D01*
X125481979Y-123524371D01*
X125367610Y-123410002D01*
X125708766Y-123223927D01*
X125924513Y-122806591D01*
X126054696Y-122355185D01*
X126084918Y-121998061D01*
X128265000Y-121998061D01*
X128265000Y-122201939D01*
X128304774Y-122401898D01*
X128382795Y-122590256D01*
X128496063Y-122759774D01*
X128640226Y-122903937D01*
X128809744Y-123017205D01*
X128998102Y-123095226D01*
X129198061Y-123135000D01*
X129401939Y-123135000D01*
X129601898Y-123095226D01*
X129790256Y-123017205D01*
X129959774Y-122903937D01*
X130103937Y-122759774D01*
X130217205Y-122590256D01*
X130295226Y-122401898D01*
X130335000Y-122201939D01*
X130335000Y-121998061D01*
X130295226Y-121798102D01*
X130217205Y-121609744D01*
X130103937Y-121440226D01*
X129959774Y-121296063D01*
X129790256Y-121182795D01*
X129601898Y-121104774D01*
X129401939Y-121065000D01*
X129198061Y-121065000D01*
X128998102Y-121104774D01*
X128809744Y-121182795D01*
X128640226Y-121296063D01*
X128496063Y-121440226D01*
X128382795Y-121609744D01*
X128304774Y-121798102D01*
X128265000Y-121998061D01*
X126084918Y-121998061D01*
X126094313Y-121887054D01*
X126041842Y-121420189D01*
X125899297Y-120972532D01*
X125708766Y-120616073D01*
X125367609Y-120429997D01*
X123877605Y-121920000D01*
X123891748Y-121934142D01*
X123712142Y-122113748D01*
X123698000Y-122099605D01*
X123683858Y-122113748D01*
X123504252Y-121934142D01*
X123518395Y-121920000D01*
X123504252Y-121905858D01*
X123683858Y-121726252D01*
X123698000Y-121740395D01*
X125040333Y-120398061D01*
X140765000Y-120398061D01*
X140765000Y-120601939D01*
X140804774Y-120801898D01*
X140882795Y-120990256D01*
X140996063Y-121159774D01*
X141140226Y-121303937D01*
X141309744Y-121417205D01*
X141498102Y-121495226D01*
X141698061Y-121535000D01*
X141901939Y-121535000D01*
X142101898Y-121495226D01*
X142290256Y-121417205D01*
X142459774Y-121303937D01*
X142511928Y-121251783D01*
X142511928Y-122550000D01*
X142524188Y-122674482D01*
X142560498Y-122794180D01*
X142619463Y-122904494D01*
X142698815Y-123001185D01*
X142795506Y-123080537D01*
X142905820Y-123139502D01*
X143025518Y-123175812D01*
X143150000Y-123188072D01*
X144850000Y-123188072D01*
X144974482Y-123175812D01*
X145094180Y-123139502D01*
X145204494Y-123080537D01*
X145301185Y-123001185D01*
X145380537Y-122904494D01*
X145439502Y-122794180D01*
X145475812Y-122674482D01*
X145488072Y-122550000D01*
X145488072Y-122098061D01*
X145765000Y-122098061D01*
X145765000Y-122301939D01*
X145804774Y-122501898D01*
X145882795Y-122690256D01*
X145996063Y-122859774D01*
X146140226Y-123003937D01*
X146309744Y-123117205D01*
X146498102Y-123195226D01*
X146698061Y-123235000D01*
X146901939Y-123235000D01*
X147101898Y-123195226D01*
X147290256Y-123117205D01*
X147459774Y-123003937D01*
X147603937Y-122859774D01*
X147717205Y-122690256D01*
X147795226Y-122501898D01*
X147835000Y-122301939D01*
X147835000Y-122098061D01*
X147795226Y-121898102D01*
X147717205Y-121709744D01*
X147603937Y-121540226D01*
X147459774Y-121396063D01*
X147290256Y-121282795D01*
X147101898Y-121204774D01*
X146901939Y-121165000D01*
X146698061Y-121165000D01*
X146498102Y-121204774D01*
X146309744Y-121282795D01*
X146140226Y-121396063D01*
X145996063Y-121540226D01*
X145882795Y-121709744D01*
X145804774Y-121898102D01*
X145765000Y-122098061D01*
X145488072Y-122098061D01*
X145488072Y-120850000D01*
X145475812Y-120725518D01*
X145439502Y-120605820D01*
X145380537Y-120495506D01*
X145301185Y-120398815D01*
X145204494Y-120319463D01*
X145094180Y-120260498D01*
X145013534Y-120236034D01*
X145097588Y-120160269D01*
X145271641Y-119926920D01*
X145396825Y-119664099D01*
X145441476Y-119516890D01*
X145320155Y-119287000D01*
X144127000Y-119287000D01*
X144127000Y-119307000D01*
X143873000Y-119307000D01*
X143873000Y-119287000D01*
X142679845Y-119287000D01*
X142558524Y-119516890D01*
X142603175Y-119664099D01*
X142728359Y-119926920D01*
X142902412Y-120160269D01*
X142986466Y-120236034D01*
X142905820Y-120260498D01*
X142817073Y-120307935D01*
X142795226Y-120198102D01*
X142717205Y-120009744D01*
X142603937Y-119840226D01*
X142459774Y-119696063D01*
X142290256Y-119582795D01*
X142101898Y-119504774D01*
X141901939Y-119465000D01*
X141698061Y-119465000D01*
X141498102Y-119504774D01*
X141309744Y-119582795D01*
X141140226Y-119696063D01*
X140996063Y-119840226D01*
X140882795Y-120009744D01*
X140804774Y-120198102D01*
X140765000Y-120398061D01*
X125040333Y-120398061D01*
X125188003Y-120250391D01*
X125001927Y-119909234D01*
X124584591Y-119693487D01*
X124133185Y-119563304D01*
X123665054Y-119523687D01*
X123198189Y-119576158D01*
X122750532Y-119718703D01*
X122394073Y-119909234D01*
X122207998Y-120250390D01*
X122093629Y-120136021D01*
X122072000Y-120157650D01*
X122072000Y-118803110D01*
X142558524Y-118803110D01*
X142679845Y-119033000D01*
X143873000Y-119033000D01*
X143873000Y-117839186D01*
X144127000Y-117839186D01*
X144127000Y-119033000D01*
X145320155Y-119033000D01*
X145441476Y-118803110D01*
X145396825Y-118655901D01*
X145271641Y-118393080D01*
X145097588Y-118159731D01*
X144881355Y-117964822D01*
X144631252Y-117815843D01*
X144356891Y-117718519D01*
X144127000Y-117839186D01*
X143873000Y-117839186D01*
X143643109Y-117718519D01*
X143368748Y-117815843D01*
X143118645Y-117964822D01*
X142902412Y-118159731D01*
X142728359Y-118393080D01*
X142603175Y-118655901D01*
X142558524Y-118803110D01*
X122072000Y-118803110D01*
X122072000Y-116103061D01*
X134860000Y-116103061D01*
X134860000Y-116306939D01*
X134899774Y-116506898D01*
X134977795Y-116695256D01*
X135091063Y-116864774D01*
X135235226Y-117008937D01*
X135404744Y-117122205D01*
X135593102Y-117200226D01*
X135793061Y-117240000D01*
X135996939Y-117240000D01*
X136196898Y-117200226D01*
X136385256Y-117122205D01*
X136554774Y-117008937D01*
X136698937Y-116864774D01*
X136812205Y-116695256D01*
X136890226Y-116506898D01*
X136930000Y-116306939D01*
X136930000Y-116103061D01*
X136890226Y-115903102D01*
X136812205Y-115714744D01*
X136698937Y-115545226D01*
X136554774Y-115401063D01*
X136385256Y-115287795D01*
X136196898Y-115209774D01*
X135996939Y-115170000D01*
X135793061Y-115170000D01*
X135593102Y-115209774D01*
X135404744Y-115287795D01*
X135235226Y-115401063D01*
X135091063Y-115545226D01*
X134977795Y-115714744D01*
X134899774Y-115903102D01*
X134860000Y-116103061D01*
X122072000Y-116103061D01*
X122072000Y-115010861D01*
X151619000Y-115010861D01*
X151619000Y-115214739D01*
X151658774Y-115414698D01*
X151736795Y-115603056D01*
X151850063Y-115772574D01*
X151994226Y-115916737D01*
X152163744Y-116030005D01*
X152352102Y-116108026D01*
X152552061Y-116147800D01*
X152755939Y-116147800D01*
X152955898Y-116108026D01*
X153144256Y-116030005D01*
X153313774Y-115916737D01*
X153457937Y-115772574D01*
X153571205Y-115603056D01*
X153649226Y-115414698D01*
X153689000Y-115214739D01*
X153689000Y-115010861D01*
X153649226Y-114810902D01*
X153571205Y-114622544D01*
X153457937Y-114453026D01*
X153313774Y-114308863D01*
X153144256Y-114195595D01*
X152955898Y-114117574D01*
X152755939Y-114077800D01*
X152552061Y-114077800D01*
X152352102Y-114117574D01*
X152163744Y-114195595D01*
X151994226Y-114308863D01*
X151850063Y-114453026D01*
X151736795Y-114622544D01*
X151658774Y-114810902D01*
X151619000Y-115010861D01*
X122072000Y-115010861D01*
X122072000Y-111099261D01*
X128098600Y-111099261D01*
X128098600Y-111303139D01*
X128138374Y-111503098D01*
X128216395Y-111691456D01*
X128329663Y-111860974D01*
X128473826Y-112005137D01*
X128643344Y-112118405D01*
X128831702Y-112196426D01*
X129031661Y-112236200D01*
X129235539Y-112236200D01*
X129435498Y-112196426D01*
X129623856Y-112118405D01*
X129793374Y-112005137D01*
X129937537Y-111860974D01*
X130050805Y-111691456D01*
X130128826Y-111503098D01*
X130168600Y-111303139D01*
X130168600Y-111099261D01*
X130128826Y-110899302D01*
X130050805Y-110710944D01*
X129962351Y-110578562D01*
X138004600Y-110578562D01*
X138004600Y-110782440D01*
X138044374Y-110982399D01*
X138122395Y-111170757D01*
X138235663Y-111340275D01*
X138379826Y-111484438D01*
X138549344Y-111597706D01*
X138737702Y-111675727D01*
X138937661Y-111715501D01*
X139141539Y-111715501D01*
X139341498Y-111675727D01*
X139529856Y-111597706D01*
X139699374Y-111484438D01*
X139843537Y-111340275D01*
X139956805Y-111170757D01*
X140034826Y-110982399D01*
X140074600Y-110782440D01*
X140074600Y-110578562D01*
X140034826Y-110378603D01*
X139956805Y-110190245D01*
X139843537Y-110020727D01*
X139699374Y-109876564D01*
X139529856Y-109763296D01*
X139341498Y-109685275D01*
X139141539Y-109645501D01*
X138937661Y-109645501D01*
X138737702Y-109685275D01*
X138549344Y-109763296D01*
X138379826Y-109876564D01*
X138235663Y-110020727D01*
X138122395Y-110190245D01*
X138044374Y-110378603D01*
X138004600Y-110578562D01*
X129962351Y-110578562D01*
X129937537Y-110541426D01*
X129793374Y-110397263D01*
X129623856Y-110283995D01*
X129435498Y-110205974D01*
X129235539Y-110166200D01*
X129031661Y-110166200D01*
X128831702Y-110205974D01*
X128643344Y-110283995D01*
X128473826Y-110397263D01*
X128329663Y-110541426D01*
X128216395Y-110710944D01*
X128138374Y-110899302D01*
X128098600Y-111099261D01*
X122072000Y-111099261D01*
X122072000Y-109880061D01*
X125253800Y-109880061D01*
X125253800Y-110083939D01*
X125293574Y-110283898D01*
X125371595Y-110472256D01*
X125484863Y-110641774D01*
X125629026Y-110785937D01*
X125798544Y-110899205D01*
X125986902Y-110977226D01*
X126186861Y-111017000D01*
X126390739Y-111017000D01*
X126590698Y-110977226D01*
X126779056Y-110899205D01*
X126948574Y-110785937D01*
X127092737Y-110641774D01*
X127206005Y-110472256D01*
X127284026Y-110283898D01*
X127323800Y-110083939D01*
X127323800Y-109880061D01*
X127284026Y-109680102D01*
X127206005Y-109491744D01*
X127092737Y-109322226D01*
X127040972Y-109270461D01*
X134702600Y-109270461D01*
X134702600Y-109474339D01*
X134742374Y-109674298D01*
X134820395Y-109862656D01*
X134933663Y-110032174D01*
X135077826Y-110176337D01*
X135247344Y-110289605D01*
X135435702Y-110367626D01*
X135635661Y-110407400D01*
X135839539Y-110407400D01*
X136039498Y-110367626D01*
X136227856Y-110289605D01*
X136397374Y-110176337D01*
X136541537Y-110032174D01*
X136654805Y-109862656D01*
X136732826Y-109674298D01*
X136772600Y-109474339D01*
X136772600Y-109270461D01*
X136732826Y-109070502D01*
X136654805Y-108882144D01*
X136612252Y-108818459D01*
X136693937Y-108736774D01*
X136710716Y-108711661D01*
X140646200Y-108711661D01*
X140646200Y-108915539D01*
X140685974Y-109115498D01*
X140763995Y-109303856D01*
X140877263Y-109473374D01*
X141021426Y-109617537D01*
X141190944Y-109730805D01*
X141379302Y-109808826D01*
X141579261Y-109848600D01*
X141783139Y-109848600D01*
X141983098Y-109808826D01*
X142171456Y-109730805D01*
X142340974Y-109617537D01*
X142434150Y-109524361D01*
X142463974Y-109674298D01*
X142541995Y-109862656D01*
X142655263Y-110032174D01*
X142799426Y-110176337D01*
X142968944Y-110289605D01*
X143157302Y-110367626D01*
X143357261Y-110407400D01*
X143561139Y-110407400D01*
X143761098Y-110367626D01*
X143949456Y-110289605D01*
X144118974Y-110176337D01*
X144212050Y-110083261D01*
X149333000Y-110083261D01*
X149333000Y-110287139D01*
X149372774Y-110487098D01*
X149450795Y-110675456D01*
X149564063Y-110844974D01*
X149708226Y-110989137D01*
X149877744Y-111102405D01*
X150066102Y-111180426D01*
X150266061Y-111220200D01*
X150469939Y-111220200D01*
X150669898Y-111180426D01*
X150858256Y-111102405D01*
X151027774Y-110989137D01*
X151171937Y-110844974D01*
X151285205Y-110675456D01*
X151363226Y-110487098D01*
X151403000Y-110287139D01*
X151403000Y-110083261D01*
X151363226Y-109883302D01*
X151285205Y-109694944D01*
X151171937Y-109525426D01*
X151027774Y-109381263D01*
X150858256Y-109267995D01*
X150669898Y-109189974D01*
X150469939Y-109150200D01*
X150266061Y-109150200D01*
X150066102Y-109189974D01*
X149877744Y-109267995D01*
X149708226Y-109381263D01*
X149564063Y-109525426D01*
X149450795Y-109694944D01*
X149372774Y-109883302D01*
X149333000Y-110083261D01*
X144212050Y-110083261D01*
X144263137Y-110032174D01*
X144376405Y-109862656D01*
X144454426Y-109674298D01*
X144494200Y-109474339D01*
X144494200Y-109270461D01*
X144454426Y-109070502D01*
X144376405Y-108882144D01*
X144263137Y-108712626D01*
X144118974Y-108568463D01*
X143949456Y-108455195D01*
X143761098Y-108377174D01*
X143561139Y-108337400D01*
X143357261Y-108337400D01*
X143157302Y-108377174D01*
X142968944Y-108455195D01*
X142799426Y-108568463D01*
X142706250Y-108661639D01*
X142676426Y-108511702D01*
X142598405Y-108323344D01*
X142485137Y-108153826D01*
X142340974Y-108009663D01*
X142171456Y-107896395D01*
X141983098Y-107818374D01*
X141783139Y-107778600D01*
X141579261Y-107778600D01*
X141379302Y-107818374D01*
X141190944Y-107896395D01*
X141021426Y-108009663D01*
X140877263Y-108153826D01*
X140763995Y-108323344D01*
X140685974Y-108511702D01*
X140646200Y-108711661D01*
X136710716Y-108711661D01*
X136807205Y-108567256D01*
X136885226Y-108378898D01*
X136925000Y-108178939D01*
X136925000Y-107975061D01*
X136885226Y-107775102D01*
X136807205Y-107586744D01*
X136693937Y-107417226D01*
X136549774Y-107273063D01*
X136380256Y-107159795D01*
X136191898Y-107081774D01*
X135991939Y-107042000D01*
X135788061Y-107042000D01*
X135588102Y-107081774D01*
X135399744Y-107159795D01*
X135230226Y-107273063D01*
X135086063Y-107417226D01*
X134972795Y-107586744D01*
X134894774Y-107775102D01*
X134855000Y-107975061D01*
X134855000Y-108178939D01*
X134894774Y-108378898D01*
X134972795Y-108567256D01*
X135015348Y-108630941D01*
X134933663Y-108712626D01*
X134820395Y-108882144D01*
X134742374Y-109070502D01*
X134702600Y-109270461D01*
X127040972Y-109270461D01*
X126948574Y-109178063D01*
X126779056Y-109064795D01*
X126590698Y-108986774D01*
X126390739Y-108947000D01*
X126186861Y-108947000D01*
X125986902Y-108986774D01*
X125798544Y-109064795D01*
X125629026Y-109178063D01*
X125484863Y-109322226D01*
X125371595Y-109491744D01*
X125293574Y-109680102D01*
X125253800Y-109880061D01*
X122072000Y-109880061D01*
X122072000Y-105612861D01*
X131197400Y-105612861D01*
X131197400Y-105816739D01*
X131237174Y-106016698D01*
X131315195Y-106205056D01*
X131428463Y-106374574D01*
X131572626Y-106518737D01*
X131742144Y-106632005D01*
X131930502Y-106710026D01*
X132130461Y-106749800D01*
X132334339Y-106749800D01*
X132534298Y-106710026D01*
X132722656Y-106632005D01*
X132892174Y-106518737D01*
X132896350Y-106514561D01*
X136379000Y-106514561D01*
X136379000Y-106718439D01*
X136418774Y-106918398D01*
X136496795Y-107106756D01*
X136610063Y-107276274D01*
X136754226Y-107420437D01*
X136923744Y-107533705D01*
X137112102Y-107611726D01*
X137312061Y-107651500D01*
X137515939Y-107651500D01*
X137715898Y-107611726D01*
X137904256Y-107533705D01*
X138073774Y-107420437D01*
X138103350Y-107390861D01*
X143643400Y-107390861D01*
X143643400Y-107594739D01*
X143683174Y-107794698D01*
X143761195Y-107983056D01*
X143874463Y-108152574D01*
X144018626Y-108296737D01*
X144188144Y-108410005D01*
X144376502Y-108488026D01*
X144576461Y-108527800D01*
X144780339Y-108527800D01*
X144980298Y-108488026D01*
X145168656Y-108410005D01*
X145338174Y-108296737D01*
X145482337Y-108152574D01*
X145595605Y-107983056D01*
X145673626Y-107794698D01*
X145713400Y-107594739D01*
X145713400Y-107390861D01*
X145673626Y-107190902D01*
X145595605Y-107002544D01*
X145482337Y-106833026D01*
X145338174Y-106688863D01*
X145168656Y-106575595D01*
X144980298Y-106497574D01*
X144780339Y-106457800D01*
X144576461Y-106457800D01*
X144376502Y-106497574D01*
X144188144Y-106575595D01*
X144018626Y-106688863D01*
X143874463Y-106833026D01*
X143761195Y-107002544D01*
X143683174Y-107190902D01*
X143643400Y-107390861D01*
X138103350Y-107390861D01*
X138217937Y-107276274D01*
X138331205Y-107106756D01*
X138409226Y-106918398D01*
X138449000Y-106718439D01*
X138449000Y-106514561D01*
X138409226Y-106314602D01*
X138331205Y-106126244D01*
X138217937Y-105956726D01*
X138073774Y-105812563D01*
X137904256Y-105699295D01*
X137715898Y-105621274D01*
X137515939Y-105581500D01*
X137312061Y-105581500D01*
X137112102Y-105621274D01*
X136923744Y-105699295D01*
X136754226Y-105812563D01*
X136610063Y-105956726D01*
X136496795Y-106126244D01*
X136418774Y-106314602D01*
X136379000Y-106514561D01*
X132896350Y-106514561D01*
X133036337Y-106374574D01*
X133149605Y-106205056D01*
X133227626Y-106016698D01*
X133267400Y-105816739D01*
X133267400Y-105612861D01*
X133244665Y-105498561D01*
X138284000Y-105498561D01*
X138284000Y-105702439D01*
X138323774Y-105902398D01*
X138401795Y-106090756D01*
X138515063Y-106260274D01*
X138659226Y-106404437D01*
X138828744Y-106517705D01*
X139017102Y-106595726D01*
X139217061Y-106635500D01*
X139420939Y-106635500D01*
X139620898Y-106595726D01*
X139809256Y-106517705D01*
X139978774Y-106404437D01*
X140122937Y-106260274D01*
X140236205Y-106090756D01*
X140314226Y-105902398D01*
X140354000Y-105702439D01*
X140354000Y-105498561D01*
X140314226Y-105298602D01*
X140236205Y-105110244D01*
X140122937Y-104940726D01*
X139978774Y-104796563D01*
X139809256Y-104683295D01*
X139620898Y-104605274D01*
X139420939Y-104565500D01*
X139217061Y-104565500D01*
X139017102Y-104605274D01*
X138828744Y-104683295D01*
X138659226Y-104796563D01*
X138515063Y-104940726D01*
X138401795Y-105110244D01*
X138323774Y-105298602D01*
X138284000Y-105498561D01*
X133244665Y-105498561D01*
X133227626Y-105412902D01*
X133149605Y-105224544D01*
X133036337Y-105055026D01*
X132892174Y-104910863D01*
X132722656Y-104797595D01*
X132534298Y-104719574D01*
X132334339Y-104679800D01*
X132130461Y-104679800D01*
X131930502Y-104719574D01*
X131742144Y-104797595D01*
X131572626Y-104910863D01*
X131428463Y-105055026D01*
X131315195Y-105224544D01*
X131237174Y-105412902D01*
X131197400Y-105612861D01*
X122072000Y-105612861D01*
X122072000Y-103936461D01*
X142678200Y-103936461D01*
X142678200Y-104140339D01*
X142717974Y-104340298D01*
X142795995Y-104528656D01*
X142909263Y-104698174D01*
X143053426Y-104842337D01*
X143222944Y-104955605D01*
X143411302Y-105033626D01*
X143611261Y-105073400D01*
X143815139Y-105073400D01*
X144015098Y-105033626D01*
X144203456Y-104955605D01*
X144372974Y-104842337D01*
X144517137Y-104698174D01*
X144630405Y-104528656D01*
X144708426Y-104340298D01*
X144746664Y-104148061D01*
X146015000Y-104148061D01*
X146015000Y-104351939D01*
X146054774Y-104551898D01*
X146132795Y-104740256D01*
X146246063Y-104909774D01*
X146390226Y-105053937D01*
X146559744Y-105167205D01*
X146748102Y-105245226D01*
X146948061Y-105285000D01*
X147151939Y-105285000D01*
X147351898Y-105245226D01*
X147540256Y-105167205D01*
X147709774Y-105053937D01*
X147853937Y-104909774D01*
X147967205Y-104740256D01*
X148045226Y-104551898D01*
X148085000Y-104351939D01*
X148085000Y-104148061D01*
X148068965Y-104067446D01*
X148190256Y-104017205D01*
X148359774Y-103903937D01*
X148503937Y-103759774D01*
X148617205Y-103590256D01*
X148695226Y-103401898D01*
X148735000Y-103201939D01*
X148735000Y-102998061D01*
X151215000Y-102998061D01*
X151215000Y-103201939D01*
X151254774Y-103401898D01*
X151332795Y-103590256D01*
X151446063Y-103759774D01*
X151590226Y-103903937D01*
X151759744Y-104017205D01*
X151948102Y-104095226D01*
X152148061Y-104135000D01*
X152351939Y-104135000D01*
X152551898Y-104095226D01*
X152740256Y-104017205D01*
X152909774Y-103903937D01*
X153053937Y-103759774D01*
X153167205Y-103590256D01*
X153245226Y-103401898D01*
X153285000Y-103201939D01*
X153285000Y-102998061D01*
X153245226Y-102798102D01*
X153167205Y-102609744D01*
X153053937Y-102440226D01*
X152909774Y-102296063D01*
X152740256Y-102182795D01*
X152551898Y-102104774D01*
X152351939Y-102065000D01*
X152148061Y-102065000D01*
X151948102Y-102104774D01*
X151759744Y-102182795D01*
X151590226Y-102296063D01*
X151446063Y-102440226D01*
X151332795Y-102609744D01*
X151254774Y-102798102D01*
X151215000Y-102998061D01*
X148735000Y-102998061D01*
X148695226Y-102798102D01*
X148617205Y-102609744D01*
X148503937Y-102440226D01*
X148359774Y-102296063D01*
X148190256Y-102182795D01*
X148001898Y-102104774D01*
X147801939Y-102065000D01*
X147598061Y-102065000D01*
X147398102Y-102104774D01*
X147209744Y-102182795D01*
X147040226Y-102296063D01*
X146896063Y-102440226D01*
X146782795Y-102609744D01*
X146704774Y-102798102D01*
X146665000Y-102998061D01*
X146665000Y-103201939D01*
X146681035Y-103282554D01*
X146559744Y-103332795D01*
X146390226Y-103446063D01*
X146246063Y-103590226D01*
X146132795Y-103759744D01*
X146054774Y-103948102D01*
X146015000Y-104148061D01*
X144746664Y-104148061D01*
X144748200Y-104140339D01*
X144748200Y-103936461D01*
X144708426Y-103736502D01*
X144694930Y-103703920D01*
X144802114Y-103543507D01*
X144880135Y-103355149D01*
X144919909Y-103155190D01*
X144919909Y-102951312D01*
X144880135Y-102751353D01*
X144802114Y-102562995D01*
X144688846Y-102393477D01*
X144544683Y-102249314D01*
X144375165Y-102136046D01*
X144186807Y-102058025D01*
X143986848Y-102018251D01*
X143782970Y-102018251D01*
X143583011Y-102058025D01*
X143394653Y-102136046D01*
X143225135Y-102249314D01*
X143080972Y-102393477D01*
X142967704Y-102562995D01*
X142889683Y-102751353D01*
X142849909Y-102951312D01*
X142849909Y-103155190D01*
X142889683Y-103355149D01*
X142903179Y-103387731D01*
X142795995Y-103548144D01*
X142717974Y-103736502D01*
X142678200Y-103936461D01*
X122072000Y-103936461D01*
X122072000Y-101923061D01*
X135590000Y-101923061D01*
X135590000Y-102126939D01*
X135629774Y-102326898D01*
X135707795Y-102515256D01*
X135821063Y-102684774D01*
X135965226Y-102828937D01*
X136134744Y-102942205D01*
X136323102Y-103020226D01*
X136523061Y-103060000D01*
X136726939Y-103060000D01*
X136926898Y-103020226D01*
X137115256Y-102942205D01*
X137284774Y-102828937D01*
X137428937Y-102684774D01*
X137474371Y-102616778D01*
X137575263Y-102767774D01*
X137719426Y-102911937D01*
X137888944Y-103025205D01*
X138077302Y-103103226D01*
X138277261Y-103143000D01*
X138481139Y-103143000D01*
X138681098Y-103103226D01*
X138869456Y-103025205D01*
X139038974Y-102911937D01*
X139183137Y-102767774D01*
X139296405Y-102598256D01*
X139374426Y-102409898D01*
X139414200Y-102209939D01*
X139414200Y-102110916D01*
X140827980Y-102110916D01*
X140827980Y-102314794D01*
X140867754Y-102514753D01*
X140945775Y-102703111D01*
X141059043Y-102872629D01*
X141203206Y-103016792D01*
X141372724Y-103130060D01*
X141561082Y-103208081D01*
X141761041Y-103247855D01*
X141964919Y-103247855D01*
X142164878Y-103208081D01*
X142353236Y-103130060D01*
X142522754Y-103016792D01*
X142666917Y-102872629D01*
X142780185Y-102703111D01*
X142858206Y-102514753D01*
X142897980Y-102314794D01*
X142897980Y-102110916D01*
X142858206Y-101910957D01*
X142780185Y-101722599D01*
X142666917Y-101553081D01*
X142522754Y-101408918D01*
X142353236Y-101295650D01*
X142164878Y-101217629D01*
X141964919Y-101177855D01*
X141761041Y-101177855D01*
X141561082Y-101217629D01*
X141372724Y-101295650D01*
X141203206Y-101408918D01*
X141059043Y-101553081D01*
X140945775Y-101722599D01*
X140867754Y-101910957D01*
X140827980Y-102110916D01*
X139414200Y-102110916D01*
X139414200Y-102006061D01*
X139374426Y-101806102D01*
X139296405Y-101617744D01*
X139183137Y-101448226D01*
X139038974Y-101304063D01*
X138869456Y-101190795D01*
X138681098Y-101112774D01*
X138481139Y-101073000D01*
X138277261Y-101073000D01*
X138077302Y-101112774D01*
X137888944Y-101190795D01*
X137719426Y-101304063D01*
X137575263Y-101448226D01*
X137529829Y-101516222D01*
X137428937Y-101365226D01*
X137284774Y-101221063D01*
X137115256Y-101107795D01*
X136926898Y-101029774D01*
X136726939Y-100990000D01*
X136523061Y-100990000D01*
X136323102Y-101029774D01*
X136134744Y-101107795D01*
X135965226Y-101221063D01*
X135821063Y-101365226D01*
X135707795Y-101534744D01*
X135629774Y-101723102D01*
X135590000Y-101923061D01*
X122072000Y-101923061D01*
X122072000Y-100498061D01*
X123565000Y-100498061D01*
X123565000Y-100701939D01*
X123604774Y-100901898D01*
X123682795Y-101090256D01*
X123796063Y-101259774D01*
X123940226Y-101403937D01*
X124109744Y-101517205D01*
X124298102Y-101595226D01*
X124498061Y-101635000D01*
X124701939Y-101635000D01*
X124901898Y-101595226D01*
X125090256Y-101517205D01*
X125259774Y-101403937D01*
X125403937Y-101259774D01*
X125517205Y-101090256D01*
X125595226Y-100901898D01*
X125635000Y-100701939D01*
X125635000Y-100498061D01*
X125630026Y-100473051D01*
X148265000Y-100473051D01*
X148265000Y-100676929D01*
X148304774Y-100876888D01*
X148382795Y-101065246D01*
X148496063Y-101234764D01*
X148640226Y-101378927D01*
X148809744Y-101492195D01*
X148998102Y-101570216D01*
X149198061Y-101609990D01*
X149401939Y-101609990D01*
X149601898Y-101570216D01*
X149790256Y-101492195D01*
X149959774Y-101378927D01*
X150103937Y-101234764D01*
X150217205Y-101065246D01*
X150295226Y-100876888D01*
X150335000Y-100676929D01*
X150335000Y-100473051D01*
X150295226Y-100273092D01*
X150217205Y-100084734D01*
X150103937Y-99915216D01*
X150084282Y-99895561D01*
X150117809Y-99873159D01*
X150261972Y-99728996D01*
X150375240Y-99559478D01*
X150453261Y-99371120D01*
X150493035Y-99171161D01*
X150493035Y-98967283D01*
X150453261Y-98767324D01*
X150375240Y-98578966D01*
X150261972Y-98409448D01*
X150117809Y-98265285D01*
X149948291Y-98152017D01*
X149759933Y-98073996D01*
X149559974Y-98034222D01*
X149356096Y-98034222D01*
X149156137Y-98073996D01*
X148967779Y-98152017D01*
X148798261Y-98265285D01*
X148654098Y-98409448D01*
X148540830Y-98578966D01*
X148462809Y-98767324D01*
X148423035Y-98967283D01*
X148423035Y-99171161D01*
X148462809Y-99371120D01*
X148540830Y-99559478D01*
X148654098Y-99728996D01*
X148673753Y-99748651D01*
X148640226Y-99771053D01*
X148496063Y-99915216D01*
X148382795Y-100084734D01*
X148304774Y-100273092D01*
X148265000Y-100473051D01*
X125630026Y-100473051D01*
X125595226Y-100298102D01*
X125517205Y-100109744D01*
X125403937Y-99940226D01*
X125259774Y-99796063D01*
X125090256Y-99682795D01*
X124901898Y-99604774D01*
X124701939Y-99565000D01*
X124498061Y-99565000D01*
X124298102Y-99604774D01*
X124109744Y-99682795D01*
X123940226Y-99796063D01*
X123796063Y-99940226D01*
X123682795Y-100109744D01*
X123604774Y-100298102D01*
X123565000Y-100498061D01*
X122072000Y-100498061D01*
X122072000Y-98150000D01*
X126711928Y-98150000D01*
X126724188Y-98274482D01*
X126760498Y-98394180D01*
X126819463Y-98504494D01*
X126898815Y-98601185D01*
X126995506Y-98680537D01*
X127105820Y-98739502D01*
X127225518Y-98775812D01*
X127350000Y-98788072D01*
X127914250Y-98785000D01*
X128073000Y-98626250D01*
X128073000Y-97427000D01*
X128327000Y-97427000D01*
X128327000Y-98626250D01*
X128485750Y-98785000D01*
X129050000Y-98788072D01*
X129174482Y-98775812D01*
X129294180Y-98739502D01*
X129404494Y-98680537D01*
X129501185Y-98601185D01*
X129580537Y-98504494D01*
X129639502Y-98394180D01*
X129675812Y-98274482D01*
X129688072Y-98150000D01*
X129687518Y-98048061D01*
X135615000Y-98048061D01*
X135615000Y-98251939D01*
X135654774Y-98451898D01*
X135732795Y-98640256D01*
X135846063Y-98809774D01*
X135990226Y-98953937D01*
X136159744Y-99067205D01*
X136348102Y-99145226D01*
X136548061Y-99185000D01*
X136751939Y-99185000D01*
X136951898Y-99145226D01*
X137140256Y-99067205D01*
X137309774Y-98953937D01*
X137340650Y-98923061D01*
X144303800Y-98923061D01*
X144303800Y-99126939D01*
X144343574Y-99326898D01*
X144421595Y-99515256D01*
X144534863Y-99684774D01*
X144679026Y-99828937D01*
X144848544Y-99942205D01*
X145036902Y-100020226D01*
X145236861Y-100060000D01*
X145440739Y-100060000D01*
X145640698Y-100020226D01*
X145829056Y-99942205D01*
X145998574Y-99828937D01*
X146142737Y-99684774D01*
X146256005Y-99515256D01*
X146334026Y-99326898D01*
X146373800Y-99126939D01*
X146373800Y-98923061D01*
X146334026Y-98723102D01*
X146256005Y-98534744D01*
X146142737Y-98365226D01*
X145998574Y-98221063D01*
X145829056Y-98107795D01*
X145640698Y-98029774D01*
X145440739Y-97990000D01*
X145236861Y-97990000D01*
X145036902Y-98029774D01*
X144848544Y-98107795D01*
X144679026Y-98221063D01*
X144534863Y-98365226D01*
X144421595Y-98534744D01*
X144343574Y-98723102D01*
X144303800Y-98923061D01*
X137340650Y-98923061D01*
X137453937Y-98809774D01*
X137567205Y-98640256D01*
X137645226Y-98451898D01*
X137685000Y-98251939D01*
X137685000Y-98048061D01*
X137645226Y-97848102D01*
X137567205Y-97659744D01*
X137453937Y-97490226D01*
X137309774Y-97346063D01*
X137140256Y-97232795D01*
X136951898Y-97154774D01*
X136751939Y-97115000D01*
X136548061Y-97115000D01*
X136348102Y-97154774D01*
X136159744Y-97232795D01*
X135990226Y-97346063D01*
X135846063Y-97490226D01*
X135732795Y-97659744D01*
X135654774Y-97848102D01*
X135615000Y-98048061D01*
X129687518Y-98048061D01*
X129685000Y-97585750D01*
X129526250Y-97427000D01*
X128327000Y-97427000D01*
X128073000Y-97427000D01*
X126873750Y-97427000D01*
X126715000Y-97585750D01*
X126711928Y-98150000D01*
X122072000Y-98150000D01*
X122072000Y-89560061D01*
X125457000Y-89560061D01*
X125457000Y-89763939D01*
X125496774Y-89963898D01*
X125574795Y-90152256D01*
X125688063Y-90321774D01*
X125832226Y-90465937D01*
X126001744Y-90579205D01*
X126190102Y-90657226D01*
X126390061Y-90697000D01*
X126593939Y-90697000D01*
X126793898Y-90657226D01*
X126982256Y-90579205D01*
X127004779Y-90564155D01*
X127046525Y-90626632D01*
X127253368Y-90833475D01*
X127427760Y-90950000D01*
X127253368Y-91066525D01*
X127046525Y-91273368D01*
X126884010Y-91516589D01*
X126772068Y-91786842D01*
X126715000Y-92073740D01*
X126715000Y-92366260D01*
X126772068Y-92653158D01*
X126884010Y-92923411D01*
X127046525Y-93166632D01*
X127253368Y-93373475D01*
X127427760Y-93490000D01*
X127253368Y-93606525D01*
X127046525Y-93813368D01*
X126884010Y-94056589D01*
X126772068Y-94326842D01*
X126715000Y-94613740D01*
X126715000Y-94906260D01*
X126772068Y-95193158D01*
X126884010Y-95463411D01*
X127046525Y-95706632D01*
X127178380Y-95838487D01*
X127105820Y-95860498D01*
X126995506Y-95919463D01*
X126898815Y-95998815D01*
X126819463Y-96095506D01*
X126760498Y-96205820D01*
X126724188Y-96325518D01*
X126711928Y-96450000D01*
X126715000Y-97014250D01*
X126873750Y-97173000D01*
X128073000Y-97173000D01*
X128073000Y-97153000D01*
X128327000Y-97153000D01*
X128327000Y-97173000D01*
X129526250Y-97173000D01*
X129685000Y-97014250D01*
X129688072Y-96450000D01*
X129675812Y-96325518D01*
X129639502Y-96205820D01*
X129580537Y-96095506D01*
X129501185Y-95998815D01*
X129404494Y-95919463D01*
X129294180Y-95860498D01*
X129221620Y-95838487D01*
X129353475Y-95706632D01*
X129515990Y-95463411D01*
X129627932Y-95193158D01*
X129657112Y-95046461D01*
X131451400Y-95046461D01*
X131451400Y-95250339D01*
X131491174Y-95450298D01*
X131569195Y-95638656D01*
X131682463Y-95808174D01*
X131826626Y-95952337D01*
X131996144Y-96065605D01*
X132184502Y-96143626D01*
X132384461Y-96183400D01*
X132588339Y-96183400D01*
X132788298Y-96143626D01*
X132976656Y-96065605D01*
X133146174Y-95952337D01*
X133174488Y-95924023D01*
X133204278Y-95995943D01*
X133317546Y-96165461D01*
X133461709Y-96309624D01*
X133631227Y-96422892D01*
X133819585Y-96500913D01*
X134019544Y-96540687D01*
X134223422Y-96540687D01*
X134423381Y-96500913D01*
X134500760Y-96468861D01*
X137191800Y-96468861D01*
X137191800Y-96672739D01*
X137231574Y-96872698D01*
X137309595Y-97061056D01*
X137422863Y-97230574D01*
X137567026Y-97374737D01*
X137736544Y-97488005D01*
X137924902Y-97566026D01*
X138124861Y-97605800D01*
X138328739Y-97605800D01*
X138528698Y-97566026D01*
X138717056Y-97488005D01*
X138886574Y-97374737D01*
X139030737Y-97230574D01*
X139144005Y-97061056D01*
X139222026Y-96872698D01*
X139251830Y-96722861D01*
X140087400Y-96722861D01*
X140087400Y-96926739D01*
X140127174Y-97126698D01*
X140205195Y-97315056D01*
X140318463Y-97484574D01*
X140462626Y-97628737D01*
X140632144Y-97742005D01*
X140820502Y-97820026D01*
X141020461Y-97859800D01*
X141224339Y-97859800D01*
X141424298Y-97820026D01*
X141612656Y-97742005D01*
X141782174Y-97628737D01*
X141926337Y-97484574D01*
X142039605Y-97315056D01*
X142117626Y-97126698D01*
X142157400Y-96926739D01*
X142157400Y-96722861D01*
X142117626Y-96522902D01*
X142039605Y-96334544D01*
X141926337Y-96165026D01*
X141782174Y-96020863D01*
X141612656Y-95907595D01*
X141424298Y-95829574D01*
X141224339Y-95789800D01*
X141020461Y-95789800D01*
X140820502Y-95829574D01*
X140632144Y-95907595D01*
X140462626Y-96020863D01*
X140318463Y-96165026D01*
X140205195Y-96334544D01*
X140127174Y-96522902D01*
X140087400Y-96722861D01*
X139251830Y-96722861D01*
X139261800Y-96672739D01*
X139261800Y-96468861D01*
X139222026Y-96268902D01*
X139144005Y-96080544D01*
X139030737Y-95911026D01*
X138886574Y-95766863D01*
X138717056Y-95653595D01*
X138528698Y-95575574D01*
X138328739Y-95535800D01*
X138124861Y-95535800D01*
X137924902Y-95575574D01*
X137736544Y-95653595D01*
X137567026Y-95766863D01*
X137422863Y-95911026D01*
X137309595Y-96080544D01*
X137231574Y-96268902D01*
X137191800Y-96468861D01*
X134500760Y-96468861D01*
X134611739Y-96422892D01*
X134781257Y-96309624D01*
X134925420Y-96165461D01*
X135038688Y-95995943D01*
X135116709Y-95807585D01*
X135156483Y-95607626D01*
X135156483Y-95403748D01*
X135116709Y-95203789D01*
X135038688Y-95015431D01*
X134925420Y-94845913D01*
X134781257Y-94701750D01*
X134611739Y-94588482D01*
X134423381Y-94510461D01*
X134223422Y-94470687D01*
X134019544Y-94470687D01*
X133819585Y-94510461D01*
X133631227Y-94588482D01*
X133461709Y-94701750D01*
X133433395Y-94730064D01*
X133403605Y-94658144D01*
X133290337Y-94488626D01*
X133146174Y-94344463D01*
X132976656Y-94231195D01*
X132788298Y-94153174D01*
X132588339Y-94113400D01*
X132384461Y-94113400D01*
X132184502Y-94153174D01*
X131996144Y-94231195D01*
X131826626Y-94344463D01*
X131682463Y-94488626D01*
X131569195Y-94658144D01*
X131491174Y-94846502D01*
X131451400Y-95046461D01*
X129657112Y-95046461D01*
X129685000Y-94906260D01*
X129685000Y-94613740D01*
X129627932Y-94326842D01*
X129515990Y-94056589D01*
X129353475Y-93813368D01*
X129146632Y-93606525D01*
X129024210Y-93524725D01*
X135730727Y-93524725D01*
X135730727Y-93728603D01*
X135770501Y-93928562D01*
X135848522Y-94116920D01*
X135961790Y-94286438D01*
X136105953Y-94430601D01*
X136275471Y-94543869D01*
X136463829Y-94621890D01*
X136663788Y-94661664D01*
X136867666Y-94661664D01*
X137067625Y-94621890D01*
X137255983Y-94543869D01*
X137420638Y-94433850D01*
X137448102Y-94445226D01*
X137648061Y-94485000D01*
X137851939Y-94485000D01*
X138051898Y-94445226D01*
X138240256Y-94367205D01*
X138409774Y-94253937D01*
X138553937Y-94109774D01*
X138667205Y-93940256D01*
X138745226Y-93751898D01*
X138785000Y-93551939D01*
X138785000Y-93544492D01*
X140077561Y-93544492D01*
X140077561Y-93748370D01*
X140117335Y-93948329D01*
X140195356Y-94136687D01*
X140308624Y-94306205D01*
X140452787Y-94450368D01*
X140622305Y-94563636D01*
X140810663Y-94641657D01*
X141010622Y-94681431D01*
X141214500Y-94681431D01*
X141414459Y-94641657D01*
X141602817Y-94563636D01*
X141616195Y-94554697D01*
X141709744Y-94617205D01*
X141898102Y-94695226D01*
X142098061Y-94735000D01*
X142120725Y-94735000D01*
X142119400Y-94741661D01*
X142119400Y-94945539D01*
X142159174Y-95145498D01*
X142237195Y-95333856D01*
X142350463Y-95503374D01*
X142494626Y-95647537D01*
X142664144Y-95760805D01*
X142852502Y-95838826D01*
X143052461Y-95878600D01*
X143256339Y-95878600D01*
X143278319Y-95874228D01*
X143354795Y-96058856D01*
X143468063Y-96228374D01*
X143612226Y-96372537D01*
X143781744Y-96485805D01*
X143970102Y-96563826D01*
X144170061Y-96603600D01*
X144373939Y-96603600D01*
X144573898Y-96563826D01*
X144762256Y-96485805D01*
X144931774Y-96372537D01*
X145075937Y-96228374D01*
X145189205Y-96058856D01*
X145267226Y-95870498D01*
X145307000Y-95670539D01*
X145307000Y-95466661D01*
X151915001Y-95466661D01*
X151915001Y-95670539D01*
X151954775Y-95870498D01*
X152032796Y-96058856D01*
X152146064Y-96228374D01*
X152290227Y-96372537D01*
X152459745Y-96485805D01*
X152648103Y-96563826D01*
X152848062Y-96603600D01*
X153051940Y-96603600D01*
X153251899Y-96563826D01*
X153440257Y-96485805D01*
X153609775Y-96372537D01*
X153753938Y-96228374D01*
X153867206Y-96058856D01*
X153945227Y-95870498D01*
X153985001Y-95670539D01*
X153985001Y-95466661D01*
X153945227Y-95266702D01*
X153867206Y-95078344D01*
X153753938Y-94908826D01*
X153609775Y-94764663D01*
X153440257Y-94651395D01*
X153251899Y-94573374D01*
X153051940Y-94533600D01*
X152848062Y-94533600D01*
X152648103Y-94573374D01*
X152459745Y-94651395D01*
X152290227Y-94764663D01*
X152146064Y-94908826D01*
X152032796Y-95078344D01*
X151954775Y-95266702D01*
X151915001Y-95466661D01*
X145307000Y-95466661D01*
X145267226Y-95266702D01*
X145189205Y-95078344D01*
X145075937Y-94908826D01*
X144931774Y-94764663D01*
X144762256Y-94651395D01*
X144573898Y-94573374D01*
X144373939Y-94533600D01*
X144170061Y-94533600D01*
X144148081Y-94537972D01*
X144071605Y-94353344D01*
X143958337Y-94183826D01*
X143814174Y-94039663D01*
X143644656Y-93926395D01*
X143456298Y-93848374D01*
X143256339Y-93808600D01*
X143233675Y-93808600D01*
X143235000Y-93801939D01*
X143235000Y-93698061D01*
X148465000Y-93698061D01*
X148465000Y-93901939D01*
X148504774Y-94101898D01*
X148582795Y-94290256D01*
X148696063Y-94459774D01*
X148840226Y-94603937D01*
X149009744Y-94717205D01*
X149198102Y-94795226D01*
X149398061Y-94835000D01*
X149601939Y-94835000D01*
X149801898Y-94795226D01*
X149990256Y-94717205D01*
X150159774Y-94603937D01*
X150250000Y-94513711D01*
X150340226Y-94603937D01*
X150509744Y-94717205D01*
X150698102Y-94795226D01*
X150898061Y-94835000D01*
X151101939Y-94835000D01*
X151301898Y-94795226D01*
X151490256Y-94717205D01*
X151659774Y-94603937D01*
X151803937Y-94459774D01*
X151917205Y-94290256D01*
X151995226Y-94101898D01*
X152035000Y-93901939D01*
X152035000Y-93698061D01*
X151995226Y-93498102D01*
X151917205Y-93309744D01*
X151803937Y-93140226D01*
X151659774Y-92996063D01*
X151490256Y-92882795D01*
X151301898Y-92804774D01*
X151101939Y-92765000D01*
X150898061Y-92765000D01*
X150698102Y-92804774D01*
X150509744Y-92882795D01*
X150340226Y-92996063D01*
X150250000Y-93086289D01*
X150159774Y-92996063D01*
X149990256Y-92882795D01*
X149801898Y-92804774D01*
X149601939Y-92765000D01*
X149398061Y-92765000D01*
X149198102Y-92804774D01*
X149009744Y-92882795D01*
X148840226Y-92996063D01*
X148696063Y-93140226D01*
X148582795Y-93309744D01*
X148504774Y-93498102D01*
X148465000Y-93698061D01*
X143235000Y-93698061D01*
X143235000Y-93598061D01*
X143195226Y-93398102D01*
X143117205Y-93209744D01*
X143003937Y-93040226D01*
X142859774Y-92896063D01*
X142690256Y-92782795D01*
X142501898Y-92704774D01*
X142301939Y-92665000D01*
X142098061Y-92665000D01*
X141898102Y-92704774D01*
X141709744Y-92782795D01*
X141696366Y-92791734D01*
X141602817Y-92729226D01*
X141414459Y-92651205D01*
X141214500Y-92611431D01*
X141010622Y-92611431D01*
X140810663Y-92651205D01*
X140622305Y-92729226D01*
X140452787Y-92842494D01*
X140308624Y-92986657D01*
X140195356Y-93156175D01*
X140117335Y-93344533D01*
X140077561Y-93544492D01*
X138785000Y-93544492D01*
X138785000Y-93348061D01*
X138745226Y-93148102D01*
X138667205Y-92959744D01*
X138553937Y-92790226D01*
X138409774Y-92646063D01*
X138240256Y-92532795D01*
X138051898Y-92454774D01*
X137932656Y-92431055D01*
X137978937Y-92384774D01*
X138092205Y-92215256D01*
X138129496Y-92125228D01*
X138139774Y-92176898D01*
X138217795Y-92365256D01*
X138331063Y-92534774D01*
X138475226Y-92678937D01*
X138644744Y-92792205D01*
X138833102Y-92870226D01*
X139033061Y-92910000D01*
X139236939Y-92910000D01*
X139436898Y-92870226D01*
X139625256Y-92792205D01*
X139794774Y-92678937D01*
X139938937Y-92534774D01*
X140052205Y-92365256D01*
X140130226Y-92176898D01*
X140170000Y-91976939D01*
X140170000Y-91773061D01*
X140130226Y-91573102D01*
X140052205Y-91384744D01*
X139938937Y-91215226D01*
X139794774Y-91071063D01*
X139625256Y-90957795D01*
X139601757Y-90948061D01*
X152765000Y-90948061D01*
X152765000Y-91151939D01*
X152804774Y-91351898D01*
X152882795Y-91540256D01*
X152996063Y-91709774D01*
X153140226Y-91853937D01*
X153309744Y-91967205D01*
X153498102Y-92045226D01*
X153698061Y-92085000D01*
X153901939Y-92085000D01*
X154101898Y-92045226D01*
X154290256Y-91967205D01*
X154459774Y-91853937D01*
X154603937Y-91709774D01*
X154717205Y-91540256D01*
X154795226Y-91351898D01*
X154835000Y-91151939D01*
X154835000Y-90948061D01*
X154795226Y-90748102D01*
X154717205Y-90559744D01*
X154603937Y-90390226D01*
X154459774Y-90246063D01*
X154290256Y-90132795D01*
X154101898Y-90054774D01*
X153901939Y-90015000D01*
X153698061Y-90015000D01*
X153498102Y-90054774D01*
X153309744Y-90132795D01*
X153140226Y-90246063D01*
X152996063Y-90390226D01*
X152882795Y-90559744D01*
X152804774Y-90748102D01*
X152765000Y-90948061D01*
X139601757Y-90948061D01*
X139436898Y-90879774D01*
X139236939Y-90840000D01*
X139033061Y-90840000D01*
X138833102Y-90879774D01*
X138644744Y-90957795D01*
X138475226Y-91071063D01*
X138331063Y-91215226D01*
X138217795Y-91384744D01*
X138180504Y-91474772D01*
X138170226Y-91423102D01*
X138092205Y-91234744D01*
X137978937Y-91065226D01*
X137834774Y-90921063D01*
X137665256Y-90807795D01*
X137476898Y-90729774D01*
X137276939Y-90690000D01*
X137073061Y-90690000D01*
X136873102Y-90729774D01*
X136684744Y-90807795D01*
X136515226Y-90921063D01*
X136371063Y-91065226D01*
X136257795Y-91234744D01*
X136179774Y-91423102D01*
X136140000Y-91623061D01*
X136140000Y-91826939D01*
X136179774Y-92026898D01*
X136257795Y-92215256D01*
X136371063Y-92384774D01*
X136515226Y-92528937D01*
X136621648Y-92600046D01*
X136463829Y-92631438D01*
X136275471Y-92709459D01*
X136105953Y-92822727D01*
X135961790Y-92966890D01*
X135848522Y-93136408D01*
X135770501Y-93324766D01*
X135730727Y-93524725D01*
X129024210Y-93524725D01*
X128972240Y-93490000D01*
X129146632Y-93373475D01*
X129353475Y-93166632D01*
X129515990Y-92923411D01*
X129627932Y-92653158D01*
X129685000Y-92366260D01*
X129685000Y-92073740D01*
X129627932Y-91786842D01*
X129515990Y-91516589D01*
X129353475Y-91273368D01*
X129146632Y-91066525D01*
X128972240Y-90950000D01*
X129146632Y-90833475D01*
X129353475Y-90626632D01*
X129515990Y-90383411D01*
X129627932Y-90113158D01*
X129685000Y-89826260D01*
X129685000Y-89533740D01*
X129627932Y-89246842D01*
X129515990Y-88976589D01*
X129353475Y-88733368D01*
X129146632Y-88526525D01*
X128903411Y-88364010D01*
X128744196Y-88298061D01*
X133540000Y-88298061D01*
X133540000Y-88501939D01*
X133579774Y-88701898D01*
X133657795Y-88890256D01*
X133771063Y-89059774D01*
X133915226Y-89203937D01*
X134084744Y-89317205D01*
X134273102Y-89395226D01*
X134473061Y-89435000D01*
X134676939Y-89435000D01*
X134876898Y-89395226D01*
X135065256Y-89317205D01*
X135234774Y-89203937D01*
X135378937Y-89059774D01*
X135492205Y-88890256D01*
X135570226Y-88701898D01*
X135610000Y-88501939D01*
X135610000Y-88298061D01*
X135570226Y-88098102D01*
X135492205Y-87909744D01*
X135378937Y-87740226D01*
X135234774Y-87596063D01*
X135065256Y-87482795D01*
X134876898Y-87404774D01*
X134676939Y-87365000D01*
X134473061Y-87365000D01*
X134273102Y-87404774D01*
X134084744Y-87482795D01*
X133915226Y-87596063D01*
X133771063Y-87740226D01*
X133657795Y-87909744D01*
X133579774Y-88098102D01*
X133540000Y-88298061D01*
X128744196Y-88298061D01*
X128633158Y-88252068D01*
X128346260Y-88195000D01*
X128053740Y-88195000D01*
X127766842Y-88252068D01*
X127496589Y-88364010D01*
X127253368Y-88526525D01*
X127046525Y-88733368D01*
X127021409Y-88770956D01*
X126982256Y-88744795D01*
X126793898Y-88666774D01*
X126593939Y-88627000D01*
X126390061Y-88627000D01*
X126190102Y-88666774D01*
X126001744Y-88744795D01*
X125832226Y-88858063D01*
X125688063Y-89002226D01*
X125574795Y-89171744D01*
X125496774Y-89360102D01*
X125457000Y-89560061D01*
X122072000Y-89560061D01*
X122072000Y-84734061D01*
X142017800Y-84734061D01*
X142017800Y-84937939D01*
X142057574Y-85137898D01*
X142135595Y-85326256D01*
X142248863Y-85495774D01*
X142393026Y-85639937D01*
X142562544Y-85753205D01*
X142750902Y-85831226D01*
X142950861Y-85871000D01*
X143154739Y-85871000D01*
X143354698Y-85831226D01*
X143543056Y-85753205D01*
X143712574Y-85639937D01*
X143856737Y-85495774D01*
X143970005Y-85326256D01*
X144048026Y-85137898D01*
X144087800Y-84937939D01*
X144087800Y-84734061D01*
X144913400Y-84734061D01*
X144913400Y-84937939D01*
X144953174Y-85137898D01*
X145031195Y-85326256D01*
X145144463Y-85495774D01*
X145288626Y-85639937D01*
X145458144Y-85753205D01*
X145646502Y-85831226D01*
X145846461Y-85871000D01*
X146050339Y-85871000D01*
X146250298Y-85831226D01*
X146438656Y-85753205D01*
X146608174Y-85639937D01*
X146750050Y-85498061D01*
X151015000Y-85498061D01*
X151015000Y-85701939D01*
X151054774Y-85901898D01*
X151132795Y-86090256D01*
X151246063Y-86259774D01*
X151390226Y-86403937D01*
X151559744Y-86517205D01*
X151748102Y-86595226D01*
X151948061Y-86635000D01*
X152151939Y-86635000D01*
X152351898Y-86595226D01*
X152540256Y-86517205D01*
X152709774Y-86403937D01*
X152853937Y-86259774D01*
X152967205Y-86090256D01*
X153045226Y-85901898D01*
X153085000Y-85701939D01*
X153085000Y-85498061D01*
X153045226Y-85298102D01*
X152967205Y-85109744D01*
X152853937Y-84940226D01*
X152709774Y-84796063D01*
X152540256Y-84682795D01*
X152351898Y-84604774D01*
X152151939Y-84565000D01*
X151948061Y-84565000D01*
X151748102Y-84604774D01*
X151559744Y-84682795D01*
X151390226Y-84796063D01*
X151246063Y-84940226D01*
X151132795Y-85109744D01*
X151054774Y-85298102D01*
X151015000Y-85498061D01*
X146750050Y-85498061D01*
X146752337Y-85495774D01*
X146865605Y-85326256D01*
X146943626Y-85137898D01*
X146983400Y-84937939D01*
X146983400Y-84734061D01*
X146943626Y-84534102D01*
X146865605Y-84345744D01*
X146752337Y-84176226D01*
X146608174Y-84032063D01*
X146438656Y-83918795D01*
X146250298Y-83840774D01*
X146050339Y-83801000D01*
X145846461Y-83801000D01*
X145646502Y-83840774D01*
X145458144Y-83918795D01*
X145288626Y-84032063D01*
X145144463Y-84176226D01*
X145031195Y-84345744D01*
X144953174Y-84534102D01*
X144913400Y-84734061D01*
X144087800Y-84734061D01*
X144048026Y-84534102D01*
X143970005Y-84345744D01*
X143856737Y-84176226D01*
X143712574Y-84032063D01*
X143543056Y-83918795D01*
X143354698Y-83840774D01*
X143154739Y-83801000D01*
X142950861Y-83801000D01*
X142750902Y-83840774D01*
X142562544Y-83918795D01*
X142393026Y-84032063D01*
X142248863Y-84176226D01*
X142135595Y-84345744D01*
X142057574Y-84534102D01*
X142017800Y-84734061D01*
X122072000Y-84734061D01*
X122072000Y-82244861D01*
X135363000Y-82244861D01*
X135363000Y-82448739D01*
X135402774Y-82648698D01*
X135480795Y-82837056D01*
X135594063Y-83006574D01*
X135738226Y-83150737D01*
X135907744Y-83264005D01*
X136096102Y-83342026D01*
X136296061Y-83381800D01*
X136499939Y-83381800D01*
X136699898Y-83342026D01*
X136888256Y-83264005D01*
X137057774Y-83150737D01*
X137060450Y-83148061D01*
X147665000Y-83148061D01*
X147665000Y-83351939D01*
X147704774Y-83551898D01*
X147782795Y-83740256D01*
X147896063Y-83909774D01*
X148040226Y-84053937D01*
X148209744Y-84167205D01*
X148398102Y-84245226D01*
X148497431Y-84264984D01*
X148504774Y-84301898D01*
X148582795Y-84490256D01*
X148696063Y-84659774D01*
X148840226Y-84803937D01*
X149009744Y-84917205D01*
X149198102Y-84995226D01*
X149398061Y-85035000D01*
X149601939Y-85035000D01*
X149801898Y-84995226D01*
X149990256Y-84917205D01*
X150159774Y-84803937D01*
X150303937Y-84659774D01*
X150417205Y-84490256D01*
X150495226Y-84301898D01*
X150535000Y-84101939D01*
X150535000Y-83898061D01*
X150495226Y-83698102D01*
X150417205Y-83509744D01*
X150303937Y-83340226D01*
X150159774Y-83196063D01*
X149990256Y-83082795D01*
X149801898Y-83004774D01*
X149702569Y-82985016D01*
X149695226Y-82948102D01*
X149617205Y-82759744D01*
X149503937Y-82590226D01*
X149359774Y-82446063D01*
X149190256Y-82332795D01*
X149001898Y-82254774D01*
X148801939Y-82215000D01*
X148598061Y-82215000D01*
X148398102Y-82254774D01*
X148209744Y-82332795D01*
X148040226Y-82446063D01*
X147896063Y-82590226D01*
X147782795Y-82759744D01*
X147704774Y-82948102D01*
X147665000Y-83148061D01*
X137060450Y-83148061D01*
X137201937Y-83006574D01*
X137315205Y-82837056D01*
X137393226Y-82648698D01*
X137433000Y-82448739D01*
X137433000Y-82244861D01*
X137393226Y-82044902D01*
X137315205Y-81856544D01*
X137201937Y-81687026D01*
X137057774Y-81542863D01*
X136888256Y-81429595D01*
X136699898Y-81351574D01*
X136499939Y-81311800D01*
X136296061Y-81311800D01*
X136096102Y-81351574D01*
X135907744Y-81429595D01*
X135738226Y-81542863D01*
X135594063Y-81687026D01*
X135480795Y-81856544D01*
X135402774Y-82044902D01*
X135363000Y-82244861D01*
X122072000Y-82244861D01*
X122072000Y-78724350D01*
X122093629Y-78745979D01*
X122207998Y-78631610D01*
X122394073Y-78972766D01*
X122811409Y-79188513D01*
X123262815Y-79318696D01*
X123730946Y-79358313D01*
X124197811Y-79305842D01*
X124645468Y-79163297D01*
X125001927Y-78972766D01*
X125188003Y-78631609D01*
X123698000Y-77141605D01*
X123683858Y-77155748D01*
X123504252Y-76976142D01*
X123518395Y-76962000D01*
X123504253Y-76947858D01*
X123683858Y-76768252D01*
X123698000Y-76782395D01*
X123712142Y-76768252D01*
X123891748Y-76947858D01*
X123877605Y-76962000D01*
X125367609Y-78452003D01*
X125708766Y-78265927D01*
X125924513Y-77848591D01*
X126054696Y-77397185D01*
X126094313Y-76929054D01*
X126072286Y-76733061D01*
X130156000Y-76733061D01*
X130156000Y-76936939D01*
X130195774Y-77136898D01*
X130273795Y-77325256D01*
X130387063Y-77494774D01*
X130531226Y-77638937D01*
X130700744Y-77752205D01*
X130889102Y-77830226D01*
X131089061Y-77870000D01*
X131292939Y-77870000D01*
X131492898Y-77830226D01*
X131681256Y-77752205D01*
X131850774Y-77638937D01*
X131994937Y-77494774D01*
X132108205Y-77325256D01*
X132186226Y-77136898D01*
X132226000Y-76936939D01*
X132226000Y-76733061D01*
X132219039Y-76698061D01*
X147665000Y-76698061D01*
X147665000Y-76901939D01*
X147704774Y-77101898D01*
X147782795Y-77290256D01*
X147896063Y-77459774D01*
X148040226Y-77603937D01*
X148209744Y-77717205D01*
X148398102Y-77795226D01*
X148598061Y-77835000D01*
X148801939Y-77835000D01*
X149001898Y-77795226D01*
X149190256Y-77717205D01*
X149359774Y-77603937D01*
X149503937Y-77459774D01*
X149617205Y-77290256D01*
X149695226Y-77101898D01*
X149735000Y-76901939D01*
X149735000Y-76698061D01*
X149695226Y-76498102D01*
X149617205Y-76309744D01*
X149503937Y-76140226D01*
X149359774Y-75996063D01*
X149190256Y-75882795D01*
X149001898Y-75804774D01*
X148801939Y-75765000D01*
X148598061Y-75765000D01*
X148398102Y-75804774D01*
X148209744Y-75882795D01*
X148040226Y-75996063D01*
X147896063Y-76140226D01*
X147782795Y-76309744D01*
X147704774Y-76498102D01*
X147665000Y-76698061D01*
X132219039Y-76698061D01*
X132186226Y-76533102D01*
X132108205Y-76344744D01*
X131994937Y-76175226D01*
X131850774Y-76031063D01*
X131681256Y-75917795D01*
X131492898Y-75839774D01*
X131292939Y-75800000D01*
X131089061Y-75800000D01*
X130889102Y-75839774D01*
X130700744Y-75917795D01*
X130531226Y-76031063D01*
X130387063Y-76175226D01*
X130273795Y-76344744D01*
X130195774Y-76533102D01*
X130156000Y-76733061D01*
X126072286Y-76733061D01*
X126041842Y-76462189D01*
X125899297Y-76014532D01*
X125708766Y-75658073D01*
X125367610Y-75471998D01*
X125481979Y-75357629D01*
X125460350Y-75336000D01*
X152415650Y-75336000D01*
X152394021Y-75357629D01*
G37*
%TD.AperFunction*%
%TD*%
M02*
