%TF.GenerationSoftware,KiCad,Pcbnew,(5.1.9)-1*%
%TF.CreationDate,2021-04-28T15:16:42-04:00*%
%TF.ProjectId,final_design_v3,66696e61-6c5f-4646-9573-69676e5f7633,rev?*%
%TF.SameCoordinates,Original*%
%TF.FileFunction,Copper,L4,Bot*%
%TF.FilePolarity,Positive*%
%FSLAX46Y46*%
G04 Gerber Fmt 4.6, Leading zero omitted, Abs format (unit mm)*
G04 Created by KiCad (PCBNEW (5.1.9)-1) date 2021-04-28 15:16:42*
%MOMM*%
%LPD*%
G01*
G04 APERTURE LIST*
%TA.AperFunction,ComponentPad*%
%ADD10C,3.500000*%
%TD*%
%TA.AperFunction,ComponentPad*%
%ADD11R,1.700000X1.700000*%
%TD*%
%TA.AperFunction,ComponentPad*%
%ADD12O,1.700000X1.700000*%
%TD*%
%TA.AperFunction,ViaPad*%
%ADD13C,0.800000*%
%TD*%
%TA.AperFunction,Conductor*%
%ADD14C,0.812800*%
%TD*%
%TA.AperFunction,Conductor*%
%ADD15C,0.250000*%
%TD*%
%TA.AperFunction,Conductor*%
%ADD16C,0.200000*%
%TD*%
%TA.AperFunction,Conductor*%
%ADD17C,0.381000*%
%TD*%
G04 APERTURE END LIST*
D10*
%TO.P,H1,1*%
%TO.N,GND*%
X123698000Y-76962000D03*
%TD*%
%TO.P,C1,2*%
%TO.N,GND*%
%TA.AperFunction,SMDPad,CuDef*%
G36*
G01*
X138638400Y-97514600D02*
X138638400Y-98014600D01*
G75*
G02*
X138413400Y-98239600I-225000J0D01*
G01*
X137963400Y-98239600D01*
G75*
G02*
X137738400Y-98014600I0J225000D01*
G01*
X137738400Y-97514600D01*
G75*
G02*
X137963400Y-97289600I225000J0D01*
G01*
X138413400Y-97289600D01*
G75*
G02*
X138638400Y-97514600I0J-225000D01*
G01*
G37*
%TD.AperFunction*%
%TO.P,C1,1*%
%TO.N,+3V3*%
%TA.AperFunction,SMDPad,CuDef*%
G36*
G01*
X140188400Y-97514600D02*
X140188400Y-98014600D01*
G75*
G02*
X139963400Y-98239600I-225000J0D01*
G01*
X139513400Y-98239600D01*
G75*
G02*
X139288400Y-98014600I0J225000D01*
G01*
X139288400Y-97514600D01*
G75*
G02*
X139513400Y-97289600I225000J0D01*
G01*
X139963400Y-97289600D01*
G75*
G02*
X140188400Y-97514600I0J-225000D01*
G01*
G37*
%TD.AperFunction*%
%TD*%
%TO.P,C2,1*%
%TO.N,+3V3*%
%TA.AperFunction,SMDPad,CuDef*%
G36*
G01*
X141687000Y-100689600D02*
X141687000Y-101189600D01*
G75*
G02*
X141462000Y-101414600I-225000J0D01*
G01*
X141012000Y-101414600D01*
G75*
G02*
X140787000Y-101189600I0J225000D01*
G01*
X140787000Y-100689600D01*
G75*
G02*
X141012000Y-100464600I225000J0D01*
G01*
X141462000Y-100464600D01*
G75*
G02*
X141687000Y-100689600I0J-225000D01*
G01*
G37*
%TD.AperFunction*%
%TO.P,C2,2*%
%TO.N,GND*%
%TA.AperFunction,SMDPad,CuDef*%
G36*
G01*
X140137000Y-100689600D02*
X140137000Y-101189600D01*
G75*
G02*
X139912000Y-101414600I-225000J0D01*
G01*
X139462000Y-101414600D01*
G75*
G02*
X139237000Y-101189600I0J225000D01*
G01*
X139237000Y-100689600D01*
G75*
G02*
X139462000Y-100464600I225000J0D01*
G01*
X139912000Y-100464600D01*
G75*
G02*
X140137000Y-100689600I0J-225000D01*
G01*
G37*
%TD.AperFunction*%
%TD*%
%TO.P,C3,2*%
%TO.N,GND*%
%TA.AperFunction,SMDPad,CuDef*%
G36*
G01*
X137739000Y-101189600D02*
X137739000Y-100689600D01*
G75*
G02*
X137964000Y-100464600I225000J0D01*
G01*
X138414000Y-100464600D01*
G75*
G02*
X138639000Y-100689600I0J-225000D01*
G01*
X138639000Y-101189600D01*
G75*
G02*
X138414000Y-101414600I-225000J0D01*
G01*
X137964000Y-101414600D01*
G75*
G02*
X137739000Y-101189600I0J225000D01*
G01*
G37*
%TD.AperFunction*%
%TO.P,C3,1*%
%TO.N,+3V3*%
%TA.AperFunction,SMDPad,CuDef*%
G36*
G01*
X136189000Y-101189600D02*
X136189000Y-100689600D01*
G75*
G02*
X136414000Y-100464600I225000J0D01*
G01*
X136864000Y-100464600D01*
G75*
G02*
X137089000Y-100689600I0J-225000D01*
G01*
X137089000Y-101189600D01*
G75*
G02*
X136864000Y-101414600I-225000J0D01*
G01*
X136414000Y-101414600D01*
G75*
G02*
X136189000Y-101189600I0J225000D01*
G01*
G37*
%TD.AperFunction*%
%TD*%
%TO.P,C4,1*%
%TO.N,+3V3*%
%TA.AperFunction,SMDPad,CuDef*%
G36*
G01*
X136189000Y-99640200D02*
X136189000Y-99140200D01*
G75*
G02*
X136414000Y-98915200I225000J0D01*
G01*
X136864000Y-98915200D01*
G75*
G02*
X137089000Y-99140200I0J-225000D01*
G01*
X137089000Y-99640200D01*
G75*
G02*
X136864000Y-99865200I-225000J0D01*
G01*
X136414000Y-99865200D01*
G75*
G02*
X136189000Y-99640200I0J225000D01*
G01*
G37*
%TD.AperFunction*%
%TO.P,C4,2*%
%TO.N,GND*%
%TA.AperFunction,SMDPad,CuDef*%
G36*
G01*
X137739000Y-99640200D02*
X137739000Y-99140200D01*
G75*
G02*
X137964000Y-98915200I225000J0D01*
G01*
X138414000Y-98915200D01*
G75*
G02*
X138639000Y-99140200I0J-225000D01*
G01*
X138639000Y-99640200D01*
G75*
G02*
X138414000Y-99865200I-225000J0D01*
G01*
X137964000Y-99865200D01*
G75*
G02*
X137739000Y-99640200I0J225000D01*
G01*
G37*
%TD.AperFunction*%
%TD*%
%TO.P,C5,2*%
%TO.N,GND*%
%TA.AperFunction,SMDPad,CuDef*%
G36*
G01*
X140141399Y-99142601D02*
X140141399Y-99642601D01*
G75*
G02*
X139916399Y-99867601I-225000J0D01*
G01*
X139466399Y-99867601D01*
G75*
G02*
X139241399Y-99642601I0J225000D01*
G01*
X139241399Y-99142601D01*
G75*
G02*
X139466399Y-98917601I225000J0D01*
G01*
X139916399Y-98917601D01*
G75*
G02*
X140141399Y-99142601I0J-225000D01*
G01*
G37*
%TD.AperFunction*%
%TO.P,C5,1*%
%TO.N,+3V3*%
%TA.AperFunction,SMDPad,CuDef*%
G36*
G01*
X141691399Y-99142601D02*
X141691399Y-99642601D01*
G75*
G02*
X141466399Y-99867601I-225000J0D01*
G01*
X141016399Y-99867601D01*
G75*
G02*
X140791399Y-99642601I0J225000D01*
G01*
X140791399Y-99142601D01*
G75*
G02*
X141016399Y-98917601I225000J0D01*
G01*
X141466399Y-98917601D01*
G75*
G02*
X141691399Y-99142601I0J-225000D01*
G01*
G37*
%TD.AperFunction*%
%TD*%
%TO.P,C8,2*%
%TO.N,OSC8_IN*%
%TA.AperFunction,SMDPad,CuDef*%
G36*
G01*
X150475000Y-99850000D02*
X150475000Y-100350000D01*
G75*
G02*
X150250000Y-100575000I-225000J0D01*
G01*
X149800000Y-100575000D01*
G75*
G02*
X149575000Y-100350000I0J225000D01*
G01*
X149575000Y-99850000D01*
G75*
G02*
X149800000Y-99625000I225000J0D01*
G01*
X150250000Y-99625000D01*
G75*
G02*
X150475000Y-99850000I0J-225000D01*
G01*
G37*
%TD.AperFunction*%
%TO.P,C8,1*%
%TO.N,GND*%
%TA.AperFunction,SMDPad,CuDef*%
G36*
G01*
X152025000Y-99850000D02*
X152025000Y-100350000D01*
G75*
G02*
X151800000Y-100575000I-225000J0D01*
G01*
X151350000Y-100575000D01*
G75*
G02*
X151125000Y-100350000I0J225000D01*
G01*
X151125000Y-99850000D01*
G75*
G02*
X151350000Y-99625000I225000J0D01*
G01*
X151800000Y-99625000D01*
G75*
G02*
X152025000Y-99850000I0J-225000D01*
G01*
G37*
%TD.AperFunction*%
%TD*%
%TO.P,C9,2*%
%TO.N,OSC32_IN*%
%TA.AperFunction,SMDPad,CuDef*%
G36*
G01*
X148950000Y-103175000D02*
X148450000Y-103175000D01*
G75*
G02*
X148225000Y-102950000I0J225000D01*
G01*
X148225000Y-102500000D01*
G75*
G02*
X148450000Y-102275000I225000J0D01*
G01*
X148950000Y-102275000D01*
G75*
G02*
X149175000Y-102500000I0J-225000D01*
G01*
X149175000Y-102950000D01*
G75*
G02*
X148950000Y-103175000I-225000J0D01*
G01*
G37*
%TD.AperFunction*%
%TO.P,C9,1*%
%TO.N,GND*%
%TA.AperFunction,SMDPad,CuDef*%
G36*
G01*
X148950000Y-104725000D02*
X148450000Y-104725000D01*
G75*
G02*
X148225000Y-104500000I0J225000D01*
G01*
X148225000Y-104050000D01*
G75*
G02*
X148450000Y-103825000I225000J0D01*
G01*
X148950000Y-103825000D01*
G75*
G02*
X149175000Y-104050000I0J-225000D01*
G01*
X149175000Y-104500000D01*
G75*
G02*
X148950000Y-104725000I-225000J0D01*
G01*
G37*
%TD.AperFunction*%
%TD*%
%TO.P,C10,1*%
%TO.N,GND*%
%TA.AperFunction,SMDPad,CuDef*%
G36*
G01*
X151350000Y-104725000D02*
X150850000Y-104725000D01*
G75*
G02*
X150625000Y-104500000I0J225000D01*
G01*
X150625000Y-104050000D01*
G75*
G02*
X150850000Y-103825000I225000J0D01*
G01*
X151350000Y-103825000D01*
G75*
G02*
X151575000Y-104050000I0J-225000D01*
G01*
X151575000Y-104500000D01*
G75*
G02*
X151350000Y-104725000I-225000J0D01*
G01*
G37*
%TD.AperFunction*%
%TO.P,C10,2*%
%TO.N,OSC32_OUT*%
%TA.AperFunction,SMDPad,CuDef*%
G36*
G01*
X151350000Y-103175000D02*
X150850000Y-103175000D01*
G75*
G02*
X150625000Y-102950000I0J225000D01*
G01*
X150625000Y-102500000D01*
G75*
G02*
X150850000Y-102275000I225000J0D01*
G01*
X151350000Y-102275000D01*
G75*
G02*
X151575000Y-102500000I0J-225000D01*
G01*
X151575000Y-102950000D01*
G75*
G02*
X151350000Y-103175000I-225000J0D01*
G01*
G37*
%TD.AperFunction*%
%TD*%
%TO.P,C11,1*%
%TO.N,GND*%
%TA.AperFunction,SMDPad,CuDef*%
G36*
G01*
X152025000Y-97850000D02*
X152025000Y-98350000D01*
G75*
G02*
X151800000Y-98575000I-225000J0D01*
G01*
X151350000Y-98575000D01*
G75*
G02*
X151125000Y-98350000I0J225000D01*
G01*
X151125000Y-97850000D01*
G75*
G02*
X151350000Y-97625000I225000J0D01*
G01*
X151800000Y-97625000D01*
G75*
G02*
X152025000Y-97850000I0J-225000D01*
G01*
G37*
%TD.AperFunction*%
%TO.P,C11,2*%
%TO.N,OSC8_OUT*%
%TA.AperFunction,SMDPad,CuDef*%
G36*
G01*
X150475000Y-97850000D02*
X150475000Y-98350000D01*
G75*
G02*
X150250000Y-98575000I-225000J0D01*
G01*
X149800000Y-98575000D01*
G75*
G02*
X149575000Y-98350000I0J225000D01*
G01*
X149575000Y-97850000D01*
G75*
G02*
X149800000Y-97625000I225000J0D01*
G01*
X150250000Y-97625000D01*
G75*
G02*
X150475000Y-97850000I0J-225000D01*
G01*
G37*
%TD.AperFunction*%
%TD*%
%TO.P,C12,2*%
%TO.N,GND*%
%TA.AperFunction,SMDPad,CuDef*%
G36*
G01*
X139618600Y-106828400D02*
X139618600Y-106328400D01*
G75*
G02*
X139843600Y-106103400I225000J0D01*
G01*
X140293600Y-106103400D01*
G75*
G02*
X140518600Y-106328400I0J-225000D01*
G01*
X140518600Y-106828400D01*
G75*
G02*
X140293600Y-107053400I-225000J0D01*
G01*
X139843600Y-107053400D01*
G75*
G02*
X139618600Y-106828400I0J225000D01*
G01*
G37*
%TD.AperFunction*%
%TO.P,C12,1*%
%TO.N,+3V3*%
%TA.AperFunction,SMDPad,CuDef*%
G36*
G01*
X138068600Y-106828400D02*
X138068600Y-106328400D01*
G75*
G02*
X138293600Y-106103400I225000J0D01*
G01*
X138743600Y-106103400D01*
G75*
G02*
X138968600Y-106328400I0J-225000D01*
G01*
X138968600Y-106828400D01*
G75*
G02*
X138743600Y-107053400I-225000J0D01*
G01*
X138293600Y-107053400D01*
G75*
G02*
X138068600Y-106828400I0J225000D01*
G01*
G37*
%TD.AperFunction*%
%TD*%
%TO.P,C13,1*%
%TO.N,GND*%
%TA.AperFunction,SMDPad,CuDef*%
G36*
G01*
X137206800Y-110089400D02*
X136706800Y-110089400D01*
G75*
G02*
X136481800Y-109864400I0J225000D01*
G01*
X136481800Y-109414400D01*
G75*
G02*
X136706800Y-109189400I225000J0D01*
G01*
X137206800Y-109189400D01*
G75*
G02*
X137431800Y-109414400I0J-225000D01*
G01*
X137431800Y-109864400D01*
G75*
G02*
X137206800Y-110089400I-225000J0D01*
G01*
G37*
%TD.AperFunction*%
%TO.P,C13,2*%
%TO.N,+3V3*%
%TA.AperFunction,SMDPad,CuDef*%
G36*
G01*
X137206800Y-108539400D02*
X136706800Y-108539400D01*
G75*
G02*
X136481800Y-108314400I0J225000D01*
G01*
X136481800Y-107864400D01*
G75*
G02*
X136706800Y-107639400I225000J0D01*
G01*
X137206800Y-107639400D01*
G75*
G02*
X137431800Y-107864400I0J-225000D01*
G01*
X137431800Y-108314400D01*
G75*
G02*
X137206800Y-108539400I-225000J0D01*
G01*
G37*
%TD.AperFunction*%
%TD*%
%TO.P,C15,1*%
%TO.N,GND*%
%TA.AperFunction,SMDPad,CuDef*%
G36*
G01*
X137470600Y-117352000D02*
X137470600Y-117852000D01*
G75*
G02*
X137245600Y-118077000I-225000J0D01*
G01*
X136795600Y-118077000D01*
G75*
G02*
X136570600Y-117852000I0J225000D01*
G01*
X136570600Y-117352000D01*
G75*
G02*
X136795600Y-117127000I225000J0D01*
G01*
X137245600Y-117127000D01*
G75*
G02*
X137470600Y-117352000I0J-225000D01*
G01*
G37*
%TD.AperFunction*%
%TO.P,C15,2*%
%TO.N,VCC*%
%TA.AperFunction,SMDPad,CuDef*%
G36*
G01*
X135920600Y-117352000D02*
X135920600Y-117852000D01*
G75*
G02*
X135695600Y-118077000I-225000J0D01*
G01*
X135245600Y-118077000D01*
G75*
G02*
X135020600Y-117852000I0J225000D01*
G01*
X135020600Y-117352000D01*
G75*
G02*
X135245600Y-117127000I225000J0D01*
G01*
X135695600Y-117127000D01*
G75*
G02*
X135920600Y-117352000I0J-225000D01*
G01*
G37*
%TD.AperFunction*%
%TD*%
%TO.P,C16,2*%
%TO.N,+3V3*%
%TA.AperFunction,SMDPad,CuDef*%
G36*
G01*
X140720000Y-118689000D02*
X141220000Y-118689000D01*
G75*
G02*
X141445000Y-118914000I0J-225000D01*
G01*
X141445000Y-119364000D01*
G75*
G02*
X141220000Y-119589000I-225000J0D01*
G01*
X140720000Y-119589000D01*
G75*
G02*
X140495000Y-119364000I0J225000D01*
G01*
X140495000Y-118914000D01*
G75*
G02*
X140720000Y-118689000I225000J0D01*
G01*
G37*
%TD.AperFunction*%
%TO.P,C16,1*%
%TO.N,GND*%
%TA.AperFunction,SMDPad,CuDef*%
G36*
G01*
X140720000Y-117139000D02*
X141220000Y-117139000D01*
G75*
G02*
X141445000Y-117364000I0J-225000D01*
G01*
X141445000Y-117814000D01*
G75*
G02*
X141220000Y-118039000I-225000J0D01*
G01*
X140720000Y-118039000D01*
G75*
G02*
X140495000Y-117814000I0J225000D01*
G01*
X140495000Y-117364000D01*
G75*
G02*
X140720000Y-117139000I225000J0D01*
G01*
G37*
%TD.AperFunction*%
%TD*%
%TO.P,C21,1*%
%TO.N,+3V3*%
%TA.AperFunction,SMDPad,CuDef*%
G36*
G01*
X149925000Y-92450000D02*
X149925000Y-92950000D01*
G75*
G02*
X149700000Y-93175000I-225000J0D01*
G01*
X149250000Y-93175000D01*
G75*
G02*
X149025000Y-92950000I0J225000D01*
G01*
X149025000Y-92450000D01*
G75*
G02*
X149250000Y-92225000I225000J0D01*
G01*
X149700000Y-92225000D01*
G75*
G02*
X149925000Y-92450000I0J-225000D01*
G01*
G37*
%TD.AperFunction*%
%TO.P,C21,2*%
%TO.N,GND*%
%TA.AperFunction,SMDPad,CuDef*%
G36*
G01*
X148375000Y-92450000D02*
X148375000Y-92950000D01*
G75*
G02*
X148150000Y-93175000I-225000J0D01*
G01*
X147700000Y-93175000D01*
G75*
G02*
X147475000Y-92950000I0J225000D01*
G01*
X147475000Y-92450000D01*
G75*
G02*
X147700000Y-92225000I225000J0D01*
G01*
X148150000Y-92225000D01*
G75*
G02*
X148375000Y-92450000I0J-225000D01*
G01*
G37*
%TD.AperFunction*%
%TD*%
%TO.P,C24,1*%
%TO.N,GND*%
%TA.AperFunction,SMDPad,CuDef*%
G36*
G01*
X153550000Y-87975000D02*
X154050000Y-87975000D01*
G75*
G02*
X154275000Y-88200000I0J-225000D01*
G01*
X154275000Y-88650000D01*
G75*
G02*
X154050000Y-88875000I-225000J0D01*
G01*
X153550000Y-88875000D01*
G75*
G02*
X153325000Y-88650000I0J225000D01*
G01*
X153325000Y-88200000D01*
G75*
G02*
X153550000Y-87975000I225000J0D01*
G01*
G37*
%TD.AperFunction*%
%TO.P,C24,2*%
%TO.N,+3V3*%
%TA.AperFunction,SMDPad,CuDef*%
G36*
G01*
X153550000Y-89525000D02*
X154050000Y-89525000D01*
G75*
G02*
X154275000Y-89750000I0J-225000D01*
G01*
X154275000Y-90200000D01*
G75*
G02*
X154050000Y-90425000I-225000J0D01*
G01*
X153550000Y-90425000D01*
G75*
G02*
X153325000Y-90200000I0J225000D01*
G01*
X153325000Y-89750000D01*
G75*
G02*
X153550000Y-89525000I225000J0D01*
G01*
G37*
%TD.AperFunction*%
%TD*%
%TO.P,C27,2*%
%TO.N,Net-(C27-Pad2)*%
%TA.AperFunction,SMDPad,CuDef*%
G36*
G01*
X150525000Y-85850000D02*
X150525000Y-85350000D01*
G75*
G02*
X150750000Y-85125000I225000J0D01*
G01*
X151200000Y-85125000D01*
G75*
G02*
X151425000Y-85350000I0J-225000D01*
G01*
X151425000Y-85850000D01*
G75*
G02*
X151200000Y-86075000I-225000J0D01*
G01*
X150750000Y-86075000D01*
G75*
G02*
X150525000Y-85850000I0J225000D01*
G01*
G37*
%TD.AperFunction*%
%TO.P,C27,1*%
%TO.N,GND*%
%TA.AperFunction,SMDPad,CuDef*%
G36*
G01*
X148975000Y-85850000D02*
X148975000Y-85350000D01*
G75*
G02*
X149200000Y-85125000I225000J0D01*
G01*
X149650000Y-85125000D01*
G75*
G02*
X149875000Y-85350000I0J-225000D01*
G01*
X149875000Y-85850000D01*
G75*
G02*
X149650000Y-86075000I-225000J0D01*
G01*
X149200000Y-86075000D01*
G75*
G02*
X148975000Y-85850000I0J225000D01*
G01*
G37*
%TD.AperFunction*%
%TD*%
%TO.P,C28,1*%
%TO.N,Net-(C28-Pad1)*%
%TA.AperFunction,SMDPad,CuDef*%
G36*
G01*
X150575000Y-92950000D02*
X150575000Y-92450000D01*
G75*
G02*
X150800000Y-92225000I225000J0D01*
G01*
X151250000Y-92225000D01*
G75*
G02*
X151475000Y-92450000I0J-225000D01*
G01*
X151475000Y-92950000D01*
G75*
G02*
X151250000Y-93175000I-225000J0D01*
G01*
X150800000Y-93175000D01*
G75*
G02*
X150575000Y-92950000I0J225000D01*
G01*
G37*
%TD.AperFunction*%
%TO.P,C28,2*%
%TO.N,GND*%
%TA.AperFunction,SMDPad,CuDef*%
G36*
G01*
X152125000Y-92950000D02*
X152125000Y-92450000D01*
G75*
G02*
X152350000Y-92225000I225000J0D01*
G01*
X152800000Y-92225000D01*
G75*
G02*
X153025000Y-92450000I0J-225000D01*
G01*
X153025000Y-92950000D01*
G75*
G02*
X152800000Y-93175000I-225000J0D01*
G01*
X152350000Y-93175000D01*
G75*
G02*
X152125000Y-92950000I0J225000D01*
G01*
G37*
%TD.AperFunction*%
%TD*%
%TO.P,H2,1*%
%TO.N,GND*%
X154178000Y-122000000D03*
%TD*%
%TO.P,H3,1*%
%TO.N,GND*%
X154178000Y-76962000D03*
%TD*%
%TO.P,H4,1*%
%TO.N,GND*%
X123698000Y-121920000D03*
%TD*%
D11*
%TO.P,J2,1*%
%TO.N,GND*%
X128200000Y-97300000D03*
D12*
%TO.P,J2,2*%
%TO.N,UART1_RX*%
X128200000Y-94760000D03*
%TO.P,J2,3*%
%TO.N,UART1_TX*%
X128200000Y-92220000D03*
%TO.P,J2,4*%
%TO.N,+3V3*%
X128200000Y-89680000D03*
%TD*%
D11*
%TO.P,J3,1*%
%TO.N,+BATT*%
X144000000Y-121700000D03*
D12*
%TO.P,J3,2*%
%TO.N,GND*%
X144000000Y-119160000D03*
%TD*%
%TO.P,R1,1*%
%TO.N,GND*%
%TA.AperFunction,SMDPad,CuDef*%
G36*
G01*
X129571200Y-109707000D02*
X129571200Y-110257000D01*
G75*
G02*
X129371200Y-110457000I-200000J0D01*
G01*
X128971200Y-110457000D01*
G75*
G02*
X128771200Y-110257000I0J200000D01*
G01*
X128771200Y-109707000D01*
G75*
G02*
X128971200Y-109507000I200000J0D01*
G01*
X129371200Y-109507000D01*
G75*
G02*
X129571200Y-109707000I0J-200000D01*
G01*
G37*
%TD.AperFunction*%
%TO.P,R1,2*%
%TO.N,Net-(D1-Pad1)*%
%TA.AperFunction,SMDPad,CuDef*%
G36*
G01*
X127921200Y-109707000D02*
X127921200Y-110257000D01*
G75*
G02*
X127721200Y-110457000I-200000J0D01*
G01*
X127321200Y-110457000D01*
G75*
G02*
X127121200Y-110257000I0J200000D01*
G01*
X127121200Y-109707000D01*
G75*
G02*
X127321200Y-109507000I200000J0D01*
G01*
X127721200Y-109507000D01*
G75*
G02*
X127921200Y-109707000I0J-200000D01*
G01*
G37*
%TD.AperFunction*%
%TD*%
%TO.P,R2,2*%
%TO.N,Net-(D2-Pad1)*%
%TA.AperFunction,SMDPad,CuDef*%
G36*
G01*
X145673400Y-103853800D02*
X146223400Y-103853800D01*
G75*
G02*
X146423400Y-104053800I0J-200000D01*
G01*
X146423400Y-104453800D01*
G75*
G02*
X146223400Y-104653800I-200000J0D01*
G01*
X145673400Y-104653800D01*
G75*
G02*
X145473400Y-104453800I0J200000D01*
G01*
X145473400Y-104053800D01*
G75*
G02*
X145673400Y-103853800I200000J0D01*
G01*
G37*
%TD.AperFunction*%
%TO.P,R2,1*%
%TO.N,GND*%
%TA.AperFunction,SMDPad,CuDef*%
G36*
G01*
X145673400Y-102203800D02*
X146223400Y-102203800D01*
G75*
G02*
X146423400Y-102403800I0J-200000D01*
G01*
X146423400Y-102803800D01*
G75*
G02*
X146223400Y-103003800I-200000J0D01*
G01*
X145673400Y-103003800D01*
G75*
G02*
X145473400Y-102803800I0J200000D01*
G01*
X145473400Y-102403800D01*
G75*
G02*
X145673400Y-102203800I200000J0D01*
G01*
G37*
%TD.AperFunction*%
%TD*%
%TO.P,R3,1*%
%TO.N,GND*%
%TA.AperFunction,SMDPad,CuDef*%
G36*
G01*
X134524200Y-93755800D02*
X134524200Y-94305800D01*
G75*
G02*
X134324200Y-94505800I-200000J0D01*
G01*
X133924200Y-94505800D01*
G75*
G02*
X133724200Y-94305800I0J200000D01*
G01*
X133724200Y-93755800D01*
G75*
G02*
X133924200Y-93555800I200000J0D01*
G01*
X134324200Y-93555800D01*
G75*
G02*
X134524200Y-93755800I0J-200000D01*
G01*
G37*
%TD.AperFunction*%
%TO.P,R3,2*%
%TO.N,Net-(D3-Pad1)*%
%TA.AperFunction,SMDPad,CuDef*%
G36*
G01*
X132874200Y-93755800D02*
X132874200Y-94305800D01*
G75*
G02*
X132674200Y-94505800I-200000J0D01*
G01*
X132274200Y-94505800D01*
G75*
G02*
X132074200Y-94305800I0J200000D01*
G01*
X132074200Y-93755800D01*
G75*
G02*
X132274200Y-93555800I200000J0D01*
G01*
X132674200Y-93555800D01*
G75*
G02*
X132874200Y-93755800I0J-200000D01*
G01*
G37*
%TD.AperFunction*%
%TD*%
%TO.P,R4,2*%
%TO.N,I2C1_SCL*%
%TA.AperFunction,SMDPad,CuDef*%
G36*
G01*
X139718600Y-109901400D02*
X139718600Y-109351400D01*
G75*
G02*
X139918600Y-109151400I200000J0D01*
G01*
X140318600Y-109151400D01*
G75*
G02*
X140518600Y-109351400I0J-200000D01*
G01*
X140518600Y-109901400D01*
G75*
G02*
X140318600Y-110101400I-200000J0D01*
G01*
X139918600Y-110101400D01*
G75*
G02*
X139718600Y-109901400I0J200000D01*
G01*
G37*
%TD.AperFunction*%
%TO.P,R4,1*%
%TO.N,+3V3*%
%TA.AperFunction,SMDPad,CuDef*%
G36*
G01*
X138068600Y-109901400D02*
X138068600Y-109351400D01*
G75*
G02*
X138268600Y-109151400I200000J0D01*
G01*
X138668600Y-109151400D01*
G75*
G02*
X138868600Y-109351400I0J-200000D01*
G01*
X138868600Y-109901400D01*
G75*
G02*
X138668600Y-110101400I-200000J0D01*
G01*
X138268600Y-110101400D01*
G75*
G02*
X138068600Y-109901400I0J200000D01*
G01*
G37*
%TD.AperFunction*%
%TD*%
%TO.P,R5,1*%
%TO.N,+3V3*%
%TA.AperFunction,SMDPad,CuDef*%
G36*
G01*
X138068600Y-108377400D02*
X138068600Y-107827400D01*
G75*
G02*
X138268600Y-107627400I200000J0D01*
G01*
X138668600Y-107627400D01*
G75*
G02*
X138868600Y-107827400I0J-200000D01*
G01*
X138868600Y-108377400D01*
G75*
G02*
X138668600Y-108577400I-200000J0D01*
G01*
X138268600Y-108577400D01*
G75*
G02*
X138068600Y-108377400I0J200000D01*
G01*
G37*
%TD.AperFunction*%
%TO.P,R5,2*%
%TO.N,I2C1_SDA*%
%TA.AperFunction,SMDPad,CuDef*%
G36*
G01*
X139718600Y-108377400D02*
X139718600Y-107827400D01*
G75*
G02*
X139918600Y-107627400I200000J0D01*
G01*
X140318600Y-107627400D01*
G75*
G02*
X140518600Y-107827400I0J-200000D01*
G01*
X140518600Y-108377400D01*
G75*
G02*
X140318600Y-108577400I-200000J0D01*
G01*
X139918600Y-108577400D01*
G75*
G02*
X139718600Y-108377400I0J200000D01*
G01*
G37*
%TD.AperFunction*%
%TD*%
%TO.P,R6,2*%
%TO.N,I2C2_SCL*%
%TA.AperFunction,SMDPad,CuDef*%
G36*
G01*
X138825000Y-83575000D02*
X139375000Y-83575000D01*
G75*
G02*
X139575000Y-83775000I0J-200000D01*
G01*
X139575000Y-84175000D01*
G75*
G02*
X139375000Y-84375000I-200000J0D01*
G01*
X138825000Y-84375000D01*
G75*
G02*
X138625000Y-84175000I0J200000D01*
G01*
X138625000Y-83775000D01*
G75*
G02*
X138825000Y-83575000I200000J0D01*
G01*
G37*
%TD.AperFunction*%
%TO.P,R6,1*%
%TO.N,+3V3*%
%TA.AperFunction,SMDPad,CuDef*%
G36*
G01*
X138825000Y-81925000D02*
X139375000Y-81925000D01*
G75*
G02*
X139575000Y-82125000I0J-200000D01*
G01*
X139575000Y-82525000D01*
G75*
G02*
X139375000Y-82725000I-200000J0D01*
G01*
X138825000Y-82725000D01*
G75*
G02*
X138625000Y-82525000I0J200000D01*
G01*
X138625000Y-82125000D01*
G75*
G02*
X138825000Y-81925000I200000J0D01*
G01*
G37*
%TD.AperFunction*%
%TD*%
%TO.P,R7,2*%
%TO.N,I2C2_SDA*%
%TA.AperFunction,SMDPad,CuDef*%
G36*
G01*
X137325000Y-83575000D02*
X137875000Y-83575000D01*
G75*
G02*
X138075000Y-83775000I0J-200000D01*
G01*
X138075000Y-84175000D01*
G75*
G02*
X137875000Y-84375000I-200000J0D01*
G01*
X137325000Y-84375000D01*
G75*
G02*
X137125000Y-84175000I0J200000D01*
G01*
X137125000Y-83775000D01*
G75*
G02*
X137325000Y-83575000I200000J0D01*
G01*
G37*
%TD.AperFunction*%
%TO.P,R7,1*%
%TO.N,+3V3*%
%TA.AperFunction,SMDPad,CuDef*%
G36*
G01*
X137325000Y-81925000D02*
X137875000Y-81925000D01*
G75*
G02*
X138075000Y-82125000I0J-200000D01*
G01*
X138075000Y-82525000D01*
G75*
G02*
X137875000Y-82725000I-200000J0D01*
G01*
X137325000Y-82725000D01*
G75*
G02*
X137125000Y-82525000I0J200000D01*
G01*
X137125000Y-82125000D01*
G75*
G02*
X137325000Y-81925000I200000J0D01*
G01*
G37*
%TD.AperFunction*%
%TD*%
%TO.P,R8,2*%
%TO.N,OSC8_IN*%
%TA.AperFunction,SMDPad,CuDef*%
G36*
G01*
X147725000Y-99525000D02*
X148275000Y-99525000D01*
G75*
G02*
X148475000Y-99725000I0J-200000D01*
G01*
X148475000Y-100125000D01*
G75*
G02*
X148275000Y-100325000I-200000J0D01*
G01*
X147725000Y-100325000D01*
G75*
G02*
X147525000Y-100125000I0J200000D01*
G01*
X147525000Y-99725000D01*
G75*
G02*
X147725000Y-99525000I200000J0D01*
G01*
G37*
%TD.AperFunction*%
%TO.P,R8,1*%
%TO.N,OSC8_OUT*%
%TA.AperFunction,SMDPad,CuDef*%
G36*
G01*
X147725000Y-97875000D02*
X148275000Y-97875000D01*
G75*
G02*
X148475000Y-98075000I0J-200000D01*
G01*
X148475000Y-98475000D01*
G75*
G02*
X148275000Y-98675000I-200000J0D01*
G01*
X147725000Y-98675000D01*
G75*
G02*
X147525000Y-98475000I0J200000D01*
G01*
X147525000Y-98075000D01*
G75*
G02*
X147725000Y-97875000I200000J0D01*
G01*
G37*
%TD.AperFunction*%
%TD*%
%TO.P,R13,1*%
%TO.N,GND*%
%TA.AperFunction,SMDPad,CuDef*%
G36*
G01*
X129975000Y-75475000D02*
X130525000Y-75475000D01*
G75*
G02*
X130725000Y-75675000I0J-200000D01*
G01*
X130725000Y-76075000D01*
G75*
G02*
X130525000Y-76275000I-200000J0D01*
G01*
X129975000Y-76275000D01*
G75*
G02*
X129775000Y-76075000I0J200000D01*
G01*
X129775000Y-75675000D01*
G75*
G02*
X129975000Y-75475000I200000J0D01*
G01*
G37*
%TD.AperFunction*%
%TO.P,R13,2*%
%TO.N,M1_PWM*%
%TA.AperFunction,SMDPad,CuDef*%
G36*
G01*
X129975000Y-77125000D02*
X130525000Y-77125000D01*
G75*
G02*
X130725000Y-77325000I0J-200000D01*
G01*
X130725000Y-77725000D01*
G75*
G02*
X130525000Y-77925000I-200000J0D01*
G01*
X129975000Y-77925000D01*
G75*
G02*
X129775000Y-77725000I0J200000D01*
G01*
X129775000Y-77325000D01*
G75*
G02*
X129975000Y-77125000I200000J0D01*
G01*
G37*
%TD.AperFunction*%
%TD*%
%TO.P,R14,2*%
%TO.N,M3_PWM*%
%TA.AperFunction,SMDPad,CuDef*%
G36*
G01*
X130551600Y-121901400D02*
X130001600Y-121901400D01*
G75*
G02*
X129801600Y-121701400I0J200000D01*
G01*
X129801600Y-121301400D01*
G75*
G02*
X130001600Y-121101400I200000J0D01*
G01*
X130551600Y-121101400D01*
G75*
G02*
X130751600Y-121301400I0J-200000D01*
G01*
X130751600Y-121701400D01*
G75*
G02*
X130551600Y-121901400I-200000J0D01*
G01*
G37*
%TD.AperFunction*%
%TO.P,R14,1*%
%TO.N,GND*%
%TA.AperFunction,SMDPad,CuDef*%
G36*
G01*
X130551600Y-123551400D02*
X130001600Y-123551400D01*
G75*
G02*
X129801600Y-123351400I0J200000D01*
G01*
X129801600Y-122951400D01*
G75*
G02*
X130001600Y-122751400I200000J0D01*
G01*
X130551600Y-122751400D01*
G75*
G02*
X130751600Y-122951400I0J-200000D01*
G01*
X130751600Y-123351400D01*
G75*
G02*
X130551600Y-123551400I-200000J0D01*
G01*
G37*
%TD.AperFunction*%
%TD*%
%TO.P,R17,1*%
%TO.N,GND*%
%TA.AperFunction,SMDPad,CuDef*%
G36*
G01*
X147475000Y-75525000D02*
X148025000Y-75525000D01*
G75*
G02*
X148225000Y-75725000I0J-200000D01*
G01*
X148225000Y-76125000D01*
G75*
G02*
X148025000Y-76325000I-200000J0D01*
G01*
X147475000Y-76325000D01*
G75*
G02*
X147275000Y-76125000I0J200000D01*
G01*
X147275000Y-75725000D01*
G75*
G02*
X147475000Y-75525000I200000J0D01*
G01*
G37*
%TD.AperFunction*%
%TO.P,R17,2*%
%TO.N,M2_PWM*%
%TA.AperFunction,SMDPad,CuDef*%
G36*
G01*
X147475000Y-77175000D02*
X148025000Y-77175000D01*
G75*
G02*
X148225000Y-77375000I0J-200000D01*
G01*
X148225000Y-77775000D01*
G75*
G02*
X148025000Y-77975000I-200000J0D01*
G01*
X147475000Y-77975000D01*
G75*
G02*
X147275000Y-77775000I0J200000D01*
G01*
X147275000Y-77375000D01*
G75*
G02*
X147475000Y-77175000I200000J0D01*
G01*
G37*
%TD.AperFunction*%
%TD*%
%TO.P,R18,1*%
%TO.N,GND*%
%TA.AperFunction,SMDPad,CuDef*%
G36*
G01*
X148075000Y-123525000D02*
X147525000Y-123525000D01*
G75*
G02*
X147325000Y-123325000I0J200000D01*
G01*
X147325000Y-122925000D01*
G75*
G02*
X147525000Y-122725000I200000J0D01*
G01*
X148075000Y-122725000D01*
G75*
G02*
X148275000Y-122925000I0J-200000D01*
G01*
X148275000Y-123325000D01*
G75*
G02*
X148075000Y-123525000I-200000J0D01*
G01*
G37*
%TD.AperFunction*%
%TO.P,R18,2*%
%TO.N,M4_PWM*%
%TA.AperFunction,SMDPad,CuDef*%
G36*
G01*
X148075000Y-121875000D02*
X147525000Y-121875000D01*
G75*
G02*
X147325000Y-121675000I0J200000D01*
G01*
X147325000Y-121275000D01*
G75*
G02*
X147525000Y-121075000I200000J0D01*
G01*
X148075000Y-121075000D01*
G75*
G02*
X148275000Y-121275000I0J-200000D01*
G01*
X148275000Y-121675000D01*
G75*
G02*
X148075000Y-121875000I-200000J0D01*
G01*
G37*
%TD.AperFunction*%
%TD*%
D13*
%TO.N,GND*%
X131400000Y-75700000D03*
X146300000Y-75800000D03*
X146800000Y-123300000D03*
X137000000Y-119200000D03*
X146528356Y-98076503D03*
X152950000Y-98100000D03*
X152950000Y-100100000D03*
X148700000Y-105150000D03*
X151100000Y-105150000D03*
X144800000Y-102650000D03*
X153650000Y-92700000D03*
X153800000Y-87350000D03*
X147100000Y-87900000D03*
X135875000Y-88400000D03*
X139775000Y-102250000D03*
X137168302Y-97294801D03*
X133295343Y-101743481D03*
X141160500Y-106616500D03*
X136969500Y-110680500D03*
X141681200Y-109880400D03*
X134152783Y-92556120D03*
X126441200Y-97282000D03*
X137109200Y-113182400D03*
X130571200Y-110012569D03*
X144881600Y-110134400D03*
X131470400Y-123190000D03*
X146862800Y-92710000D03*
X124800000Y-103200000D03*
X124600000Y-105800000D03*
%TO.N,+3V3*%
X141800000Y-120500000D03*
X149500000Y-93800000D03*
X153800000Y-91050000D03*
X134575000Y-88400000D03*
X136625000Y-102025000D03*
X141862980Y-102212855D03*
X136650000Y-98150000D03*
X135890000Y-108077000D03*
X137414000Y-106616500D03*
X141681200Y-108813600D03*
X126492000Y-89662000D03*
X129133600Y-111201200D03*
X150368000Y-110185200D03*
X136398000Y-82346800D03*
X124600000Y-100600000D03*
%TO.N,+3.3VA*%
X138379200Y-102108000D03*
X143713200Y-104038400D03*
%TO.N,OSC8_IN*%
X149300000Y-100574990D03*
%TO.N,OSC32_IN*%
X147700000Y-103100000D03*
%TO.N,OSC32_OUT*%
X152250000Y-103100000D03*
%TO.N,OSC8_OUT*%
X149458035Y-99069222D03*
%TO.N,VCC*%
X135895000Y-116205000D03*
%TO.N,Net-(C27-Pad2)*%
X152050000Y-85600000D03*
%TO.N,Net-(C28-Pad1)*%
X151000000Y-93800000D03*
%TO.N,Net-(D1-Pad1)*%
X126288800Y-109982000D03*
%TO.N,Net-(D2-Pad1)*%
X147050000Y-104250000D03*
%TO.N,Net-(D3-Pad1)*%
X132486400Y-95148400D03*
%TO.N,LED2*%
X138226800Y-96570800D03*
X134121483Y-95505687D03*
%TO.N,NRST*%
X145338800Y-99025000D03*
X132232400Y-105714800D03*
%TO.N,M1_PWM*%
X131191000Y-76835000D03*
X145948400Y-84836000D03*
X143052800Y-84836000D03*
%TO.N,M3_PWM*%
X129300000Y-122100000D03*
X144272000Y-95568600D03*
X152950001Y-95568600D03*
X152654000Y-115112800D03*
%TO.N,M2_PWM*%
X148700000Y-76800000D03*
%TO.N,M4_PWM*%
X146800000Y-122200000D03*
X143154400Y-94843600D03*
%TO.N,I2C1_SCL*%
X135737600Y-109372400D03*
%TO.N,I2C1_SDA*%
X139319000Y-105600500D03*
X139039600Y-110680501D03*
%TO.N,I2C2_SCL*%
X137750000Y-93450000D03*
X149500000Y-84000000D03*
%TO.N,I2C2_SDA*%
X136765727Y-93626664D03*
X148700000Y-83250000D03*
%TO.N,ADC_BATT*%
X141122400Y-96824800D03*
X143884909Y-103053251D03*
X144678400Y-107492800D03*
X143459200Y-109372400D03*
%TO.N,SPI1_CE*%
X142200000Y-93700000D03*
X137175000Y-91725000D03*
%TO.N,SPI1_SCK*%
X141112561Y-93646431D03*
X139135000Y-91875000D03*
%TD*%
D14*
%TO.N,GND*%
X130425000Y-75700000D02*
X130250000Y-75875000D01*
X131400000Y-75700000D02*
X130425000Y-75700000D01*
X146425000Y-75925000D02*
X146300000Y-75800000D01*
X147750000Y-75925000D02*
X146425000Y-75925000D01*
X147625000Y-123300000D02*
X146800000Y-123300000D01*
X147800000Y-123125000D02*
X147625000Y-123300000D01*
X140970000Y-117589000D02*
X143789000Y-117589000D01*
X144000000Y-117800000D02*
X144000000Y-119160000D01*
X143789000Y-117589000D02*
X144000000Y-117800000D01*
X137033600Y-117589000D02*
X137020600Y-117602000D01*
X140970000Y-117589000D02*
X137033600Y-117589000D01*
X137020600Y-119179400D02*
X137000000Y-119200000D01*
X137020600Y-117602000D02*
X137020600Y-119179400D01*
D15*
X151575000Y-98100000D02*
X152950000Y-98100000D01*
X152950000Y-100100000D02*
X151575000Y-100100000D01*
X148700000Y-104275000D02*
X148700000Y-105150000D01*
X151100000Y-104275000D02*
X151100000Y-105150000D01*
X144846200Y-102603800D02*
X144800000Y-102650000D01*
X145948400Y-102603800D02*
X144846200Y-102603800D01*
X153650000Y-92700000D02*
X152575000Y-92700000D01*
X153800000Y-87350000D02*
X153800000Y-88425000D01*
X147100000Y-87900000D02*
X149300000Y-87900000D01*
X149425000Y-87775000D02*
X149425000Y-85600000D01*
X149300000Y-87900000D02*
X149425000Y-87775000D01*
X138188400Y-99389600D02*
X138189000Y-99390200D01*
X138188400Y-97764600D02*
X138188400Y-99389600D01*
X138189000Y-99390200D02*
X138189000Y-100939600D01*
X138189000Y-100939600D02*
X139687000Y-100939600D01*
X139687000Y-99397000D02*
X139691399Y-99392601D01*
X139687000Y-100939600D02*
X139687000Y-99397000D01*
X139687000Y-102162000D02*
X139775000Y-102250000D01*
X139687000Y-100939600D02*
X139687000Y-102162000D01*
X137718601Y-97294801D02*
X138188400Y-97764600D01*
X137168302Y-97294801D02*
X137718601Y-97294801D01*
X141122400Y-106578400D02*
X141160500Y-106616500D01*
X140068600Y-106578400D02*
X141122400Y-106578400D01*
X136956800Y-110667800D02*
X136969500Y-110680500D01*
X136956800Y-109639400D02*
X136956800Y-110667800D01*
D16*
X134124200Y-92584703D02*
X134152783Y-92556120D01*
X134124200Y-94030800D02*
X134124200Y-92584703D01*
X130540631Y-109982000D02*
X130571200Y-110012569D01*
X129171200Y-109982000D02*
X130540631Y-109982000D01*
X130315200Y-123190000D02*
X130276600Y-123151400D01*
X131470400Y-123190000D02*
X130315200Y-123190000D01*
X146872800Y-92700000D02*
X146862800Y-92710000D01*
X147925000Y-92700000D02*
X146872800Y-92700000D01*
D14*
%TO.N,+3V3*%
X141800000Y-119969000D02*
X140970000Y-119139000D01*
X141800000Y-120500000D02*
X141800000Y-119969000D01*
D15*
X149500000Y-92725000D02*
X149475000Y-92700000D01*
X149500000Y-93800000D02*
X149500000Y-92725000D01*
X153800000Y-91050000D02*
X153800000Y-89975000D01*
X139738400Y-97764600D02*
X140739600Y-97764600D01*
X141241399Y-98266399D02*
X141241399Y-99392601D01*
X140739600Y-97764600D02*
X141241399Y-98266399D01*
X141241399Y-100935201D02*
X141237000Y-100939600D01*
X141241399Y-99392601D02*
X141241399Y-100935201D01*
X136639000Y-99390200D02*
X136639000Y-100939600D01*
X136639000Y-102011000D02*
X136625000Y-102025000D01*
X136639000Y-100939600D02*
X136639000Y-102011000D01*
X141237000Y-101586875D02*
X141862980Y-102212855D01*
X141237000Y-100939600D02*
X141237000Y-101586875D01*
X136639000Y-98161000D02*
X136650000Y-98150000D01*
X136639000Y-99390200D02*
X136639000Y-98161000D01*
X135902400Y-108089400D02*
X135890000Y-108077000D01*
X136956800Y-108089400D02*
X135902400Y-108089400D01*
X137452100Y-106578400D02*
X137414000Y-106616500D01*
X138518600Y-106578400D02*
X137452100Y-106578400D01*
X136969800Y-108102400D02*
X136956800Y-108089400D01*
X138468600Y-108102400D02*
X136969800Y-108102400D01*
X138468600Y-106628400D02*
X138518600Y-106578400D01*
X138468600Y-108102400D02*
X138468600Y-106628400D01*
X138468600Y-108102400D02*
X138468600Y-109626400D01*
D16*
X137600000Y-82325000D02*
X139100000Y-82325000D01*
X136419800Y-82325000D02*
X136398000Y-82346800D01*
X137600000Y-82325000D02*
X136419800Y-82325000D01*
%TO.N,+3.3VA*%
X138379200Y-102108000D02*
X138379200Y-103530400D01*
X138379200Y-103530400D02*
X143205200Y-103530400D01*
X143205200Y-103530400D02*
X143713200Y-104038400D01*
D15*
%TO.N,OSC8_IN*%
X149550010Y-100574990D02*
X150025000Y-100100000D01*
X149300000Y-100574990D02*
X149550010Y-100574990D01*
D16*
X148650010Y-99925000D02*
X149300000Y-100574990D01*
X148000000Y-99925000D02*
X148650010Y-99925000D01*
D15*
%TO.N,OSC32_IN*%
X148325000Y-103100000D02*
X148700000Y-102725000D01*
X147700000Y-103100000D02*
X148325000Y-103100000D01*
%TO.N,OSC32_OUT*%
X151475000Y-103100000D02*
X151100000Y-102725000D01*
X152250000Y-103100000D02*
X151475000Y-103100000D01*
%TO.N,OSC8_OUT*%
X150025000Y-98502257D02*
X149458035Y-99069222D01*
X150025000Y-98100000D02*
X150025000Y-98502257D01*
D16*
X148000000Y-98275000D02*
X148000000Y-98876400D01*
X148192822Y-99069222D02*
X149458035Y-99069222D01*
X148000000Y-98876400D02*
X148192822Y-99069222D01*
D14*
%TO.N,VCC*%
X135470600Y-116629400D02*
X135895000Y-116205000D01*
X135470600Y-117602000D02*
X135470600Y-116629400D01*
D15*
%TO.N,Net-(C27-Pad2)*%
X152050000Y-85600000D02*
X150975000Y-85600000D01*
%TO.N,Net-(C28-Pad1)*%
X151025000Y-93775000D02*
X151000000Y-93800000D01*
X151025000Y-92700000D02*
X151025000Y-93775000D01*
D16*
%TO.N,Net-(D1-Pad1)*%
X126288800Y-109982000D02*
X127521200Y-109982000D01*
D15*
%TO.N,Net-(D2-Pad1)*%
X147046200Y-104253800D02*
X147050000Y-104250000D01*
X145948400Y-104253800D02*
X147046200Y-104253800D01*
D16*
%TO.N,Net-(D3-Pad1)*%
X132474200Y-95136200D02*
X132486400Y-95148400D01*
X132474200Y-94030800D02*
X132474200Y-95136200D01*
%TO.N,LED2*%
X138226800Y-96570800D02*
X137160000Y-96570800D01*
X135186596Y-96570800D02*
X137160000Y-96570800D01*
X134121483Y-95505687D02*
X135186596Y-96570800D01*
%TO.N,NRST*%
X132232400Y-105714800D02*
X133248400Y-104698800D01*
X144488799Y-105850001D02*
X149826399Y-105850001D01*
X143337598Y-104698800D02*
X144488799Y-105850001D01*
X133248400Y-104698800D02*
X143337598Y-104698800D01*
X149826399Y-105850001D02*
X149809200Y-105832802D01*
X149809200Y-102798322D02*
X149860000Y-102747522D01*
X149809200Y-105832802D02*
X149809200Y-102798322D01*
X149860000Y-102667522D02*
X148182878Y-100990400D01*
X149860000Y-102747522D02*
X149860000Y-102667522D01*
X147304200Y-100990400D02*
X145338800Y-99025000D01*
X148182878Y-100990400D02*
X147304200Y-100990400D01*
D17*
%TO.N,M1_PWM*%
X130250000Y-77525000D02*
X131009000Y-77525000D01*
X131191000Y-77343000D02*
X131191000Y-76835000D01*
X131009000Y-77525000D02*
X131191000Y-77343000D01*
D15*
X145948400Y-84836000D02*
X144018000Y-84836000D01*
X144018000Y-84836000D02*
X143052800Y-84836000D01*
D17*
%TO.N,M3_PWM*%
X129898600Y-121501400D02*
X129300000Y-122100000D01*
X130276600Y-121501400D02*
X129898600Y-121501400D01*
D15*
X144272000Y-95568600D02*
X152950001Y-95568600D01*
X132017000Y-121501400D02*
X130276600Y-121501400D01*
X133959600Y-123444000D02*
X132017000Y-121501400D01*
X145440400Y-122544602D02*
X144541002Y-123444000D01*
X145440400Y-120497600D02*
X145440400Y-122544602D01*
X145491200Y-120446800D02*
X145440400Y-120497600D01*
X151130000Y-120446800D02*
X145491200Y-120446800D01*
X144541002Y-123444000D02*
X133959600Y-123444000D01*
X152654000Y-118922800D02*
X151130000Y-120446800D01*
X152654000Y-115112800D02*
X152654000Y-118922800D01*
D17*
%TO.N,M2_PWM*%
X148700000Y-76800000D02*
X148700000Y-77600000D01*
X147775000Y-77600000D02*
X147750000Y-77575000D01*
X148700000Y-77600000D02*
X147775000Y-77600000D01*
%TO.N,M4_PWM*%
X147800000Y-121475000D02*
X147800000Y-121500000D01*
X147800000Y-121500000D02*
X146900000Y-121500000D01*
X146800000Y-121600000D02*
X146900000Y-121500000D01*
X146800000Y-122200000D02*
X146800000Y-121600000D01*
D15*
X146800000Y-122200000D02*
X150138800Y-122200000D01*
X153675001Y-118663799D02*
X153675001Y-95001001D01*
X150138800Y-122200000D02*
X153675001Y-118663799D01*
X153517600Y-94843600D02*
X143154400Y-94843600D01*
X153675001Y-95001001D02*
X153517600Y-94843600D01*
D16*
%TO.N,I2C1_SCL*%
X135737600Y-109372400D02*
X135737600Y-111099600D01*
X136018501Y-111380501D02*
X139825499Y-111380501D01*
X135737600Y-111099600D02*
X136018501Y-111380501D01*
X140118600Y-111087400D02*
X140118600Y-109626400D01*
X139825499Y-111380501D02*
X140118600Y-111087400D01*
D15*
%TO.N,I2C1_SDA*%
X139293600Y-105625900D02*
X139319000Y-105600500D01*
X139293600Y-108153200D02*
X140067800Y-108153200D01*
X139293600Y-110197900D02*
X139293600Y-108153200D01*
X140067800Y-108153200D02*
X140118600Y-108102400D01*
X139293600Y-108153200D02*
X139293600Y-105625900D01*
X139293600Y-110426501D02*
X139293600Y-110197900D01*
X139039600Y-110680501D02*
X139293600Y-110426501D01*
%TO.N,I2C2_SCL*%
X137750000Y-93450000D02*
X136449999Y-92149999D01*
X139100000Y-86599998D02*
X139100000Y-83975000D01*
X136449999Y-89249999D02*
X139100000Y-86599998D01*
X136449999Y-92149999D02*
X136449999Y-89249999D01*
X136449999Y-89249999D02*
X136449999Y-89050001D01*
X149475000Y-83975000D02*
X149500000Y-84000000D01*
X139100000Y-83975000D02*
X149475000Y-83975000D01*
%TO.N,I2C2_SDA*%
X134575000Y-83975000D02*
X137600000Y-83975000D01*
X133849999Y-84700001D02*
X134575000Y-83975000D01*
X133849999Y-90710936D02*
X133849999Y-84700001D01*
X136765727Y-93626664D02*
X133849999Y-90710936D01*
X148675000Y-83225000D02*
X148700000Y-83250000D01*
X137950000Y-83225000D02*
X148675000Y-83225000D01*
X137600000Y-83575000D02*
X137950000Y-83225000D01*
X137600000Y-83975000D02*
X137600000Y-83575000D01*
D16*
%TO.N,ADC_BATT*%
X141122400Y-96824800D02*
X143002000Y-96824800D01*
X143002000Y-96824800D02*
X143713200Y-97536000D01*
X143764053Y-103053251D02*
X143884909Y-103053251D01*
X143713200Y-103002398D02*
X143764053Y-103053251D01*
X143713200Y-97536000D02*
X143713200Y-103002398D01*
X144678400Y-107492800D02*
X144678400Y-108153200D01*
X144678400Y-108153200D02*
X143459200Y-109372400D01*
D15*
%TO.N,SPI1_CE*%
X142200000Y-93700000D02*
X141400000Y-94500000D01*
X137175000Y-91725000D02*
X138225000Y-91725000D01*
X138409999Y-91909999D02*
X138409999Y-92759999D01*
X138225000Y-91725000D02*
X138409999Y-91909999D01*
X140150000Y-94500000D02*
X141400000Y-94500000D01*
X138409999Y-92759999D02*
X140150000Y-94500000D01*
%TO.N,SPI1_SCK*%
X140906431Y-93646431D02*
X141112561Y-93646431D01*
X139135000Y-91875000D02*
X140906431Y-93646431D01*
%TD*%
M02*
