%TF.GenerationSoftware,KiCad,Pcbnew,(5.1.9)-1*%
%TF.CreationDate,2021-04-28T15:16:42-04:00*%
%TF.ProjectId,final_design_v3,66696e61-6c5f-4646-9573-69676e5f7633,rev?*%
%TF.SameCoordinates,Original*%
%TF.FileFunction,Copper,L1,Top*%
%TF.FilePolarity,Positive*%
%FSLAX46Y46*%
G04 Gerber Fmt 4.6, Leading zero omitted, Abs format (unit mm)*
G04 Created by KiCad (PCBNEW (5.1.9)-1) date 2021-04-28 15:16:42*
%MOMM*%
%LPD*%
G01*
G04 APERTURE LIST*
%TA.AperFunction,SMDPad,CuDef*%
%ADD10R,2.400000X0.740000*%
%TD*%
%TA.AperFunction,SMDPad,CuDef*%
%ADD11R,1.000000X2.000000*%
%TD*%
%TA.AperFunction,ComponentPad*%
%ADD12C,3.500000*%
%TD*%
%TA.AperFunction,SMDPad,CuDef*%
%ADD13R,1.800000X2.500000*%
%TD*%
%TA.AperFunction,SMDPad,CuDef*%
%ADD14R,2.500000X1.800000*%
%TD*%
%TA.AperFunction,ComponentPad*%
%ADD15R,1.700000X1.700000*%
%TD*%
%TA.AperFunction,ComponentPad*%
%ADD16O,1.700000X1.700000*%
%TD*%
%TA.AperFunction,SMDPad,CuDef*%
%ADD17R,1.000000X1.000000*%
%TD*%
%TA.AperFunction,SMDPad,CuDef*%
%ADD18R,0.800000X0.900000*%
%TD*%
%TA.AperFunction,SMDPad,CuDef*%
%ADD19R,0.350000X0.380000*%
%TD*%
%TA.AperFunction,SMDPad,CuDef*%
%ADD20R,0.900000X1.300000*%
%TD*%
%TA.AperFunction,SMDPad,CuDef*%
%ADD21C,0.100000*%
%TD*%
%TA.AperFunction,SMDPad,CuDef*%
%ADD22R,1.000000X1.800000*%
%TD*%
%TA.AperFunction,SMDPad,CuDef*%
%ADD23R,1.600000X1.300000*%
%TD*%
%TA.AperFunction,ViaPad*%
%ADD24C,0.800000*%
%TD*%
%TA.AperFunction,Conductor*%
%ADD25C,0.812800*%
%TD*%
%TA.AperFunction,Conductor*%
%ADD26C,0.250000*%
%TD*%
%TA.AperFunction,Conductor*%
%ADD27C,0.200000*%
%TD*%
%TA.AperFunction,Conductor*%
%ADD28C,0.381000*%
%TD*%
G04 APERTURE END LIST*
D10*
%TO.P,J1,10*%
%TO.N,NRST*%
X130350000Y-105740000D03*
%TO.P,J1,9*%
%TO.N,GND*%
X126450000Y-105740000D03*
%TO.P,J1,8*%
%TO.N,Net-(J1-Pad8)*%
X130350000Y-104470000D03*
%TO.P,J1,7*%
%TO.N,Net-(J1-Pad7)*%
X126450000Y-104470000D03*
%TO.P,J1,6*%
%TO.N,SWO*%
X130350000Y-103200000D03*
%TO.P,J1,5*%
%TO.N,GND*%
X126450000Y-103200000D03*
%TO.P,J1,4*%
%TO.N,SWCLK*%
X130350000Y-101930000D03*
%TO.P,J1,3*%
%TO.N,GND*%
X126450000Y-101930000D03*
%TO.P,J1,2*%
%TO.N,SWDIO*%
X130350000Y-100660000D03*
%TO.P,J1,1*%
%TO.N,+3V3*%
X126450000Y-100660000D03*
%TD*%
D11*
%TO.P,U4,2*%
%TO.N,+3V3*%
X134600000Y-90200000D03*
%TO.P,U4,1*%
%TO.N,GND*%
X135870000Y-90200000D03*
%TO.P,U4,3*%
%TO.N,SPI1_CE*%
X137140000Y-90200000D03*
%TO.P,U4,4*%
%TO.N,SPI1_CSN*%
X138410000Y-90200000D03*
%TO.P,U4,5*%
%TO.N,SPI1_SCK*%
X139680000Y-90200000D03*
%TO.P,U4,6*%
%TO.N,SPI1_MOSI*%
X140950000Y-90200000D03*
%TO.P,U4,7*%
%TO.N,SPI1_MISO*%
X142220000Y-90200000D03*
%TO.P,U4,8*%
%TO.N,SPI1_IRQ*%
X143490000Y-90200000D03*
%TD*%
D12*
%TO.P,H1,1*%
%TO.N,GND*%
X123698000Y-76962000D03*
%TD*%
%TO.P,C6,1*%
%TO.N,+3.3VA*%
%TA.AperFunction,SMDPad,CuDef*%
G36*
G01*
X145901600Y-108147400D02*
X146401600Y-108147400D01*
G75*
G02*
X146626600Y-108372400I0J-225000D01*
G01*
X146626600Y-108822400D01*
G75*
G02*
X146401600Y-109047400I-225000J0D01*
G01*
X145901600Y-109047400D01*
G75*
G02*
X145676600Y-108822400I0J225000D01*
G01*
X145676600Y-108372400D01*
G75*
G02*
X145901600Y-108147400I225000J0D01*
G01*
G37*
%TD.AperFunction*%
%TO.P,C6,2*%
%TO.N,GND*%
%TA.AperFunction,SMDPad,CuDef*%
G36*
G01*
X145901600Y-109697400D02*
X146401600Y-109697400D01*
G75*
G02*
X146626600Y-109922400I0J-225000D01*
G01*
X146626600Y-110372400D01*
G75*
G02*
X146401600Y-110597400I-225000J0D01*
G01*
X145901600Y-110597400D01*
G75*
G02*
X145676600Y-110372400I0J225000D01*
G01*
X145676600Y-109922400D01*
G75*
G02*
X145901600Y-109697400I225000J0D01*
G01*
G37*
%TD.AperFunction*%
%TD*%
%TO.P,C7,2*%
%TO.N,GND*%
%TA.AperFunction,SMDPad,CuDef*%
G36*
G01*
X147425600Y-109697400D02*
X147925600Y-109697400D01*
G75*
G02*
X148150600Y-109922400I0J-225000D01*
G01*
X148150600Y-110372400D01*
G75*
G02*
X147925600Y-110597400I-225000J0D01*
G01*
X147425600Y-110597400D01*
G75*
G02*
X147200600Y-110372400I0J225000D01*
G01*
X147200600Y-109922400D01*
G75*
G02*
X147425600Y-109697400I225000J0D01*
G01*
G37*
%TD.AperFunction*%
%TO.P,C7,1*%
%TO.N,+3.3VA*%
%TA.AperFunction,SMDPad,CuDef*%
G36*
G01*
X147425600Y-108147400D02*
X147925600Y-108147400D01*
G75*
G02*
X148150600Y-108372400I0J-225000D01*
G01*
X148150600Y-108822400D01*
G75*
G02*
X147925600Y-109047400I-225000J0D01*
G01*
X147425600Y-109047400D01*
G75*
G02*
X147200600Y-108822400I0J225000D01*
G01*
X147200600Y-108372400D01*
G75*
G02*
X147425600Y-108147400I225000J0D01*
G01*
G37*
%TD.AperFunction*%
%TD*%
%TO.P,D1,1*%
%TO.N,Net-(D1-Pad1)*%
%TA.AperFunction,SMDPad,CuDef*%
G36*
G01*
X127121200Y-110238250D02*
X127121200Y-109725750D01*
G75*
G02*
X127339950Y-109507000I218750J0D01*
G01*
X127777450Y-109507000D01*
G75*
G02*
X127996200Y-109725750I0J-218750D01*
G01*
X127996200Y-110238250D01*
G75*
G02*
X127777450Y-110457000I-218750J0D01*
G01*
X127339950Y-110457000D01*
G75*
G02*
X127121200Y-110238250I0J218750D01*
G01*
G37*
%TD.AperFunction*%
%TO.P,D1,2*%
%TO.N,+3V3*%
%TA.AperFunction,SMDPad,CuDef*%
G36*
G01*
X128696200Y-110238250D02*
X128696200Y-109725750D01*
G75*
G02*
X128914950Y-109507000I218750J0D01*
G01*
X129352450Y-109507000D01*
G75*
G02*
X129571200Y-109725750I0J-218750D01*
G01*
X129571200Y-110238250D01*
G75*
G02*
X129352450Y-110457000I-218750J0D01*
G01*
X128914950Y-110457000D01*
G75*
G02*
X128696200Y-110238250I0J218750D01*
G01*
G37*
%TD.AperFunction*%
%TD*%
%TO.P,D2,2*%
%TO.N,LED1*%
%TA.AperFunction,SMDPad,CuDef*%
G36*
G01*
X146204650Y-103078800D02*
X145692150Y-103078800D01*
G75*
G02*
X145473400Y-102860050I0J218750D01*
G01*
X145473400Y-102422550D01*
G75*
G02*
X145692150Y-102203800I218750J0D01*
G01*
X146204650Y-102203800D01*
G75*
G02*
X146423400Y-102422550I0J-218750D01*
G01*
X146423400Y-102860050D01*
G75*
G02*
X146204650Y-103078800I-218750J0D01*
G01*
G37*
%TD.AperFunction*%
%TO.P,D2,1*%
%TO.N,Net-(D2-Pad1)*%
%TA.AperFunction,SMDPad,CuDef*%
G36*
G01*
X146204650Y-104653800D02*
X145692150Y-104653800D01*
G75*
G02*
X145473400Y-104435050I0J218750D01*
G01*
X145473400Y-103997550D01*
G75*
G02*
X145692150Y-103778800I218750J0D01*
G01*
X146204650Y-103778800D01*
G75*
G02*
X146423400Y-103997550I0J-218750D01*
G01*
X146423400Y-104435050D01*
G75*
G02*
X146204650Y-104653800I-218750J0D01*
G01*
G37*
%TD.AperFunction*%
%TD*%
%TO.P,D3,1*%
%TO.N,Net-(D3-Pad1)*%
%TA.AperFunction,SMDPad,CuDef*%
G36*
G01*
X132074200Y-94287050D02*
X132074200Y-93774550D01*
G75*
G02*
X132292950Y-93555800I218750J0D01*
G01*
X132730450Y-93555800D01*
G75*
G02*
X132949200Y-93774550I0J-218750D01*
G01*
X132949200Y-94287050D01*
G75*
G02*
X132730450Y-94505800I-218750J0D01*
G01*
X132292950Y-94505800D01*
G75*
G02*
X132074200Y-94287050I0J218750D01*
G01*
G37*
%TD.AperFunction*%
%TO.P,D3,2*%
%TO.N,LED2*%
%TA.AperFunction,SMDPad,CuDef*%
G36*
G01*
X133649200Y-94287050D02*
X133649200Y-93774550D01*
G75*
G02*
X133867950Y-93555800I218750J0D01*
G01*
X134305450Y-93555800D01*
G75*
G02*
X134524200Y-93774550I0J-218750D01*
G01*
X134524200Y-94287050D01*
G75*
G02*
X134305450Y-94505800I-218750J0D01*
G01*
X133867950Y-94505800D01*
G75*
G02*
X133649200Y-94287050I0J218750D01*
G01*
G37*
%TD.AperFunction*%
%TD*%
D13*
%TO.P,D5,2*%
%TO.N,+BATT*%
X134500000Y-122400000D03*
%TO.P,D5,1*%
%TO.N,VCC*%
X134500000Y-118400000D03*
%TD*%
D14*
%TO.P,D6,2*%
%TO.N,Net-(D6-Pad2)*%
X130500000Y-80500000D03*
%TO.P,D6,1*%
%TO.N,VCC*%
X126500000Y-80500000D03*
%TD*%
%TO.P,D7,2*%
%TO.N,Net-(D7-Pad2)*%
X130524000Y-118491000D03*
%TO.P,D7,1*%
%TO.N,VCC*%
X126524000Y-118491000D03*
%TD*%
%TO.P,D8,1*%
%TO.N,VCC*%
X151500000Y-80500000D03*
%TO.P,D8,2*%
%TO.N,Net-(D8-Pad2)*%
X147500000Y-80500000D03*
%TD*%
%TO.P,D9,1*%
%TO.N,VCC*%
X151500000Y-118491000D03*
%TO.P,D9,2*%
%TO.N,Net-(D9-Pad2)*%
X147500000Y-118491000D03*
%TD*%
D12*
%TO.P,H2,1*%
%TO.N,GND*%
X154178000Y-122000000D03*
%TD*%
%TO.P,H3,1*%
%TO.N,GND*%
X154178000Y-76962000D03*
%TD*%
%TO.P,H4,1*%
%TO.N,GND*%
X123698000Y-121920000D03*
%TD*%
D15*
%TO.P,J2,1*%
%TO.N,GND*%
X128200000Y-97300000D03*
D16*
%TO.P,J2,2*%
%TO.N,UART1_RX*%
X128200000Y-94760000D03*
%TO.P,J2,3*%
%TO.N,UART1_TX*%
X128200000Y-92220000D03*
%TO.P,J2,4*%
%TO.N,+3V3*%
X128200000Y-89680000D03*
%TD*%
D15*
%TO.P,J3,1*%
%TO.N,+BATT*%
X144000000Y-121700000D03*
D16*
%TO.P,J3,2*%
%TO.N,GND*%
X144000000Y-119160000D03*
%TD*%
D17*
%TO.P,J4,1*%
%TO.N,VCC*%
X123000000Y-80500000D03*
%TD*%
%TO.P,J5,1*%
%TO.N,Net-(D6-Pad2)*%
X127500000Y-76000000D03*
%TD*%
%TO.P,J6,1*%
%TO.N,VCC*%
X122999500Y-118491000D03*
%TD*%
%TO.P,J7,1*%
%TO.N,Net-(D7-Pad2)*%
X127406400Y-122936000D03*
%TD*%
%TO.P,J8,1*%
%TO.N,VCC*%
X155000000Y-80500000D03*
%TD*%
%TO.P,J9,1*%
%TO.N,Net-(D8-Pad2)*%
X150550000Y-75975000D03*
%TD*%
%TO.P,J10,1*%
%TO.N,VCC*%
X155000000Y-118500000D03*
%TD*%
%TO.P,J11,1*%
%TO.N,Net-(D9-Pad2)*%
X150500000Y-123000000D03*
%TD*%
%TO.P,L1,1*%
%TO.N,+3V3*%
%TA.AperFunction,SMDPad,CuDef*%
G36*
G01*
X149455850Y-110597400D02*
X148943350Y-110597400D01*
G75*
G02*
X148724600Y-110378650I0J218750D01*
G01*
X148724600Y-109941150D01*
G75*
G02*
X148943350Y-109722400I218750J0D01*
G01*
X149455850Y-109722400D01*
G75*
G02*
X149674600Y-109941150I0J-218750D01*
G01*
X149674600Y-110378650D01*
G75*
G02*
X149455850Y-110597400I-218750J0D01*
G01*
G37*
%TD.AperFunction*%
%TO.P,L1,2*%
%TO.N,+3.3VA*%
%TA.AperFunction,SMDPad,CuDef*%
G36*
G01*
X149455850Y-109022400D02*
X148943350Y-109022400D01*
G75*
G02*
X148724600Y-108803650I0J218750D01*
G01*
X148724600Y-108366150D01*
G75*
G02*
X148943350Y-108147400I218750J0D01*
G01*
X149455850Y-108147400D01*
G75*
G02*
X149674600Y-108366150I0J-218750D01*
G01*
X149674600Y-108803650D01*
G75*
G02*
X149455850Y-109022400I-218750J0D01*
G01*
G37*
%TD.AperFunction*%
%TD*%
D18*
%TO.P,Q1,1*%
%TO.N,Net-(D6-Pad2)*%
X129300000Y-77700000D03*
%TO.P,Q1,2*%
%TO.N,M1_PWM*%
X131200000Y-77700000D03*
%TO.P,Q1,3*%
%TO.N,GND*%
X130250000Y-75700000D03*
%TD*%
%TO.P,Q2,1*%
%TO.N,Net-(D7-Pad2)*%
X131201200Y-121224800D03*
%TO.P,Q2,2*%
%TO.N,M3_PWM*%
X129301200Y-121224800D03*
%TO.P,Q2,3*%
%TO.N,GND*%
X130251200Y-123224800D03*
%TD*%
%TO.P,Q3,3*%
%TO.N,GND*%
X147775000Y-75675000D03*
%TO.P,Q3,2*%
%TO.N,M2_PWM*%
X148725000Y-77675000D03*
%TO.P,Q3,1*%
%TO.N,Net-(D8-Pad2)*%
X146825000Y-77675000D03*
%TD*%
%TO.P,Q4,3*%
%TO.N,GND*%
X147750000Y-123300000D03*
%TO.P,Q4,2*%
%TO.N,M4_PWM*%
X146800000Y-121300000D03*
%TO.P,Q4,1*%
%TO.N,Net-(D9-Pad2)*%
X148700000Y-121300000D03*
%TD*%
%TO.P,R9,2*%
%TO.N,VCC*%
%TA.AperFunction,SMDPad,CuDef*%
G36*
G01*
X138716200Y-114431400D02*
X138716200Y-114981400D01*
G75*
G02*
X138516200Y-115181400I-200000J0D01*
G01*
X138116200Y-115181400D01*
G75*
G02*
X137916200Y-114981400I0J200000D01*
G01*
X137916200Y-114431400D01*
G75*
G02*
X138116200Y-114231400I200000J0D01*
G01*
X138516200Y-114231400D01*
G75*
G02*
X138716200Y-114431400I0J-200000D01*
G01*
G37*
%TD.AperFunction*%
%TO.P,R9,1*%
%TO.N,ADC_BATT*%
%TA.AperFunction,SMDPad,CuDef*%
G36*
G01*
X140366200Y-114431400D02*
X140366200Y-114981400D01*
G75*
G02*
X140166200Y-115181400I-200000J0D01*
G01*
X139766200Y-115181400D01*
G75*
G02*
X139566200Y-114981400I0J200000D01*
G01*
X139566200Y-114431400D01*
G75*
G02*
X139766200Y-114231400I200000J0D01*
G01*
X140166200Y-114231400D01*
G75*
G02*
X140366200Y-114431400I0J-200000D01*
G01*
G37*
%TD.AperFunction*%
%TD*%
%TO.P,R10,1*%
%TO.N,GND*%
%TA.AperFunction,SMDPad,CuDef*%
G36*
G01*
X137916200Y-113457400D02*
X137916200Y-112907400D01*
G75*
G02*
X138116200Y-112707400I200000J0D01*
G01*
X138516200Y-112707400D01*
G75*
G02*
X138716200Y-112907400I0J-200000D01*
G01*
X138716200Y-113457400D01*
G75*
G02*
X138516200Y-113657400I-200000J0D01*
G01*
X138116200Y-113657400D01*
G75*
G02*
X137916200Y-113457400I0J200000D01*
G01*
G37*
%TD.AperFunction*%
%TO.P,R10,2*%
%TO.N,ADC_BATT*%
%TA.AperFunction,SMDPad,CuDef*%
G36*
G01*
X139566200Y-113457400D02*
X139566200Y-112907400D01*
G75*
G02*
X139766200Y-112707400I200000J0D01*
G01*
X140166200Y-112707400D01*
G75*
G02*
X140366200Y-112907400I0J-200000D01*
G01*
X140366200Y-113457400D01*
G75*
G02*
X140166200Y-113657400I-200000J0D01*
G01*
X139766200Y-113657400D01*
G75*
G02*
X139566200Y-113457400I0J200000D01*
G01*
G37*
%TD.AperFunction*%
%TD*%
%TO.P,U1,1*%
%TO.N,+3V3*%
%TA.AperFunction,SMDPad,CuDef*%
G36*
G01*
X143900000Y-102175000D02*
X143900000Y-102325000D01*
G75*
G02*
X143825000Y-102400000I-75000J0D01*
G01*
X142500000Y-102400000D01*
G75*
G02*
X142425000Y-102325000I0J75000D01*
G01*
X142425000Y-102175000D01*
G75*
G02*
X142500000Y-102100000I75000J0D01*
G01*
X143825000Y-102100000D01*
G75*
G02*
X143900000Y-102175000I0J-75000D01*
G01*
G37*
%TD.AperFunction*%
%TO.P,U1,2*%
%TO.N,LED1*%
%TA.AperFunction,SMDPad,CuDef*%
G36*
G01*
X143900000Y-101675000D02*
X143900000Y-101825000D01*
G75*
G02*
X143825000Y-101900000I-75000J0D01*
G01*
X142500000Y-101900000D01*
G75*
G02*
X142425000Y-101825000I0J75000D01*
G01*
X142425000Y-101675000D01*
G75*
G02*
X142500000Y-101600000I75000J0D01*
G01*
X143825000Y-101600000D01*
G75*
G02*
X143900000Y-101675000I0J-75000D01*
G01*
G37*
%TD.AperFunction*%
%TO.P,U1,3*%
%TO.N,OSC32_IN*%
%TA.AperFunction,SMDPad,CuDef*%
G36*
G01*
X143900000Y-101175000D02*
X143900000Y-101325000D01*
G75*
G02*
X143825000Y-101400000I-75000J0D01*
G01*
X142500000Y-101400000D01*
G75*
G02*
X142425000Y-101325000I0J75000D01*
G01*
X142425000Y-101175000D01*
G75*
G02*
X142500000Y-101100000I75000J0D01*
G01*
X143825000Y-101100000D01*
G75*
G02*
X143900000Y-101175000I0J-75000D01*
G01*
G37*
%TD.AperFunction*%
%TO.P,U1,4*%
%TO.N,OSC32_OUT*%
%TA.AperFunction,SMDPad,CuDef*%
G36*
G01*
X143900000Y-100675000D02*
X143900000Y-100825000D01*
G75*
G02*
X143825000Y-100900000I-75000J0D01*
G01*
X142500000Y-100900000D01*
G75*
G02*
X142425000Y-100825000I0J75000D01*
G01*
X142425000Y-100675000D01*
G75*
G02*
X142500000Y-100600000I75000J0D01*
G01*
X143825000Y-100600000D01*
G75*
G02*
X143900000Y-100675000I0J-75000D01*
G01*
G37*
%TD.AperFunction*%
%TO.P,U1,5*%
%TO.N,OSC8_IN*%
%TA.AperFunction,SMDPad,CuDef*%
G36*
G01*
X143900000Y-100175000D02*
X143900000Y-100325000D01*
G75*
G02*
X143825000Y-100400000I-75000J0D01*
G01*
X142500000Y-100400000D01*
G75*
G02*
X142425000Y-100325000I0J75000D01*
G01*
X142425000Y-100175000D01*
G75*
G02*
X142500000Y-100100000I75000J0D01*
G01*
X143825000Y-100100000D01*
G75*
G02*
X143900000Y-100175000I0J-75000D01*
G01*
G37*
%TD.AperFunction*%
%TO.P,U1,6*%
%TO.N,OSC8_OUT*%
%TA.AperFunction,SMDPad,CuDef*%
G36*
G01*
X143900000Y-99675000D02*
X143900000Y-99825000D01*
G75*
G02*
X143825000Y-99900000I-75000J0D01*
G01*
X142500000Y-99900000D01*
G75*
G02*
X142425000Y-99825000I0J75000D01*
G01*
X142425000Y-99675000D01*
G75*
G02*
X142500000Y-99600000I75000J0D01*
G01*
X143825000Y-99600000D01*
G75*
G02*
X143900000Y-99675000I0J-75000D01*
G01*
G37*
%TD.AperFunction*%
%TO.P,U1,7*%
%TO.N,NRST*%
%TA.AperFunction,SMDPad,CuDef*%
G36*
G01*
X143900000Y-99175000D02*
X143900000Y-99325000D01*
G75*
G02*
X143825000Y-99400000I-75000J0D01*
G01*
X142500000Y-99400000D01*
G75*
G02*
X142425000Y-99325000I0J75000D01*
G01*
X142425000Y-99175000D01*
G75*
G02*
X142500000Y-99100000I75000J0D01*
G01*
X143825000Y-99100000D01*
G75*
G02*
X143900000Y-99175000I0J-75000D01*
G01*
G37*
%TD.AperFunction*%
%TO.P,U1,8*%
%TO.N,GND*%
%TA.AperFunction,SMDPad,CuDef*%
G36*
G01*
X143900000Y-98675000D02*
X143900000Y-98825000D01*
G75*
G02*
X143825000Y-98900000I-75000J0D01*
G01*
X142500000Y-98900000D01*
G75*
G02*
X142425000Y-98825000I0J75000D01*
G01*
X142425000Y-98675000D01*
G75*
G02*
X142500000Y-98600000I75000J0D01*
G01*
X143825000Y-98600000D01*
G75*
G02*
X143900000Y-98675000I0J-75000D01*
G01*
G37*
%TD.AperFunction*%
%TO.P,U1,9*%
%TO.N,+3.3VA*%
%TA.AperFunction,SMDPad,CuDef*%
G36*
G01*
X143900000Y-98175000D02*
X143900000Y-98325000D01*
G75*
G02*
X143825000Y-98400000I-75000J0D01*
G01*
X142500000Y-98400000D01*
G75*
G02*
X142425000Y-98325000I0J75000D01*
G01*
X142425000Y-98175000D01*
G75*
G02*
X142500000Y-98100000I75000J0D01*
G01*
X143825000Y-98100000D01*
G75*
G02*
X143900000Y-98175000I0J-75000D01*
G01*
G37*
%TD.AperFunction*%
%TO.P,U1,10*%
%TO.N,M1_PWM*%
%TA.AperFunction,SMDPad,CuDef*%
G36*
G01*
X143900000Y-97675000D02*
X143900000Y-97825000D01*
G75*
G02*
X143825000Y-97900000I-75000J0D01*
G01*
X142500000Y-97900000D01*
G75*
G02*
X142425000Y-97825000I0J75000D01*
G01*
X142425000Y-97675000D01*
G75*
G02*
X142500000Y-97600000I75000J0D01*
G01*
X143825000Y-97600000D01*
G75*
G02*
X143900000Y-97675000I0J-75000D01*
G01*
G37*
%TD.AperFunction*%
%TO.P,U1,11*%
%TO.N,M2_PWM*%
%TA.AperFunction,SMDPad,CuDef*%
G36*
G01*
X143900000Y-97175000D02*
X143900000Y-97325000D01*
G75*
G02*
X143825000Y-97400000I-75000J0D01*
G01*
X142500000Y-97400000D01*
G75*
G02*
X142425000Y-97325000I0J75000D01*
G01*
X142425000Y-97175000D01*
G75*
G02*
X142500000Y-97100000I75000J0D01*
G01*
X143825000Y-97100000D01*
G75*
G02*
X143900000Y-97175000I0J-75000D01*
G01*
G37*
%TD.AperFunction*%
%TO.P,U1,12*%
%TO.N,M3_PWM*%
%TA.AperFunction,SMDPad,CuDef*%
G36*
G01*
X143900000Y-96675000D02*
X143900000Y-96825000D01*
G75*
G02*
X143825000Y-96900000I-75000J0D01*
G01*
X142500000Y-96900000D01*
G75*
G02*
X142425000Y-96825000I0J75000D01*
G01*
X142425000Y-96675000D01*
G75*
G02*
X142500000Y-96600000I75000J0D01*
G01*
X143825000Y-96600000D01*
G75*
G02*
X143900000Y-96675000I0J-75000D01*
G01*
G37*
%TD.AperFunction*%
%TO.P,U1,13*%
%TO.N,M4_PWM*%
%TA.AperFunction,SMDPad,CuDef*%
G36*
G01*
X141900000Y-94675000D02*
X141900000Y-96000000D01*
G75*
G02*
X141825000Y-96075000I-75000J0D01*
G01*
X141675000Y-96075000D01*
G75*
G02*
X141600000Y-96000000I0J75000D01*
G01*
X141600000Y-94675000D01*
G75*
G02*
X141675000Y-94600000I75000J0D01*
G01*
X141825000Y-94600000D01*
G75*
G02*
X141900000Y-94675000I0J-75000D01*
G01*
G37*
%TD.AperFunction*%
%TO.P,U1,14*%
%TO.N,SPI1_CE*%
%TA.AperFunction,SMDPad,CuDef*%
G36*
G01*
X141400000Y-94675000D02*
X141400000Y-96000000D01*
G75*
G02*
X141325000Y-96075000I-75000J0D01*
G01*
X141175000Y-96075000D01*
G75*
G02*
X141100000Y-96000000I0J75000D01*
G01*
X141100000Y-94675000D01*
G75*
G02*
X141175000Y-94600000I75000J0D01*
G01*
X141325000Y-94600000D01*
G75*
G02*
X141400000Y-94675000I0J-75000D01*
G01*
G37*
%TD.AperFunction*%
%TO.P,U1,15*%
%TO.N,SPI1_SCK*%
%TA.AperFunction,SMDPad,CuDef*%
G36*
G01*
X140900000Y-94675000D02*
X140900000Y-96000000D01*
G75*
G02*
X140825000Y-96075000I-75000J0D01*
G01*
X140675000Y-96075000D01*
G75*
G02*
X140600000Y-96000000I0J75000D01*
G01*
X140600000Y-94675000D01*
G75*
G02*
X140675000Y-94600000I75000J0D01*
G01*
X140825000Y-94600000D01*
G75*
G02*
X140900000Y-94675000I0J-75000D01*
G01*
G37*
%TD.AperFunction*%
%TO.P,U1,16*%
%TO.N,SPI1_MISO*%
%TA.AperFunction,SMDPad,CuDef*%
G36*
G01*
X140400000Y-94675000D02*
X140400000Y-96000000D01*
G75*
G02*
X140325000Y-96075000I-75000J0D01*
G01*
X140175000Y-96075000D01*
G75*
G02*
X140100000Y-96000000I0J75000D01*
G01*
X140100000Y-94675000D01*
G75*
G02*
X140175000Y-94600000I75000J0D01*
G01*
X140325000Y-94600000D01*
G75*
G02*
X140400000Y-94675000I0J-75000D01*
G01*
G37*
%TD.AperFunction*%
%TO.P,U1,17*%
%TO.N,SPI1_MOSI*%
%TA.AperFunction,SMDPad,CuDef*%
G36*
G01*
X139900000Y-94675000D02*
X139900000Y-96000000D01*
G75*
G02*
X139825000Y-96075000I-75000J0D01*
G01*
X139675000Y-96075000D01*
G75*
G02*
X139600000Y-96000000I0J75000D01*
G01*
X139600000Y-94675000D01*
G75*
G02*
X139675000Y-94600000I75000J0D01*
G01*
X139825000Y-94600000D01*
G75*
G02*
X139900000Y-94675000I0J-75000D01*
G01*
G37*
%TD.AperFunction*%
%TO.P,U1,18*%
%TO.N,SPI1_CSN*%
%TA.AperFunction,SMDPad,CuDef*%
G36*
G01*
X139400000Y-94675000D02*
X139400000Y-96000000D01*
G75*
G02*
X139325000Y-96075000I-75000J0D01*
G01*
X139175000Y-96075000D01*
G75*
G02*
X139100000Y-96000000I0J75000D01*
G01*
X139100000Y-94675000D01*
G75*
G02*
X139175000Y-94600000I75000J0D01*
G01*
X139325000Y-94600000D01*
G75*
G02*
X139400000Y-94675000I0J-75000D01*
G01*
G37*
%TD.AperFunction*%
%TO.P,U1,19*%
%TO.N,ADC_BATT*%
%TA.AperFunction,SMDPad,CuDef*%
G36*
G01*
X138900000Y-94675000D02*
X138900000Y-96000000D01*
G75*
G02*
X138825000Y-96075000I-75000J0D01*
G01*
X138675000Y-96075000D01*
G75*
G02*
X138600000Y-96000000I0J75000D01*
G01*
X138600000Y-94675000D01*
G75*
G02*
X138675000Y-94600000I75000J0D01*
G01*
X138825000Y-94600000D01*
G75*
G02*
X138900000Y-94675000I0J-75000D01*
G01*
G37*
%TD.AperFunction*%
%TO.P,U1,20*%
%TO.N,LED2*%
%TA.AperFunction,SMDPad,CuDef*%
G36*
G01*
X138400000Y-94675000D02*
X138400000Y-96000000D01*
G75*
G02*
X138325000Y-96075000I-75000J0D01*
G01*
X138175000Y-96075000D01*
G75*
G02*
X138100000Y-96000000I0J75000D01*
G01*
X138100000Y-94675000D01*
G75*
G02*
X138175000Y-94600000I75000J0D01*
G01*
X138325000Y-94600000D01*
G75*
G02*
X138400000Y-94675000I0J-75000D01*
G01*
G37*
%TD.AperFunction*%
%TO.P,U1,21*%
%TO.N,I2C2_SCL*%
%TA.AperFunction,SMDPad,CuDef*%
G36*
G01*
X137900000Y-94675000D02*
X137900000Y-96000000D01*
G75*
G02*
X137825000Y-96075000I-75000J0D01*
G01*
X137675000Y-96075000D01*
G75*
G02*
X137600000Y-96000000I0J75000D01*
G01*
X137600000Y-94675000D01*
G75*
G02*
X137675000Y-94600000I75000J0D01*
G01*
X137825000Y-94600000D01*
G75*
G02*
X137900000Y-94675000I0J-75000D01*
G01*
G37*
%TD.AperFunction*%
%TO.P,U1,22*%
%TO.N,I2C2_SDA*%
%TA.AperFunction,SMDPad,CuDef*%
G36*
G01*
X137400000Y-94675000D02*
X137400000Y-96000000D01*
G75*
G02*
X137325000Y-96075000I-75000J0D01*
G01*
X137175000Y-96075000D01*
G75*
G02*
X137100000Y-96000000I0J75000D01*
G01*
X137100000Y-94675000D01*
G75*
G02*
X137175000Y-94600000I75000J0D01*
G01*
X137325000Y-94600000D01*
G75*
G02*
X137400000Y-94675000I0J-75000D01*
G01*
G37*
%TD.AperFunction*%
%TO.P,U1,23*%
%TO.N,GND*%
%TA.AperFunction,SMDPad,CuDef*%
G36*
G01*
X136900000Y-94675000D02*
X136900000Y-96000000D01*
G75*
G02*
X136825000Y-96075000I-75000J0D01*
G01*
X136675000Y-96075000D01*
G75*
G02*
X136600000Y-96000000I0J75000D01*
G01*
X136600000Y-94675000D01*
G75*
G02*
X136675000Y-94600000I75000J0D01*
G01*
X136825000Y-94600000D01*
G75*
G02*
X136900000Y-94675000I0J-75000D01*
G01*
G37*
%TD.AperFunction*%
%TO.P,U1,24*%
%TO.N,+3V3*%
%TA.AperFunction,SMDPad,CuDef*%
G36*
G01*
X136400000Y-94675000D02*
X136400000Y-96000000D01*
G75*
G02*
X136325000Y-96075000I-75000J0D01*
G01*
X136175000Y-96075000D01*
G75*
G02*
X136100000Y-96000000I0J75000D01*
G01*
X136100000Y-94675000D01*
G75*
G02*
X136175000Y-94600000I75000J0D01*
G01*
X136325000Y-94600000D01*
G75*
G02*
X136400000Y-94675000I0J-75000D01*
G01*
G37*
%TD.AperFunction*%
%TO.P,U1,25*%
%TO.N,Net-(U1-Pad25)*%
%TA.AperFunction,SMDPad,CuDef*%
G36*
G01*
X135575000Y-96675000D02*
X135575000Y-96825000D01*
G75*
G02*
X135500000Y-96900000I-75000J0D01*
G01*
X134175000Y-96900000D01*
G75*
G02*
X134100000Y-96825000I0J75000D01*
G01*
X134100000Y-96675000D01*
G75*
G02*
X134175000Y-96600000I75000J0D01*
G01*
X135500000Y-96600000D01*
G75*
G02*
X135575000Y-96675000I0J-75000D01*
G01*
G37*
%TD.AperFunction*%
%TO.P,U1,26*%
%TO.N,Net-(U1-Pad26)*%
%TA.AperFunction,SMDPad,CuDef*%
G36*
G01*
X135575000Y-97175000D02*
X135575000Y-97325000D01*
G75*
G02*
X135500000Y-97400000I-75000J0D01*
G01*
X134175000Y-97400000D01*
G75*
G02*
X134100000Y-97325000I0J75000D01*
G01*
X134100000Y-97175000D01*
G75*
G02*
X134175000Y-97100000I75000J0D01*
G01*
X135500000Y-97100000D01*
G75*
G02*
X135575000Y-97175000I0J-75000D01*
G01*
G37*
%TD.AperFunction*%
%TO.P,U1,27*%
%TO.N,Net-(U1-Pad27)*%
%TA.AperFunction,SMDPad,CuDef*%
G36*
G01*
X135575000Y-97675000D02*
X135575000Y-97825000D01*
G75*
G02*
X135500000Y-97900000I-75000J0D01*
G01*
X134175000Y-97900000D01*
G75*
G02*
X134100000Y-97825000I0J75000D01*
G01*
X134100000Y-97675000D01*
G75*
G02*
X134175000Y-97600000I75000J0D01*
G01*
X135500000Y-97600000D01*
G75*
G02*
X135575000Y-97675000I0J-75000D01*
G01*
G37*
%TD.AperFunction*%
%TO.P,U1,28*%
%TO.N,Net-(U1-Pad28)*%
%TA.AperFunction,SMDPad,CuDef*%
G36*
G01*
X135575000Y-98175000D02*
X135575000Y-98325000D01*
G75*
G02*
X135500000Y-98400000I-75000J0D01*
G01*
X134175000Y-98400000D01*
G75*
G02*
X134100000Y-98325000I0J75000D01*
G01*
X134100000Y-98175000D01*
G75*
G02*
X134175000Y-98100000I75000J0D01*
G01*
X135500000Y-98100000D01*
G75*
G02*
X135575000Y-98175000I0J-75000D01*
G01*
G37*
%TD.AperFunction*%
%TO.P,U1,29*%
%TO.N,Net-(U1-Pad29)*%
%TA.AperFunction,SMDPad,CuDef*%
G36*
G01*
X135575000Y-98675000D02*
X135575000Y-98825000D01*
G75*
G02*
X135500000Y-98900000I-75000J0D01*
G01*
X134175000Y-98900000D01*
G75*
G02*
X134100000Y-98825000I0J75000D01*
G01*
X134100000Y-98675000D01*
G75*
G02*
X134175000Y-98600000I75000J0D01*
G01*
X135500000Y-98600000D01*
G75*
G02*
X135575000Y-98675000I0J-75000D01*
G01*
G37*
%TD.AperFunction*%
%TO.P,U1,30*%
%TO.N,UART1_TX*%
%TA.AperFunction,SMDPad,CuDef*%
G36*
G01*
X135575000Y-99175000D02*
X135575000Y-99325000D01*
G75*
G02*
X135500000Y-99400000I-75000J0D01*
G01*
X134175000Y-99400000D01*
G75*
G02*
X134100000Y-99325000I0J75000D01*
G01*
X134100000Y-99175000D01*
G75*
G02*
X134175000Y-99100000I75000J0D01*
G01*
X135500000Y-99100000D01*
G75*
G02*
X135575000Y-99175000I0J-75000D01*
G01*
G37*
%TD.AperFunction*%
%TO.P,U1,31*%
%TO.N,UART1_RX*%
%TA.AperFunction,SMDPad,CuDef*%
G36*
G01*
X135575000Y-99675000D02*
X135575000Y-99825000D01*
G75*
G02*
X135500000Y-99900000I-75000J0D01*
G01*
X134175000Y-99900000D01*
G75*
G02*
X134100000Y-99825000I0J75000D01*
G01*
X134100000Y-99675000D01*
G75*
G02*
X134175000Y-99600000I75000J0D01*
G01*
X135500000Y-99600000D01*
G75*
G02*
X135575000Y-99675000I0J-75000D01*
G01*
G37*
%TD.AperFunction*%
%TO.P,U1,32*%
%TO.N,Net-(U1-Pad32)*%
%TA.AperFunction,SMDPad,CuDef*%
G36*
G01*
X135575000Y-100175000D02*
X135575000Y-100325000D01*
G75*
G02*
X135500000Y-100400000I-75000J0D01*
G01*
X134175000Y-100400000D01*
G75*
G02*
X134100000Y-100325000I0J75000D01*
G01*
X134100000Y-100175000D01*
G75*
G02*
X134175000Y-100100000I75000J0D01*
G01*
X135500000Y-100100000D01*
G75*
G02*
X135575000Y-100175000I0J-75000D01*
G01*
G37*
%TD.AperFunction*%
%TO.P,U1,33*%
%TO.N,SPI1_IRQ*%
%TA.AperFunction,SMDPad,CuDef*%
G36*
G01*
X135575000Y-100675000D02*
X135575000Y-100825000D01*
G75*
G02*
X135500000Y-100900000I-75000J0D01*
G01*
X134175000Y-100900000D01*
G75*
G02*
X134100000Y-100825000I0J75000D01*
G01*
X134100000Y-100675000D01*
G75*
G02*
X134175000Y-100600000I75000J0D01*
G01*
X135500000Y-100600000D01*
G75*
G02*
X135575000Y-100675000I0J-75000D01*
G01*
G37*
%TD.AperFunction*%
%TO.P,U1,34*%
%TO.N,SWDIO*%
%TA.AperFunction,SMDPad,CuDef*%
G36*
G01*
X135575000Y-101175000D02*
X135575000Y-101325000D01*
G75*
G02*
X135500000Y-101400000I-75000J0D01*
G01*
X134175000Y-101400000D01*
G75*
G02*
X134100000Y-101325000I0J75000D01*
G01*
X134100000Y-101175000D01*
G75*
G02*
X134175000Y-101100000I75000J0D01*
G01*
X135500000Y-101100000D01*
G75*
G02*
X135575000Y-101175000I0J-75000D01*
G01*
G37*
%TD.AperFunction*%
%TO.P,U1,35*%
%TO.N,GND*%
%TA.AperFunction,SMDPad,CuDef*%
G36*
G01*
X135575000Y-101675000D02*
X135575000Y-101825000D01*
G75*
G02*
X135500000Y-101900000I-75000J0D01*
G01*
X134175000Y-101900000D01*
G75*
G02*
X134100000Y-101825000I0J75000D01*
G01*
X134100000Y-101675000D01*
G75*
G02*
X134175000Y-101600000I75000J0D01*
G01*
X135500000Y-101600000D01*
G75*
G02*
X135575000Y-101675000I0J-75000D01*
G01*
G37*
%TD.AperFunction*%
%TO.P,U1,36*%
%TO.N,+3V3*%
%TA.AperFunction,SMDPad,CuDef*%
G36*
G01*
X135575000Y-102175000D02*
X135575000Y-102325000D01*
G75*
G02*
X135500000Y-102400000I-75000J0D01*
G01*
X134175000Y-102400000D01*
G75*
G02*
X134100000Y-102325000I0J75000D01*
G01*
X134100000Y-102175000D01*
G75*
G02*
X134175000Y-102100000I75000J0D01*
G01*
X135500000Y-102100000D01*
G75*
G02*
X135575000Y-102175000I0J-75000D01*
G01*
G37*
%TD.AperFunction*%
%TO.P,U1,37*%
%TO.N,SWCLK*%
%TA.AperFunction,SMDPad,CuDef*%
G36*
G01*
X136400000Y-103000000D02*
X136400000Y-104325000D01*
G75*
G02*
X136325000Y-104400000I-75000J0D01*
G01*
X136175000Y-104400000D01*
G75*
G02*
X136100000Y-104325000I0J75000D01*
G01*
X136100000Y-103000000D01*
G75*
G02*
X136175000Y-102925000I75000J0D01*
G01*
X136325000Y-102925000D01*
G75*
G02*
X136400000Y-103000000I0J-75000D01*
G01*
G37*
%TD.AperFunction*%
%TO.P,U1,38*%
%TO.N,Net-(U1-Pad38)*%
%TA.AperFunction,SMDPad,CuDef*%
G36*
G01*
X136900000Y-103000000D02*
X136900000Y-104325000D01*
G75*
G02*
X136825000Y-104400000I-75000J0D01*
G01*
X136675000Y-104400000D01*
G75*
G02*
X136600000Y-104325000I0J75000D01*
G01*
X136600000Y-103000000D01*
G75*
G02*
X136675000Y-102925000I75000J0D01*
G01*
X136825000Y-102925000D01*
G75*
G02*
X136900000Y-103000000I0J-75000D01*
G01*
G37*
%TD.AperFunction*%
%TO.P,U1,39*%
%TO.N,SWO*%
%TA.AperFunction,SMDPad,CuDef*%
G36*
G01*
X137400000Y-103000000D02*
X137400000Y-104325000D01*
G75*
G02*
X137325000Y-104400000I-75000J0D01*
G01*
X137175000Y-104400000D01*
G75*
G02*
X137100000Y-104325000I0J75000D01*
G01*
X137100000Y-103000000D01*
G75*
G02*
X137175000Y-102925000I75000J0D01*
G01*
X137325000Y-102925000D01*
G75*
G02*
X137400000Y-103000000I0J-75000D01*
G01*
G37*
%TD.AperFunction*%
%TO.P,U1,40*%
%TO.N,Net-(U1-Pad40)*%
%TA.AperFunction,SMDPad,CuDef*%
G36*
G01*
X137900000Y-103000000D02*
X137900000Y-104325000D01*
G75*
G02*
X137825000Y-104400000I-75000J0D01*
G01*
X137675000Y-104400000D01*
G75*
G02*
X137600000Y-104325000I0J75000D01*
G01*
X137600000Y-103000000D01*
G75*
G02*
X137675000Y-102925000I75000J0D01*
G01*
X137825000Y-102925000D01*
G75*
G02*
X137900000Y-103000000I0J-75000D01*
G01*
G37*
%TD.AperFunction*%
%TO.P,U1,41*%
%TO.N,Net-(U1-Pad41)*%
%TA.AperFunction,SMDPad,CuDef*%
G36*
G01*
X138400000Y-103000000D02*
X138400000Y-104325000D01*
G75*
G02*
X138325000Y-104400000I-75000J0D01*
G01*
X138175000Y-104400000D01*
G75*
G02*
X138100000Y-104325000I0J75000D01*
G01*
X138100000Y-103000000D01*
G75*
G02*
X138175000Y-102925000I75000J0D01*
G01*
X138325000Y-102925000D01*
G75*
G02*
X138400000Y-103000000I0J-75000D01*
G01*
G37*
%TD.AperFunction*%
%TO.P,U1,42*%
%TO.N,Net-(U1-Pad42)*%
%TA.AperFunction,SMDPad,CuDef*%
G36*
G01*
X138900000Y-103000000D02*
X138900000Y-104325000D01*
G75*
G02*
X138825000Y-104400000I-75000J0D01*
G01*
X138675000Y-104400000D01*
G75*
G02*
X138600000Y-104325000I0J75000D01*
G01*
X138600000Y-103000000D01*
G75*
G02*
X138675000Y-102925000I75000J0D01*
G01*
X138825000Y-102925000D01*
G75*
G02*
X138900000Y-103000000I0J-75000D01*
G01*
G37*
%TD.AperFunction*%
%TO.P,U1,43*%
%TO.N,Net-(U1-Pad43)*%
%TA.AperFunction,SMDPad,CuDef*%
G36*
G01*
X139400000Y-103000000D02*
X139400000Y-104325000D01*
G75*
G02*
X139325000Y-104400000I-75000J0D01*
G01*
X139175000Y-104400000D01*
G75*
G02*
X139100000Y-104325000I0J75000D01*
G01*
X139100000Y-103000000D01*
G75*
G02*
X139175000Y-102925000I75000J0D01*
G01*
X139325000Y-102925000D01*
G75*
G02*
X139400000Y-103000000I0J-75000D01*
G01*
G37*
%TD.AperFunction*%
%TO.P,U1,44*%
%TO.N,GND*%
%TA.AperFunction,SMDPad,CuDef*%
G36*
G01*
X139900000Y-103000000D02*
X139900000Y-104325000D01*
G75*
G02*
X139825000Y-104400000I-75000J0D01*
G01*
X139675000Y-104400000D01*
G75*
G02*
X139600000Y-104325000I0J75000D01*
G01*
X139600000Y-103000000D01*
G75*
G02*
X139675000Y-102925000I75000J0D01*
G01*
X139825000Y-102925000D01*
G75*
G02*
X139900000Y-103000000I0J-75000D01*
G01*
G37*
%TD.AperFunction*%
%TO.P,U1,45*%
%TO.N,I2C1_SCL*%
%TA.AperFunction,SMDPad,CuDef*%
G36*
G01*
X140400000Y-103000000D02*
X140400000Y-104325000D01*
G75*
G02*
X140325000Y-104400000I-75000J0D01*
G01*
X140175000Y-104400000D01*
G75*
G02*
X140100000Y-104325000I0J75000D01*
G01*
X140100000Y-103000000D01*
G75*
G02*
X140175000Y-102925000I75000J0D01*
G01*
X140325000Y-102925000D01*
G75*
G02*
X140400000Y-103000000I0J-75000D01*
G01*
G37*
%TD.AperFunction*%
%TO.P,U1,46*%
%TO.N,I2C1_SDA*%
%TA.AperFunction,SMDPad,CuDef*%
G36*
G01*
X140900000Y-103000000D02*
X140900000Y-104325000D01*
G75*
G02*
X140825000Y-104400000I-75000J0D01*
G01*
X140675000Y-104400000D01*
G75*
G02*
X140600000Y-104325000I0J75000D01*
G01*
X140600000Y-103000000D01*
G75*
G02*
X140675000Y-102925000I75000J0D01*
G01*
X140825000Y-102925000D01*
G75*
G02*
X140900000Y-103000000I0J-75000D01*
G01*
G37*
%TD.AperFunction*%
%TO.P,U1,47*%
%TO.N,GND*%
%TA.AperFunction,SMDPad,CuDef*%
G36*
G01*
X141400000Y-103000000D02*
X141400000Y-104325000D01*
G75*
G02*
X141325000Y-104400000I-75000J0D01*
G01*
X141175000Y-104400000D01*
G75*
G02*
X141100000Y-104325000I0J75000D01*
G01*
X141100000Y-103000000D01*
G75*
G02*
X141175000Y-102925000I75000J0D01*
G01*
X141325000Y-102925000D01*
G75*
G02*
X141400000Y-103000000I0J-75000D01*
G01*
G37*
%TD.AperFunction*%
%TO.P,U1,48*%
%TO.N,+3V3*%
%TA.AperFunction,SMDPad,CuDef*%
G36*
G01*
X141900000Y-103000000D02*
X141900000Y-104325000D01*
G75*
G02*
X141825000Y-104400000I-75000J0D01*
G01*
X141675000Y-104400000D01*
G75*
G02*
X141600000Y-104325000I0J75000D01*
G01*
X141600000Y-103000000D01*
G75*
G02*
X141675000Y-102925000I75000J0D01*
G01*
X141825000Y-102925000D01*
G75*
G02*
X141900000Y-103000000I0J-75000D01*
G01*
G37*
%TD.AperFunction*%
%TD*%
D19*
%TO.P,U2,1*%
%TO.N,+3V3*%
X138235000Y-108350000D03*
%TO.P,U2,2*%
%TO.N,I2C1_SCL*%
X138235000Y-108850000D03*
%TO.P,U2,3*%
%TO.N,GND*%
X138500000Y-109365000D03*
%TO.P,U2,4*%
%TO.N,I2C1_SDA*%
X139000000Y-109365000D03*
%TO.P,U2,5*%
%TO.N,GND*%
X139500000Y-109365000D03*
%TO.P,U2,6*%
%TO.N,+3V3*%
X139765000Y-108850000D03*
%TO.P,U2,7*%
%TO.N,Net-(U2-Pad7)*%
X139765000Y-108350000D03*
%TO.P,U2,8*%
%TO.N,GND*%
X139500000Y-107835000D03*
%TO.P,U2,9*%
X139000000Y-107835000D03*
%TO.P,U2,10*%
%TO.N,+3V3*%
X138500000Y-107835000D03*
%TD*%
D20*
%TO.P,U3,1*%
%TO.N,GND*%
X137692000Y-121080800D03*
%TO.P,U3,3*%
%TO.N,+3V3*%
X140692000Y-121080800D03*
%TA.AperFunction,SMDPad,CuDef*%
D21*
%TO.P,U3,2*%
%TO.N,VCC*%
G36*
X140058500Y-117130800D02*
G01*
X140058500Y-120255800D01*
X139642000Y-120255800D01*
X139642000Y-121730800D01*
X138742000Y-121730800D01*
X138742000Y-120255800D01*
X138325500Y-120255800D01*
X138325500Y-117130800D01*
X140058500Y-117130800D01*
G37*
%TD.AperFunction*%
%TD*%
%TO.P,U5,1*%
%TO.N,GND*%
%TA.AperFunction,SMDPad,CuDef*%
G36*
G01*
X147875000Y-87975000D02*
X147875000Y-87825000D01*
G75*
G02*
X147950000Y-87750000I75000J0D01*
G01*
X148650000Y-87750000D01*
G75*
G02*
X148725000Y-87825000I0J-75000D01*
G01*
X148725000Y-87975000D01*
G75*
G02*
X148650000Y-88050000I-75000J0D01*
G01*
X147950000Y-88050000D01*
G75*
G02*
X147875000Y-87975000I0J75000D01*
G01*
G37*
%TD.AperFunction*%
%TO.P,U5,2*%
%TO.N,N/C*%
%TA.AperFunction,SMDPad,CuDef*%
G36*
G01*
X147875000Y-88475000D02*
X147875000Y-88325000D01*
G75*
G02*
X147950000Y-88250000I75000J0D01*
G01*
X148650000Y-88250000D01*
G75*
G02*
X148725000Y-88325000I0J-75000D01*
G01*
X148725000Y-88475000D01*
G75*
G02*
X148650000Y-88550000I-75000J0D01*
G01*
X147950000Y-88550000D01*
G75*
G02*
X147875000Y-88475000I0J75000D01*
G01*
G37*
%TD.AperFunction*%
%TO.P,U5,3*%
%TA.AperFunction,SMDPad,CuDef*%
G36*
G01*
X147875000Y-88975000D02*
X147875000Y-88825000D01*
G75*
G02*
X147950000Y-88750000I75000J0D01*
G01*
X148650000Y-88750000D01*
G75*
G02*
X148725000Y-88825000I0J-75000D01*
G01*
X148725000Y-88975000D01*
G75*
G02*
X148650000Y-89050000I-75000J0D01*
G01*
X147950000Y-89050000D01*
G75*
G02*
X147875000Y-88975000I0J75000D01*
G01*
G37*
%TD.AperFunction*%
%TO.P,U5,4*%
%TA.AperFunction,SMDPad,CuDef*%
G36*
G01*
X147875000Y-89475000D02*
X147875000Y-89325000D01*
G75*
G02*
X147950000Y-89250000I75000J0D01*
G01*
X148650000Y-89250000D01*
G75*
G02*
X148725000Y-89325000I0J-75000D01*
G01*
X148725000Y-89475000D01*
G75*
G02*
X148650000Y-89550000I-75000J0D01*
G01*
X147950000Y-89550000D01*
G75*
G02*
X147875000Y-89475000I0J75000D01*
G01*
G37*
%TD.AperFunction*%
%TO.P,U5,5*%
%TA.AperFunction,SMDPad,CuDef*%
G36*
G01*
X147875000Y-89975000D02*
X147875000Y-89825000D01*
G75*
G02*
X147950000Y-89750000I75000J0D01*
G01*
X148650000Y-89750000D01*
G75*
G02*
X148725000Y-89825000I0J-75000D01*
G01*
X148725000Y-89975000D01*
G75*
G02*
X148650000Y-90050000I-75000J0D01*
G01*
X147950000Y-90050000D01*
G75*
G02*
X147875000Y-89975000I0J75000D01*
G01*
G37*
%TD.AperFunction*%
%TO.P,U5,6*%
%TO.N,Net-(U5-Pad6)*%
%TA.AperFunction,SMDPad,CuDef*%
G36*
G01*
X147875000Y-90475000D02*
X147875000Y-90325000D01*
G75*
G02*
X147950000Y-90250000I75000J0D01*
G01*
X148650000Y-90250000D01*
G75*
G02*
X148725000Y-90325000I0J-75000D01*
G01*
X148725000Y-90475000D01*
G75*
G02*
X148650000Y-90550000I-75000J0D01*
G01*
X147950000Y-90550000D01*
G75*
G02*
X147875000Y-90475000I0J75000D01*
G01*
G37*
%TD.AperFunction*%
%TO.P,U5,7*%
%TO.N,Net-(U5-Pad7)*%
%TA.AperFunction,SMDPad,CuDef*%
G36*
G01*
X149075000Y-91525000D02*
X148925000Y-91525000D01*
G75*
G02*
X148850000Y-91450000I0J75000D01*
G01*
X148850000Y-90750000D01*
G75*
G02*
X148925000Y-90675000I75000J0D01*
G01*
X149075000Y-90675000D01*
G75*
G02*
X149150000Y-90750000I0J-75000D01*
G01*
X149150000Y-91450000D01*
G75*
G02*
X149075000Y-91525000I-75000J0D01*
G01*
G37*
%TD.AperFunction*%
%TO.P,U5,8*%
%TO.N,+3V3*%
%TA.AperFunction,SMDPad,CuDef*%
G36*
G01*
X149575000Y-91525000D02*
X149425000Y-91525000D01*
G75*
G02*
X149350000Y-91450000I0J75000D01*
G01*
X149350000Y-90750000D01*
G75*
G02*
X149425000Y-90675000I75000J0D01*
G01*
X149575000Y-90675000D01*
G75*
G02*
X149650000Y-90750000I0J-75000D01*
G01*
X149650000Y-91450000D01*
G75*
G02*
X149575000Y-91525000I-75000J0D01*
G01*
G37*
%TD.AperFunction*%
%TO.P,U5,9*%
%TO.N,GND*%
%TA.AperFunction,SMDPad,CuDef*%
G36*
G01*
X150075000Y-91525000D02*
X149925000Y-91525000D01*
G75*
G02*
X149850000Y-91450000I0J75000D01*
G01*
X149850000Y-90750000D01*
G75*
G02*
X149925000Y-90675000I75000J0D01*
G01*
X150075000Y-90675000D01*
G75*
G02*
X150150000Y-90750000I0J-75000D01*
G01*
X150150000Y-91450000D01*
G75*
G02*
X150075000Y-91525000I-75000J0D01*
G01*
G37*
%TD.AperFunction*%
%TO.P,U5,10*%
%TO.N,Net-(C28-Pad1)*%
%TA.AperFunction,SMDPad,CuDef*%
G36*
G01*
X150575000Y-91525000D02*
X150425000Y-91525000D01*
G75*
G02*
X150350000Y-91450000I0J75000D01*
G01*
X150350000Y-90750000D01*
G75*
G02*
X150425000Y-90675000I75000J0D01*
G01*
X150575000Y-90675000D01*
G75*
G02*
X150650000Y-90750000I0J-75000D01*
G01*
X150650000Y-91450000D01*
G75*
G02*
X150575000Y-91525000I-75000J0D01*
G01*
G37*
%TD.AperFunction*%
%TO.P,U5,11*%
%TO.N,GND*%
%TA.AperFunction,SMDPad,CuDef*%
G36*
G01*
X151075000Y-91525000D02*
X150925000Y-91525000D01*
G75*
G02*
X150850000Y-91450000I0J75000D01*
G01*
X150850000Y-90750000D01*
G75*
G02*
X150925000Y-90675000I75000J0D01*
G01*
X151075000Y-90675000D01*
G75*
G02*
X151150000Y-90750000I0J-75000D01*
G01*
X151150000Y-91450000D01*
G75*
G02*
X151075000Y-91525000I-75000J0D01*
G01*
G37*
%TD.AperFunction*%
%TO.P,U5,12*%
%TO.N,Net-(U5-Pad12)*%
%TA.AperFunction,SMDPad,CuDef*%
G36*
G01*
X151575000Y-91525000D02*
X151425000Y-91525000D01*
G75*
G02*
X151350000Y-91450000I0J75000D01*
G01*
X151350000Y-90750000D01*
G75*
G02*
X151425000Y-90675000I75000J0D01*
G01*
X151575000Y-90675000D01*
G75*
G02*
X151650000Y-90750000I0J-75000D01*
G01*
X151650000Y-91450000D01*
G75*
G02*
X151575000Y-91525000I-75000J0D01*
G01*
G37*
%TD.AperFunction*%
%TO.P,U5,13*%
%TO.N,+3V3*%
%TA.AperFunction,SMDPad,CuDef*%
G36*
G01*
X151775000Y-90475000D02*
X151775000Y-90325000D01*
G75*
G02*
X151850000Y-90250000I75000J0D01*
G01*
X152550000Y-90250000D01*
G75*
G02*
X152625000Y-90325000I0J-75000D01*
G01*
X152625000Y-90475000D01*
G75*
G02*
X152550000Y-90550000I-75000J0D01*
G01*
X151850000Y-90550000D01*
G75*
G02*
X151775000Y-90475000I0J75000D01*
G01*
G37*
%TD.AperFunction*%
%TO.P,U5,14*%
%TO.N,N/C*%
%TA.AperFunction,SMDPad,CuDef*%
G36*
G01*
X151775000Y-89975000D02*
X151775000Y-89825000D01*
G75*
G02*
X151850000Y-89750000I75000J0D01*
G01*
X152550000Y-89750000D01*
G75*
G02*
X152625000Y-89825000I0J-75000D01*
G01*
X152625000Y-89975000D01*
G75*
G02*
X152550000Y-90050000I-75000J0D01*
G01*
X151850000Y-90050000D01*
G75*
G02*
X151775000Y-89975000I0J75000D01*
G01*
G37*
%TD.AperFunction*%
%TO.P,U5,15*%
%TA.AperFunction,SMDPad,CuDef*%
G36*
G01*
X151775000Y-89475000D02*
X151775000Y-89325000D01*
G75*
G02*
X151850000Y-89250000I75000J0D01*
G01*
X152550000Y-89250000D01*
G75*
G02*
X152625000Y-89325000I0J-75000D01*
G01*
X152625000Y-89475000D01*
G75*
G02*
X152550000Y-89550000I-75000J0D01*
G01*
X151850000Y-89550000D01*
G75*
G02*
X151775000Y-89475000I0J75000D01*
G01*
G37*
%TD.AperFunction*%
%TO.P,U5,16*%
%TA.AperFunction,SMDPad,CuDef*%
G36*
G01*
X151775000Y-88975000D02*
X151775000Y-88825000D01*
G75*
G02*
X151850000Y-88750000I75000J0D01*
G01*
X152550000Y-88750000D01*
G75*
G02*
X152625000Y-88825000I0J-75000D01*
G01*
X152625000Y-88975000D01*
G75*
G02*
X152550000Y-89050000I-75000J0D01*
G01*
X151850000Y-89050000D01*
G75*
G02*
X151775000Y-88975000I0J75000D01*
G01*
G37*
%TD.AperFunction*%
%TO.P,U5,17*%
%TA.AperFunction,SMDPad,CuDef*%
G36*
G01*
X151775000Y-88475000D02*
X151775000Y-88325000D01*
G75*
G02*
X151850000Y-88250000I75000J0D01*
G01*
X152550000Y-88250000D01*
G75*
G02*
X152625000Y-88325000I0J-75000D01*
G01*
X152625000Y-88475000D01*
G75*
G02*
X152550000Y-88550000I-75000J0D01*
G01*
X151850000Y-88550000D01*
G75*
G02*
X151775000Y-88475000I0J75000D01*
G01*
G37*
%TD.AperFunction*%
%TO.P,U5,18*%
%TO.N,GND*%
%TA.AperFunction,SMDPad,CuDef*%
G36*
G01*
X151775000Y-87975000D02*
X151775000Y-87825000D01*
G75*
G02*
X151850000Y-87750000I75000J0D01*
G01*
X152550000Y-87750000D01*
G75*
G02*
X152625000Y-87825000I0J-75000D01*
G01*
X152625000Y-87975000D01*
G75*
G02*
X152550000Y-88050000I-75000J0D01*
G01*
X151850000Y-88050000D01*
G75*
G02*
X151775000Y-87975000I0J75000D01*
G01*
G37*
%TD.AperFunction*%
%TO.P,U5,19*%
%TO.N,N/C*%
%TA.AperFunction,SMDPad,CuDef*%
G36*
G01*
X151575000Y-87625000D02*
X151425000Y-87625000D01*
G75*
G02*
X151350000Y-87550000I0J75000D01*
G01*
X151350000Y-86850000D01*
G75*
G02*
X151425000Y-86775000I75000J0D01*
G01*
X151575000Y-86775000D01*
G75*
G02*
X151650000Y-86850000I0J-75000D01*
G01*
X151650000Y-87550000D01*
G75*
G02*
X151575000Y-87625000I-75000J0D01*
G01*
G37*
%TD.AperFunction*%
%TO.P,U5,20*%
%TO.N,Net-(C27-Pad2)*%
%TA.AperFunction,SMDPad,CuDef*%
G36*
G01*
X151075000Y-87625000D02*
X150925000Y-87625000D01*
G75*
G02*
X150850000Y-87550000I0J75000D01*
G01*
X150850000Y-86850000D01*
G75*
G02*
X150925000Y-86775000I75000J0D01*
G01*
X151075000Y-86775000D01*
G75*
G02*
X151150000Y-86850000I0J-75000D01*
G01*
X151150000Y-87550000D01*
G75*
G02*
X151075000Y-87625000I-75000J0D01*
G01*
G37*
%TD.AperFunction*%
%TO.P,U5,21*%
%TO.N,N/C*%
%TA.AperFunction,SMDPad,CuDef*%
G36*
G01*
X150575000Y-87625000D02*
X150425000Y-87625000D01*
G75*
G02*
X150350000Y-87550000I0J75000D01*
G01*
X150350000Y-86850000D01*
G75*
G02*
X150425000Y-86775000I75000J0D01*
G01*
X150575000Y-86775000D01*
G75*
G02*
X150650000Y-86850000I0J-75000D01*
G01*
X150650000Y-87550000D01*
G75*
G02*
X150575000Y-87625000I-75000J0D01*
G01*
G37*
%TD.AperFunction*%
%TO.P,U5,22*%
%TA.AperFunction,SMDPad,CuDef*%
G36*
G01*
X150075000Y-87625000D02*
X149925000Y-87625000D01*
G75*
G02*
X149850000Y-87550000I0J75000D01*
G01*
X149850000Y-86850000D01*
G75*
G02*
X149925000Y-86775000I75000J0D01*
G01*
X150075000Y-86775000D01*
G75*
G02*
X150150000Y-86850000I0J-75000D01*
G01*
X150150000Y-87550000D01*
G75*
G02*
X150075000Y-87625000I-75000J0D01*
G01*
G37*
%TD.AperFunction*%
%TO.P,U5,23*%
%TO.N,I2C2_SCL*%
%TA.AperFunction,SMDPad,CuDef*%
G36*
G01*
X149575000Y-87625000D02*
X149425000Y-87625000D01*
G75*
G02*
X149350000Y-87550000I0J75000D01*
G01*
X149350000Y-86850000D01*
G75*
G02*
X149425000Y-86775000I75000J0D01*
G01*
X149575000Y-86775000D01*
G75*
G02*
X149650000Y-86850000I0J-75000D01*
G01*
X149650000Y-87550000D01*
G75*
G02*
X149575000Y-87625000I-75000J0D01*
G01*
G37*
%TD.AperFunction*%
%TO.P,U5,24*%
%TO.N,I2C2_SDA*%
%TA.AperFunction,SMDPad,CuDef*%
G36*
G01*
X149075000Y-87625000D02*
X148925000Y-87625000D01*
G75*
G02*
X148850000Y-87550000I0J75000D01*
G01*
X148850000Y-86850000D01*
G75*
G02*
X148925000Y-86775000I75000J0D01*
G01*
X149075000Y-86775000D01*
G75*
G02*
X149150000Y-86850000I0J-75000D01*
G01*
X149150000Y-87550000D01*
G75*
G02*
X149075000Y-87625000I-75000J0D01*
G01*
G37*
%TD.AperFunction*%
%TD*%
D22*
%TO.P,Y1,1*%
%TO.N,OSC32_IN*%
X148650000Y-103100000D03*
%TO.P,Y1,2*%
%TO.N,OSC32_OUT*%
X151150000Y-103100000D03*
%TD*%
D23*
%TO.P,Y2,1*%
%TO.N,OSC8_IN*%
X148150000Y-100100000D03*
%TO.P,Y2,2*%
%TO.N,GND*%
X151450000Y-100100000D03*
%TO.P,Y2,3*%
%TO.N,OSC8_OUT*%
X151450000Y-98100000D03*
%TO.P,Y2,4*%
%TO.N,GND*%
X148150000Y-98100000D03*
%TD*%
D24*
%TO.N,GND*%
X131400000Y-75700000D03*
X146300000Y-75800000D03*
X146800000Y-123300000D03*
X137000000Y-119200000D03*
X146528356Y-98076503D03*
X152950000Y-98100000D03*
X152950000Y-100100000D03*
X148700000Y-105150000D03*
X151100000Y-105150000D03*
X144800000Y-102650000D03*
X153650000Y-92700000D03*
X153800000Y-87350000D03*
X147100000Y-87900000D03*
X135875000Y-88400000D03*
X139775000Y-102250000D03*
X137168302Y-97294801D03*
X133295343Y-101743481D03*
X141160500Y-106616500D03*
X136969500Y-110680500D03*
X141681200Y-109880400D03*
X134152783Y-92556120D03*
X126441200Y-97282000D03*
X137109200Y-113182400D03*
X130571200Y-110012569D03*
X144881600Y-110134400D03*
X131470400Y-123190000D03*
X146862800Y-92710000D03*
X124800000Y-103200000D03*
X124600000Y-105800000D03*
%TO.N,+3V3*%
X141800000Y-120500000D03*
X149500000Y-93800000D03*
X153800000Y-91050000D03*
X134575000Y-88400000D03*
X136625000Y-102025000D03*
X141862980Y-102212855D03*
X136650000Y-98150000D03*
X135890000Y-108077000D03*
X137414000Y-106616500D03*
X141681200Y-108813600D03*
X126492000Y-89662000D03*
X129133600Y-111201200D03*
X150368000Y-110185200D03*
X136398000Y-82346800D03*
X124600000Y-100600000D03*
%TO.N,+3.3VA*%
X138379200Y-102108000D03*
X143713200Y-104038400D03*
%TO.N,OSC8_IN*%
X149300000Y-100574990D03*
%TO.N,OSC32_IN*%
X147700000Y-103100000D03*
%TO.N,OSC32_OUT*%
X152250000Y-103100000D03*
%TO.N,OSC8_OUT*%
X149458035Y-99069222D03*
%TO.N,VCC*%
X135895000Y-116205000D03*
%TO.N,Net-(C27-Pad2)*%
X152050000Y-85600000D03*
%TO.N,Net-(C28-Pad1)*%
X151000000Y-93800000D03*
%TO.N,Net-(D1-Pad1)*%
X126288800Y-109982000D03*
%TO.N,Net-(D2-Pad1)*%
X147050000Y-104250000D03*
%TO.N,Net-(D3-Pad1)*%
X132486400Y-95148400D03*
%TO.N,LED2*%
X138226800Y-96570800D03*
X134121483Y-95505687D03*
%TO.N,NRST*%
X145338800Y-99025000D03*
X132232400Y-105714800D03*
%TO.N,M1_PWM*%
X131191000Y-76835000D03*
X145948400Y-84836000D03*
X143052800Y-84836000D03*
%TO.N,M3_PWM*%
X129300000Y-122100000D03*
X144272000Y-95568600D03*
X152950001Y-95568600D03*
X152654000Y-115112800D03*
%TO.N,M2_PWM*%
X148700000Y-76800000D03*
%TO.N,M4_PWM*%
X146800000Y-122200000D03*
X143154400Y-94843600D03*
%TO.N,I2C1_SCL*%
X135737600Y-109372400D03*
%TO.N,I2C1_SDA*%
X139319000Y-105600500D03*
X139039600Y-110680501D03*
%TO.N,I2C2_SCL*%
X137750000Y-93450000D03*
X149500000Y-84000000D03*
%TO.N,I2C2_SDA*%
X136765727Y-93626664D03*
X148700000Y-83250000D03*
%TO.N,ADC_BATT*%
X141122400Y-96824800D03*
X143884909Y-103053251D03*
X144678400Y-107492800D03*
X143459200Y-109372400D03*
%TO.N,SPI1_CE*%
X142200000Y-93700000D03*
X137175000Y-91725000D03*
%TO.N,SPI1_SCK*%
X141112561Y-93646431D03*
X139135000Y-91875000D03*
%TD*%
D25*
%TO.N,GND*%
X130250000Y-75700000D02*
X131400000Y-75700000D01*
X147650000Y-75800000D02*
X147775000Y-75675000D01*
X146300000Y-75800000D02*
X147650000Y-75800000D01*
X146800000Y-123300000D02*
X147750000Y-123300000D01*
X137000000Y-120388800D02*
X137692000Y-121080800D01*
X137000000Y-119200000D02*
X137000000Y-120388800D01*
D26*
X146551853Y-98100000D02*
X146528356Y-98076503D01*
X148150000Y-98100000D02*
X146551853Y-98100000D01*
X151450000Y-100100000D02*
X152950000Y-100100000D01*
X150000000Y-91100000D02*
X150000000Y-90150000D01*
X150000000Y-90150000D02*
X151000000Y-90150000D01*
X151000000Y-90700000D02*
X151000000Y-91100000D01*
X151000000Y-90150000D02*
X151000000Y-90700000D01*
X151000000Y-91100000D02*
X151000000Y-92150000D01*
X151550000Y-92700000D02*
X153650000Y-92700000D01*
X151000000Y-92150000D02*
X151550000Y-92700000D01*
X153250000Y-87900000D02*
X153800000Y-87350000D01*
X152200000Y-87900000D02*
X153250000Y-87900000D01*
X148300000Y-87900000D02*
X147100000Y-87900000D01*
X135870000Y-88405000D02*
X135875000Y-88400000D01*
X135870000Y-90200000D02*
X135870000Y-88405000D01*
X139750000Y-102275000D02*
X139775000Y-102250000D01*
X139750000Y-103662500D02*
X139750000Y-102275000D01*
X141250000Y-103662500D02*
X141250000Y-103200000D01*
X141250000Y-103662500D02*
X141250000Y-102600000D01*
X140900000Y-102250000D02*
X139775000Y-102250000D01*
X141250000Y-102600000D02*
X140900000Y-102250000D01*
X136750000Y-96876499D02*
X137168302Y-97294801D01*
X136750000Y-95337500D02*
X136750000Y-96876499D01*
X133301862Y-101750000D02*
X133295343Y-101743481D01*
X134837500Y-101750000D02*
X133301862Y-101750000D01*
X139000000Y-107835000D02*
X139500000Y-107835000D01*
X141160500Y-106616500D02*
X139700000Y-106616500D01*
X139500000Y-106816500D02*
X139700000Y-106616500D01*
X139500000Y-107835000D02*
X139500000Y-106816500D01*
X136969500Y-110680500D02*
X136969500Y-109601000D01*
X137205500Y-109365000D02*
X138500000Y-109365000D01*
X136969500Y-109601000D02*
X137205500Y-109365000D01*
D27*
X141165800Y-109365000D02*
X141681200Y-109880400D01*
X139500000Y-109365000D02*
X141165800Y-109365000D01*
D26*
X126459200Y-97300000D02*
X126441200Y-97282000D01*
X128200000Y-97300000D02*
X126459200Y-97300000D01*
D28*
X138316200Y-113182400D02*
X137109200Y-113182400D01*
D27*
X146151600Y-110147400D02*
X147675600Y-110147400D01*
X144894600Y-110147400D02*
X144881600Y-110134400D01*
X146151600Y-110147400D02*
X144894600Y-110147400D01*
X131435600Y-123224800D02*
X131470400Y-123190000D01*
X130251200Y-123224800D02*
X131435600Y-123224800D01*
X145251295Y-98076503D02*
X146528356Y-98076503D01*
X144577798Y-98750000D02*
X145251295Y-98076503D01*
X143162500Y-98750000D02*
X144577798Y-98750000D01*
D26*
X126450000Y-101930000D02*
X126450000Y-103200000D01*
X126450000Y-103200000D02*
X124800000Y-103200000D01*
X124660000Y-105740000D02*
X124600000Y-105800000D01*
X126450000Y-105740000D02*
X124660000Y-105740000D01*
D25*
%TO.N,+3V3*%
X141219200Y-121080800D02*
X141800000Y-120500000D01*
X140692000Y-121080800D02*
X141219200Y-121080800D01*
D26*
X149500000Y-91100000D02*
X149500000Y-93800000D01*
X153150000Y-90400000D02*
X153800000Y-91050000D01*
X152200000Y-90400000D02*
X153150000Y-90400000D01*
X134600000Y-88425000D02*
X134575000Y-88400000D01*
X134600000Y-90200000D02*
X134600000Y-88425000D01*
X136400000Y-102250000D02*
X134837500Y-102250000D01*
X136625000Y-102025000D02*
X136400000Y-102250000D01*
X141750000Y-103662500D02*
X141750000Y-102425000D01*
X141925000Y-102250000D02*
X143162500Y-102250000D01*
X141750000Y-102425000D02*
X141925000Y-102250000D01*
X141750000Y-102325835D02*
X141862980Y-102212855D01*
X141750000Y-102425000D02*
X141750000Y-102325835D01*
X136250000Y-97750000D02*
X136250000Y-95337500D01*
X136650000Y-98150000D02*
X136250000Y-97750000D01*
X137977001Y-108077000D02*
X138235000Y-108334999D01*
X135890000Y-108077000D02*
X137977001Y-108077000D01*
X138219001Y-107835000D02*
X137977001Y-108077000D01*
X138500000Y-107835000D02*
X138219001Y-107835000D01*
X138500000Y-107835000D02*
X138500000Y-106813500D01*
X138303000Y-106616500D02*
X137414000Y-106616500D01*
X138500000Y-106813500D02*
X138303000Y-106616500D01*
D27*
X139765000Y-108850000D02*
X139714400Y-108850000D01*
X141644800Y-108850000D02*
X141681200Y-108813600D01*
X139714400Y-108850000D02*
X141644800Y-108850000D01*
D26*
X126510000Y-89680000D02*
X126492000Y-89662000D01*
X128200000Y-89680000D02*
X126510000Y-89680000D01*
D27*
X129133700Y-111201100D02*
X129133600Y-111201200D01*
X129133700Y-109982000D02*
X129133700Y-111201100D01*
X150342700Y-110159900D02*
X150368000Y-110185200D01*
X149199600Y-110159900D02*
X150342700Y-110159900D01*
D26*
X124660000Y-100660000D02*
X124600000Y-100600000D01*
X126450000Y-100660000D02*
X124660000Y-100660000D01*
D27*
%TO.N,+3.3VA*%
X143162500Y-98250000D02*
X138782800Y-98250000D01*
X138782800Y-98250000D02*
X138379200Y-98653600D01*
X138379200Y-98653600D02*
X138379200Y-102108000D01*
X143713200Y-104038400D02*
X143713200Y-108102400D01*
X144208200Y-108597400D02*
X146151600Y-108597400D01*
X143713200Y-108102400D02*
X144208200Y-108597400D01*
X146151600Y-108597400D02*
X147675600Y-108597400D01*
X149187100Y-108597400D02*
X149199600Y-108584900D01*
X147675600Y-108597400D02*
X149187100Y-108597400D01*
D26*
%TO.N,OSC8_IN*%
X148000000Y-100250000D02*
X148150000Y-100100000D01*
X143162500Y-100250000D02*
X148000000Y-100250000D01*
X148825010Y-100100000D02*
X149300000Y-100574990D01*
X148150000Y-100100000D02*
X148825010Y-100100000D01*
%TO.N,OSC32_IN*%
X143162500Y-101250000D02*
X145950000Y-101250000D01*
X145950000Y-101250000D02*
X146450000Y-101750000D01*
X148650000Y-103100000D02*
X148650000Y-102000000D01*
X148400000Y-101750000D02*
X146450000Y-101750000D01*
X148650000Y-102000000D02*
X148400000Y-101750000D01*
X148650000Y-103100000D02*
X147700000Y-103100000D01*
%TO.N,OSC32_OUT*%
X143162500Y-100750000D02*
X146193215Y-100750000D01*
X146743205Y-101299990D02*
X150499990Y-101299990D01*
X146193215Y-100750000D02*
X146743205Y-101299990D01*
X151150000Y-101950000D02*
X151150000Y-103100000D01*
X150499990Y-101299990D02*
X151150000Y-101950000D01*
X151150000Y-103100000D02*
X152250000Y-103100000D01*
%TO.N,OSC8_OUT*%
X151450000Y-98100000D02*
X151450000Y-98900000D01*
X151450000Y-98900000D02*
X151250000Y-99100000D01*
X143162500Y-99750000D02*
X146450000Y-99750000D01*
X147100000Y-99100000D02*
X151250000Y-99100000D01*
X146450000Y-99750000D02*
X147100000Y-99100000D01*
D25*
%TO.N,VCC*%
X123000000Y-80500000D02*
X126500000Y-80500000D01*
X123000000Y-80500000D02*
X123000000Y-116903000D01*
X122999500Y-118300500D02*
X122999500Y-116775500D01*
X155000000Y-80500000D02*
X155000000Y-118500000D01*
X151509000Y-118500000D02*
X151500000Y-118491000D01*
X155000000Y-118500000D02*
X151509000Y-118500000D01*
X126524000Y-118491000D02*
X122999500Y-118491000D01*
X126524000Y-118491000D02*
X126524000Y-116490500D01*
X126524000Y-116490500D02*
X126809500Y-116205000D01*
X151500000Y-116343000D02*
X151511000Y-116332000D01*
X151500000Y-118491000D02*
X151500000Y-116343000D01*
X151384000Y-116227000D02*
X151500000Y-116343000D01*
X151384000Y-116205000D02*
X151384000Y-116227000D01*
X151500000Y-80500000D02*
X155000000Y-80500000D01*
X134500000Y-116400000D02*
X134695000Y-116205000D01*
X134500000Y-118400000D02*
X134500000Y-116400000D01*
X126809500Y-116205000D02*
X134695000Y-116205000D01*
X139192000Y-116302000D02*
X139095000Y-116205000D01*
X139192000Y-120993300D02*
X139192000Y-116302000D01*
X139095000Y-116205000D02*
X151384000Y-116205000D01*
X134695000Y-116205000D02*
X135895000Y-116205000D01*
X138099800Y-114922800D02*
X138316200Y-114706400D01*
X138099800Y-116205000D02*
X138099800Y-114922800D01*
X135895000Y-116205000D02*
X138099800Y-116205000D01*
X138099800Y-116205000D02*
X139095000Y-116205000D01*
D26*
%TO.N,Net-(C27-Pad2)*%
X151000000Y-86650000D02*
X152050000Y-85600000D01*
X151000000Y-87200000D02*
X151000000Y-86650000D01*
%TO.N,Net-(C28-Pad1)*%
X150500000Y-93300000D02*
X150500000Y-91100000D01*
X151000000Y-93800000D02*
X150500000Y-93300000D01*
D27*
%TO.N,Net-(D1-Pad1)*%
X127558700Y-109982000D02*
X126288800Y-109982000D01*
D26*
%TO.N,LED1*%
X145948400Y-101948400D02*
X145948400Y-102641300D01*
X145750000Y-101750000D02*
X145948400Y-101948400D01*
X143162500Y-101750000D02*
X145750000Y-101750000D01*
%TO.N,Net-(D2-Pad1)*%
X145982100Y-104250000D02*
X145948400Y-104216300D01*
X147050000Y-104250000D02*
X145982100Y-104250000D01*
D27*
%TO.N,Net-(D3-Pad1)*%
X132486400Y-94056100D02*
X132511700Y-94030800D01*
X132486400Y-95148400D02*
X132486400Y-94056100D01*
%TO.N,LED2*%
X138250000Y-96547600D02*
X138226800Y-96570800D01*
X138250000Y-95337500D02*
X138250000Y-96547600D01*
X134086700Y-95470904D02*
X134121483Y-95505687D01*
X134086700Y-94030800D02*
X134086700Y-95470904D01*
D25*
%TO.N,Net-(D6-Pad2)*%
X129300000Y-77700000D02*
X127700000Y-77700000D01*
X127500000Y-77500000D02*
X127500000Y-76000000D01*
X127700000Y-77700000D02*
X127500000Y-77500000D01*
X129300000Y-79300000D02*
X130500000Y-80500000D01*
X129300000Y-77700000D02*
X129300000Y-79300000D01*
%TO.N,Net-(D7-Pad2)*%
X131201200Y-119168200D02*
X130524000Y-118491000D01*
X131201200Y-120025200D02*
X131201200Y-119168200D01*
X128231322Y-120025200D02*
X131201200Y-120025200D01*
X131201200Y-121224800D02*
X131201200Y-120025200D01*
X127508000Y-120748522D02*
X128231322Y-120025200D01*
X127508000Y-122936000D02*
X127508000Y-120748522D01*
X127406400Y-122936000D02*
X127508000Y-122936000D01*
%TO.N,Net-(D8-Pad2)*%
X146825000Y-79825000D02*
X147500000Y-80500000D01*
X146825000Y-79075000D02*
X146825000Y-79825000D01*
X146825000Y-77675000D02*
X146825000Y-79075000D01*
X149725000Y-79075000D02*
X149800000Y-79000000D01*
X146825000Y-79075000D02*
X149725000Y-79075000D01*
X150550000Y-78250000D02*
X149725000Y-79075000D01*
X150550000Y-75975000D02*
X150550000Y-78250000D01*
%TO.N,Net-(D9-Pad2)*%
X148700000Y-118728000D02*
X148463000Y-118491000D01*
X148700000Y-121300000D02*
X148700000Y-118728000D01*
X147500000Y-118491000D02*
X148463000Y-118491000D01*
X150500000Y-121544000D02*
X150500000Y-123000000D01*
X150256000Y-121300000D02*
X150500000Y-121544000D01*
X148700000Y-121300000D02*
X150256000Y-121300000D01*
D26*
%TO.N,SWDIO*%
X133899854Y-101274990D02*
X133208864Y-100584000D01*
X134825010Y-101274990D02*
X133899854Y-101274990D01*
X134837500Y-101262500D02*
X134825010Y-101274990D01*
X134837500Y-101250000D02*
X134837500Y-101262500D01*
X130368000Y-100600000D02*
X130384000Y-100584000D01*
X130384000Y-100584000D02*
X130220000Y-100584000D01*
X133132864Y-100660000D02*
X133208864Y-100584000D01*
X130350000Y-100660000D02*
X133132864Y-100660000D01*
%TO.N,SWCLK*%
X132154000Y-101854000D02*
X133150000Y-102850000D01*
X135437500Y-102850000D02*
X136250000Y-103662500D01*
X133150000Y-102850000D02*
X135437500Y-102850000D01*
X130220000Y-101854000D02*
X130346000Y-101854000D01*
X132078000Y-101930000D02*
X132154000Y-101854000D01*
X130350000Y-101930000D02*
X132078000Y-101930000D01*
%TO.N,SWO*%
X137250000Y-103662500D02*
X137250000Y-104900000D01*
X134563590Y-104900000D02*
X137250000Y-104900000D01*
X132787590Y-103124000D02*
X134563590Y-104900000D01*
X130220000Y-103124000D02*
X130524000Y-103124000D01*
X132711590Y-103200000D02*
X132787590Y-103124000D01*
X130350000Y-103200000D02*
X132711590Y-103200000D01*
D27*
%TO.N,NRST*%
X143162500Y-99250000D02*
X145020800Y-99250000D01*
X145020800Y-99250000D02*
X145245800Y-99025000D01*
X145338800Y-99025000D02*
X145245800Y-99025000D01*
X132181600Y-105664000D02*
X132232400Y-105714800D01*
D26*
X132207200Y-105740000D02*
X132232400Y-105714800D01*
X130350000Y-105740000D02*
X132207200Y-105740000D01*
%TO.N,UART1_RX*%
X134837500Y-99750000D02*
X130575000Y-99750000D01*
X130575000Y-99750000D02*
X130050000Y-99225000D01*
X128200000Y-94760000D02*
X129835000Y-94760000D01*
X130050000Y-94975000D02*
X130050000Y-99225000D01*
X129835000Y-94760000D02*
X130050000Y-94975000D01*
%TO.N,UART1_TX*%
X134837500Y-99250000D02*
X131050000Y-99250000D01*
X131050000Y-99250000D02*
X130525000Y-98725000D01*
X130525000Y-98725000D02*
X130525000Y-92525000D01*
X130220000Y-92220000D02*
X128200000Y-92220000D01*
X130525000Y-92525000D02*
X130220000Y-92220000D01*
D25*
%TO.N,+BATT*%
X144000000Y-121700000D02*
X144000000Y-121800000D01*
X144000000Y-121800000D02*
X142400000Y-123400000D01*
X135500000Y-123400000D02*
X134500000Y-122400000D01*
X142400000Y-123400000D02*
X135500000Y-123400000D01*
D28*
%TO.N,M1_PWM*%
X131200000Y-76844000D02*
X131191000Y-76835000D01*
X131200000Y-77700000D02*
X131200000Y-76844000D01*
D26*
X144796010Y-97750000D02*
X145948400Y-96597610D01*
X143162500Y-97750000D02*
X144796010Y-97750000D01*
X145948400Y-96597610D02*
X145948400Y-84836000D01*
X143052800Y-84836000D02*
X143052800Y-80162400D01*
X140590400Y-77700000D02*
X131200000Y-77700000D01*
X143052800Y-80162400D02*
X140590400Y-77700000D01*
D28*
%TO.N,M3_PWM*%
X129301200Y-122098800D02*
X129300000Y-122100000D01*
X129301200Y-121224800D02*
X129301200Y-122098800D01*
D26*
X143162500Y-96750000D02*
X143162500Y-96308700D01*
X143902600Y-95568600D02*
X144272000Y-95568600D01*
X143162500Y-96308700D02*
X143902600Y-95568600D01*
X152950001Y-95568600D02*
X153633000Y-95568600D01*
X153675001Y-97751999D02*
X153675001Y-114701399D01*
X153416000Y-97492998D02*
X153675001Y-97751999D01*
X153416000Y-95785600D02*
X153416000Y-97492998D01*
X153633000Y-95568600D02*
X153416000Y-95785600D01*
X153675001Y-114701399D02*
X153365200Y-115011200D01*
X152755600Y-115011200D02*
X152654000Y-115112800D01*
X153365200Y-115011200D02*
X152755600Y-115011200D01*
D28*
%TO.N,M2_PWM*%
X148725000Y-76825000D02*
X148700000Y-76800000D01*
X148725000Y-77675000D02*
X148725000Y-76825000D01*
D26*
X143162500Y-97250000D02*
X144659600Y-97250000D01*
X144997001Y-96912599D02*
X144997001Y-77456199D01*
X144659600Y-97250000D02*
X144997001Y-96912599D01*
X145653200Y-76800000D02*
X148700000Y-76800000D01*
X144997001Y-77456199D02*
X145653200Y-76800000D01*
D28*
%TO.N,M4_PWM*%
X146800000Y-121300000D02*
X146800000Y-122200000D01*
D26*
X142243900Y-94843600D02*
X141750000Y-95337500D01*
X143154400Y-94843600D02*
X142243900Y-94843600D01*
%TO.N,I2C1_SCL*%
X140250000Y-103662500D02*
X140250000Y-104542500D01*
D27*
X138235000Y-108850000D02*
X135904400Y-108850000D01*
X135737600Y-109016800D02*
X135737600Y-109372400D01*
X135904400Y-108850000D02*
X135737600Y-109016800D01*
X140250000Y-104542500D02*
X139892001Y-104900499D01*
X139892001Y-104900499D02*
X138482301Y-104900499D01*
X138482301Y-104900499D02*
X138057790Y-105325010D01*
X135670190Y-105325010D02*
X137905390Y-105325010D01*
X134874000Y-106121200D02*
X135670190Y-105325010D01*
X134874000Y-108508800D02*
X134874000Y-106121200D01*
X135737600Y-109372400D02*
X134874000Y-108508800D01*
X137905390Y-105325010D02*
X137702190Y-105325010D01*
X138057790Y-105325010D02*
X137905390Y-105325010D01*
%TO.N,I2C1_SDA*%
X139000000Y-110488500D02*
X139001500Y-110490000D01*
X139000000Y-109365000D02*
X139000000Y-110488500D01*
D26*
X139319000Y-105600500D02*
X140525500Y-105600500D01*
X140750000Y-105376000D02*
X140525500Y-105600500D01*
X140750000Y-103662500D02*
X140750000Y-105376000D01*
X139000000Y-110640901D02*
X139039600Y-110680501D01*
X139000000Y-110488500D02*
X139000000Y-110640901D01*
%TO.N,I2C2_SCL*%
X137750000Y-95337500D02*
X137750000Y-93450000D01*
X149500000Y-84000000D02*
X149500000Y-87200000D01*
%TO.N,I2C2_SDA*%
X137250000Y-94110937D02*
X136765727Y-93626664D01*
X137250000Y-95337500D02*
X137250000Y-94110937D01*
X148700000Y-86900000D02*
X148700000Y-83250000D01*
X149000000Y-87200000D02*
X148700000Y-86900000D01*
D28*
%TO.N,ADC_BATT*%
X139966200Y-113182400D02*
X139966200Y-114706400D01*
D27*
X138750000Y-96105346D02*
X139469454Y-96824800D01*
X139469454Y-96824800D02*
X141122400Y-96824800D01*
X138750000Y-95337500D02*
X138750000Y-96105346D01*
X144678400Y-103846742D02*
X144678400Y-107492800D01*
X143884909Y-103053251D02*
X144678400Y-103846742D01*
X143459200Y-109372400D02*
X142748000Y-110083600D01*
X142748000Y-110400600D02*
X139966200Y-113182400D01*
X142748000Y-110083600D02*
X142748000Y-110400600D01*
D26*
%TO.N,SPI1_CE*%
X142084298Y-93700000D02*
X142200000Y-93700000D01*
X141250000Y-94534298D02*
X142084298Y-93700000D01*
X141250000Y-95337500D02*
X141250000Y-94534298D01*
X137140000Y-91690000D02*
X137175000Y-91725000D01*
X137140000Y-90200000D02*
X137140000Y-91690000D01*
%TO.N,SPI1_SCK*%
X140750000Y-94008992D02*
X141112561Y-93646431D01*
X140750000Y-95337500D02*
X140750000Y-94008992D01*
X139680000Y-91330000D02*
X139135000Y-91875000D01*
X139680000Y-90200000D02*
X139680000Y-91330000D01*
%TO.N,SPI1_MISO*%
X142220000Y-91015002D02*
X142220000Y-90200000D01*
X140250000Y-92985002D02*
X142220000Y-91015002D01*
X140250000Y-95337500D02*
X140250000Y-92985002D01*
%TO.N,SPI1_MOSI*%
X140950000Y-91648592D02*
X140950000Y-90200000D01*
X139750000Y-92848592D02*
X140950000Y-91648592D01*
X139750000Y-95337500D02*
X139750000Y-92848592D01*
%TO.N,SPI1_CSN*%
X138410000Y-90200000D02*
X138410000Y-92785000D01*
X139250000Y-93625000D02*
X139250000Y-95337500D01*
X138410000Y-92785000D02*
X139250000Y-93625000D01*
%TD*%
M02*
