G04 EAGLE Gerber RS-274X export*
G75*
%MOMM*%
%FSLAX34Y34*%
%LPD*%
%INBottom Copper*%
%IPPOS*%
%AMOC8*
5,1,8,0,0,1.08239X$1,22.5*%
G01*
%ADD10R,2.540000X1.270000*%
%ADD11R,1.270000X2.540000*%
%ADD12C,0.460000*%
%ADD13C,1.879600*%
%ADD14C,0.377400*%
%ADD15C,0.756400*%
%ADD16C,0.508000*%
%ADD17C,0.254000*%

G36*
X142571Y10176D02*
X142571Y10176D01*
X142696Y10186D01*
X142728Y10196D01*
X142761Y10201D01*
X142878Y10247D01*
X142998Y10287D01*
X143026Y10305D01*
X143057Y10318D01*
X143159Y10391D01*
X143264Y10460D01*
X143287Y10485D01*
X143314Y10504D01*
X143395Y10601D01*
X143480Y10694D01*
X143496Y10723D01*
X143517Y10749D01*
X143571Y10863D01*
X143630Y10974D01*
X143638Y11007D01*
X143653Y11037D01*
X143676Y11161D01*
X143707Y11283D01*
X143706Y11316D01*
X143713Y11349D01*
X143705Y11475D01*
X143704Y11601D01*
X143694Y11649D01*
X143693Y11667D01*
X143686Y11687D01*
X143672Y11759D01*
X143509Y12366D01*
X143509Y22861D01*
X151130Y22861D01*
X151248Y22876D01*
X151367Y22883D01*
X151405Y22896D01*
X151445Y22901D01*
X151556Y22944D01*
X151669Y22981D01*
X151704Y23003D01*
X151741Y23018D01*
X151837Y23088D01*
X151938Y23151D01*
X151966Y23181D01*
X151998Y23205D01*
X152074Y23296D01*
X152156Y23383D01*
X152175Y23418D01*
X152201Y23449D01*
X152252Y23557D01*
X152309Y23661D01*
X152320Y23701D01*
X152337Y23737D01*
X152359Y23854D01*
X152389Y23969D01*
X152393Y24030D01*
X152397Y24050D01*
X152395Y24070D01*
X152399Y24130D01*
X152399Y25401D01*
X152401Y25401D01*
X152401Y24130D01*
X152416Y24012D01*
X152423Y23893D01*
X152436Y23855D01*
X152441Y23815D01*
X152485Y23704D01*
X152521Y23591D01*
X152543Y23556D01*
X152558Y23519D01*
X152628Y23423D01*
X152691Y23322D01*
X152721Y23294D01*
X152745Y23261D01*
X152836Y23186D01*
X152923Y23104D01*
X152958Y23084D01*
X152990Y23059D01*
X153097Y23008D01*
X153201Y22950D01*
X153241Y22940D01*
X153277Y22923D01*
X153394Y22901D01*
X153509Y22871D01*
X153570Y22867D01*
X153590Y22863D01*
X153610Y22865D01*
X153670Y22861D01*
X161291Y22861D01*
X161291Y12366D01*
X161128Y11759D01*
X161111Y11634D01*
X161087Y11510D01*
X161089Y11477D01*
X161085Y11443D01*
X161099Y11318D01*
X161107Y11193D01*
X161118Y11161D01*
X161121Y11128D01*
X161166Y11010D01*
X161205Y10891D01*
X161223Y10862D01*
X161235Y10831D01*
X161308Y10728D01*
X161375Y10622D01*
X161400Y10599D01*
X161419Y10571D01*
X161515Y10490D01*
X161607Y10404D01*
X161636Y10388D01*
X161662Y10366D01*
X161775Y10311D01*
X161885Y10250D01*
X161918Y10242D01*
X161948Y10227D01*
X162072Y10202D01*
X162193Y10171D01*
X162242Y10168D01*
X162260Y10164D01*
X162282Y10165D01*
X162354Y10161D01*
X219569Y10161D01*
X219707Y10178D01*
X219845Y10191D01*
X219864Y10198D01*
X219884Y10201D01*
X220014Y10252D01*
X220145Y10299D01*
X220161Y10310D01*
X220180Y10318D01*
X220292Y10399D01*
X220408Y10477D01*
X220421Y10493D01*
X220437Y10504D01*
X220526Y10612D01*
X220618Y10716D01*
X220627Y10734D01*
X220640Y10749D01*
X220699Y10875D01*
X220763Y10999D01*
X220767Y11019D01*
X220776Y11037D01*
X220802Y11173D01*
X220832Y11310D01*
X220832Y11330D01*
X220835Y11349D01*
X220827Y11488D01*
X220823Y11627D01*
X220817Y11647D01*
X220816Y11667D01*
X220773Y11799D01*
X220734Y11933D01*
X220725Y11948D01*
X220725Y38732D01*
X221618Y39625D01*
X235582Y39625D01*
X236475Y38732D01*
X236475Y30734D01*
X236490Y30616D01*
X236497Y30497D01*
X236510Y30459D01*
X236515Y30418D01*
X236558Y30308D01*
X236595Y30195D01*
X236617Y30160D01*
X236632Y30123D01*
X236701Y30027D01*
X236765Y29926D01*
X236795Y29898D01*
X236818Y29865D01*
X236910Y29789D01*
X236997Y29708D01*
X237032Y29688D01*
X237063Y29663D01*
X237171Y29612D01*
X237275Y29554D01*
X237315Y29544D01*
X237351Y29527D01*
X237468Y29505D01*
X237583Y29475D01*
X237643Y29471D01*
X237663Y29467D01*
X237684Y29469D01*
X237744Y29465D01*
X243013Y29465D01*
X243042Y29468D01*
X243072Y29466D01*
X243200Y29488D01*
X243328Y29505D01*
X243356Y29515D01*
X243385Y29520D01*
X243504Y29574D01*
X243624Y29622D01*
X243648Y29639D01*
X243675Y29651D01*
X243776Y29732D01*
X243881Y29808D01*
X243900Y29831D01*
X243923Y29850D01*
X244001Y29953D01*
X244084Y30053D01*
X244097Y30080D01*
X244115Y30104D01*
X244186Y30248D01*
X244740Y31587D01*
X247813Y34660D01*
X251827Y36323D01*
X256173Y36323D01*
X260187Y34660D01*
X263260Y31587D01*
X264923Y27573D01*
X264923Y23227D01*
X263260Y19213D01*
X260187Y16140D01*
X256173Y14477D01*
X251827Y14477D01*
X247813Y16140D01*
X244740Y19213D01*
X244186Y20552D01*
X244171Y20577D01*
X244162Y20605D01*
X244092Y20715D01*
X244028Y20828D01*
X244007Y20849D01*
X243992Y20874D01*
X243897Y20963D01*
X243807Y21056D01*
X243782Y21072D01*
X243760Y21092D01*
X243646Y21155D01*
X243536Y21223D01*
X243507Y21231D01*
X243482Y21246D01*
X243356Y21278D01*
X243232Y21316D01*
X243202Y21318D01*
X243174Y21325D01*
X243013Y21335D01*
X237744Y21335D01*
X237626Y21320D01*
X237507Y21313D01*
X237469Y21300D01*
X237428Y21295D01*
X237318Y21252D01*
X237205Y21215D01*
X237170Y21193D01*
X237133Y21178D01*
X237037Y21109D01*
X236936Y21045D01*
X236908Y21015D01*
X236875Y20992D01*
X236799Y20900D01*
X236718Y20813D01*
X236698Y20778D01*
X236673Y20747D01*
X236622Y20639D01*
X236564Y20535D01*
X236554Y20495D01*
X236537Y20459D01*
X236515Y20342D01*
X236485Y20227D01*
X236481Y20167D01*
X236477Y20147D01*
X236479Y20126D01*
X236475Y20066D01*
X236475Y11930D01*
X236424Y11823D01*
X236421Y11803D01*
X236413Y11785D01*
X236391Y11647D01*
X236365Y11510D01*
X236366Y11490D01*
X236363Y11470D01*
X236376Y11332D01*
X236384Y11193D01*
X236391Y11174D01*
X236392Y11154D01*
X236440Y11023D01*
X236482Y10891D01*
X236493Y10873D01*
X236500Y10855D01*
X236578Y10740D01*
X236653Y10622D01*
X236667Y10608D01*
X236679Y10591D01*
X236783Y10499D01*
X236884Y10404D01*
X236902Y10394D01*
X236917Y10381D01*
X237041Y10317D01*
X237163Y10250D01*
X237182Y10245D01*
X237200Y10236D01*
X237336Y10206D01*
X237471Y10171D01*
X237498Y10169D01*
X237510Y10166D01*
X237531Y10167D01*
X237631Y10161D01*
X355600Y10161D01*
X355621Y10163D01*
X355683Y10163D01*
X357506Y10283D01*
X357550Y10291D01*
X357594Y10292D01*
X357752Y10323D01*
X361275Y11267D01*
X361354Y11300D01*
X361436Y11323D01*
X361559Y11383D01*
X361569Y11388D01*
X361573Y11390D01*
X361581Y11394D01*
X364739Y13218D01*
X364807Y13269D01*
X364881Y13313D01*
X364984Y13403D01*
X364992Y13410D01*
X364995Y13413D01*
X365002Y13419D01*
X367581Y15998D01*
X367633Y16066D01*
X367693Y16127D01*
X367769Y16241D01*
X367776Y16249D01*
X367777Y16254D01*
X367782Y16261D01*
X369606Y19419D01*
X369639Y19498D01*
X369681Y19573D01*
X369725Y19702D01*
X369729Y19712D01*
X369730Y19717D01*
X369733Y19725D01*
X370677Y23248D01*
X370683Y23292D01*
X370696Y23334D01*
X370717Y23494D01*
X370837Y25317D01*
X370835Y25338D01*
X370839Y25400D01*
X370839Y79147D01*
X370823Y79278D01*
X370812Y79410D01*
X370803Y79436D01*
X370799Y79462D01*
X370751Y79585D01*
X370707Y79711D01*
X370692Y79733D01*
X370682Y79758D01*
X370605Y79865D01*
X370531Y79976D01*
X370511Y79994D01*
X370496Y80015D01*
X370393Y80100D01*
X370295Y80189D01*
X370271Y80201D01*
X370251Y80218D01*
X370131Y80275D01*
X370014Y80336D01*
X369987Y80342D01*
X369963Y80354D01*
X369833Y80379D01*
X369704Y80409D01*
X369677Y80409D01*
X369651Y80414D01*
X369519Y80405D01*
X369386Y80403D01*
X369360Y80396D01*
X369333Y80394D01*
X369207Y80353D01*
X369080Y80318D01*
X369045Y80301D01*
X369031Y80296D01*
X369012Y80284D01*
X368935Y80246D01*
X365312Y78154D01*
X358912Y76439D01*
X352288Y76439D01*
X345888Y78154D01*
X340151Y81466D01*
X335466Y86151D01*
X332154Y91888D01*
X330439Y98288D01*
X330439Y104912D01*
X332154Y111312D01*
X335466Y117049D01*
X340151Y121734D01*
X345888Y125046D01*
X352288Y126761D01*
X358912Y126761D01*
X365312Y125046D01*
X368935Y122954D01*
X369058Y122903D01*
X369177Y122846D01*
X369204Y122841D01*
X369229Y122831D01*
X369360Y122811D01*
X369490Y122786D01*
X369516Y122788D01*
X369543Y122784D01*
X369675Y122798D01*
X369807Y122806D01*
X369833Y122814D01*
X369859Y122817D01*
X369984Y122863D01*
X370109Y122904D01*
X370132Y122919D01*
X370158Y122928D01*
X370266Y123003D01*
X370378Y123074D01*
X370397Y123094D01*
X370419Y123109D01*
X370505Y123209D01*
X370596Y123306D01*
X370609Y123330D01*
X370627Y123350D01*
X370686Y123469D01*
X370750Y123584D01*
X370756Y123611D01*
X370768Y123635D01*
X370796Y123765D01*
X370829Y123892D01*
X370831Y123931D01*
X370835Y123946D01*
X370834Y123968D01*
X370839Y124053D01*
X370839Y460147D01*
X370823Y460278D01*
X370812Y460410D01*
X370803Y460436D01*
X370799Y460462D01*
X370751Y460585D01*
X370707Y460711D01*
X370692Y460733D01*
X370682Y460758D01*
X370605Y460865D01*
X370531Y460976D01*
X370511Y460994D01*
X370496Y461015D01*
X370393Y461100D01*
X370295Y461189D01*
X370271Y461201D01*
X370251Y461218D01*
X370131Y461275D01*
X370014Y461336D01*
X369987Y461342D01*
X369963Y461354D01*
X369833Y461379D01*
X369704Y461409D01*
X369677Y461409D01*
X369651Y461414D01*
X369519Y461405D01*
X369386Y461403D01*
X369360Y461396D01*
X369333Y461394D01*
X369207Y461353D01*
X369080Y461318D01*
X369045Y461301D01*
X369031Y461296D01*
X369012Y461284D01*
X368935Y461246D01*
X365312Y459154D01*
X358912Y457439D01*
X352288Y457439D01*
X345888Y459154D01*
X340151Y462466D01*
X335466Y467151D01*
X332154Y472888D01*
X330439Y479288D01*
X330439Y485912D01*
X332154Y492312D01*
X335466Y498049D01*
X340151Y502734D01*
X345888Y506046D01*
X348605Y506774D01*
X348746Y506832D01*
X348888Y506888D01*
X348893Y506892D01*
X348899Y506894D01*
X349022Y506985D01*
X349145Y507074D01*
X349149Y507080D01*
X349155Y507084D01*
X349250Y507202D01*
X349348Y507319D01*
X349351Y507326D01*
X349355Y507331D01*
X349418Y507469D01*
X349483Y507607D01*
X349485Y507614D01*
X349488Y507620D01*
X349515Y507770D01*
X349543Y507920D01*
X349543Y507926D01*
X349544Y507933D01*
X349533Y508086D01*
X349523Y508237D01*
X349521Y508243D01*
X349521Y508250D01*
X349472Y508395D01*
X349425Y508539D01*
X349422Y508545D01*
X349420Y508552D01*
X349337Y508679D01*
X349255Y508808D01*
X349250Y508813D01*
X349247Y508818D01*
X349134Y508922D01*
X349024Y509026D01*
X349018Y509029D01*
X349013Y509034D01*
X348878Y509107D01*
X348745Y509180D01*
X348739Y509181D01*
X348733Y509184D01*
X348584Y509221D01*
X348437Y509259D01*
X348428Y509260D01*
X348424Y509261D01*
X348413Y509261D01*
X348277Y509269D01*
X32723Y509269D01*
X32573Y509250D01*
X32421Y509233D01*
X32415Y509230D01*
X32408Y509229D01*
X32267Y509174D01*
X32124Y509119D01*
X32119Y509115D01*
X32112Y509112D01*
X31989Y509023D01*
X31865Y508935D01*
X31860Y508930D01*
X31855Y508926D01*
X31757Y508808D01*
X31659Y508692D01*
X31656Y508686D01*
X31652Y508681D01*
X31587Y508543D01*
X31521Y508406D01*
X31519Y508399D01*
X31517Y508393D01*
X31488Y508244D01*
X31458Y508094D01*
X31458Y508087D01*
X31457Y508081D01*
X31466Y507929D01*
X31474Y507776D01*
X31476Y507770D01*
X31477Y507763D01*
X31523Y507619D01*
X31569Y507473D01*
X31573Y507467D01*
X31575Y507461D01*
X31655Y507333D01*
X31736Y507202D01*
X31741Y507198D01*
X31745Y507192D01*
X31856Y507087D01*
X31966Y506982D01*
X31971Y506979D01*
X31976Y506974D01*
X32110Y506901D01*
X32242Y506825D01*
X32251Y506823D01*
X32255Y506820D01*
X32265Y506818D01*
X32395Y506774D01*
X35112Y506046D01*
X40849Y502734D01*
X45534Y498049D01*
X48846Y492312D01*
X50561Y485912D01*
X50561Y479288D01*
X48846Y472888D01*
X45534Y467151D01*
X40849Y462466D01*
X35112Y459154D01*
X28712Y457439D01*
X22088Y457439D01*
X15688Y459154D01*
X12065Y461246D01*
X11942Y461297D01*
X11823Y461354D01*
X11796Y461359D01*
X11771Y461369D01*
X11640Y461389D01*
X11510Y461414D01*
X11484Y461412D01*
X11457Y461416D01*
X11325Y461402D01*
X11193Y461394D01*
X11167Y461386D01*
X11141Y461383D01*
X11016Y461337D01*
X10891Y461296D01*
X10868Y461281D01*
X10842Y461272D01*
X10734Y461197D01*
X10622Y461126D01*
X10603Y461106D01*
X10581Y461091D01*
X10495Y460991D01*
X10404Y460894D01*
X10391Y460870D01*
X10373Y460850D01*
X10314Y460731D01*
X10250Y460616D01*
X10244Y460589D01*
X10232Y460565D01*
X10204Y460435D01*
X10171Y460308D01*
X10169Y460269D01*
X10165Y460254D01*
X10166Y460232D01*
X10161Y460147D01*
X10161Y124053D01*
X10177Y123922D01*
X10188Y123790D01*
X10197Y123764D01*
X10201Y123738D01*
X10249Y123615D01*
X10293Y123489D01*
X10308Y123467D01*
X10318Y123442D01*
X10395Y123335D01*
X10469Y123224D01*
X10489Y123206D01*
X10504Y123185D01*
X10607Y123100D01*
X10705Y123011D01*
X10729Y122999D01*
X10749Y122982D01*
X10869Y122925D01*
X10986Y122864D01*
X11013Y122858D01*
X11037Y122846D01*
X11167Y122821D01*
X11296Y122791D01*
X11323Y122791D01*
X11349Y122786D01*
X11481Y122795D01*
X11614Y122797D01*
X11640Y122804D01*
X11667Y122806D01*
X11793Y122847D01*
X11920Y122882D01*
X11955Y122899D01*
X11969Y122904D01*
X11988Y122916D01*
X12065Y122954D01*
X15688Y125046D01*
X22088Y126761D01*
X28712Y126761D01*
X35112Y125046D01*
X40849Y121734D01*
X45534Y117049D01*
X48846Y111312D01*
X50561Y104912D01*
X50561Y98288D01*
X48846Y91888D01*
X45534Y86151D01*
X40849Y81466D01*
X35112Y78154D01*
X28712Y76439D01*
X22088Y76439D01*
X15688Y78154D01*
X12065Y80246D01*
X11942Y80297D01*
X11823Y80354D01*
X11796Y80359D01*
X11771Y80369D01*
X11640Y80389D01*
X11510Y80414D01*
X11484Y80412D01*
X11457Y80416D01*
X11325Y80402D01*
X11193Y80394D01*
X11167Y80386D01*
X11141Y80383D01*
X11016Y80337D01*
X10891Y80296D01*
X10868Y80281D01*
X10842Y80272D01*
X10734Y80197D01*
X10622Y80126D01*
X10603Y80106D01*
X10581Y80091D01*
X10495Y79991D01*
X10404Y79894D01*
X10391Y79870D01*
X10373Y79850D01*
X10314Y79731D01*
X10250Y79616D01*
X10244Y79589D01*
X10232Y79565D01*
X10204Y79435D01*
X10171Y79308D01*
X10169Y79269D01*
X10165Y79254D01*
X10166Y79232D01*
X10161Y79147D01*
X10161Y25400D01*
X10163Y25379D01*
X10163Y25317D01*
X10283Y23494D01*
X10291Y23450D01*
X10292Y23406D01*
X10323Y23248D01*
X11267Y19725D01*
X11300Y19646D01*
X11323Y19564D01*
X11383Y19441D01*
X11388Y19431D01*
X11390Y19427D01*
X11394Y19419D01*
X13218Y16261D01*
X13269Y16193D01*
X13313Y16119D01*
X13403Y16016D01*
X13410Y16008D01*
X13413Y16005D01*
X13419Y15998D01*
X15998Y13419D01*
X16066Y13367D01*
X16127Y13307D01*
X16241Y13231D01*
X16249Y13224D01*
X16254Y13223D01*
X16261Y13218D01*
X19419Y11394D01*
X19498Y11361D01*
X19573Y11319D01*
X19702Y11275D01*
X19712Y11271D01*
X19717Y11270D01*
X19725Y11267D01*
X23248Y10323D01*
X23292Y10317D01*
X23334Y10304D01*
X23494Y10283D01*
X25317Y10163D01*
X25338Y10165D01*
X25400Y10161D01*
X142446Y10161D01*
X142571Y10176D01*
G37*
%LPC*%
G36*
X138644Y299493D02*
X138644Y299493D01*
X136694Y300301D01*
X135201Y301794D01*
X134393Y303744D01*
X134393Y305856D01*
X135201Y307806D01*
X136534Y309138D01*
X136594Y309217D01*
X136662Y309289D01*
X136691Y309342D01*
X136728Y309390D01*
X136768Y309481D01*
X136816Y309567D01*
X136831Y309626D01*
X136855Y309682D01*
X136870Y309779D01*
X136895Y309875D01*
X136901Y309975D01*
X136905Y309996D01*
X136903Y310008D01*
X136905Y310036D01*
X136905Y326136D01*
X136890Y326254D01*
X136883Y326373D01*
X136870Y326411D01*
X136865Y326452D01*
X136822Y326562D01*
X136785Y326675D01*
X136763Y326710D01*
X136748Y326747D01*
X136679Y326843D01*
X136615Y326944D01*
X136585Y326972D01*
X136562Y327005D01*
X136470Y327081D01*
X136383Y327162D01*
X136348Y327182D01*
X136317Y327207D01*
X136209Y327258D01*
X136105Y327316D01*
X136065Y327326D01*
X136029Y327343D01*
X135912Y327365D01*
X135797Y327395D01*
X135737Y327399D01*
X135717Y327403D01*
X135696Y327401D01*
X135636Y327405D01*
X127112Y327405D01*
X80494Y374024D01*
X80416Y374084D01*
X80344Y374152D01*
X80291Y374181D01*
X80243Y374218D01*
X80152Y374258D01*
X80065Y374306D01*
X80007Y374321D01*
X79951Y374345D01*
X79853Y374360D01*
X79757Y374385D01*
X79657Y374391D01*
X79637Y374395D01*
X79625Y374393D01*
X79597Y374395D01*
X62868Y374395D01*
X61975Y375288D01*
X61975Y389386D01*
X62013Y389459D01*
X62021Y389499D01*
X62037Y389536D01*
X62056Y389653D01*
X62082Y389770D01*
X62081Y389810D01*
X62087Y389850D01*
X62076Y389968D01*
X62073Y390087D01*
X62061Y390126D01*
X62058Y390166D01*
X62017Y390279D01*
X61984Y390393D01*
X61975Y390408D01*
X61975Y404626D01*
X62013Y404699D01*
X62021Y404739D01*
X62037Y404776D01*
X62056Y404893D01*
X62082Y405010D01*
X62081Y405050D01*
X62087Y405090D01*
X62076Y405208D01*
X62073Y405327D01*
X62061Y405366D01*
X62058Y405406D01*
X62017Y405519D01*
X61984Y405633D01*
X61975Y405648D01*
X61975Y419866D01*
X62013Y419939D01*
X62021Y419978D01*
X62037Y420015D01*
X62056Y420133D01*
X62082Y420249D01*
X62081Y420290D01*
X62087Y420330D01*
X62076Y420448D01*
X62073Y420567D01*
X62061Y420606D01*
X62058Y420646D01*
X62017Y420758D01*
X61984Y420873D01*
X61975Y420888D01*
X61975Y435106D01*
X62013Y435179D01*
X62021Y435219D01*
X62037Y435256D01*
X62056Y435373D01*
X62082Y435490D01*
X62081Y435530D01*
X62087Y435570D01*
X62076Y435688D01*
X62073Y435807D01*
X62061Y435846D01*
X62058Y435886D01*
X62017Y435999D01*
X61984Y436113D01*
X61975Y436128D01*
X61975Y450346D01*
X62013Y450419D01*
X62021Y450459D01*
X62037Y450496D01*
X62056Y450613D01*
X62082Y450730D01*
X62081Y450770D01*
X62087Y450810D01*
X62076Y450928D01*
X62073Y451047D01*
X62061Y451086D01*
X62058Y451126D01*
X62017Y451239D01*
X61984Y451353D01*
X61975Y451368D01*
X61975Y465452D01*
X62868Y466345D01*
X89532Y466345D01*
X90425Y465452D01*
X90425Y462534D01*
X90440Y462416D01*
X90447Y462297D01*
X90460Y462259D01*
X90465Y462218D01*
X90508Y462108D01*
X90545Y461995D01*
X90567Y461960D01*
X90582Y461923D01*
X90651Y461827D01*
X90715Y461726D01*
X90745Y461698D01*
X90768Y461665D01*
X90860Y461589D01*
X90947Y461508D01*
X90982Y461488D01*
X91013Y461463D01*
X91121Y461412D01*
X91225Y461354D01*
X91265Y461344D01*
X91301Y461327D01*
X91418Y461305D01*
X91533Y461275D01*
X91593Y461271D01*
X91613Y461267D01*
X91634Y461269D01*
X91694Y461265D01*
X110334Y461265D01*
X110432Y461277D01*
X110531Y461280D01*
X110590Y461297D01*
X110650Y461305D01*
X110742Y461341D01*
X110837Y461369D01*
X110889Y461399D01*
X110945Y461422D01*
X111025Y461480D01*
X111111Y461530D01*
X111186Y461596D01*
X111203Y461608D01*
X111210Y461618D01*
X111232Y461636D01*
X111294Y461699D01*
X113244Y462507D01*
X115356Y462507D01*
X117306Y461699D01*
X118799Y460206D01*
X119607Y458256D01*
X119607Y456371D01*
X119619Y456273D01*
X119622Y456174D01*
X119639Y456116D01*
X119647Y456056D01*
X119683Y455964D01*
X119711Y455869D01*
X119741Y455816D01*
X119764Y455760D01*
X119822Y455680D01*
X119872Y455595D01*
X119938Y455519D01*
X119950Y455503D01*
X119960Y455495D01*
X119978Y455474D01*
X129795Y445658D01*
X129795Y348136D01*
X129807Y348038D01*
X129810Y347939D01*
X129827Y347880D01*
X129835Y347820D01*
X129871Y347728D01*
X129899Y347633D01*
X129929Y347581D01*
X129952Y347525D01*
X130010Y347445D01*
X130060Y347359D01*
X130126Y347284D01*
X130138Y347267D01*
X130148Y347260D01*
X130166Y347238D01*
X131499Y345906D01*
X132307Y343956D01*
X132307Y341844D01*
X131499Y339894D01*
X130006Y338401D01*
X128056Y337593D01*
X127893Y337593D01*
X127756Y337576D01*
X127617Y337563D01*
X127598Y337556D01*
X127578Y337553D01*
X127449Y337502D01*
X127318Y337455D01*
X127301Y337444D01*
X127282Y337436D01*
X127170Y337355D01*
X127055Y337277D01*
X127041Y337261D01*
X127025Y337250D01*
X126936Y337142D01*
X126844Y337038D01*
X126835Y337020D01*
X126822Y337005D01*
X126763Y336879D01*
X126699Y336755D01*
X126695Y336735D01*
X126686Y336717D01*
X126660Y336581D01*
X126630Y336445D01*
X126630Y336424D01*
X126627Y336405D01*
X126635Y336266D01*
X126639Y336127D01*
X126645Y336107D01*
X126646Y336087D01*
X126689Y335955D01*
X126728Y335821D01*
X126738Y335804D01*
X126744Y335785D01*
X126819Y335667D01*
X126889Y335547D01*
X126908Y335526D01*
X126915Y335516D01*
X126930Y335502D01*
X126996Y335427D01*
X129056Y333366D01*
X129134Y333306D01*
X129206Y333238D01*
X129259Y333209D01*
X129307Y333172D01*
X129398Y333132D01*
X129485Y333084D01*
X129543Y333069D01*
X129599Y333045D01*
X129697Y333030D01*
X129793Y333005D01*
X129893Y332999D01*
X129913Y332995D01*
X129925Y332997D01*
X129953Y332995D01*
X135636Y332995D01*
X135754Y333010D01*
X135873Y333017D01*
X135911Y333030D01*
X135952Y333035D01*
X136062Y333078D01*
X136175Y333115D01*
X136210Y333137D01*
X136247Y333152D01*
X136343Y333221D01*
X136444Y333285D01*
X136472Y333315D01*
X136505Y333338D01*
X136581Y333430D01*
X136662Y333517D01*
X136682Y333552D01*
X136707Y333583D01*
X136758Y333691D01*
X136816Y333795D01*
X136826Y333835D01*
X136843Y333871D01*
X136865Y333988D01*
X136895Y334103D01*
X136899Y334163D01*
X136903Y334183D01*
X136901Y334204D01*
X136905Y334264D01*
X136905Y363064D01*
X136893Y363162D01*
X136890Y363261D01*
X136873Y363320D01*
X136865Y363380D01*
X136829Y363472D01*
X136801Y363567D01*
X136771Y363619D01*
X136748Y363675D01*
X136690Y363755D01*
X136640Y363841D01*
X136574Y363916D01*
X136562Y363933D01*
X136552Y363940D01*
X136534Y363962D01*
X135201Y365294D01*
X134393Y367244D01*
X134393Y369356D01*
X135201Y371306D01*
X136694Y372799D01*
X138644Y373607D01*
X140756Y373607D01*
X142706Y372799D01*
X144199Y371306D01*
X145007Y369356D01*
X145007Y367244D01*
X144199Y365294D01*
X142866Y363962D01*
X142806Y363883D01*
X142738Y363811D01*
X142709Y363758D01*
X142672Y363710D01*
X142632Y363619D01*
X142584Y363533D01*
X142569Y363474D01*
X142545Y363418D01*
X142530Y363321D01*
X142505Y363225D01*
X142499Y363125D01*
X142495Y363104D01*
X142497Y363092D01*
X142495Y363064D01*
X142495Y310036D01*
X142507Y309938D01*
X142510Y309839D01*
X142527Y309780D01*
X142535Y309720D01*
X142571Y309628D01*
X142599Y309533D01*
X142629Y309481D01*
X142652Y309425D01*
X142710Y309345D01*
X142760Y309259D01*
X142826Y309184D01*
X142838Y309167D01*
X142848Y309160D01*
X142866Y309138D01*
X144199Y307806D01*
X145007Y305856D01*
X145007Y303744D01*
X144199Y301794D01*
X142706Y300301D01*
X140756Y299493D01*
X138644Y299493D01*
G37*
%LPD*%
%LPC*%
G36*
X74027Y14477D02*
X74027Y14477D01*
X70013Y16140D01*
X66940Y19213D01*
X65277Y23227D01*
X65277Y27573D01*
X66940Y31587D01*
X70013Y34660D01*
X72622Y35741D01*
X72647Y35755D01*
X72675Y35764D01*
X72785Y35834D01*
X72898Y35898D01*
X72919Y35919D01*
X72944Y35934D01*
X73033Y36029D01*
X73126Y36119D01*
X73142Y36145D01*
X73162Y36166D01*
X73225Y36280D01*
X73293Y36390D01*
X73301Y36419D01*
X73316Y36445D01*
X73348Y36570D01*
X73386Y36694D01*
X73388Y36724D01*
X73395Y36752D01*
X73405Y36913D01*
X73405Y37988D01*
X100974Y65556D01*
X101034Y65634D01*
X101102Y65706D01*
X101131Y65759D01*
X101168Y65807D01*
X101208Y65898D01*
X101256Y65985D01*
X101271Y66043D01*
X101295Y66099D01*
X101310Y66197D01*
X101335Y66293D01*
X101341Y66393D01*
X101345Y66413D01*
X101343Y66425D01*
X101345Y66453D01*
X101345Y181045D01*
X101339Y181095D01*
X101341Y181144D01*
X101319Y181252D01*
X101305Y181361D01*
X101287Y181407D01*
X101277Y181456D01*
X101229Y181554D01*
X101188Y181656D01*
X101159Y181696D01*
X101137Y181741D01*
X101066Y181825D01*
X101002Y181914D01*
X100963Y181945D01*
X100931Y181983D01*
X100841Y182047D01*
X100757Y182117D01*
X100712Y182138D01*
X100671Y182166D01*
X100568Y182205D01*
X100469Y182252D01*
X100420Y182261D01*
X100374Y182279D01*
X100264Y182291D01*
X100157Y182312D01*
X100107Y182309D01*
X100058Y182314D01*
X99949Y182299D01*
X99839Y182292D01*
X99792Y182277D01*
X99743Y182270D01*
X99590Y182218D01*
X97576Y181383D01*
X95464Y181383D01*
X93514Y182191D01*
X92021Y183684D01*
X91206Y185652D01*
X91191Y185677D01*
X91182Y185705D01*
X91113Y185815D01*
X91049Y185928D01*
X91028Y185949D01*
X91012Y185974D01*
X90918Y186063D01*
X90827Y186156D01*
X90802Y186172D01*
X90781Y186192D01*
X90667Y186255D01*
X90556Y186323D01*
X90528Y186331D01*
X90502Y186346D01*
X90376Y186378D01*
X90252Y186416D01*
X90223Y186418D01*
X90194Y186425D01*
X90033Y186435D01*
X45974Y186435D01*
X45856Y186420D01*
X45737Y186413D01*
X45699Y186400D01*
X45658Y186395D01*
X45548Y186352D01*
X45435Y186315D01*
X45400Y186293D01*
X45363Y186278D01*
X45267Y186209D01*
X45166Y186145D01*
X45138Y186115D01*
X45105Y186092D01*
X45029Y186000D01*
X44948Y185913D01*
X44928Y185878D01*
X44903Y185847D01*
X44852Y185739D01*
X44794Y185635D01*
X44784Y185595D01*
X44767Y185559D01*
X44745Y185442D01*
X44715Y185327D01*
X44711Y185267D01*
X44707Y185247D01*
X44709Y185226D01*
X44705Y185166D01*
X44705Y182248D01*
X43812Y181355D01*
X17148Y181355D01*
X16255Y182248D01*
X16255Y196212D01*
X17148Y197105D01*
X43812Y197105D01*
X44705Y196212D01*
X44705Y193294D01*
X44720Y193176D01*
X44727Y193057D01*
X44740Y193019D01*
X44745Y192978D01*
X44788Y192868D01*
X44825Y192755D01*
X44847Y192720D01*
X44862Y192683D01*
X44931Y192587D01*
X44995Y192486D01*
X45025Y192458D01*
X45048Y192425D01*
X45140Y192349D01*
X45227Y192268D01*
X45262Y192248D01*
X45293Y192223D01*
X45401Y192172D01*
X45505Y192114D01*
X45545Y192104D01*
X45581Y192087D01*
X45698Y192065D01*
X45813Y192035D01*
X45873Y192031D01*
X45893Y192027D01*
X45914Y192029D01*
X45974Y192025D01*
X92456Y192025D01*
X92574Y192040D01*
X92693Y192047D01*
X92731Y192060D01*
X92772Y192065D01*
X92882Y192108D01*
X92995Y192145D01*
X93030Y192167D01*
X93067Y192182D01*
X93163Y192251D01*
X93264Y192315D01*
X93292Y192345D01*
X93325Y192368D01*
X93401Y192460D01*
X93482Y192547D01*
X93502Y192582D01*
X93527Y192613D01*
X93578Y192721D01*
X93636Y192825D01*
X93646Y192865D01*
X93663Y192901D01*
X93685Y193018D01*
X93715Y193133D01*
X93719Y193193D01*
X93723Y193213D01*
X93721Y193234D01*
X93725Y193294D01*
X93725Y246243D01*
X94704Y247222D01*
X94734Y247261D01*
X94771Y247294D01*
X94831Y247386D01*
X94899Y247473D01*
X94919Y247519D01*
X94946Y247560D01*
X94981Y247664D01*
X95025Y247765D01*
X95033Y247814D01*
X95049Y247861D01*
X95058Y247970D01*
X95075Y248079D01*
X95070Y248128D01*
X95074Y248178D01*
X95056Y248286D01*
X95045Y248395D01*
X95028Y248442D01*
X95020Y248491D01*
X94975Y248591D01*
X94938Y248695D01*
X94910Y248736D01*
X94889Y248781D01*
X94821Y248867D01*
X94759Y248958D01*
X94722Y248991D01*
X94691Y249030D01*
X94603Y249096D01*
X94521Y249168D01*
X94476Y249191D01*
X94437Y249221D01*
X94292Y249292D01*
X93321Y249694D01*
X91989Y251026D01*
X91911Y251087D01*
X91839Y251155D01*
X91786Y251184D01*
X91738Y251221D01*
X91647Y251260D01*
X91560Y251308D01*
X91502Y251323D01*
X91446Y251347D01*
X91348Y251363D01*
X91252Y251388D01*
X91152Y251394D01*
X91132Y251397D01*
X91120Y251396D01*
X91092Y251398D01*
X45974Y251398D01*
X45856Y251383D01*
X45737Y251376D01*
X45699Y251363D01*
X45658Y251358D01*
X45548Y251314D01*
X45435Y251278D01*
X45400Y251256D01*
X45363Y251241D01*
X45267Y251171D01*
X45166Y251107D01*
X45138Y251078D01*
X45105Y251054D01*
X45029Y250962D01*
X44948Y250876D01*
X44928Y250840D01*
X44903Y250809D01*
X44852Y250702D01*
X44794Y250597D01*
X44784Y250558D01*
X44767Y250521D01*
X44745Y250405D01*
X44715Y250289D01*
X44711Y250229D01*
X44707Y250209D01*
X44709Y250189D01*
X44705Y250129D01*
X44705Y240668D01*
X43812Y239775D01*
X17148Y239775D01*
X16255Y240668D01*
X16255Y254632D01*
X17148Y255525D01*
X33877Y255525D01*
X33975Y255537D01*
X34074Y255540D01*
X34132Y255557D01*
X34192Y255565D01*
X34284Y255601D01*
X34379Y255629D01*
X34432Y255659D01*
X34488Y255682D01*
X34568Y255740D01*
X34653Y255790D01*
X34729Y255856D01*
X34745Y255868D01*
X34753Y255878D01*
X34774Y255896D01*
X35865Y256987D01*
X91092Y256987D01*
X91190Y257000D01*
X91289Y257003D01*
X91347Y257020D01*
X91407Y257027D01*
X91499Y257064D01*
X91594Y257091D01*
X91646Y257122D01*
X91703Y257144D01*
X91783Y257202D01*
X91868Y257253D01*
X91944Y257319D01*
X91960Y257331D01*
X91968Y257340D01*
X91989Y257359D01*
X93321Y258691D01*
X95272Y259499D01*
X97156Y259499D01*
X97254Y259512D01*
X97353Y259515D01*
X97411Y259532D01*
X97472Y259539D01*
X97564Y259576D01*
X97659Y259603D01*
X97711Y259634D01*
X97767Y259656D01*
X97847Y259714D01*
X97933Y259765D01*
X98008Y259831D01*
X98025Y259843D01*
X98032Y259852D01*
X98054Y259871D01*
X107907Y269724D01*
X185264Y269724D01*
X185362Y269736D01*
X185461Y269739D01*
X185520Y269756D01*
X185580Y269764D01*
X185672Y269800D01*
X185767Y269828D01*
X185819Y269859D01*
X185875Y269881D01*
X185955Y269939D01*
X186041Y269989D01*
X186116Y270056D01*
X186133Y270068D01*
X186140Y270077D01*
X186162Y270096D01*
X187494Y271428D01*
X189444Y272236D01*
X191556Y272236D01*
X193506Y271428D01*
X194999Y269935D01*
X195807Y267985D01*
X195807Y265874D01*
X194999Y263923D01*
X194358Y263283D01*
X194285Y263189D01*
X194207Y263099D01*
X194188Y263064D01*
X194163Y263032D01*
X194116Y262922D01*
X194062Y262816D01*
X194053Y262777D01*
X194037Y262740D01*
X194018Y262622D01*
X193992Y262506D01*
X193994Y262466D01*
X193987Y262426D01*
X193998Y262307D01*
X194002Y262188D01*
X194013Y262149D01*
X194017Y262109D01*
X194057Y261997D01*
X194090Y261883D01*
X194111Y261848D01*
X194125Y261810D01*
X194191Y261711D01*
X194252Y261609D01*
X194292Y261563D01*
X194303Y261547D01*
X194319Y261533D01*
X194358Y261488D01*
X194999Y260847D01*
X195807Y258897D01*
X195807Y256786D01*
X194999Y254835D01*
X193506Y253342D01*
X191556Y252535D01*
X189444Y252535D01*
X187494Y253342D01*
X186162Y254675D01*
X186083Y254736D01*
X186011Y254803D01*
X185958Y254833D01*
X185910Y254870D01*
X185819Y254909D01*
X185733Y254957D01*
X185674Y254972D01*
X185618Y254996D01*
X185539Y255009D01*
X180849Y259699D01*
X180771Y259760D01*
X180698Y259827D01*
X180645Y259857D01*
X180598Y259894D01*
X180507Y259933D01*
X180420Y259981D01*
X180361Y259996D01*
X180306Y260020D01*
X180208Y260036D01*
X180112Y260060D01*
X180012Y260067D01*
X179992Y260070D01*
X179979Y260069D01*
X179951Y260071D01*
X173717Y260071D01*
X173668Y260064D01*
X173618Y260067D01*
X173511Y260045D01*
X173402Y260031D01*
X173355Y260012D01*
X173307Y260002D01*
X173208Y259954D01*
X173106Y259914D01*
X173066Y259884D01*
X173021Y259863D01*
X172938Y259791D01*
X172849Y259727D01*
X172817Y259689D01*
X172779Y259656D01*
X172716Y259567D01*
X172646Y259482D01*
X172625Y259437D01*
X172596Y259396D01*
X172557Y259293D01*
X172510Y259194D01*
X172501Y259145D01*
X172483Y259099D01*
X172471Y258990D01*
X172451Y258882D01*
X172454Y258832D01*
X172448Y258783D01*
X172464Y258674D01*
X172470Y258564D01*
X172486Y258517D01*
X172493Y258468D01*
X172545Y258316D01*
X172947Y257345D01*
X172947Y255234D01*
X172139Y253283D01*
X171498Y252643D01*
X171425Y252549D01*
X171347Y252460D01*
X171328Y252424D01*
X171303Y252392D01*
X171256Y252282D01*
X171202Y252176D01*
X171193Y252137D01*
X171177Y252100D01*
X171158Y251982D01*
X171132Y251866D01*
X171134Y251826D01*
X171127Y251786D01*
X171138Y251667D01*
X171142Y251548D01*
X171153Y251509D01*
X171157Y251469D01*
X171197Y251357D01*
X171230Y251243D01*
X171251Y251208D01*
X171265Y251170D01*
X171331Y251071D01*
X171392Y250969D01*
X171432Y250923D01*
X171443Y250907D01*
X171458Y250893D01*
X171498Y250848D01*
X172139Y250207D01*
X172947Y248257D01*
X172947Y246146D01*
X172139Y244195D01*
X170646Y242702D01*
X168696Y241895D01*
X166584Y241895D01*
X164634Y242702D01*
X163302Y244035D01*
X163223Y244096D01*
X163151Y244163D01*
X163098Y244193D01*
X163050Y244230D01*
X162959Y244269D01*
X162873Y244317D01*
X162814Y244332D01*
X162758Y244356D01*
X162661Y244372D01*
X162565Y244396D01*
X162465Y244403D01*
X162444Y244406D01*
X162432Y244405D01*
X162404Y244407D01*
X135371Y244407D01*
X135321Y244400D01*
X135272Y244403D01*
X135164Y244381D01*
X135055Y244367D01*
X135009Y244348D01*
X134960Y244338D01*
X134861Y244290D01*
X134759Y244250D01*
X134719Y244221D01*
X134675Y244199D01*
X134591Y244127D01*
X134502Y244063D01*
X134470Y244025D01*
X134433Y243992D01*
X134369Y243902D01*
X134299Y243818D01*
X134278Y243773D01*
X134250Y243732D01*
X134211Y243629D01*
X134164Y243530D01*
X134154Y243482D01*
X134137Y243435D01*
X134125Y243325D01*
X134104Y243218D01*
X134107Y243168D01*
X134102Y243119D01*
X134117Y243010D01*
X134124Y242900D01*
X134139Y242853D01*
X134146Y242804D01*
X134198Y242652D01*
X134847Y241086D01*
X134847Y238974D01*
X134039Y237024D01*
X132546Y235531D01*
X130596Y234723D01*
X128484Y234723D01*
X126534Y235531D01*
X125202Y236864D01*
X125123Y236924D01*
X125051Y236992D01*
X124998Y237021D01*
X124950Y237058D01*
X124859Y237098D01*
X124773Y237146D01*
X124714Y237161D01*
X124658Y237185D01*
X124561Y237200D01*
X124465Y237225D01*
X124365Y237231D01*
X124344Y237235D01*
X124332Y237233D01*
X124304Y237235D01*
X119634Y237235D01*
X119516Y237220D01*
X119397Y237213D01*
X119359Y237200D01*
X119318Y237195D01*
X119208Y237152D01*
X119095Y237115D01*
X119060Y237093D01*
X119023Y237078D01*
X118927Y237009D01*
X118826Y236945D01*
X118798Y236915D01*
X118765Y236892D01*
X118689Y236800D01*
X118608Y236713D01*
X118588Y236678D01*
X118563Y236647D01*
X118512Y236539D01*
X118454Y236435D01*
X118444Y236395D01*
X118427Y236359D01*
X118405Y236242D01*
X118375Y236127D01*
X118371Y236067D01*
X118367Y236047D01*
X118369Y236026D01*
X118365Y235966D01*
X118365Y230916D01*
X118377Y230818D01*
X118380Y230719D01*
X118397Y230661D01*
X118405Y230601D01*
X118441Y230509D01*
X118469Y230413D01*
X118499Y230361D01*
X118522Y230305D01*
X118580Y230225D01*
X118630Y230139D01*
X118696Y230064D01*
X118708Y230048D01*
X118718Y230040D01*
X118736Y230019D01*
X120295Y228460D01*
X121103Y226510D01*
X121103Y224399D01*
X120295Y222448D01*
X118802Y220955D01*
X116852Y220148D01*
X114740Y220148D01*
X113770Y220550D01*
X113722Y220563D01*
X113677Y220584D01*
X113569Y220605D01*
X113463Y220634D01*
X113413Y220634D01*
X113364Y220644D01*
X113255Y220637D01*
X113145Y220639D01*
X113097Y220627D01*
X113047Y220624D01*
X112943Y220590D01*
X112836Y220564D01*
X112792Y220541D01*
X112745Y220526D01*
X112652Y220467D01*
X112555Y220416D01*
X112518Y220382D01*
X112476Y220356D01*
X112401Y220276D01*
X112319Y220202D01*
X112292Y220160D01*
X112258Y220124D01*
X112205Y220028D01*
X112145Y219936D01*
X112128Y219889D01*
X112104Y219846D01*
X112077Y219739D01*
X112041Y219635D01*
X112037Y219586D01*
X112025Y219538D01*
X112015Y219377D01*
X112015Y57262D01*
X104766Y50014D01*
X104706Y49936D01*
X104638Y49864D01*
X104609Y49811D01*
X104572Y49763D01*
X104532Y49672D01*
X104484Y49585D01*
X104469Y49527D01*
X104445Y49471D01*
X104430Y49373D01*
X104405Y49277D01*
X104399Y49177D01*
X104395Y49157D01*
X104397Y49145D01*
X104395Y49117D01*
X104395Y36913D01*
X104398Y36884D01*
X104396Y36854D01*
X104418Y36726D01*
X104435Y36598D01*
X104445Y36570D01*
X104450Y36541D01*
X104504Y36423D01*
X104552Y36302D01*
X104569Y36278D01*
X104581Y36251D01*
X104662Y36150D01*
X104738Y36045D01*
X104761Y36026D01*
X104780Y36003D01*
X104883Y35925D01*
X104983Y35842D01*
X105010Y35829D01*
X105034Y35811D01*
X105178Y35741D01*
X107787Y34660D01*
X110860Y31587D01*
X112523Y27573D01*
X112523Y23227D01*
X110860Y19213D01*
X107787Y16140D01*
X103773Y14477D01*
X99427Y14477D01*
X95413Y16140D01*
X92340Y19213D01*
X90677Y23227D01*
X90677Y27573D01*
X92340Y31587D01*
X95413Y34660D01*
X98022Y35741D01*
X98047Y35755D01*
X98075Y35764D01*
X98185Y35834D01*
X98298Y35898D01*
X98319Y35919D01*
X98344Y35934D01*
X98433Y36029D01*
X98526Y36119D01*
X98542Y36145D01*
X98562Y36166D01*
X98625Y36280D01*
X98693Y36390D01*
X98701Y36419D01*
X98716Y36445D01*
X98748Y36570D01*
X98786Y36694D01*
X98788Y36724D01*
X98795Y36752D01*
X98805Y36913D01*
X98805Y52419D01*
X98788Y52556D01*
X98775Y52695D01*
X98768Y52714D01*
X98765Y52734D01*
X98714Y52863D01*
X98667Y52994D01*
X98656Y53011D01*
X98648Y53030D01*
X98567Y53142D01*
X98489Y53257D01*
X98473Y53271D01*
X98462Y53287D01*
X98354Y53376D01*
X98250Y53468D01*
X98232Y53477D01*
X98217Y53490D01*
X98091Y53549D01*
X97967Y53613D01*
X97947Y53617D01*
X97929Y53626D01*
X97793Y53652D01*
X97657Y53682D01*
X97636Y53682D01*
X97617Y53685D01*
X97478Y53677D01*
X97339Y53673D01*
X97319Y53667D01*
X97299Y53666D01*
X97167Y53623D01*
X97033Y53584D01*
X97016Y53574D01*
X96997Y53568D01*
X96879Y53493D01*
X96759Y53423D01*
X96738Y53404D01*
X96728Y53397D01*
X96714Y53382D01*
X96639Y53316D01*
X80616Y37293D01*
X80585Y37254D01*
X80548Y37221D01*
X80488Y37129D01*
X80421Y37042D01*
X80401Y36996D01*
X80374Y36955D01*
X80338Y36851D01*
X80294Y36750D01*
X80286Y36701D01*
X80270Y36654D01*
X80262Y36545D01*
X80244Y36436D01*
X80249Y36386D01*
X80245Y36337D01*
X80264Y36229D01*
X80274Y36119D01*
X80291Y36073D01*
X80300Y36024D01*
X80345Y35924D01*
X80382Y35820D01*
X80410Y35779D01*
X80430Y35734D01*
X80499Y35648D01*
X80560Y35557D01*
X80598Y35524D01*
X80629Y35485D01*
X80717Y35419D01*
X80799Y35346D01*
X80843Y35324D01*
X80883Y35294D01*
X81027Y35223D01*
X82387Y34660D01*
X85460Y31587D01*
X87123Y27573D01*
X87123Y23227D01*
X85460Y19213D01*
X82387Y16140D01*
X78373Y14477D01*
X74027Y14477D01*
G37*
%LPD*%
%LPC*%
G36*
X277227Y14477D02*
X277227Y14477D01*
X273213Y16140D01*
X270140Y19213D01*
X268477Y23227D01*
X268477Y27573D01*
X269558Y30182D01*
X269566Y30210D01*
X269579Y30236D01*
X269608Y30363D01*
X269642Y30488D01*
X269642Y30518D01*
X269649Y30547D01*
X269645Y30676D01*
X269647Y30806D01*
X269640Y30835D01*
X269639Y30865D01*
X269603Y30989D01*
X269573Y31116D01*
X269559Y31142D01*
X269551Y31170D01*
X269485Y31282D01*
X269424Y31397D01*
X269404Y31419D01*
X269389Y31444D01*
X269283Y31565D01*
X215114Y85734D01*
X213105Y87742D01*
X213105Y214733D01*
X213093Y214831D01*
X213090Y214930D01*
X213073Y214988D01*
X213065Y215048D01*
X213029Y215140D01*
X213001Y215235D01*
X212971Y215288D01*
X212948Y215344D01*
X212890Y215424D01*
X212840Y215509D01*
X212774Y215585D01*
X212762Y215601D01*
X212752Y215609D01*
X212734Y215630D01*
X206224Y222140D01*
X206146Y222200D01*
X206074Y222268D01*
X206021Y222297D01*
X205973Y222334D01*
X205882Y222374D01*
X205795Y222422D01*
X205737Y222437D01*
X205681Y222461D01*
X205583Y222476D01*
X205487Y222501D01*
X205387Y222507D01*
X205367Y222511D01*
X205355Y222509D01*
X205327Y222511D01*
X183036Y222511D01*
X182938Y222499D01*
X182839Y222496D01*
X182780Y222479D01*
X182720Y222471D01*
X182628Y222435D01*
X182533Y222407D01*
X182481Y222377D01*
X182425Y222354D01*
X182345Y222296D01*
X182259Y222246D01*
X182184Y222180D01*
X182167Y222168D01*
X182160Y222158D01*
X182138Y222140D01*
X180806Y220807D01*
X178856Y219999D01*
X176744Y219999D01*
X174794Y220807D01*
X173301Y222300D01*
X172493Y224250D01*
X172493Y226362D01*
X173301Y228312D01*
X174849Y229859D01*
X174858Y229865D01*
X174873Y229878D01*
X174891Y229888D01*
X174991Y229985D01*
X175093Y230079D01*
X175104Y230095D01*
X175119Y230109D01*
X175192Y230228D01*
X175268Y230344D01*
X175275Y230363D01*
X175285Y230380D01*
X175326Y230514D01*
X175371Y230645D01*
X175373Y230665D01*
X175379Y230684D01*
X175385Y230823D01*
X175396Y230962D01*
X175393Y230982D01*
X175394Y231002D01*
X175366Y231138D01*
X175342Y231276D01*
X175334Y231294D01*
X175329Y231314D01*
X175268Y231438D01*
X175211Y231565D01*
X175199Y231581D01*
X175190Y231599D01*
X175100Y231705D01*
X175012Y231814D01*
X174996Y231826D01*
X174983Y231841D01*
X174884Y231911D01*
X173301Y233494D01*
X172493Y235444D01*
X172493Y237556D01*
X173301Y239506D01*
X174794Y240999D01*
X176744Y241807D01*
X178856Y241807D01*
X180806Y240999D01*
X182138Y239666D01*
X182217Y239606D01*
X182289Y239538D01*
X182342Y239509D01*
X182390Y239472D01*
X182481Y239432D01*
X182567Y239384D01*
X182626Y239369D01*
X182682Y239345D01*
X182779Y239330D01*
X182875Y239305D01*
X182975Y239299D01*
X182996Y239295D01*
X183008Y239297D01*
X183036Y239295D01*
X205348Y239295D01*
X220083Y224560D01*
X220192Y224475D01*
X220299Y224386D01*
X220318Y224377D01*
X220334Y224365D01*
X220462Y224309D01*
X220587Y224250D01*
X220607Y224247D01*
X220626Y224239D01*
X220764Y224217D01*
X220900Y224191D01*
X220920Y224192D01*
X220940Y224189D01*
X221079Y224202D01*
X221217Y224210D01*
X221236Y224217D01*
X221256Y224218D01*
X221388Y224266D01*
X221519Y224308D01*
X221537Y224319D01*
X221556Y224326D01*
X221671Y224404D01*
X221788Y224479D01*
X221802Y224493D01*
X221819Y224505D01*
X221911Y224609D01*
X222006Y224710D01*
X222016Y224728D01*
X222029Y224743D01*
X222093Y224867D01*
X222160Y224989D01*
X222165Y225008D01*
X222174Y225026D01*
X222204Y225162D01*
X222239Y225297D01*
X222241Y225325D01*
X222244Y225337D01*
X222243Y225357D01*
X222249Y225457D01*
X222249Y230473D01*
X222237Y230571D01*
X222234Y230670D01*
X222217Y230728D01*
X222209Y230788D01*
X222173Y230880D01*
X222145Y230975D01*
X222115Y231028D01*
X222092Y231084D01*
X222034Y231164D01*
X221984Y231249D01*
X221918Y231325D01*
X221906Y231341D01*
X221896Y231349D01*
X221878Y231370D01*
X211276Y241972D01*
X211198Y242032D01*
X211126Y242100D01*
X211073Y242129D01*
X211025Y242166D01*
X210934Y242206D01*
X210847Y242254D01*
X210789Y242269D01*
X210733Y242293D01*
X210635Y242308D01*
X210539Y242333D01*
X210439Y242339D01*
X210419Y242343D01*
X210407Y242341D01*
X210379Y242343D01*
X208494Y242343D01*
X206544Y243151D01*
X205051Y244644D01*
X204243Y246594D01*
X204243Y248706D01*
X205051Y250656D01*
X206544Y252149D01*
X208494Y252957D01*
X210606Y252957D01*
X212556Y252149D01*
X214049Y250656D01*
X214857Y248706D01*
X214857Y246821D01*
X214869Y246723D01*
X214872Y246624D01*
X214889Y246566D01*
X214897Y246506D01*
X214933Y246414D01*
X214961Y246319D01*
X214991Y246266D01*
X215014Y246210D01*
X215072Y246130D01*
X215122Y246045D01*
X215188Y245969D01*
X215200Y245953D01*
X215210Y245945D01*
X215228Y245924D01*
X227839Y233314D01*
X227839Y125287D01*
X227851Y125189D01*
X227854Y125090D01*
X227871Y125031D01*
X227879Y124971D01*
X227915Y124879D01*
X227943Y124784D01*
X227973Y124732D01*
X227996Y124676D01*
X228054Y124595D01*
X228104Y124510D01*
X228170Y124435D01*
X228182Y124418D01*
X228192Y124410D01*
X228210Y124389D01*
X269423Y83176D01*
X269502Y83116D01*
X269574Y83048D01*
X269627Y83019D01*
X269675Y82982D01*
X269765Y82942D01*
X269852Y82894D01*
X269911Y82879D01*
X269966Y82855D01*
X270064Y82840D01*
X270160Y82815D01*
X270260Y82809D01*
X270280Y82805D01*
X270293Y82807D01*
X270321Y82805D01*
X298294Y82805D01*
X298392Y82817D01*
X298491Y82820D01*
X298550Y82837D01*
X298610Y82845D01*
X298702Y82881D01*
X298797Y82909D01*
X298849Y82939D01*
X298905Y82962D01*
X298985Y83020D01*
X299071Y83070D01*
X299146Y83136D01*
X299163Y83148D01*
X299170Y83158D01*
X299192Y83176D01*
X300524Y84509D01*
X302474Y85317D01*
X304586Y85317D01*
X306536Y84509D01*
X308029Y83016D01*
X308837Y81066D01*
X308837Y78954D01*
X308029Y77004D01*
X306696Y75672D01*
X306636Y75593D01*
X306568Y75521D01*
X306539Y75468D01*
X306502Y75420D01*
X306462Y75329D01*
X306414Y75243D01*
X306399Y75184D01*
X306375Y75128D01*
X306360Y75031D01*
X306335Y74935D01*
X306329Y74835D01*
X306325Y74814D01*
X306327Y74802D01*
X306325Y74774D01*
X306325Y66294D01*
X306340Y66176D01*
X306347Y66057D01*
X306360Y66019D01*
X306365Y65978D01*
X306408Y65868D01*
X306445Y65755D01*
X306467Y65720D01*
X306482Y65683D01*
X306551Y65587D01*
X306615Y65486D01*
X306645Y65458D01*
X306668Y65425D01*
X306760Y65349D01*
X306847Y65268D01*
X306882Y65248D01*
X306913Y65223D01*
X307021Y65172D01*
X307125Y65114D01*
X307165Y65104D01*
X307201Y65087D01*
X307318Y65065D01*
X307433Y65035D01*
X307493Y65031D01*
X307513Y65027D01*
X307534Y65029D01*
X307594Y65025D01*
X318132Y65025D01*
X319025Y64132D01*
X319025Y50168D01*
X318132Y49275D01*
X294291Y49275D01*
X294154Y49258D01*
X294015Y49245D01*
X293996Y49238D01*
X293976Y49235D01*
X293847Y49184D01*
X293716Y49137D01*
X293699Y49126D01*
X293680Y49118D01*
X293568Y49037D01*
X293453Y48959D01*
X293439Y48943D01*
X293423Y48932D01*
X293334Y48824D01*
X293242Y48720D01*
X293233Y48702D01*
X293220Y48687D01*
X293161Y48561D01*
X293097Y48437D01*
X293093Y48417D01*
X293084Y48399D01*
X293058Y48263D01*
X293028Y48127D01*
X293028Y48106D01*
X293025Y48087D01*
X293033Y47948D01*
X293037Y47809D01*
X293043Y47789D01*
X293044Y47769D01*
X293087Y47637D01*
X293126Y47503D01*
X293136Y47486D01*
X293142Y47467D01*
X293217Y47349D01*
X293287Y47229D01*
X293306Y47208D01*
X293313Y47198D01*
X293328Y47184D01*
X293394Y47109D01*
X303808Y36694D01*
X303886Y36634D01*
X303958Y36566D01*
X304011Y36537D01*
X304059Y36500D01*
X304150Y36460D01*
X304237Y36412D01*
X304295Y36397D01*
X304351Y36373D01*
X304449Y36358D01*
X304545Y36333D01*
X304645Y36327D01*
X304665Y36323D01*
X304677Y36325D01*
X304705Y36323D01*
X306973Y36323D01*
X310987Y34660D01*
X314060Y31587D01*
X315723Y27573D01*
X315723Y23227D01*
X314060Y19213D01*
X310987Y16140D01*
X306973Y14477D01*
X302627Y14477D01*
X298613Y16140D01*
X295540Y19213D01*
X293877Y23227D01*
X293877Y27573D01*
X295540Y31587D01*
X297378Y33425D01*
X297451Y33519D01*
X297530Y33608D01*
X297548Y33644D01*
X297573Y33676D01*
X297620Y33785D01*
X297674Y33891D01*
X297683Y33931D01*
X297699Y33968D01*
X297718Y34086D01*
X297744Y34202D01*
X297743Y34242D01*
X297749Y34282D01*
X297738Y34401D01*
X297734Y34520D01*
X297723Y34558D01*
X297719Y34599D01*
X297679Y34711D01*
X297646Y34825D01*
X297625Y34860D01*
X297612Y34898D01*
X297545Y34996D01*
X297484Y35099D01*
X297444Y35144D01*
X297433Y35161D01*
X297418Y35175D01*
X297378Y35220D01*
X220861Y111736D01*
X220752Y111821D01*
X220645Y111910D01*
X220626Y111919D01*
X220610Y111931D01*
X220482Y111987D01*
X220357Y112046D01*
X220337Y112049D01*
X220318Y112057D01*
X220180Y112079D01*
X220044Y112105D01*
X220024Y112104D01*
X220004Y112107D01*
X219865Y112094D01*
X219727Y112086D01*
X219708Y112079D01*
X219688Y112078D01*
X219556Y112030D01*
X219425Y111988D01*
X219407Y111977D01*
X219388Y111970D01*
X219273Y111892D01*
X219156Y111817D01*
X219142Y111803D01*
X219125Y111791D01*
X219033Y111687D01*
X218938Y111586D01*
X218928Y111568D01*
X218915Y111553D01*
X218851Y111429D01*
X218784Y111307D01*
X218779Y111288D01*
X218770Y111270D01*
X218740Y111134D01*
X218705Y110999D01*
X218703Y110971D01*
X218700Y110959D01*
X218701Y110939D01*
X218695Y110839D01*
X218695Y90583D01*
X218707Y90485D01*
X218710Y90386D01*
X218727Y90328D01*
X218735Y90268D01*
X218771Y90176D01*
X218799Y90081D01*
X218829Y90028D01*
X218852Y89972D01*
X218910Y89892D01*
X218960Y89807D01*
X219026Y89731D01*
X219038Y89715D01*
X219048Y89707D01*
X219066Y89686D01*
X273235Y35517D01*
X273259Y35499D01*
X273278Y35477D01*
X273384Y35402D01*
X273486Y35322D01*
X273514Y35310D01*
X273538Y35294D01*
X273659Y35248D01*
X273778Y35196D01*
X273807Y35191D01*
X273835Y35181D01*
X273964Y35166D01*
X274092Y35146D01*
X274122Y35149D01*
X274151Y35146D01*
X274280Y35164D01*
X274409Y35176D01*
X274437Y35186D01*
X274466Y35190D01*
X274618Y35242D01*
X277227Y36323D01*
X281573Y36323D01*
X285587Y34660D01*
X288660Y31587D01*
X290323Y27573D01*
X290323Y23227D01*
X288660Y19213D01*
X285587Y16140D01*
X281573Y14477D01*
X277227Y14477D01*
G37*
%LPD*%
%LPC*%
G36*
X144424Y127175D02*
X144424Y127175D01*
X142425Y129174D01*
X142425Y134097D01*
X142413Y134195D01*
X142410Y134294D01*
X142393Y134352D01*
X142385Y134412D01*
X142349Y134504D01*
X142321Y134599D01*
X142291Y134652D01*
X142268Y134708D01*
X142210Y134788D01*
X142160Y134873D01*
X142094Y134949D01*
X142082Y134965D01*
X142072Y134973D01*
X142054Y134994D01*
X140819Y136228D01*
X140158Y136890D01*
X140048Y136975D01*
X139941Y137064D01*
X139922Y137073D01*
X139906Y137085D01*
X139778Y137141D01*
X139653Y137200D01*
X139633Y137203D01*
X139614Y137211D01*
X139476Y137233D01*
X139340Y137259D01*
X139320Y137258D01*
X139300Y137261D01*
X139161Y137248D01*
X139023Y137240D01*
X139004Y137233D01*
X138984Y137232D01*
X138853Y137184D01*
X138721Y137142D01*
X138703Y137131D01*
X138684Y137124D01*
X138570Y137046D01*
X138452Y136971D01*
X138438Y136957D01*
X138421Y136945D01*
X138329Y136841D01*
X138234Y136740D01*
X138224Y136722D01*
X138211Y136707D01*
X138148Y136583D01*
X138080Y136461D01*
X138075Y136442D01*
X138066Y136424D01*
X138036Y136288D01*
X138001Y136153D01*
X137999Y136125D01*
X137996Y136113D01*
X137997Y136093D01*
X137991Y135993D01*
X137991Y135199D01*
X133599Y135199D01*
X133599Y140541D01*
X134146Y140541D01*
X135272Y140239D01*
X136282Y139656D01*
X136643Y139294D01*
X136753Y139209D01*
X136860Y139120D01*
X136879Y139112D01*
X136895Y139099D01*
X137023Y139044D01*
X137148Y138985D01*
X137168Y138981D01*
X137187Y138973D01*
X137325Y138951D01*
X137461Y138925D01*
X137481Y138926D01*
X137501Y138923D01*
X137640Y138936D01*
X137778Y138945D01*
X137797Y138951D01*
X137817Y138953D01*
X137948Y139000D01*
X138080Y139043D01*
X138098Y139054D01*
X138117Y139061D01*
X138231Y139138D01*
X138349Y139213D01*
X138363Y139228D01*
X138380Y139239D01*
X138472Y139343D01*
X138567Y139445D01*
X138577Y139462D01*
X138590Y139477D01*
X138654Y139602D01*
X138721Y139723D01*
X138726Y139743D01*
X138735Y139761D01*
X138765Y139896D01*
X138800Y140031D01*
X138802Y140059D01*
X138805Y140071D01*
X138804Y140092D01*
X138810Y140192D01*
X138810Y147066D01*
X138795Y147184D01*
X138788Y147303D01*
X138775Y147341D01*
X138770Y147382D01*
X138727Y147492D01*
X138690Y147605D01*
X138668Y147640D01*
X138653Y147677D01*
X138584Y147773D01*
X138520Y147874D01*
X138490Y147902D01*
X138467Y147935D01*
X138375Y148011D01*
X138288Y148092D01*
X138253Y148112D01*
X138222Y148137D01*
X138114Y148188D01*
X138010Y148246D01*
X137970Y148256D01*
X137934Y148273D01*
X137817Y148295D01*
X137702Y148325D01*
X137642Y148329D01*
X137622Y148333D01*
X137601Y148331D01*
X137541Y148335D01*
X126368Y148335D01*
X125475Y149228D01*
X125475Y163192D01*
X126486Y164202D01*
X126559Y164297D01*
X126638Y164386D01*
X126656Y164422D01*
X126681Y164454D01*
X126728Y164563D01*
X126783Y164669D01*
X126791Y164708D01*
X126807Y164746D01*
X126826Y164863D01*
X126852Y164979D01*
X126851Y165020D01*
X126857Y165060D01*
X126846Y165178D01*
X126843Y165297D01*
X126831Y165336D01*
X126828Y165376D01*
X126787Y165489D01*
X126754Y165603D01*
X126734Y165637D01*
X126720Y165676D01*
X126653Y165774D01*
X126593Y165877D01*
X126553Y165922D01*
X126541Y165939D01*
X126526Y165952D01*
X126486Y165997D01*
X125475Y167008D01*
X125475Y180972D01*
X126368Y181865D01*
X143097Y181865D01*
X143195Y181877D01*
X143294Y181880D01*
X143352Y181897D01*
X143412Y181905D01*
X143504Y181941D01*
X143599Y181969D01*
X143652Y181999D01*
X143708Y182022D01*
X143788Y182080D01*
X143873Y182130D01*
X143949Y182196D01*
X143965Y182208D01*
X143973Y182218D01*
X143994Y182236D01*
X148107Y186350D01*
X148168Y186428D01*
X148236Y186500D01*
X148265Y186553D01*
X148302Y186601D01*
X148342Y186692D01*
X148389Y186779D01*
X148405Y186837D01*
X148429Y186893D01*
X148444Y186991D01*
X148469Y187087D01*
X148475Y187187D01*
X148479Y187207D01*
X148477Y187219D01*
X148479Y187247D01*
X148479Y189406D01*
X148464Y189524D01*
X148457Y189643D01*
X148444Y189681D01*
X148439Y189722D01*
X148395Y189832D01*
X148359Y189945D01*
X148337Y189980D01*
X148322Y190017D01*
X148252Y190113D01*
X148189Y190214D01*
X148159Y190242D01*
X148135Y190275D01*
X148044Y190351D01*
X147957Y190432D01*
X147922Y190452D01*
X147890Y190477D01*
X147783Y190528D01*
X147679Y190586D01*
X147639Y190596D01*
X147603Y190613D01*
X147486Y190635D01*
X147371Y190665D01*
X147310Y190669D01*
X147290Y190673D01*
X147270Y190671D01*
X147210Y190675D01*
X144424Y190675D01*
X142425Y192674D01*
X142425Y201026D01*
X144424Y203025D01*
X150876Y203025D01*
X152875Y201026D01*
X152875Y196103D01*
X152887Y196005D01*
X152890Y195906D01*
X152907Y195848D01*
X152915Y195788D01*
X152951Y195696D01*
X152979Y195601D01*
X153009Y195548D01*
X153032Y195492D01*
X153090Y195412D01*
X153140Y195327D01*
X153206Y195251D01*
X153218Y195235D01*
X153228Y195227D01*
X153247Y195206D01*
X154069Y194384D01*
X154069Y189628D01*
X154084Y189510D01*
X154091Y189391D01*
X154103Y189353D01*
X154108Y189312D01*
X154152Y189202D01*
X154189Y189088D01*
X154211Y189054D01*
X154225Y189017D01*
X154295Y188920D01*
X154359Y188820D01*
X154389Y188792D01*
X154412Y188759D01*
X154504Y188683D01*
X154591Y188602D01*
X154626Y188582D01*
X154657Y188556D01*
X154765Y188506D01*
X154869Y188448D01*
X154908Y188438D01*
X154945Y188421D01*
X155062Y188399D01*
X155177Y188369D01*
X155237Y188365D01*
X155257Y188361D01*
X155278Y188362D01*
X155338Y188359D01*
X181188Y188359D01*
X181286Y188371D01*
X181385Y188374D01*
X181444Y188391D01*
X181504Y188398D01*
X181596Y188435D01*
X181691Y188462D01*
X181743Y188493D01*
X181799Y188515D01*
X181879Y188574D01*
X181965Y188624D01*
X182040Y188690D01*
X182057Y188702D01*
X182064Y188712D01*
X182086Y188730D01*
X183418Y190063D01*
X185368Y190871D01*
X187480Y190871D01*
X189430Y190063D01*
X190923Y188570D01*
X191731Y186619D01*
X191731Y184735D01*
X191743Y184637D01*
X191746Y184538D01*
X191763Y184480D01*
X191771Y184420D01*
X191807Y184328D01*
X191835Y184233D01*
X191865Y184180D01*
X191888Y184124D01*
X191946Y184044D01*
X191996Y183959D01*
X192062Y183883D01*
X192074Y183867D01*
X192084Y183859D01*
X192102Y183838D01*
X194572Y181369D01*
X194650Y181308D01*
X194722Y181240D01*
X194775Y181211D01*
X194823Y181174D01*
X194914Y181134D01*
X195001Y181086D01*
X195059Y181071D01*
X195115Y181047D01*
X195213Y181032D01*
X195308Y181007D01*
X195409Y181001D01*
X195429Y180997D01*
X195441Y180999D01*
X195469Y180997D01*
X196206Y180997D01*
X198156Y180189D01*
X199649Y178696D01*
X200457Y176746D01*
X200457Y174634D01*
X199649Y172684D01*
X198156Y171191D01*
X196206Y170383D01*
X194094Y170383D01*
X192144Y171191D01*
X190651Y172684D01*
X189843Y174634D01*
X189843Y176746D01*
X189942Y176985D01*
X189950Y177014D01*
X189964Y177040D01*
X189992Y177166D01*
X190026Y177292D01*
X190027Y177321D01*
X190033Y177350D01*
X190029Y177480D01*
X190031Y177610D01*
X190025Y177638D01*
X190024Y177668D01*
X189987Y177793D01*
X189957Y177919D01*
X189943Y177945D01*
X189935Y177974D01*
X189869Y178085D01*
X189809Y178200D01*
X189789Y178222D01*
X189774Y178247D01*
X189667Y178368D01*
X188150Y179885D01*
X188072Y179946D01*
X188000Y180014D01*
X187947Y180043D01*
X187899Y180080D01*
X187808Y180120D01*
X187721Y180167D01*
X187663Y180183D01*
X187607Y180207D01*
X187509Y180222D01*
X187413Y180247D01*
X187313Y180253D01*
X187293Y180257D01*
X187281Y180255D01*
X187253Y180257D01*
X185368Y180257D01*
X183418Y181065D01*
X182086Y182397D01*
X182007Y182458D01*
X181935Y182526D01*
X181882Y182555D01*
X181834Y182592D01*
X181743Y182632D01*
X181657Y182679D01*
X181598Y182695D01*
X181542Y182719D01*
X181445Y182734D01*
X181349Y182759D01*
X181249Y182765D01*
X181228Y182769D01*
X181216Y182767D01*
X181188Y182769D01*
X155191Y182769D01*
X155050Y182751D01*
X155018Y182748D01*
X154957Y182744D01*
X154947Y182741D01*
X154908Y182737D01*
X154892Y182731D01*
X154876Y182729D01*
X154743Y182677D01*
X154700Y182661D01*
X154655Y182646D01*
X154647Y182642D01*
X154609Y182628D01*
X154595Y182618D01*
X154580Y182612D01*
X154465Y182528D01*
X154420Y182498D01*
X154386Y182476D01*
X154381Y182471D01*
X154347Y182447D01*
X154336Y182435D01*
X154323Y182425D01*
X154232Y182315D01*
X154194Y182273D01*
X154168Y182244D01*
X154165Y182238D01*
X154138Y182208D01*
X154130Y182193D01*
X154120Y182180D01*
X154059Y182052D01*
X154035Y182004D01*
X154014Y181966D01*
X154012Y181959D01*
X153995Y181924D01*
X153991Y181907D01*
X153984Y181893D01*
X153958Y181753D01*
X153948Y181710D01*
X153935Y181658D01*
X153934Y181645D01*
X153927Y181613D01*
X153928Y181596D01*
X153925Y181580D01*
X153927Y181538D01*
X153925Y181497D01*
X153925Y167008D01*
X152914Y165997D01*
X152841Y165903D01*
X152762Y165814D01*
X152744Y165778D01*
X152719Y165746D01*
X152671Y165637D01*
X152617Y165531D01*
X152609Y165492D01*
X152593Y165454D01*
X152574Y165337D01*
X152548Y165221D01*
X152549Y165180D01*
X152543Y165140D01*
X152554Y165022D01*
X152557Y164903D01*
X152569Y164864D01*
X152572Y164824D01*
X152613Y164712D01*
X152646Y164597D01*
X152666Y164562D01*
X152680Y164524D01*
X152747Y164426D01*
X152807Y164323D01*
X152847Y164278D01*
X152859Y164261D01*
X152874Y164248D01*
X152914Y164202D01*
X153925Y163192D01*
X153925Y156464D01*
X153940Y156346D01*
X153947Y156227D01*
X153960Y156189D01*
X153965Y156148D01*
X154008Y156038D01*
X154045Y155925D01*
X154067Y155890D01*
X154082Y155853D01*
X154151Y155757D01*
X154215Y155656D01*
X154245Y155628D01*
X154268Y155595D01*
X154360Y155519D01*
X154447Y155438D01*
X154482Y155418D01*
X154513Y155393D01*
X154621Y155342D01*
X154725Y155284D01*
X154765Y155274D01*
X154801Y155257D01*
X154918Y155235D01*
X155033Y155205D01*
X155093Y155201D01*
X155113Y155197D01*
X155134Y155199D01*
X155194Y155195D01*
X177644Y155195D01*
X177742Y155207D01*
X177841Y155210D01*
X177900Y155227D01*
X177960Y155235D01*
X178052Y155271D01*
X178147Y155299D01*
X178199Y155329D01*
X178255Y155352D01*
X178336Y155410D01*
X178421Y155460D01*
X178496Y155526D01*
X178513Y155538D01*
X178521Y155548D01*
X178542Y155566D01*
X179874Y156899D01*
X181824Y157707D01*
X183936Y157707D01*
X185886Y156899D01*
X187218Y155566D01*
X187297Y155506D01*
X187369Y155438D01*
X187422Y155409D01*
X187470Y155372D01*
X187560Y155332D01*
X187647Y155284D01*
X187706Y155269D01*
X187761Y155245D01*
X187859Y155230D01*
X187955Y155205D01*
X188055Y155199D01*
X188076Y155195D01*
X188088Y155197D01*
X188116Y155195D01*
X196694Y155195D01*
X196792Y155207D01*
X196891Y155210D01*
X196950Y155227D01*
X197010Y155235D01*
X197102Y155271D01*
X197197Y155299D01*
X197249Y155329D01*
X197305Y155352D01*
X197385Y155410D01*
X197471Y155460D01*
X197546Y155526D01*
X197563Y155538D01*
X197570Y155548D01*
X197592Y155566D01*
X198924Y156899D01*
X200874Y157707D01*
X202986Y157707D01*
X204936Y156899D01*
X206429Y155406D01*
X207237Y153456D01*
X207237Y151344D01*
X206429Y149394D01*
X204936Y147901D01*
X202986Y147093D01*
X200874Y147093D01*
X198924Y147901D01*
X197592Y149234D01*
X197513Y149294D01*
X197441Y149362D01*
X197388Y149391D01*
X197340Y149428D01*
X197249Y149468D01*
X197163Y149516D01*
X197104Y149531D01*
X197048Y149555D01*
X196951Y149570D01*
X196855Y149595D01*
X196755Y149601D01*
X196734Y149605D01*
X196722Y149603D01*
X196694Y149605D01*
X188116Y149605D01*
X188018Y149593D01*
X187919Y149590D01*
X187860Y149573D01*
X187800Y149565D01*
X187708Y149529D01*
X187613Y149501D01*
X187561Y149471D01*
X187505Y149448D01*
X187424Y149390D01*
X187339Y149340D01*
X187264Y149274D01*
X187247Y149262D01*
X187239Y149252D01*
X187218Y149234D01*
X185886Y147901D01*
X183936Y147093D01*
X181824Y147093D01*
X179874Y147901D01*
X178542Y149234D01*
X178463Y149294D01*
X178391Y149362D01*
X178338Y149391D01*
X178290Y149428D01*
X178200Y149468D01*
X178113Y149516D01*
X178054Y149531D01*
X177999Y149555D01*
X177901Y149570D01*
X177805Y149595D01*
X177705Y149601D01*
X177684Y149605D01*
X177672Y149603D01*
X177644Y149605D01*
X154827Y149605D01*
X154729Y149593D01*
X154630Y149590D01*
X154572Y149573D01*
X154512Y149565D01*
X154420Y149529D01*
X154325Y149501D01*
X154272Y149471D01*
X154216Y149448D01*
X154136Y149390D01*
X154051Y149340D01*
X153975Y149274D01*
X153959Y149262D01*
X153951Y149252D01*
X153930Y149234D01*
X153032Y148335D01*
X145669Y148335D01*
X145551Y148320D01*
X145432Y148313D01*
X145394Y148300D01*
X145353Y148295D01*
X145243Y148252D01*
X145130Y148215D01*
X145095Y148193D01*
X145058Y148178D01*
X144962Y148109D01*
X144861Y148045D01*
X144833Y148015D01*
X144800Y147992D01*
X144724Y147900D01*
X144643Y147813D01*
X144623Y147778D01*
X144598Y147747D01*
X144547Y147639D01*
X144489Y147535D01*
X144479Y147495D01*
X144462Y147459D01*
X144440Y147342D01*
X144410Y147227D01*
X144406Y147167D01*
X144402Y147147D01*
X144404Y147126D01*
X144400Y147066D01*
X144400Y141078D01*
X144412Y140980D01*
X144415Y140881D01*
X144432Y140823D01*
X144440Y140763D01*
X144476Y140671D01*
X144504Y140576D01*
X144534Y140523D01*
X144557Y140467D01*
X144615Y140387D01*
X144665Y140302D01*
X144731Y140226D01*
X144743Y140210D01*
X144753Y140202D01*
X144771Y140181D01*
X145056Y139896D01*
X145134Y139836D01*
X145206Y139768D01*
X145259Y139739D01*
X145307Y139702D01*
X145398Y139662D01*
X145485Y139614D01*
X145543Y139599D01*
X145599Y139575D01*
X145697Y139560D01*
X145793Y139535D01*
X145893Y139529D01*
X145913Y139525D01*
X145925Y139527D01*
X145953Y139525D01*
X150876Y139525D01*
X152875Y137526D01*
X152875Y129174D01*
X150876Y127175D01*
X144424Y127175D01*
G37*
%LPD*%
%LPC*%
G36*
X176744Y305617D02*
X176744Y305617D01*
X174794Y306425D01*
X173301Y307918D01*
X172493Y309868D01*
X172493Y311979D01*
X172481Y312077D01*
X172478Y312176D01*
X172461Y312234D01*
X172453Y312294D01*
X172417Y312386D01*
X172389Y312481D01*
X172359Y312534D01*
X172336Y312590D01*
X172278Y312670D01*
X172228Y312755D01*
X172162Y312831D01*
X172150Y312847D01*
X172140Y312855D01*
X172122Y312876D01*
X169554Y315444D01*
X167955Y317042D01*
X167955Y320216D01*
X167940Y320334D01*
X167933Y320453D01*
X167920Y320491D01*
X167915Y320532D01*
X167872Y320642D01*
X167835Y320755D01*
X167813Y320790D01*
X167798Y320827D01*
X167729Y320923D01*
X167665Y321024D01*
X167635Y321052D01*
X167612Y321085D01*
X167520Y321161D01*
X167433Y321242D01*
X167398Y321262D01*
X167367Y321287D01*
X167259Y321338D01*
X167155Y321396D01*
X167115Y321406D01*
X167079Y321423D01*
X166962Y321445D01*
X166886Y321465D01*
X164625Y323726D01*
X164625Y331594D01*
X166886Y333855D01*
X166923Y333857D01*
X166961Y333870D01*
X167002Y333875D01*
X167112Y333918D01*
X167225Y333955D01*
X167260Y333977D01*
X167297Y333992D01*
X167393Y334061D01*
X167494Y334125D01*
X167522Y334155D01*
X167555Y334178D01*
X167631Y334270D01*
X167712Y334357D01*
X167732Y334392D01*
X167757Y334423D01*
X167808Y334531D01*
X167866Y334635D01*
X167876Y334675D01*
X167893Y334711D01*
X167915Y334828D01*
X167945Y334943D01*
X167949Y335003D01*
X167953Y335023D01*
X167951Y335044D01*
X167955Y335104D01*
X167955Y335456D01*
X167940Y335574D01*
X167933Y335693D01*
X167920Y335731D01*
X167915Y335772D01*
X167872Y335882D01*
X167835Y335995D01*
X167813Y336030D01*
X167798Y336067D01*
X167729Y336163D01*
X167665Y336264D01*
X167635Y336292D01*
X167612Y336325D01*
X167520Y336401D01*
X167433Y336482D01*
X167398Y336502D01*
X167367Y336527D01*
X167259Y336578D01*
X167155Y336636D01*
X167115Y336646D01*
X167079Y336663D01*
X166962Y336685D01*
X166886Y336705D01*
X164609Y338982D01*
X164603Y339073D01*
X164590Y339111D01*
X164585Y339152D01*
X164542Y339262D01*
X164505Y339375D01*
X164483Y339410D01*
X164468Y339447D01*
X164399Y339543D01*
X164335Y339644D01*
X164305Y339672D01*
X164282Y339705D01*
X164190Y339781D01*
X164103Y339862D01*
X164068Y339882D01*
X164037Y339907D01*
X163929Y339958D01*
X163825Y340016D01*
X163785Y340026D01*
X163749Y340043D01*
X163632Y340065D01*
X163517Y340095D01*
X163457Y340099D01*
X163437Y340103D01*
X163416Y340101D01*
X163356Y340105D01*
X157636Y340105D01*
X157538Y340093D01*
X157439Y340090D01*
X157380Y340073D01*
X157320Y340065D01*
X157228Y340029D01*
X157133Y340001D01*
X157081Y339971D01*
X157025Y339948D01*
X156945Y339890D01*
X156859Y339840D01*
X156784Y339774D01*
X156767Y339762D01*
X156760Y339752D01*
X156738Y339734D01*
X155406Y338401D01*
X153456Y337593D01*
X151344Y337593D01*
X149394Y338401D01*
X147901Y339894D01*
X147093Y341844D01*
X147093Y343956D01*
X147901Y345906D01*
X149394Y347399D01*
X151344Y348207D01*
X153456Y348207D01*
X155406Y347399D01*
X156738Y346066D01*
X156817Y346006D01*
X156889Y345938D01*
X156942Y345909D01*
X156990Y345872D01*
X157081Y345832D01*
X157167Y345784D01*
X157226Y345769D01*
X157282Y345745D01*
X157379Y345730D01*
X157475Y345705D01*
X157575Y345699D01*
X157596Y345695D01*
X157608Y345697D01*
X157636Y345695D01*
X163356Y345695D01*
X163474Y345710D01*
X163593Y345717D01*
X163631Y345730D01*
X163672Y345735D01*
X163782Y345778D01*
X163895Y345815D01*
X163930Y345837D01*
X163967Y345852D01*
X164063Y345921D01*
X164164Y345985D01*
X164192Y346015D01*
X164225Y346038D01*
X164301Y346130D01*
X164382Y346217D01*
X164402Y346252D01*
X164427Y346283D01*
X164478Y346391D01*
X164536Y346495D01*
X164546Y346535D01*
X164563Y346571D01*
X164585Y346688D01*
X164615Y346803D01*
X164616Y346825D01*
X166866Y349075D01*
X174634Y349075D01*
X176328Y347381D01*
X176394Y347329D01*
X176455Y347270D01*
X176520Y347232D01*
X176579Y347186D01*
X176657Y347153D01*
X176730Y347110D01*
X176802Y347090D01*
X176871Y347060D01*
X176954Y347047D01*
X177036Y347024D01*
X177111Y347022D01*
X177185Y347010D01*
X177269Y347018D01*
X177354Y347016D01*
X177427Y347033D01*
X177502Y347040D01*
X177581Y347068D01*
X177663Y347087D01*
X177730Y347122D01*
X177801Y347147D01*
X177871Y347195D01*
X177946Y347234D01*
X178002Y347284D01*
X178064Y347326D01*
X178120Y347389D01*
X178183Y347446D01*
X178268Y347558D01*
X178275Y347564D01*
X178276Y347568D01*
X178281Y347574D01*
X178790Y348336D01*
X179464Y349010D01*
X180257Y349540D01*
X181138Y349905D01*
X182073Y350091D01*
X182551Y350091D01*
X182551Y343930D01*
X182566Y343812D01*
X182573Y343693D01*
X182585Y343655D01*
X182591Y343615D01*
X182634Y343504D01*
X182671Y343391D01*
X182693Y343357D01*
X182708Y343319D01*
X182777Y343223D01*
X182841Y343122D01*
X182871Y343094D01*
X182894Y343062D01*
X182986Y342986D01*
X183073Y342904D01*
X183087Y342896D01*
X183012Y342849D01*
X182984Y342819D01*
X182951Y342795D01*
X182875Y342704D01*
X182794Y342617D01*
X182774Y342582D01*
X182749Y342550D01*
X182698Y342443D01*
X182640Y342338D01*
X182630Y342299D01*
X182613Y342263D01*
X182591Y342146D01*
X182561Y342030D01*
X182557Y341970D01*
X182553Y341950D01*
X182555Y341930D01*
X182551Y341870D01*
X182551Y328690D01*
X182566Y328572D01*
X182573Y328453D01*
X182585Y328415D01*
X182591Y328375D01*
X182634Y328264D01*
X182671Y328151D01*
X182693Y328117D01*
X182708Y328079D01*
X182777Y327983D01*
X182841Y327882D01*
X182871Y327854D01*
X182894Y327822D01*
X182986Y327746D01*
X183073Y327664D01*
X183108Y327645D01*
X183139Y327619D01*
X183247Y327568D01*
X183351Y327511D01*
X183391Y327501D01*
X183427Y327483D01*
X183544Y327461D01*
X183659Y327431D01*
X183719Y327427D01*
X183739Y327424D01*
X183760Y327425D01*
X183820Y327421D01*
X184611Y327421D01*
X184611Y326630D01*
X184626Y326512D01*
X184633Y326393D01*
X184646Y326355D01*
X184651Y326314D01*
X184695Y326204D01*
X184731Y326091D01*
X184753Y326056D01*
X184768Y326019D01*
X184838Y325922D01*
X184901Y325822D01*
X184931Y325794D01*
X184955Y325761D01*
X185046Y325685D01*
X185133Y325604D01*
X185168Y325584D01*
X185200Y325559D01*
X185307Y325508D01*
X185412Y325450D01*
X185451Y325440D01*
X185487Y325423D01*
X185604Y325401D01*
X185720Y325371D01*
X185780Y325367D01*
X185800Y325363D01*
X185820Y325365D01*
X185880Y325361D01*
X198930Y325361D01*
X199048Y325376D01*
X199167Y325383D01*
X199205Y325395D01*
X199245Y325401D01*
X199356Y325444D01*
X199469Y325481D01*
X199503Y325503D01*
X199541Y325518D01*
X199637Y325587D01*
X199738Y325651D01*
X199766Y325681D01*
X199798Y325704D01*
X199874Y325796D01*
X199956Y325883D01*
X199975Y325918D01*
X200001Y325949D01*
X200052Y326057D01*
X200109Y326161D01*
X200119Y326201D01*
X200137Y326237D01*
X200159Y326354D01*
X200189Y326469D01*
X200193Y326529D01*
X200196Y326549D01*
X200195Y326570D01*
X200199Y326630D01*
X200199Y327421D01*
X200990Y327421D01*
X201108Y327436D01*
X201227Y327443D01*
X201265Y327456D01*
X201306Y327461D01*
X201416Y327505D01*
X201529Y327541D01*
X201564Y327563D01*
X201601Y327578D01*
X201697Y327648D01*
X201798Y327711D01*
X201826Y327741D01*
X201859Y327765D01*
X201935Y327856D01*
X202016Y327943D01*
X202036Y327978D01*
X202061Y328010D01*
X202112Y328117D01*
X202170Y328222D01*
X202180Y328261D01*
X202197Y328297D01*
X202219Y328414D01*
X202249Y328530D01*
X202253Y328590D01*
X202257Y328610D01*
X202255Y328630D01*
X202259Y328690D01*
X202259Y341870D01*
X202244Y341988D01*
X202237Y342107D01*
X202224Y342145D01*
X202219Y342185D01*
X202176Y342296D01*
X202139Y342409D01*
X202117Y342443D01*
X202102Y342481D01*
X202033Y342577D01*
X201969Y342678D01*
X201939Y342706D01*
X201916Y342738D01*
X201824Y342814D01*
X201737Y342896D01*
X201723Y342904D01*
X201798Y342951D01*
X201826Y342981D01*
X201859Y343005D01*
X201935Y343096D01*
X202016Y343183D01*
X202036Y343218D01*
X202061Y343250D01*
X202112Y343357D01*
X202170Y343462D01*
X202180Y343501D01*
X202197Y343537D01*
X202219Y343654D01*
X202249Y343770D01*
X202253Y343830D01*
X202257Y343850D01*
X202255Y343870D01*
X202259Y343930D01*
X202259Y350091D01*
X202737Y350091D01*
X203672Y349905D01*
X204553Y349540D01*
X205346Y349010D01*
X206020Y348336D01*
X206529Y347574D01*
X206585Y347510D01*
X206632Y347440D01*
X206688Y347390D01*
X206738Y347333D01*
X206807Y347285D01*
X206871Y347229D01*
X206937Y347195D01*
X206999Y347152D01*
X207079Y347123D01*
X207154Y347085D01*
X207227Y347068D01*
X207298Y347042D01*
X207382Y347034D01*
X207464Y347015D01*
X207539Y347017D01*
X207614Y347010D01*
X207697Y347022D01*
X207782Y347025D01*
X207854Y347046D01*
X207929Y347057D01*
X208006Y347090D01*
X208087Y347113D01*
X208152Y347151D01*
X208221Y347181D01*
X208289Y347232D01*
X208361Y347275D01*
X208467Y347368D01*
X208474Y347373D01*
X208477Y347376D01*
X208482Y347381D01*
X210176Y349075D01*
X217944Y349075D01*
X220185Y346834D01*
X220185Y338966D01*
X217924Y336705D01*
X217887Y336703D01*
X217849Y336690D01*
X217808Y336685D01*
X217698Y336642D01*
X217585Y336605D01*
X217550Y336583D01*
X217513Y336568D01*
X217417Y336499D01*
X217316Y336435D01*
X217288Y336405D01*
X217255Y336382D01*
X217179Y336290D01*
X217098Y336203D01*
X217078Y336168D01*
X217053Y336137D01*
X217002Y336029D01*
X216944Y335925D01*
X216934Y335885D01*
X216917Y335849D01*
X216895Y335732D01*
X216865Y335617D01*
X216861Y335557D01*
X216857Y335537D01*
X216859Y335516D01*
X216855Y335456D01*
X216855Y335104D01*
X216870Y334986D01*
X216877Y334867D01*
X216890Y334829D01*
X216895Y334788D01*
X216938Y334678D01*
X216975Y334565D01*
X216997Y334530D01*
X217012Y334493D01*
X217081Y334397D01*
X217145Y334296D01*
X217175Y334268D01*
X217198Y334235D01*
X217290Y334159D01*
X217377Y334078D01*
X217412Y334058D01*
X217443Y334033D01*
X217551Y333982D01*
X217655Y333924D01*
X217695Y333914D01*
X217731Y333897D01*
X217848Y333875D01*
X217924Y333855D01*
X220185Y331594D01*
X220185Y323726D01*
X217924Y321465D01*
X217887Y321463D01*
X217849Y321450D01*
X217808Y321445D01*
X217698Y321402D01*
X217585Y321365D01*
X217550Y321343D01*
X217513Y321328D01*
X217417Y321259D01*
X217316Y321195D01*
X217288Y321165D01*
X217255Y321142D01*
X217179Y321050D01*
X217098Y320963D01*
X217078Y320928D01*
X217053Y320897D01*
X217002Y320789D01*
X216944Y320685D01*
X216934Y320645D01*
X216917Y320609D01*
X216895Y320492D01*
X216865Y320377D01*
X216861Y320317D01*
X216857Y320297D01*
X216859Y320276D01*
X216855Y320216D01*
X216855Y317042D01*
X213248Y313435D01*
X184376Y313435D01*
X184258Y313420D01*
X184139Y313413D01*
X184101Y313400D01*
X184060Y313395D01*
X183950Y313352D01*
X183837Y313315D01*
X183802Y313293D01*
X183765Y313278D01*
X183669Y313209D01*
X183568Y313145D01*
X183540Y313115D01*
X183507Y313092D01*
X183431Y313000D01*
X183350Y312913D01*
X183330Y312878D01*
X183305Y312847D01*
X183254Y312739D01*
X183196Y312635D01*
X183186Y312595D01*
X183169Y312559D01*
X183147Y312442D01*
X183117Y312327D01*
X183113Y312267D01*
X183109Y312247D01*
X183111Y312226D01*
X183107Y312166D01*
X183107Y309868D01*
X182299Y307918D01*
X180806Y306425D01*
X178856Y305617D01*
X176744Y305617D01*
G37*
%LPD*%
%LPC*%
G36*
X329144Y163603D02*
X329144Y163603D01*
X327194Y164411D01*
X325701Y165904D01*
X324893Y167854D01*
X324893Y169966D01*
X325701Y171916D01*
X327034Y173248D01*
X327094Y173327D01*
X327162Y173399D01*
X327191Y173452D01*
X327228Y173500D01*
X327268Y173591D01*
X327316Y173677D01*
X327331Y173736D01*
X327355Y173792D01*
X327370Y173889D01*
X327395Y173985D01*
X327401Y174085D01*
X327405Y174106D01*
X327403Y174118D01*
X327405Y174146D01*
X327405Y177418D01*
X327393Y177516D01*
X327390Y177615D01*
X327373Y177674D01*
X327365Y177734D01*
X327329Y177826D01*
X327301Y177921D01*
X327271Y177973D01*
X327248Y178029D01*
X327190Y178109D01*
X327140Y178195D01*
X327074Y178270D01*
X327062Y178287D01*
X327052Y178294D01*
X327034Y178316D01*
X325701Y179648D01*
X324893Y181598D01*
X324893Y183710D01*
X325701Y185660D01*
X327203Y187162D01*
X327227Y187171D01*
X327317Y187232D01*
X327413Y187287D01*
X327449Y187321D01*
X327490Y187349D01*
X327562Y187431D01*
X327641Y187508D01*
X327667Y187550D01*
X327700Y187588D01*
X327750Y187685D01*
X327808Y187779D01*
X327822Y187827D01*
X327845Y187871D01*
X327869Y187978D01*
X327901Y188083D01*
X327904Y188133D01*
X327914Y188181D01*
X327911Y188291D01*
X327916Y188401D01*
X327906Y188449D01*
X327905Y188499D01*
X327874Y188605D01*
X327852Y188712D01*
X327830Y188757D01*
X327816Y188804D01*
X327761Y188899D01*
X327712Y188998D01*
X327680Y189036D01*
X327655Y189078D01*
X327548Y189199D01*
X324334Y192414D01*
X324256Y192474D01*
X324184Y192542D01*
X324131Y192571D01*
X324083Y192608D01*
X323992Y192648D01*
X323905Y192696D01*
X323847Y192711D01*
X323791Y192735D01*
X323693Y192750D01*
X323597Y192775D01*
X323497Y192781D01*
X323477Y192785D01*
X323465Y192783D01*
X323437Y192785D01*
X297336Y192785D01*
X297238Y192773D01*
X297139Y192770D01*
X297080Y192753D01*
X297020Y192745D01*
X296928Y192709D01*
X296833Y192681D01*
X296781Y192651D01*
X296725Y192628D01*
X296645Y192570D01*
X296559Y192520D01*
X296484Y192454D01*
X296467Y192442D01*
X296460Y192432D01*
X296438Y192414D01*
X295106Y191081D01*
X293156Y190273D01*
X291044Y190273D01*
X289094Y191081D01*
X287601Y192574D01*
X286793Y194524D01*
X286793Y196636D01*
X287601Y198586D01*
X289094Y200079D01*
X291044Y200887D01*
X293156Y200887D01*
X295106Y200079D01*
X296438Y198746D01*
X296517Y198686D01*
X296589Y198618D01*
X296642Y198589D01*
X296690Y198552D01*
X296781Y198512D01*
X296867Y198464D01*
X296926Y198449D01*
X296982Y198425D01*
X297079Y198410D01*
X297175Y198385D01*
X297275Y198379D01*
X297296Y198375D01*
X297308Y198377D01*
X297336Y198375D01*
X326278Y198375D01*
X332256Y192396D01*
X332334Y192336D01*
X332406Y192268D01*
X332459Y192239D01*
X332507Y192202D01*
X332598Y192162D01*
X332685Y192114D01*
X332743Y192099D01*
X332799Y192075D01*
X332897Y192060D01*
X332993Y192035D01*
X333093Y192029D01*
X333113Y192025D01*
X333125Y192027D01*
X333153Y192025D01*
X333756Y192025D01*
X333874Y192040D01*
X333993Y192047D01*
X334031Y192060D01*
X334072Y192065D01*
X334182Y192108D01*
X334295Y192145D01*
X334330Y192167D01*
X334367Y192182D01*
X334463Y192251D01*
X334564Y192315D01*
X334592Y192345D01*
X334625Y192368D01*
X334701Y192460D01*
X334782Y192547D01*
X334802Y192582D01*
X334827Y192613D01*
X334878Y192721D01*
X334936Y192825D01*
X334946Y192865D01*
X334963Y192901D01*
X334985Y193018D01*
X335015Y193133D01*
X335019Y193193D01*
X335023Y193213D01*
X335021Y193234D01*
X335025Y193294D01*
X335025Y196212D01*
X335918Y197105D01*
X362582Y197105D01*
X363475Y196212D01*
X363475Y182248D01*
X362582Y181355D01*
X336254Y181355D01*
X336225Y181352D01*
X336195Y181354D01*
X336067Y181332D01*
X335939Y181315D01*
X335911Y181305D01*
X335882Y181300D01*
X335764Y181246D01*
X335643Y181198D01*
X335619Y181181D01*
X335592Y181169D01*
X335491Y181088D01*
X335386Y181012D01*
X335367Y180989D01*
X335344Y180970D01*
X335266Y180867D01*
X335183Y180767D01*
X335170Y180740D01*
X335152Y180716D01*
X335081Y180572D01*
X334699Y179648D01*
X333366Y178316D01*
X333306Y178237D01*
X333238Y178165D01*
X333209Y178112D01*
X333172Y178064D01*
X333132Y177973D01*
X333084Y177887D01*
X333069Y177828D01*
X333045Y177772D01*
X333030Y177675D01*
X333005Y177579D01*
X332999Y177479D01*
X332995Y177458D01*
X332997Y177446D01*
X332995Y177418D01*
X332995Y174146D01*
X333007Y174048D01*
X333010Y173949D01*
X333027Y173890D01*
X333035Y173830D01*
X333071Y173738D01*
X333099Y173643D01*
X333129Y173591D01*
X333152Y173535D01*
X333210Y173455D01*
X333260Y173369D01*
X333326Y173294D01*
X333338Y173277D01*
X333348Y173270D01*
X333366Y173248D01*
X334699Y171916D01*
X335507Y169966D01*
X335507Y167854D01*
X334699Y165904D01*
X333206Y164411D01*
X331256Y163603D01*
X329144Y163603D01*
G37*
%LPD*%
%LPC*%
G36*
X246594Y192813D02*
X246594Y192813D01*
X244644Y193621D01*
X243151Y195114D01*
X242343Y197064D01*
X242343Y199176D01*
X243151Y201126D01*
X244644Y202619D01*
X246594Y203427D01*
X248479Y203427D01*
X248577Y203439D01*
X248676Y203442D01*
X248734Y203459D01*
X248794Y203467D01*
X248886Y203503D01*
X248981Y203531D01*
X249034Y203561D01*
X249090Y203584D01*
X249170Y203642D01*
X249255Y203692D01*
X249331Y203758D01*
X249347Y203770D01*
X249355Y203780D01*
X249376Y203798D01*
X264804Y219226D01*
X264864Y219304D01*
X264932Y219376D01*
X264961Y219429D01*
X264998Y219477D01*
X265038Y219568D01*
X265086Y219655D01*
X265101Y219713D01*
X265125Y219769D01*
X265140Y219867D01*
X265165Y219963D01*
X265171Y220063D01*
X265175Y220083D01*
X265173Y220095D01*
X265175Y220123D01*
X265175Y324964D01*
X265163Y325062D01*
X265160Y325161D01*
X265143Y325220D01*
X265135Y325280D01*
X265099Y325372D01*
X265071Y325467D01*
X265041Y325519D01*
X265018Y325575D01*
X264960Y325655D01*
X264910Y325741D01*
X264844Y325816D01*
X264832Y325833D01*
X264822Y325840D01*
X264804Y325862D01*
X263471Y327194D01*
X262663Y329144D01*
X262663Y331256D01*
X263471Y333206D01*
X264964Y334699D01*
X266914Y335507D01*
X269026Y335507D01*
X270976Y334699D01*
X272469Y333206D01*
X273277Y331256D01*
X273277Y329144D01*
X272469Y327194D01*
X271136Y325862D01*
X271076Y325783D01*
X271008Y325711D01*
X270979Y325658D01*
X270942Y325610D01*
X270902Y325519D01*
X270854Y325433D01*
X270839Y325374D01*
X270815Y325318D01*
X270800Y325221D01*
X270775Y325125D01*
X270769Y325025D01*
X270765Y325004D01*
X270767Y324992D01*
X270765Y324964D01*
X270765Y217282D01*
X253328Y199846D01*
X253268Y199768D01*
X253200Y199696D01*
X253171Y199643D01*
X253134Y199595D01*
X253094Y199504D01*
X253046Y199417D01*
X253031Y199359D01*
X253007Y199303D01*
X252992Y199205D01*
X252967Y199109D01*
X252961Y199009D01*
X252957Y198989D01*
X252959Y198977D01*
X252957Y198949D01*
X252957Y197064D01*
X252149Y195114D01*
X250656Y193621D01*
X248706Y192813D01*
X246594Y192813D01*
G37*
%LPD*%
%LPC*%
G36*
X335918Y241045D02*
X335918Y241045D01*
X335025Y241938D01*
X335025Y244856D01*
X335010Y244974D01*
X335003Y245093D01*
X334990Y245131D01*
X334985Y245172D01*
X334942Y245282D01*
X334905Y245395D01*
X334883Y245430D01*
X334868Y245467D01*
X334799Y245563D01*
X334735Y245664D01*
X334705Y245692D01*
X334682Y245725D01*
X334590Y245801D01*
X334503Y245882D01*
X334468Y245902D01*
X334437Y245927D01*
X334329Y245978D01*
X334225Y246036D01*
X334185Y246046D01*
X334149Y246063D01*
X334032Y246085D01*
X333917Y246115D01*
X333857Y246119D01*
X333837Y246123D01*
X333816Y246121D01*
X333756Y246125D01*
X298562Y246125D01*
X293854Y250834D01*
X293776Y250894D01*
X293704Y250962D01*
X293651Y250991D01*
X293603Y251028D01*
X293512Y251068D01*
X293425Y251116D01*
X293367Y251131D01*
X293311Y251155D01*
X293213Y251170D01*
X293117Y251195D01*
X293017Y251201D01*
X292997Y251205D01*
X292985Y251203D01*
X292957Y251205D01*
X284636Y251205D01*
X284538Y251193D01*
X284439Y251190D01*
X284380Y251173D01*
X284320Y251165D01*
X284228Y251129D01*
X284133Y251101D01*
X284081Y251071D01*
X284025Y251048D01*
X283945Y250990D01*
X283859Y250940D01*
X283784Y250874D01*
X283767Y250862D01*
X283760Y250852D01*
X283738Y250834D01*
X282406Y249501D01*
X280456Y248693D01*
X278344Y248693D01*
X276394Y249501D01*
X274901Y250994D01*
X274093Y252944D01*
X274093Y255056D01*
X274901Y257006D01*
X276394Y258499D01*
X278344Y259307D01*
X280456Y259307D01*
X282406Y258499D01*
X283738Y257166D01*
X283817Y257106D01*
X283889Y257038D01*
X283942Y257009D01*
X283990Y256972D01*
X284081Y256932D01*
X284167Y256884D01*
X284226Y256869D01*
X284282Y256845D01*
X284379Y256830D01*
X284475Y256805D01*
X284575Y256799D01*
X284596Y256795D01*
X284608Y256797D01*
X284636Y256795D01*
X295798Y256795D01*
X300506Y252086D01*
X300584Y252026D01*
X300656Y251958D01*
X300709Y251929D01*
X300757Y251892D01*
X300848Y251852D01*
X300935Y251804D01*
X300993Y251789D01*
X301049Y251765D01*
X301147Y251750D01*
X301243Y251725D01*
X301343Y251719D01*
X301363Y251715D01*
X301375Y251717D01*
X301403Y251715D01*
X333756Y251715D01*
X333874Y251730D01*
X333993Y251737D01*
X334031Y251750D01*
X334072Y251755D01*
X334182Y251798D01*
X334295Y251835D01*
X334330Y251857D01*
X334367Y251872D01*
X334463Y251941D01*
X334564Y252005D01*
X334592Y252035D01*
X334625Y252058D01*
X334701Y252150D01*
X334782Y252237D01*
X334802Y252272D01*
X334827Y252303D01*
X334878Y252411D01*
X334936Y252515D01*
X334946Y252555D01*
X334963Y252591D01*
X334985Y252708D01*
X335015Y252823D01*
X335019Y252883D01*
X335023Y252903D01*
X335021Y252924D01*
X335025Y252984D01*
X335025Y255902D01*
X335918Y256795D01*
X362582Y256795D01*
X363475Y255902D01*
X363475Y241938D01*
X362582Y241045D01*
X335918Y241045D01*
G37*
%LPD*%
%LPC*%
G36*
X252944Y255043D02*
X252944Y255043D01*
X250994Y255851D01*
X249501Y257344D01*
X248693Y259294D01*
X248693Y261406D01*
X249501Y263356D01*
X250834Y264688D01*
X250894Y264767D01*
X250962Y264839D01*
X250991Y264892D01*
X251028Y264940D01*
X251068Y265031D01*
X251116Y265117D01*
X251131Y265176D01*
X251155Y265232D01*
X251170Y265329D01*
X251195Y265425D01*
X251201Y265525D01*
X251205Y265546D01*
X251203Y265558D01*
X251205Y265586D01*
X251205Y350364D01*
X251193Y350462D01*
X251190Y350561D01*
X251173Y350620D01*
X251165Y350680D01*
X251129Y350772D01*
X251101Y350867D01*
X251071Y350919D01*
X251048Y350975D01*
X250990Y351055D01*
X250940Y351141D01*
X250874Y351216D01*
X250862Y351233D01*
X250852Y351240D01*
X250834Y351262D01*
X249501Y352594D01*
X248693Y354544D01*
X248693Y356656D01*
X249501Y358606D01*
X250994Y360099D01*
X252944Y360907D01*
X255056Y360907D01*
X257006Y360099D01*
X258499Y358606D01*
X259307Y356656D01*
X259307Y354544D01*
X258499Y352594D01*
X257166Y351262D01*
X257106Y351183D01*
X257038Y351111D01*
X257009Y351058D01*
X256972Y351010D01*
X256932Y350919D01*
X256884Y350833D01*
X256869Y350774D01*
X256845Y350718D01*
X256830Y350621D01*
X256805Y350525D01*
X256799Y350425D01*
X256795Y350404D01*
X256797Y350392D01*
X256795Y350364D01*
X256795Y265586D01*
X256807Y265488D01*
X256810Y265389D01*
X256827Y265330D01*
X256835Y265270D01*
X256871Y265178D01*
X256899Y265083D01*
X256929Y265031D01*
X256952Y264975D01*
X257010Y264895D01*
X257060Y264809D01*
X257126Y264734D01*
X257138Y264717D01*
X257148Y264710D01*
X257166Y264688D01*
X258499Y263356D01*
X259307Y261406D01*
X259307Y259294D01*
X258499Y257344D01*
X257006Y255851D01*
X255056Y255043D01*
X252944Y255043D01*
G37*
%LPD*%
%LPC*%
G36*
X132520Y276193D02*
X132520Y276193D01*
X130570Y277001D01*
X129077Y278494D01*
X128269Y280444D01*
X128269Y282329D01*
X128257Y282427D01*
X128254Y282526D01*
X128237Y282584D01*
X128229Y282644D01*
X128193Y282736D01*
X128165Y282831D01*
X128135Y282884D01*
X128112Y282940D01*
X128054Y283020D01*
X128004Y283105D01*
X127938Y283181D01*
X127926Y283197D01*
X127916Y283205D01*
X127898Y283226D01*
X86097Y325026D01*
X86093Y325062D01*
X86090Y325161D01*
X86073Y325220D01*
X86065Y325280D01*
X86029Y325372D01*
X86001Y325467D01*
X85971Y325519D01*
X85948Y325575D01*
X85890Y325655D01*
X85840Y325741D01*
X85774Y325816D01*
X85762Y325833D01*
X85752Y325840D01*
X85734Y325862D01*
X84401Y327194D01*
X83593Y329144D01*
X83593Y331256D01*
X84401Y333206D01*
X85894Y334699D01*
X87844Y335507D01*
X89956Y335507D01*
X91906Y334699D01*
X93399Y333206D01*
X94207Y331256D01*
X94207Y329144D01*
X93378Y327144D01*
X93362Y327126D01*
X93344Y327090D01*
X93319Y327058D01*
X93272Y326949D01*
X93218Y326843D01*
X93209Y326803D01*
X93193Y326766D01*
X93174Y326649D01*
X93148Y326532D01*
X93149Y326492D01*
X93143Y326452D01*
X93154Y326334D01*
X93158Y326215D01*
X93169Y326176D01*
X93173Y326136D01*
X93213Y326023D01*
X93246Y325909D01*
X93267Y325874D01*
X93280Y325836D01*
X93347Y325738D01*
X93408Y325635D01*
X93447Y325590D01*
X93459Y325573D01*
X93474Y325560D01*
X93514Y325514D01*
X131850Y287178D01*
X131928Y287118D01*
X132000Y287050D01*
X132053Y287021D01*
X132101Y286984D01*
X132192Y286944D01*
X132279Y286896D01*
X132337Y286881D01*
X132393Y286857D01*
X132491Y286842D01*
X132587Y286817D01*
X132687Y286811D01*
X132707Y286807D01*
X132719Y286809D01*
X132747Y286807D01*
X134632Y286807D01*
X136582Y285999D01*
X138075Y284506D01*
X138883Y282556D01*
X138883Y280444D01*
X138075Y278494D01*
X136582Y277001D01*
X134632Y276193D01*
X132520Y276193D01*
G37*
%LPD*%
%LPC*%
G36*
X201027Y14477D02*
X201027Y14477D01*
X197013Y16140D01*
X193940Y19213D01*
X192277Y23227D01*
X192277Y27573D01*
X193940Y31587D01*
X197013Y34660D01*
X201027Y36323D01*
X205373Y36323D01*
X209387Y34660D01*
X212460Y31587D01*
X214123Y27573D01*
X214123Y23227D01*
X212460Y19213D01*
X209387Y16140D01*
X205373Y14477D01*
X201027Y14477D01*
G37*
%LPD*%
%LPC*%
G36*
X175627Y14477D02*
X175627Y14477D01*
X171613Y16140D01*
X168540Y19213D01*
X166877Y23227D01*
X166877Y27573D01*
X168540Y31587D01*
X171613Y34660D01*
X175627Y36323D01*
X179973Y36323D01*
X183987Y34660D01*
X187060Y31587D01*
X188723Y27573D01*
X188723Y23227D01*
X187060Y19213D01*
X183987Y16140D01*
X179973Y14477D01*
X175627Y14477D01*
G37*
%LPD*%
%LPC*%
G36*
X124827Y14477D02*
X124827Y14477D01*
X120813Y16140D01*
X117740Y19213D01*
X116077Y23227D01*
X116077Y27573D01*
X117740Y31587D01*
X120813Y34660D01*
X124827Y36323D01*
X129173Y36323D01*
X133187Y34660D01*
X136260Y31587D01*
X137923Y27573D01*
X137923Y23227D01*
X136260Y19213D01*
X133187Y16140D01*
X129173Y14477D01*
X124827Y14477D01*
G37*
%LPD*%
%LPC*%
G36*
X187149Y329959D02*
X187149Y329959D01*
X187149Y340601D01*
X197661Y340601D01*
X197661Y329959D01*
X187149Y329959D01*
G37*
%LPD*%
%LPC*%
G36*
X154939Y27939D02*
X154939Y27939D01*
X154939Y40641D01*
X159084Y40641D01*
X159731Y40468D01*
X160310Y40133D01*
X160783Y39660D01*
X161118Y39081D01*
X161291Y38434D01*
X161291Y27939D01*
X154939Y27939D01*
G37*
%LPD*%
%LPC*%
G36*
X143509Y27939D02*
X143509Y27939D01*
X143509Y38434D01*
X143682Y39081D01*
X144017Y39660D01*
X144490Y40133D01*
X145069Y40468D01*
X145716Y40641D01*
X149861Y40641D01*
X149861Y27939D01*
X143509Y27939D01*
G37*
%LPD*%
%LPC*%
G36*
X53339Y27939D02*
X53339Y27939D01*
X53339Y37085D01*
X53596Y37045D01*
X55383Y36464D01*
X57057Y35611D01*
X58578Y34506D01*
X59906Y33178D01*
X61011Y31657D01*
X61864Y29983D01*
X62445Y28196D01*
X62485Y27939D01*
X53339Y27939D01*
G37*
%LPD*%
%LPC*%
G36*
X332739Y27939D02*
X332739Y27939D01*
X332739Y37085D01*
X332996Y37045D01*
X334783Y36464D01*
X336457Y35611D01*
X337978Y34506D01*
X339306Y33178D01*
X340411Y31657D01*
X341264Y29983D01*
X341845Y28196D01*
X341885Y27939D01*
X332739Y27939D01*
G37*
%LPD*%
%LPC*%
G36*
X39115Y27939D02*
X39115Y27939D01*
X39155Y28196D01*
X39736Y29983D01*
X40589Y31657D01*
X41694Y33178D01*
X43022Y34506D01*
X44543Y35611D01*
X46217Y36464D01*
X48004Y37045D01*
X48261Y37085D01*
X48261Y27939D01*
X39115Y27939D01*
G37*
%LPD*%
%LPC*%
G36*
X53339Y22861D02*
X53339Y22861D01*
X62485Y22861D01*
X62445Y22604D01*
X61864Y20817D01*
X61011Y19143D01*
X59906Y17622D01*
X58578Y16294D01*
X57057Y15189D01*
X55383Y14336D01*
X53596Y13755D01*
X53339Y13715D01*
X53339Y22861D01*
G37*
%LPD*%
%LPC*%
G36*
X318515Y27939D02*
X318515Y27939D01*
X318555Y28196D01*
X319136Y29983D01*
X319989Y31657D01*
X321094Y33178D01*
X322422Y34506D01*
X323943Y35611D01*
X325617Y36464D01*
X327404Y37045D01*
X327661Y37085D01*
X327661Y27939D01*
X318515Y27939D01*
G37*
%LPD*%
%LPC*%
G36*
X332739Y22861D02*
X332739Y22861D01*
X341885Y22861D01*
X341845Y22604D01*
X341264Y20817D01*
X340411Y19143D01*
X339306Y17622D01*
X337978Y16294D01*
X336457Y15189D01*
X334783Y14336D01*
X332996Y13755D01*
X332739Y13715D01*
X332739Y22861D01*
G37*
%LPD*%
%LPC*%
G36*
X48004Y13755D02*
X48004Y13755D01*
X46217Y14336D01*
X44543Y15189D01*
X43022Y16294D01*
X41694Y17622D01*
X40589Y19143D01*
X39736Y20817D01*
X39155Y22604D01*
X39115Y22861D01*
X48261Y22861D01*
X48261Y13715D01*
X48004Y13755D01*
G37*
%LPD*%
%LPC*%
G36*
X327404Y13755D02*
X327404Y13755D01*
X325617Y14336D01*
X323943Y15189D01*
X322422Y16294D01*
X321094Y17622D01*
X319989Y19143D01*
X319136Y20817D01*
X318555Y22604D01*
X318515Y22861D01*
X327661Y22861D01*
X327661Y13715D01*
X327404Y13755D01*
G37*
%LPD*%
%LPC*%
G36*
X187149Y345199D02*
X187149Y345199D01*
X187149Y350091D01*
X187627Y350091D01*
X188562Y349905D01*
X189443Y349540D01*
X190236Y349010D01*
X190910Y348336D01*
X191350Y347678D01*
X191382Y347640D01*
X191408Y347598D01*
X191486Y347521D01*
X191558Y347438D01*
X191599Y347409D01*
X191634Y347375D01*
X191729Y347319D01*
X191820Y347257D01*
X191866Y347240D01*
X191909Y347215D01*
X192015Y347185D01*
X192118Y347147D01*
X192167Y347142D01*
X192215Y347128D01*
X192325Y347125D01*
X192434Y347114D01*
X192483Y347121D01*
X192533Y347120D01*
X192640Y347145D01*
X192749Y347161D01*
X192795Y347181D01*
X192843Y347192D01*
X192940Y347242D01*
X193042Y347285D01*
X193081Y347315D01*
X193125Y347338D01*
X193207Y347411D01*
X193295Y347478D01*
X193326Y347517D01*
X193363Y347550D01*
X193460Y347678D01*
X193900Y348336D01*
X194574Y349010D01*
X195367Y349540D01*
X196248Y349905D01*
X197183Y350091D01*
X197661Y350091D01*
X197661Y345199D01*
X187149Y345199D01*
G37*
%LPD*%
%LPC*%
G36*
X133599Y198699D02*
X133599Y198699D01*
X133599Y204041D01*
X134146Y204041D01*
X135272Y203739D01*
X136282Y203156D01*
X137106Y202332D01*
X137689Y201322D01*
X137991Y200196D01*
X137991Y198699D01*
X133599Y198699D01*
G37*
%LPD*%
%LPC*%
G36*
X133599Y126159D02*
X133599Y126159D01*
X133599Y131501D01*
X137991Y131501D01*
X137991Y130004D01*
X137689Y128878D01*
X137106Y127868D01*
X136282Y127044D01*
X135272Y126461D01*
X134146Y126159D01*
X133599Y126159D01*
G37*
%LPD*%
%LPC*%
G36*
X133599Y189659D02*
X133599Y189659D01*
X133599Y195001D01*
X137991Y195001D01*
X137991Y193504D01*
X137689Y192378D01*
X137106Y191368D01*
X136282Y190544D01*
X135272Y189961D01*
X134146Y189659D01*
X133599Y189659D01*
G37*
%LPD*%
%LPC*%
G36*
X125509Y198699D02*
X125509Y198699D01*
X125509Y200196D01*
X125811Y201322D01*
X126394Y202332D01*
X127218Y203156D01*
X128228Y203739D01*
X129354Y204041D01*
X129901Y204041D01*
X129901Y198699D01*
X125509Y198699D01*
G37*
%LPD*%
%LPC*%
G36*
X125509Y135199D02*
X125509Y135199D01*
X125509Y136696D01*
X125811Y137822D01*
X126394Y138832D01*
X127218Y139656D01*
X128228Y140239D01*
X129354Y140541D01*
X129901Y140541D01*
X129901Y135199D01*
X125509Y135199D01*
G37*
%LPD*%
%LPC*%
G36*
X129354Y126159D02*
X129354Y126159D01*
X128228Y126461D01*
X127218Y127044D01*
X126394Y127868D01*
X125811Y128878D01*
X125509Y130004D01*
X125509Y131501D01*
X129901Y131501D01*
X129901Y126159D01*
X129354Y126159D01*
G37*
%LPD*%
%LPC*%
G36*
X129354Y189659D02*
X129354Y189659D01*
X128228Y189961D01*
X127218Y190544D01*
X126394Y191368D01*
X125811Y192378D01*
X125509Y193504D01*
X125509Y195001D01*
X129901Y195001D01*
X129901Y189659D01*
X129354Y189659D01*
G37*
%LPD*%
%LPC*%
G36*
X330199Y25399D02*
X330199Y25399D01*
X330199Y25401D01*
X330201Y25401D01*
X330201Y25399D01*
X330199Y25399D01*
G37*
%LPD*%
%LPC*%
G36*
X50799Y25399D02*
X50799Y25399D01*
X50799Y25401D01*
X50801Y25401D01*
X50801Y25399D01*
X50799Y25399D01*
G37*
%LPD*%
D10*
X349250Y189230D03*
X76200Y458470D03*
X76200Y443230D03*
X76200Y412750D03*
X76200Y397510D03*
X76200Y382270D03*
D11*
X152400Y25400D03*
X228600Y25400D03*
D10*
X304800Y57150D03*
X76200Y427990D03*
X139700Y156210D03*
X139700Y173990D03*
X30480Y247650D03*
X30480Y189230D03*
X349250Y248920D03*
D12*
X202260Y330010D02*
X197660Y330010D01*
X202260Y330010D02*
X202260Y325310D01*
X197660Y325310D01*
X197660Y330010D01*
X197660Y329680D02*
X202260Y329680D01*
X211760Y325310D02*
X216360Y325310D01*
X211760Y325310D02*
X211760Y330010D01*
X216360Y330010D01*
X216360Y325310D01*
X216360Y329680D02*
X211760Y329680D01*
X202260Y345250D02*
X197660Y345250D01*
X202260Y345250D02*
X202260Y340550D01*
X197660Y340550D01*
X197660Y345250D01*
X197660Y344920D02*
X202260Y344920D01*
X211760Y340550D02*
X216360Y340550D01*
X211760Y340550D02*
X211760Y345250D01*
X216360Y345250D01*
X216360Y340550D01*
X216360Y344920D02*
X211760Y344920D01*
X187150Y325310D02*
X182550Y325310D01*
X182550Y330010D01*
X187150Y330010D01*
X187150Y325310D01*
X187150Y329680D02*
X182550Y329680D01*
X173050Y330010D02*
X168450Y330010D01*
X173050Y330010D02*
X173050Y325310D01*
X168450Y325310D01*
X168450Y330010D01*
X168450Y329680D02*
X173050Y329680D01*
X182550Y340550D02*
X187150Y340550D01*
X182550Y340550D02*
X182550Y345250D01*
X187150Y345250D01*
X187150Y340550D01*
X187150Y344920D02*
X182550Y344920D01*
X173050Y345250D02*
X168450Y345250D01*
X173050Y345250D02*
X173050Y340550D01*
X168450Y340550D01*
X168450Y345250D01*
X168450Y344920D02*
X173050Y344920D01*
D13*
X127000Y25400D03*
X101600Y25400D03*
X76200Y25400D03*
X50800Y25400D03*
X254000Y25400D03*
X279400Y25400D03*
X304800Y25400D03*
X330200Y25400D03*
X177800Y25400D03*
X203200Y25400D03*
D14*
X149463Y194087D02*
X145837Y194087D01*
X145837Y199613D01*
X149463Y199613D01*
X149463Y194087D01*
X149463Y197672D02*
X145837Y197672D01*
X133563Y199613D02*
X129937Y199613D01*
X133563Y199613D02*
X133563Y194087D01*
X129937Y194087D01*
X129937Y199613D01*
X129937Y197672D02*
X133563Y197672D01*
X145837Y130587D02*
X149463Y130587D01*
X145837Y130587D02*
X145837Y136113D01*
X149463Y136113D01*
X149463Y130587D01*
X149463Y134172D02*
X145837Y134172D01*
X133563Y136113D02*
X129937Y136113D01*
X133563Y136113D02*
X133563Y130587D01*
X129937Y130587D01*
X129937Y136113D01*
X129937Y134172D02*
X133563Y134172D01*
D15*
X237490Y212090D03*
X217479Y265121D03*
X133350Y226500D03*
X163000Y309880D03*
X266700Y375920D03*
X139700Y379730D03*
X143816Y453390D03*
X161740Y447040D03*
X81458Y182654D03*
X131510Y106680D03*
X200700Y105410D03*
X367058Y354330D03*
X257810Y124460D03*
D16*
X152400Y46990D02*
X152400Y25400D01*
X152400Y46990D02*
X156210Y50800D01*
D15*
X156210Y50800D03*
D16*
X228600Y25400D02*
X254000Y25400D01*
D17*
X170750Y327660D02*
X170750Y342900D01*
X152400Y342900D01*
D15*
X152400Y342900D03*
D17*
X170750Y327660D02*
X170750Y318200D01*
X172720Y316230D01*
X212090Y316230D01*
X214060Y318200D01*
X214060Y327660D01*
X214060Y342900D01*
D15*
X129540Y240030D03*
D17*
X115570Y240030D01*
X115570Y225680D01*
X115796Y225454D01*
D15*
X115796Y225454D03*
D17*
X177800Y311150D02*
X172720Y316230D01*
X177800Y311150D02*
X177800Y310924D01*
D15*
X177800Y310924D03*
X330200Y168910D03*
D17*
X330200Y182654D01*
D15*
X330200Y182654D03*
X177800Y236500D03*
D17*
X204190Y236500D01*
X304800Y31750D02*
X304800Y25400D01*
X304800Y31750D02*
X220980Y115570D01*
X220980Y219710D02*
X204190Y236500D01*
X220980Y219710D02*
X220980Y115570D01*
D15*
X177800Y225306D03*
D17*
X207010Y225306D01*
X215900Y216416D01*
X215900Y88900D02*
X279400Y25400D01*
X215900Y88900D02*
X215900Y216416D01*
D15*
X247650Y198120D03*
D17*
X267970Y218440D01*
D15*
X267970Y330200D03*
D17*
X267970Y218440D01*
D15*
X254000Y260350D03*
X254000Y355600D03*
D17*
X254000Y260350D01*
D15*
X292100Y195580D03*
D17*
X331470Y189230D02*
X349250Y189230D01*
X331470Y189230D02*
X330200Y190500D01*
X325120Y195580D02*
X292100Y195580D01*
X325120Y195580D02*
X330200Y190500D01*
D15*
X279400Y254000D03*
D17*
X299720Y248920D02*
X349250Y248920D01*
X299720Y248920D02*
X294640Y254000D01*
X279400Y254000D01*
D15*
X190500Y257841D03*
D17*
X186659Y257841D01*
X181635Y262865D01*
X114300Y262865D02*
X96520Y245085D01*
D15*
X96520Y186690D03*
D17*
X114300Y262865D02*
X181635Y262865D01*
X96520Y245085D02*
X96520Y186690D01*
X93980Y189230D02*
X30480Y189230D01*
X93980Y189230D02*
X96520Y186690D01*
D15*
X190500Y266929D03*
D17*
X109064Y266929D02*
X96327Y254193D01*
D15*
X96327Y254193D03*
D17*
X109064Y266929D02*
X190500Y266929D01*
X37023Y254193D02*
X30480Y247650D01*
X37023Y254193D02*
X96327Y254193D01*
D15*
X127000Y342900D03*
D17*
X127000Y444500D01*
X114300Y457200D01*
D15*
X114300Y457200D03*
D17*
X113030Y458470D02*
X76200Y458470D01*
X113030Y458470D02*
X114300Y457200D01*
D15*
X119380Y387350D03*
X107950Y419406D03*
D17*
X108738Y418618D01*
X119380Y407976D01*
X119380Y387350D01*
X99366Y427990D02*
X76200Y427990D01*
X99366Y427990D02*
X107950Y419406D01*
D15*
X111986Y368300D03*
D17*
X105410Y368300D01*
X82296Y391414D02*
X76200Y397510D01*
X82296Y391414D02*
X90057Y391414D01*
X91694Y389777D01*
X91694Y382016D01*
X105410Y368300D01*
D15*
X104930Y381000D03*
D17*
X101600Y384330D01*
X101600Y406400D01*
X95250Y412750D01*
X76200Y412750D01*
D15*
X167640Y256289D03*
D17*
X165351Y254000D01*
X114300Y254000D01*
X104140Y243840D01*
X104140Y64770D02*
X76200Y36830D01*
X76200Y25400D01*
X104140Y64770D02*
X104140Y243840D01*
D15*
X167640Y247201D03*
D17*
X109220Y242570D02*
X109220Y58420D01*
X101600Y50800D01*
X101600Y25400D01*
X109220Y242570D02*
X113851Y247201D01*
X167640Y247201D01*
D15*
X182880Y152400D03*
D17*
X201930Y152400D01*
D15*
X201930Y152400D03*
D17*
X182880Y152400D02*
X143510Y152400D01*
X141605Y154305D01*
X139700Y156210D01*
X141605Y139395D02*
X147650Y133350D01*
X141605Y139395D02*
X141605Y154305D01*
D15*
X195150Y175690D03*
X186424Y185564D03*
D17*
X195150Y176838D01*
X195150Y175690D01*
X151274Y185564D02*
X139700Y173990D01*
X151274Y185564D02*
X186424Y185564D01*
X151274Y193226D02*
X147650Y196850D01*
X151274Y193226D02*
X151274Y185564D01*
D15*
X133576Y281500D03*
D17*
X88900Y326176D01*
X88900Y330200D01*
D15*
X88900Y330200D03*
X139700Y304800D03*
D17*
X139700Y330200D01*
D15*
X139700Y368300D03*
D17*
X139700Y330200D01*
X128270Y330200D02*
X76200Y382270D01*
X128270Y330200D02*
X139700Y330200D01*
D15*
X209550Y247650D03*
D17*
X225044Y232156D01*
X225044Y123603D01*
X268637Y80010D01*
X303530Y80010D01*
D15*
X303530Y80010D03*
D17*
X303530Y58420D02*
X304800Y57150D01*
X303530Y58420D02*
X303530Y80010D01*
D15*
X102870Y440690D03*
D17*
X78740Y440690D01*
X76200Y443230D01*
M02*
