G04 EAGLE Gerber RS-274X export*
G75*
%MOMM*%
%FSLAX34Y34*%
%LPD*%
%INSilkscreen Top*%
%IPPOS*%
%AMOC8*
5,1,8,0,0,1.08239X$1,22.5*%
G01*
%ADD10C,0.025400*%
%ADD11C,0.127000*%
%ADD12C,0.050800*%
%ADD13C,0.152400*%
%ADD14C,0.203200*%
%ADD15C,0.120000*%
%ADD16C,0.200000*%


D10*
X45847Y10033D02*
X47032Y6477D01*
X48218Y10033D01*
X49588Y10033D02*
X49588Y6477D01*
X49588Y10033D02*
X50576Y10033D01*
X50638Y10031D01*
X50700Y10025D01*
X50761Y10015D01*
X50822Y10002D01*
X50881Y9985D01*
X50940Y9964D01*
X50997Y9939D01*
X51052Y9911D01*
X51105Y9879D01*
X51157Y9844D01*
X51206Y9806D01*
X51252Y9765D01*
X51296Y9721D01*
X51337Y9675D01*
X51375Y9626D01*
X51410Y9574D01*
X51442Y9521D01*
X51470Y9466D01*
X51495Y9409D01*
X51516Y9350D01*
X51533Y9291D01*
X51546Y9230D01*
X51556Y9169D01*
X51562Y9107D01*
X51564Y9045D01*
X51563Y9045D02*
X51563Y7465D01*
X51564Y7465D02*
X51562Y7403D01*
X51556Y7341D01*
X51546Y7280D01*
X51533Y7219D01*
X51516Y7160D01*
X51495Y7101D01*
X51470Y7044D01*
X51442Y6989D01*
X51410Y6936D01*
X51375Y6884D01*
X51337Y6835D01*
X51296Y6789D01*
X51252Y6745D01*
X51206Y6704D01*
X51157Y6666D01*
X51105Y6631D01*
X51052Y6599D01*
X50997Y6571D01*
X50940Y6546D01*
X50881Y6525D01*
X50822Y6508D01*
X50761Y6495D01*
X50700Y6485D01*
X50638Y6479D01*
X50576Y6477D01*
X49588Y6477D01*
X53245Y6477D02*
X53245Y10033D01*
X54233Y10033D01*
X54295Y10031D01*
X54357Y10025D01*
X54418Y10015D01*
X54479Y10002D01*
X54538Y9985D01*
X54597Y9964D01*
X54654Y9939D01*
X54709Y9911D01*
X54762Y9879D01*
X54814Y9844D01*
X54863Y9806D01*
X54909Y9765D01*
X54953Y9721D01*
X54994Y9675D01*
X55032Y9626D01*
X55067Y9574D01*
X55099Y9521D01*
X55127Y9466D01*
X55152Y9409D01*
X55173Y9350D01*
X55190Y9291D01*
X55203Y9230D01*
X55213Y9169D01*
X55219Y9107D01*
X55221Y9045D01*
X55221Y7465D01*
X55219Y7403D01*
X55213Y7341D01*
X55203Y7280D01*
X55190Y7219D01*
X55173Y7160D01*
X55152Y7101D01*
X55127Y7044D01*
X55099Y6989D01*
X55067Y6936D01*
X55032Y6884D01*
X54994Y6835D01*
X54953Y6789D01*
X54909Y6745D01*
X54863Y6704D01*
X54814Y6666D01*
X54762Y6631D01*
X54709Y6599D01*
X54654Y6571D01*
X54597Y6546D01*
X54538Y6525D01*
X54479Y6508D01*
X54418Y6495D01*
X54357Y6485D01*
X54295Y6479D01*
X54233Y6477D01*
X53245Y6477D01*
X73505Y6477D02*
X73505Y10033D01*
X72517Y10033D02*
X74493Y10033D01*
X77890Y10033D02*
X75520Y6477D01*
X77890Y6477D02*
X75520Y10033D01*
X97917Y10033D02*
X97917Y6477D01*
X97917Y10033D02*
X98905Y10033D01*
X98967Y10031D01*
X99029Y10025D01*
X99090Y10015D01*
X99151Y10002D01*
X99210Y9985D01*
X99269Y9964D01*
X99326Y9939D01*
X99381Y9911D01*
X99434Y9879D01*
X99486Y9844D01*
X99535Y9806D01*
X99581Y9765D01*
X99625Y9721D01*
X99666Y9675D01*
X99704Y9626D01*
X99739Y9574D01*
X99771Y9521D01*
X99799Y9466D01*
X99824Y9409D01*
X99845Y9350D01*
X99862Y9291D01*
X99875Y9230D01*
X99885Y9169D01*
X99891Y9107D01*
X99893Y9045D01*
X99891Y8983D01*
X99885Y8921D01*
X99875Y8860D01*
X99862Y8799D01*
X99845Y8740D01*
X99824Y8681D01*
X99799Y8624D01*
X99771Y8569D01*
X99739Y8516D01*
X99704Y8464D01*
X99666Y8415D01*
X99625Y8369D01*
X99581Y8325D01*
X99535Y8284D01*
X99486Y8246D01*
X99434Y8211D01*
X99381Y8179D01*
X99326Y8151D01*
X99269Y8126D01*
X99210Y8105D01*
X99151Y8088D01*
X99090Y8075D01*
X99029Y8065D01*
X98967Y8059D01*
X98905Y8057D01*
X97917Y8057D01*
X99102Y8057D02*
X99893Y6477D01*
X101128Y6477D02*
X103499Y10033D01*
X101128Y10033D02*
X103499Y6477D01*
X123430Y8453D02*
X124023Y8453D01*
X124023Y6477D01*
X122837Y6477D01*
X122783Y6479D01*
X122729Y6484D01*
X122676Y6494D01*
X122624Y6506D01*
X122572Y6523D01*
X122522Y6542D01*
X122474Y6566D01*
X122427Y6592D01*
X122381Y6622D01*
X122338Y6654D01*
X122298Y6690D01*
X122260Y6728D01*
X122224Y6768D01*
X122192Y6811D01*
X122162Y6857D01*
X122136Y6904D01*
X122112Y6952D01*
X122093Y7002D01*
X122076Y7054D01*
X122064Y7106D01*
X122054Y7159D01*
X122049Y7213D01*
X122047Y7267D01*
X122047Y9243D01*
X122049Y9297D01*
X122054Y9351D01*
X122064Y9404D01*
X122076Y9456D01*
X122093Y9508D01*
X122112Y9558D01*
X122136Y9606D01*
X122162Y9653D01*
X122192Y9699D01*
X122224Y9742D01*
X122260Y9782D01*
X122298Y9820D01*
X122338Y9856D01*
X122381Y9888D01*
X122427Y9918D01*
X122474Y9944D01*
X122522Y9968D01*
X122572Y9987D01*
X122624Y10004D01*
X122676Y10016D01*
X122729Y10026D01*
X122783Y10031D01*
X122837Y10033D01*
X124023Y10033D01*
X125705Y10033D02*
X125705Y6477D01*
X127680Y6477D02*
X125705Y10033D01*
X127680Y10033D02*
X127680Y6477D01*
X129362Y6477D02*
X129362Y10033D01*
X130350Y10033D01*
X130412Y10031D01*
X130474Y10025D01*
X130535Y10015D01*
X130596Y10002D01*
X130655Y9985D01*
X130714Y9964D01*
X130771Y9939D01*
X130826Y9911D01*
X130879Y9879D01*
X130931Y9844D01*
X130980Y9806D01*
X131026Y9765D01*
X131070Y9721D01*
X131111Y9675D01*
X131149Y9626D01*
X131184Y9574D01*
X131216Y9521D01*
X131244Y9466D01*
X131269Y9409D01*
X131290Y9350D01*
X131307Y9291D01*
X131320Y9230D01*
X131330Y9169D01*
X131336Y9107D01*
X131338Y9045D01*
X131338Y7465D01*
X131336Y7403D01*
X131330Y7341D01*
X131320Y7280D01*
X131307Y7219D01*
X131290Y7160D01*
X131269Y7101D01*
X131244Y7044D01*
X131216Y6989D01*
X131184Y6936D01*
X131149Y6884D01*
X131111Y6835D01*
X131070Y6789D01*
X131026Y6745D01*
X130980Y6704D01*
X130931Y6666D01*
X130879Y6631D01*
X130826Y6599D01*
X130771Y6571D01*
X130714Y6546D01*
X130655Y6525D01*
X130596Y6508D01*
X130535Y6495D01*
X130474Y6485D01*
X130412Y6479D01*
X130350Y6477D01*
X129362Y6477D01*
X174230Y8453D02*
X174823Y8453D01*
X174823Y6477D01*
X173637Y6477D01*
X173583Y6479D01*
X173529Y6484D01*
X173476Y6494D01*
X173424Y6506D01*
X173372Y6523D01*
X173322Y6542D01*
X173274Y6566D01*
X173227Y6592D01*
X173181Y6622D01*
X173138Y6654D01*
X173098Y6690D01*
X173060Y6728D01*
X173024Y6768D01*
X172992Y6811D01*
X172962Y6857D01*
X172936Y6904D01*
X172912Y6952D01*
X172893Y7002D01*
X172876Y7054D01*
X172864Y7106D01*
X172854Y7159D01*
X172849Y7213D01*
X172847Y7267D01*
X172847Y9243D01*
X172849Y9297D01*
X172854Y9351D01*
X172864Y9404D01*
X172876Y9456D01*
X172893Y9508D01*
X172912Y9558D01*
X172936Y9606D01*
X172962Y9653D01*
X172992Y9699D01*
X173024Y9742D01*
X173060Y9782D01*
X173098Y9820D01*
X173138Y9856D01*
X173181Y9888D01*
X173227Y9918D01*
X173274Y9944D01*
X173322Y9968D01*
X173372Y9987D01*
X173424Y10004D01*
X173476Y10016D01*
X173529Y10026D01*
X173583Y10031D01*
X173637Y10033D01*
X174823Y10033D01*
X176505Y10033D02*
X176505Y6477D01*
X178480Y6477D02*
X176505Y10033D01*
X178480Y10033D02*
X178480Y6477D01*
X180162Y6477D02*
X180162Y10033D01*
X181150Y10033D01*
X181212Y10031D01*
X181274Y10025D01*
X181335Y10015D01*
X181396Y10002D01*
X181455Y9985D01*
X181514Y9964D01*
X181571Y9939D01*
X181626Y9911D01*
X181679Y9879D01*
X181731Y9844D01*
X181780Y9806D01*
X181826Y9765D01*
X181870Y9721D01*
X181911Y9675D01*
X181949Y9626D01*
X181984Y9574D01*
X182016Y9521D01*
X182044Y9466D01*
X182069Y9409D01*
X182090Y9350D01*
X182107Y9291D01*
X182120Y9230D01*
X182130Y9169D01*
X182136Y9107D01*
X182138Y9045D01*
X182138Y7465D01*
X182136Y7403D01*
X182130Y7341D01*
X182120Y7280D01*
X182107Y7219D01*
X182090Y7160D01*
X182069Y7101D01*
X182044Y7044D01*
X182016Y6989D01*
X181984Y6936D01*
X181949Y6884D01*
X181911Y6835D01*
X181870Y6789D01*
X181826Y6745D01*
X181780Y6704D01*
X181731Y6666D01*
X181679Y6631D01*
X181626Y6599D01*
X181571Y6571D01*
X181514Y6546D01*
X181455Y6525D01*
X181396Y6508D01*
X181335Y6495D01*
X181274Y6485D01*
X181212Y6479D01*
X181150Y6477D01*
X180162Y6477D01*
X199517Y10033D02*
X200702Y6477D01*
X201888Y10033D01*
X203445Y10033D02*
X203445Y6477D01*
X203050Y6477D02*
X203841Y6477D01*
X203841Y10033D02*
X203050Y10033D01*
X205315Y10033D02*
X205315Y6477D01*
X207291Y6477D02*
X205315Y10033D01*
X207291Y10033D02*
X207291Y6477D01*
X249160Y8453D02*
X249753Y8453D01*
X249753Y6477D01*
X248567Y6477D01*
X248513Y6479D01*
X248459Y6484D01*
X248406Y6494D01*
X248354Y6506D01*
X248302Y6523D01*
X248252Y6542D01*
X248204Y6566D01*
X248157Y6592D01*
X248111Y6622D01*
X248068Y6654D01*
X248028Y6690D01*
X247990Y6728D01*
X247954Y6768D01*
X247922Y6811D01*
X247892Y6857D01*
X247866Y6904D01*
X247842Y6952D01*
X247823Y7002D01*
X247806Y7054D01*
X247794Y7106D01*
X247784Y7159D01*
X247779Y7213D01*
X247777Y7267D01*
X247777Y9243D01*
X247779Y9297D01*
X247784Y9351D01*
X247794Y9404D01*
X247806Y9456D01*
X247823Y9508D01*
X247842Y9558D01*
X247866Y9606D01*
X247892Y9653D01*
X247922Y9699D01*
X247954Y9742D01*
X247990Y9782D01*
X248028Y9820D01*
X248068Y9856D01*
X248111Y9888D01*
X248157Y9918D01*
X248204Y9944D01*
X248252Y9968D01*
X248302Y9987D01*
X248354Y10004D01*
X248406Y10016D01*
X248459Y10026D01*
X248513Y10031D01*
X248567Y10033D01*
X249753Y10033D01*
X251435Y10033D02*
X251435Y6477D01*
X253410Y6477D02*
X251435Y10033D01*
X253410Y10033D02*
X253410Y6477D01*
X255092Y6477D02*
X255092Y10033D01*
X256080Y10033D01*
X256142Y10031D01*
X256204Y10025D01*
X256265Y10015D01*
X256326Y10002D01*
X256385Y9985D01*
X256444Y9964D01*
X256501Y9939D01*
X256556Y9911D01*
X256609Y9879D01*
X256661Y9844D01*
X256710Y9806D01*
X256756Y9765D01*
X256800Y9721D01*
X256841Y9675D01*
X256879Y9626D01*
X256914Y9574D01*
X256946Y9521D01*
X256974Y9466D01*
X256999Y9409D01*
X257020Y9350D01*
X257037Y9291D01*
X257050Y9230D01*
X257060Y9169D01*
X257066Y9107D01*
X257068Y9045D01*
X257068Y7465D01*
X257066Y7403D01*
X257060Y7341D01*
X257050Y7280D01*
X257037Y7219D01*
X257020Y7160D01*
X256999Y7101D01*
X256974Y7044D01*
X256946Y6989D01*
X256914Y6936D01*
X256879Y6884D01*
X256841Y6835D01*
X256800Y6789D01*
X256756Y6745D01*
X256710Y6704D01*
X256661Y6666D01*
X256609Y6631D01*
X256556Y6599D01*
X256501Y6571D01*
X256444Y6546D01*
X256385Y6525D01*
X256326Y6508D01*
X256265Y6495D01*
X256204Y6485D01*
X256142Y6479D01*
X256080Y6477D01*
X255092Y6477D01*
X271822Y6477D02*
X271876Y6479D01*
X271930Y6484D01*
X271983Y6494D01*
X272035Y6506D01*
X272087Y6523D01*
X272137Y6542D01*
X272185Y6566D01*
X272232Y6592D01*
X272278Y6622D01*
X272321Y6654D01*
X272361Y6690D01*
X272399Y6728D01*
X272435Y6768D01*
X272467Y6811D01*
X272497Y6857D01*
X272523Y6904D01*
X272547Y6952D01*
X272566Y7002D01*
X272583Y7054D01*
X272595Y7106D01*
X272605Y7159D01*
X272610Y7213D01*
X272612Y7267D01*
X271822Y6477D02*
X271745Y6479D01*
X271667Y6484D01*
X271590Y6493D01*
X271514Y6506D01*
X271438Y6522D01*
X271363Y6541D01*
X271289Y6564D01*
X271216Y6591D01*
X271144Y6621D01*
X271074Y6654D01*
X271006Y6690D01*
X270939Y6730D01*
X270874Y6772D01*
X270812Y6818D01*
X270751Y6866D01*
X270693Y6917D01*
X270637Y6971D01*
X270736Y9243D02*
X270738Y9297D01*
X270743Y9351D01*
X270753Y9404D01*
X270765Y9456D01*
X270782Y9508D01*
X270801Y9558D01*
X270825Y9606D01*
X270851Y9653D01*
X270881Y9699D01*
X270913Y9742D01*
X270949Y9782D01*
X270987Y9820D01*
X271027Y9856D01*
X271070Y9888D01*
X271116Y9918D01*
X271163Y9944D01*
X271211Y9968D01*
X271261Y9987D01*
X271313Y10004D01*
X271365Y10016D01*
X271418Y10026D01*
X271472Y10031D01*
X271526Y10033D01*
X271599Y10031D01*
X271672Y10026D01*
X271745Y10017D01*
X271818Y10004D01*
X271889Y9988D01*
X271960Y9968D01*
X272029Y9945D01*
X272098Y9918D01*
X272165Y9888D01*
X272230Y9855D01*
X272294Y9819D01*
X272355Y9779D01*
X272415Y9737D01*
X271130Y8551D02*
X271083Y8581D01*
X271039Y8614D01*
X270996Y8650D01*
X270957Y8689D01*
X270920Y8730D01*
X270886Y8774D01*
X270855Y8821D01*
X270827Y8869D01*
X270803Y8919D01*
X270783Y8971D01*
X270766Y9023D01*
X270752Y9077D01*
X270743Y9132D01*
X270737Y9187D01*
X270735Y9243D01*
X272218Y7959D02*
X272265Y7929D01*
X272309Y7896D01*
X272352Y7860D01*
X272391Y7821D01*
X272428Y7779D01*
X272462Y7735D01*
X272493Y7689D01*
X272521Y7641D01*
X272545Y7591D01*
X272565Y7539D01*
X272582Y7486D01*
X272596Y7433D01*
X272605Y7378D01*
X272611Y7323D01*
X272613Y7267D01*
X272217Y7959D02*
X271131Y8551D01*
X273816Y10033D02*
X274606Y6477D01*
X275397Y8848D01*
X276187Y6477D01*
X276977Y10033D01*
X279076Y6477D02*
X279866Y6477D01*
X279076Y6477D02*
X279022Y6479D01*
X278968Y6484D01*
X278915Y6494D01*
X278863Y6506D01*
X278811Y6523D01*
X278761Y6542D01*
X278713Y6566D01*
X278666Y6592D01*
X278620Y6622D01*
X278577Y6654D01*
X278537Y6690D01*
X278499Y6728D01*
X278463Y6768D01*
X278431Y6811D01*
X278401Y6857D01*
X278375Y6904D01*
X278351Y6952D01*
X278332Y7002D01*
X278315Y7054D01*
X278303Y7106D01*
X278293Y7159D01*
X278288Y7213D01*
X278286Y7267D01*
X278286Y9243D01*
X278288Y9297D01*
X278293Y9351D01*
X278303Y9404D01*
X278315Y9456D01*
X278332Y9508D01*
X278351Y9558D01*
X278375Y9606D01*
X278401Y9653D01*
X278431Y9699D01*
X278463Y9742D01*
X278499Y9782D01*
X278537Y9820D01*
X278577Y9856D01*
X278620Y9888D01*
X278666Y9918D01*
X278713Y9944D01*
X278761Y9968D01*
X278811Y9987D01*
X278863Y10004D01*
X278915Y10016D01*
X278968Y10026D01*
X279022Y10031D01*
X279076Y10033D01*
X279866Y10033D01*
X281273Y10033D02*
X281273Y6477D01*
X282853Y6477D01*
X284285Y6477D02*
X284285Y10033D01*
X286261Y10033D02*
X284285Y7860D01*
X285075Y8650D02*
X286261Y6477D01*
X297222Y6477D02*
X297276Y6479D01*
X297330Y6484D01*
X297383Y6494D01*
X297435Y6506D01*
X297487Y6523D01*
X297537Y6542D01*
X297585Y6566D01*
X297632Y6592D01*
X297678Y6622D01*
X297721Y6654D01*
X297761Y6690D01*
X297799Y6728D01*
X297835Y6768D01*
X297867Y6811D01*
X297897Y6857D01*
X297923Y6904D01*
X297947Y6952D01*
X297966Y7002D01*
X297983Y7054D01*
X297995Y7106D01*
X298005Y7159D01*
X298010Y7213D01*
X298012Y7267D01*
X297222Y6477D02*
X297145Y6479D01*
X297067Y6484D01*
X296990Y6493D01*
X296914Y6506D01*
X296838Y6522D01*
X296763Y6541D01*
X296689Y6564D01*
X296616Y6591D01*
X296544Y6621D01*
X296474Y6654D01*
X296406Y6690D01*
X296339Y6730D01*
X296274Y6772D01*
X296212Y6818D01*
X296151Y6866D01*
X296093Y6917D01*
X296037Y6971D01*
X296136Y9243D02*
X296138Y9297D01*
X296143Y9351D01*
X296153Y9404D01*
X296165Y9456D01*
X296182Y9508D01*
X296201Y9558D01*
X296225Y9606D01*
X296251Y9653D01*
X296281Y9699D01*
X296313Y9742D01*
X296349Y9782D01*
X296387Y9820D01*
X296427Y9856D01*
X296470Y9888D01*
X296516Y9918D01*
X296563Y9944D01*
X296611Y9968D01*
X296661Y9987D01*
X296713Y10004D01*
X296765Y10016D01*
X296818Y10026D01*
X296872Y10031D01*
X296926Y10033D01*
X296999Y10031D01*
X297072Y10026D01*
X297145Y10017D01*
X297218Y10004D01*
X297289Y9988D01*
X297360Y9968D01*
X297429Y9945D01*
X297498Y9918D01*
X297565Y9888D01*
X297630Y9855D01*
X297694Y9819D01*
X297755Y9779D01*
X297815Y9737D01*
X296530Y8551D02*
X296483Y8581D01*
X296439Y8614D01*
X296396Y8650D01*
X296357Y8689D01*
X296320Y8730D01*
X296286Y8774D01*
X296255Y8821D01*
X296227Y8869D01*
X296203Y8919D01*
X296183Y8971D01*
X296166Y9023D01*
X296152Y9077D01*
X296143Y9132D01*
X296137Y9187D01*
X296135Y9243D01*
X297618Y7959D02*
X297665Y7929D01*
X297709Y7896D01*
X297752Y7860D01*
X297791Y7821D01*
X297828Y7779D01*
X297862Y7735D01*
X297893Y7689D01*
X297921Y7641D01*
X297945Y7591D01*
X297965Y7539D01*
X297982Y7486D01*
X297996Y7433D01*
X298005Y7378D01*
X298011Y7323D01*
X298013Y7267D01*
X297617Y7959D02*
X296531Y8551D01*
X299216Y10033D02*
X300006Y6477D01*
X300797Y8848D01*
X301587Y6477D01*
X302377Y10033D01*
X303809Y10033D02*
X303809Y6477D01*
X303809Y10033D02*
X304797Y10033D01*
X304859Y10031D01*
X304921Y10025D01*
X304982Y10015D01*
X305043Y10002D01*
X305102Y9985D01*
X305161Y9964D01*
X305218Y9939D01*
X305273Y9911D01*
X305326Y9879D01*
X305378Y9844D01*
X305427Y9806D01*
X305473Y9765D01*
X305517Y9721D01*
X305558Y9675D01*
X305596Y9626D01*
X305631Y9574D01*
X305663Y9521D01*
X305691Y9466D01*
X305716Y9409D01*
X305737Y9350D01*
X305754Y9291D01*
X305767Y9230D01*
X305777Y9169D01*
X305783Y9107D01*
X305785Y9045D01*
X305785Y7465D01*
X305783Y7403D01*
X305777Y7341D01*
X305767Y7280D01*
X305754Y7219D01*
X305737Y7160D01*
X305716Y7101D01*
X305691Y7044D01*
X305663Y6989D01*
X305631Y6936D01*
X305596Y6884D01*
X305558Y6835D01*
X305517Y6789D01*
X305473Y6745D01*
X305427Y6704D01*
X305378Y6666D01*
X305326Y6631D01*
X305273Y6599D01*
X305218Y6571D01*
X305161Y6546D01*
X305102Y6525D01*
X305043Y6508D01*
X304982Y6495D01*
X304921Y6485D01*
X304859Y6479D01*
X304797Y6477D01*
X303809Y6477D01*
X307655Y6477D02*
X307655Y10033D01*
X307259Y6477D02*
X308050Y6477D01*
X308050Y10033D02*
X307259Y10033D01*
X309410Y9045D02*
X309410Y7465D01*
X309410Y9045D02*
X309412Y9107D01*
X309418Y9169D01*
X309428Y9230D01*
X309441Y9291D01*
X309458Y9350D01*
X309479Y9409D01*
X309504Y9466D01*
X309532Y9521D01*
X309564Y9574D01*
X309599Y9626D01*
X309637Y9675D01*
X309678Y9721D01*
X309722Y9765D01*
X309768Y9806D01*
X309817Y9844D01*
X309869Y9879D01*
X309922Y9911D01*
X309977Y9939D01*
X310034Y9964D01*
X310093Y9985D01*
X310152Y10002D01*
X310213Y10015D01*
X310274Y10025D01*
X310336Y10031D01*
X310398Y10033D01*
X310460Y10031D01*
X310522Y10025D01*
X310583Y10015D01*
X310644Y10002D01*
X310703Y9985D01*
X310762Y9964D01*
X310819Y9939D01*
X310874Y9911D01*
X310927Y9879D01*
X310979Y9844D01*
X311028Y9806D01*
X311074Y9765D01*
X311118Y9721D01*
X311159Y9675D01*
X311197Y9626D01*
X311232Y9574D01*
X311264Y9521D01*
X311292Y9466D01*
X311317Y9409D01*
X311338Y9350D01*
X311355Y9291D01*
X311368Y9230D01*
X311378Y9169D01*
X311384Y9107D01*
X311386Y9045D01*
X311386Y7465D01*
X311384Y7403D01*
X311378Y7341D01*
X311368Y7280D01*
X311355Y7219D01*
X311338Y7160D01*
X311317Y7101D01*
X311292Y7044D01*
X311264Y6989D01*
X311232Y6936D01*
X311197Y6884D01*
X311159Y6835D01*
X311118Y6789D01*
X311074Y6745D01*
X311028Y6704D01*
X310979Y6666D01*
X310927Y6631D01*
X310874Y6599D01*
X310819Y6571D01*
X310762Y6546D01*
X310703Y6525D01*
X310644Y6508D01*
X310583Y6495D01*
X310522Y6485D01*
X310460Y6479D01*
X310398Y6477D01*
X310336Y6479D01*
X310274Y6485D01*
X310213Y6495D01*
X310152Y6508D01*
X310093Y6525D01*
X310034Y6546D01*
X309977Y6571D01*
X309922Y6599D01*
X309869Y6631D01*
X309817Y6666D01*
X309768Y6704D01*
X309722Y6745D01*
X309678Y6789D01*
X309637Y6835D01*
X309599Y6884D01*
X309564Y6936D01*
X309532Y6989D01*
X309504Y7044D01*
X309479Y7101D01*
X309458Y7160D01*
X309441Y7219D01*
X309428Y7280D01*
X309418Y7341D01*
X309412Y7403D01*
X309410Y7465D01*
X325247Y10033D02*
X326432Y6477D01*
X327618Y10033D01*
X328988Y10033D02*
X328988Y6477D01*
X328988Y10033D02*
X329976Y10033D01*
X330038Y10031D01*
X330100Y10025D01*
X330161Y10015D01*
X330222Y10002D01*
X330281Y9985D01*
X330340Y9964D01*
X330397Y9939D01*
X330452Y9911D01*
X330505Y9879D01*
X330557Y9844D01*
X330606Y9806D01*
X330652Y9765D01*
X330696Y9721D01*
X330737Y9675D01*
X330775Y9626D01*
X330810Y9574D01*
X330842Y9521D01*
X330870Y9466D01*
X330895Y9409D01*
X330916Y9350D01*
X330933Y9291D01*
X330946Y9230D01*
X330956Y9169D01*
X330962Y9107D01*
X330964Y9045D01*
X330963Y9045D02*
X330963Y7465D01*
X330964Y7465D02*
X330962Y7403D01*
X330956Y7341D01*
X330946Y7280D01*
X330933Y7219D01*
X330916Y7160D01*
X330895Y7101D01*
X330870Y7044D01*
X330842Y6989D01*
X330810Y6936D01*
X330775Y6884D01*
X330737Y6835D01*
X330696Y6789D01*
X330652Y6745D01*
X330606Y6704D01*
X330557Y6666D01*
X330505Y6631D01*
X330452Y6599D01*
X330397Y6571D01*
X330340Y6546D01*
X330281Y6525D01*
X330222Y6508D01*
X330161Y6495D01*
X330100Y6485D01*
X330038Y6479D01*
X329976Y6477D01*
X328988Y6477D01*
X332645Y6477D02*
X332645Y10033D01*
X333633Y10033D01*
X333695Y10031D01*
X333757Y10025D01*
X333818Y10015D01*
X333879Y10002D01*
X333938Y9985D01*
X333997Y9964D01*
X334054Y9939D01*
X334109Y9911D01*
X334162Y9879D01*
X334214Y9844D01*
X334263Y9806D01*
X334309Y9765D01*
X334353Y9721D01*
X334394Y9675D01*
X334432Y9626D01*
X334467Y9574D01*
X334499Y9521D01*
X334527Y9466D01*
X334552Y9409D01*
X334573Y9350D01*
X334590Y9291D01*
X334603Y9230D01*
X334613Y9169D01*
X334619Y9107D01*
X334621Y9045D01*
X334621Y7465D01*
X334619Y7403D01*
X334613Y7341D01*
X334603Y7280D01*
X334590Y7219D01*
X334573Y7160D01*
X334552Y7101D01*
X334527Y7044D01*
X334499Y6989D01*
X334467Y6936D01*
X334432Y6884D01*
X334394Y6835D01*
X334353Y6789D01*
X334309Y6745D01*
X334263Y6704D01*
X334214Y6666D01*
X334162Y6631D01*
X334109Y6599D01*
X334054Y6571D01*
X333997Y6546D01*
X333938Y6525D01*
X333879Y6508D01*
X333818Y6495D01*
X333757Y6485D01*
X333695Y6479D01*
X333633Y6477D01*
X332645Y6477D01*
X365520Y200787D02*
X365520Y203158D01*
X366705Y201972D02*
X364335Y201972D01*
X363347Y204787D02*
X366903Y204787D01*
X365323Y205973D02*
X363347Y204787D01*
X365323Y205973D02*
X363347Y207158D01*
X366903Y207158D01*
X364137Y208757D02*
X363347Y209745D01*
X366903Y209745D01*
X366903Y210732D02*
X366903Y208757D01*
X365520Y218567D02*
X365520Y220938D01*
X366903Y222567D02*
X363347Y222567D01*
X365323Y223753D01*
X363347Y224938D01*
X366903Y224938D01*
X364137Y226537D02*
X363347Y227525D01*
X366903Y227525D01*
X366903Y228512D02*
X366903Y226537D01*
X365520Y276987D02*
X365520Y279358D01*
X366903Y280987D02*
X363347Y280987D01*
X365323Y282173D01*
X363347Y283358D01*
X366903Y283358D01*
X363347Y286043D02*
X363349Y286101D01*
X363355Y286159D01*
X363364Y286216D01*
X363377Y286273D01*
X363394Y286329D01*
X363415Y286383D01*
X363439Y286436D01*
X363466Y286488D01*
X363497Y286537D01*
X363531Y286584D01*
X363568Y286629D01*
X363607Y286672D01*
X363650Y286711D01*
X363695Y286748D01*
X363742Y286782D01*
X363792Y286813D01*
X363843Y286840D01*
X363896Y286864D01*
X363950Y286885D01*
X364006Y286902D01*
X364063Y286915D01*
X364120Y286924D01*
X364178Y286930D01*
X364236Y286932D01*
X363347Y286043D02*
X363349Y285978D01*
X363354Y285913D01*
X363364Y285848D01*
X363377Y285784D01*
X363393Y285721D01*
X363414Y285659D01*
X363437Y285598D01*
X363464Y285539D01*
X363495Y285481D01*
X363529Y285425D01*
X363565Y285371D01*
X363605Y285320D01*
X363648Y285270D01*
X363694Y285224D01*
X363742Y285179D01*
X363792Y285138D01*
X363845Y285100D01*
X363900Y285065D01*
X363957Y285033D01*
X364016Y285004D01*
X364076Y284978D01*
X364137Y284957D01*
X364928Y286637D02*
X364885Y286678D01*
X364840Y286717D01*
X364793Y286754D01*
X364744Y286787D01*
X364692Y286817D01*
X364639Y286844D01*
X364585Y286867D01*
X364529Y286887D01*
X364471Y286904D01*
X364413Y286916D01*
X364355Y286926D01*
X364295Y286931D01*
X364236Y286933D01*
X364927Y286636D02*
X366903Y284957D01*
X366903Y286932D01*
X365520Y261578D02*
X365520Y259207D01*
X366705Y260392D02*
X364335Y260392D01*
X363347Y263207D02*
X366903Y263207D01*
X365323Y264393D02*
X363347Y263207D01*
X365323Y264393D02*
X363347Y265578D01*
X366903Y265578D01*
X363347Y268263D02*
X363349Y268321D01*
X363355Y268379D01*
X363364Y268436D01*
X363377Y268493D01*
X363394Y268549D01*
X363415Y268603D01*
X363439Y268656D01*
X363466Y268708D01*
X363497Y268757D01*
X363531Y268804D01*
X363568Y268849D01*
X363607Y268892D01*
X363650Y268931D01*
X363695Y268968D01*
X363742Y269002D01*
X363792Y269033D01*
X363843Y269060D01*
X363896Y269084D01*
X363950Y269105D01*
X364006Y269122D01*
X364063Y269135D01*
X364120Y269144D01*
X364178Y269150D01*
X364236Y269152D01*
X363347Y268263D02*
X363349Y268198D01*
X363354Y268133D01*
X363364Y268068D01*
X363377Y268004D01*
X363393Y267941D01*
X363414Y267879D01*
X363437Y267818D01*
X363464Y267759D01*
X363495Y267701D01*
X363529Y267645D01*
X363565Y267591D01*
X363605Y267540D01*
X363648Y267490D01*
X363694Y267444D01*
X363742Y267399D01*
X363792Y267358D01*
X363845Y267320D01*
X363900Y267285D01*
X363957Y267253D01*
X364016Y267224D01*
X364076Y267198D01*
X364137Y267177D01*
X364928Y268857D02*
X364885Y268898D01*
X364840Y268937D01*
X364793Y268974D01*
X364744Y269007D01*
X364692Y269037D01*
X364639Y269064D01*
X364585Y269087D01*
X364529Y269107D01*
X364471Y269124D01*
X364413Y269136D01*
X364355Y269146D01*
X364295Y269151D01*
X364236Y269153D01*
X364927Y268856D02*
X366903Y267177D01*
X366903Y269152D01*
X13730Y203158D02*
X13730Y200787D01*
X14915Y201972D02*
X12545Y201972D01*
X11557Y204787D02*
X15113Y204787D01*
X13533Y205973D02*
X11557Y204787D01*
X13533Y205973D02*
X11557Y207158D01*
X15113Y207158D01*
X15113Y208757D02*
X15113Y209745D01*
X15111Y209807D01*
X15105Y209869D01*
X15095Y209930D01*
X15082Y209991D01*
X15065Y210050D01*
X15044Y210109D01*
X15019Y210166D01*
X14991Y210221D01*
X14959Y210274D01*
X14924Y210326D01*
X14886Y210375D01*
X14845Y210421D01*
X14801Y210465D01*
X14755Y210506D01*
X14706Y210544D01*
X14654Y210579D01*
X14601Y210611D01*
X14546Y210639D01*
X14489Y210664D01*
X14430Y210685D01*
X14371Y210702D01*
X14310Y210715D01*
X14249Y210725D01*
X14187Y210731D01*
X14125Y210733D01*
X14063Y210731D01*
X14001Y210725D01*
X13940Y210715D01*
X13879Y210702D01*
X13820Y210685D01*
X13761Y210664D01*
X13704Y210639D01*
X13649Y210611D01*
X13596Y210579D01*
X13544Y210544D01*
X13495Y210506D01*
X13449Y210465D01*
X13405Y210421D01*
X13364Y210375D01*
X13326Y210326D01*
X13291Y210274D01*
X13259Y210221D01*
X13231Y210166D01*
X13206Y210109D01*
X13185Y210050D01*
X13168Y209991D01*
X13155Y209930D01*
X13145Y209869D01*
X13139Y209807D01*
X13137Y209745D01*
X11557Y209942D02*
X11557Y208757D01*
X11557Y209942D02*
X11559Y209997D01*
X11565Y210052D01*
X11574Y210106D01*
X11588Y210160D01*
X11605Y210212D01*
X11625Y210263D01*
X11649Y210313D01*
X11677Y210361D01*
X11708Y210406D01*
X11742Y210450D01*
X11779Y210491D01*
X11818Y210529D01*
X11861Y210565D01*
X11905Y210597D01*
X11952Y210626D01*
X12001Y210652D01*
X12051Y210674D01*
X12103Y210693D01*
X12156Y210709D01*
X12210Y210720D01*
X12264Y210728D01*
X12319Y210732D01*
X12375Y210732D01*
X12430Y210728D01*
X12484Y210720D01*
X12538Y210709D01*
X12591Y210693D01*
X12643Y210674D01*
X12693Y210652D01*
X12742Y210626D01*
X12789Y210597D01*
X12833Y210565D01*
X12876Y210529D01*
X12915Y210491D01*
X12952Y210450D01*
X12986Y210406D01*
X13017Y210361D01*
X13045Y210313D01*
X13069Y210263D01*
X13089Y210212D01*
X13106Y210160D01*
X13120Y210106D01*
X13129Y210052D01*
X13135Y209997D01*
X13137Y209942D01*
X13137Y209152D01*
X13730Y218567D02*
X13730Y220938D01*
X15113Y222567D02*
X11557Y222567D01*
X13533Y223753D01*
X11557Y224938D01*
X15113Y224938D01*
X15113Y226537D02*
X15113Y227525D01*
X15111Y227587D01*
X15105Y227649D01*
X15095Y227710D01*
X15082Y227771D01*
X15065Y227830D01*
X15044Y227889D01*
X15019Y227946D01*
X14991Y228001D01*
X14959Y228054D01*
X14924Y228106D01*
X14886Y228155D01*
X14845Y228201D01*
X14801Y228245D01*
X14755Y228286D01*
X14706Y228324D01*
X14654Y228359D01*
X14601Y228391D01*
X14546Y228419D01*
X14489Y228444D01*
X14430Y228465D01*
X14371Y228482D01*
X14310Y228495D01*
X14249Y228505D01*
X14187Y228511D01*
X14125Y228513D01*
X14063Y228511D01*
X14001Y228505D01*
X13940Y228495D01*
X13879Y228482D01*
X13820Y228465D01*
X13761Y228444D01*
X13704Y228419D01*
X13649Y228391D01*
X13596Y228359D01*
X13544Y228324D01*
X13495Y228286D01*
X13449Y228245D01*
X13405Y228201D01*
X13364Y228155D01*
X13326Y228106D01*
X13291Y228054D01*
X13259Y228001D01*
X13231Y227946D01*
X13206Y227889D01*
X13185Y227830D01*
X13168Y227771D01*
X13155Y227710D01*
X13145Y227649D01*
X13139Y227587D01*
X13137Y227525D01*
X11557Y227722D02*
X11557Y226537D01*
X11557Y227722D02*
X11559Y227777D01*
X11565Y227832D01*
X11574Y227886D01*
X11588Y227940D01*
X11605Y227992D01*
X11625Y228043D01*
X11649Y228093D01*
X11677Y228141D01*
X11708Y228186D01*
X11742Y228230D01*
X11779Y228271D01*
X11818Y228309D01*
X11861Y228345D01*
X11905Y228377D01*
X11952Y228406D01*
X12001Y228432D01*
X12051Y228454D01*
X12103Y228473D01*
X12156Y228489D01*
X12210Y228500D01*
X12264Y228508D01*
X12319Y228512D01*
X12375Y228512D01*
X12430Y228508D01*
X12484Y228500D01*
X12538Y228489D01*
X12591Y228473D01*
X12643Y228454D01*
X12693Y228432D01*
X12742Y228406D01*
X12789Y228377D01*
X12833Y228345D01*
X12876Y228309D01*
X12915Y228271D01*
X12952Y228230D01*
X12986Y228186D01*
X13017Y228141D01*
X13045Y228093D01*
X13069Y228043D01*
X13089Y227992D01*
X13106Y227940D01*
X13120Y227886D01*
X13129Y227832D01*
X13135Y227777D01*
X13137Y227722D01*
X13137Y226932D01*
X13730Y276987D02*
X13730Y279358D01*
X15113Y280987D02*
X11557Y280987D01*
X13533Y282173D01*
X11557Y283358D01*
X15113Y283358D01*
X14323Y284957D02*
X11557Y285747D01*
X14323Y284957D02*
X14323Y286932D01*
X13533Y286340D02*
X15113Y286340D01*
X13730Y261578D02*
X13730Y259207D01*
X14915Y260392D02*
X12545Y260392D01*
X11557Y263207D02*
X15113Y263207D01*
X13533Y264393D02*
X11557Y263207D01*
X13533Y264393D02*
X11557Y265578D01*
X15113Y265578D01*
X14323Y267177D02*
X11557Y267967D01*
X14323Y267177D02*
X14323Y269152D01*
X13533Y268560D02*
X15113Y268560D01*
D11*
X347150Y235530D02*
X351450Y235530D01*
X351250Y244530D02*
X346950Y244530D01*
D12*
X345681Y249202D02*
X346599Y249936D01*
X346599Y246634D01*
X347516Y246634D02*
X345681Y246634D01*
X349110Y248285D02*
X349112Y248388D01*
X349118Y248491D01*
X349127Y248593D01*
X349141Y248695D01*
X349158Y248796D01*
X349180Y248897D01*
X349205Y248997D01*
X349233Y249095D01*
X349266Y249193D01*
X349302Y249289D01*
X349342Y249384D01*
X349385Y249477D01*
X349386Y249477D02*
X349403Y249523D01*
X349425Y249568D01*
X349449Y249611D01*
X349476Y249653D01*
X349507Y249692D01*
X349540Y249729D01*
X349575Y249763D01*
X349613Y249795D01*
X349654Y249824D01*
X349696Y249849D01*
X349740Y249872D01*
X349786Y249891D01*
X349833Y249907D01*
X349881Y249920D01*
X349929Y249929D01*
X349978Y249934D01*
X350028Y249936D01*
X350078Y249934D01*
X350127Y249929D01*
X350175Y249920D01*
X350223Y249907D01*
X350270Y249891D01*
X350316Y249872D01*
X350360Y249849D01*
X350402Y249824D01*
X350443Y249795D01*
X350481Y249763D01*
X350516Y249729D01*
X350549Y249692D01*
X350580Y249653D01*
X350607Y249611D01*
X350631Y249568D01*
X350653Y249523D01*
X350670Y249477D01*
X350713Y249384D01*
X350753Y249289D01*
X350789Y249193D01*
X350822Y249095D01*
X350850Y248997D01*
X350875Y248897D01*
X350897Y248796D01*
X350914Y248695D01*
X350928Y248593D01*
X350937Y248491D01*
X350943Y248388D01*
X350945Y248285D01*
X349111Y248285D02*
X349113Y248182D01*
X349119Y248080D01*
X349128Y247977D01*
X349142Y247875D01*
X349159Y247774D01*
X349181Y247673D01*
X349206Y247573D01*
X349234Y247475D01*
X349267Y247377D01*
X349303Y247281D01*
X349343Y247186D01*
X349386Y247093D01*
X349403Y247047D01*
X349425Y247002D01*
X349449Y246959D01*
X349476Y246917D01*
X349507Y246878D01*
X349540Y246841D01*
X349575Y246807D01*
X349613Y246775D01*
X349654Y246746D01*
X349696Y246721D01*
X349740Y246698D01*
X349786Y246679D01*
X349833Y246663D01*
X349881Y246650D01*
X349929Y246641D01*
X349978Y246636D01*
X350028Y246634D01*
X350670Y247093D02*
X350713Y247186D01*
X350753Y247281D01*
X350789Y247377D01*
X350822Y247475D01*
X350850Y247573D01*
X350875Y247673D01*
X350897Y247774D01*
X350914Y247875D01*
X350928Y247977D01*
X350937Y248079D01*
X350943Y248182D01*
X350945Y248285D01*
X350670Y247093D02*
X350653Y247047D01*
X350631Y247002D01*
X350607Y246959D01*
X350580Y246917D01*
X350549Y246878D01*
X350516Y246841D01*
X350481Y246807D01*
X350443Y246775D01*
X350402Y246746D01*
X350360Y246721D01*
X350316Y246698D01*
X350270Y246679D01*
X350223Y246663D01*
X350175Y246650D01*
X350127Y246641D01*
X350078Y246636D01*
X350028Y246634D01*
X349294Y247368D02*
X350761Y249202D01*
X352608Y248835D02*
X352608Y246634D01*
X352608Y248835D02*
X353526Y248835D01*
X353571Y248833D01*
X353617Y248827D01*
X353661Y248818D01*
X353705Y248805D01*
X353747Y248789D01*
X353788Y248769D01*
X353827Y248745D01*
X353864Y248719D01*
X353899Y248690D01*
X353931Y248658D01*
X353960Y248623D01*
X353986Y248586D01*
X354010Y248547D01*
X354030Y248506D01*
X354046Y248464D01*
X354059Y248420D01*
X354068Y248376D01*
X354074Y248330D01*
X354076Y248285D01*
X354076Y246634D01*
D11*
X127830Y499800D02*
X123530Y499800D01*
X123730Y490800D02*
X128030Y490800D01*
D12*
X123944Y488696D02*
X123027Y487962D01*
X123944Y488696D02*
X123944Y485394D01*
X123027Y485394D02*
X124861Y485394D01*
X126548Y484293D02*
X126548Y487595D01*
X127466Y487595D01*
X127511Y487593D01*
X127557Y487587D01*
X127601Y487578D01*
X127645Y487565D01*
X127687Y487549D01*
X127728Y487529D01*
X127767Y487505D01*
X127804Y487479D01*
X127839Y487450D01*
X127871Y487418D01*
X127900Y487383D01*
X127926Y487346D01*
X127950Y487307D01*
X127970Y487266D01*
X127986Y487224D01*
X127999Y487180D01*
X128008Y487136D01*
X128014Y487090D01*
X128016Y487045D01*
X128016Y485944D01*
X128014Y485899D01*
X128008Y485853D01*
X127999Y485809D01*
X127986Y485765D01*
X127970Y485723D01*
X127950Y485682D01*
X127926Y485643D01*
X127900Y485606D01*
X127871Y485571D01*
X127839Y485539D01*
X127804Y485510D01*
X127767Y485484D01*
X127728Y485460D01*
X127687Y485440D01*
X127645Y485424D01*
X127601Y485411D01*
X127557Y485402D01*
X127511Y485396D01*
X127466Y485394D01*
X126548Y485394D01*
D11*
X250630Y471750D02*
X254930Y471750D01*
X254730Y480750D02*
X250430Y480750D01*
D12*
X249908Y469646D02*
X249174Y467078D01*
X251008Y467078D01*
X250458Y467812D02*
X250458Y466344D01*
X252400Y466344D02*
X252400Y466527D01*
X252583Y466527D01*
X252583Y466344D01*
X252400Y466344D01*
X253975Y469279D02*
X253975Y469646D01*
X255809Y469646D01*
X254892Y466344D01*
X257496Y465243D02*
X257496Y468545D01*
X258413Y468545D01*
X258458Y468543D01*
X258504Y468537D01*
X258548Y468528D01*
X258592Y468515D01*
X258634Y468499D01*
X258675Y468479D01*
X258714Y468455D01*
X258751Y468429D01*
X258786Y468400D01*
X258818Y468368D01*
X258847Y468333D01*
X258873Y468296D01*
X258897Y468257D01*
X258917Y468216D01*
X258933Y468174D01*
X258946Y468130D01*
X258955Y468086D01*
X258961Y468040D01*
X258963Y467995D01*
X258964Y467995D02*
X258964Y466894D01*
X258963Y466894D02*
X258961Y466849D01*
X258955Y466803D01*
X258946Y466759D01*
X258933Y466715D01*
X258917Y466673D01*
X258897Y466632D01*
X258873Y466593D01*
X258847Y466556D01*
X258818Y466521D01*
X258786Y466489D01*
X258751Y466460D01*
X258714Y466434D01*
X258675Y466410D01*
X258634Y466390D01*
X258592Y466374D01*
X258548Y466361D01*
X258504Y466352D01*
X258458Y466346D01*
X258413Y466344D01*
X257496Y466344D01*
D11*
X254930Y490800D02*
X250630Y490800D01*
X250430Y499800D02*
X254730Y499800D01*
D12*
X250183Y488697D02*
X250239Y488695D01*
X250295Y488689D01*
X250351Y488680D01*
X250406Y488666D01*
X250460Y488649D01*
X250512Y488629D01*
X250563Y488604D01*
X250612Y488577D01*
X250659Y488546D01*
X250704Y488512D01*
X250747Y488475D01*
X250787Y488435D01*
X250824Y488392D01*
X250858Y488347D01*
X250889Y488300D01*
X250916Y488251D01*
X250941Y488200D01*
X250961Y488148D01*
X250978Y488094D01*
X250992Y488039D01*
X251001Y487983D01*
X251007Y487927D01*
X251009Y487871D01*
X250183Y488696D02*
X250119Y488694D01*
X250056Y488688D01*
X249993Y488679D01*
X249931Y488666D01*
X249870Y488649D01*
X249810Y488628D01*
X249751Y488604D01*
X249694Y488577D01*
X249638Y488546D01*
X249585Y488511D01*
X249534Y488474D01*
X249484Y488434D01*
X249438Y488390D01*
X249394Y488344D01*
X249353Y488296D01*
X249315Y488245D01*
X249280Y488192D01*
X249248Y488137D01*
X249220Y488080D01*
X249195Y488022D01*
X249174Y487962D01*
X250734Y487229D02*
X250772Y487268D01*
X250809Y487310D01*
X250842Y487354D01*
X250873Y487399D01*
X250901Y487447D01*
X250926Y487496D01*
X250948Y487547D01*
X250966Y487599D01*
X250982Y487652D01*
X250994Y487706D01*
X251002Y487761D01*
X251007Y487816D01*
X251009Y487871D01*
X250733Y487228D02*
X249174Y485394D01*
X251008Y485394D01*
X252400Y485394D02*
X252400Y485577D01*
X252583Y485577D01*
X252583Y485394D01*
X252400Y485394D01*
X254984Y488697D02*
X255040Y488695D01*
X255096Y488689D01*
X255152Y488680D01*
X255207Y488666D01*
X255261Y488649D01*
X255313Y488629D01*
X255364Y488604D01*
X255413Y488577D01*
X255460Y488546D01*
X255505Y488512D01*
X255548Y488475D01*
X255588Y488435D01*
X255625Y488392D01*
X255659Y488347D01*
X255690Y488300D01*
X255717Y488251D01*
X255742Y488200D01*
X255762Y488148D01*
X255779Y488094D01*
X255793Y488039D01*
X255802Y487983D01*
X255808Y487927D01*
X255810Y487871D01*
X254984Y488696D02*
X254920Y488694D01*
X254857Y488688D01*
X254794Y488679D01*
X254732Y488666D01*
X254671Y488649D01*
X254611Y488628D01*
X254552Y488604D01*
X254495Y488577D01*
X254439Y488546D01*
X254386Y488511D01*
X254335Y488474D01*
X254285Y488434D01*
X254239Y488390D01*
X254195Y488344D01*
X254154Y488296D01*
X254116Y488245D01*
X254081Y488192D01*
X254049Y488137D01*
X254021Y488080D01*
X253996Y488022D01*
X253975Y487962D01*
X255534Y487229D02*
X255572Y487268D01*
X255609Y487310D01*
X255642Y487354D01*
X255673Y487399D01*
X255701Y487447D01*
X255726Y487496D01*
X255748Y487547D01*
X255766Y487599D01*
X255782Y487652D01*
X255794Y487706D01*
X255802Y487761D01*
X255807Y487816D01*
X255809Y487871D01*
X255534Y487228D02*
X253975Y485394D01*
X255809Y485394D01*
X257473Y485394D02*
X257473Y487595D01*
X258390Y487595D01*
X258435Y487593D01*
X258481Y487587D01*
X258525Y487578D01*
X258569Y487565D01*
X258611Y487549D01*
X258652Y487529D01*
X258691Y487505D01*
X258728Y487479D01*
X258763Y487450D01*
X258795Y487418D01*
X258824Y487383D01*
X258850Y487346D01*
X258874Y487307D01*
X258894Y487266D01*
X258910Y487224D01*
X258923Y487180D01*
X258932Y487136D01*
X258938Y487090D01*
X258940Y487045D01*
X258940Y485394D01*
D11*
X127930Y471750D02*
X123630Y471750D01*
X123430Y480750D02*
X127730Y480750D01*
D12*
X123079Y466344D02*
X122161Y466344D01*
X123079Y466344D02*
X123138Y466346D01*
X123196Y466352D01*
X123254Y466361D01*
X123312Y466374D01*
X123368Y466391D01*
X123423Y466411D01*
X123477Y466435D01*
X123529Y466462D01*
X123579Y466492D01*
X123627Y466526D01*
X123673Y466563D01*
X123717Y466602D01*
X123758Y466645D01*
X123796Y466689D01*
X123831Y466736D01*
X123863Y466786D01*
X123892Y466837D01*
X123918Y466890D01*
X123940Y466944D01*
X123958Y467000D01*
X123973Y467057D01*
X123984Y467115D01*
X123992Y467173D01*
X123996Y467232D01*
X123996Y467290D01*
X123992Y467349D01*
X123984Y467407D01*
X123973Y467465D01*
X123958Y467522D01*
X123940Y467578D01*
X123918Y467632D01*
X123892Y467685D01*
X123863Y467736D01*
X123831Y467786D01*
X123796Y467833D01*
X123758Y467877D01*
X123717Y467920D01*
X123673Y467959D01*
X123627Y467996D01*
X123579Y468030D01*
X123529Y468060D01*
X123477Y468087D01*
X123423Y468111D01*
X123368Y468131D01*
X123312Y468148D01*
X123254Y468161D01*
X123196Y468170D01*
X123138Y468176D01*
X123079Y468178D01*
X123262Y469646D02*
X122161Y469646D01*
X123262Y469646D02*
X123314Y469644D01*
X123366Y469639D01*
X123418Y469629D01*
X123469Y469616D01*
X123519Y469600D01*
X123567Y469580D01*
X123614Y469556D01*
X123659Y469529D01*
X123702Y469500D01*
X123743Y469467D01*
X123781Y469431D01*
X123817Y469393D01*
X123850Y469352D01*
X123879Y469309D01*
X123906Y469264D01*
X123930Y469217D01*
X123950Y469169D01*
X123966Y469119D01*
X123979Y469068D01*
X123989Y469016D01*
X123994Y468964D01*
X123996Y468912D01*
X123994Y468860D01*
X123989Y468808D01*
X123979Y468756D01*
X123966Y468705D01*
X123950Y468655D01*
X123930Y468607D01*
X123906Y468560D01*
X123879Y468515D01*
X123850Y468472D01*
X123817Y468431D01*
X123781Y468393D01*
X123743Y468357D01*
X123702Y468324D01*
X123659Y468295D01*
X123614Y468268D01*
X123567Y468244D01*
X123519Y468224D01*
X123469Y468208D01*
X123418Y468195D01*
X123366Y468185D01*
X123314Y468180D01*
X123262Y468178D01*
X122528Y468178D01*
X125590Y466344D02*
X126508Y466344D01*
X126567Y466346D01*
X126625Y466352D01*
X126683Y466361D01*
X126741Y466374D01*
X126797Y466391D01*
X126852Y466411D01*
X126906Y466435D01*
X126958Y466462D01*
X127008Y466492D01*
X127056Y466526D01*
X127102Y466563D01*
X127146Y466602D01*
X127187Y466645D01*
X127225Y466689D01*
X127260Y466736D01*
X127292Y466786D01*
X127321Y466837D01*
X127347Y466890D01*
X127369Y466944D01*
X127387Y467000D01*
X127402Y467057D01*
X127413Y467115D01*
X127421Y467173D01*
X127425Y467232D01*
X127425Y467290D01*
X127421Y467349D01*
X127413Y467407D01*
X127402Y467465D01*
X127387Y467522D01*
X127369Y467578D01*
X127347Y467632D01*
X127321Y467685D01*
X127292Y467736D01*
X127260Y467786D01*
X127225Y467833D01*
X127187Y467877D01*
X127146Y467920D01*
X127102Y467959D01*
X127056Y467996D01*
X127008Y468030D01*
X126958Y468060D01*
X126906Y468087D01*
X126852Y468111D01*
X126797Y468131D01*
X126741Y468148D01*
X126683Y468161D01*
X126625Y468170D01*
X126567Y468176D01*
X126508Y468178D01*
X126691Y469646D02*
X125590Y469646D01*
X126691Y469646D02*
X126743Y469644D01*
X126795Y469639D01*
X126847Y469629D01*
X126898Y469616D01*
X126948Y469600D01*
X126996Y469580D01*
X127043Y469556D01*
X127088Y469529D01*
X127131Y469500D01*
X127172Y469467D01*
X127210Y469431D01*
X127246Y469393D01*
X127279Y469352D01*
X127308Y469309D01*
X127335Y469264D01*
X127359Y469217D01*
X127379Y469169D01*
X127395Y469119D01*
X127408Y469068D01*
X127418Y469016D01*
X127423Y468964D01*
X127425Y468912D01*
X127423Y468860D01*
X127418Y468808D01*
X127408Y468756D01*
X127395Y468705D01*
X127379Y468655D01*
X127359Y468607D01*
X127335Y468560D01*
X127308Y468515D01*
X127279Y468472D01*
X127246Y468431D01*
X127210Y468393D01*
X127172Y468357D01*
X127131Y468324D01*
X127088Y468295D01*
X127043Y468268D01*
X126996Y468244D01*
X126948Y468224D01*
X126898Y468208D01*
X126847Y468195D01*
X126795Y468185D01*
X126743Y468180D01*
X126691Y468178D01*
X125957Y468178D01*
X129088Y468545D02*
X129088Y466344D01*
X129088Y468545D02*
X130006Y468545D01*
X130051Y468543D01*
X130097Y468537D01*
X130141Y468528D01*
X130185Y468515D01*
X130227Y468499D01*
X130268Y468479D01*
X130307Y468455D01*
X130344Y468429D01*
X130379Y468400D01*
X130411Y468368D01*
X130440Y468333D01*
X130466Y468296D01*
X130490Y468257D01*
X130510Y468216D01*
X130526Y468174D01*
X130539Y468130D01*
X130548Y468086D01*
X130554Y468040D01*
X130556Y467995D01*
X130556Y466344D01*
D11*
X236560Y118800D02*
X240860Y118800D01*
X241060Y109800D02*
X236760Y109800D01*
D12*
X233934Y123472D02*
X234851Y124206D01*
X234851Y120904D01*
X233934Y120904D02*
X235768Y120904D01*
X237363Y122555D02*
X237365Y122658D01*
X237371Y122761D01*
X237380Y122863D01*
X237394Y122965D01*
X237411Y123066D01*
X237433Y123167D01*
X237458Y123267D01*
X237486Y123365D01*
X237519Y123463D01*
X237555Y123559D01*
X237595Y123654D01*
X237638Y123747D01*
X237655Y123793D01*
X237677Y123838D01*
X237701Y123881D01*
X237728Y123923D01*
X237759Y123962D01*
X237792Y123999D01*
X237827Y124033D01*
X237865Y124065D01*
X237906Y124094D01*
X237948Y124119D01*
X237992Y124142D01*
X238038Y124161D01*
X238085Y124177D01*
X238133Y124190D01*
X238181Y124199D01*
X238230Y124204D01*
X238280Y124206D01*
X238330Y124204D01*
X238379Y124199D01*
X238427Y124190D01*
X238475Y124177D01*
X238522Y124161D01*
X238568Y124142D01*
X238612Y124119D01*
X238654Y124094D01*
X238695Y124065D01*
X238733Y124033D01*
X238768Y123999D01*
X238801Y123962D01*
X238832Y123923D01*
X238859Y123881D01*
X238883Y123838D01*
X238905Y123793D01*
X238922Y123747D01*
X238923Y123747D02*
X238966Y123654D01*
X239006Y123559D01*
X239042Y123463D01*
X239075Y123365D01*
X239103Y123267D01*
X239128Y123167D01*
X239150Y123066D01*
X239167Y122965D01*
X239181Y122863D01*
X239190Y122761D01*
X239196Y122658D01*
X239198Y122555D01*
X237363Y122555D02*
X237365Y122452D01*
X237371Y122350D01*
X237380Y122247D01*
X237394Y122145D01*
X237411Y122044D01*
X237433Y121943D01*
X237458Y121843D01*
X237486Y121745D01*
X237519Y121647D01*
X237555Y121551D01*
X237595Y121456D01*
X237638Y121363D01*
X237655Y121317D01*
X237677Y121272D01*
X237701Y121229D01*
X237728Y121187D01*
X237759Y121148D01*
X237792Y121111D01*
X237827Y121077D01*
X237865Y121045D01*
X237906Y121016D01*
X237948Y120991D01*
X237992Y120968D01*
X238038Y120949D01*
X238085Y120933D01*
X238133Y120920D01*
X238181Y120911D01*
X238230Y120906D01*
X238280Y120904D01*
X238922Y121363D02*
X238965Y121456D01*
X239005Y121551D01*
X239041Y121647D01*
X239074Y121745D01*
X239102Y121843D01*
X239127Y121943D01*
X239149Y122044D01*
X239166Y122145D01*
X239180Y122247D01*
X239189Y122349D01*
X239195Y122452D01*
X239197Y122555D01*
X238922Y121363D02*
X238905Y121317D01*
X238883Y121272D01*
X238859Y121229D01*
X238832Y121187D01*
X238801Y121148D01*
X238768Y121111D01*
X238733Y121077D01*
X238695Y121045D01*
X238654Y121016D01*
X238612Y120991D01*
X238568Y120968D01*
X238522Y120949D01*
X238475Y120933D01*
X238427Y120920D01*
X238379Y120911D01*
X238330Y120906D01*
X238280Y120904D01*
X237546Y121638D02*
X239014Y123472D01*
X240792Y122555D02*
X240794Y122658D01*
X240800Y122761D01*
X240809Y122863D01*
X240823Y122965D01*
X240840Y123066D01*
X240862Y123167D01*
X240887Y123267D01*
X240915Y123365D01*
X240948Y123463D01*
X240984Y123559D01*
X241024Y123654D01*
X241067Y123747D01*
X241084Y123793D01*
X241106Y123838D01*
X241130Y123881D01*
X241157Y123923D01*
X241188Y123962D01*
X241221Y123999D01*
X241256Y124033D01*
X241294Y124065D01*
X241335Y124094D01*
X241377Y124119D01*
X241421Y124142D01*
X241467Y124161D01*
X241514Y124177D01*
X241562Y124190D01*
X241610Y124199D01*
X241659Y124204D01*
X241709Y124206D01*
X241759Y124204D01*
X241808Y124199D01*
X241856Y124190D01*
X241904Y124177D01*
X241951Y124161D01*
X241997Y124142D01*
X242041Y124119D01*
X242083Y124094D01*
X242124Y124065D01*
X242162Y124033D01*
X242197Y123999D01*
X242230Y123962D01*
X242261Y123923D01*
X242288Y123881D01*
X242312Y123838D01*
X242334Y123793D01*
X242351Y123747D01*
X242352Y123747D02*
X242395Y123654D01*
X242435Y123559D01*
X242471Y123463D01*
X242504Y123365D01*
X242532Y123267D01*
X242557Y123167D01*
X242579Y123066D01*
X242596Y122965D01*
X242610Y122863D01*
X242619Y122761D01*
X242625Y122658D01*
X242627Y122555D01*
X240792Y122555D02*
X240794Y122452D01*
X240800Y122350D01*
X240809Y122247D01*
X240823Y122145D01*
X240840Y122044D01*
X240862Y121943D01*
X240887Y121843D01*
X240915Y121745D01*
X240948Y121647D01*
X240984Y121551D01*
X241024Y121456D01*
X241067Y121363D01*
X241084Y121317D01*
X241106Y121272D01*
X241130Y121229D01*
X241157Y121187D01*
X241188Y121148D01*
X241221Y121111D01*
X241256Y121077D01*
X241294Y121045D01*
X241335Y121016D01*
X241377Y120991D01*
X241421Y120968D01*
X241467Y120949D01*
X241514Y120933D01*
X241562Y120920D01*
X241610Y120911D01*
X241659Y120906D01*
X241709Y120904D01*
X242351Y121363D02*
X242394Y121456D01*
X242434Y121551D01*
X242470Y121647D01*
X242503Y121745D01*
X242531Y121843D01*
X242556Y121943D01*
X242578Y122044D01*
X242595Y122145D01*
X242609Y122247D01*
X242618Y122349D01*
X242624Y122452D01*
X242626Y122555D01*
X242351Y121363D02*
X242334Y121317D01*
X242312Y121272D01*
X242288Y121229D01*
X242261Y121187D01*
X242230Y121148D01*
X242197Y121111D01*
X242162Y121077D01*
X242124Y121045D01*
X242083Y121016D01*
X242041Y120991D01*
X241997Y120968D01*
X241951Y120949D01*
X241904Y120933D01*
X241856Y120920D01*
X241808Y120911D01*
X241759Y120906D01*
X241709Y120904D01*
X240975Y121638D02*
X242443Y123472D01*
X244290Y123105D02*
X244290Y120904D01*
X244290Y123105D02*
X245207Y123105D01*
X245252Y123103D01*
X245298Y123097D01*
X245342Y123088D01*
X245386Y123075D01*
X245428Y123059D01*
X245469Y123039D01*
X245508Y123015D01*
X245545Y122989D01*
X245580Y122960D01*
X245612Y122928D01*
X245641Y122893D01*
X245667Y122856D01*
X245691Y122817D01*
X245711Y122776D01*
X245727Y122734D01*
X245740Y122690D01*
X245749Y122646D01*
X245755Y122600D01*
X245757Y122555D01*
X245758Y122555D02*
X245758Y120904D01*
D11*
X240960Y127580D02*
X236660Y127580D01*
X236460Y136580D02*
X240760Y136580D01*
D12*
X234851Y141986D02*
X233934Y141252D01*
X234851Y141986D02*
X234851Y138684D01*
X233934Y138684D02*
X235768Y138684D01*
X237363Y140335D02*
X237365Y140438D01*
X237371Y140541D01*
X237380Y140643D01*
X237394Y140745D01*
X237411Y140846D01*
X237433Y140947D01*
X237458Y141047D01*
X237486Y141145D01*
X237519Y141243D01*
X237555Y141339D01*
X237595Y141434D01*
X237638Y141527D01*
X237655Y141573D01*
X237677Y141618D01*
X237701Y141661D01*
X237728Y141703D01*
X237759Y141742D01*
X237792Y141779D01*
X237827Y141813D01*
X237865Y141845D01*
X237906Y141874D01*
X237948Y141899D01*
X237992Y141922D01*
X238038Y141941D01*
X238085Y141957D01*
X238133Y141970D01*
X238181Y141979D01*
X238230Y141984D01*
X238280Y141986D01*
X238330Y141984D01*
X238379Y141979D01*
X238427Y141970D01*
X238475Y141957D01*
X238522Y141941D01*
X238568Y141922D01*
X238612Y141899D01*
X238654Y141874D01*
X238695Y141845D01*
X238733Y141813D01*
X238768Y141779D01*
X238801Y141742D01*
X238832Y141703D01*
X238859Y141661D01*
X238883Y141618D01*
X238905Y141573D01*
X238922Y141527D01*
X238923Y141527D02*
X238966Y141434D01*
X239006Y141339D01*
X239042Y141243D01*
X239075Y141145D01*
X239103Y141047D01*
X239128Y140947D01*
X239150Y140846D01*
X239167Y140745D01*
X239181Y140643D01*
X239190Y140541D01*
X239196Y140438D01*
X239198Y140335D01*
X237363Y140335D02*
X237365Y140232D01*
X237371Y140130D01*
X237380Y140027D01*
X237394Y139925D01*
X237411Y139824D01*
X237433Y139723D01*
X237458Y139623D01*
X237486Y139525D01*
X237519Y139427D01*
X237555Y139331D01*
X237595Y139236D01*
X237638Y139143D01*
X237655Y139097D01*
X237677Y139052D01*
X237701Y139009D01*
X237728Y138967D01*
X237759Y138928D01*
X237792Y138891D01*
X237827Y138857D01*
X237865Y138825D01*
X237906Y138796D01*
X237948Y138771D01*
X237992Y138748D01*
X238038Y138729D01*
X238085Y138713D01*
X238133Y138700D01*
X238181Y138691D01*
X238230Y138686D01*
X238280Y138684D01*
X238922Y139143D02*
X238965Y139236D01*
X239005Y139331D01*
X239041Y139427D01*
X239074Y139525D01*
X239102Y139623D01*
X239127Y139723D01*
X239149Y139824D01*
X239166Y139925D01*
X239180Y140027D01*
X239189Y140129D01*
X239195Y140232D01*
X239197Y140335D01*
X238922Y139143D02*
X238905Y139097D01*
X238883Y139052D01*
X238859Y139009D01*
X238832Y138967D01*
X238801Y138928D01*
X238768Y138891D01*
X238733Y138857D01*
X238695Y138825D01*
X238654Y138796D01*
X238612Y138771D01*
X238568Y138748D01*
X238522Y138729D01*
X238475Y138713D01*
X238427Y138700D01*
X238379Y138691D01*
X238330Y138686D01*
X238280Y138684D01*
X237546Y139418D02*
X239014Y141252D01*
X240792Y140335D02*
X240794Y140438D01*
X240800Y140541D01*
X240809Y140643D01*
X240823Y140745D01*
X240840Y140846D01*
X240862Y140947D01*
X240887Y141047D01*
X240915Y141145D01*
X240948Y141243D01*
X240984Y141339D01*
X241024Y141434D01*
X241067Y141527D01*
X241084Y141573D01*
X241106Y141618D01*
X241130Y141661D01*
X241157Y141703D01*
X241188Y141742D01*
X241221Y141779D01*
X241256Y141813D01*
X241294Y141845D01*
X241335Y141874D01*
X241377Y141899D01*
X241421Y141922D01*
X241467Y141941D01*
X241514Y141957D01*
X241562Y141970D01*
X241610Y141979D01*
X241659Y141984D01*
X241709Y141986D01*
X241759Y141984D01*
X241808Y141979D01*
X241856Y141970D01*
X241904Y141957D01*
X241951Y141941D01*
X241997Y141922D01*
X242041Y141899D01*
X242083Y141874D01*
X242124Y141845D01*
X242162Y141813D01*
X242197Y141779D01*
X242230Y141742D01*
X242261Y141703D01*
X242288Y141661D01*
X242312Y141618D01*
X242334Y141573D01*
X242351Y141527D01*
X242352Y141527D02*
X242395Y141434D01*
X242435Y141339D01*
X242471Y141243D01*
X242504Y141145D01*
X242532Y141047D01*
X242557Y140947D01*
X242579Y140846D01*
X242596Y140745D01*
X242610Y140643D01*
X242619Y140541D01*
X242625Y140438D01*
X242627Y140335D01*
X240792Y140335D02*
X240794Y140232D01*
X240800Y140130D01*
X240809Y140027D01*
X240823Y139925D01*
X240840Y139824D01*
X240862Y139723D01*
X240887Y139623D01*
X240915Y139525D01*
X240948Y139427D01*
X240984Y139331D01*
X241024Y139236D01*
X241067Y139143D01*
X241084Y139097D01*
X241106Y139052D01*
X241130Y139009D01*
X241157Y138967D01*
X241188Y138928D01*
X241221Y138891D01*
X241256Y138857D01*
X241294Y138825D01*
X241335Y138796D01*
X241377Y138771D01*
X241421Y138748D01*
X241467Y138729D01*
X241514Y138713D01*
X241562Y138700D01*
X241610Y138691D01*
X241659Y138686D01*
X241709Y138684D01*
X242351Y139143D02*
X242394Y139236D01*
X242434Y139331D01*
X242470Y139427D01*
X242503Y139525D01*
X242531Y139623D01*
X242556Y139723D01*
X242578Y139824D01*
X242595Y139925D01*
X242609Y140027D01*
X242618Y140129D01*
X242624Y140232D01*
X242626Y140335D01*
X242351Y139143D02*
X242334Y139097D01*
X242312Y139052D01*
X242288Y139009D01*
X242261Y138967D01*
X242230Y138928D01*
X242197Y138891D01*
X242162Y138857D01*
X242124Y138825D01*
X242083Y138796D01*
X242041Y138771D01*
X241997Y138748D01*
X241951Y138729D01*
X241904Y138713D01*
X241856Y138700D01*
X241808Y138691D01*
X241759Y138686D01*
X241709Y138684D01*
X240975Y139418D02*
X242443Y141252D01*
X244290Y140885D02*
X244290Y138684D01*
X244290Y140885D02*
X245207Y140885D01*
X245252Y140883D01*
X245298Y140877D01*
X245342Y140868D01*
X245386Y140855D01*
X245428Y140839D01*
X245469Y140819D01*
X245508Y140795D01*
X245545Y140769D01*
X245580Y140740D01*
X245612Y140708D01*
X245641Y140673D01*
X245667Y140636D01*
X245691Y140597D01*
X245711Y140556D01*
X245727Y140514D01*
X245740Y140470D01*
X245749Y140426D01*
X245755Y140380D01*
X245757Y140335D01*
X245758Y140335D02*
X245758Y138684D01*
D11*
X301330Y173410D02*
X305630Y173410D01*
X305830Y164410D02*
X301530Y164410D01*
D12*
X300891Y162306D02*
X299974Y161572D01*
X300891Y162306D02*
X300891Y159004D01*
X299974Y159004D02*
X301808Y159004D01*
X303403Y159004D02*
X304504Y159004D01*
X304556Y159006D01*
X304608Y159011D01*
X304660Y159021D01*
X304711Y159034D01*
X304761Y159050D01*
X304809Y159070D01*
X304856Y159094D01*
X304901Y159121D01*
X304944Y159150D01*
X304985Y159183D01*
X305023Y159219D01*
X305059Y159257D01*
X305092Y159298D01*
X305121Y159341D01*
X305148Y159386D01*
X305172Y159433D01*
X305192Y159481D01*
X305208Y159531D01*
X305221Y159582D01*
X305231Y159634D01*
X305236Y159686D01*
X305238Y159738D01*
X305237Y159738D02*
X305237Y160105D01*
X305238Y160105D02*
X305236Y160157D01*
X305231Y160209D01*
X305221Y160261D01*
X305208Y160312D01*
X305192Y160362D01*
X305172Y160410D01*
X305148Y160457D01*
X305121Y160502D01*
X305092Y160545D01*
X305059Y160586D01*
X305023Y160624D01*
X304985Y160660D01*
X304944Y160693D01*
X304901Y160722D01*
X304856Y160749D01*
X304809Y160773D01*
X304761Y160793D01*
X304711Y160809D01*
X304660Y160822D01*
X304608Y160832D01*
X304556Y160837D01*
X304504Y160839D01*
X304504Y160838D02*
X303403Y160838D01*
X303403Y162306D01*
X305237Y162306D01*
X306925Y161205D02*
X306925Y157903D01*
X306925Y161205D02*
X307842Y161205D01*
X307887Y161203D01*
X307933Y161197D01*
X307977Y161188D01*
X308021Y161175D01*
X308063Y161159D01*
X308104Y161139D01*
X308143Y161115D01*
X308180Y161089D01*
X308215Y161060D01*
X308247Y161028D01*
X308276Y160993D01*
X308302Y160956D01*
X308326Y160917D01*
X308346Y160876D01*
X308362Y160834D01*
X308375Y160790D01*
X308384Y160746D01*
X308390Y160700D01*
X308392Y160655D01*
X308392Y159554D01*
X308390Y159509D01*
X308384Y159463D01*
X308375Y159419D01*
X308362Y159375D01*
X308346Y159333D01*
X308326Y159292D01*
X308302Y159253D01*
X308276Y159216D01*
X308247Y159181D01*
X308215Y159149D01*
X308180Y159120D01*
X308143Y159094D01*
X308104Y159070D01*
X308063Y159050D01*
X308021Y159034D01*
X307977Y159021D01*
X307933Y159012D01*
X307887Y159006D01*
X307842Y159004D01*
X306925Y159004D01*
D11*
X305630Y188650D02*
X301330Y188650D01*
X301530Y179650D02*
X305830Y179650D01*
D12*
X299974Y194592D02*
X300891Y195326D01*
X300891Y192024D01*
X299974Y192024D02*
X301808Y192024D01*
X303403Y192024D02*
X304504Y192024D01*
X304556Y192026D01*
X304608Y192031D01*
X304660Y192041D01*
X304711Y192054D01*
X304761Y192070D01*
X304809Y192090D01*
X304856Y192114D01*
X304901Y192141D01*
X304944Y192170D01*
X304985Y192203D01*
X305023Y192239D01*
X305059Y192277D01*
X305092Y192318D01*
X305121Y192361D01*
X305148Y192406D01*
X305172Y192453D01*
X305192Y192501D01*
X305208Y192551D01*
X305221Y192602D01*
X305231Y192654D01*
X305236Y192706D01*
X305238Y192758D01*
X305237Y192758D02*
X305237Y193125D01*
X305238Y193125D02*
X305236Y193177D01*
X305231Y193229D01*
X305221Y193281D01*
X305208Y193332D01*
X305192Y193382D01*
X305172Y193430D01*
X305148Y193477D01*
X305121Y193522D01*
X305092Y193565D01*
X305059Y193606D01*
X305023Y193644D01*
X304985Y193680D01*
X304944Y193713D01*
X304901Y193742D01*
X304856Y193769D01*
X304809Y193793D01*
X304761Y193813D01*
X304711Y193829D01*
X304660Y193842D01*
X304608Y193852D01*
X304556Y193857D01*
X304504Y193859D01*
X304504Y193858D02*
X303403Y193858D01*
X303403Y195326D01*
X305237Y195326D01*
X306925Y194225D02*
X306925Y190923D01*
X306925Y194225D02*
X307842Y194225D01*
X307887Y194223D01*
X307933Y194217D01*
X307977Y194208D01*
X308021Y194195D01*
X308063Y194179D01*
X308104Y194159D01*
X308143Y194135D01*
X308180Y194109D01*
X308215Y194080D01*
X308247Y194048D01*
X308276Y194013D01*
X308302Y193976D01*
X308326Y193937D01*
X308346Y193896D01*
X308362Y193854D01*
X308375Y193810D01*
X308384Y193766D01*
X308390Y193720D01*
X308392Y193675D01*
X308392Y192574D01*
X308390Y192529D01*
X308384Y192483D01*
X308375Y192439D01*
X308362Y192395D01*
X308346Y192353D01*
X308326Y192312D01*
X308302Y192273D01*
X308276Y192236D01*
X308247Y192201D01*
X308215Y192169D01*
X308180Y192140D01*
X308143Y192114D01*
X308104Y192090D01*
X308063Y192070D01*
X308021Y192054D01*
X307977Y192041D01*
X307933Y192032D01*
X307887Y192026D01*
X307842Y192024D01*
X306925Y192024D01*
D11*
X316570Y244530D02*
X320870Y244530D01*
X321070Y235530D02*
X316770Y235530D01*
D12*
X315766Y249111D02*
X315764Y249167D01*
X315758Y249223D01*
X315749Y249279D01*
X315735Y249334D01*
X315718Y249388D01*
X315698Y249440D01*
X315673Y249491D01*
X315646Y249540D01*
X315615Y249587D01*
X315581Y249632D01*
X315544Y249675D01*
X315504Y249715D01*
X315461Y249752D01*
X315416Y249786D01*
X315369Y249817D01*
X315320Y249844D01*
X315269Y249869D01*
X315217Y249889D01*
X315163Y249906D01*
X315108Y249920D01*
X315052Y249929D01*
X314996Y249935D01*
X314940Y249937D01*
X314940Y249936D02*
X314876Y249934D01*
X314813Y249928D01*
X314750Y249919D01*
X314688Y249906D01*
X314627Y249889D01*
X314567Y249868D01*
X314508Y249844D01*
X314451Y249817D01*
X314395Y249786D01*
X314342Y249751D01*
X314291Y249714D01*
X314241Y249674D01*
X314195Y249630D01*
X314151Y249584D01*
X314110Y249536D01*
X314072Y249485D01*
X314037Y249432D01*
X314005Y249377D01*
X313977Y249320D01*
X313952Y249262D01*
X313931Y249202D01*
X315491Y248469D02*
X315529Y248508D01*
X315566Y248550D01*
X315599Y248594D01*
X315630Y248639D01*
X315658Y248687D01*
X315683Y248736D01*
X315705Y248787D01*
X315723Y248839D01*
X315739Y248892D01*
X315751Y248946D01*
X315759Y249001D01*
X315764Y249056D01*
X315766Y249111D01*
X315491Y248468D02*
X313931Y246634D01*
X315766Y246634D01*
X318369Y249937D02*
X318425Y249935D01*
X318481Y249929D01*
X318537Y249920D01*
X318592Y249906D01*
X318646Y249889D01*
X318698Y249869D01*
X318749Y249844D01*
X318798Y249817D01*
X318845Y249786D01*
X318890Y249752D01*
X318933Y249715D01*
X318973Y249675D01*
X319010Y249632D01*
X319044Y249587D01*
X319075Y249540D01*
X319102Y249491D01*
X319127Y249440D01*
X319147Y249388D01*
X319164Y249334D01*
X319178Y249279D01*
X319187Y249223D01*
X319193Y249167D01*
X319195Y249111D01*
X318369Y249936D02*
X318305Y249934D01*
X318242Y249928D01*
X318179Y249919D01*
X318117Y249906D01*
X318056Y249889D01*
X317996Y249868D01*
X317937Y249844D01*
X317880Y249817D01*
X317824Y249786D01*
X317771Y249751D01*
X317720Y249714D01*
X317670Y249674D01*
X317624Y249630D01*
X317580Y249584D01*
X317539Y249536D01*
X317501Y249485D01*
X317466Y249432D01*
X317434Y249377D01*
X317406Y249320D01*
X317381Y249262D01*
X317360Y249202D01*
X318920Y248469D02*
X318958Y248508D01*
X318995Y248550D01*
X319028Y248594D01*
X319059Y248639D01*
X319087Y248687D01*
X319112Y248736D01*
X319134Y248787D01*
X319152Y248839D01*
X319168Y248892D01*
X319180Y248946D01*
X319188Y249001D01*
X319193Y249056D01*
X319195Y249111D01*
X318920Y248468D02*
X317360Y246634D01*
X319195Y246634D01*
X320858Y247184D02*
X320858Y248835D01*
X320859Y247184D02*
X320861Y247139D01*
X320867Y247093D01*
X320876Y247049D01*
X320889Y247005D01*
X320905Y246963D01*
X320925Y246922D01*
X320949Y246883D01*
X320975Y246846D01*
X321004Y246811D01*
X321036Y246779D01*
X321071Y246750D01*
X321108Y246724D01*
X321147Y246700D01*
X321188Y246680D01*
X321230Y246664D01*
X321274Y246651D01*
X321318Y246642D01*
X321364Y246636D01*
X321409Y246634D01*
X322326Y246634D01*
X322326Y248835D01*
D11*
X243400Y339780D02*
X239100Y339780D01*
X239300Y330780D02*
X243600Y330780D01*
D12*
X239014Y344452D02*
X239931Y345186D01*
X239931Y341884D01*
X239014Y341884D02*
X240848Y341884D01*
X242512Y342434D02*
X242512Y344085D01*
X242512Y342434D02*
X242514Y342389D01*
X242520Y342343D01*
X242529Y342299D01*
X242542Y342255D01*
X242558Y342213D01*
X242578Y342172D01*
X242602Y342133D01*
X242628Y342096D01*
X242657Y342061D01*
X242689Y342029D01*
X242724Y342000D01*
X242761Y341974D01*
X242800Y341950D01*
X242841Y341930D01*
X242883Y341914D01*
X242927Y341901D01*
X242971Y341892D01*
X243017Y341886D01*
X243062Y341884D01*
X243980Y341884D01*
X243980Y344085D01*
D11*
X347150Y295220D02*
X351450Y295220D01*
X351250Y304220D02*
X346950Y304220D01*
D12*
X345694Y308892D02*
X346611Y309626D01*
X346611Y306324D01*
X345694Y306324D02*
X347528Y306324D01*
X349123Y307975D02*
X349125Y308078D01*
X349131Y308181D01*
X349140Y308283D01*
X349154Y308385D01*
X349171Y308486D01*
X349193Y308587D01*
X349218Y308687D01*
X349246Y308785D01*
X349279Y308883D01*
X349315Y308979D01*
X349355Y309074D01*
X349398Y309167D01*
X349415Y309213D01*
X349437Y309258D01*
X349461Y309301D01*
X349488Y309343D01*
X349519Y309382D01*
X349552Y309419D01*
X349587Y309453D01*
X349625Y309485D01*
X349666Y309514D01*
X349708Y309539D01*
X349752Y309562D01*
X349798Y309581D01*
X349845Y309597D01*
X349893Y309610D01*
X349941Y309619D01*
X349990Y309624D01*
X350040Y309626D01*
X350090Y309624D01*
X350139Y309619D01*
X350187Y309610D01*
X350235Y309597D01*
X350282Y309581D01*
X350328Y309562D01*
X350372Y309539D01*
X350414Y309514D01*
X350455Y309485D01*
X350493Y309453D01*
X350528Y309419D01*
X350561Y309382D01*
X350592Y309343D01*
X350619Y309301D01*
X350643Y309258D01*
X350665Y309213D01*
X350682Y309167D01*
X350683Y309167D02*
X350726Y309074D01*
X350766Y308979D01*
X350802Y308883D01*
X350835Y308785D01*
X350863Y308687D01*
X350888Y308587D01*
X350910Y308486D01*
X350927Y308385D01*
X350941Y308283D01*
X350950Y308181D01*
X350956Y308078D01*
X350958Y307975D01*
X349123Y307975D02*
X349125Y307872D01*
X349131Y307770D01*
X349140Y307667D01*
X349154Y307565D01*
X349171Y307464D01*
X349193Y307363D01*
X349218Y307263D01*
X349246Y307165D01*
X349279Y307067D01*
X349315Y306971D01*
X349355Y306876D01*
X349398Y306783D01*
X349415Y306737D01*
X349437Y306692D01*
X349461Y306649D01*
X349488Y306607D01*
X349519Y306568D01*
X349552Y306531D01*
X349587Y306497D01*
X349625Y306465D01*
X349666Y306436D01*
X349708Y306411D01*
X349752Y306388D01*
X349798Y306369D01*
X349845Y306353D01*
X349893Y306340D01*
X349941Y306331D01*
X349990Y306326D01*
X350040Y306324D01*
X350682Y306783D02*
X350725Y306876D01*
X350765Y306971D01*
X350801Y307067D01*
X350834Y307165D01*
X350862Y307263D01*
X350887Y307363D01*
X350909Y307464D01*
X350926Y307565D01*
X350940Y307667D01*
X350949Y307769D01*
X350955Y307872D01*
X350957Y307975D01*
X350682Y306783D02*
X350665Y306737D01*
X350643Y306692D01*
X350619Y306649D01*
X350592Y306607D01*
X350561Y306568D01*
X350528Y306531D01*
X350493Y306497D01*
X350455Y306465D01*
X350414Y306436D01*
X350372Y306411D01*
X350328Y306388D01*
X350282Y306369D01*
X350235Y306353D01*
X350187Y306340D01*
X350139Y306331D01*
X350090Y306326D01*
X350040Y306324D01*
X349306Y307058D02*
X350774Y308892D01*
X352621Y308525D02*
X352621Y306324D01*
X352621Y308525D02*
X353538Y308525D01*
X353583Y308523D01*
X353629Y308517D01*
X353673Y308508D01*
X353717Y308495D01*
X353759Y308479D01*
X353800Y308459D01*
X353839Y308435D01*
X353876Y308409D01*
X353911Y308380D01*
X353943Y308348D01*
X353972Y308313D01*
X353998Y308276D01*
X354022Y308237D01*
X354042Y308196D01*
X354058Y308154D01*
X354071Y308110D01*
X354080Y308066D01*
X354086Y308020D01*
X354088Y307975D01*
X354089Y307975D02*
X354089Y306324D01*
D11*
X219020Y71950D02*
X219020Y67650D01*
X228020Y67850D02*
X228020Y72150D01*
D12*
X220840Y86642D02*
X221758Y87376D01*
X221758Y84074D01*
X222675Y84074D02*
X220840Y84074D01*
X224338Y84624D02*
X224338Y86275D01*
X224339Y84624D02*
X224341Y84579D01*
X224347Y84533D01*
X224356Y84489D01*
X224369Y84445D01*
X224385Y84403D01*
X224405Y84362D01*
X224429Y84323D01*
X224455Y84286D01*
X224484Y84251D01*
X224516Y84219D01*
X224551Y84190D01*
X224588Y84164D01*
X224627Y84140D01*
X224668Y84120D01*
X224710Y84104D01*
X224754Y84091D01*
X224798Y84082D01*
X224844Y84076D01*
X224889Y84074D01*
X225806Y84074D01*
X225806Y86275D01*
D11*
X151710Y71950D02*
X151710Y67650D01*
X160710Y67850D02*
X160710Y72150D01*
D12*
X153530Y86642D02*
X154448Y87376D01*
X154448Y84074D01*
X155365Y84074D02*
X153530Y84074D01*
X157028Y84624D02*
X157028Y86275D01*
X157029Y84624D02*
X157031Y84579D01*
X157037Y84533D01*
X157046Y84489D01*
X157059Y84445D01*
X157075Y84403D01*
X157095Y84362D01*
X157119Y84323D01*
X157145Y84286D01*
X157174Y84251D01*
X157206Y84219D01*
X157241Y84190D01*
X157278Y84164D01*
X157317Y84140D01*
X157358Y84120D01*
X157400Y84104D01*
X157444Y84091D01*
X157488Y84082D01*
X157534Y84076D01*
X157579Y84074D01*
X158496Y84074D01*
X158496Y86275D01*
D11*
X283650Y48840D02*
X287950Y48840D01*
X287750Y57840D02*
X283450Y57840D01*
D12*
X280924Y62512D02*
X281841Y63246D01*
X281841Y59944D01*
X280924Y59944D02*
X282758Y59944D01*
X284353Y61595D02*
X284355Y61698D01*
X284361Y61801D01*
X284370Y61903D01*
X284384Y62005D01*
X284401Y62106D01*
X284423Y62207D01*
X284448Y62307D01*
X284476Y62405D01*
X284509Y62503D01*
X284545Y62599D01*
X284585Y62694D01*
X284628Y62787D01*
X284645Y62833D01*
X284667Y62878D01*
X284691Y62921D01*
X284718Y62963D01*
X284749Y63002D01*
X284782Y63039D01*
X284817Y63073D01*
X284855Y63105D01*
X284896Y63134D01*
X284938Y63159D01*
X284982Y63182D01*
X285028Y63201D01*
X285075Y63217D01*
X285123Y63230D01*
X285171Y63239D01*
X285220Y63244D01*
X285270Y63246D01*
X285320Y63244D01*
X285369Y63239D01*
X285417Y63230D01*
X285465Y63217D01*
X285512Y63201D01*
X285558Y63182D01*
X285602Y63159D01*
X285644Y63134D01*
X285685Y63105D01*
X285723Y63073D01*
X285758Y63039D01*
X285791Y63002D01*
X285822Y62963D01*
X285849Y62921D01*
X285873Y62878D01*
X285895Y62833D01*
X285912Y62787D01*
X285913Y62787D02*
X285956Y62694D01*
X285996Y62599D01*
X286032Y62503D01*
X286065Y62405D01*
X286093Y62307D01*
X286118Y62207D01*
X286140Y62106D01*
X286157Y62005D01*
X286171Y61903D01*
X286180Y61801D01*
X286186Y61698D01*
X286188Y61595D01*
X284353Y61595D02*
X284355Y61492D01*
X284361Y61390D01*
X284370Y61287D01*
X284384Y61185D01*
X284401Y61084D01*
X284423Y60983D01*
X284448Y60883D01*
X284476Y60785D01*
X284509Y60687D01*
X284545Y60591D01*
X284585Y60496D01*
X284628Y60403D01*
X284645Y60357D01*
X284667Y60312D01*
X284691Y60269D01*
X284718Y60227D01*
X284749Y60188D01*
X284782Y60151D01*
X284817Y60117D01*
X284855Y60085D01*
X284896Y60056D01*
X284938Y60031D01*
X284982Y60008D01*
X285028Y59989D01*
X285075Y59973D01*
X285123Y59960D01*
X285171Y59951D01*
X285220Y59946D01*
X285270Y59944D01*
X285912Y60403D02*
X285955Y60496D01*
X285995Y60591D01*
X286031Y60687D01*
X286064Y60785D01*
X286092Y60883D01*
X286117Y60983D01*
X286139Y61084D01*
X286156Y61185D01*
X286170Y61287D01*
X286179Y61389D01*
X286185Y61492D01*
X286187Y61595D01*
X285912Y60403D02*
X285895Y60357D01*
X285873Y60312D01*
X285849Y60269D01*
X285822Y60227D01*
X285791Y60188D01*
X285758Y60151D01*
X285723Y60117D01*
X285685Y60085D01*
X285644Y60056D01*
X285602Y60031D01*
X285558Y60008D01*
X285512Y59989D01*
X285465Y59973D01*
X285417Y59960D01*
X285369Y59951D01*
X285320Y59946D01*
X285270Y59944D01*
X284536Y60678D02*
X286004Y62512D01*
X287782Y61595D02*
X287784Y61698D01*
X287790Y61801D01*
X287799Y61903D01*
X287813Y62005D01*
X287830Y62106D01*
X287852Y62207D01*
X287877Y62307D01*
X287905Y62405D01*
X287938Y62503D01*
X287974Y62599D01*
X288014Y62694D01*
X288057Y62787D01*
X288074Y62833D01*
X288096Y62878D01*
X288120Y62921D01*
X288147Y62963D01*
X288178Y63002D01*
X288211Y63039D01*
X288246Y63073D01*
X288284Y63105D01*
X288325Y63134D01*
X288367Y63159D01*
X288411Y63182D01*
X288457Y63201D01*
X288504Y63217D01*
X288552Y63230D01*
X288600Y63239D01*
X288649Y63244D01*
X288699Y63246D01*
X288749Y63244D01*
X288798Y63239D01*
X288846Y63230D01*
X288894Y63217D01*
X288941Y63201D01*
X288987Y63182D01*
X289031Y63159D01*
X289073Y63134D01*
X289114Y63105D01*
X289152Y63073D01*
X289187Y63039D01*
X289220Y63002D01*
X289251Y62963D01*
X289278Y62921D01*
X289302Y62878D01*
X289324Y62833D01*
X289341Y62787D01*
X289342Y62787D02*
X289385Y62694D01*
X289425Y62599D01*
X289461Y62503D01*
X289494Y62405D01*
X289522Y62307D01*
X289547Y62207D01*
X289569Y62106D01*
X289586Y62005D01*
X289600Y61903D01*
X289609Y61801D01*
X289615Y61698D01*
X289617Y61595D01*
X287782Y61595D02*
X287784Y61492D01*
X287790Y61390D01*
X287799Y61287D01*
X287813Y61185D01*
X287830Y61084D01*
X287852Y60983D01*
X287877Y60883D01*
X287905Y60785D01*
X287938Y60687D01*
X287974Y60591D01*
X288014Y60496D01*
X288057Y60403D01*
X288074Y60357D01*
X288096Y60312D01*
X288120Y60269D01*
X288147Y60227D01*
X288178Y60188D01*
X288211Y60151D01*
X288246Y60117D01*
X288284Y60085D01*
X288325Y60056D01*
X288367Y60031D01*
X288411Y60008D01*
X288457Y59989D01*
X288504Y59973D01*
X288552Y59960D01*
X288600Y59951D01*
X288649Y59946D01*
X288699Y59944D01*
X289341Y60403D02*
X289384Y60496D01*
X289424Y60591D01*
X289460Y60687D01*
X289493Y60785D01*
X289521Y60883D01*
X289546Y60983D01*
X289568Y61084D01*
X289585Y61185D01*
X289599Y61287D01*
X289608Y61389D01*
X289614Y61492D01*
X289616Y61595D01*
X289341Y60403D02*
X289324Y60357D01*
X289302Y60312D01*
X289278Y60269D01*
X289251Y60227D01*
X289220Y60188D01*
X289187Y60151D01*
X289152Y60117D01*
X289114Y60085D01*
X289073Y60056D01*
X289031Y60031D01*
X288987Y60008D01*
X288941Y59989D01*
X288894Y59973D01*
X288846Y59960D01*
X288798Y59951D01*
X288749Y59946D01*
X288699Y59944D01*
X287965Y60678D02*
X289433Y62512D01*
X291280Y62145D02*
X291280Y59944D01*
X291280Y62145D02*
X292197Y62145D01*
X292242Y62143D01*
X292288Y62137D01*
X292332Y62128D01*
X292376Y62115D01*
X292418Y62099D01*
X292459Y62079D01*
X292498Y62055D01*
X292535Y62029D01*
X292570Y62000D01*
X292602Y61968D01*
X292631Y61933D01*
X292657Y61896D01*
X292681Y61857D01*
X292701Y61816D01*
X292717Y61774D01*
X292730Y61730D01*
X292739Y61686D01*
X292745Y61640D01*
X292747Y61595D01*
X292748Y61595D02*
X292748Y59944D01*
D11*
X96180Y151710D02*
X91880Y151710D01*
X91680Y160710D02*
X95980Y160710D01*
D12*
X90071Y166116D02*
X89154Y165382D01*
X90071Y166116D02*
X90071Y162814D01*
X89154Y162814D02*
X90988Y162814D01*
X92583Y164465D02*
X92585Y164568D01*
X92591Y164671D01*
X92600Y164773D01*
X92614Y164875D01*
X92631Y164976D01*
X92653Y165077D01*
X92678Y165177D01*
X92706Y165275D01*
X92739Y165373D01*
X92775Y165469D01*
X92815Y165564D01*
X92858Y165657D01*
X92875Y165703D01*
X92897Y165748D01*
X92921Y165791D01*
X92948Y165833D01*
X92979Y165872D01*
X93012Y165909D01*
X93047Y165943D01*
X93085Y165975D01*
X93126Y166004D01*
X93168Y166029D01*
X93212Y166052D01*
X93258Y166071D01*
X93305Y166087D01*
X93353Y166100D01*
X93401Y166109D01*
X93450Y166114D01*
X93500Y166116D01*
X93550Y166114D01*
X93599Y166109D01*
X93647Y166100D01*
X93695Y166087D01*
X93742Y166071D01*
X93788Y166052D01*
X93832Y166029D01*
X93874Y166004D01*
X93915Y165975D01*
X93953Y165943D01*
X93988Y165909D01*
X94021Y165872D01*
X94052Y165833D01*
X94079Y165791D01*
X94103Y165748D01*
X94125Y165703D01*
X94142Y165657D01*
X94143Y165657D02*
X94186Y165564D01*
X94226Y165469D01*
X94262Y165373D01*
X94295Y165275D01*
X94323Y165177D01*
X94348Y165077D01*
X94370Y164976D01*
X94387Y164875D01*
X94401Y164773D01*
X94410Y164671D01*
X94416Y164568D01*
X94418Y164465D01*
X92583Y164465D02*
X92585Y164362D01*
X92591Y164260D01*
X92600Y164157D01*
X92614Y164055D01*
X92631Y163954D01*
X92653Y163853D01*
X92678Y163753D01*
X92706Y163655D01*
X92739Y163557D01*
X92775Y163461D01*
X92815Y163366D01*
X92858Y163273D01*
X92875Y163227D01*
X92897Y163182D01*
X92921Y163139D01*
X92948Y163097D01*
X92979Y163058D01*
X93012Y163021D01*
X93047Y162987D01*
X93085Y162955D01*
X93126Y162926D01*
X93168Y162901D01*
X93212Y162878D01*
X93258Y162859D01*
X93305Y162843D01*
X93353Y162830D01*
X93401Y162821D01*
X93450Y162816D01*
X93500Y162814D01*
X94142Y163273D02*
X94185Y163366D01*
X94225Y163461D01*
X94261Y163557D01*
X94294Y163655D01*
X94322Y163753D01*
X94347Y163853D01*
X94369Y163954D01*
X94386Y164055D01*
X94400Y164157D01*
X94409Y164259D01*
X94415Y164362D01*
X94417Y164465D01*
X94142Y163273D02*
X94125Y163227D01*
X94103Y163182D01*
X94079Y163139D01*
X94052Y163097D01*
X94021Y163058D01*
X93988Y163021D01*
X93953Y162987D01*
X93915Y162955D01*
X93874Y162926D01*
X93832Y162901D01*
X93788Y162878D01*
X93742Y162859D01*
X93695Y162843D01*
X93647Y162830D01*
X93599Y162821D01*
X93550Y162816D01*
X93500Y162814D01*
X92766Y163548D02*
X94234Y165382D01*
X96012Y164465D02*
X96014Y164568D01*
X96020Y164671D01*
X96029Y164773D01*
X96043Y164875D01*
X96060Y164976D01*
X96082Y165077D01*
X96107Y165177D01*
X96135Y165275D01*
X96168Y165373D01*
X96204Y165469D01*
X96244Y165564D01*
X96287Y165657D01*
X96304Y165703D01*
X96326Y165748D01*
X96350Y165791D01*
X96377Y165833D01*
X96408Y165872D01*
X96441Y165909D01*
X96476Y165943D01*
X96514Y165975D01*
X96555Y166004D01*
X96597Y166029D01*
X96641Y166052D01*
X96687Y166071D01*
X96734Y166087D01*
X96782Y166100D01*
X96830Y166109D01*
X96879Y166114D01*
X96929Y166116D01*
X96979Y166114D01*
X97028Y166109D01*
X97076Y166100D01*
X97124Y166087D01*
X97171Y166071D01*
X97217Y166052D01*
X97261Y166029D01*
X97303Y166004D01*
X97344Y165975D01*
X97382Y165943D01*
X97417Y165909D01*
X97450Y165872D01*
X97481Y165833D01*
X97508Y165791D01*
X97532Y165748D01*
X97554Y165703D01*
X97571Y165657D01*
X97572Y165657D02*
X97615Y165564D01*
X97655Y165469D01*
X97691Y165373D01*
X97724Y165275D01*
X97752Y165177D01*
X97777Y165077D01*
X97799Y164976D01*
X97816Y164875D01*
X97830Y164773D01*
X97839Y164671D01*
X97845Y164568D01*
X97847Y164465D01*
X96012Y164465D02*
X96014Y164362D01*
X96020Y164260D01*
X96029Y164157D01*
X96043Y164055D01*
X96060Y163954D01*
X96082Y163853D01*
X96107Y163753D01*
X96135Y163655D01*
X96168Y163557D01*
X96204Y163461D01*
X96244Y163366D01*
X96287Y163273D01*
X96304Y163227D01*
X96326Y163182D01*
X96350Y163139D01*
X96377Y163097D01*
X96408Y163058D01*
X96441Y163021D01*
X96476Y162987D01*
X96514Y162955D01*
X96555Y162926D01*
X96597Y162901D01*
X96641Y162878D01*
X96687Y162859D01*
X96734Y162843D01*
X96782Y162830D01*
X96830Y162821D01*
X96879Y162816D01*
X96929Y162814D01*
X97571Y163273D02*
X97614Y163366D01*
X97654Y163461D01*
X97690Y163557D01*
X97723Y163655D01*
X97751Y163753D01*
X97776Y163853D01*
X97798Y163954D01*
X97815Y164055D01*
X97829Y164157D01*
X97838Y164259D01*
X97844Y164362D01*
X97846Y164465D01*
X97571Y163273D02*
X97554Y163227D01*
X97532Y163182D01*
X97508Y163139D01*
X97481Y163097D01*
X97450Y163058D01*
X97417Y163021D01*
X97382Y162987D01*
X97344Y162955D01*
X97303Y162926D01*
X97261Y162901D01*
X97217Y162878D01*
X97171Y162859D01*
X97124Y162843D01*
X97076Y162830D01*
X97028Y162821D01*
X96979Y162816D01*
X96929Y162814D01*
X96195Y163548D02*
X97663Y165382D01*
X99510Y165015D02*
X99510Y162814D01*
X99510Y165015D02*
X100427Y165015D01*
X100472Y165013D01*
X100518Y165007D01*
X100562Y164998D01*
X100606Y164985D01*
X100648Y164969D01*
X100689Y164949D01*
X100728Y164925D01*
X100765Y164899D01*
X100800Y164870D01*
X100832Y164838D01*
X100861Y164803D01*
X100887Y164766D01*
X100911Y164727D01*
X100931Y164686D01*
X100947Y164644D01*
X100960Y164600D01*
X100969Y164556D01*
X100975Y164510D01*
X100977Y164465D01*
X100978Y164465D02*
X100978Y162814D01*
D11*
X215070Y172030D02*
X219370Y172030D01*
X219170Y181030D02*
X214870Y181030D01*
D12*
X213614Y186972D02*
X214531Y187706D01*
X214531Y184404D01*
X213614Y184404D02*
X215448Y184404D01*
X217043Y186055D02*
X217045Y186158D01*
X217051Y186261D01*
X217060Y186363D01*
X217074Y186465D01*
X217091Y186566D01*
X217113Y186667D01*
X217138Y186767D01*
X217166Y186865D01*
X217199Y186963D01*
X217235Y187059D01*
X217275Y187154D01*
X217318Y187247D01*
X217335Y187293D01*
X217357Y187338D01*
X217381Y187381D01*
X217408Y187423D01*
X217439Y187462D01*
X217472Y187499D01*
X217507Y187533D01*
X217545Y187565D01*
X217586Y187594D01*
X217628Y187619D01*
X217672Y187642D01*
X217718Y187661D01*
X217765Y187677D01*
X217813Y187690D01*
X217861Y187699D01*
X217910Y187704D01*
X217960Y187706D01*
X218010Y187704D01*
X218059Y187699D01*
X218107Y187690D01*
X218155Y187677D01*
X218202Y187661D01*
X218248Y187642D01*
X218292Y187619D01*
X218334Y187594D01*
X218375Y187565D01*
X218413Y187533D01*
X218448Y187499D01*
X218481Y187462D01*
X218512Y187423D01*
X218539Y187381D01*
X218563Y187338D01*
X218585Y187293D01*
X218602Y187247D01*
X218603Y187247D02*
X218646Y187154D01*
X218686Y187059D01*
X218722Y186963D01*
X218755Y186865D01*
X218783Y186767D01*
X218808Y186667D01*
X218830Y186566D01*
X218847Y186465D01*
X218861Y186363D01*
X218870Y186261D01*
X218876Y186158D01*
X218878Y186055D01*
X217043Y186055D02*
X217045Y185952D01*
X217051Y185850D01*
X217060Y185747D01*
X217074Y185645D01*
X217091Y185544D01*
X217113Y185443D01*
X217138Y185343D01*
X217166Y185245D01*
X217199Y185147D01*
X217235Y185051D01*
X217275Y184956D01*
X217318Y184863D01*
X217335Y184817D01*
X217357Y184772D01*
X217381Y184729D01*
X217408Y184687D01*
X217439Y184648D01*
X217472Y184611D01*
X217507Y184577D01*
X217545Y184545D01*
X217586Y184516D01*
X217628Y184491D01*
X217672Y184468D01*
X217718Y184449D01*
X217765Y184433D01*
X217813Y184420D01*
X217861Y184411D01*
X217910Y184406D01*
X217960Y184404D01*
X218602Y184863D02*
X218645Y184956D01*
X218685Y185051D01*
X218721Y185147D01*
X218754Y185245D01*
X218782Y185343D01*
X218807Y185443D01*
X218829Y185544D01*
X218846Y185645D01*
X218860Y185747D01*
X218869Y185849D01*
X218875Y185952D01*
X218877Y186055D01*
X218602Y184863D02*
X218585Y184817D01*
X218563Y184772D01*
X218539Y184729D01*
X218512Y184687D01*
X218481Y184648D01*
X218448Y184611D01*
X218413Y184577D01*
X218375Y184545D01*
X218334Y184516D01*
X218292Y184491D01*
X218248Y184468D01*
X218202Y184449D01*
X218155Y184433D01*
X218107Y184420D01*
X218059Y184411D01*
X218010Y184406D01*
X217960Y184404D01*
X217226Y185138D02*
X218694Y186972D01*
X220565Y186605D02*
X220565Y183303D01*
X220565Y186605D02*
X221482Y186605D01*
X221527Y186603D01*
X221573Y186597D01*
X221617Y186588D01*
X221661Y186575D01*
X221703Y186559D01*
X221744Y186539D01*
X221783Y186515D01*
X221820Y186489D01*
X221855Y186460D01*
X221887Y186428D01*
X221916Y186393D01*
X221942Y186356D01*
X221966Y186317D01*
X221986Y186276D01*
X222002Y186234D01*
X222015Y186190D01*
X222024Y186146D01*
X222030Y186100D01*
X222032Y186055D01*
X222032Y184954D01*
X222030Y184909D01*
X222024Y184863D01*
X222015Y184819D01*
X222002Y184775D01*
X221986Y184733D01*
X221966Y184692D01*
X221942Y184653D01*
X221916Y184616D01*
X221887Y184581D01*
X221855Y184549D01*
X221820Y184520D01*
X221783Y184494D01*
X221744Y184470D01*
X221703Y184450D01*
X221661Y184434D01*
X221617Y184421D01*
X221573Y184412D01*
X221527Y184406D01*
X221482Y184404D01*
X220565Y184404D01*
D11*
X245450Y181030D02*
X249750Y181030D01*
X249950Y172030D02*
X245650Y172030D01*
D12*
X244094Y186972D02*
X245011Y187706D01*
X245011Y184404D01*
X244094Y184404D02*
X245928Y184404D01*
X247523Y186055D02*
X247525Y186158D01*
X247531Y186261D01*
X247540Y186363D01*
X247554Y186465D01*
X247571Y186566D01*
X247593Y186667D01*
X247618Y186767D01*
X247646Y186865D01*
X247679Y186963D01*
X247715Y187059D01*
X247755Y187154D01*
X247798Y187247D01*
X247815Y187293D01*
X247837Y187338D01*
X247861Y187381D01*
X247888Y187423D01*
X247919Y187462D01*
X247952Y187499D01*
X247987Y187533D01*
X248025Y187565D01*
X248066Y187594D01*
X248108Y187619D01*
X248152Y187642D01*
X248198Y187661D01*
X248245Y187677D01*
X248293Y187690D01*
X248341Y187699D01*
X248390Y187704D01*
X248440Y187706D01*
X248490Y187704D01*
X248539Y187699D01*
X248587Y187690D01*
X248635Y187677D01*
X248682Y187661D01*
X248728Y187642D01*
X248772Y187619D01*
X248814Y187594D01*
X248855Y187565D01*
X248893Y187533D01*
X248928Y187499D01*
X248961Y187462D01*
X248992Y187423D01*
X249019Y187381D01*
X249043Y187338D01*
X249065Y187293D01*
X249082Y187247D01*
X249083Y187247D02*
X249126Y187154D01*
X249166Y187059D01*
X249202Y186963D01*
X249235Y186865D01*
X249263Y186767D01*
X249288Y186667D01*
X249310Y186566D01*
X249327Y186465D01*
X249341Y186363D01*
X249350Y186261D01*
X249356Y186158D01*
X249358Y186055D01*
X247523Y186055D02*
X247525Y185952D01*
X247531Y185850D01*
X247540Y185747D01*
X247554Y185645D01*
X247571Y185544D01*
X247593Y185443D01*
X247618Y185343D01*
X247646Y185245D01*
X247679Y185147D01*
X247715Y185051D01*
X247755Y184956D01*
X247798Y184863D01*
X247815Y184817D01*
X247837Y184772D01*
X247861Y184729D01*
X247888Y184687D01*
X247919Y184648D01*
X247952Y184611D01*
X247987Y184577D01*
X248025Y184545D01*
X248066Y184516D01*
X248108Y184491D01*
X248152Y184468D01*
X248198Y184449D01*
X248245Y184433D01*
X248293Y184420D01*
X248341Y184411D01*
X248390Y184406D01*
X248440Y184404D01*
X249082Y184863D02*
X249125Y184956D01*
X249165Y185051D01*
X249201Y185147D01*
X249234Y185245D01*
X249262Y185343D01*
X249287Y185443D01*
X249309Y185544D01*
X249326Y185645D01*
X249340Y185747D01*
X249349Y185849D01*
X249355Y185952D01*
X249357Y186055D01*
X249082Y184863D02*
X249065Y184817D01*
X249043Y184772D01*
X249019Y184729D01*
X248992Y184687D01*
X248961Y184648D01*
X248928Y184611D01*
X248893Y184577D01*
X248855Y184545D01*
X248814Y184516D01*
X248772Y184491D01*
X248728Y184468D01*
X248682Y184449D01*
X248635Y184433D01*
X248587Y184420D01*
X248539Y184411D01*
X248490Y184406D01*
X248440Y184404D01*
X247706Y185138D02*
X249174Y186972D01*
X251045Y186605D02*
X251045Y183303D01*
X251045Y186605D02*
X251962Y186605D01*
X252007Y186603D01*
X252053Y186597D01*
X252097Y186588D01*
X252141Y186575D01*
X252183Y186559D01*
X252224Y186539D01*
X252263Y186515D01*
X252300Y186489D01*
X252335Y186460D01*
X252367Y186428D01*
X252396Y186393D01*
X252422Y186356D01*
X252446Y186317D01*
X252466Y186276D01*
X252482Y186234D01*
X252495Y186190D01*
X252504Y186146D01*
X252510Y186100D01*
X252512Y186055D01*
X252512Y184954D01*
X252510Y184909D01*
X252504Y184863D01*
X252495Y184819D01*
X252482Y184775D01*
X252466Y184733D01*
X252446Y184692D01*
X252422Y184653D01*
X252396Y184616D01*
X252367Y184581D01*
X252335Y184549D01*
X252300Y184520D01*
X252263Y184494D01*
X252224Y184470D01*
X252183Y184450D01*
X252141Y184434D01*
X252097Y184421D01*
X252053Y184412D01*
X252007Y184406D01*
X251962Y184404D01*
X251045Y184404D01*
D11*
X316570Y304220D02*
X320870Y304220D01*
X321070Y295220D02*
X316770Y295220D01*
D12*
X317036Y308801D02*
X317034Y308857D01*
X317028Y308913D01*
X317019Y308969D01*
X317005Y309024D01*
X316988Y309078D01*
X316968Y309130D01*
X316943Y309181D01*
X316916Y309230D01*
X316885Y309277D01*
X316851Y309322D01*
X316814Y309365D01*
X316774Y309405D01*
X316731Y309442D01*
X316686Y309476D01*
X316639Y309507D01*
X316590Y309534D01*
X316539Y309559D01*
X316487Y309579D01*
X316433Y309596D01*
X316378Y309610D01*
X316322Y309619D01*
X316266Y309625D01*
X316210Y309627D01*
X316210Y309626D02*
X316146Y309624D01*
X316083Y309618D01*
X316020Y309609D01*
X315958Y309596D01*
X315897Y309579D01*
X315837Y309558D01*
X315778Y309534D01*
X315721Y309507D01*
X315665Y309476D01*
X315612Y309441D01*
X315561Y309404D01*
X315511Y309364D01*
X315465Y309320D01*
X315421Y309274D01*
X315380Y309226D01*
X315342Y309175D01*
X315307Y309122D01*
X315275Y309067D01*
X315247Y309010D01*
X315222Y308952D01*
X315201Y308892D01*
X316761Y308159D02*
X316799Y308198D01*
X316836Y308240D01*
X316869Y308284D01*
X316900Y308329D01*
X316928Y308377D01*
X316953Y308426D01*
X316975Y308477D01*
X316993Y308529D01*
X317009Y308582D01*
X317021Y308636D01*
X317029Y308691D01*
X317034Y308746D01*
X317036Y308801D01*
X316761Y308158D02*
X315201Y306324D01*
X317036Y306324D01*
X319639Y309627D02*
X319695Y309625D01*
X319751Y309619D01*
X319807Y309610D01*
X319862Y309596D01*
X319916Y309579D01*
X319968Y309559D01*
X320019Y309534D01*
X320068Y309507D01*
X320115Y309476D01*
X320160Y309442D01*
X320203Y309405D01*
X320243Y309365D01*
X320280Y309322D01*
X320314Y309277D01*
X320345Y309230D01*
X320372Y309181D01*
X320397Y309130D01*
X320417Y309078D01*
X320434Y309024D01*
X320448Y308969D01*
X320457Y308913D01*
X320463Y308857D01*
X320465Y308801D01*
X319639Y309626D02*
X319575Y309624D01*
X319512Y309618D01*
X319449Y309609D01*
X319387Y309596D01*
X319326Y309579D01*
X319266Y309558D01*
X319207Y309534D01*
X319150Y309507D01*
X319094Y309476D01*
X319041Y309441D01*
X318990Y309404D01*
X318940Y309364D01*
X318894Y309320D01*
X318850Y309274D01*
X318809Y309226D01*
X318771Y309175D01*
X318736Y309122D01*
X318704Y309067D01*
X318676Y309010D01*
X318651Y308952D01*
X318630Y308892D01*
X320190Y308159D02*
X320228Y308198D01*
X320265Y308240D01*
X320298Y308284D01*
X320329Y308329D01*
X320357Y308377D01*
X320382Y308426D01*
X320404Y308477D01*
X320422Y308529D01*
X320438Y308582D01*
X320450Y308636D01*
X320458Y308691D01*
X320463Y308746D01*
X320465Y308801D01*
X320190Y308158D02*
X318630Y306324D01*
X320465Y306324D01*
X322128Y306874D02*
X322128Y308525D01*
X322129Y306874D02*
X322131Y306829D01*
X322137Y306783D01*
X322146Y306739D01*
X322159Y306695D01*
X322175Y306653D01*
X322195Y306612D01*
X322219Y306573D01*
X322245Y306536D01*
X322274Y306501D01*
X322306Y306469D01*
X322341Y306440D01*
X322378Y306414D01*
X322417Y306390D01*
X322458Y306370D01*
X322500Y306354D01*
X322544Y306341D01*
X322588Y306332D01*
X322634Y306326D01*
X322679Y306324D01*
X323596Y306324D01*
X323596Y308525D01*
D11*
X33850Y244530D02*
X29550Y244530D01*
X29750Y235530D02*
X34050Y235530D01*
D12*
X26924Y249202D02*
X27841Y249936D01*
X27841Y246634D01*
X26924Y246634D02*
X28758Y246634D01*
X30353Y248285D02*
X30355Y248388D01*
X30361Y248491D01*
X30370Y248593D01*
X30384Y248695D01*
X30401Y248796D01*
X30423Y248897D01*
X30448Y248997D01*
X30476Y249095D01*
X30509Y249193D01*
X30545Y249289D01*
X30585Y249384D01*
X30628Y249477D01*
X30645Y249523D01*
X30667Y249568D01*
X30691Y249611D01*
X30718Y249653D01*
X30749Y249692D01*
X30782Y249729D01*
X30817Y249763D01*
X30855Y249795D01*
X30896Y249824D01*
X30938Y249849D01*
X30982Y249872D01*
X31028Y249891D01*
X31075Y249907D01*
X31123Y249920D01*
X31171Y249929D01*
X31220Y249934D01*
X31270Y249936D01*
X31320Y249934D01*
X31369Y249929D01*
X31417Y249920D01*
X31465Y249907D01*
X31512Y249891D01*
X31558Y249872D01*
X31602Y249849D01*
X31644Y249824D01*
X31685Y249795D01*
X31723Y249763D01*
X31758Y249729D01*
X31791Y249692D01*
X31822Y249653D01*
X31849Y249611D01*
X31873Y249568D01*
X31895Y249523D01*
X31912Y249477D01*
X31913Y249477D02*
X31956Y249384D01*
X31996Y249289D01*
X32032Y249193D01*
X32065Y249095D01*
X32093Y248997D01*
X32118Y248897D01*
X32140Y248796D01*
X32157Y248695D01*
X32171Y248593D01*
X32180Y248491D01*
X32186Y248388D01*
X32188Y248285D01*
X30353Y248285D02*
X30355Y248182D01*
X30361Y248080D01*
X30370Y247977D01*
X30384Y247875D01*
X30401Y247774D01*
X30423Y247673D01*
X30448Y247573D01*
X30476Y247475D01*
X30509Y247377D01*
X30545Y247281D01*
X30585Y247186D01*
X30628Y247093D01*
X30645Y247047D01*
X30667Y247002D01*
X30691Y246959D01*
X30718Y246917D01*
X30749Y246878D01*
X30782Y246841D01*
X30817Y246807D01*
X30855Y246775D01*
X30896Y246746D01*
X30938Y246721D01*
X30982Y246698D01*
X31028Y246679D01*
X31075Y246663D01*
X31123Y246650D01*
X31171Y246641D01*
X31220Y246636D01*
X31270Y246634D01*
X31912Y247093D02*
X31955Y247186D01*
X31995Y247281D01*
X32031Y247377D01*
X32064Y247475D01*
X32092Y247573D01*
X32117Y247673D01*
X32139Y247774D01*
X32156Y247875D01*
X32170Y247977D01*
X32179Y248079D01*
X32185Y248182D01*
X32187Y248285D01*
X31912Y247093D02*
X31895Y247047D01*
X31873Y247002D01*
X31849Y246959D01*
X31822Y246917D01*
X31791Y246878D01*
X31758Y246841D01*
X31723Y246807D01*
X31685Y246775D01*
X31644Y246746D01*
X31602Y246721D01*
X31558Y246698D01*
X31512Y246679D01*
X31465Y246663D01*
X31417Y246650D01*
X31369Y246641D01*
X31320Y246636D01*
X31270Y246634D01*
X30536Y247368D02*
X32004Y249202D01*
X33851Y248835D02*
X33851Y246634D01*
X33851Y248835D02*
X34768Y248835D01*
X34813Y248833D01*
X34859Y248827D01*
X34903Y248818D01*
X34947Y248805D01*
X34989Y248789D01*
X35030Y248769D01*
X35069Y248745D01*
X35106Y248719D01*
X35141Y248690D01*
X35173Y248658D01*
X35202Y248623D01*
X35228Y248586D01*
X35252Y248547D01*
X35272Y248506D01*
X35288Y248464D01*
X35301Y248420D01*
X35310Y248376D01*
X35316Y248330D01*
X35318Y248285D01*
X35319Y248285D02*
X35319Y246634D01*
D11*
X60130Y235530D02*
X64430Y235530D01*
X64230Y244530D02*
X59930Y244530D01*
D12*
X60509Y249111D02*
X60507Y249167D01*
X60501Y249223D01*
X60492Y249279D01*
X60478Y249334D01*
X60461Y249388D01*
X60441Y249440D01*
X60416Y249491D01*
X60389Y249540D01*
X60358Y249587D01*
X60324Y249632D01*
X60287Y249675D01*
X60247Y249715D01*
X60204Y249752D01*
X60159Y249786D01*
X60112Y249817D01*
X60063Y249844D01*
X60012Y249869D01*
X59960Y249889D01*
X59906Y249906D01*
X59851Y249920D01*
X59795Y249929D01*
X59739Y249935D01*
X59683Y249937D01*
X59683Y249936D02*
X59619Y249934D01*
X59556Y249928D01*
X59493Y249919D01*
X59431Y249906D01*
X59370Y249889D01*
X59310Y249868D01*
X59251Y249844D01*
X59194Y249817D01*
X59138Y249786D01*
X59085Y249751D01*
X59034Y249714D01*
X58984Y249674D01*
X58938Y249630D01*
X58894Y249584D01*
X58853Y249536D01*
X58815Y249485D01*
X58780Y249432D01*
X58748Y249377D01*
X58720Y249320D01*
X58695Y249262D01*
X58674Y249202D01*
X60234Y248469D02*
X60272Y248508D01*
X60309Y248550D01*
X60342Y248594D01*
X60373Y248639D01*
X60401Y248687D01*
X60426Y248736D01*
X60448Y248787D01*
X60466Y248839D01*
X60482Y248892D01*
X60494Y248946D01*
X60502Y249001D01*
X60507Y249056D01*
X60509Y249111D01*
X60233Y248468D02*
X58674Y246634D01*
X60508Y246634D01*
X63112Y249937D02*
X63168Y249935D01*
X63224Y249929D01*
X63280Y249920D01*
X63335Y249906D01*
X63389Y249889D01*
X63441Y249869D01*
X63492Y249844D01*
X63541Y249817D01*
X63588Y249786D01*
X63633Y249752D01*
X63676Y249715D01*
X63716Y249675D01*
X63753Y249632D01*
X63787Y249587D01*
X63818Y249540D01*
X63845Y249491D01*
X63870Y249440D01*
X63890Y249388D01*
X63907Y249334D01*
X63921Y249279D01*
X63930Y249223D01*
X63936Y249167D01*
X63938Y249111D01*
X63112Y249936D02*
X63048Y249934D01*
X62985Y249928D01*
X62922Y249919D01*
X62860Y249906D01*
X62799Y249889D01*
X62739Y249868D01*
X62680Y249844D01*
X62623Y249817D01*
X62567Y249786D01*
X62514Y249751D01*
X62463Y249714D01*
X62413Y249674D01*
X62367Y249630D01*
X62323Y249584D01*
X62282Y249536D01*
X62244Y249485D01*
X62209Y249432D01*
X62177Y249377D01*
X62149Y249320D01*
X62124Y249262D01*
X62103Y249202D01*
X63663Y248469D02*
X63701Y248508D01*
X63738Y248550D01*
X63771Y248594D01*
X63802Y248639D01*
X63830Y248687D01*
X63855Y248736D01*
X63877Y248787D01*
X63895Y248839D01*
X63911Y248892D01*
X63923Y248946D01*
X63931Y249001D01*
X63936Y249056D01*
X63938Y249111D01*
X63662Y248468D02*
X62103Y246634D01*
X63937Y246634D01*
X65601Y247184D02*
X65601Y248835D01*
X65601Y247184D02*
X65603Y247139D01*
X65609Y247093D01*
X65618Y247049D01*
X65631Y247005D01*
X65647Y246963D01*
X65667Y246922D01*
X65691Y246883D01*
X65717Y246846D01*
X65746Y246811D01*
X65778Y246779D01*
X65813Y246750D01*
X65850Y246724D01*
X65889Y246700D01*
X65930Y246680D01*
X65972Y246664D01*
X66016Y246651D01*
X66060Y246642D01*
X66106Y246636D01*
X66151Y246634D01*
X67069Y246634D01*
X67069Y248835D01*
D11*
X33850Y304220D02*
X29550Y304220D01*
X29750Y295220D02*
X34050Y295220D01*
D12*
X26924Y308892D02*
X27841Y309626D01*
X27841Y306324D01*
X26924Y306324D02*
X28758Y306324D01*
X30353Y307975D02*
X30355Y308078D01*
X30361Y308181D01*
X30370Y308283D01*
X30384Y308385D01*
X30401Y308486D01*
X30423Y308587D01*
X30448Y308687D01*
X30476Y308785D01*
X30509Y308883D01*
X30545Y308979D01*
X30585Y309074D01*
X30628Y309167D01*
X30645Y309213D01*
X30667Y309258D01*
X30691Y309301D01*
X30718Y309343D01*
X30749Y309382D01*
X30782Y309419D01*
X30817Y309453D01*
X30855Y309485D01*
X30896Y309514D01*
X30938Y309539D01*
X30982Y309562D01*
X31028Y309581D01*
X31075Y309597D01*
X31123Y309610D01*
X31171Y309619D01*
X31220Y309624D01*
X31270Y309626D01*
X31320Y309624D01*
X31369Y309619D01*
X31417Y309610D01*
X31465Y309597D01*
X31512Y309581D01*
X31558Y309562D01*
X31602Y309539D01*
X31644Y309514D01*
X31685Y309485D01*
X31723Y309453D01*
X31758Y309419D01*
X31791Y309382D01*
X31822Y309343D01*
X31849Y309301D01*
X31873Y309258D01*
X31895Y309213D01*
X31912Y309167D01*
X31913Y309167D02*
X31956Y309074D01*
X31996Y308979D01*
X32032Y308883D01*
X32065Y308785D01*
X32093Y308687D01*
X32118Y308587D01*
X32140Y308486D01*
X32157Y308385D01*
X32171Y308283D01*
X32180Y308181D01*
X32186Y308078D01*
X32188Y307975D01*
X30353Y307975D02*
X30355Y307872D01*
X30361Y307770D01*
X30370Y307667D01*
X30384Y307565D01*
X30401Y307464D01*
X30423Y307363D01*
X30448Y307263D01*
X30476Y307165D01*
X30509Y307067D01*
X30545Y306971D01*
X30585Y306876D01*
X30628Y306783D01*
X30645Y306737D01*
X30667Y306692D01*
X30691Y306649D01*
X30718Y306607D01*
X30749Y306568D01*
X30782Y306531D01*
X30817Y306497D01*
X30855Y306465D01*
X30896Y306436D01*
X30938Y306411D01*
X30982Y306388D01*
X31028Y306369D01*
X31075Y306353D01*
X31123Y306340D01*
X31171Y306331D01*
X31220Y306326D01*
X31270Y306324D01*
X31912Y306783D02*
X31955Y306876D01*
X31995Y306971D01*
X32031Y307067D01*
X32064Y307165D01*
X32092Y307263D01*
X32117Y307363D01*
X32139Y307464D01*
X32156Y307565D01*
X32170Y307667D01*
X32179Y307769D01*
X32185Y307872D01*
X32187Y307975D01*
X31912Y306783D02*
X31895Y306737D01*
X31873Y306692D01*
X31849Y306649D01*
X31822Y306607D01*
X31791Y306568D01*
X31758Y306531D01*
X31723Y306497D01*
X31685Y306465D01*
X31644Y306436D01*
X31602Y306411D01*
X31558Y306388D01*
X31512Y306369D01*
X31465Y306353D01*
X31417Y306340D01*
X31369Y306331D01*
X31320Y306326D01*
X31270Y306324D01*
X30536Y307058D02*
X32004Y308892D01*
X33851Y308525D02*
X33851Y306324D01*
X33851Y308525D02*
X34768Y308525D01*
X34813Y308523D01*
X34859Y308517D01*
X34903Y308508D01*
X34947Y308495D01*
X34989Y308479D01*
X35030Y308459D01*
X35069Y308435D01*
X35106Y308409D01*
X35141Y308380D01*
X35173Y308348D01*
X35202Y308313D01*
X35228Y308276D01*
X35252Y308237D01*
X35272Y308196D01*
X35288Y308154D01*
X35301Y308110D01*
X35310Y308066D01*
X35316Y308020D01*
X35318Y307975D01*
X35319Y307975D02*
X35319Y306324D01*
D11*
X60130Y295220D02*
X64430Y295220D01*
X64230Y304220D02*
X59930Y304220D01*
D12*
X60509Y308801D02*
X60507Y308857D01*
X60501Y308913D01*
X60492Y308969D01*
X60478Y309024D01*
X60461Y309078D01*
X60441Y309130D01*
X60416Y309181D01*
X60389Y309230D01*
X60358Y309277D01*
X60324Y309322D01*
X60287Y309365D01*
X60247Y309405D01*
X60204Y309442D01*
X60159Y309476D01*
X60112Y309507D01*
X60063Y309534D01*
X60012Y309559D01*
X59960Y309579D01*
X59906Y309596D01*
X59851Y309610D01*
X59795Y309619D01*
X59739Y309625D01*
X59683Y309627D01*
X59683Y309626D02*
X59619Y309624D01*
X59556Y309618D01*
X59493Y309609D01*
X59431Y309596D01*
X59370Y309579D01*
X59310Y309558D01*
X59251Y309534D01*
X59194Y309507D01*
X59138Y309476D01*
X59085Y309441D01*
X59034Y309404D01*
X58984Y309364D01*
X58938Y309320D01*
X58894Y309274D01*
X58853Y309226D01*
X58815Y309175D01*
X58780Y309122D01*
X58748Y309067D01*
X58720Y309010D01*
X58695Y308952D01*
X58674Y308892D01*
X60234Y308159D02*
X60272Y308198D01*
X60309Y308240D01*
X60342Y308284D01*
X60373Y308329D01*
X60401Y308377D01*
X60426Y308426D01*
X60448Y308477D01*
X60466Y308529D01*
X60482Y308582D01*
X60494Y308636D01*
X60502Y308691D01*
X60507Y308746D01*
X60509Y308801D01*
X60233Y308158D02*
X58674Y306324D01*
X60508Y306324D01*
X63112Y309627D02*
X63168Y309625D01*
X63224Y309619D01*
X63280Y309610D01*
X63335Y309596D01*
X63389Y309579D01*
X63441Y309559D01*
X63492Y309534D01*
X63541Y309507D01*
X63588Y309476D01*
X63633Y309442D01*
X63676Y309405D01*
X63716Y309365D01*
X63753Y309322D01*
X63787Y309277D01*
X63818Y309230D01*
X63845Y309181D01*
X63870Y309130D01*
X63890Y309078D01*
X63907Y309024D01*
X63921Y308969D01*
X63930Y308913D01*
X63936Y308857D01*
X63938Y308801D01*
X63112Y309626D02*
X63048Y309624D01*
X62985Y309618D01*
X62922Y309609D01*
X62860Y309596D01*
X62799Y309579D01*
X62739Y309558D01*
X62680Y309534D01*
X62623Y309507D01*
X62567Y309476D01*
X62514Y309441D01*
X62463Y309404D01*
X62413Y309364D01*
X62367Y309320D01*
X62323Y309274D01*
X62282Y309226D01*
X62244Y309175D01*
X62209Y309122D01*
X62177Y309067D01*
X62149Y309010D01*
X62124Y308952D01*
X62103Y308892D01*
X63663Y308159D02*
X63701Y308198D01*
X63738Y308240D01*
X63771Y308284D01*
X63802Y308329D01*
X63830Y308377D01*
X63855Y308426D01*
X63877Y308477D01*
X63895Y308529D01*
X63911Y308582D01*
X63923Y308636D01*
X63931Y308691D01*
X63936Y308746D01*
X63938Y308801D01*
X63662Y308158D02*
X62103Y306324D01*
X63937Y306324D01*
X65601Y306874D02*
X65601Y308525D01*
X65601Y306874D02*
X65603Y306829D01*
X65609Y306783D01*
X65618Y306739D01*
X65631Y306695D01*
X65647Y306653D01*
X65667Y306612D01*
X65691Y306573D01*
X65717Y306536D01*
X65746Y306501D01*
X65778Y306469D01*
X65813Y306440D01*
X65850Y306414D01*
X65889Y306390D01*
X65930Y306370D01*
X65972Y306354D01*
X66016Y306341D01*
X66060Y306332D01*
X66106Y306326D01*
X66151Y306324D01*
X67069Y306324D01*
X67069Y308525D01*
D11*
X91880Y168220D02*
X96180Y168220D01*
X95980Y177220D02*
X91680Y177220D01*
D12*
X87884Y180975D02*
X87886Y181078D01*
X87892Y181181D01*
X87901Y181283D01*
X87915Y181385D01*
X87932Y181486D01*
X87954Y181587D01*
X87979Y181687D01*
X88007Y181785D01*
X88040Y181883D01*
X88076Y181979D01*
X88116Y182074D01*
X88159Y182167D01*
X88176Y182213D01*
X88198Y182258D01*
X88222Y182301D01*
X88249Y182343D01*
X88280Y182382D01*
X88313Y182419D01*
X88348Y182453D01*
X88386Y182485D01*
X88427Y182514D01*
X88469Y182539D01*
X88513Y182562D01*
X88559Y182581D01*
X88606Y182597D01*
X88654Y182610D01*
X88702Y182619D01*
X88751Y182624D01*
X88801Y182626D01*
X88851Y182624D01*
X88900Y182619D01*
X88948Y182610D01*
X88996Y182597D01*
X89043Y182581D01*
X89089Y182562D01*
X89133Y182539D01*
X89175Y182514D01*
X89216Y182485D01*
X89254Y182453D01*
X89289Y182419D01*
X89322Y182382D01*
X89353Y182343D01*
X89380Y182301D01*
X89404Y182258D01*
X89426Y182213D01*
X89443Y182167D01*
X89444Y182167D02*
X89487Y182074D01*
X89527Y181979D01*
X89563Y181883D01*
X89596Y181785D01*
X89624Y181687D01*
X89649Y181587D01*
X89671Y181486D01*
X89688Y181385D01*
X89702Y181283D01*
X89711Y181181D01*
X89717Y181078D01*
X89719Y180975D01*
X87884Y180975D02*
X87886Y180872D01*
X87892Y180770D01*
X87901Y180667D01*
X87915Y180565D01*
X87932Y180464D01*
X87954Y180363D01*
X87979Y180263D01*
X88007Y180165D01*
X88040Y180067D01*
X88076Y179971D01*
X88116Y179876D01*
X88159Y179783D01*
X88176Y179737D01*
X88198Y179692D01*
X88222Y179649D01*
X88249Y179607D01*
X88280Y179568D01*
X88313Y179531D01*
X88348Y179497D01*
X88386Y179465D01*
X88427Y179436D01*
X88469Y179411D01*
X88513Y179388D01*
X88559Y179369D01*
X88606Y179353D01*
X88654Y179340D01*
X88702Y179331D01*
X88751Y179326D01*
X88801Y179324D01*
X89443Y179783D02*
X89486Y179876D01*
X89526Y179971D01*
X89562Y180067D01*
X89595Y180165D01*
X89623Y180263D01*
X89648Y180363D01*
X89670Y180464D01*
X89687Y180565D01*
X89701Y180667D01*
X89710Y180769D01*
X89716Y180872D01*
X89718Y180975D01*
X89443Y179783D02*
X89426Y179737D01*
X89404Y179692D01*
X89380Y179649D01*
X89353Y179607D01*
X89322Y179568D01*
X89289Y179531D01*
X89254Y179497D01*
X89216Y179465D01*
X89175Y179436D01*
X89133Y179411D01*
X89089Y179388D01*
X89043Y179369D01*
X88996Y179353D01*
X88948Y179340D01*
X88900Y179331D01*
X88851Y179326D01*
X88801Y179324D01*
X88067Y180058D02*
X89535Y181892D01*
X91110Y179507D02*
X91110Y179324D01*
X91110Y179507D02*
X91293Y179507D01*
X91293Y179324D01*
X91110Y179324D01*
X92685Y180975D02*
X92687Y181078D01*
X92693Y181181D01*
X92702Y181283D01*
X92716Y181385D01*
X92733Y181486D01*
X92755Y181587D01*
X92780Y181687D01*
X92808Y181785D01*
X92841Y181883D01*
X92877Y181979D01*
X92917Y182074D01*
X92960Y182167D01*
X92977Y182213D01*
X92999Y182258D01*
X93023Y182301D01*
X93050Y182343D01*
X93081Y182382D01*
X93114Y182419D01*
X93149Y182453D01*
X93187Y182485D01*
X93228Y182514D01*
X93270Y182539D01*
X93314Y182562D01*
X93360Y182581D01*
X93407Y182597D01*
X93455Y182610D01*
X93503Y182619D01*
X93552Y182624D01*
X93602Y182626D01*
X93652Y182624D01*
X93701Y182619D01*
X93749Y182610D01*
X93797Y182597D01*
X93844Y182581D01*
X93890Y182562D01*
X93934Y182539D01*
X93976Y182514D01*
X94017Y182485D01*
X94055Y182453D01*
X94090Y182419D01*
X94123Y182382D01*
X94154Y182343D01*
X94181Y182301D01*
X94205Y182258D01*
X94227Y182213D01*
X94244Y182167D01*
X94287Y182074D01*
X94327Y181979D01*
X94363Y181883D01*
X94396Y181785D01*
X94424Y181687D01*
X94449Y181587D01*
X94471Y181486D01*
X94488Y181385D01*
X94502Y181283D01*
X94511Y181181D01*
X94517Y181078D01*
X94519Y180975D01*
X92685Y180975D02*
X92687Y180872D01*
X92693Y180770D01*
X92702Y180667D01*
X92716Y180565D01*
X92733Y180464D01*
X92755Y180363D01*
X92780Y180263D01*
X92808Y180165D01*
X92841Y180067D01*
X92877Y179971D01*
X92917Y179876D01*
X92960Y179783D01*
X92977Y179737D01*
X92999Y179692D01*
X93023Y179649D01*
X93050Y179607D01*
X93081Y179568D01*
X93114Y179531D01*
X93149Y179497D01*
X93187Y179465D01*
X93228Y179436D01*
X93270Y179411D01*
X93314Y179388D01*
X93360Y179369D01*
X93407Y179353D01*
X93455Y179340D01*
X93503Y179331D01*
X93552Y179326D01*
X93602Y179324D01*
X94244Y179783D02*
X94287Y179876D01*
X94327Y179971D01*
X94363Y180067D01*
X94396Y180165D01*
X94424Y180263D01*
X94449Y180363D01*
X94471Y180464D01*
X94488Y180565D01*
X94502Y180667D01*
X94511Y180769D01*
X94517Y180872D01*
X94519Y180975D01*
X94244Y179783D02*
X94227Y179737D01*
X94205Y179692D01*
X94181Y179649D01*
X94154Y179607D01*
X94123Y179568D01*
X94090Y179531D01*
X94055Y179497D01*
X94017Y179465D01*
X93976Y179436D01*
X93934Y179411D01*
X93890Y179388D01*
X93844Y179369D01*
X93797Y179353D01*
X93749Y179340D01*
X93701Y179331D01*
X93652Y179326D01*
X93602Y179324D01*
X92868Y180058D02*
X94336Y181892D01*
X96114Y181892D02*
X97031Y182626D01*
X97031Y179324D01*
X96114Y179324D02*
X97948Y179324D01*
X99612Y179874D02*
X99612Y181525D01*
X99612Y179874D02*
X99614Y179829D01*
X99620Y179783D01*
X99629Y179739D01*
X99642Y179695D01*
X99658Y179653D01*
X99678Y179612D01*
X99702Y179573D01*
X99728Y179536D01*
X99757Y179501D01*
X99789Y179469D01*
X99824Y179440D01*
X99861Y179414D01*
X99900Y179390D01*
X99941Y179370D01*
X99983Y179354D01*
X100027Y179341D01*
X100071Y179332D01*
X100117Y179326D01*
X100162Y179324D01*
X101079Y179324D01*
X101079Y181525D01*
D11*
X122360Y116150D02*
X126660Y116150D01*
X126460Y125150D02*
X122160Y125150D01*
D12*
X119634Y129822D02*
X120551Y130556D01*
X120551Y127254D01*
X119634Y127254D02*
X121468Y127254D01*
X123063Y128905D02*
X123065Y129008D01*
X123071Y129111D01*
X123080Y129213D01*
X123094Y129315D01*
X123111Y129416D01*
X123133Y129517D01*
X123158Y129617D01*
X123186Y129715D01*
X123219Y129813D01*
X123255Y129909D01*
X123295Y130004D01*
X123338Y130097D01*
X123355Y130143D01*
X123377Y130188D01*
X123401Y130231D01*
X123428Y130273D01*
X123459Y130312D01*
X123492Y130349D01*
X123527Y130383D01*
X123565Y130415D01*
X123606Y130444D01*
X123648Y130469D01*
X123692Y130492D01*
X123738Y130511D01*
X123785Y130527D01*
X123833Y130540D01*
X123881Y130549D01*
X123930Y130554D01*
X123980Y130556D01*
X124030Y130554D01*
X124079Y130549D01*
X124127Y130540D01*
X124175Y130527D01*
X124222Y130511D01*
X124268Y130492D01*
X124312Y130469D01*
X124354Y130444D01*
X124395Y130415D01*
X124433Y130383D01*
X124468Y130349D01*
X124501Y130312D01*
X124532Y130273D01*
X124559Y130231D01*
X124583Y130188D01*
X124605Y130143D01*
X124622Y130097D01*
X124623Y130097D02*
X124666Y130004D01*
X124706Y129909D01*
X124742Y129813D01*
X124775Y129715D01*
X124803Y129617D01*
X124828Y129517D01*
X124850Y129416D01*
X124867Y129315D01*
X124881Y129213D01*
X124890Y129111D01*
X124896Y129008D01*
X124898Y128905D01*
X123063Y128905D02*
X123065Y128802D01*
X123071Y128700D01*
X123080Y128597D01*
X123094Y128495D01*
X123111Y128394D01*
X123133Y128293D01*
X123158Y128193D01*
X123186Y128095D01*
X123219Y127997D01*
X123255Y127901D01*
X123295Y127806D01*
X123338Y127713D01*
X123355Y127667D01*
X123377Y127622D01*
X123401Y127579D01*
X123428Y127537D01*
X123459Y127498D01*
X123492Y127461D01*
X123527Y127427D01*
X123565Y127395D01*
X123606Y127366D01*
X123648Y127341D01*
X123692Y127318D01*
X123738Y127299D01*
X123785Y127283D01*
X123833Y127270D01*
X123881Y127261D01*
X123930Y127256D01*
X123980Y127254D01*
X124622Y127713D02*
X124665Y127806D01*
X124705Y127901D01*
X124741Y127997D01*
X124774Y128095D01*
X124802Y128193D01*
X124827Y128293D01*
X124849Y128394D01*
X124866Y128495D01*
X124880Y128597D01*
X124889Y128699D01*
X124895Y128802D01*
X124897Y128905D01*
X124622Y127713D02*
X124605Y127667D01*
X124583Y127622D01*
X124559Y127579D01*
X124532Y127537D01*
X124501Y127498D01*
X124468Y127461D01*
X124433Y127427D01*
X124395Y127395D01*
X124354Y127366D01*
X124312Y127341D01*
X124268Y127318D01*
X124222Y127299D01*
X124175Y127283D01*
X124127Y127270D01*
X124079Y127261D01*
X124030Y127256D01*
X123980Y127254D01*
X123246Y127988D02*
X124714Y129822D01*
X126492Y128905D02*
X126494Y129008D01*
X126500Y129111D01*
X126509Y129213D01*
X126523Y129315D01*
X126540Y129416D01*
X126562Y129517D01*
X126587Y129617D01*
X126615Y129715D01*
X126648Y129813D01*
X126684Y129909D01*
X126724Y130004D01*
X126767Y130097D01*
X126784Y130143D01*
X126806Y130188D01*
X126830Y130231D01*
X126857Y130273D01*
X126888Y130312D01*
X126921Y130349D01*
X126956Y130383D01*
X126994Y130415D01*
X127035Y130444D01*
X127077Y130469D01*
X127121Y130492D01*
X127167Y130511D01*
X127214Y130527D01*
X127262Y130540D01*
X127310Y130549D01*
X127359Y130554D01*
X127409Y130556D01*
X127459Y130554D01*
X127508Y130549D01*
X127556Y130540D01*
X127604Y130527D01*
X127651Y130511D01*
X127697Y130492D01*
X127741Y130469D01*
X127783Y130444D01*
X127824Y130415D01*
X127862Y130383D01*
X127897Y130349D01*
X127930Y130312D01*
X127961Y130273D01*
X127988Y130231D01*
X128012Y130188D01*
X128034Y130143D01*
X128051Y130097D01*
X128052Y130097D02*
X128095Y130004D01*
X128135Y129909D01*
X128171Y129813D01*
X128204Y129715D01*
X128232Y129617D01*
X128257Y129517D01*
X128279Y129416D01*
X128296Y129315D01*
X128310Y129213D01*
X128319Y129111D01*
X128325Y129008D01*
X128327Y128905D01*
X126492Y128905D02*
X126494Y128802D01*
X126500Y128700D01*
X126509Y128597D01*
X126523Y128495D01*
X126540Y128394D01*
X126562Y128293D01*
X126587Y128193D01*
X126615Y128095D01*
X126648Y127997D01*
X126684Y127901D01*
X126724Y127806D01*
X126767Y127713D01*
X126784Y127667D01*
X126806Y127622D01*
X126830Y127579D01*
X126857Y127537D01*
X126888Y127498D01*
X126921Y127461D01*
X126956Y127427D01*
X126994Y127395D01*
X127035Y127366D01*
X127077Y127341D01*
X127121Y127318D01*
X127167Y127299D01*
X127214Y127283D01*
X127262Y127270D01*
X127310Y127261D01*
X127359Y127256D01*
X127409Y127254D01*
X128051Y127713D02*
X128094Y127806D01*
X128134Y127901D01*
X128170Y127997D01*
X128203Y128095D01*
X128231Y128193D01*
X128256Y128293D01*
X128278Y128394D01*
X128295Y128495D01*
X128309Y128597D01*
X128318Y128699D01*
X128324Y128802D01*
X128326Y128905D01*
X128051Y127713D02*
X128034Y127667D01*
X128012Y127622D01*
X127988Y127579D01*
X127961Y127537D01*
X127930Y127498D01*
X127897Y127461D01*
X127862Y127427D01*
X127824Y127395D01*
X127783Y127366D01*
X127741Y127341D01*
X127697Y127318D01*
X127651Y127299D01*
X127604Y127283D01*
X127556Y127270D01*
X127508Y127261D01*
X127459Y127256D01*
X127409Y127254D01*
X126675Y127988D02*
X128143Y129822D01*
X129990Y129455D02*
X129990Y127254D01*
X129990Y129455D02*
X130907Y129455D01*
X130952Y129453D01*
X130998Y129447D01*
X131042Y129438D01*
X131086Y129425D01*
X131128Y129409D01*
X131169Y129389D01*
X131208Y129365D01*
X131245Y129339D01*
X131280Y129310D01*
X131312Y129278D01*
X131341Y129243D01*
X131367Y129206D01*
X131391Y129167D01*
X131411Y129126D01*
X131427Y129084D01*
X131440Y129040D01*
X131449Y128996D01*
X131455Y128950D01*
X131457Y128905D01*
X131458Y128905D02*
X131458Y127254D01*
D11*
X152840Y116150D02*
X157140Y116150D01*
X156940Y125150D02*
X152640Y125150D01*
D12*
X151949Y129731D02*
X151947Y129787D01*
X151941Y129843D01*
X151932Y129899D01*
X151918Y129954D01*
X151901Y130008D01*
X151881Y130060D01*
X151856Y130111D01*
X151829Y130160D01*
X151798Y130207D01*
X151764Y130252D01*
X151727Y130295D01*
X151687Y130335D01*
X151644Y130372D01*
X151599Y130406D01*
X151552Y130437D01*
X151503Y130464D01*
X151452Y130489D01*
X151400Y130509D01*
X151346Y130526D01*
X151291Y130540D01*
X151235Y130549D01*
X151179Y130555D01*
X151123Y130557D01*
X151123Y130556D02*
X151059Y130554D01*
X150996Y130548D01*
X150933Y130539D01*
X150871Y130526D01*
X150810Y130509D01*
X150750Y130488D01*
X150691Y130464D01*
X150634Y130437D01*
X150578Y130406D01*
X150525Y130371D01*
X150474Y130334D01*
X150424Y130294D01*
X150378Y130250D01*
X150334Y130204D01*
X150293Y130156D01*
X150255Y130105D01*
X150220Y130052D01*
X150188Y129997D01*
X150160Y129940D01*
X150135Y129882D01*
X150114Y129822D01*
X151674Y129089D02*
X151712Y129128D01*
X151749Y129170D01*
X151782Y129214D01*
X151813Y129259D01*
X151841Y129307D01*
X151866Y129356D01*
X151888Y129407D01*
X151906Y129459D01*
X151922Y129512D01*
X151934Y129566D01*
X151942Y129621D01*
X151947Y129676D01*
X151949Y129731D01*
X151673Y129088D02*
X150114Y127254D01*
X151948Y127254D01*
X153340Y127254D02*
X153340Y127437D01*
X153523Y127437D01*
X153523Y127254D01*
X153340Y127254D01*
X155924Y130557D02*
X155980Y130555D01*
X156036Y130549D01*
X156092Y130540D01*
X156147Y130526D01*
X156201Y130509D01*
X156253Y130489D01*
X156304Y130464D01*
X156353Y130437D01*
X156400Y130406D01*
X156445Y130372D01*
X156488Y130335D01*
X156528Y130295D01*
X156565Y130252D01*
X156599Y130207D01*
X156630Y130160D01*
X156657Y130111D01*
X156682Y130060D01*
X156702Y130008D01*
X156719Y129954D01*
X156733Y129899D01*
X156742Y129843D01*
X156748Y129787D01*
X156750Y129731D01*
X155924Y130556D02*
X155860Y130554D01*
X155797Y130548D01*
X155734Y130539D01*
X155672Y130526D01*
X155611Y130509D01*
X155551Y130488D01*
X155492Y130464D01*
X155435Y130437D01*
X155379Y130406D01*
X155326Y130371D01*
X155275Y130334D01*
X155225Y130294D01*
X155179Y130250D01*
X155135Y130204D01*
X155094Y130156D01*
X155056Y130105D01*
X155021Y130052D01*
X154989Y129997D01*
X154961Y129940D01*
X154936Y129882D01*
X154915Y129822D01*
X156474Y129089D02*
X156512Y129128D01*
X156549Y129170D01*
X156582Y129214D01*
X156613Y129259D01*
X156641Y129307D01*
X156666Y129356D01*
X156688Y129407D01*
X156706Y129459D01*
X156722Y129512D01*
X156734Y129566D01*
X156742Y129621D01*
X156747Y129676D01*
X156749Y129731D01*
X156474Y129088D02*
X154915Y127254D01*
X156749Y127254D01*
X158413Y127254D02*
X158413Y129455D01*
X159330Y129455D01*
X159375Y129453D01*
X159421Y129447D01*
X159465Y129438D01*
X159509Y129425D01*
X159551Y129409D01*
X159592Y129389D01*
X159631Y129365D01*
X159668Y129339D01*
X159703Y129310D01*
X159735Y129278D01*
X159764Y129243D01*
X159790Y129206D01*
X159814Y129167D01*
X159834Y129126D01*
X159850Y129084D01*
X159863Y129040D01*
X159872Y128996D01*
X159878Y128950D01*
X159880Y128905D01*
X159880Y127254D01*
D11*
X232750Y460430D02*
X237050Y460430D01*
X237250Y451430D02*
X232950Y451430D01*
D12*
X230088Y465102D02*
X231005Y465836D01*
X231005Y462534D01*
X230088Y462534D02*
X231922Y462534D01*
X233517Y463451D02*
X233519Y463510D01*
X233525Y463568D01*
X233534Y463626D01*
X233547Y463684D01*
X233564Y463740D01*
X233584Y463795D01*
X233608Y463849D01*
X233635Y463901D01*
X233665Y463951D01*
X233699Y463999D01*
X233736Y464045D01*
X233775Y464089D01*
X233818Y464130D01*
X233862Y464168D01*
X233909Y464203D01*
X233959Y464235D01*
X234010Y464264D01*
X234063Y464290D01*
X234117Y464312D01*
X234173Y464330D01*
X234230Y464345D01*
X234288Y464356D01*
X234346Y464364D01*
X234405Y464368D01*
X234463Y464368D01*
X234522Y464364D01*
X234580Y464356D01*
X234638Y464345D01*
X234695Y464330D01*
X234751Y464312D01*
X234805Y464290D01*
X234858Y464264D01*
X234909Y464235D01*
X234959Y464203D01*
X235006Y464168D01*
X235050Y464130D01*
X235093Y464089D01*
X235132Y464045D01*
X235169Y463999D01*
X235203Y463951D01*
X235233Y463901D01*
X235260Y463849D01*
X235284Y463795D01*
X235304Y463740D01*
X235321Y463684D01*
X235334Y463626D01*
X235343Y463568D01*
X235349Y463510D01*
X235351Y463451D01*
X235349Y463392D01*
X235343Y463334D01*
X235334Y463276D01*
X235321Y463218D01*
X235304Y463162D01*
X235284Y463107D01*
X235260Y463053D01*
X235233Y463001D01*
X235203Y462951D01*
X235169Y462903D01*
X235132Y462857D01*
X235093Y462813D01*
X235050Y462772D01*
X235006Y462734D01*
X234959Y462699D01*
X234909Y462667D01*
X234858Y462638D01*
X234805Y462612D01*
X234751Y462590D01*
X234695Y462572D01*
X234638Y462557D01*
X234580Y462546D01*
X234522Y462538D01*
X234463Y462534D01*
X234405Y462534D01*
X234346Y462538D01*
X234288Y462546D01*
X234230Y462557D01*
X234173Y462572D01*
X234117Y462590D01*
X234063Y462612D01*
X234010Y462638D01*
X233959Y462667D01*
X233909Y462699D01*
X233862Y462734D01*
X233818Y462772D01*
X233775Y462813D01*
X233736Y462857D01*
X233699Y462903D01*
X233665Y462951D01*
X233635Y463001D01*
X233608Y463053D01*
X233584Y463107D01*
X233564Y463162D01*
X233547Y463218D01*
X233534Y463276D01*
X233525Y463334D01*
X233519Y463392D01*
X233517Y463451D01*
X233700Y465102D02*
X233702Y465154D01*
X233707Y465206D01*
X233717Y465258D01*
X233730Y465309D01*
X233746Y465359D01*
X233766Y465407D01*
X233790Y465454D01*
X233817Y465499D01*
X233846Y465542D01*
X233879Y465583D01*
X233915Y465621D01*
X233953Y465657D01*
X233994Y465690D01*
X234037Y465719D01*
X234082Y465746D01*
X234129Y465770D01*
X234177Y465790D01*
X234227Y465806D01*
X234278Y465819D01*
X234330Y465829D01*
X234382Y465834D01*
X234434Y465836D01*
X234486Y465834D01*
X234538Y465829D01*
X234590Y465819D01*
X234641Y465806D01*
X234691Y465790D01*
X234739Y465770D01*
X234786Y465746D01*
X234831Y465719D01*
X234874Y465690D01*
X234915Y465657D01*
X234953Y465621D01*
X234989Y465583D01*
X235022Y465542D01*
X235051Y465499D01*
X235078Y465454D01*
X235102Y465407D01*
X235122Y465359D01*
X235138Y465309D01*
X235151Y465258D01*
X235161Y465206D01*
X235166Y465154D01*
X235168Y465102D01*
X235166Y465050D01*
X235161Y464998D01*
X235151Y464946D01*
X235138Y464895D01*
X235122Y464845D01*
X235102Y464797D01*
X235078Y464750D01*
X235051Y464705D01*
X235022Y464662D01*
X234989Y464621D01*
X234953Y464583D01*
X234915Y464547D01*
X234874Y464514D01*
X234831Y464485D01*
X234786Y464458D01*
X234739Y464434D01*
X234691Y464414D01*
X234641Y464398D01*
X234590Y464385D01*
X234538Y464375D01*
X234486Y464370D01*
X234434Y464368D01*
X234382Y464370D01*
X234330Y464375D01*
X234278Y464385D01*
X234227Y464398D01*
X234177Y464414D01*
X234129Y464434D01*
X234082Y464458D01*
X234037Y464485D01*
X233994Y464514D01*
X233953Y464547D01*
X233915Y464583D01*
X233879Y464621D01*
X233846Y464662D01*
X233817Y464705D01*
X233790Y464750D01*
X233766Y464797D01*
X233746Y464845D01*
X233730Y464895D01*
X233717Y464946D01*
X233707Y464998D01*
X233702Y465050D01*
X233700Y465102D01*
X237038Y464735D02*
X237038Y461433D01*
X237038Y464735D02*
X237956Y464735D01*
X238001Y464733D01*
X238047Y464727D01*
X238091Y464718D01*
X238135Y464705D01*
X238177Y464689D01*
X238218Y464669D01*
X238257Y464645D01*
X238294Y464619D01*
X238329Y464590D01*
X238361Y464558D01*
X238390Y464523D01*
X238416Y464486D01*
X238440Y464447D01*
X238460Y464406D01*
X238476Y464364D01*
X238489Y464320D01*
X238498Y464276D01*
X238504Y464230D01*
X238506Y464185D01*
X238506Y463084D01*
X238504Y463039D01*
X238498Y462993D01*
X238489Y462949D01*
X238476Y462905D01*
X238460Y462863D01*
X238440Y462822D01*
X238416Y462783D01*
X238390Y462746D01*
X238361Y462711D01*
X238329Y462679D01*
X238294Y462650D01*
X238257Y462624D01*
X238218Y462600D01*
X238177Y462580D01*
X238135Y462564D01*
X238091Y462551D01*
X238047Y462542D01*
X238001Y462536D01*
X237956Y462534D01*
X237038Y462534D01*
D11*
X237050Y442650D02*
X232750Y442650D01*
X232950Y433650D02*
X237250Y433650D01*
D12*
X231358Y447322D02*
X232275Y448056D01*
X232275Y444754D01*
X231358Y444754D02*
X233192Y444754D01*
X234787Y445671D02*
X234789Y445730D01*
X234795Y445788D01*
X234804Y445846D01*
X234817Y445904D01*
X234834Y445960D01*
X234854Y446015D01*
X234878Y446069D01*
X234905Y446121D01*
X234935Y446171D01*
X234969Y446219D01*
X235006Y446265D01*
X235045Y446309D01*
X235088Y446350D01*
X235132Y446388D01*
X235179Y446423D01*
X235229Y446455D01*
X235280Y446484D01*
X235333Y446510D01*
X235387Y446532D01*
X235443Y446550D01*
X235500Y446565D01*
X235558Y446576D01*
X235616Y446584D01*
X235675Y446588D01*
X235733Y446588D01*
X235792Y446584D01*
X235850Y446576D01*
X235908Y446565D01*
X235965Y446550D01*
X236021Y446532D01*
X236075Y446510D01*
X236128Y446484D01*
X236179Y446455D01*
X236229Y446423D01*
X236276Y446388D01*
X236320Y446350D01*
X236363Y446309D01*
X236402Y446265D01*
X236439Y446219D01*
X236473Y446171D01*
X236503Y446121D01*
X236530Y446069D01*
X236554Y446015D01*
X236574Y445960D01*
X236591Y445904D01*
X236604Y445846D01*
X236613Y445788D01*
X236619Y445730D01*
X236621Y445671D01*
X236619Y445612D01*
X236613Y445554D01*
X236604Y445496D01*
X236591Y445438D01*
X236574Y445382D01*
X236554Y445327D01*
X236530Y445273D01*
X236503Y445221D01*
X236473Y445171D01*
X236439Y445123D01*
X236402Y445077D01*
X236363Y445033D01*
X236320Y444992D01*
X236276Y444954D01*
X236229Y444919D01*
X236179Y444887D01*
X236128Y444858D01*
X236075Y444832D01*
X236021Y444810D01*
X235965Y444792D01*
X235908Y444777D01*
X235850Y444766D01*
X235792Y444758D01*
X235733Y444754D01*
X235675Y444754D01*
X235616Y444758D01*
X235558Y444766D01*
X235500Y444777D01*
X235443Y444792D01*
X235387Y444810D01*
X235333Y444832D01*
X235280Y444858D01*
X235229Y444887D01*
X235179Y444919D01*
X235132Y444954D01*
X235088Y444992D01*
X235045Y445033D01*
X235006Y445077D01*
X234969Y445123D01*
X234935Y445171D01*
X234905Y445221D01*
X234878Y445273D01*
X234854Y445327D01*
X234834Y445382D01*
X234817Y445438D01*
X234804Y445496D01*
X234795Y445554D01*
X234789Y445612D01*
X234787Y445671D01*
X234970Y447322D02*
X234972Y447374D01*
X234977Y447426D01*
X234987Y447478D01*
X235000Y447529D01*
X235016Y447579D01*
X235036Y447627D01*
X235060Y447674D01*
X235087Y447719D01*
X235116Y447762D01*
X235149Y447803D01*
X235185Y447841D01*
X235223Y447877D01*
X235264Y447910D01*
X235307Y447939D01*
X235352Y447966D01*
X235399Y447990D01*
X235447Y448010D01*
X235497Y448026D01*
X235548Y448039D01*
X235600Y448049D01*
X235652Y448054D01*
X235704Y448056D01*
X235756Y448054D01*
X235808Y448049D01*
X235860Y448039D01*
X235911Y448026D01*
X235961Y448010D01*
X236009Y447990D01*
X236056Y447966D01*
X236101Y447939D01*
X236144Y447910D01*
X236185Y447877D01*
X236223Y447841D01*
X236259Y447803D01*
X236292Y447762D01*
X236321Y447719D01*
X236348Y447674D01*
X236372Y447627D01*
X236392Y447579D01*
X236408Y447529D01*
X236421Y447478D01*
X236431Y447426D01*
X236436Y447374D01*
X236438Y447322D01*
X236436Y447270D01*
X236431Y447218D01*
X236421Y447166D01*
X236408Y447115D01*
X236392Y447065D01*
X236372Y447017D01*
X236348Y446970D01*
X236321Y446925D01*
X236292Y446882D01*
X236259Y446841D01*
X236223Y446803D01*
X236185Y446767D01*
X236144Y446734D01*
X236101Y446705D01*
X236056Y446678D01*
X236009Y446654D01*
X235961Y446634D01*
X235911Y446618D01*
X235860Y446605D01*
X235808Y446595D01*
X235756Y446590D01*
X235704Y446588D01*
X235652Y446590D01*
X235600Y446595D01*
X235548Y446605D01*
X235497Y446618D01*
X235447Y446634D01*
X235399Y446654D01*
X235352Y446678D01*
X235307Y446705D01*
X235264Y446734D01*
X235223Y446767D01*
X235185Y446803D01*
X235149Y446841D01*
X235116Y446882D01*
X235087Y446925D01*
X235060Y446970D01*
X235036Y447017D01*
X235016Y447065D01*
X235000Y447115D01*
X234987Y447166D01*
X234977Y447218D01*
X234972Y447270D01*
X234970Y447322D01*
X238308Y446955D02*
X238308Y443653D01*
X238308Y446955D02*
X239226Y446955D01*
X239271Y446953D01*
X239317Y446947D01*
X239361Y446938D01*
X239405Y446925D01*
X239447Y446909D01*
X239488Y446889D01*
X239527Y446865D01*
X239564Y446839D01*
X239599Y446810D01*
X239631Y446778D01*
X239660Y446743D01*
X239686Y446706D01*
X239710Y446667D01*
X239730Y446626D01*
X239746Y446584D01*
X239759Y446540D01*
X239768Y446496D01*
X239774Y446450D01*
X239776Y446405D01*
X239776Y445304D01*
X239774Y445259D01*
X239768Y445213D01*
X239759Y445169D01*
X239746Y445125D01*
X239730Y445083D01*
X239710Y445042D01*
X239686Y445003D01*
X239660Y444966D01*
X239631Y444931D01*
X239599Y444899D01*
X239564Y444870D01*
X239527Y444844D01*
X239488Y444820D01*
X239447Y444800D01*
X239405Y444784D01*
X239361Y444771D01*
X239317Y444762D01*
X239271Y444756D01*
X239226Y444754D01*
X238308Y444754D01*
D11*
X160950Y490800D02*
X156650Y490800D01*
X156450Y499800D02*
X160750Y499800D01*
D12*
X154703Y488696D02*
X153786Y487962D01*
X154703Y488696D02*
X154703Y485394D01*
X153786Y485394D02*
X155621Y485394D01*
X157012Y485394D02*
X157012Y485577D01*
X157195Y485577D01*
X157195Y485394D01*
X157012Y485394D01*
X158587Y485394D02*
X159687Y485394D01*
X159739Y485396D01*
X159791Y485401D01*
X159843Y485411D01*
X159894Y485424D01*
X159944Y485440D01*
X159992Y485460D01*
X160039Y485484D01*
X160084Y485511D01*
X160127Y485540D01*
X160168Y485573D01*
X160206Y485609D01*
X160242Y485647D01*
X160275Y485688D01*
X160304Y485731D01*
X160331Y485776D01*
X160355Y485823D01*
X160375Y485871D01*
X160391Y485921D01*
X160404Y485972D01*
X160414Y486024D01*
X160419Y486076D01*
X160421Y486128D01*
X160421Y486495D01*
X160419Y486547D01*
X160414Y486599D01*
X160404Y486651D01*
X160391Y486702D01*
X160375Y486752D01*
X160355Y486800D01*
X160331Y486847D01*
X160304Y486892D01*
X160275Y486935D01*
X160242Y486976D01*
X160206Y487014D01*
X160168Y487050D01*
X160127Y487083D01*
X160084Y487112D01*
X160039Y487139D01*
X159992Y487163D01*
X159944Y487183D01*
X159894Y487199D01*
X159843Y487212D01*
X159791Y487222D01*
X159739Y487227D01*
X159687Y487229D01*
X159687Y487228D02*
X158587Y487228D01*
X158587Y488696D01*
X160421Y488696D01*
X162108Y487595D02*
X162108Y484293D01*
X162108Y487595D02*
X163026Y487595D01*
X163071Y487593D01*
X163117Y487587D01*
X163161Y487578D01*
X163205Y487565D01*
X163247Y487549D01*
X163288Y487529D01*
X163327Y487505D01*
X163364Y487479D01*
X163399Y487450D01*
X163431Y487418D01*
X163460Y487383D01*
X163486Y487346D01*
X163510Y487307D01*
X163530Y487266D01*
X163546Y487224D01*
X163559Y487180D01*
X163568Y487136D01*
X163574Y487090D01*
X163576Y487045D01*
X163576Y485944D01*
X163574Y485899D01*
X163568Y485853D01*
X163559Y485809D01*
X163546Y485765D01*
X163530Y485723D01*
X163510Y485682D01*
X163486Y485643D01*
X163460Y485606D01*
X163431Y485571D01*
X163399Y485539D01*
X163364Y485510D01*
X163327Y485484D01*
X163288Y485460D01*
X163247Y485440D01*
X163205Y485424D01*
X163161Y485411D01*
X163117Y485402D01*
X163071Y485396D01*
X163026Y485394D01*
X162108Y485394D01*
D11*
X358775Y374333D02*
X358775Y364808D01*
X320675Y363538D02*
X320675Y373063D01*
X53975Y373063D02*
X53975Y363538D01*
X92075Y363538D02*
X92075Y373063D01*
D13*
X204720Y77720D02*
X204720Y69600D01*
X199140Y69600D01*
X181860Y69600D02*
X176280Y69600D01*
X176280Y77720D01*
D14*
X57150Y12700D02*
X44450Y12700D01*
X38100Y19050D01*
X38100Y31750D02*
X44450Y38100D01*
X82550Y12700D02*
X88900Y19050D01*
X82550Y12700D02*
X69850Y12700D01*
X63500Y19050D01*
X63500Y31750D02*
X69850Y38100D01*
X82550Y38100D01*
X88900Y31750D01*
X63500Y19050D02*
X57150Y12700D01*
X63500Y31750D02*
X57150Y38100D01*
X44450Y38100D01*
X120650Y12700D02*
X133350Y12700D01*
X120650Y12700D02*
X114300Y19050D01*
X114300Y31750D02*
X120650Y38100D01*
X114300Y19050D02*
X107950Y12700D01*
X95250Y12700D01*
X88900Y19050D01*
X88900Y31750D02*
X95250Y38100D01*
X107950Y38100D01*
X114300Y31750D01*
X139700Y31750D02*
X139700Y19050D01*
X133350Y12700D01*
X139700Y31750D02*
X133350Y38100D01*
X120650Y38100D01*
X38100Y31750D02*
X38100Y19050D01*
X323850Y38100D02*
X336550Y38100D01*
X342900Y31750D01*
X342900Y19050D02*
X336550Y12700D01*
X298450Y38100D02*
X292100Y31750D01*
X298450Y38100D02*
X311150Y38100D01*
X317500Y31750D01*
X317500Y19050D02*
X311150Y12700D01*
X298450Y12700D01*
X292100Y19050D01*
X317500Y31750D02*
X323850Y38100D01*
X317500Y19050D02*
X323850Y12700D01*
X336550Y12700D01*
X260350Y38100D02*
X247650Y38100D01*
X260350Y38100D02*
X266700Y31750D01*
X266700Y19050D02*
X260350Y12700D01*
X266700Y31750D02*
X273050Y38100D01*
X285750Y38100D01*
X292100Y31750D01*
X292100Y19050D02*
X285750Y12700D01*
X273050Y12700D01*
X266700Y19050D01*
X241300Y19050D02*
X241300Y31750D01*
X247650Y38100D01*
X241300Y19050D02*
X247650Y12700D01*
X260350Y12700D01*
X342900Y19050D02*
X342900Y31750D01*
X184150Y38100D02*
X171450Y38100D01*
X184150Y38100D02*
X190500Y31750D01*
X190500Y19050D02*
X184150Y12700D01*
X190500Y31750D02*
X196850Y38100D01*
X209550Y38100D01*
X215900Y31750D01*
X215900Y19050D02*
X209550Y12700D01*
X196850Y12700D01*
X190500Y19050D01*
X165100Y19050D02*
X165100Y31750D01*
X171450Y38100D01*
X165100Y19050D02*
X171450Y12700D01*
X184150Y12700D01*
X215900Y19050D02*
X215900Y31750D01*
D11*
X307340Y212725D02*
X307340Y216535D01*
X311150Y200025D02*
X320040Y200025D01*
X320040Y207645D01*
X320040Y221615D02*
X320040Y229235D01*
X311150Y229235D01*
X307340Y271145D02*
X307340Y274955D01*
X311150Y258445D02*
X320040Y258445D01*
X320040Y266065D01*
X320040Y280035D02*
X320040Y287655D01*
X311150Y287655D01*
X73660Y215265D02*
X73660Y211455D01*
X69850Y227965D02*
X60960Y227965D01*
X60960Y220345D01*
X60960Y206375D02*
X60960Y198755D01*
X69850Y198755D01*
X73660Y271145D02*
X73660Y274955D01*
X69850Y287655D02*
X60960Y287655D01*
X60960Y280035D01*
X60960Y266065D02*
X60960Y258445D01*
X69850Y258445D01*
D15*
X303620Y349830D02*
X308520Y349830D01*
X308520Y358830D02*
X303620Y358830D01*
D12*
X303213Y345187D02*
X303269Y345185D01*
X303325Y345179D01*
X303381Y345170D01*
X303436Y345156D01*
X303490Y345139D01*
X303542Y345119D01*
X303593Y345094D01*
X303642Y345067D01*
X303689Y345036D01*
X303734Y345002D01*
X303777Y344965D01*
X303817Y344925D01*
X303854Y344882D01*
X303888Y344837D01*
X303919Y344790D01*
X303946Y344741D01*
X303971Y344690D01*
X303991Y344638D01*
X304008Y344584D01*
X304022Y344529D01*
X304031Y344473D01*
X304037Y344417D01*
X304039Y344361D01*
X303213Y345186D02*
X303149Y345184D01*
X303086Y345178D01*
X303023Y345169D01*
X302961Y345156D01*
X302900Y345139D01*
X302840Y345118D01*
X302781Y345094D01*
X302724Y345067D01*
X302668Y345036D01*
X302615Y345001D01*
X302564Y344964D01*
X302514Y344924D01*
X302468Y344880D01*
X302424Y344834D01*
X302383Y344786D01*
X302345Y344735D01*
X302310Y344682D01*
X302278Y344627D01*
X302250Y344570D01*
X302225Y344512D01*
X302204Y344452D01*
X303763Y343719D02*
X303801Y343758D01*
X303838Y343800D01*
X303871Y343844D01*
X303902Y343889D01*
X303930Y343937D01*
X303955Y343986D01*
X303977Y344037D01*
X303995Y344089D01*
X304011Y344142D01*
X304023Y344196D01*
X304031Y344251D01*
X304036Y344306D01*
X304038Y344361D01*
X303763Y343718D02*
X302204Y341884D01*
X304038Y341884D01*
X306642Y345187D02*
X306698Y345185D01*
X306754Y345179D01*
X306810Y345170D01*
X306865Y345156D01*
X306919Y345139D01*
X306971Y345119D01*
X307022Y345094D01*
X307071Y345067D01*
X307118Y345036D01*
X307163Y345002D01*
X307206Y344965D01*
X307246Y344925D01*
X307283Y344882D01*
X307317Y344837D01*
X307348Y344790D01*
X307375Y344741D01*
X307400Y344690D01*
X307420Y344638D01*
X307437Y344584D01*
X307451Y344529D01*
X307460Y344473D01*
X307466Y344417D01*
X307468Y344361D01*
X306642Y345186D02*
X306578Y345184D01*
X306515Y345178D01*
X306452Y345169D01*
X306390Y345156D01*
X306329Y345139D01*
X306269Y345118D01*
X306210Y345094D01*
X306153Y345067D01*
X306097Y345036D01*
X306044Y345001D01*
X305993Y344964D01*
X305943Y344924D01*
X305897Y344880D01*
X305853Y344834D01*
X305812Y344786D01*
X305774Y344735D01*
X305739Y344682D01*
X305707Y344627D01*
X305679Y344570D01*
X305654Y344512D01*
X305633Y344452D01*
X307192Y343719D02*
X307230Y343758D01*
X307267Y343800D01*
X307300Y343844D01*
X307331Y343889D01*
X307359Y343937D01*
X307384Y343986D01*
X307406Y344037D01*
X307424Y344089D01*
X307440Y344142D01*
X307452Y344196D01*
X307460Y344251D01*
X307465Y344306D01*
X307467Y344361D01*
X307192Y343718D02*
X305633Y341884D01*
X307467Y341884D01*
X309062Y343535D02*
X309064Y343638D01*
X309070Y343741D01*
X309079Y343843D01*
X309093Y343945D01*
X309110Y344046D01*
X309132Y344147D01*
X309157Y344247D01*
X309185Y344345D01*
X309218Y344443D01*
X309254Y344539D01*
X309294Y344634D01*
X309337Y344727D01*
X309354Y344773D01*
X309376Y344818D01*
X309400Y344861D01*
X309427Y344903D01*
X309458Y344942D01*
X309491Y344979D01*
X309526Y345013D01*
X309564Y345045D01*
X309605Y345074D01*
X309647Y345099D01*
X309691Y345122D01*
X309737Y345141D01*
X309784Y345157D01*
X309832Y345170D01*
X309880Y345179D01*
X309929Y345184D01*
X309979Y345186D01*
X310029Y345184D01*
X310078Y345179D01*
X310126Y345170D01*
X310174Y345157D01*
X310221Y345141D01*
X310267Y345122D01*
X310311Y345099D01*
X310353Y345074D01*
X310394Y345045D01*
X310432Y345013D01*
X310467Y344979D01*
X310500Y344942D01*
X310531Y344903D01*
X310558Y344861D01*
X310582Y344818D01*
X310604Y344773D01*
X310621Y344727D01*
X310664Y344634D01*
X310704Y344539D01*
X310740Y344443D01*
X310773Y344345D01*
X310801Y344247D01*
X310826Y344147D01*
X310848Y344046D01*
X310865Y343945D01*
X310879Y343843D01*
X310888Y343741D01*
X310894Y343638D01*
X310896Y343535D01*
X309062Y343535D02*
X309064Y343432D01*
X309070Y343330D01*
X309079Y343227D01*
X309093Y343125D01*
X309110Y343024D01*
X309132Y342923D01*
X309157Y342823D01*
X309185Y342725D01*
X309218Y342627D01*
X309254Y342531D01*
X309294Y342436D01*
X309337Y342343D01*
X309354Y342297D01*
X309376Y342252D01*
X309400Y342209D01*
X309427Y342167D01*
X309458Y342128D01*
X309491Y342091D01*
X309526Y342057D01*
X309564Y342025D01*
X309605Y341996D01*
X309647Y341971D01*
X309691Y341948D01*
X309737Y341929D01*
X309784Y341913D01*
X309832Y341900D01*
X309880Y341891D01*
X309929Y341886D01*
X309979Y341884D01*
X310621Y342343D02*
X310664Y342436D01*
X310704Y342531D01*
X310740Y342627D01*
X310773Y342725D01*
X310801Y342823D01*
X310826Y342923D01*
X310848Y343024D01*
X310865Y343125D01*
X310879Y343227D01*
X310888Y343329D01*
X310894Y343432D01*
X310896Y343535D01*
X310621Y342343D02*
X310604Y342297D01*
X310582Y342252D01*
X310558Y342209D01*
X310531Y342167D01*
X310500Y342128D01*
X310467Y342091D01*
X310432Y342057D01*
X310394Y342025D01*
X310353Y341996D01*
X310311Y341971D01*
X310267Y341948D01*
X310221Y341929D01*
X310174Y341913D01*
X310126Y341900D01*
X310078Y341891D01*
X310029Y341886D01*
X309979Y341884D01*
X309245Y342618D02*
X310713Y344452D01*
D15*
X281250Y217080D02*
X281250Y212180D01*
X290250Y212180D02*
X290250Y217080D01*
D12*
X282194Y230152D02*
X283111Y230886D01*
X283111Y227584D01*
X282194Y227584D02*
X284028Y227584D01*
X285623Y229235D02*
X285625Y229338D01*
X285631Y229441D01*
X285640Y229543D01*
X285654Y229645D01*
X285671Y229746D01*
X285693Y229847D01*
X285718Y229947D01*
X285746Y230045D01*
X285779Y230143D01*
X285815Y230239D01*
X285855Y230334D01*
X285898Y230427D01*
X285915Y230473D01*
X285937Y230518D01*
X285961Y230561D01*
X285988Y230603D01*
X286019Y230642D01*
X286052Y230679D01*
X286087Y230713D01*
X286125Y230745D01*
X286166Y230774D01*
X286208Y230799D01*
X286252Y230822D01*
X286298Y230841D01*
X286345Y230857D01*
X286393Y230870D01*
X286441Y230879D01*
X286490Y230884D01*
X286540Y230886D01*
X286590Y230884D01*
X286639Y230879D01*
X286687Y230870D01*
X286735Y230857D01*
X286782Y230841D01*
X286828Y230822D01*
X286872Y230799D01*
X286914Y230774D01*
X286955Y230745D01*
X286993Y230713D01*
X287028Y230679D01*
X287061Y230642D01*
X287092Y230603D01*
X287119Y230561D01*
X287143Y230518D01*
X287165Y230473D01*
X287182Y230427D01*
X287183Y230427D02*
X287226Y230334D01*
X287266Y230239D01*
X287302Y230143D01*
X287335Y230045D01*
X287363Y229947D01*
X287388Y229847D01*
X287410Y229746D01*
X287427Y229645D01*
X287441Y229543D01*
X287450Y229441D01*
X287456Y229338D01*
X287458Y229235D01*
X285623Y229235D02*
X285625Y229132D01*
X285631Y229030D01*
X285640Y228927D01*
X285654Y228825D01*
X285671Y228724D01*
X285693Y228623D01*
X285718Y228523D01*
X285746Y228425D01*
X285779Y228327D01*
X285815Y228231D01*
X285855Y228136D01*
X285898Y228043D01*
X285915Y227997D01*
X285937Y227952D01*
X285961Y227909D01*
X285988Y227867D01*
X286019Y227828D01*
X286052Y227791D01*
X286087Y227757D01*
X286125Y227725D01*
X286166Y227696D01*
X286208Y227671D01*
X286252Y227648D01*
X286298Y227629D01*
X286345Y227613D01*
X286393Y227600D01*
X286441Y227591D01*
X286490Y227586D01*
X286540Y227584D01*
X287182Y228043D02*
X287225Y228136D01*
X287265Y228231D01*
X287301Y228327D01*
X287334Y228425D01*
X287362Y228523D01*
X287387Y228623D01*
X287409Y228724D01*
X287426Y228825D01*
X287440Y228927D01*
X287449Y229029D01*
X287455Y229132D01*
X287457Y229235D01*
X287182Y228043D02*
X287165Y227997D01*
X287143Y227952D01*
X287119Y227909D01*
X287092Y227867D01*
X287061Y227828D01*
X287028Y227791D01*
X286993Y227757D01*
X286955Y227725D01*
X286914Y227696D01*
X286872Y227671D01*
X286828Y227648D01*
X286782Y227629D01*
X286735Y227613D01*
X286687Y227600D01*
X286639Y227591D01*
X286590Y227586D01*
X286540Y227584D01*
X285806Y228318D02*
X287274Y230152D01*
X289052Y229235D02*
X289054Y229338D01*
X289060Y229441D01*
X289069Y229543D01*
X289083Y229645D01*
X289100Y229746D01*
X289122Y229847D01*
X289147Y229947D01*
X289175Y230045D01*
X289208Y230143D01*
X289244Y230239D01*
X289284Y230334D01*
X289327Y230427D01*
X289344Y230473D01*
X289366Y230518D01*
X289390Y230561D01*
X289417Y230603D01*
X289448Y230642D01*
X289481Y230679D01*
X289516Y230713D01*
X289554Y230745D01*
X289595Y230774D01*
X289637Y230799D01*
X289681Y230822D01*
X289727Y230841D01*
X289774Y230857D01*
X289822Y230870D01*
X289870Y230879D01*
X289919Y230884D01*
X289969Y230886D01*
X290019Y230884D01*
X290068Y230879D01*
X290116Y230870D01*
X290164Y230857D01*
X290211Y230841D01*
X290257Y230822D01*
X290301Y230799D01*
X290343Y230774D01*
X290384Y230745D01*
X290422Y230713D01*
X290457Y230679D01*
X290490Y230642D01*
X290521Y230603D01*
X290548Y230561D01*
X290572Y230518D01*
X290594Y230473D01*
X290611Y230427D01*
X290612Y230427D02*
X290655Y230334D01*
X290695Y230239D01*
X290731Y230143D01*
X290764Y230045D01*
X290792Y229947D01*
X290817Y229847D01*
X290839Y229746D01*
X290856Y229645D01*
X290870Y229543D01*
X290879Y229441D01*
X290885Y229338D01*
X290887Y229235D01*
X289052Y229235D02*
X289054Y229132D01*
X289060Y229030D01*
X289069Y228927D01*
X289083Y228825D01*
X289100Y228724D01*
X289122Y228623D01*
X289147Y228523D01*
X289175Y228425D01*
X289208Y228327D01*
X289244Y228231D01*
X289284Y228136D01*
X289327Y228043D01*
X289344Y227997D01*
X289366Y227952D01*
X289390Y227909D01*
X289417Y227867D01*
X289448Y227828D01*
X289481Y227791D01*
X289516Y227757D01*
X289554Y227725D01*
X289595Y227696D01*
X289637Y227671D01*
X289681Y227648D01*
X289727Y227629D01*
X289774Y227613D01*
X289822Y227600D01*
X289870Y227591D01*
X289919Y227586D01*
X289969Y227584D01*
X290611Y228043D02*
X290654Y228136D01*
X290694Y228231D01*
X290730Y228327D01*
X290763Y228425D01*
X290791Y228523D01*
X290816Y228623D01*
X290838Y228724D01*
X290855Y228825D01*
X290869Y228927D01*
X290878Y229029D01*
X290884Y229132D01*
X290886Y229235D01*
X290611Y228043D02*
X290594Y227997D01*
X290572Y227952D01*
X290548Y227909D01*
X290521Y227867D01*
X290490Y227828D01*
X290457Y227791D01*
X290422Y227757D01*
X290384Y227725D01*
X290343Y227696D01*
X290301Y227671D01*
X290257Y227648D01*
X290211Y227629D01*
X290164Y227613D01*
X290116Y227600D01*
X290068Y227591D01*
X290019Y227586D01*
X289969Y227584D01*
X289235Y228318D02*
X290703Y230152D01*
D15*
X290740Y244530D02*
X285840Y244530D01*
X285840Y235530D02*
X290740Y235530D01*
D12*
X286056Y249202D02*
X286973Y249936D01*
X286973Y246634D01*
X286056Y246634D02*
X287891Y246634D01*
X289645Y246634D02*
X289645Y249936D01*
X290745Y248102D01*
X291846Y249936D01*
X291846Y246634D01*
D15*
X281250Y270600D02*
X281250Y275500D01*
X290250Y275500D02*
X290250Y270600D01*
D12*
X282194Y288572D02*
X283111Y289306D01*
X283111Y286004D01*
X282194Y286004D02*
X284028Y286004D01*
X285623Y287655D02*
X285625Y287758D01*
X285631Y287861D01*
X285640Y287963D01*
X285654Y288065D01*
X285671Y288166D01*
X285693Y288267D01*
X285718Y288367D01*
X285746Y288465D01*
X285779Y288563D01*
X285815Y288659D01*
X285855Y288754D01*
X285898Y288847D01*
X285915Y288893D01*
X285937Y288938D01*
X285961Y288981D01*
X285988Y289023D01*
X286019Y289062D01*
X286052Y289099D01*
X286087Y289133D01*
X286125Y289165D01*
X286166Y289194D01*
X286208Y289219D01*
X286252Y289242D01*
X286298Y289261D01*
X286345Y289277D01*
X286393Y289290D01*
X286441Y289299D01*
X286490Y289304D01*
X286540Y289306D01*
X286590Y289304D01*
X286639Y289299D01*
X286687Y289290D01*
X286735Y289277D01*
X286782Y289261D01*
X286828Y289242D01*
X286872Y289219D01*
X286914Y289194D01*
X286955Y289165D01*
X286993Y289133D01*
X287028Y289099D01*
X287061Y289062D01*
X287092Y289023D01*
X287119Y288981D01*
X287143Y288938D01*
X287165Y288893D01*
X287182Y288847D01*
X287183Y288847D02*
X287226Y288754D01*
X287266Y288659D01*
X287302Y288563D01*
X287335Y288465D01*
X287363Y288367D01*
X287388Y288267D01*
X287410Y288166D01*
X287427Y288065D01*
X287441Y287963D01*
X287450Y287861D01*
X287456Y287758D01*
X287458Y287655D01*
X285623Y287655D02*
X285625Y287552D01*
X285631Y287450D01*
X285640Y287347D01*
X285654Y287245D01*
X285671Y287144D01*
X285693Y287043D01*
X285718Y286943D01*
X285746Y286845D01*
X285779Y286747D01*
X285815Y286651D01*
X285855Y286556D01*
X285898Y286463D01*
X285915Y286417D01*
X285937Y286372D01*
X285961Y286329D01*
X285988Y286287D01*
X286019Y286248D01*
X286052Y286211D01*
X286087Y286177D01*
X286125Y286145D01*
X286166Y286116D01*
X286208Y286091D01*
X286252Y286068D01*
X286298Y286049D01*
X286345Y286033D01*
X286393Y286020D01*
X286441Y286011D01*
X286490Y286006D01*
X286540Y286004D01*
X287182Y286463D02*
X287225Y286556D01*
X287265Y286651D01*
X287301Y286747D01*
X287334Y286845D01*
X287362Y286943D01*
X287387Y287043D01*
X287409Y287144D01*
X287426Y287245D01*
X287440Y287347D01*
X287449Y287449D01*
X287455Y287552D01*
X287457Y287655D01*
X287182Y286463D02*
X287165Y286417D01*
X287143Y286372D01*
X287119Y286329D01*
X287092Y286287D01*
X287061Y286248D01*
X287028Y286211D01*
X286993Y286177D01*
X286955Y286145D01*
X286914Y286116D01*
X286872Y286091D01*
X286828Y286068D01*
X286782Y286049D01*
X286735Y286033D01*
X286687Y286020D01*
X286639Y286011D01*
X286590Y286006D01*
X286540Y286004D01*
X285806Y286738D02*
X287274Y288572D01*
X289052Y287655D02*
X289054Y287758D01*
X289060Y287861D01*
X289069Y287963D01*
X289083Y288065D01*
X289100Y288166D01*
X289122Y288267D01*
X289147Y288367D01*
X289175Y288465D01*
X289208Y288563D01*
X289244Y288659D01*
X289284Y288754D01*
X289327Y288847D01*
X289344Y288893D01*
X289366Y288938D01*
X289390Y288981D01*
X289417Y289023D01*
X289448Y289062D01*
X289481Y289099D01*
X289516Y289133D01*
X289554Y289165D01*
X289595Y289194D01*
X289637Y289219D01*
X289681Y289242D01*
X289727Y289261D01*
X289774Y289277D01*
X289822Y289290D01*
X289870Y289299D01*
X289919Y289304D01*
X289969Y289306D01*
X290019Y289304D01*
X290068Y289299D01*
X290116Y289290D01*
X290164Y289277D01*
X290211Y289261D01*
X290257Y289242D01*
X290301Y289219D01*
X290343Y289194D01*
X290384Y289165D01*
X290422Y289133D01*
X290457Y289099D01*
X290490Y289062D01*
X290521Y289023D01*
X290548Y288981D01*
X290572Y288938D01*
X290594Y288893D01*
X290611Y288847D01*
X290612Y288847D02*
X290655Y288754D01*
X290695Y288659D01*
X290731Y288563D01*
X290764Y288465D01*
X290792Y288367D01*
X290817Y288267D01*
X290839Y288166D01*
X290856Y288065D01*
X290870Y287963D01*
X290879Y287861D01*
X290885Y287758D01*
X290887Y287655D01*
X289052Y287655D02*
X289054Y287552D01*
X289060Y287450D01*
X289069Y287347D01*
X289083Y287245D01*
X289100Y287144D01*
X289122Y287043D01*
X289147Y286943D01*
X289175Y286845D01*
X289208Y286747D01*
X289244Y286651D01*
X289284Y286556D01*
X289327Y286463D01*
X289344Y286417D01*
X289366Y286372D01*
X289390Y286329D01*
X289417Y286287D01*
X289448Y286248D01*
X289481Y286211D01*
X289516Y286177D01*
X289554Y286145D01*
X289595Y286116D01*
X289637Y286091D01*
X289681Y286068D01*
X289727Y286049D01*
X289774Y286033D01*
X289822Y286020D01*
X289870Y286011D01*
X289919Y286006D01*
X289969Y286004D01*
X290611Y286463D02*
X290654Y286556D01*
X290694Y286651D01*
X290730Y286747D01*
X290763Y286845D01*
X290791Y286943D01*
X290816Y287043D01*
X290838Y287144D01*
X290855Y287245D01*
X290869Y287347D01*
X290878Y287449D01*
X290884Y287552D01*
X290886Y287655D01*
X290611Y286463D02*
X290594Y286417D01*
X290572Y286372D01*
X290548Y286329D01*
X290521Y286287D01*
X290490Y286248D01*
X290457Y286211D01*
X290422Y286177D01*
X290384Y286145D01*
X290343Y286116D01*
X290301Y286091D01*
X290257Y286068D01*
X290211Y286049D01*
X290164Y286033D01*
X290116Y286020D01*
X290068Y286011D01*
X290019Y286006D01*
X289969Y286004D01*
X289235Y286738D02*
X290703Y288572D01*
D15*
X290740Y304220D02*
X285840Y304220D01*
X285840Y295220D02*
X290740Y295220D01*
D12*
X286056Y308892D02*
X286973Y309626D01*
X286973Y306324D01*
X286056Y306324D02*
X287891Y306324D01*
X289645Y306324D02*
X289645Y309626D01*
X290745Y307792D01*
X291846Y309626D01*
X291846Y306324D01*
D15*
X92020Y215810D02*
X92020Y210910D01*
X101020Y210910D02*
X101020Y215810D01*
D12*
X92964Y230152D02*
X93881Y230886D01*
X93881Y227584D01*
X92964Y227584D02*
X94798Y227584D01*
X96393Y229235D02*
X96395Y229338D01*
X96401Y229441D01*
X96410Y229543D01*
X96424Y229645D01*
X96441Y229746D01*
X96463Y229847D01*
X96488Y229947D01*
X96516Y230045D01*
X96549Y230143D01*
X96585Y230239D01*
X96625Y230334D01*
X96668Y230427D01*
X96685Y230473D01*
X96707Y230518D01*
X96731Y230561D01*
X96758Y230603D01*
X96789Y230642D01*
X96822Y230679D01*
X96857Y230713D01*
X96895Y230745D01*
X96936Y230774D01*
X96978Y230799D01*
X97022Y230822D01*
X97068Y230841D01*
X97115Y230857D01*
X97163Y230870D01*
X97211Y230879D01*
X97260Y230884D01*
X97310Y230886D01*
X97360Y230884D01*
X97409Y230879D01*
X97457Y230870D01*
X97505Y230857D01*
X97552Y230841D01*
X97598Y230822D01*
X97642Y230799D01*
X97684Y230774D01*
X97725Y230745D01*
X97763Y230713D01*
X97798Y230679D01*
X97831Y230642D01*
X97862Y230603D01*
X97889Y230561D01*
X97913Y230518D01*
X97935Y230473D01*
X97952Y230427D01*
X97953Y230427D02*
X97996Y230334D01*
X98036Y230239D01*
X98072Y230143D01*
X98105Y230045D01*
X98133Y229947D01*
X98158Y229847D01*
X98180Y229746D01*
X98197Y229645D01*
X98211Y229543D01*
X98220Y229441D01*
X98226Y229338D01*
X98228Y229235D01*
X96393Y229235D02*
X96395Y229132D01*
X96401Y229030D01*
X96410Y228927D01*
X96424Y228825D01*
X96441Y228724D01*
X96463Y228623D01*
X96488Y228523D01*
X96516Y228425D01*
X96549Y228327D01*
X96585Y228231D01*
X96625Y228136D01*
X96668Y228043D01*
X96685Y227997D01*
X96707Y227952D01*
X96731Y227909D01*
X96758Y227867D01*
X96789Y227828D01*
X96822Y227791D01*
X96857Y227757D01*
X96895Y227725D01*
X96936Y227696D01*
X96978Y227671D01*
X97022Y227648D01*
X97068Y227629D01*
X97115Y227613D01*
X97163Y227600D01*
X97211Y227591D01*
X97260Y227586D01*
X97310Y227584D01*
X97952Y228043D02*
X97995Y228136D01*
X98035Y228231D01*
X98071Y228327D01*
X98104Y228425D01*
X98132Y228523D01*
X98157Y228623D01*
X98179Y228724D01*
X98196Y228825D01*
X98210Y228927D01*
X98219Y229029D01*
X98225Y229132D01*
X98227Y229235D01*
X97952Y228043D02*
X97935Y227997D01*
X97913Y227952D01*
X97889Y227909D01*
X97862Y227867D01*
X97831Y227828D01*
X97798Y227791D01*
X97763Y227757D01*
X97725Y227725D01*
X97684Y227696D01*
X97642Y227671D01*
X97598Y227648D01*
X97552Y227629D01*
X97505Y227613D01*
X97457Y227600D01*
X97409Y227591D01*
X97360Y227586D01*
X97310Y227584D01*
X96576Y228318D02*
X98044Y230152D01*
X99822Y229235D02*
X99824Y229338D01*
X99830Y229441D01*
X99839Y229543D01*
X99853Y229645D01*
X99870Y229746D01*
X99892Y229847D01*
X99917Y229947D01*
X99945Y230045D01*
X99978Y230143D01*
X100014Y230239D01*
X100054Y230334D01*
X100097Y230427D01*
X100114Y230473D01*
X100136Y230518D01*
X100160Y230561D01*
X100187Y230603D01*
X100218Y230642D01*
X100251Y230679D01*
X100286Y230713D01*
X100324Y230745D01*
X100365Y230774D01*
X100407Y230799D01*
X100451Y230822D01*
X100497Y230841D01*
X100544Y230857D01*
X100592Y230870D01*
X100640Y230879D01*
X100689Y230884D01*
X100739Y230886D01*
X100789Y230884D01*
X100838Y230879D01*
X100886Y230870D01*
X100934Y230857D01*
X100981Y230841D01*
X101027Y230822D01*
X101071Y230799D01*
X101113Y230774D01*
X101154Y230745D01*
X101192Y230713D01*
X101227Y230679D01*
X101260Y230642D01*
X101291Y230603D01*
X101318Y230561D01*
X101342Y230518D01*
X101364Y230473D01*
X101381Y230427D01*
X101382Y230427D02*
X101425Y230334D01*
X101465Y230239D01*
X101501Y230143D01*
X101534Y230045D01*
X101562Y229947D01*
X101587Y229847D01*
X101609Y229746D01*
X101626Y229645D01*
X101640Y229543D01*
X101649Y229441D01*
X101655Y229338D01*
X101657Y229235D01*
X99822Y229235D02*
X99824Y229132D01*
X99830Y229030D01*
X99839Y228927D01*
X99853Y228825D01*
X99870Y228724D01*
X99892Y228623D01*
X99917Y228523D01*
X99945Y228425D01*
X99978Y228327D01*
X100014Y228231D01*
X100054Y228136D01*
X100097Y228043D01*
X100114Y227997D01*
X100136Y227952D01*
X100160Y227909D01*
X100187Y227867D01*
X100218Y227828D01*
X100251Y227791D01*
X100286Y227757D01*
X100324Y227725D01*
X100365Y227696D01*
X100407Y227671D01*
X100451Y227648D01*
X100497Y227629D01*
X100544Y227613D01*
X100592Y227600D01*
X100640Y227591D01*
X100689Y227586D01*
X100739Y227584D01*
X101381Y228043D02*
X101424Y228136D01*
X101464Y228231D01*
X101500Y228327D01*
X101533Y228425D01*
X101561Y228523D01*
X101586Y228623D01*
X101608Y228724D01*
X101625Y228825D01*
X101639Y228927D01*
X101648Y229029D01*
X101654Y229132D01*
X101656Y229235D01*
X101381Y228043D02*
X101364Y227997D01*
X101342Y227952D01*
X101318Y227909D01*
X101291Y227867D01*
X101260Y227828D01*
X101227Y227791D01*
X101192Y227757D01*
X101154Y227725D01*
X101113Y227696D01*
X101071Y227671D01*
X101027Y227648D01*
X100981Y227629D01*
X100934Y227613D01*
X100886Y227600D01*
X100838Y227591D01*
X100789Y227586D01*
X100739Y227584D01*
X100005Y228318D02*
X101473Y230152D01*
D15*
X95160Y235530D02*
X90260Y235530D01*
X90260Y244530D02*
X95160Y244530D01*
D12*
X90071Y249936D02*
X89154Y249202D01*
X90071Y249936D02*
X90071Y246634D01*
X89154Y246634D02*
X90988Y246634D01*
X92742Y246634D02*
X92742Y249936D01*
X93843Y248102D01*
X94944Y249936D01*
X94944Y246634D01*
D15*
X92020Y270600D02*
X92020Y275500D01*
X101020Y275500D02*
X101020Y270600D01*
D12*
X92964Y289842D02*
X93881Y290576D01*
X93881Y287274D01*
X92964Y287274D02*
X94798Y287274D01*
X96393Y288925D02*
X96395Y289028D01*
X96401Y289131D01*
X96410Y289233D01*
X96424Y289335D01*
X96441Y289436D01*
X96463Y289537D01*
X96488Y289637D01*
X96516Y289735D01*
X96549Y289833D01*
X96585Y289929D01*
X96625Y290024D01*
X96668Y290117D01*
X96685Y290163D01*
X96707Y290208D01*
X96731Y290251D01*
X96758Y290293D01*
X96789Y290332D01*
X96822Y290369D01*
X96857Y290403D01*
X96895Y290435D01*
X96936Y290464D01*
X96978Y290489D01*
X97022Y290512D01*
X97068Y290531D01*
X97115Y290547D01*
X97163Y290560D01*
X97211Y290569D01*
X97260Y290574D01*
X97310Y290576D01*
X97360Y290574D01*
X97409Y290569D01*
X97457Y290560D01*
X97505Y290547D01*
X97552Y290531D01*
X97598Y290512D01*
X97642Y290489D01*
X97684Y290464D01*
X97725Y290435D01*
X97763Y290403D01*
X97798Y290369D01*
X97831Y290332D01*
X97862Y290293D01*
X97889Y290251D01*
X97913Y290208D01*
X97935Y290163D01*
X97952Y290117D01*
X97953Y290117D02*
X97996Y290024D01*
X98036Y289929D01*
X98072Y289833D01*
X98105Y289735D01*
X98133Y289637D01*
X98158Y289537D01*
X98180Y289436D01*
X98197Y289335D01*
X98211Y289233D01*
X98220Y289131D01*
X98226Y289028D01*
X98228Y288925D01*
X96393Y288925D02*
X96395Y288822D01*
X96401Y288720D01*
X96410Y288617D01*
X96424Y288515D01*
X96441Y288414D01*
X96463Y288313D01*
X96488Y288213D01*
X96516Y288115D01*
X96549Y288017D01*
X96585Y287921D01*
X96625Y287826D01*
X96668Y287733D01*
X96685Y287687D01*
X96707Y287642D01*
X96731Y287599D01*
X96758Y287557D01*
X96789Y287518D01*
X96822Y287481D01*
X96857Y287447D01*
X96895Y287415D01*
X96936Y287386D01*
X96978Y287361D01*
X97022Y287338D01*
X97068Y287319D01*
X97115Y287303D01*
X97163Y287290D01*
X97211Y287281D01*
X97260Y287276D01*
X97310Y287274D01*
X97952Y287733D02*
X97995Y287826D01*
X98035Y287921D01*
X98071Y288017D01*
X98104Y288115D01*
X98132Y288213D01*
X98157Y288313D01*
X98179Y288414D01*
X98196Y288515D01*
X98210Y288617D01*
X98219Y288719D01*
X98225Y288822D01*
X98227Y288925D01*
X97952Y287733D02*
X97935Y287687D01*
X97913Y287642D01*
X97889Y287599D01*
X97862Y287557D01*
X97831Y287518D01*
X97798Y287481D01*
X97763Y287447D01*
X97725Y287415D01*
X97684Y287386D01*
X97642Y287361D01*
X97598Y287338D01*
X97552Y287319D01*
X97505Y287303D01*
X97457Y287290D01*
X97409Y287281D01*
X97360Y287276D01*
X97310Y287274D01*
X96576Y288008D02*
X98044Y289842D01*
X99822Y288925D02*
X99824Y289028D01*
X99830Y289131D01*
X99839Y289233D01*
X99853Y289335D01*
X99870Y289436D01*
X99892Y289537D01*
X99917Y289637D01*
X99945Y289735D01*
X99978Y289833D01*
X100014Y289929D01*
X100054Y290024D01*
X100097Y290117D01*
X100114Y290163D01*
X100136Y290208D01*
X100160Y290251D01*
X100187Y290293D01*
X100218Y290332D01*
X100251Y290369D01*
X100286Y290403D01*
X100324Y290435D01*
X100365Y290464D01*
X100407Y290489D01*
X100451Y290512D01*
X100497Y290531D01*
X100544Y290547D01*
X100592Y290560D01*
X100640Y290569D01*
X100689Y290574D01*
X100739Y290576D01*
X100789Y290574D01*
X100838Y290569D01*
X100886Y290560D01*
X100934Y290547D01*
X100981Y290531D01*
X101027Y290512D01*
X101071Y290489D01*
X101113Y290464D01*
X101154Y290435D01*
X101192Y290403D01*
X101227Y290369D01*
X101260Y290332D01*
X101291Y290293D01*
X101318Y290251D01*
X101342Y290208D01*
X101364Y290163D01*
X101381Y290117D01*
X101382Y290117D02*
X101425Y290024D01*
X101465Y289929D01*
X101501Y289833D01*
X101534Y289735D01*
X101562Y289637D01*
X101587Y289537D01*
X101609Y289436D01*
X101626Y289335D01*
X101640Y289233D01*
X101649Y289131D01*
X101655Y289028D01*
X101657Y288925D01*
X99822Y288925D02*
X99824Y288822D01*
X99830Y288720D01*
X99839Y288617D01*
X99853Y288515D01*
X99870Y288414D01*
X99892Y288313D01*
X99917Y288213D01*
X99945Y288115D01*
X99978Y288017D01*
X100014Y287921D01*
X100054Y287826D01*
X100097Y287733D01*
X100114Y287687D01*
X100136Y287642D01*
X100160Y287599D01*
X100187Y287557D01*
X100218Y287518D01*
X100251Y287481D01*
X100286Y287447D01*
X100324Y287415D01*
X100365Y287386D01*
X100407Y287361D01*
X100451Y287338D01*
X100497Y287319D01*
X100544Y287303D01*
X100592Y287290D01*
X100640Y287281D01*
X100689Y287276D01*
X100739Y287274D01*
X101381Y287733D02*
X101424Y287826D01*
X101464Y287921D01*
X101500Y288017D01*
X101533Y288115D01*
X101561Y288213D01*
X101586Y288313D01*
X101608Y288414D01*
X101625Y288515D01*
X101639Y288617D01*
X101648Y288719D01*
X101654Y288822D01*
X101656Y288925D01*
X101381Y287733D02*
X101364Y287687D01*
X101342Y287642D01*
X101318Y287599D01*
X101291Y287557D01*
X101260Y287518D01*
X101227Y287481D01*
X101192Y287447D01*
X101154Y287415D01*
X101113Y287386D01*
X101071Y287361D01*
X101027Y287338D01*
X100981Y287319D01*
X100934Y287303D01*
X100886Y287290D01*
X100838Y287281D01*
X100789Y287276D01*
X100739Y287274D01*
X100005Y288008D02*
X101473Y289842D01*
D15*
X95160Y295220D02*
X90260Y295220D01*
X90260Y304220D02*
X95160Y304220D01*
D12*
X90071Y309626D02*
X89154Y308892D01*
X90071Y309626D02*
X90071Y306324D01*
X89154Y306324D02*
X90988Y306324D01*
X92742Y306324D02*
X92742Y309626D01*
X93843Y307792D01*
X94944Y309626D01*
X94944Y306324D01*
D15*
X40550Y347290D02*
X35650Y347290D01*
X35650Y356290D02*
X40550Y356290D01*
D12*
X36513Y343917D02*
X36569Y343915D01*
X36625Y343909D01*
X36681Y343900D01*
X36736Y343886D01*
X36790Y343869D01*
X36842Y343849D01*
X36893Y343824D01*
X36942Y343797D01*
X36989Y343766D01*
X37034Y343732D01*
X37077Y343695D01*
X37117Y343655D01*
X37154Y343612D01*
X37188Y343567D01*
X37219Y343520D01*
X37246Y343471D01*
X37271Y343420D01*
X37291Y343368D01*
X37308Y343314D01*
X37322Y343259D01*
X37331Y343203D01*
X37337Y343147D01*
X37339Y343091D01*
X36513Y343916D02*
X36449Y343914D01*
X36386Y343908D01*
X36323Y343899D01*
X36261Y343886D01*
X36200Y343869D01*
X36140Y343848D01*
X36081Y343824D01*
X36024Y343797D01*
X35968Y343766D01*
X35915Y343731D01*
X35864Y343694D01*
X35814Y343654D01*
X35768Y343610D01*
X35724Y343564D01*
X35683Y343516D01*
X35645Y343465D01*
X35610Y343412D01*
X35578Y343357D01*
X35550Y343300D01*
X35525Y343242D01*
X35504Y343182D01*
X37063Y342449D02*
X37101Y342488D01*
X37138Y342530D01*
X37171Y342574D01*
X37202Y342619D01*
X37230Y342667D01*
X37255Y342716D01*
X37277Y342767D01*
X37295Y342819D01*
X37311Y342872D01*
X37323Y342926D01*
X37331Y342981D01*
X37336Y343036D01*
X37338Y343091D01*
X37063Y342448D02*
X35504Y340614D01*
X37338Y340614D01*
X39942Y343917D02*
X39998Y343915D01*
X40054Y343909D01*
X40110Y343900D01*
X40165Y343886D01*
X40219Y343869D01*
X40271Y343849D01*
X40322Y343824D01*
X40371Y343797D01*
X40418Y343766D01*
X40463Y343732D01*
X40506Y343695D01*
X40546Y343655D01*
X40583Y343612D01*
X40617Y343567D01*
X40648Y343520D01*
X40675Y343471D01*
X40700Y343420D01*
X40720Y343368D01*
X40737Y343314D01*
X40751Y343259D01*
X40760Y343203D01*
X40766Y343147D01*
X40768Y343091D01*
X39942Y343916D02*
X39878Y343914D01*
X39815Y343908D01*
X39752Y343899D01*
X39690Y343886D01*
X39629Y343869D01*
X39569Y343848D01*
X39510Y343824D01*
X39453Y343797D01*
X39397Y343766D01*
X39344Y343731D01*
X39293Y343694D01*
X39243Y343654D01*
X39197Y343610D01*
X39153Y343564D01*
X39112Y343516D01*
X39074Y343465D01*
X39039Y343412D01*
X39007Y343357D01*
X38979Y343300D01*
X38954Y343242D01*
X38933Y343182D01*
X40492Y342449D02*
X40530Y342488D01*
X40567Y342530D01*
X40600Y342574D01*
X40631Y342619D01*
X40659Y342667D01*
X40684Y342716D01*
X40706Y342767D01*
X40724Y342819D01*
X40740Y342872D01*
X40752Y342926D01*
X40760Y342981D01*
X40765Y343036D01*
X40767Y343091D01*
X40492Y342448D02*
X38933Y340614D01*
X40767Y340614D01*
X42362Y342265D02*
X42364Y342368D01*
X42370Y342471D01*
X42379Y342573D01*
X42393Y342675D01*
X42410Y342776D01*
X42432Y342877D01*
X42457Y342977D01*
X42485Y343075D01*
X42518Y343173D01*
X42554Y343269D01*
X42594Y343364D01*
X42637Y343457D01*
X42654Y343503D01*
X42676Y343548D01*
X42700Y343591D01*
X42727Y343633D01*
X42758Y343672D01*
X42791Y343709D01*
X42826Y343743D01*
X42864Y343775D01*
X42905Y343804D01*
X42947Y343829D01*
X42991Y343852D01*
X43037Y343871D01*
X43084Y343887D01*
X43132Y343900D01*
X43180Y343909D01*
X43229Y343914D01*
X43279Y343916D01*
X43329Y343914D01*
X43378Y343909D01*
X43426Y343900D01*
X43474Y343887D01*
X43521Y343871D01*
X43567Y343852D01*
X43611Y343829D01*
X43653Y343804D01*
X43694Y343775D01*
X43732Y343743D01*
X43767Y343709D01*
X43800Y343672D01*
X43831Y343633D01*
X43858Y343591D01*
X43882Y343548D01*
X43904Y343503D01*
X43921Y343457D01*
X43964Y343364D01*
X44004Y343269D01*
X44040Y343173D01*
X44073Y343075D01*
X44101Y342977D01*
X44126Y342877D01*
X44148Y342776D01*
X44165Y342675D01*
X44179Y342573D01*
X44188Y342471D01*
X44194Y342368D01*
X44196Y342265D01*
X42362Y342265D02*
X42364Y342162D01*
X42370Y342060D01*
X42379Y341957D01*
X42393Y341855D01*
X42410Y341754D01*
X42432Y341653D01*
X42457Y341553D01*
X42485Y341455D01*
X42518Y341357D01*
X42554Y341261D01*
X42594Y341166D01*
X42637Y341073D01*
X42654Y341027D01*
X42676Y340982D01*
X42700Y340939D01*
X42727Y340897D01*
X42758Y340858D01*
X42791Y340821D01*
X42826Y340787D01*
X42864Y340755D01*
X42905Y340726D01*
X42947Y340701D01*
X42991Y340678D01*
X43037Y340659D01*
X43084Y340643D01*
X43132Y340630D01*
X43180Y340621D01*
X43229Y340616D01*
X43279Y340614D01*
X43921Y341073D02*
X43964Y341166D01*
X44004Y341261D01*
X44040Y341357D01*
X44073Y341455D01*
X44101Y341553D01*
X44126Y341653D01*
X44148Y341754D01*
X44165Y341855D01*
X44179Y341957D01*
X44188Y342059D01*
X44194Y342162D01*
X44196Y342265D01*
X43921Y341073D02*
X43904Y341027D01*
X43882Y340982D01*
X43858Y340939D01*
X43831Y340897D01*
X43800Y340858D01*
X43767Y340821D01*
X43732Y340787D01*
X43694Y340755D01*
X43653Y340726D01*
X43611Y340701D01*
X43567Y340678D01*
X43521Y340659D01*
X43474Y340643D01*
X43426Y340630D01*
X43378Y340621D01*
X43329Y340616D01*
X43279Y340614D01*
X42545Y341348D02*
X44013Y343182D01*
D15*
X156300Y480750D02*
X161200Y480750D01*
X161200Y471750D02*
X156300Y471750D01*
D12*
X156136Y469647D02*
X156192Y469645D01*
X156248Y469639D01*
X156304Y469630D01*
X156359Y469616D01*
X156413Y469599D01*
X156465Y469579D01*
X156516Y469554D01*
X156565Y469527D01*
X156612Y469496D01*
X156657Y469462D01*
X156700Y469425D01*
X156740Y469385D01*
X156777Y469342D01*
X156811Y469297D01*
X156842Y469250D01*
X156869Y469201D01*
X156894Y469150D01*
X156914Y469098D01*
X156931Y469044D01*
X156945Y468989D01*
X156954Y468933D01*
X156960Y468877D01*
X156962Y468821D01*
X156136Y469646D02*
X156072Y469644D01*
X156009Y469638D01*
X155946Y469629D01*
X155884Y469616D01*
X155823Y469599D01*
X155763Y469578D01*
X155704Y469554D01*
X155647Y469527D01*
X155591Y469496D01*
X155538Y469461D01*
X155487Y469424D01*
X155437Y469384D01*
X155391Y469340D01*
X155347Y469294D01*
X155306Y469246D01*
X155268Y469195D01*
X155233Y469142D01*
X155201Y469087D01*
X155173Y469030D01*
X155148Y468972D01*
X155127Y468912D01*
X156687Y468179D02*
X156725Y468218D01*
X156762Y468260D01*
X156795Y468304D01*
X156826Y468349D01*
X156854Y468397D01*
X156879Y468446D01*
X156901Y468497D01*
X156919Y468549D01*
X156935Y468602D01*
X156947Y468656D01*
X156955Y468711D01*
X156960Y468766D01*
X156962Y468821D01*
X156686Y468178D02*
X155127Y466344D01*
X156962Y466344D01*
X159565Y469647D02*
X159621Y469645D01*
X159677Y469639D01*
X159733Y469630D01*
X159788Y469616D01*
X159842Y469599D01*
X159894Y469579D01*
X159945Y469554D01*
X159994Y469527D01*
X160041Y469496D01*
X160086Y469462D01*
X160129Y469425D01*
X160169Y469385D01*
X160206Y469342D01*
X160240Y469297D01*
X160271Y469250D01*
X160298Y469201D01*
X160323Y469150D01*
X160343Y469098D01*
X160360Y469044D01*
X160374Y468989D01*
X160383Y468933D01*
X160389Y468877D01*
X160391Y468821D01*
X159565Y469646D02*
X159501Y469644D01*
X159438Y469638D01*
X159375Y469629D01*
X159313Y469616D01*
X159252Y469599D01*
X159192Y469578D01*
X159133Y469554D01*
X159076Y469527D01*
X159020Y469496D01*
X158967Y469461D01*
X158916Y469424D01*
X158866Y469384D01*
X158820Y469340D01*
X158776Y469294D01*
X158735Y469246D01*
X158697Y469195D01*
X158662Y469142D01*
X158630Y469087D01*
X158602Y469030D01*
X158577Y468972D01*
X158556Y468912D01*
X160116Y468179D02*
X160154Y468218D01*
X160191Y468260D01*
X160224Y468304D01*
X160255Y468349D01*
X160283Y468397D01*
X160308Y468446D01*
X160330Y468497D01*
X160348Y468549D01*
X160364Y468602D01*
X160376Y468656D01*
X160384Y468711D01*
X160389Y468766D01*
X160391Y468821D01*
X160115Y468178D02*
X158556Y466344D01*
X160391Y466344D01*
X162108Y466344D02*
X162108Y469646D01*
X163576Y468545D02*
X162108Y467445D01*
X162751Y467903D02*
X163576Y466344D01*
D15*
X79920Y348560D02*
X75020Y348560D01*
X75020Y357560D02*
X79920Y357560D01*
D12*
X74613Y343917D02*
X74669Y343915D01*
X74725Y343909D01*
X74781Y343900D01*
X74836Y343886D01*
X74890Y343869D01*
X74942Y343849D01*
X74993Y343824D01*
X75042Y343797D01*
X75089Y343766D01*
X75134Y343732D01*
X75177Y343695D01*
X75217Y343655D01*
X75254Y343612D01*
X75288Y343567D01*
X75319Y343520D01*
X75346Y343471D01*
X75371Y343420D01*
X75391Y343368D01*
X75408Y343314D01*
X75422Y343259D01*
X75431Y343203D01*
X75437Y343147D01*
X75439Y343091D01*
X74613Y343916D02*
X74549Y343914D01*
X74486Y343908D01*
X74423Y343899D01*
X74361Y343886D01*
X74300Y343869D01*
X74240Y343848D01*
X74181Y343824D01*
X74124Y343797D01*
X74068Y343766D01*
X74015Y343731D01*
X73964Y343694D01*
X73914Y343654D01*
X73868Y343610D01*
X73824Y343564D01*
X73783Y343516D01*
X73745Y343465D01*
X73710Y343412D01*
X73678Y343357D01*
X73650Y343300D01*
X73625Y343242D01*
X73604Y343182D01*
X75163Y342449D02*
X75201Y342488D01*
X75238Y342530D01*
X75271Y342574D01*
X75302Y342619D01*
X75330Y342667D01*
X75355Y342716D01*
X75377Y342767D01*
X75395Y342819D01*
X75411Y342872D01*
X75423Y342926D01*
X75431Y342981D01*
X75436Y343036D01*
X75438Y343091D01*
X75163Y342448D02*
X73604Y340614D01*
X75438Y340614D01*
X78042Y343917D02*
X78098Y343915D01*
X78154Y343909D01*
X78210Y343900D01*
X78265Y343886D01*
X78319Y343869D01*
X78371Y343849D01*
X78422Y343824D01*
X78471Y343797D01*
X78518Y343766D01*
X78563Y343732D01*
X78606Y343695D01*
X78646Y343655D01*
X78683Y343612D01*
X78717Y343567D01*
X78748Y343520D01*
X78775Y343471D01*
X78800Y343420D01*
X78820Y343368D01*
X78837Y343314D01*
X78851Y343259D01*
X78860Y343203D01*
X78866Y343147D01*
X78868Y343091D01*
X78042Y343916D02*
X77978Y343914D01*
X77915Y343908D01*
X77852Y343899D01*
X77790Y343886D01*
X77729Y343869D01*
X77669Y343848D01*
X77610Y343824D01*
X77553Y343797D01*
X77497Y343766D01*
X77444Y343731D01*
X77393Y343694D01*
X77343Y343654D01*
X77297Y343610D01*
X77253Y343564D01*
X77212Y343516D01*
X77174Y343465D01*
X77139Y343412D01*
X77107Y343357D01*
X77079Y343300D01*
X77054Y343242D01*
X77033Y343182D01*
X78592Y342449D02*
X78630Y342488D01*
X78667Y342530D01*
X78700Y342574D01*
X78731Y342619D01*
X78759Y342667D01*
X78784Y342716D01*
X78806Y342767D01*
X78824Y342819D01*
X78840Y342872D01*
X78852Y342926D01*
X78860Y342981D01*
X78865Y343036D01*
X78867Y343091D01*
X78592Y342448D02*
X77033Y340614D01*
X78867Y340614D01*
X80462Y342265D02*
X80464Y342368D01*
X80470Y342471D01*
X80479Y342573D01*
X80493Y342675D01*
X80510Y342776D01*
X80532Y342877D01*
X80557Y342977D01*
X80585Y343075D01*
X80618Y343173D01*
X80654Y343269D01*
X80694Y343364D01*
X80737Y343457D01*
X80754Y343503D01*
X80776Y343548D01*
X80800Y343591D01*
X80827Y343633D01*
X80858Y343672D01*
X80891Y343709D01*
X80926Y343743D01*
X80964Y343775D01*
X81005Y343804D01*
X81047Y343829D01*
X81091Y343852D01*
X81137Y343871D01*
X81184Y343887D01*
X81232Y343900D01*
X81280Y343909D01*
X81329Y343914D01*
X81379Y343916D01*
X81429Y343914D01*
X81478Y343909D01*
X81526Y343900D01*
X81574Y343887D01*
X81621Y343871D01*
X81667Y343852D01*
X81711Y343829D01*
X81753Y343804D01*
X81794Y343775D01*
X81832Y343743D01*
X81867Y343709D01*
X81900Y343672D01*
X81931Y343633D01*
X81958Y343591D01*
X81982Y343548D01*
X82004Y343503D01*
X82021Y343457D01*
X82064Y343364D01*
X82104Y343269D01*
X82140Y343173D01*
X82173Y343075D01*
X82201Y342977D01*
X82226Y342877D01*
X82248Y342776D01*
X82265Y342675D01*
X82279Y342573D01*
X82288Y342471D01*
X82294Y342368D01*
X82296Y342265D01*
X80462Y342265D02*
X80464Y342162D01*
X80470Y342060D01*
X80479Y341957D01*
X80493Y341855D01*
X80510Y341754D01*
X80532Y341653D01*
X80557Y341553D01*
X80585Y341455D01*
X80618Y341357D01*
X80654Y341261D01*
X80694Y341166D01*
X80737Y341073D01*
X80754Y341027D01*
X80776Y340982D01*
X80800Y340939D01*
X80827Y340897D01*
X80858Y340858D01*
X80891Y340821D01*
X80926Y340787D01*
X80964Y340755D01*
X81005Y340726D01*
X81047Y340701D01*
X81091Y340678D01*
X81137Y340659D01*
X81184Y340643D01*
X81232Y340630D01*
X81280Y340621D01*
X81329Y340616D01*
X81379Y340614D01*
X82021Y341073D02*
X82064Y341166D01*
X82104Y341261D01*
X82140Y341357D01*
X82173Y341455D01*
X82201Y341553D01*
X82226Y341653D01*
X82248Y341754D01*
X82265Y341855D01*
X82279Y341957D01*
X82288Y342059D01*
X82294Y342162D01*
X82296Y342265D01*
X82021Y341073D02*
X82004Y341027D01*
X81982Y340982D01*
X81958Y340939D01*
X81931Y340897D01*
X81900Y340858D01*
X81867Y340821D01*
X81832Y340787D01*
X81794Y340755D01*
X81753Y340726D01*
X81711Y340701D01*
X81667Y340678D01*
X81621Y340659D01*
X81574Y340643D01*
X81526Y340630D01*
X81478Y340621D01*
X81429Y340616D01*
X81379Y340614D01*
X80645Y341348D02*
X82113Y343182D01*
D15*
X318860Y65350D02*
X323760Y65350D01*
X323760Y74350D02*
X318860Y74350D01*
D12*
X316484Y79022D02*
X317401Y79756D01*
X317401Y76454D01*
X316484Y76454D02*
X318318Y76454D01*
X319913Y78105D02*
X319915Y78208D01*
X319921Y78311D01*
X319930Y78413D01*
X319944Y78515D01*
X319961Y78616D01*
X319983Y78717D01*
X320008Y78817D01*
X320036Y78915D01*
X320069Y79013D01*
X320105Y79109D01*
X320145Y79204D01*
X320188Y79297D01*
X320205Y79343D01*
X320227Y79388D01*
X320251Y79431D01*
X320278Y79473D01*
X320309Y79512D01*
X320342Y79549D01*
X320377Y79583D01*
X320415Y79615D01*
X320456Y79644D01*
X320498Y79669D01*
X320542Y79692D01*
X320588Y79711D01*
X320635Y79727D01*
X320683Y79740D01*
X320731Y79749D01*
X320780Y79754D01*
X320830Y79756D01*
X320880Y79754D01*
X320929Y79749D01*
X320977Y79740D01*
X321025Y79727D01*
X321072Y79711D01*
X321118Y79692D01*
X321162Y79669D01*
X321204Y79644D01*
X321245Y79615D01*
X321283Y79583D01*
X321318Y79549D01*
X321351Y79512D01*
X321382Y79473D01*
X321409Y79431D01*
X321433Y79388D01*
X321455Y79343D01*
X321472Y79297D01*
X321473Y79297D02*
X321516Y79204D01*
X321556Y79109D01*
X321592Y79013D01*
X321625Y78915D01*
X321653Y78817D01*
X321678Y78717D01*
X321700Y78616D01*
X321717Y78515D01*
X321731Y78413D01*
X321740Y78311D01*
X321746Y78208D01*
X321748Y78105D01*
X319913Y78105D02*
X319915Y78002D01*
X319921Y77900D01*
X319930Y77797D01*
X319944Y77695D01*
X319961Y77594D01*
X319983Y77493D01*
X320008Y77393D01*
X320036Y77295D01*
X320069Y77197D01*
X320105Y77101D01*
X320145Y77006D01*
X320188Y76913D01*
X320205Y76867D01*
X320227Y76822D01*
X320251Y76779D01*
X320278Y76737D01*
X320309Y76698D01*
X320342Y76661D01*
X320377Y76627D01*
X320415Y76595D01*
X320456Y76566D01*
X320498Y76541D01*
X320542Y76518D01*
X320588Y76499D01*
X320635Y76483D01*
X320683Y76470D01*
X320731Y76461D01*
X320780Y76456D01*
X320830Y76454D01*
X321472Y76913D02*
X321515Y77006D01*
X321555Y77101D01*
X321591Y77197D01*
X321624Y77295D01*
X321652Y77393D01*
X321677Y77493D01*
X321699Y77594D01*
X321716Y77695D01*
X321730Y77797D01*
X321739Y77899D01*
X321745Y78002D01*
X321747Y78105D01*
X321472Y76913D02*
X321455Y76867D01*
X321433Y76822D01*
X321409Y76779D01*
X321382Y76737D01*
X321351Y76698D01*
X321318Y76661D01*
X321283Y76627D01*
X321245Y76595D01*
X321204Y76566D01*
X321162Y76541D01*
X321118Y76518D01*
X321072Y76499D01*
X321025Y76483D01*
X320977Y76470D01*
X320929Y76461D01*
X320880Y76456D01*
X320830Y76454D01*
X320096Y77188D02*
X321564Y79022D01*
X323342Y78105D02*
X323344Y78208D01*
X323350Y78311D01*
X323359Y78413D01*
X323373Y78515D01*
X323390Y78616D01*
X323412Y78717D01*
X323437Y78817D01*
X323465Y78915D01*
X323498Y79013D01*
X323534Y79109D01*
X323574Y79204D01*
X323617Y79297D01*
X323634Y79343D01*
X323656Y79388D01*
X323680Y79431D01*
X323707Y79473D01*
X323738Y79512D01*
X323771Y79549D01*
X323806Y79583D01*
X323844Y79615D01*
X323885Y79644D01*
X323927Y79669D01*
X323971Y79692D01*
X324017Y79711D01*
X324064Y79727D01*
X324112Y79740D01*
X324160Y79749D01*
X324209Y79754D01*
X324259Y79756D01*
X324309Y79754D01*
X324358Y79749D01*
X324406Y79740D01*
X324454Y79727D01*
X324501Y79711D01*
X324547Y79692D01*
X324591Y79669D01*
X324633Y79644D01*
X324674Y79615D01*
X324712Y79583D01*
X324747Y79549D01*
X324780Y79512D01*
X324811Y79473D01*
X324838Y79431D01*
X324862Y79388D01*
X324884Y79343D01*
X324901Y79297D01*
X324902Y79297D02*
X324945Y79204D01*
X324985Y79109D01*
X325021Y79013D01*
X325054Y78915D01*
X325082Y78817D01*
X325107Y78717D01*
X325129Y78616D01*
X325146Y78515D01*
X325160Y78413D01*
X325169Y78311D01*
X325175Y78208D01*
X325177Y78105D01*
X323342Y78105D02*
X323344Y78002D01*
X323350Y77900D01*
X323359Y77797D01*
X323373Y77695D01*
X323390Y77594D01*
X323412Y77493D01*
X323437Y77393D01*
X323465Y77295D01*
X323498Y77197D01*
X323534Y77101D01*
X323574Y77006D01*
X323617Y76913D01*
X323634Y76867D01*
X323656Y76822D01*
X323680Y76779D01*
X323707Y76737D01*
X323738Y76698D01*
X323771Y76661D01*
X323806Y76627D01*
X323844Y76595D01*
X323885Y76566D01*
X323927Y76541D01*
X323971Y76518D01*
X324017Y76499D01*
X324064Y76483D01*
X324112Y76470D01*
X324160Y76461D01*
X324209Y76456D01*
X324259Y76454D01*
X324901Y76913D02*
X324944Y77006D01*
X324984Y77101D01*
X325020Y77197D01*
X325053Y77295D01*
X325081Y77393D01*
X325106Y77493D01*
X325128Y77594D01*
X325145Y77695D01*
X325159Y77797D01*
X325168Y77899D01*
X325174Y78002D01*
X325176Y78105D01*
X324901Y76913D02*
X324884Y76867D01*
X324862Y76822D01*
X324838Y76779D01*
X324811Y76737D01*
X324780Y76698D01*
X324747Y76661D01*
X324712Y76627D01*
X324674Y76595D01*
X324633Y76566D01*
X324591Y76541D01*
X324547Y76518D01*
X324501Y76499D01*
X324454Y76483D01*
X324406Y76470D01*
X324358Y76461D01*
X324309Y76456D01*
X324259Y76454D01*
X323525Y77188D02*
X324993Y79022D01*
X326894Y79756D02*
X326894Y76454D01*
X326894Y77555D02*
X328362Y78655D01*
X327536Y78013D02*
X328362Y76454D01*
D15*
X288200Y65350D02*
X283300Y65350D01*
X283300Y74350D02*
X288200Y74350D01*
D12*
X281841Y79756D02*
X280924Y79022D01*
X281841Y79756D02*
X281841Y76454D01*
X280924Y76454D02*
X282758Y76454D01*
X284353Y78105D02*
X284355Y78208D01*
X284361Y78311D01*
X284370Y78413D01*
X284384Y78515D01*
X284401Y78616D01*
X284423Y78717D01*
X284448Y78817D01*
X284476Y78915D01*
X284509Y79013D01*
X284545Y79109D01*
X284585Y79204D01*
X284628Y79297D01*
X284645Y79343D01*
X284667Y79388D01*
X284691Y79431D01*
X284718Y79473D01*
X284749Y79512D01*
X284782Y79549D01*
X284817Y79583D01*
X284855Y79615D01*
X284896Y79644D01*
X284938Y79669D01*
X284982Y79692D01*
X285028Y79711D01*
X285075Y79727D01*
X285123Y79740D01*
X285171Y79749D01*
X285220Y79754D01*
X285270Y79756D01*
X285320Y79754D01*
X285369Y79749D01*
X285417Y79740D01*
X285465Y79727D01*
X285512Y79711D01*
X285558Y79692D01*
X285602Y79669D01*
X285644Y79644D01*
X285685Y79615D01*
X285723Y79583D01*
X285758Y79549D01*
X285791Y79512D01*
X285822Y79473D01*
X285849Y79431D01*
X285873Y79388D01*
X285895Y79343D01*
X285912Y79297D01*
X285913Y79297D02*
X285956Y79204D01*
X285996Y79109D01*
X286032Y79013D01*
X286065Y78915D01*
X286093Y78817D01*
X286118Y78717D01*
X286140Y78616D01*
X286157Y78515D01*
X286171Y78413D01*
X286180Y78311D01*
X286186Y78208D01*
X286188Y78105D01*
X284353Y78105D02*
X284355Y78002D01*
X284361Y77900D01*
X284370Y77797D01*
X284384Y77695D01*
X284401Y77594D01*
X284423Y77493D01*
X284448Y77393D01*
X284476Y77295D01*
X284509Y77197D01*
X284545Y77101D01*
X284585Y77006D01*
X284628Y76913D01*
X284645Y76867D01*
X284667Y76822D01*
X284691Y76779D01*
X284718Y76737D01*
X284749Y76698D01*
X284782Y76661D01*
X284817Y76627D01*
X284855Y76595D01*
X284896Y76566D01*
X284938Y76541D01*
X284982Y76518D01*
X285028Y76499D01*
X285075Y76483D01*
X285123Y76470D01*
X285171Y76461D01*
X285220Y76456D01*
X285270Y76454D01*
X285912Y76913D02*
X285955Y77006D01*
X285995Y77101D01*
X286031Y77197D01*
X286064Y77295D01*
X286092Y77393D01*
X286117Y77493D01*
X286139Y77594D01*
X286156Y77695D01*
X286170Y77797D01*
X286179Y77899D01*
X286185Y78002D01*
X286187Y78105D01*
X285912Y76913D02*
X285895Y76867D01*
X285873Y76822D01*
X285849Y76779D01*
X285822Y76737D01*
X285791Y76698D01*
X285758Y76661D01*
X285723Y76627D01*
X285685Y76595D01*
X285644Y76566D01*
X285602Y76541D01*
X285558Y76518D01*
X285512Y76499D01*
X285465Y76483D01*
X285417Y76470D01*
X285369Y76461D01*
X285320Y76456D01*
X285270Y76454D01*
X284536Y77188D02*
X286004Y79022D01*
X287782Y78105D02*
X287784Y78208D01*
X287790Y78311D01*
X287799Y78413D01*
X287813Y78515D01*
X287830Y78616D01*
X287852Y78717D01*
X287877Y78817D01*
X287905Y78915D01*
X287938Y79013D01*
X287974Y79109D01*
X288014Y79204D01*
X288057Y79297D01*
X288074Y79343D01*
X288096Y79388D01*
X288120Y79431D01*
X288147Y79473D01*
X288178Y79512D01*
X288211Y79549D01*
X288246Y79583D01*
X288284Y79615D01*
X288325Y79644D01*
X288367Y79669D01*
X288411Y79692D01*
X288457Y79711D01*
X288504Y79727D01*
X288552Y79740D01*
X288600Y79749D01*
X288649Y79754D01*
X288699Y79756D01*
X288749Y79754D01*
X288798Y79749D01*
X288846Y79740D01*
X288894Y79727D01*
X288941Y79711D01*
X288987Y79692D01*
X289031Y79669D01*
X289073Y79644D01*
X289114Y79615D01*
X289152Y79583D01*
X289187Y79549D01*
X289220Y79512D01*
X289251Y79473D01*
X289278Y79431D01*
X289302Y79388D01*
X289324Y79343D01*
X289341Y79297D01*
X289342Y79297D02*
X289385Y79204D01*
X289425Y79109D01*
X289461Y79013D01*
X289494Y78915D01*
X289522Y78817D01*
X289547Y78717D01*
X289569Y78616D01*
X289586Y78515D01*
X289600Y78413D01*
X289609Y78311D01*
X289615Y78208D01*
X289617Y78105D01*
X287782Y78105D02*
X287784Y78002D01*
X287790Y77900D01*
X287799Y77797D01*
X287813Y77695D01*
X287830Y77594D01*
X287852Y77493D01*
X287877Y77393D01*
X287905Y77295D01*
X287938Y77197D01*
X287974Y77101D01*
X288014Y77006D01*
X288057Y76913D01*
X288074Y76867D01*
X288096Y76822D01*
X288120Y76779D01*
X288147Y76737D01*
X288178Y76698D01*
X288211Y76661D01*
X288246Y76627D01*
X288284Y76595D01*
X288325Y76566D01*
X288367Y76541D01*
X288411Y76518D01*
X288457Y76499D01*
X288504Y76483D01*
X288552Y76470D01*
X288600Y76461D01*
X288649Y76456D01*
X288699Y76454D01*
X289341Y76913D02*
X289384Y77006D01*
X289424Y77101D01*
X289460Y77197D01*
X289493Y77295D01*
X289521Y77393D01*
X289546Y77493D01*
X289568Y77594D01*
X289585Y77695D01*
X289599Y77797D01*
X289608Y77899D01*
X289614Y78002D01*
X289616Y78105D01*
X289341Y76913D02*
X289324Y76867D01*
X289302Y76822D01*
X289278Y76779D01*
X289251Y76737D01*
X289220Y76698D01*
X289187Y76661D01*
X289152Y76627D01*
X289114Y76595D01*
X289073Y76566D01*
X289031Y76541D01*
X288987Y76518D01*
X288941Y76499D01*
X288894Y76483D01*
X288846Y76470D01*
X288798Y76461D01*
X288749Y76456D01*
X288699Y76454D01*
X287965Y77188D02*
X289433Y79022D01*
X291334Y79756D02*
X291334Y76454D01*
X291334Y77555D02*
X292802Y78655D01*
X291976Y78013D02*
X292802Y76454D01*
D15*
X280090Y174080D02*
X280090Y178980D01*
X271090Y178980D02*
X271090Y174080D01*
D12*
X273356Y193322D02*
X274273Y194056D01*
X274273Y190754D01*
X273356Y190754D02*
X275191Y190754D01*
X276945Y190754D02*
X276945Y194056D01*
X278045Y192222D01*
X279146Y194056D01*
X279146Y190754D01*
D15*
X211510Y440780D02*
X211510Y445680D01*
X202510Y445680D02*
X202510Y440780D01*
D12*
X204776Y460022D02*
X205693Y460756D01*
X205693Y457454D01*
X204776Y457454D02*
X206611Y457454D01*
X208365Y457454D02*
X208365Y460756D01*
X209465Y458922D01*
X210566Y460756D01*
X210566Y457454D01*
D15*
X238850Y380420D02*
X243750Y380420D01*
X243750Y371420D02*
X238850Y371420D01*
D12*
X237744Y385092D02*
X238661Y385826D01*
X238661Y382524D01*
X237744Y382524D02*
X239578Y382524D01*
X241173Y384175D02*
X241175Y384278D01*
X241181Y384381D01*
X241190Y384483D01*
X241204Y384585D01*
X241221Y384686D01*
X241243Y384787D01*
X241268Y384887D01*
X241296Y384985D01*
X241329Y385083D01*
X241365Y385179D01*
X241405Y385274D01*
X241448Y385367D01*
X241465Y385413D01*
X241487Y385458D01*
X241511Y385501D01*
X241538Y385543D01*
X241569Y385582D01*
X241602Y385619D01*
X241637Y385653D01*
X241675Y385685D01*
X241716Y385714D01*
X241758Y385739D01*
X241802Y385762D01*
X241848Y385781D01*
X241895Y385797D01*
X241943Y385810D01*
X241991Y385819D01*
X242040Y385824D01*
X242090Y385826D01*
X242140Y385824D01*
X242189Y385819D01*
X242237Y385810D01*
X242285Y385797D01*
X242332Y385781D01*
X242378Y385762D01*
X242422Y385739D01*
X242464Y385714D01*
X242505Y385685D01*
X242543Y385653D01*
X242578Y385619D01*
X242611Y385582D01*
X242642Y385543D01*
X242669Y385501D01*
X242693Y385458D01*
X242715Y385413D01*
X242732Y385367D01*
X242733Y385367D02*
X242776Y385274D01*
X242816Y385179D01*
X242852Y385083D01*
X242885Y384985D01*
X242913Y384887D01*
X242938Y384787D01*
X242960Y384686D01*
X242977Y384585D01*
X242991Y384483D01*
X243000Y384381D01*
X243006Y384278D01*
X243008Y384175D01*
X241173Y384175D02*
X241175Y384072D01*
X241181Y383970D01*
X241190Y383867D01*
X241204Y383765D01*
X241221Y383664D01*
X241243Y383563D01*
X241268Y383463D01*
X241296Y383365D01*
X241329Y383267D01*
X241365Y383171D01*
X241405Y383076D01*
X241448Y382983D01*
X241465Y382937D01*
X241487Y382892D01*
X241511Y382849D01*
X241538Y382807D01*
X241569Y382768D01*
X241602Y382731D01*
X241637Y382697D01*
X241675Y382665D01*
X241716Y382636D01*
X241758Y382611D01*
X241802Y382588D01*
X241848Y382569D01*
X241895Y382553D01*
X241943Y382540D01*
X241991Y382531D01*
X242040Y382526D01*
X242090Y382524D01*
X242732Y382983D02*
X242775Y383076D01*
X242815Y383171D01*
X242851Y383267D01*
X242884Y383365D01*
X242912Y383463D01*
X242937Y383563D01*
X242959Y383664D01*
X242976Y383765D01*
X242990Y383867D01*
X242999Y383969D01*
X243005Y384072D01*
X243007Y384175D01*
X242732Y382983D02*
X242715Y382937D01*
X242693Y382892D01*
X242669Y382849D01*
X242642Y382807D01*
X242611Y382768D01*
X242578Y382731D01*
X242543Y382697D01*
X242505Y382665D01*
X242464Y382636D01*
X242422Y382611D01*
X242378Y382588D01*
X242332Y382569D01*
X242285Y382553D01*
X242237Y382540D01*
X242189Y382531D01*
X242140Y382526D01*
X242090Y382524D01*
X241356Y383258D02*
X242824Y385092D01*
X244725Y385826D02*
X244725Y382524D01*
X244725Y383625D02*
X246193Y384725D01*
X245367Y384083D02*
X246193Y382524D01*
D15*
X341720Y349830D02*
X346620Y349830D01*
X346620Y358830D02*
X341720Y358830D01*
D12*
X341313Y345187D02*
X341369Y345185D01*
X341425Y345179D01*
X341481Y345170D01*
X341536Y345156D01*
X341590Y345139D01*
X341642Y345119D01*
X341693Y345094D01*
X341742Y345067D01*
X341789Y345036D01*
X341834Y345002D01*
X341877Y344965D01*
X341917Y344925D01*
X341954Y344882D01*
X341988Y344837D01*
X342019Y344790D01*
X342046Y344741D01*
X342071Y344690D01*
X342091Y344638D01*
X342108Y344584D01*
X342122Y344529D01*
X342131Y344473D01*
X342137Y344417D01*
X342139Y344361D01*
X341313Y345186D02*
X341249Y345184D01*
X341186Y345178D01*
X341123Y345169D01*
X341061Y345156D01*
X341000Y345139D01*
X340940Y345118D01*
X340881Y345094D01*
X340824Y345067D01*
X340768Y345036D01*
X340715Y345001D01*
X340664Y344964D01*
X340614Y344924D01*
X340568Y344880D01*
X340524Y344834D01*
X340483Y344786D01*
X340445Y344735D01*
X340410Y344682D01*
X340378Y344627D01*
X340350Y344570D01*
X340325Y344512D01*
X340304Y344452D01*
X341863Y343719D02*
X341901Y343758D01*
X341938Y343800D01*
X341971Y343844D01*
X342002Y343889D01*
X342030Y343937D01*
X342055Y343986D01*
X342077Y344037D01*
X342095Y344089D01*
X342111Y344142D01*
X342123Y344196D01*
X342131Y344251D01*
X342136Y344306D01*
X342138Y344361D01*
X341863Y343718D02*
X340304Y341884D01*
X342138Y341884D01*
X344742Y345187D02*
X344798Y345185D01*
X344854Y345179D01*
X344910Y345170D01*
X344965Y345156D01*
X345019Y345139D01*
X345071Y345119D01*
X345122Y345094D01*
X345171Y345067D01*
X345218Y345036D01*
X345263Y345002D01*
X345306Y344965D01*
X345346Y344925D01*
X345383Y344882D01*
X345417Y344837D01*
X345448Y344790D01*
X345475Y344741D01*
X345500Y344690D01*
X345520Y344638D01*
X345537Y344584D01*
X345551Y344529D01*
X345560Y344473D01*
X345566Y344417D01*
X345568Y344361D01*
X344742Y345186D02*
X344678Y345184D01*
X344615Y345178D01*
X344552Y345169D01*
X344490Y345156D01*
X344429Y345139D01*
X344369Y345118D01*
X344310Y345094D01*
X344253Y345067D01*
X344197Y345036D01*
X344144Y345001D01*
X344093Y344964D01*
X344043Y344924D01*
X343997Y344880D01*
X343953Y344834D01*
X343912Y344786D01*
X343874Y344735D01*
X343839Y344682D01*
X343807Y344627D01*
X343779Y344570D01*
X343754Y344512D01*
X343733Y344452D01*
X345292Y343719D02*
X345330Y343758D01*
X345367Y343800D01*
X345400Y343844D01*
X345431Y343889D01*
X345459Y343937D01*
X345484Y343986D01*
X345506Y344037D01*
X345524Y344089D01*
X345540Y344142D01*
X345552Y344196D01*
X345560Y344251D01*
X345565Y344306D01*
X345567Y344361D01*
X345292Y343718D02*
X343733Y341884D01*
X345567Y341884D01*
X347162Y343535D02*
X347164Y343638D01*
X347170Y343741D01*
X347179Y343843D01*
X347193Y343945D01*
X347210Y344046D01*
X347232Y344147D01*
X347257Y344247D01*
X347285Y344345D01*
X347318Y344443D01*
X347354Y344539D01*
X347394Y344634D01*
X347437Y344727D01*
X347454Y344773D01*
X347476Y344818D01*
X347500Y344861D01*
X347527Y344903D01*
X347558Y344942D01*
X347591Y344979D01*
X347626Y345013D01*
X347664Y345045D01*
X347705Y345074D01*
X347747Y345099D01*
X347791Y345122D01*
X347837Y345141D01*
X347884Y345157D01*
X347932Y345170D01*
X347980Y345179D01*
X348029Y345184D01*
X348079Y345186D01*
X348129Y345184D01*
X348178Y345179D01*
X348226Y345170D01*
X348274Y345157D01*
X348321Y345141D01*
X348367Y345122D01*
X348411Y345099D01*
X348453Y345074D01*
X348494Y345045D01*
X348532Y345013D01*
X348567Y344979D01*
X348600Y344942D01*
X348631Y344903D01*
X348658Y344861D01*
X348682Y344818D01*
X348704Y344773D01*
X348721Y344727D01*
X348764Y344634D01*
X348804Y344539D01*
X348840Y344443D01*
X348873Y344345D01*
X348901Y344247D01*
X348926Y344147D01*
X348948Y344046D01*
X348965Y343945D01*
X348979Y343843D01*
X348988Y343741D01*
X348994Y343638D01*
X348996Y343535D01*
X347162Y343535D02*
X347164Y343432D01*
X347170Y343330D01*
X347179Y343227D01*
X347193Y343125D01*
X347210Y343024D01*
X347232Y342923D01*
X347257Y342823D01*
X347285Y342725D01*
X347318Y342627D01*
X347354Y342531D01*
X347394Y342436D01*
X347437Y342343D01*
X347454Y342297D01*
X347476Y342252D01*
X347500Y342209D01*
X347527Y342167D01*
X347558Y342128D01*
X347591Y342091D01*
X347626Y342057D01*
X347664Y342025D01*
X347705Y341996D01*
X347747Y341971D01*
X347791Y341948D01*
X347837Y341929D01*
X347884Y341913D01*
X347932Y341900D01*
X347980Y341891D01*
X348029Y341886D01*
X348079Y341884D01*
X348721Y342343D02*
X348764Y342436D01*
X348804Y342531D01*
X348840Y342627D01*
X348873Y342725D01*
X348901Y342823D01*
X348926Y342923D01*
X348948Y343024D01*
X348965Y343125D01*
X348979Y343227D01*
X348988Y343329D01*
X348994Y343432D01*
X348996Y343535D01*
X348721Y342343D02*
X348704Y342297D01*
X348682Y342252D01*
X348658Y342209D01*
X348631Y342167D01*
X348600Y342128D01*
X348567Y342091D01*
X348532Y342057D01*
X348494Y342025D01*
X348453Y341996D01*
X348411Y341971D01*
X348367Y341948D01*
X348321Y341929D01*
X348274Y341913D01*
X348226Y341900D01*
X348178Y341891D01*
X348129Y341886D01*
X348079Y341884D01*
X347345Y342618D02*
X348813Y344452D01*
D14*
X220500Y343140D02*
X220498Y343042D01*
X220492Y342944D01*
X220483Y342846D01*
X220469Y342749D01*
X220452Y342652D01*
X220431Y342556D01*
X220406Y342461D01*
X220378Y342367D01*
X220345Y342275D01*
X220310Y342183D01*
X220270Y342093D01*
X220228Y342005D01*
X220181Y341918D01*
X220132Y341834D01*
X220079Y341751D01*
X220023Y341671D01*
X219963Y341592D01*
X219901Y341516D01*
X219836Y341443D01*
X219768Y341372D01*
X219697Y341304D01*
X219624Y341239D01*
X219548Y341177D01*
X219469Y341117D01*
X219389Y341061D01*
X219306Y341008D01*
X219222Y340959D01*
X219135Y340912D01*
X219047Y340870D01*
X218957Y340830D01*
X218865Y340795D01*
X218773Y340762D01*
X218679Y340734D01*
X218584Y340709D01*
X218488Y340688D01*
X218391Y340671D01*
X218294Y340657D01*
X218196Y340648D01*
X218098Y340642D01*
X218000Y340640D01*
X163000Y340640D01*
X162902Y340642D01*
X162804Y340648D01*
X162706Y340657D01*
X162609Y340671D01*
X162512Y340688D01*
X162416Y340709D01*
X162321Y340734D01*
X162227Y340762D01*
X162135Y340795D01*
X162043Y340830D01*
X161953Y340870D01*
X161865Y340912D01*
X161778Y340959D01*
X161694Y341008D01*
X161611Y341061D01*
X161531Y341117D01*
X161452Y341177D01*
X161376Y341239D01*
X161303Y341304D01*
X161232Y341372D01*
X161164Y341443D01*
X161099Y341516D01*
X161037Y341592D01*
X160977Y341671D01*
X160921Y341751D01*
X160868Y341834D01*
X160819Y341918D01*
X160772Y342005D01*
X160730Y342093D01*
X160690Y342183D01*
X160655Y342275D01*
X160622Y342367D01*
X160594Y342461D01*
X160569Y342556D01*
X160548Y342652D01*
X160531Y342749D01*
X160517Y342846D01*
X160508Y342944D01*
X160502Y343042D01*
X160500Y343140D01*
X160500Y373140D02*
X160502Y373238D01*
X160508Y373336D01*
X160517Y373434D01*
X160531Y373531D01*
X160548Y373628D01*
X160569Y373724D01*
X160594Y373819D01*
X160622Y373913D01*
X160655Y374005D01*
X160690Y374097D01*
X160730Y374187D01*
X160772Y374275D01*
X160819Y374362D01*
X160868Y374446D01*
X160921Y374529D01*
X160977Y374609D01*
X161037Y374688D01*
X161099Y374764D01*
X161164Y374837D01*
X161232Y374908D01*
X161303Y374976D01*
X161376Y375041D01*
X161452Y375103D01*
X161531Y375163D01*
X161611Y375219D01*
X161694Y375272D01*
X161778Y375321D01*
X161865Y375368D01*
X161953Y375410D01*
X162043Y375450D01*
X162135Y375485D01*
X162227Y375518D01*
X162321Y375546D01*
X162416Y375571D01*
X162512Y375592D01*
X162609Y375609D01*
X162706Y375623D01*
X162804Y375632D01*
X162902Y375638D01*
X163000Y375640D01*
X218000Y375640D01*
X218098Y375638D01*
X218196Y375632D01*
X218294Y375623D01*
X218391Y375609D01*
X218488Y375592D01*
X218584Y375571D01*
X218679Y375546D01*
X218773Y375518D01*
X218865Y375485D01*
X218957Y375450D01*
X219047Y375410D01*
X219135Y375368D01*
X219222Y375321D01*
X219306Y375272D01*
X219389Y375219D01*
X219469Y375163D01*
X219548Y375103D01*
X219624Y375041D01*
X219697Y374976D01*
X219768Y374908D01*
X219836Y374837D01*
X219901Y374764D01*
X219963Y374688D01*
X220023Y374609D01*
X220079Y374529D01*
X220132Y374446D01*
X220181Y374362D01*
X220228Y374275D01*
X220270Y374187D01*
X220310Y374097D01*
X220345Y374005D01*
X220378Y373913D01*
X220406Y373819D01*
X220431Y373724D01*
X220452Y373628D01*
X220469Y373531D01*
X220483Y373434D01*
X220492Y373336D01*
X220498Y373238D01*
X220500Y373140D01*
X220500Y369140D01*
X220500Y347140D02*
X220500Y343140D01*
X160500Y343140D02*
X160500Y347140D01*
X160500Y369140D02*
X160500Y373140D01*
X175500Y350640D02*
X205500Y350640D01*
X205500Y365640D02*
X175500Y365640D01*
X205500Y365640D02*
X205500Y350640D01*
X175500Y350640D02*
X175500Y365640D01*
D11*
X222600Y218000D02*
X226500Y218000D01*
X226500Y221900D01*
D16*
X249000Y224500D02*
X249002Y224577D01*
X249008Y224654D01*
X249018Y224731D01*
X249032Y224807D01*
X249049Y224882D01*
X249071Y224956D01*
X249096Y225029D01*
X249126Y225101D01*
X249158Y225171D01*
X249195Y225239D01*
X249234Y225305D01*
X249277Y225369D01*
X249324Y225431D01*
X249373Y225490D01*
X249426Y225547D01*
X249481Y225601D01*
X249539Y225652D01*
X249600Y225700D01*
X249663Y225745D01*
X249728Y225786D01*
X249795Y225824D01*
X249864Y225859D01*
X249935Y225889D01*
X250007Y225917D01*
X250081Y225940D01*
X250155Y225960D01*
X250231Y225976D01*
X250307Y225988D01*
X250384Y225996D01*
X250461Y226000D01*
X250539Y226000D01*
X250616Y225996D01*
X250693Y225988D01*
X250769Y225976D01*
X250845Y225960D01*
X250919Y225940D01*
X250993Y225917D01*
X251065Y225889D01*
X251136Y225859D01*
X251205Y225824D01*
X251272Y225786D01*
X251337Y225745D01*
X251400Y225700D01*
X251461Y225652D01*
X251519Y225601D01*
X251574Y225547D01*
X251627Y225490D01*
X251676Y225431D01*
X251723Y225369D01*
X251766Y225305D01*
X251805Y225239D01*
X251842Y225171D01*
X251874Y225101D01*
X251904Y225029D01*
X251929Y224956D01*
X251951Y224882D01*
X251968Y224807D01*
X251982Y224731D01*
X251992Y224654D01*
X251998Y224577D01*
X252000Y224500D01*
X251998Y224423D01*
X251992Y224346D01*
X251982Y224269D01*
X251968Y224193D01*
X251951Y224118D01*
X251929Y224044D01*
X251904Y223971D01*
X251874Y223899D01*
X251842Y223829D01*
X251805Y223761D01*
X251766Y223695D01*
X251723Y223631D01*
X251676Y223569D01*
X251627Y223510D01*
X251574Y223453D01*
X251519Y223399D01*
X251461Y223348D01*
X251400Y223300D01*
X251337Y223255D01*
X251272Y223214D01*
X251205Y223176D01*
X251136Y223141D01*
X251065Y223111D01*
X250993Y223083D01*
X250919Y223060D01*
X250845Y223040D01*
X250769Y223024D01*
X250693Y223012D01*
X250616Y223004D01*
X250539Y223000D01*
X250461Y223000D01*
X250384Y223004D01*
X250307Y223012D01*
X250231Y223024D01*
X250155Y223040D01*
X250081Y223060D01*
X250007Y223083D01*
X249935Y223111D01*
X249864Y223141D01*
X249795Y223176D01*
X249728Y223214D01*
X249663Y223255D01*
X249600Y223300D01*
X249539Y223348D01*
X249481Y223399D01*
X249426Y223453D01*
X249373Y223510D01*
X249324Y223569D01*
X249277Y223631D01*
X249234Y223695D01*
X249195Y223761D01*
X249158Y223829D01*
X249126Y223899D01*
X249096Y223971D01*
X249071Y224044D01*
X249049Y224118D01*
X249032Y224193D01*
X249018Y224269D01*
X249008Y224346D01*
X249002Y224423D01*
X249000Y224500D01*
D11*
X226500Y286100D02*
X226500Y290000D01*
X222600Y290000D01*
X158400Y290000D02*
X154500Y290000D01*
X154500Y286100D01*
X154500Y221900D02*
X154500Y218000D01*
X158400Y218000D01*
D15*
X160200Y185600D02*
X155300Y185600D01*
X160200Y185600D02*
X160200Y180700D01*
X124100Y185600D02*
X119200Y185600D01*
X119200Y180700D01*
X119200Y144600D02*
X124100Y144600D01*
X119200Y144600D02*
X119200Y149500D01*
X155300Y144600D02*
X160200Y144600D01*
X160200Y149500D01*
D16*
X151300Y192100D02*
X151302Y192163D01*
X151308Y192225D01*
X151318Y192287D01*
X151331Y192349D01*
X151349Y192409D01*
X151370Y192468D01*
X151395Y192526D01*
X151424Y192582D01*
X151456Y192636D01*
X151491Y192688D01*
X151529Y192737D01*
X151571Y192785D01*
X151615Y192829D01*
X151663Y192871D01*
X151712Y192909D01*
X151764Y192944D01*
X151818Y192976D01*
X151874Y193005D01*
X151932Y193030D01*
X151991Y193051D01*
X152051Y193069D01*
X152113Y193082D01*
X152175Y193092D01*
X152237Y193098D01*
X152300Y193100D01*
X152363Y193098D01*
X152425Y193092D01*
X152487Y193082D01*
X152549Y193069D01*
X152609Y193051D01*
X152668Y193030D01*
X152726Y193005D01*
X152782Y192976D01*
X152836Y192944D01*
X152888Y192909D01*
X152937Y192871D01*
X152985Y192829D01*
X153029Y192785D01*
X153071Y192737D01*
X153109Y192688D01*
X153144Y192636D01*
X153176Y192582D01*
X153205Y192526D01*
X153230Y192468D01*
X153251Y192409D01*
X153269Y192349D01*
X153282Y192287D01*
X153292Y192225D01*
X153298Y192163D01*
X153300Y192100D01*
X153298Y192037D01*
X153292Y191975D01*
X153282Y191913D01*
X153269Y191851D01*
X153251Y191791D01*
X153230Y191732D01*
X153205Y191674D01*
X153176Y191618D01*
X153144Y191564D01*
X153109Y191512D01*
X153071Y191463D01*
X153029Y191415D01*
X152985Y191371D01*
X152937Y191329D01*
X152888Y191291D01*
X152836Y191256D01*
X152782Y191224D01*
X152726Y191195D01*
X152668Y191170D01*
X152609Y191149D01*
X152549Y191131D01*
X152487Y191118D01*
X152425Y191108D01*
X152363Y191102D01*
X152300Y191100D01*
X152237Y191102D01*
X152175Y191108D01*
X152113Y191118D01*
X152051Y191131D01*
X151991Y191149D01*
X151932Y191170D01*
X151874Y191195D01*
X151818Y191224D01*
X151764Y191256D01*
X151712Y191291D01*
X151663Y191329D01*
X151615Y191371D01*
X151571Y191415D01*
X151529Y191463D01*
X151491Y191512D01*
X151456Y191564D01*
X151424Y191618D01*
X151395Y191674D01*
X151370Y191732D01*
X151349Y191791D01*
X151331Y191851D01*
X151318Y191913D01*
X151308Y191975D01*
X151302Y192037D01*
X151300Y192100D01*
X113640Y430430D02*
X113642Y430493D01*
X113648Y430555D01*
X113658Y430617D01*
X113671Y430679D01*
X113689Y430739D01*
X113710Y430798D01*
X113735Y430856D01*
X113764Y430912D01*
X113796Y430966D01*
X113831Y431018D01*
X113869Y431067D01*
X113911Y431115D01*
X113955Y431159D01*
X114003Y431201D01*
X114052Y431239D01*
X114104Y431274D01*
X114158Y431306D01*
X114214Y431335D01*
X114272Y431360D01*
X114331Y431381D01*
X114391Y431399D01*
X114453Y431412D01*
X114515Y431422D01*
X114577Y431428D01*
X114640Y431430D01*
X114703Y431428D01*
X114765Y431422D01*
X114827Y431412D01*
X114889Y431399D01*
X114949Y431381D01*
X115008Y431360D01*
X115066Y431335D01*
X115122Y431306D01*
X115176Y431274D01*
X115228Y431239D01*
X115277Y431201D01*
X115325Y431159D01*
X115369Y431115D01*
X115411Y431067D01*
X115449Y431018D01*
X115484Y430966D01*
X115516Y430912D01*
X115545Y430856D01*
X115570Y430798D01*
X115591Y430739D01*
X115609Y430679D01*
X115622Y430617D01*
X115632Y430555D01*
X115638Y430493D01*
X115640Y430430D01*
X115638Y430367D01*
X115632Y430305D01*
X115622Y430243D01*
X115609Y430181D01*
X115591Y430121D01*
X115570Y430062D01*
X115545Y430004D01*
X115516Y429948D01*
X115484Y429894D01*
X115449Y429842D01*
X115411Y429793D01*
X115369Y429745D01*
X115325Y429701D01*
X115277Y429659D01*
X115228Y429621D01*
X115176Y429586D01*
X115122Y429554D01*
X115066Y429525D01*
X115008Y429500D01*
X114949Y429479D01*
X114889Y429461D01*
X114827Y429448D01*
X114765Y429438D01*
X114703Y429432D01*
X114640Y429430D01*
X114577Y429432D01*
X114515Y429438D01*
X114453Y429448D01*
X114391Y429461D01*
X114331Y429479D01*
X114272Y429500D01*
X114214Y429525D01*
X114158Y429554D01*
X114104Y429586D01*
X114052Y429621D01*
X114003Y429659D01*
X113955Y429701D01*
X113911Y429745D01*
X113869Y429793D01*
X113831Y429842D01*
X113796Y429894D01*
X113764Y429948D01*
X113735Y430004D01*
X113710Y430062D01*
X113689Y430121D01*
X113671Y430181D01*
X113658Y430243D01*
X113648Y430305D01*
X113642Y430367D01*
X113640Y430430D01*
D11*
X158740Y397830D02*
X162240Y397830D01*
X162240Y437830D02*
X158740Y437830D01*
X125740Y397830D02*
X122240Y397830D01*
X122240Y437830D02*
X125740Y437830D01*
X162240Y401330D02*
X162240Y397830D01*
X162240Y434330D02*
X162240Y437830D01*
X122240Y401330D02*
X122240Y397830D01*
X122240Y434330D02*
X122240Y437830D01*
X192900Y133490D02*
X192900Y131690D01*
X192900Y133490D02*
X196900Y133490D01*
X209500Y133490D02*
X213500Y133490D01*
X213500Y131690D01*
X213500Y114690D02*
X213500Y112890D01*
X209500Y112890D01*
X192900Y112890D02*
X192900Y114690D01*
X192900Y112890D02*
X196900Y112890D01*
D16*
X205200Y138190D02*
X205202Y138253D01*
X205208Y138315D01*
X205218Y138377D01*
X205231Y138439D01*
X205249Y138499D01*
X205270Y138558D01*
X205295Y138616D01*
X205324Y138672D01*
X205356Y138726D01*
X205391Y138778D01*
X205429Y138827D01*
X205471Y138875D01*
X205515Y138919D01*
X205563Y138961D01*
X205612Y138999D01*
X205664Y139034D01*
X205718Y139066D01*
X205774Y139095D01*
X205832Y139120D01*
X205891Y139141D01*
X205951Y139159D01*
X206013Y139172D01*
X206075Y139182D01*
X206137Y139188D01*
X206200Y139190D01*
X206263Y139188D01*
X206325Y139182D01*
X206387Y139172D01*
X206449Y139159D01*
X206509Y139141D01*
X206568Y139120D01*
X206626Y139095D01*
X206682Y139066D01*
X206736Y139034D01*
X206788Y138999D01*
X206837Y138961D01*
X206885Y138919D01*
X206929Y138875D01*
X206971Y138827D01*
X207009Y138778D01*
X207044Y138726D01*
X207076Y138672D01*
X207105Y138616D01*
X207130Y138558D01*
X207151Y138499D01*
X207169Y138439D01*
X207182Y138377D01*
X207192Y138315D01*
X207198Y138253D01*
X207200Y138190D01*
X207198Y138127D01*
X207192Y138065D01*
X207182Y138003D01*
X207169Y137941D01*
X207151Y137881D01*
X207130Y137822D01*
X207105Y137764D01*
X207076Y137708D01*
X207044Y137654D01*
X207009Y137602D01*
X206971Y137553D01*
X206929Y137505D01*
X206885Y137461D01*
X206837Y137419D01*
X206788Y137381D01*
X206736Y137346D01*
X206682Y137314D01*
X206626Y137285D01*
X206568Y137260D01*
X206509Y137239D01*
X206449Y137221D01*
X206387Y137208D01*
X206325Y137198D01*
X206263Y137192D01*
X206200Y137190D01*
X206137Y137192D01*
X206075Y137198D01*
X206013Y137208D01*
X205951Y137221D01*
X205891Y137239D01*
X205832Y137260D01*
X205774Y137285D01*
X205718Y137314D01*
X205664Y137346D01*
X205612Y137381D01*
X205563Y137419D01*
X205515Y137461D01*
X205471Y137505D01*
X205429Y137553D01*
X205391Y137602D01*
X205356Y137654D01*
X205324Y137708D01*
X205295Y137764D01*
X205270Y137822D01*
X205249Y137881D01*
X205231Y137941D01*
X205218Y138003D01*
X205208Y138065D01*
X205202Y138127D01*
X205200Y138190D01*
D14*
X291180Y156700D02*
X303180Y156700D01*
X323180Y142700D02*
X323180Y136700D01*
X303180Y122700D02*
X291180Y122700D01*
X271180Y136700D02*
X271180Y142700D01*
X234600Y425940D02*
X222600Y425940D01*
X254600Y411940D02*
X254600Y405940D01*
X234600Y391940D02*
X222600Y391940D01*
X202600Y405940D02*
X202600Y411940D01*
X227410Y163440D02*
X237410Y163440D01*
X237410Y146440D02*
X227410Y146440D01*
D10*
X202616Y503635D02*
X202614Y503697D01*
X202608Y503759D01*
X202598Y503820D01*
X202585Y503881D01*
X202568Y503940D01*
X202547Y503999D01*
X202522Y504056D01*
X202494Y504111D01*
X202462Y504164D01*
X202427Y504216D01*
X202389Y504265D01*
X202348Y504311D01*
X202304Y504355D01*
X202258Y504396D01*
X202209Y504434D01*
X202157Y504469D01*
X202104Y504501D01*
X202049Y504529D01*
X201992Y504554D01*
X201933Y504575D01*
X201874Y504592D01*
X201813Y504605D01*
X201752Y504615D01*
X201690Y504621D01*
X201628Y504623D01*
X201566Y504621D01*
X201504Y504615D01*
X201443Y504605D01*
X201382Y504592D01*
X201323Y504575D01*
X201264Y504554D01*
X201207Y504529D01*
X201152Y504501D01*
X201099Y504469D01*
X201047Y504434D01*
X200998Y504396D01*
X200952Y504355D01*
X200908Y504311D01*
X200867Y504265D01*
X200829Y504216D01*
X200794Y504164D01*
X200762Y504111D01*
X200734Y504056D01*
X200709Y503999D01*
X200688Y503940D01*
X200671Y503881D01*
X200658Y503820D01*
X200648Y503759D01*
X200642Y503697D01*
X200640Y503635D01*
X200642Y503573D01*
X200648Y503511D01*
X200658Y503450D01*
X200671Y503389D01*
X200688Y503330D01*
X200709Y503271D01*
X200734Y503214D01*
X200762Y503159D01*
X200794Y503106D01*
X200829Y503054D01*
X200867Y503005D01*
X200908Y502959D01*
X200952Y502915D01*
X200998Y502874D01*
X201047Y502836D01*
X201099Y502801D01*
X201152Y502769D01*
X201207Y502741D01*
X201264Y502716D01*
X201323Y502695D01*
X201382Y502678D01*
X201443Y502665D01*
X201504Y502655D01*
X201566Y502649D01*
X201628Y502647D01*
X201690Y502649D01*
X201752Y502655D01*
X201813Y502665D01*
X201874Y502678D01*
X201933Y502695D01*
X201992Y502716D01*
X202049Y502741D01*
X202104Y502769D01*
X202157Y502801D01*
X202209Y502836D01*
X202258Y502874D01*
X202304Y502915D01*
X202348Y502959D01*
X202389Y503005D01*
X202427Y503054D01*
X202462Y503106D01*
X202494Y503159D01*
X202522Y503214D01*
X202547Y503271D01*
X202568Y503330D01*
X202585Y503389D01*
X202598Y503450D01*
X202608Y503511D01*
X202614Y503573D01*
X202616Y503635D01*
X202418Y505413D02*
X202416Y505468D01*
X202410Y505523D01*
X202401Y505577D01*
X202387Y505631D01*
X202370Y505683D01*
X202350Y505734D01*
X202326Y505784D01*
X202298Y505832D01*
X202267Y505877D01*
X202233Y505921D01*
X202196Y505962D01*
X202157Y506000D01*
X202114Y506036D01*
X202070Y506068D01*
X202023Y506097D01*
X201974Y506123D01*
X201924Y506145D01*
X201872Y506164D01*
X201819Y506180D01*
X201765Y506191D01*
X201711Y506199D01*
X201656Y506203D01*
X201600Y506203D01*
X201545Y506199D01*
X201491Y506191D01*
X201437Y506180D01*
X201384Y506164D01*
X201332Y506145D01*
X201282Y506123D01*
X201233Y506097D01*
X201186Y506068D01*
X201142Y506036D01*
X201099Y506000D01*
X201060Y505962D01*
X201023Y505921D01*
X200989Y505877D01*
X200958Y505832D01*
X200930Y505784D01*
X200906Y505734D01*
X200886Y505683D01*
X200869Y505631D01*
X200855Y505577D01*
X200846Y505523D01*
X200840Y505468D01*
X200838Y505413D01*
X200840Y505358D01*
X200846Y505303D01*
X200855Y505249D01*
X200869Y505195D01*
X200886Y505143D01*
X200906Y505092D01*
X200930Y505042D01*
X200958Y504994D01*
X200989Y504949D01*
X201023Y504905D01*
X201060Y504864D01*
X201099Y504826D01*
X201142Y504790D01*
X201186Y504758D01*
X201233Y504729D01*
X201282Y504703D01*
X201332Y504681D01*
X201384Y504662D01*
X201437Y504646D01*
X201491Y504635D01*
X201545Y504627D01*
X201600Y504623D01*
X201656Y504623D01*
X201711Y504627D01*
X201765Y504635D01*
X201819Y504646D01*
X201872Y504662D01*
X201924Y504681D01*
X201974Y504703D01*
X202023Y504729D01*
X202070Y504758D01*
X202114Y504790D01*
X202157Y504826D01*
X202196Y504864D01*
X202233Y504905D01*
X202267Y504949D01*
X202298Y504994D01*
X202326Y505042D01*
X202350Y505092D01*
X202370Y505143D01*
X202387Y505195D01*
X202401Y505249D01*
X202410Y505303D01*
X202416Y505358D01*
X202418Y505413D01*
X203929Y502845D02*
X203929Y502647D01*
X203929Y502845D02*
X204127Y502845D01*
X204127Y502647D01*
X203929Y502647D01*
X207416Y505314D02*
X207414Y505372D01*
X207408Y505430D01*
X207399Y505487D01*
X207386Y505544D01*
X207369Y505600D01*
X207348Y505654D01*
X207324Y505707D01*
X207297Y505759D01*
X207266Y505808D01*
X207232Y505855D01*
X207195Y505900D01*
X207156Y505943D01*
X207113Y505982D01*
X207068Y506019D01*
X207021Y506053D01*
X206972Y506084D01*
X206920Y506111D01*
X206867Y506135D01*
X206813Y506156D01*
X206757Y506173D01*
X206700Y506186D01*
X206643Y506195D01*
X206585Y506201D01*
X206527Y506203D01*
X206462Y506201D01*
X206397Y506196D01*
X206332Y506186D01*
X206268Y506173D01*
X206205Y506157D01*
X206143Y506136D01*
X206082Y506113D01*
X206023Y506086D01*
X205965Y506055D01*
X205909Y506021D01*
X205855Y505985D01*
X205804Y505945D01*
X205754Y505902D01*
X205708Y505856D01*
X205663Y505808D01*
X205622Y505758D01*
X205584Y505705D01*
X205549Y505650D01*
X205517Y505593D01*
X205488Y505534D01*
X205462Y505474D01*
X205441Y505413D01*
X207120Y504623D02*
X207161Y504665D01*
X207201Y504710D01*
X207237Y504757D01*
X207270Y504806D01*
X207300Y504858D01*
X207327Y504911D01*
X207350Y504965D01*
X207370Y505021D01*
X207387Y505079D01*
X207399Y505137D01*
X207409Y505195D01*
X207414Y505255D01*
X207416Y505314D01*
X207120Y504623D02*
X205440Y502647D01*
X207416Y502647D01*
X208953Y502647D02*
X208953Y505018D01*
X209940Y505018D01*
X209987Y505016D01*
X210033Y505011D01*
X210078Y505002D01*
X210123Y504989D01*
X210167Y504973D01*
X210209Y504953D01*
X210250Y504931D01*
X210289Y504905D01*
X210325Y504876D01*
X210359Y504844D01*
X210391Y504810D01*
X210420Y504774D01*
X210446Y504735D01*
X210468Y504694D01*
X210488Y504652D01*
X210504Y504608D01*
X210517Y504563D01*
X210526Y504518D01*
X210531Y504472D01*
X210533Y504425D01*
X210533Y502647D01*
X222046Y506203D02*
X222104Y506201D01*
X222162Y506195D01*
X222219Y506186D01*
X222276Y506173D01*
X222332Y506156D01*
X222386Y506135D01*
X222439Y506111D01*
X222491Y506084D01*
X222540Y506053D01*
X222587Y506019D01*
X222632Y505982D01*
X222675Y505943D01*
X222714Y505900D01*
X222751Y505855D01*
X222785Y505808D01*
X222816Y505759D01*
X222843Y505707D01*
X222867Y505654D01*
X222888Y505600D01*
X222905Y505544D01*
X222918Y505487D01*
X222927Y505430D01*
X222933Y505372D01*
X222935Y505314D01*
X222046Y506203D02*
X221981Y506201D01*
X221916Y506196D01*
X221851Y506186D01*
X221787Y506173D01*
X221724Y506157D01*
X221662Y506136D01*
X221601Y506113D01*
X221542Y506086D01*
X221484Y506055D01*
X221428Y506021D01*
X221374Y505985D01*
X221323Y505945D01*
X221273Y505902D01*
X221227Y505856D01*
X221182Y505808D01*
X221141Y505758D01*
X221103Y505705D01*
X221068Y505650D01*
X221036Y505593D01*
X221007Y505534D01*
X220981Y505474D01*
X220960Y505413D01*
X222639Y504623D02*
X222680Y504665D01*
X222720Y504710D01*
X222756Y504757D01*
X222789Y504806D01*
X222819Y504858D01*
X222846Y504911D01*
X222869Y504965D01*
X222889Y505021D01*
X222906Y505079D01*
X222918Y505137D01*
X222928Y505195D01*
X222933Y505255D01*
X222935Y505314D01*
X222639Y504623D02*
X220960Y502647D01*
X222935Y502647D01*
X224249Y502647D02*
X224249Y502845D01*
X224447Y502845D01*
X224447Y502647D01*
X224249Y502647D01*
X225760Y505808D02*
X225760Y506203D01*
X227736Y506203D01*
X226748Y502647D01*
X229273Y502647D02*
X229273Y505018D01*
X230260Y505018D01*
X230307Y505016D01*
X230353Y505011D01*
X230398Y505002D01*
X230443Y504989D01*
X230487Y504973D01*
X230529Y504953D01*
X230570Y504931D01*
X230609Y504905D01*
X230645Y504876D01*
X230679Y504844D01*
X230711Y504810D01*
X230740Y504774D01*
X230766Y504735D01*
X230788Y504694D01*
X230808Y504652D01*
X230824Y504608D01*
X230837Y504563D01*
X230846Y504518D01*
X230851Y504472D01*
X230853Y504425D01*
X230853Y502647D01*
X181308Y502647D02*
X180320Y502647D01*
X181308Y502647D02*
X181370Y502649D01*
X181432Y502655D01*
X181493Y502665D01*
X181554Y502678D01*
X181613Y502695D01*
X181672Y502716D01*
X181729Y502741D01*
X181784Y502769D01*
X181837Y502801D01*
X181889Y502836D01*
X181938Y502874D01*
X181984Y502915D01*
X182028Y502959D01*
X182069Y503005D01*
X182107Y503054D01*
X182142Y503106D01*
X182174Y503159D01*
X182202Y503214D01*
X182227Y503271D01*
X182248Y503330D01*
X182265Y503389D01*
X182278Y503450D01*
X182288Y503511D01*
X182294Y503573D01*
X182296Y503635D01*
X182294Y503697D01*
X182288Y503759D01*
X182278Y503820D01*
X182265Y503881D01*
X182248Y503940D01*
X182227Y503999D01*
X182202Y504056D01*
X182174Y504111D01*
X182142Y504164D01*
X182107Y504216D01*
X182069Y504265D01*
X182028Y504311D01*
X181984Y504355D01*
X181938Y504396D01*
X181889Y504434D01*
X181837Y504469D01*
X181784Y504501D01*
X181729Y504529D01*
X181672Y504554D01*
X181613Y504575D01*
X181554Y504592D01*
X181493Y504605D01*
X181432Y504615D01*
X181370Y504621D01*
X181308Y504623D01*
X181505Y506203D02*
X180320Y506203D01*
X181505Y506203D02*
X181560Y506201D01*
X181615Y506195D01*
X181669Y506186D01*
X181723Y506172D01*
X181775Y506155D01*
X181826Y506135D01*
X181876Y506111D01*
X181924Y506083D01*
X181969Y506052D01*
X182013Y506018D01*
X182054Y505981D01*
X182092Y505942D01*
X182128Y505899D01*
X182160Y505855D01*
X182189Y505808D01*
X182215Y505759D01*
X182237Y505709D01*
X182256Y505657D01*
X182272Y505604D01*
X182283Y505550D01*
X182291Y505496D01*
X182295Y505441D01*
X182295Y505385D01*
X182291Y505330D01*
X182283Y505276D01*
X182272Y505222D01*
X182256Y505169D01*
X182237Y505117D01*
X182215Y505067D01*
X182189Y505018D01*
X182160Y504971D01*
X182128Y504927D01*
X182092Y504884D01*
X182054Y504845D01*
X182013Y504808D01*
X181969Y504774D01*
X181924Y504743D01*
X181876Y504715D01*
X181826Y504691D01*
X181775Y504671D01*
X181723Y504654D01*
X181669Y504640D01*
X181615Y504631D01*
X181560Y504625D01*
X181505Y504623D01*
X180715Y504623D01*
X183609Y502845D02*
X183609Y502647D01*
X183609Y502845D02*
X183807Y502845D01*
X183807Y502647D01*
X183609Y502647D01*
X185911Y504227D02*
X187096Y504227D01*
X185911Y504228D02*
X185857Y504230D01*
X185803Y504235D01*
X185750Y504245D01*
X185698Y504257D01*
X185646Y504274D01*
X185596Y504293D01*
X185548Y504317D01*
X185501Y504343D01*
X185455Y504373D01*
X185412Y504405D01*
X185372Y504441D01*
X185334Y504479D01*
X185298Y504519D01*
X185266Y504562D01*
X185236Y504608D01*
X185210Y504655D01*
X185186Y504703D01*
X185167Y504753D01*
X185150Y504805D01*
X185138Y504857D01*
X185128Y504910D01*
X185123Y504964D01*
X185121Y505018D01*
X185120Y505018D02*
X185120Y505215D01*
X185122Y505277D01*
X185128Y505339D01*
X185138Y505400D01*
X185151Y505461D01*
X185168Y505520D01*
X185189Y505579D01*
X185214Y505636D01*
X185242Y505691D01*
X185274Y505744D01*
X185309Y505796D01*
X185347Y505845D01*
X185388Y505891D01*
X185432Y505935D01*
X185478Y505976D01*
X185527Y506014D01*
X185579Y506049D01*
X185632Y506081D01*
X185687Y506109D01*
X185744Y506134D01*
X185803Y506155D01*
X185862Y506172D01*
X185923Y506185D01*
X185984Y506195D01*
X186046Y506201D01*
X186108Y506203D01*
X186170Y506201D01*
X186232Y506195D01*
X186293Y506185D01*
X186354Y506172D01*
X186413Y506155D01*
X186472Y506134D01*
X186529Y506109D01*
X186584Y506081D01*
X186637Y506049D01*
X186689Y506014D01*
X186738Y505976D01*
X186784Y505935D01*
X186828Y505891D01*
X186869Y505845D01*
X186907Y505796D01*
X186942Y505744D01*
X186974Y505691D01*
X187002Y505636D01*
X187027Y505579D01*
X187048Y505520D01*
X187065Y505461D01*
X187078Y505400D01*
X187088Y505339D01*
X187094Y505277D01*
X187096Y505215D01*
X187096Y504227D01*
X187095Y504227D02*
X187093Y504149D01*
X187087Y504072D01*
X187078Y503995D01*
X187065Y503919D01*
X187048Y503843D01*
X187027Y503768D01*
X187003Y503695D01*
X186975Y503622D01*
X186943Y503551D01*
X186908Y503482D01*
X186870Y503415D01*
X186829Y503349D01*
X186784Y503286D01*
X186736Y503225D01*
X186686Y503166D01*
X186632Y503110D01*
X186576Y503056D01*
X186517Y503006D01*
X186456Y502958D01*
X186393Y502913D01*
X186327Y502872D01*
X186260Y502834D01*
X186191Y502799D01*
X186120Y502767D01*
X186047Y502739D01*
X185974Y502715D01*
X185899Y502694D01*
X185823Y502677D01*
X185747Y502664D01*
X185670Y502655D01*
X185593Y502649D01*
X185515Y502647D01*
X188633Y502647D02*
X188633Y505018D01*
X189620Y505018D01*
X189667Y505016D01*
X189713Y505011D01*
X189758Y505002D01*
X189803Y504989D01*
X189847Y504973D01*
X189889Y504953D01*
X189930Y504931D01*
X189969Y504905D01*
X190005Y504876D01*
X190039Y504844D01*
X190071Y504810D01*
X190100Y504774D01*
X190126Y504735D01*
X190148Y504694D01*
X190168Y504652D01*
X190184Y504608D01*
X190197Y504563D01*
X190206Y504518D01*
X190211Y504472D01*
X190213Y504425D01*
X190213Y502647D01*
M02*
