G04 EAGLE Gerber RS-274X export*
G75*
%MOMM*%
%FSLAX34Y34*%
%LPD*%
%INTop Copper*%
%IPPOS*%
%AMOC8*
5,1,8,0,0,1.08239X$1,22.5*%
G01*
%ADD10C,0.460000*%
%ADD11C,0.300000*%
%ADD12C,1.879600*%
%ADD13R,0.400000X1.450000*%
%ADD14R,1.800000X1.500000*%
%ADD15R,2.500000X1.500000*%
%ADD16R,1.250000X1.000000*%
%ADD17C,0.377400*%
%ADD18R,2.540000X1.016000*%
%ADD19C,0.140000*%
%ADD20C,0.140400*%
%ADD21R,2.700000X2.600000*%
%ADD22C,0.065000*%
%ADD23R,2.600000X2.600000*%
%ADD24R,0.550000X1.200000*%
%ADD25R,1.900000X1.100000*%
%ADD26R,1.000000X1.800000*%
%ADD27C,0.031500*%
%ADD28C,0.152400*%
%ADD29C,0.756400*%
%ADD30C,0.508000*%

G36*
X14528Y180084D02*
X14528Y180084D01*
X14529Y180084D01*
X16145Y183984D01*
X19216Y187055D01*
X23228Y188717D01*
X27572Y188717D01*
X31584Y187055D01*
X34655Y183984D01*
X35809Y181198D01*
X35812Y181197D01*
X35813Y181195D01*
X35814Y181196D01*
X35815Y181195D01*
X35816Y181198D01*
X35819Y181200D01*
X35819Y199800D01*
X35817Y199802D01*
X35816Y199805D01*
X35815Y199804D01*
X35814Y199805D01*
X35812Y199803D01*
X35809Y199802D01*
X34655Y197016D01*
X31584Y193945D01*
X27572Y192283D01*
X23228Y192283D01*
X19216Y193945D01*
X16145Y197016D01*
X14483Y201028D01*
X14483Y205372D01*
X16145Y209384D01*
X19216Y212455D01*
X23228Y214117D01*
X27572Y214117D01*
X31584Y212455D01*
X34655Y209384D01*
X35809Y206598D01*
X35812Y206597D01*
X35813Y206595D01*
X35814Y206596D01*
X35815Y206595D01*
X35816Y206598D01*
X35819Y206600D01*
X35819Y225200D01*
X35817Y225202D01*
X35816Y225205D01*
X35815Y225204D01*
X35814Y225205D01*
X35812Y225203D01*
X35809Y225202D01*
X34655Y222416D01*
X31584Y219345D01*
X27572Y217683D01*
X23228Y217683D01*
X19216Y219345D01*
X16145Y222416D01*
X14483Y226428D01*
X14483Y230772D01*
X16145Y234784D01*
X19216Y237855D01*
X23228Y239517D01*
X27572Y239517D01*
X31584Y237855D01*
X34655Y234784D01*
X36271Y230884D01*
X36274Y230883D01*
X36275Y230881D01*
X38354Y230881D01*
X38359Y230886D01*
X38359Y251714D01*
X38354Y251719D01*
X38354Y251718D01*
X38354Y251719D01*
X36275Y251719D01*
X36272Y251716D01*
X36271Y251716D01*
X34655Y247816D01*
X31584Y244745D01*
X27572Y243083D01*
X23228Y243083D01*
X19216Y244745D01*
X16145Y247816D01*
X14483Y251828D01*
X14483Y256172D01*
X16145Y260184D01*
X19216Y263255D01*
X23228Y264917D01*
X27572Y264917D01*
X31584Y263255D01*
X34655Y260184D01*
X35809Y257398D01*
X35812Y257397D01*
X35813Y257395D01*
X35814Y257396D01*
X35815Y257395D01*
X35816Y257398D01*
X35819Y257400D01*
X35819Y276000D01*
X35817Y276002D01*
X35816Y276005D01*
X35815Y276004D01*
X35814Y276005D01*
X35812Y276003D01*
X35809Y276002D01*
X34655Y273216D01*
X31584Y270145D01*
X27572Y268483D01*
X23228Y268483D01*
X19216Y270145D01*
X16145Y273216D01*
X14483Y277228D01*
X14483Y281572D01*
X16145Y285584D01*
X19216Y288655D01*
X23228Y290317D01*
X27572Y290317D01*
X31584Y288655D01*
X34655Y285584D01*
X35809Y282798D01*
X35812Y282797D01*
X35813Y282795D01*
X35814Y282795D01*
X35815Y282795D01*
X35816Y282797D01*
X35819Y282799D01*
X35819Y282800D01*
X35819Y301400D01*
X35817Y301402D01*
X35816Y301405D01*
X35815Y301404D01*
X35814Y301405D01*
X35812Y301403D01*
X35809Y301402D01*
X34655Y298616D01*
X31584Y295545D01*
X27572Y293883D01*
X23228Y293883D01*
X19216Y295545D01*
X16145Y298616D01*
X14483Y302628D01*
X14483Y306972D01*
X16145Y310984D01*
X19216Y314055D01*
X23228Y315717D01*
X27572Y315717D01*
X31584Y314055D01*
X34655Y310984D01*
X35809Y308198D01*
X35812Y308197D01*
X35813Y308195D01*
X35814Y308195D01*
X35815Y308195D01*
X35816Y308198D01*
X35819Y308200D01*
X35819Y326800D01*
X35817Y326802D01*
X35816Y326805D01*
X35815Y326804D01*
X35814Y326805D01*
X35812Y326803D01*
X35809Y326802D01*
X34655Y324016D01*
X31584Y320945D01*
X27572Y319283D01*
X23228Y319283D01*
X19216Y320945D01*
X16145Y324016D01*
X14483Y328028D01*
X14483Y332372D01*
X16145Y336384D01*
X19216Y339455D01*
X23228Y341117D01*
X27572Y341117D01*
X31584Y339455D01*
X34655Y336384D01*
X35809Y333598D01*
X35812Y333597D01*
X35813Y333595D01*
X35814Y333595D01*
X35815Y333595D01*
X35816Y333598D01*
X35819Y333600D01*
X35819Y346385D01*
X36394Y346960D01*
X36395Y346967D01*
X36394Y346967D01*
X36394Y346968D01*
X35819Y347543D01*
X35819Y352200D01*
X35817Y352202D01*
X35816Y352205D01*
X35815Y352204D01*
X35814Y352205D01*
X35812Y352203D01*
X35809Y352202D01*
X34655Y349416D01*
X31584Y346345D01*
X27572Y344683D01*
X23228Y344683D01*
X19216Y346345D01*
X16145Y349416D01*
X14483Y353428D01*
X14483Y357772D01*
X16145Y361784D01*
X19216Y364855D01*
X23228Y366517D01*
X27572Y366517D01*
X31584Y364855D01*
X34655Y361784D01*
X36271Y357884D01*
X36274Y357883D01*
X36275Y357881D01*
X38862Y357881D01*
X38867Y357886D01*
X38866Y357886D01*
X38867Y357886D01*
X38867Y378714D01*
X38862Y378719D01*
X38862Y378718D01*
X38862Y378719D01*
X36275Y378719D01*
X36272Y378716D01*
X36271Y378716D01*
X34655Y374816D01*
X31584Y371745D01*
X27572Y370083D01*
X23228Y370083D01*
X19216Y371745D01*
X16145Y374816D01*
X14483Y378828D01*
X14483Y383172D01*
X16145Y387184D01*
X19216Y390255D01*
X23228Y391917D01*
X27572Y391917D01*
X31584Y390255D01*
X34655Y387184D01*
X35809Y384398D01*
X35812Y384397D01*
X35813Y384395D01*
X35814Y384396D01*
X35815Y384395D01*
X35816Y384398D01*
X35819Y384400D01*
X35819Y403000D01*
X35817Y403002D01*
X35816Y403005D01*
X35815Y403004D01*
X35814Y403005D01*
X35812Y403003D01*
X35809Y403002D01*
X34655Y400216D01*
X31584Y397145D01*
X27572Y395483D01*
X23228Y395483D01*
X19216Y397145D01*
X16145Y400216D01*
X14483Y404228D01*
X14483Y408572D01*
X16145Y412584D01*
X19216Y415655D01*
X23228Y417317D01*
X27572Y417317D01*
X31584Y415655D01*
X34655Y412584D01*
X35809Y409798D01*
X35812Y409797D01*
X35813Y409795D01*
X35814Y409795D01*
X35815Y409795D01*
X35816Y409798D01*
X35819Y409800D01*
X35819Y428400D01*
X35817Y428402D01*
X35816Y428405D01*
X35815Y428404D01*
X35814Y428405D01*
X35812Y428403D01*
X35809Y428402D01*
X34655Y425616D01*
X31584Y422545D01*
X27572Y420883D01*
X23228Y420883D01*
X19216Y422545D01*
X16145Y425616D01*
X14483Y429628D01*
X14483Y433972D01*
X16145Y437984D01*
X19216Y441055D01*
X23228Y442717D01*
X27572Y442717D01*
X31584Y441055D01*
X34655Y437984D01*
X35809Y435198D01*
X35812Y435197D01*
X35813Y435195D01*
X35814Y435196D01*
X35815Y435195D01*
X35816Y435198D01*
X35819Y435200D01*
X35819Y453800D01*
X35817Y453802D01*
X35816Y453805D01*
X35815Y453804D01*
X35814Y453805D01*
X35812Y453803D01*
X35809Y453802D01*
X34655Y451016D01*
X31584Y447945D01*
X27572Y446283D01*
X23228Y446283D01*
X19216Y447945D01*
X16145Y451016D01*
X14483Y455028D01*
X14483Y459372D01*
X16145Y463384D01*
X19216Y466455D01*
X23228Y468117D01*
X27572Y468117D01*
X31584Y466455D01*
X34655Y463384D01*
X35809Y460598D01*
X35812Y460597D01*
X35813Y460595D01*
X35814Y460595D01*
X35815Y460595D01*
X35816Y460598D01*
X35819Y460600D01*
X35819Y479200D01*
X35817Y479202D01*
X35816Y479205D01*
X35815Y479204D01*
X35814Y479205D01*
X35812Y479203D01*
X35809Y479202D01*
X34655Y476416D01*
X31584Y473345D01*
X27572Y471683D01*
X23228Y471683D01*
X19216Y473345D01*
X16145Y476416D01*
X14483Y480428D01*
X14483Y484772D01*
X16145Y488784D01*
X19216Y491855D01*
X23228Y493517D01*
X27572Y493517D01*
X31584Y491855D01*
X34655Y488784D01*
X35809Y485998D01*
X35812Y485997D01*
X35813Y485995D01*
X35814Y485995D01*
X35815Y485995D01*
X35816Y485998D01*
X35819Y486000D01*
X35819Y504600D01*
X35817Y504602D01*
X35816Y504605D01*
X35815Y504604D01*
X35814Y504605D01*
X35811Y504603D01*
X35809Y504602D01*
X34655Y501816D01*
X31584Y498745D01*
X27572Y497083D01*
X23228Y497083D01*
X19216Y498745D01*
X16145Y501816D01*
X14483Y505828D01*
X14483Y510172D01*
X16145Y514184D01*
X19216Y517255D01*
X23228Y518917D01*
X27572Y518917D01*
X31584Y517255D01*
X34655Y514184D01*
X36271Y510284D01*
X36274Y510283D01*
X36275Y510281D01*
X39045Y510281D01*
X40381Y508945D01*
X40381Y487934D01*
X40386Y487929D01*
X40386Y487930D01*
X40386Y487929D01*
X42093Y487929D01*
X43429Y486593D01*
X43429Y465582D01*
X43434Y465577D01*
X43434Y465578D01*
X43434Y465577D01*
X45141Y465577D01*
X46477Y464241D01*
X46477Y443230D01*
X46482Y443225D01*
X46482Y443226D01*
X46482Y443225D01*
X48189Y443225D01*
X49525Y441889D01*
X49525Y420878D01*
X49530Y420873D01*
X49530Y420874D01*
X49530Y420873D01*
X51237Y420873D01*
X52573Y419537D01*
X52573Y398526D01*
X52578Y398521D01*
X52578Y398522D01*
X52578Y398521D01*
X57333Y398521D01*
X58669Y397185D01*
X58669Y396494D01*
X58674Y396489D01*
X58674Y396490D01*
X58674Y396489D01*
X142745Y396489D01*
X144081Y395153D01*
X144081Y355259D01*
X144083Y355258D01*
X144083Y355256D01*
X144719Y354619D01*
X144719Y338581D01*
X144188Y338050D01*
X144188Y338048D01*
X144187Y338047D01*
X144188Y338045D01*
X144188Y338043D01*
X144190Y338043D01*
X144192Y338041D01*
X144436Y338041D01*
X147541Y334936D01*
X147541Y334692D01*
X147542Y334690D01*
X147542Y334689D01*
X147544Y334688D01*
X147546Y334687D01*
X147547Y334688D01*
X147550Y334688D01*
X148081Y335219D01*
X160192Y335219D01*
X160193Y335220D01*
X160195Y335220D01*
X160195Y335222D01*
X160197Y335224D01*
X160195Y335225D01*
X160195Y335228D01*
X157259Y338164D01*
X157259Y342556D01*
X160364Y345661D01*
X160782Y345661D01*
X160787Y345666D01*
X160786Y345666D01*
X160787Y345666D01*
X160787Y345694D01*
X160782Y345699D01*
X160782Y345698D01*
X160782Y345699D01*
X160158Y345699D01*
X160156Y345697D01*
X160154Y345697D01*
X157136Y342679D01*
X152744Y342679D01*
X149639Y345784D01*
X149639Y350176D01*
X152744Y353281D01*
X157136Y353281D01*
X157730Y352687D01*
X157732Y352687D01*
X157733Y352685D01*
X157734Y352686D01*
X157734Y352685D01*
X157735Y352686D01*
X157737Y352686D01*
X157737Y352688D01*
X157739Y352690D01*
X157739Y412101D01*
X157737Y412103D01*
X157736Y412105D01*
X157735Y412105D01*
X157734Y412106D01*
X157732Y412104D01*
X157729Y412103D01*
X156067Y408090D01*
X152996Y405019D01*
X148984Y403357D01*
X144640Y403357D01*
X140628Y405019D01*
X137557Y408090D01*
X135895Y412102D01*
X135895Y416446D01*
X137557Y420458D01*
X140628Y423529D01*
X144640Y425191D01*
X148984Y425191D01*
X152996Y423529D01*
X156067Y420458D01*
X157729Y416445D01*
X157732Y416444D01*
X157733Y416442D01*
X157734Y416443D01*
X157735Y416443D01*
X157736Y416445D01*
X157739Y416447D01*
X157739Y457313D01*
X157737Y457315D01*
X157736Y457317D01*
X157735Y457317D01*
X157734Y457318D01*
X157734Y457317D01*
X157731Y457315D01*
X157729Y457315D01*
X156067Y453302D01*
X152996Y450231D01*
X148984Y448569D01*
X144640Y448569D01*
X140628Y450231D01*
X137557Y453302D01*
X135895Y457314D01*
X135895Y461658D01*
X137557Y465670D01*
X140628Y468741D01*
X144027Y470149D01*
X144028Y470152D01*
X144030Y470153D01*
X144030Y470154D01*
X144030Y470155D01*
X144028Y470156D01*
X144025Y470159D01*
X124206Y470159D01*
X124201Y470154D01*
X124202Y470154D01*
X124201Y470154D01*
X124201Y437018D01*
X124203Y437016D01*
X124203Y437014D01*
X127221Y433996D01*
X127221Y429604D01*
X124116Y426499D01*
X119724Y426499D01*
X116619Y429604D01*
X116619Y433996D01*
X119637Y437014D01*
X119638Y437017D01*
X119639Y437018D01*
X119639Y470154D01*
X119634Y470159D01*
X119634Y470158D01*
X119634Y470159D01*
X96266Y470159D01*
X96261Y470154D01*
X96262Y470154D01*
X96261Y470154D01*
X96261Y458541D01*
X94925Y457205D01*
X92663Y457205D01*
X92660Y457202D01*
X92659Y457202D01*
X91043Y453302D01*
X87972Y450231D01*
X84072Y448615D01*
X84071Y448612D01*
X84069Y448611D01*
X84069Y438475D01*
X82733Y437139D01*
X63246Y437139D01*
X63241Y437134D01*
X63242Y437134D01*
X63241Y437134D01*
X63241Y429734D01*
X63246Y429729D01*
X63246Y429730D01*
X63246Y429729D01*
X64892Y429729D01*
X67129Y427492D01*
X67129Y419728D01*
X64892Y417491D01*
X57028Y417491D01*
X54791Y419728D01*
X54791Y427492D01*
X57028Y429729D01*
X58674Y429729D01*
X58679Y429734D01*
X58678Y429734D01*
X58679Y429734D01*
X58679Y446566D01*
X58674Y446571D01*
X58674Y446570D01*
X58674Y446571D01*
X56786Y446571D01*
X54791Y448566D01*
X54791Y455014D01*
X56786Y457009D01*
X65134Y457009D01*
X67129Y455014D01*
X67129Y448566D01*
X65134Y446571D01*
X63246Y446571D01*
X63241Y446566D01*
X63242Y446566D01*
X63241Y446566D01*
X63241Y441706D01*
X63246Y441701D01*
X63246Y441702D01*
X63246Y441701D01*
X79502Y441701D01*
X79507Y441706D01*
X79506Y441706D01*
X79507Y441706D01*
X79507Y448611D01*
X79504Y448614D01*
X79504Y448615D01*
X75604Y450231D01*
X72533Y453302D01*
X70871Y457314D01*
X70871Y461658D01*
X72533Y465670D01*
X75604Y468741D01*
X79616Y470403D01*
X83960Y470403D01*
X87972Y468741D01*
X91043Y465670D01*
X91689Y464110D01*
X91692Y464109D01*
X91693Y464107D01*
X91694Y464108D01*
X91695Y464107D01*
X91696Y464110D01*
X91699Y464112D01*
X91699Y473385D01*
X93035Y474721D01*
X160604Y474721D01*
X160609Y474726D01*
X160608Y474726D01*
X160609Y474726D01*
X160609Y484046D01*
X160604Y484051D01*
X160604Y484050D01*
X160604Y484051D01*
X159666Y484051D01*
X157671Y486046D01*
X157671Y494394D01*
X159666Y496389D01*
X166114Y496389D01*
X168109Y494394D01*
X168109Y486046D01*
X166114Y484051D01*
X165176Y484051D01*
X165171Y484046D01*
X165172Y484046D01*
X165171Y484046D01*
X165171Y476613D01*
X165173Y476611D01*
X165173Y476609D01*
X165349Y476433D01*
X165349Y434478D01*
X165350Y434477D01*
X165350Y434475D01*
X165352Y434475D01*
X165354Y434473D01*
X165355Y434475D01*
X165358Y434475D01*
X167984Y437101D01*
X172376Y437101D01*
X175394Y434083D01*
X175397Y434082D01*
X175398Y434081D01*
X188725Y434081D01*
X188728Y434084D01*
X188729Y434084D01*
X190345Y437984D01*
X193416Y441055D01*
X197428Y442717D01*
X201772Y442717D01*
X205784Y441055D01*
X208855Y437984D01*
X210517Y433972D01*
X210517Y429628D01*
X208855Y425616D01*
X205784Y422545D01*
X201772Y420883D01*
X197428Y420883D01*
X193416Y422545D01*
X190345Y425616D01*
X188729Y429516D01*
X188726Y429517D01*
X188725Y429519D01*
X175398Y429519D01*
X175396Y429517D01*
X175394Y429517D01*
X172376Y426499D01*
X167984Y426499D01*
X165358Y429125D01*
X165356Y429125D01*
X165355Y429127D01*
X165353Y429126D01*
X165351Y429126D01*
X165351Y429123D01*
X165349Y429122D01*
X165349Y408686D01*
X165354Y408681D01*
X165354Y408682D01*
X165354Y408681D01*
X175514Y408681D01*
X175519Y408686D01*
X175518Y408686D01*
X175519Y408686D01*
X175519Y414390D01*
X175518Y414391D01*
X175518Y414393D01*
X175516Y414393D01*
X175514Y414395D01*
X175513Y414393D01*
X175510Y414393D01*
X174916Y413799D01*
X170524Y413799D01*
X167419Y416904D01*
X167419Y421296D01*
X170524Y424401D01*
X174916Y424401D01*
X177934Y421383D01*
X177937Y421382D01*
X177938Y421381D01*
X178745Y421381D01*
X180081Y420045D01*
X180081Y408686D01*
X180086Y408681D01*
X180086Y408682D01*
X180086Y408681D01*
X188725Y408681D01*
X188728Y408684D01*
X188729Y408684D01*
X190345Y412584D01*
X193416Y415655D01*
X197428Y417317D01*
X201772Y417317D01*
X205784Y415655D01*
X208855Y412584D01*
X210517Y408572D01*
X210517Y404228D01*
X208855Y400216D01*
X205784Y397145D01*
X201772Y395483D01*
X197428Y395483D01*
X193416Y397145D01*
X190345Y400216D01*
X188729Y404116D01*
X188726Y404117D01*
X188725Y404119D01*
X168402Y404119D01*
X168397Y404114D01*
X168398Y404114D01*
X168397Y404114D01*
X168397Y386726D01*
X168398Y386725D01*
X168398Y386723D01*
X168400Y386723D01*
X168402Y386721D01*
X168402Y386722D01*
X168402Y386721D01*
X168404Y386723D01*
X168406Y386723D01*
X170524Y388841D01*
X174916Y388841D01*
X178021Y385736D01*
X178021Y383286D01*
X178026Y383281D01*
X178026Y383282D01*
X178026Y383281D01*
X188725Y383281D01*
X188728Y383284D01*
X188729Y383284D01*
X190345Y387184D01*
X193416Y390255D01*
X197428Y391917D01*
X201772Y391917D01*
X205784Y390255D01*
X208855Y387184D01*
X210517Y383172D01*
X210517Y378828D01*
X208855Y374816D01*
X205784Y371745D01*
X201772Y370083D01*
X197428Y370083D01*
X193416Y371745D01*
X190345Y374816D01*
X188729Y378716D01*
X188726Y378717D01*
X188725Y378719D01*
X181610Y378719D01*
X181605Y378714D01*
X181606Y378714D01*
X181605Y378714D01*
X181605Y357886D01*
X181610Y357881D01*
X181610Y357882D01*
X181610Y357881D01*
X188725Y357881D01*
X188728Y357884D01*
X188729Y357884D01*
X190345Y361784D01*
X193416Y364855D01*
X197428Y366517D01*
X201772Y366517D01*
X205784Y364855D01*
X208855Y361784D01*
X210517Y357772D01*
X210517Y353428D01*
X208855Y349416D01*
X205784Y346345D01*
X201772Y344683D01*
X197428Y344683D01*
X193416Y346345D01*
X190345Y349416D01*
X188729Y353316D01*
X188726Y353317D01*
X188725Y353319D01*
X184658Y353319D01*
X184653Y353314D01*
X184654Y353314D01*
X184653Y353314D01*
X184653Y332486D01*
X184658Y332481D01*
X184658Y332482D01*
X184658Y332481D01*
X188725Y332481D01*
X188728Y332484D01*
X188729Y332484D01*
X190345Y336384D01*
X193416Y339455D01*
X197428Y341117D01*
X201772Y341117D01*
X205784Y339455D01*
X208855Y336384D01*
X210471Y332484D01*
X210474Y332483D01*
X210475Y332481D01*
X211074Y332481D01*
X211079Y332486D01*
X211078Y332486D01*
X211079Y332486D01*
X211079Y479280D01*
X211077Y479282D01*
X211076Y479285D01*
X211075Y479284D01*
X211074Y479285D01*
X211072Y479283D01*
X211069Y479282D01*
X210659Y478019D01*
X209806Y476346D01*
X208702Y474826D01*
X207374Y473498D01*
X205854Y472394D01*
X204181Y471541D01*
X202394Y470961D01*
X200539Y470667D01*
X199605Y470667D01*
X199605Y482600D01*
X199605Y494533D01*
X200539Y494533D01*
X202394Y494239D01*
X204181Y493659D01*
X205854Y492806D01*
X207374Y491702D01*
X208702Y490374D01*
X209806Y488854D01*
X210659Y487181D01*
X211069Y485918D01*
X211071Y485917D01*
X211073Y485915D01*
X211074Y485915D01*
X211075Y485915D01*
X211076Y485918D01*
X211079Y485920D01*
X211079Y504680D01*
X211077Y504682D01*
X211076Y504685D01*
X211075Y504684D01*
X211074Y504685D01*
X211072Y504683D01*
X211069Y504682D01*
X210659Y503419D01*
X209806Y501746D01*
X208702Y500226D01*
X207374Y498898D01*
X205854Y497794D01*
X204181Y496941D01*
X202394Y496361D01*
X200539Y496067D01*
X199605Y496067D01*
X199605Y508000D01*
X199605Y519933D01*
X200539Y519933D01*
X202394Y519639D01*
X204181Y519059D01*
X205854Y518206D01*
X207374Y517102D01*
X208702Y515774D01*
X209806Y514254D01*
X210659Y512581D01*
X211069Y511318D01*
X211071Y511317D01*
X211073Y511315D01*
X211074Y511315D01*
X211075Y511315D01*
X211076Y511318D01*
X211079Y511320D01*
X211079Y606280D01*
X211077Y606282D01*
X211076Y606285D01*
X211075Y606284D01*
X211074Y606285D01*
X211072Y606283D01*
X211069Y606282D01*
X210659Y605019D01*
X209806Y603346D01*
X208702Y601826D01*
X207374Y600498D01*
X205854Y599394D01*
X204181Y598541D01*
X202394Y597961D01*
X200539Y597667D01*
X199605Y597667D01*
X199605Y609600D01*
X199605Y621533D01*
X200539Y621533D01*
X202394Y621239D01*
X204181Y620659D01*
X205854Y619806D01*
X207374Y618702D01*
X208702Y617374D01*
X209806Y615854D01*
X210659Y614181D01*
X211069Y612918D01*
X211071Y612917D01*
X211073Y612915D01*
X211074Y612915D01*
X211075Y612915D01*
X211076Y612918D01*
X211079Y612920D01*
X211079Y633818D01*
X211078Y633819D01*
X211078Y633821D01*
X211076Y633821D01*
X211074Y633823D01*
X211074Y633822D01*
X211073Y633822D01*
X211072Y633821D01*
X211070Y633821D01*
X209488Y632239D01*
X205850Y632239D01*
X205849Y632238D01*
X205847Y632238D01*
X205847Y632236D01*
X205845Y632234D01*
X205847Y632233D01*
X205847Y632230D01*
X205961Y632116D01*
X205961Y627724D01*
X202856Y624619D01*
X198464Y624619D01*
X195359Y627724D01*
X195359Y632116D01*
X197925Y634682D01*
X197926Y634685D01*
X197927Y634686D01*
X197927Y637794D01*
X197922Y637799D01*
X197922Y637798D01*
X197922Y637799D01*
X195718Y637799D01*
X195716Y637797D01*
X195714Y637797D01*
X192696Y634779D01*
X188304Y634779D01*
X185199Y637884D01*
X185199Y642276D01*
X188304Y645381D01*
X192696Y645381D01*
X194870Y643207D01*
X194872Y643207D01*
X194873Y643205D01*
X194875Y643206D01*
X194877Y643206D01*
X194877Y643209D01*
X194879Y643210D01*
X194879Y649661D01*
X196215Y650997D01*
X201930Y650997D01*
X201935Y651002D01*
X201934Y651002D01*
X201935Y651002D01*
X201935Y752602D01*
X201930Y752607D01*
X201930Y752606D01*
X201930Y752607D01*
X189895Y752607D01*
X189894Y752606D01*
X189892Y752606D01*
X189892Y752604D01*
X189890Y752602D01*
X189892Y752601D01*
X189892Y752598D01*
X190241Y752249D01*
X190241Y741818D01*
X190243Y741816D01*
X190243Y741814D01*
X193261Y738796D01*
X193261Y734404D01*
X190243Y731386D01*
X190242Y731383D01*
X190241Y731382D01*
X190241Y726186D01*
X190246Y726181D01*
X190246Y726182D01*
X190246Y726181D01*
X193985Y726181D01*
X195321Y724845D01*
X195321Y709134D01*
X195326Y709129D01*
X195326Y709130D01*
X195326Y709129D01*
X197214Y709129D01*
X199209Y707134D01*
X199209Y700686D01*
X197214Y698691D01*
X188866Y698691D01*
X186871Y700686D01*
X186871Y707134D01*
X188866Y709129D01*
X190754Y709129D01*
X190759Y709134D01*
X190758Y709134D01*
X190759Y709134D01*
X190759Y721614D01*
X190754Y721619D01*
X190754Y721618D01*
X190754Y721619D01*
X187015Y721619D01*
X185679Y722955D01*
X185679Y731382D01*
X185677Y731384D01*
X185677Y731386D01*
X182659Y734404D01*
X182659Y738796D01*
X185677Y741814D01*
X185677Y741816D01*
X185679Y741817D01*
X185679Y741818D01*
X185679Y749018D01*
X185674Y749023D01*
X185674Y749022D01*
X185674Y749023D01*
X180506Y749023D01*
X180505Y749022D01*
X180503Y749022D01*
X180503Y749020D01*
X180501Y749018D01*
X180503Y749017D01*
X180503Y749014D01*
X183101Y746416D01*
X183101Y742024D01*
X180083Y739006D01*
X180082Y739003D01*
X180081Y739002D01*
X180081Y687395D01*
X178745Y686059D01*
X173194Y686059D01*
X173189Y686054D01*
X173190Y686054D01*
X173189Y686054D01*
X173189Y684166D01*
X171194Y682171D01*
X164746Y682171D01*
X162751Y684166D01*
X162751Y692514D01*
X164746Y694509D01*
X171194Y694509D01*
X173189Y692514D01*
X173189Y690626D01*
X173194Y690621D01*
X173194Y690622D01*
X173194Y690621D01*
X175514Y690621D01*
X175519Y690626D01*
X175518Y690626D01*
X175519Y690626D01*
X175519Y739002D01*
X175517Y739004D01*
X175517Y739006D01*
X172706Y741817D01*
X172703Y741817D01*
X172703Y741818D01*
X172702Y741819D01*
X137708Y741819D01*
X137706Y741817D01*
X137705Y741817D01*
X137491Y741604D01*
X137491Y741601D01*
X137490Y741600D01*
X137490Y741599D01*
X137490Y741597D01*
X137491Y741597D01*
X137491Y741596D01*
X138469Y740618D01*
X138469Y737582D01*
X137491Y736604D01*
X137491Y736602D01*
X137490Y736602D01*
X137491Y736601D01*
X137490Y736597D01*
X137491Y736597D01*
X137491Y736596D01*
X138469Y735618D01*
X138469Y732582D01*
X137491Y731604D01*
X137490Y731597D01*
X137491Y731597D01*
X137491Y731596D01*
X137705Y731383D01*
X137707Y731382D01*
X137708Y731381D01*
X153846Y731381D01*
X153851Y731386D01*
X153850Y731386D01*
X153851Y731386D01*
X153851Y732292D01*
X156088Y734529D01*
X163952Y734529D01*
X166189Y732292D01*
X166189Y724528D01*
X163952Y722291D01*
X156088Y722291D01*
X153851Y724528D01*
X153851Y726814D01*
X153846Y726819D01*
X153846Y726818D01*
X153846Y726819D01*
X137708Y726819D01*
X137706Y726817D01*
X137705Y726817D01*
X137491Y726604D01*
X137490Y726597D01*
X137491Y726597D01*
X137491Y726596D01*
X138469Y725618D01*
X138469Y722582D01*
X137168Y721281D01*
X130452Y721281D01*
X130451Y721279D01*
X130447Y721276D01*
X130448Y721276D01*
X130448Y721275D01*
X130635Y720574D01*
X130635Y717405D01*
X126800Y717405D01*
X126795Y717401D01*
X126795Y717400D01*
X126795Y711415D01*
X125776Y711415D01*
X124952Y711635D01*
X124214Y712062D01*
X123612Y712664D01*
X123593Y712697D01*
X123592Y712697D01*
X123591Y712697D01*
X123587Y712699D01*
X123586Y712698D01*
X123585Y712698D01*
X123318Y712431D01*
X120282Y712431D01*
X119304Y713409D01*
X119297Y713410D01*
X119297Y713409D01*
X119296Y713409D01*
X118318Y712431D01*
X115282Y712431D01*
X114304Y713409D01*
X114297Y713410D01*
X114297Y713409D01*
X114296Y713409D01*
X113318Y712431D01*
X110282Y712431D01*
X109304Y713409D01*
X109297Y713410D01*
X109297Y713409D01*
X109296Y713409D01*
X108318Y712431D01*
X105282Y712431D01*
X104304Y713409D01*
X104297Y713410D01*
X104297Y713409D01*
X104296Y713409D01*
X104083Y713195D01*
X104083Y713194D01*
X104082Y713194D01*
X104083Y713194D01*
X104082Y713193D01*
X104081Y713192D01*
X104081Y693646D01*
X104086Y693641D01*
X104086Y693642D01*
X104086Y693641D01*
X106336Y693641D01*
X109354Y690623D01*
X109357Y690622D01*
X109358Y690621D01*
X146846Y690621D01*
X146851Y690626D01*
X146850Y690626D01*
X146851Y690626D01*
X146851Y692514D01*
X148846Y694509D01*
X155294Y694509D01*
X157289Y692514D01*
X157289Y684166D01*
X155294Y682171D01*
X148846Y682171D01*
X146851Y684166D01*
X146851Y686054D01*
X146846Y686059D01*
X146846Y686058D01*
X146846Y686059D01*
X129286Y686059D01*
X129281Y686054D01*
X129282Y686054D01*
X129281Y686054D01*
X129281Y670306D01*
X129286Y670301D01*
X129286Y670302D01*
X129286Y670301D01*
X138105Y670301D01*
X139441Y668965D01*
X139441Y659576D01*
X139446Y659571D01*
X139446Y659572D01*
X139446Y659571D01*
X141146Y659571D01*
X141151Y659576D01*
X141150Y659576D01*
X141151Y659576D01*
X141151Y661172D01*
X143388Y663409D01*
X151252Y663409D01*
X153489Y661172D01*
X153489Y659576D01*
X153494Y659571D01*
X153494Y659572D01*
X153494Y659571D01*
X161466Y659571D01*
X161471Y659576D01*
X161470Y659576D01*
X161471Y659576D01*
X161471Y661172D01*
X163708Y663409D01*
X171572Y663409D01*
X173809Y661172D01*
X173809Y653408D01*
X171572Y651171D01*
X163708Y651171D01*
X161471Y653408D01*
X161471Y655004D01*
X161466Y655009D01*
X161466Y655008D01*
X161466Y655009D01*
X153494Y655009D01*
X153489Y655004D01*
X153490Y655004D01*
X153489Y655004D01*
X153489Y653408D01*
X151252Y651171D01*
X143388Y651171D01*
X141151Y653408D01*
X141151Y655004D01*
X141146Y655009D01*
X141146Y655008D01*
X141146Y655009D01*
X136215Y655009D01*
X134879Y656345D01*
X134879Y665734D01*
X134874Y665739D01*
X134874Y665738D01*
X134874Y665739D01*
X119086Y665739D01*
X119081Y665734D01*
X119082Y665734D01*
X119081Y665734D01*
X119081Y661164D01*
X119086Y661159D01*
X119086Y661160D01*
X119086Y661159D01*
X119237Y661159D01*
X120219Y660177D01*
X120219Y659530D01*
X120224Y659525D01*
X120224Y659526D01*
X120224Y659525D01*
X121945Y659525D01*
X121945Y655240D01*
X121949Y655235D01*
X121950Y655235D01*
X126385Y655235D01*
X126385Y653293D01*
X126202Y652608D01*
X126156Y652529D01*
X126156Y652528D01*
X126155Y652527D01*
X126156Y652525D01*
X126157Y652522D01*
X126159Y652523D01*
X126160Y652521D01*
X138105Y652521D01*
X139441Y651185D01*
X139441Y628975D01*
X138105Y627639D01*
X128086Y627639D01*
X128084Y627637D01*
X128082Y627637D01*
X125064Y624619D01*
X120672Y624619D01*
X118972Y626319D01*
X118970Y626319D01*
X118969Y626320D01*
X118968Y626320D01*
X118967Y626319D01*
X118965Y626319D01*
X117745Y625099D01*
X11656Y625099D01*
X11651Y625094D01*
X11652Y625094D01*
X11651Y625094D01*
X11651Y180086D01*
X11656Y180081D01*
X11656Y180082D01*
X11656Y180081D01*
X14525Y180081D01*
X14528Y180084D01*
G37*
G36*
X23240Y10097D02*
X23240Y10097D01*
X23240Y10098D01*
X23241Y10098D01*
X23380Y10155D01*
X24979Y10155D01*
X26573Y10287D01*
X26985Y10155D01*
X26986Y10156D01*
X26987Y10155D01*
X45543Y10155D01*
X45545Y10157D01*
X45547Y10157D01*
X47416Y12798D01*
X56594Y19583D01*
X67435Y23155D01*
X67509Y23155D01*
X67511Y23157D01*
X67514Y23158D01*
X67513Y23159D01*
X67514Y23160D01*
X67512Y23162D01*
X67511Y23165D01*
X67014Y23371D01*
X66301Y24084D01*
X65915Y25016D01*
X65915Y33015D01*
X77450Y33015D01*
X88985Y33015D01*
X88985Y25016D01*
X88599Y24084D01*
X87886Y23371D01*
X87389Y23165D01*
X87388Y23162D01*
X87386Y23161D01*
X87386Y23160D01*
X87386Y23159D01*
X87389Y23157D01*
X87391Y23155D01*
X100859Y23155D01*
X100861Y23157D01*
X100864Y23158D01*
X100863Y23159D01*
X100864Y23160D01*
X100862Y23162D01*
X100861Y23165D01*
X100364Y23371D01*
X99651Y24084D01*
X99265Y25016D01*
X99265Y33015D01*
X114300Y33015D01*
X129335Y33015D01*
X129335Y25016D01*
X128949Y24084D01*
X128236Y23371D01*
X127739Y23165D01*
X127738Y23162D01*
X127736Y23161D01*
X127736Y23160D01*
X127736Y23159D01*
X127739Y23157D01*
X127741Y23155D01*
X141209Y23155D01*
X141211Y23157D01*
X141214Y23158D01*
X141213Y23159D01*
X141214Y23160D01*
X141212Y23162D01*
X141211Y23165D01*
X140714Y23371D01*
X140001Y24084D01*
X139615Y25016D01*
X139615Y33015D01*
X151150Y33015D01*
X162685Y33015D01*
X162685Y25016D01*
X162299Y24084D01*
X161586Y23371D01*
X160945Y23105D01*
X160945Y23104D01*
X160943Y23103D01*
X160944Y23101D01*
X160943Y23100D01*
X160945Y23098D01*
X160946Y23096D01*
X171184Y19873D01*
X180143Y13610D01*
X182799Y10157D01*
X182802Y10157D01*
X182803Y10155D01*
X203200Y10155D01*
X205584Y10343D01*
X205585Y10343D01*
X205586Y10343D01*
X210120Y11816D01*
X210121Y11817D01*
X210122Y11817D01*
X213979Y14620D01*
X213979Y14621D01*
X213980Y14621D01*
X216783Y18478D01*
X216783Y18479D01*
X216784Y18480D01*
X218257Y23014D01*
X218257Y23015D01*
X218257Y23016D01*
X218266Y23123D01*
X218266Y23132D01*
X218266Y23133D01*
X218280Y23306D01*
X218281Y23316D01*
X218295Y23490D01*
X218295Y23500D01*
X218309Y23674D01*
X218310Y23684D01*
X218323Y23858D01*
X218324Y23868D01*
X218338Y24042D01*
X218339Y24052D01*
X218352Y24226D01*
X218353Y24236D01*
X218368Y24419D01*
X218368Y24429D01*
X218382Y24603D01*
X218383Y24613D01*
X218397Y24787D01*
X218397Y24797D01*
X218411Y24971D01*
X218412Y24981D01*
X218426Y25155D01*
X218426Y25165D01*
X218440Y25339D01*
X218441Y25349D01*
X218445Y25400D01*
X218445Y302514D01*
X218440Y302519D01*
X218440Y302518D01*
X218440Y302519D01*
X210475Y302519D01*
X210472Y302516D01*
X210471Y302516D01*
X208855Y298616D01*
X205784Y295545D01*
X201772Y293883D01*
X197428Y293883D01*
X193416Y295545D01*
X190345Y298616D01*
X188729Y302516D01*
X188726Y302517D01*
X188725Y302519D01*
X180086Y302519D01*
X180081Y302514D01*
X180082Y302514D01*
X180081Y302514D01*
X180081Y296355D01*
X178745Y295019D01*
X164759Y295019D01*
X164758Y295017D01*
X164756Y295017D01*
X164542Y294804D01*
X164542Y294801D01*
X164541Y294800D01*
X164542Y294799D01*
X164542Y294797D01*
X164542Y294796D01*
X164756Y294583D01*
X164758Y294582D01*
X164759Y294581D01*
X178745Y294581D01*
X180081Y293245D01*
X180081Y281686D01*
X180086Y281681D01*
X180086Y281682D01*
X180086Y281681D01*
X188725Y281681D01*
X188728Y281684D01*
X188729Y281684D01*
X190345Y285584D01*
X193416Y288655D01*
X197428Y290317D01*
X201772Y290317D01*
X205784Y288655D01*
X208855Y285584D01*
X210517Y281572D01*
X210517Y277228D01*
X208855Y273216D01*
X205784Y270145D01*
X201772Y268483D01*
X197428Y268483D01*
X193416Y270145D01*
X190345Y273216D01*
X188729Y277116D01*
X188726Y277117D01*
X188725Y277119D01*
X176855Y277119D01*
X176026Y277948D01*
X176024Y277948D01*
X176023Y277950D01*
X176021Y277948D01*
X176019Y277949D01*
X176019Y277946D01*
X176017Y277945D01*
X176017Y256286D01*
X176022Y256281D01*
X176022Y256282D01*
X176022Y256281D01*
X188725Y256281D01*
X188728Y256284D01*
X188729Y256284D01*
X190345Y260184D01*
X193416Y263255D01*
X197428Y264917D01*
X201772Y264917D01*
X205784Y263255D01*
X208855Y260184D01*
X210517Y256172D01*
X210517Y251828D01*
X208855Y247816D01*
X205784Y244745D01*
X201772Y243083D01*
X197428Y243083D01*
X193416Y244745D01*
X190345Y247816D01*
X188729Y251716D01*
X188726Y251717D01*
X188725Y251719D01*
X172974Y251719D01*
X172969Y251714D01*
X172970Y251714D01*
X172969Y251714D01*
X172969Y230886D01*
X172974Y230881D01*
X172974Y230882D01*
X172974Y230881D01*
X188725Y230881D01*
X188728Y230884D01*
X188729Y230884D01*
X190345Y234784D01*
X193416Y237855D01*
X197428Y239517D01*
X201772Y239517D01*
X205784Y237855D01*
X208855Y234784D01*
X210517Y230772D01*
X210517Y226428D01*
X208855Y222416D01*
X205784Y219345D01*
X201772Y217683D01*
X197428Y217683D01*
X193416Y219345D01*
X190345Y222416D01*
X188729Y226316D01*
X188726Y226317D01*
X188725Y226319D01*
X169926Y226319D01*
X169921Y226314D01*
X169922Y226314D01*
X169921Y226314D01*
X169921Y205486D01*
X169926Y205481D01*
X169926Y205482D01*
X169926Y205481D01*
X188725Y205481D01*
X188728Y205484D01*
X188729Y205484D01*
X190345Y209384D01*
X193416Y212455D01*
X197428Y214117D01*
X201772Y214117D01*
X205784Y212455D01*
X208855Y209384D01*
X210517Y205372D01*
X210517Y201028D01*
X208855Y197016D01*
X205784Y193945D01*
X201772Y192283D01*
X197428Y192283D01*
X193416Y193945D01*
X190345Y197016D01*
X188729Y200916D01*
X188726Y200917D01*
X188725Y200919D01*
X166878Y200919D01*
X166873Y200914D01*
X166874Y200914D01*
X166873Y200914D01*
X166873Y180086D01*
X166878Y180081D01*
X166878Y180082D01*
X166878Y180081D01*
X188725Y180081D01*
X188728Y180084D01*
X188729Y180084D01*
X190345Y183984D01*
X193416Y187055D01*
X197428Y188717D01*
X201772Y188717D01*
X205784Y187055D01*
X208855Y183984D01*
X210517Y179972D01*
X210517Y175628D01*
X208855Y171616D01*
X205784Y168545D01*
X201772Y166883D01*
X197428Y166883D01*
X193416Y168545D01*
X190345Y171616D01*
X188729Y175516D01*
X188726Y175517D01*
X188725Y175519D01*
X185166Y175519D01*
X185161Y175514D01*
X185162Y175514D01*
X185161Y175514D01*
X185161Y154686D01*
X185166Y154681D01*
X185166Y154682D01*
X185166Y154681D01*
X188725Y154681D01*
X188728Y154684D01*
X188729Y154684D01*
X190345Y158584D01*
X193416Y161655D01*
X197428Y163317D01*
X201772Y163317D01*
X205784Y161655D01*
X208855Y158584D01*
X210517Y154572D01*
X210517Y150228D01*
X208855Y146216D01*
X205784Y143145D01*
X201772Y141483D01*
X197428Y141483D01*
X193416Y143145D01*
X190345Y146216D01*
X188729Y150116D01*
X188726Y150117D01*
X188725Y150119D01*
X182118Y150119D01*
X182113Y150114D01*
X182114Y150114D01*
X182113Y150114D01*
X182113Y129286D01*
X182118Y129281D01*
X182118Y129282D01*
X182118Y129281D01*
X188725Y129281D01*
X188728Y129284D01*
X188729Y129284D01*
X190345Y133184D01*
X193416Y136255D01*
X197428Y137917D01*
X201772Y137917D01*
X205784Y136255D01*
X208855Y133184D01*
X210517Y129172D01*
X210517Y124828D01*
X208855Y120816D01*
X205784Y117745D01*
X201772Y116083D01*
X197428Y116083D01*
X193416Y117745D01*
X190345Y120816D01*
X188729Y124716D01*
X188726Y124717D01*
X188725Y124719D01*
X187706Y124719D01*
X187701Y124714D01*
X187702Y124714D01*
X187701Y124714D01*
X187701Y53086D01*
X187706Y53081D01*
X187706Y53082D01*
X187706Y53081D01*
X188725Y53081D01*
X188728Y53084D01*
X188729Y53084D01*
X190345Y56984D01*
X193416Y60055D01*
X197428Y61717D01*
X201772Y61717D01*
X205784Y60055D01*
X208855Y56984D01*
X210517Y52972D01*
X210517Y48628D01*
X208855Y44616D01*
X205784Y41545D01*
X201772Y39883D01*
X197428Y39883D01*
X193416Y41545D01*
X190345Y44616D01*
X188729Y48516D01*
X188726Y48517D01*
X188725Y48519D01*
X184475Y48519D01*
X183139Y49855D01*
X183139Y121666D01*
X183134Y121671D01*
X183134Y121670D01*
X183134Y121671D01*
X175839Y121671D01*
X174503Y123007D01*
X174503Y166370D01*
X174498Y166375D01*
X174498Y166374D01*
X174498Y166375D01*
X154503Y166375D01*
X153167Y167711D01*
X153167Y187286D01*
X153166Y187288D01*
X153166Y187289D01*
X153164Y187290D01*
X153162Y187291D01*
X153161Y187291D01*
X153160Y187290D01*
X153158Y187290D01*
X153089Y187221D01*
X132831Y187221D01*
X131941Y188111D01*
X131941Y200369D01*
X132831Y201259D01*
X153089Y201259D01*
X153158Y201190D01*
X153160Y201190D01*
X153161Y201189D01*
X153163Y201190D01*
X153165Y201190D01*
X153165Y201192D01*
X153167Y201194D01*
X153167Y210286D01*
X153166Y210288D01*
X153166Y210289D01*
X153164Y210290D01*
X153162Y210291D01*
X153160Y210290D01*
X153158Y210290D01*
X153089Y210221D01*
X132831Y210221D01*
X131941Y211111D01*
X131941Y214954D01*
X131936Y214959D01*
X131936Y214958D01*
X131936Y214959D01*
X131826Y214959D01*
X131821Y214954D01*
X131822Y214954D01*
X131821Y214954D01*
X131821Y181434D01*
X131826Y181429D01*
X131826Y181430D01*
X131826Y181429D01*
X135634Y181429D01*
X137629Y179434D01*
X137629Y177546D01*
X137634Y177541D01*
X137634Y177542D01*
X137634Y177541D01*
X138675Y177541D01*
X140011Y176205D01*
X140011Y156034D01*
X140016Y156029D01*
X140016Y156030D01*
X140016Y156029D01*
X141612Y156029D01*
X143849Y153792D01*
X143849Y145928D01*
X141612Y143691D01*
X133848Y143691D01*
X131611Y145928D01*
X131611Y153792D01*
X133848Y156029D01*
X135444Y156029D01*
X135449Y156034D01*
X135448Y156034D01*
X135449Y156034D01*
X135449Y169086D01*
X135444Y169091D01*
X135444Y169090D01*
X135444Y169091D01*
X129186Y169091D01*
X127191Y171086D01*
X127191Y179434D01*
X127257Y179500D01*
X127258Y179503D01*
X127259Y179504D01*
X127259Y218185D01*
X128595Y219521D01*
X131936Y219521D01*
X131941Y219526D01*
X131940Y219526D01*
X131941Y219526D01*
X131941Y223369D01*
X132831Y224259D01*
X140674Y224259D01*
X140679Y224264D01*
X140678Y224264D01*
X140679Y224264D01*
X140679Y228854D01*
X140674Y228859D01*
X140674Y228858D01*
X140674Y228859D01*
X124051Y228859D01*
X122715Y230195D01*
X122715Y236474D01*
X122710Y236479D01*
X122710Y236478D01*
X122710Y236479D01*
X110855Y236479D01*
X109519Y237815D01*
X109519Y254341D01*
X109517Y254343D01*
X109517Y254344D01*
X109304Y254558D01*
X109297Y254558D01*
X109296Y254558D01*
X109083Y254344D01*
X109082Y254342D01*
X109081Y254341D01*
X109081Y253247D01*
X109083Y253245D01*
X109083Y253243D01*
X109441Y252885D01*
X109441Y235966D01*
X109446Y235961D01*
X109446Y235962D01*
X109446Y235961D01*
X120325Y235961D01*
X121661Y234625D01*
X121661Y192095D01*
X120325Y190759D01*
X116984Y190759D01*
X116979Y190754D01*
X116980Y190754D01*
X116979Y190754D01*
X116979Y188111D01*
X116089Y187221D01*
X108966Y187221D01*
X108961Y187216D01*
X108962Y187216D01*
X108961Y187216D01*
X108961Y177546D01*
X108966Y177541D01*
X108966Y177542D01*
X108966Y177541D01*
X111286Y177541D01*
X111291Y177546D01*
X111290Y177546D01*
X111291Y177546D01*
X111291Y179434D01*
X113286Y181429D01*
X119734Y181429D01*
X121729Y179434D01*
X121729Y171086D01*
X119734Y169091D01*
X118796Y169091D01*
X118791Y169086D01*
X118792Y169086D01*
X118791Y169086D01*
X118791Y156034D01*
X118796Y156029D01*
X118796Y156030D01*
X118796Y156029D01*
X120152Y156029D01*
X122389Y153792D01*
X122389Y145928D01*
X120152Y143691D01*
X112388Y143691D01*
X110151Y145928D01*
X110151Y153792D01*
X112388Y156029D01*
X114224Y156029D01*
X114229Y156034D01*
X114228Y156034D01*
X114229Y156034D01*
X114229Y169086D01*
X114224Y169091D01*
X114224Y169090D01*
X114224Y169091D01*
X113286Y169091D01*
X111291Y171086D01*
X111291Y172974D01*
X111286Y172979D01*
X111286Y172978D01*
X111286Y172979D01*
X105735Y172979D01*
X104399Y174315D01*
X104399Y187216D01*
X104394Y187221D01*
X104394Y187220D01*
X104394Y187221D01*
X95831Y187221D01*
X94941Y188111D01*
X94941Y200369D01*
X95831Y201259D01*
X116089Y201259D01*
X116979Y200369D01*
X116979Y195326D01*
X116984Y195321D01*
X116984Y195322D01*
X116984Y195321D01*
X117094Y195321D01*
X117099Y195326D01*
X117098Y195326D01*
X117099Y195326D01*
X117099Y231394D01*
X117094Y231399D01*
X117094Y231398D01*
X117094Y231399D01*
X106398Y231399D01*
X106393Y231394D01*
X106393Y227147D01*
X105057Y225811D01*
X91186Y225811D01*
X91181Y225806D01*
X91182Y225806D01*
X91181Y225806D01*
X91181Y218578D01*
X91183Y218576D01*
X91183Y218574D01*
X91661Y218096D01*
X91661Y213704D01*
X88556Y210599D01*
X84164Y210599D01*
X81059Y213704D01*
X81059Y218096D01*
X84164Y221201D01*
X86614Y221201D01*
X86619Y221206D01*
X86618Y221206D01*
X86619Y221206D01*
X86619Y228854D01*
X86614Y228859D01*
X86614Y228858D01*
X86614Y228859D01*
X75946Y228859D01*
X75941Y228854D01*
X75942Y228854D01*
X75941Y228854D01*
X75941Y183196D01*
X75946Y183191D01*
X75946Y183192D01*
X75946Y183191D01*
X77646Y183191D01*
X77651Y183196D01*
X77651Y184792D01*
X79888Y187029D01*
X87752Y187029D01*
X89989Y184792D01*
X89989Y177028D01*
X87752Y174791D01*
X86106Y174791D01*
X86101Y174786D01*
X86102Y174786D01*
X86101Y174786D01*
X86101Y168004D01*
X86106Y167999D01*
X86106Y168000D01*
X86106Y167999D01*
X89249Y167999D01*
X90139Y167109D01*
X90139Y147851D01*
X89249Y146961D01*
X77991Y146961D01*
X77101Y147851D01*
X77101Y167109D01*
X77991Y167999D01*
X81534Y167999D01*
X81539Y168004D01*
X81538Y168004D01*
X81539Y168004D01*
X81539Y174786D01*
X81534Y174791D01*
X81534Y174790D01*
X81534Y174791D01*
X79888Y174791D01*
X77651Y177028D01*
X77651Y178624D01*
X77646Y178629D01*
X77646Y178628D01*
X77646Y178629D01*
X72715Y178629D01*
X71379Y179965D01*
X71379Y212178D01*
X71378Y212179D01*
X71378Y212181D01*
X71376Y212181D01*
X71374Y212183D01*
X71373Y212181D01*
X71370Y212181D01*
X70863Y211674D01*
X70862Y211671D01*
X70861Y211670D01*
X70861Y179965D01*
X69525Y178629D01*
X64594Y178629D01*
X64589Y178624D01*
X64590Y178624D01*
X64589Y178624D01*
X64589Y177028D01*
X62352Y174791D01*
X60706Y174791D01*
X60701Y174786D01*
X60702Y174786D01*
X60701Y174786D01*
X60701Y168004D01*
X60706Y167999D01*
X60706Y168000D01*
X60706Y167999D01*
X64249Y167999D01*
X65139Y167109D01*
X65139Y147851D01*
X64249Y146961D01*
X52991Y146961D01*
X52101Y147851D01*
X52101Y167109D01*
X52991Y167999D01*
X56134Y167999D01*
X56139Y168004D01*
X56138Y168004D01*
X56139Y168004D01*
X56139Y174786D01*
X56134Y174791D01*
X56134Y174790D01*
X56134Y174791D01*
X54488Y174791D01*
X52251Y177028D01*
X52251Y184792D01*
X54488Y187029D01*
X62352Y187029D01*
X64589Y184792D01*
X64589Y183196D01*
X64594Y183191D01*
X64594Y183192D01*
X64594Y183191D01*
X66294Y183191D01*
X66299Y183196D01*
X66299Y210594D01*
X66294Y210599D01*
X66294Y210598D01*
X66294Y210599D01*
X65396Y210599D01*
X62291Y213704D01*
X62291Y218096D01*
X65396Y221201D01*
X69788Y221201D01*
X71370Y219619D01*
X71372Y219619D01*
X71373Y219617D01*
X71374Y219618D01*
X71374Y219617D01*
X71375Y219618D01*
X71377Y219618D01*
X71377Y219620D01*
X71379Y219622D01*
X71379Y232085D01*
X72715Y233421D01*
X98778Y233421D01*
X98783Y233426D01*
X98782Y233426D01*
X98783Y233426D01*
X98783Y236054D01*
X98782Y236055D01*
X98782Y236057D01*
X98780Y236057D01*
X98778Y236059D01*
X98777Y236057D01*
X98774Y236057D01*
X96176Y233459D01*
X91784Y233459D01*
X88679Y236564D01*
X88679Y240956D01*
X89517Y241794D01*
X89517Y241796D01*
X89519Y241797D01*
X89518Y241798D01*
X89519Y241798D01*
X89519Y254341D01*
X89517Y254342D01*
X89517Y254344D01*
X89304Y254558D01*
X89297Y254558D01*
X89296Y254558D01*
X88419Y253681D01*
X85181Y253681D01*
X83881Y254981D01*
X83881Y271019D01*
X85181Y272319D01*
X88419Y272319D01*
X89296Y271442D01*
X89299Y271442D01*
X89299Y271441D01*
X89301Y271441D01*
X89301Y271442D01*
X89303Y271442D01*
X89304Y271442D01*
X90181Y272319D01*
X93419Y272319D01*
X94296Y271442D01*
X94299Y271442D01*
X94299Y271441D01*
X94301Y271441D01*
X94301Y271442D01*
X94303Y271442D01*
X94304Y271442D01*
X95181Y272319D01*
X98419Y272319D01*
X99296Y271442D01*
X99299Y271442D01*
X99299Y271441D01*
X99301Y271441D01*
X99301Y271442D01*
X99303Y271442D01*
X99304Y271442D01*
X100181Y272319D01*
X103419Y272319D01*
X104296Y271442D01*
X104299Y271442D01*
X104299Y271441D01*
X104301Y271441D01*
X104301Y271442D01*
X104303Y271442D01*
X104304Y271442D01*
X105181Y272319D01*
X108419Y272319D01*
X109296Y271442D01*
X109299Y271442D01*
X109299Y271441D01*
X109301Y271441D01*
X109301Y271442D01*
X109303Y271442D01*
X109304Y271442D01*
X110181Y272319D01*
X113419Y272319D01*
X114296Y271442D01*
X114299Y271442D01*
X114299Y271441D01*
X114301Y271441D01*
X114301Y271442D01*
X114303Y271442D01*
X114304Y271442D01*
X115181Y272319D01*
X118419Y272319D01*
X118578Y272160D01*
X118585Y272160D01*
X119114Y272689D01*
X119851Y273115D01*
X120674Y273335D01*
X121795Y273335D01*
X121795Y263000D01*
X121795Y252665D01*
X120674Y252665D01*
X119851Y252885D01*
X119114Y253311D01*
X119090Y253335D01*
X119088Y253335D01*
X119087Y253336D01*
X119085Y253335D01*
X119083Y253335D01*
X119083Y253333D01*
X119081Y253332D01*
X119081Y251050D01*
X119082Y251049D01*
X119082Y251047D01*
X119084Y251047D01*
X119086Y251045D01*
X119087Y251047D01*
X119090Y251047D01*
X119724Y251681D01*
X124116Y251681D01*
X127221Y248576D01*
X127221Y244184D01*
X124116Y241079D01*
X119724Y241079D01*
X116706Y244097D01*
X116703Y244098D01*
X116702Y244098D01*
X116702Y244099D01*
X115855Y244099D01*
X114519Y245435D01*
X114519Y254341D01*
X114517Y254342D01*
X114517Y254344D01*
X114304Y254558D01*
X114297Y254558D01*
X114296Y254558D01*
X114083Y254344D01*
X114082Y254342D01*
X114081Y254341D01*
X114081Y241046D01*
X114086Y241041D01*
X114086Y241042D01*
X114086Y241041D01*
X125941Y241041D01*
X126770Y240212D01*
X126772Y240212D01*
X126773Y240210D01*
X126775Y240212D01*
X126777Y240211D01*
X126777Y240214D01*
X126779Y240215D01*
X126779Y240956D01*
X129797Y243974D01*
X129798Y243977D01*
X129799Y243978D01*
X129799Y246309D01*
X130234Y246744D01*
X130234Y246746D01*
X130235Y246746D01*
X130234Y246746D01*
X130235Y246751D01*
X130234Y246751D01*
X130234Y246752D01*
X129519Y247467D01*
X129519Y254341D01*
X129517Y254343D01*
X129517Y254344D01*
X129304Y254558D01*
X129297Y254558D01*
X129296Y254558D01*
X128419Y253681D01*
X125181Y253681D01*
X125022Y253840D01*
X125015Y253840D01*
X124486Y253311D01*
X123749Y252885D01*
X122926Y252665D01*
X121805Y252665D01*
X121805Y263000D01*
X121805Y273335D01*
X122926Y273335D01*
X123749Y273115D01*
X124486Y272689D01*
X124510Y272665D01*
X124512Y272665D01*
X124513Y272664D01*
X124514Y272664D01*
X124515Y272665D01*
X124517Y272665D01*
X124517Y272667D01*
X124519Y272668D01*
X124519Y274382D01*
X124517Y274384D01*
X124517Y274386D01*
X121699Y277204D01*
X121699Y281596D01*
X124804Y284701D01*
X129196Y284701D01*
X132301Y281596D01*
X132301Y277204D01*
X129196Y274099D01*
X129086Y274099D01*
X129081Y274094D01*
X129082Y274094D01*
X129081Y274094D01*
X129081Y271659D01*
X129083Y271658D01*
X129083Y271656D01*
X129296Y271442D01*
X129299Y271442D01*
X129299Y271441D01*
X129301Y271441D01*
X129301Y271442D01*
X129303Y271442D01*
X129304Y271442D01*
X130181Y272319D01*
X133419Y272319D01*
X134296Y271442D01*
X134299Y271442D01*
X134299Y271441D01*
X134301Y271441D01*
X134301Y271442D01*
X134303Y271442D01*
X134304Y271442D01*
X135181Y272319D01*
X138419Y272319D01*
X139296Y271442D01*
X139299Y271442D01*
X139299Y271441D01*
X139301Y271441D01*
X139301Y271442D01*
X139303Y271442D01*
X139304Y271442D01*
X140181Y272319D01*
X143419Y272319D01*
X144719Y271019D01*
X144719Y265286D01*
X144724Y265281D01*
X144724Y265282D01*
X144724Y265281D01*
X165354Y265281D01*
X165359Y265286D01*
X165358Y265286D01*
X165359Y265286D01*
X165359Y275014D01*
X165354Y275019D01*
X165354Y275018D01*
X165354Y275019D01*
X164759Y275019D01*
X164757Y275017D01*
X164756Y275017D01*
X164119Y274381D01*
X148081Y274381D01*
X146781Y275681D01*
X146781Y278919D01*
X147658Y279796D01*
X147658Y279798D01*
X147658Y279803D01*
X147658Y279804D01*
X146781Y280681D01*
X146781Y283919D01*
X147658Y284796D01*
X147658Y284803D01*
X147658Y284804D01*
X146781Y285681D01*
X146781Y288919D01*
X147658Y289796D01*
X147658Y289800D01*
X147659Y289800D01*
X147658Y289801D01*
X147658Y289803D01*
X147658Y289804D01*
X146781Y290681D01*
X146781Y293919D01*
X147658Y294796D01*
X147658Y294798D01*
X147659Y294799D01*
X147658Y294800D01*
X147658Y294803D01*
X147658Y294804D01*
X146781Y295681D01*
X146781Y298919D01*
X147658Y299796D01*
X147658Y299803D01*
X147658Y299804D01*
X146781Y300681D01*
X146781Y303919D01*
X147658Y304796D01*
X147658Y304803D01*
X147658Y304804D01*
X147444Y305017D01*
X147442Y305018D01*
X147441Y305019D01*
X101270Y305019D01*
X101269Y305018D01*
X101267Y305018D01*
X101267Y305016D01*
X101265Y305014D01*
X101267Y305013D01*
X101267Y305010D01*
X101821Y304456D01*
X101821Y300064D01*
X98716Y296959D01*
X94324Y296959D01*
X91219Y300064D01*
X91219Y304456D01*
X94237Y307474D01*
X94238Y307477D01*
X94239Y307478D01*
X94239Y308245D01*
X95575Y309581D01*
X146432Y309581D01*
X146433Y309582D01*
X146435Y309582D01*
X146435Y309584D01*
X146436Y309586D01*
X146435Y309587D01*
X146435Y309590D01*
X146411Y309614D01*
X145985Y310351D01*
X145765Y311174D01*
X145765Y312295D01*
X156100Y312295D01*
X166435Y312295D01*
X166435Y311174D01*
X166215Y310351D01*
X165789Y309614D01*
X165765Y309590D01*
X165765Y309588D01*
X165764Y309587D01*
X165765Y309585D01*
X165765Y309583D01*
X165767Y309583D01*
X165768Y309581D01*
X169418Y309581D01*
X169423Y309586D01*
X169423Y311841D01*
X170759Y313177D01*
X180086Y313177D01*
X180091Y313182D01*
X180090Y313182D01*
X180091Y313182D01*
X180091Y315014D01*
X180086Y315019D01*
X180086Y315018D01*
X180086Y315019D01*
X165768Y315019D01*
X165767Y315018D01*
X165765Y315018D01*
X165765Y315016D01*
X165764Y315014D01*
X165765Y315013D01*
X165765Y315010D01*
X165789Y314986D01*
X166215Y314249D01*
X166435Y313426D01*
X166435Y312305D01*
X156100Y312305D01*
X145765Y312305D01*
X145765Y313426D01*
X145985Y314249D01*
X146411Y314986D01*
X146940Y315515D01*
X146940Y315518D01*
X146940Y315519D01*
X146940Y315521D01*
X146940Y315522D01*
X146781Y315681D01*
X146781Y318919D01*
X147658Y319796D01*
X147658Y319803D01*
X147658Y319804D01*
X146781Y320681D01*
X146781Y323919D01*
X146940Y324078D01*
X146940Y324080D01*
X146940Y324085D01*
X146411Y324614D01*
X145985Y325351D01*
X145765Y326174D01*
X145765Y327295D01*
X156100Y327295D01*
X166435Y327295D01*
X166435Y326174D01*
X166362Y325901D01*
X166363Y325900D01*
X166365Y325896D01*
X166366Y325896D01*
X166367Y325895D01*
X167358Y325895D01*
X167363Y325900D01*
X167362Y325900D01*
X167363Y325900D01*
X167363Y337654D01*
X167362Y337655D01*
X167362Y337657D01*
X167360Y337657D01*
X167358Y337659D01*
X167357Y337657D01*
X167354Y337657D01*
X164756Y335059D01*
X164292Y335059D01*
X164290Y335058D01*
X164289Y335058D01*
X164288Y335056D01*
X164287Y335054D01*
X164288Y335053D01*
X164288Y335050D01*
X165419Y333919D01*
X165419Y330681D01*
X165260Y330522D01*
X165260Y330515D01*
X165789Y329986D01*
X166215Y329249D01*
X166435Y328426D01*
X166435Y327305D01*
X156100Y327305D01*
X145765Y327305D01*
X145765Y328426D01*
X145885Y328875D01*
X145884Y328877D01*
X145884Y328879D01*
X145883Y328879D01*
X145882Y328881D01*
X145880Y328880D01*
X145879Y328880D01*
X145877Y328880D01*
X144436Y327439D01*
X140044Y327439D01*
X136939Y330544D01*
X136939Y334936D01*
X139729Y337726D01*
X139729Y337728D01*
X139730Y337729D01*
X139729Y337730D01*
X139729Y337732D01*
X139729Y337733D01*
X139304Y338158D01*
X139297Y338158D01*
X139296Y338158D01*
X138419Y337281D01*
X135181Y337281D01*
X134304Y338158D01*
X134297Y338158D01*
X134296Y338158D01*
X133419Y337281D01*
X130181Y337281D01*
X129304Y338158D01*
X129297Y338158D01*
X129296Y338158D01*
X128419Y337281D01*
X125181Y337281D01*
X124304Y338158D01*
X124297Y338158D01*
X124296Y338158D01*
X123419Y337281D01*
X120181Y337281D01*
X120062Y337400D01*
X120060Y337400D01*
X120059Y337401D01*
X120057Y337400D01*
X120055Y337400D01*
X120055Y337398D01*
X120053Y337396D01*
X120053Y335506D01*
X120058Y335501D01*
X120058Y335502D01*
X120058Y335501D01*
X121972Y335501D01*
X125077Y332396D01*
X125077Y328004D01*
X121972Y324899D01*
X117580Y324899D01*
X115236Y327243D01*
X115229Y327244D01*
X115229Y327243D01*
X115228Y327243D01*
X112884Y324899D01*
X108492Y324899D01*
X106148Y327243D01*
X106141Y327244D01*
X106141Y327243D01*
X106140Y327243D01*
X103796Y324899D01*
X99404Y324899D01*
X96299Y328004D01*
X96299Y332396D01*
X99404Y335501D01*
X99514Y335501D01*
X99519Y335506D01*
X99518Y335506D01*
X99519Y335506D01*
X99519Y337941D01*
X99517Y337943D01*
X99517Y337944D01*
X99304Y338158D01*
X99297Y338158D01*
X99296Y338158D01*
X98419Y337281D01*
X95181Y337281D01*
X95022Y337440D01*
X95015Y337440D01*
X94486Y336911D01*
X93749Y336485D01*
X92926Y336265D01*
X91805Y336265D01*
X91805Y346600D01*
X91805Y356935D01*
X92926Y356935D01*
X93749Y356715D01*
X94486Y356289D01*
X94510Y356265D01*
X94512Y356265D01*
X94513Y356264D01*
X94515Y356265D01*
X94517Y356265D01*
X94517Y356267D01*
X94519Y356268D01*
X94519Y359085D01*
X95855Y360421D01*
X97574Y360421D01*
X97575Y360422D01*
X97577Y360422D01*
X97577Y360424D01*
X97579Y360426D01*
X97577Y360427D01*
X97577Y360430D01*
X95431Y362576D01*
X95431Y366968D01*
X97013Y368550D01*
X97013Y368552D01*
X97015Y368553D01*
X97014Y368555D01*
X97014Y368557D01*
X97011Y368557D01*
X97010Y368559D01*
X85990Y368559D01*
X85989Y368558D01*
X85987Y368558D01*
X85987Y368556D01*
X85985Y368554D01*
X85987Y368553D01*
X85987Y368550D01*
X87569Y366968D01*
X87569Y362576D01*
X84464Y359471D01*
X83566Y359471D01*
X83561Y359466D01*
X83562Y359466D01*
X83561Y359466D01*
X83561Y339415D01*
X82225Y338079D01*
X81026Y338079D01*
X81021Y338074D01*
X81022Y338074D01*
X81021Y338074D01*
X81021Y334719D01*
X81023Y334718D01*
X81023Y334716D01*
X81819Y333919D01*
X81819Y333168D01*
X81820Y333167D01*
X81820Y333165D01*
X81822Y333165D01*
X81824Y333163D01*
X81825Y333165D01*
X81828Y333165D01*
X84164Y335501D01*
X84514Y335501D01*
X84519Y335506D01*
X84518Y335506D01*
X84519Y335506D01*
X84519Y337941D01*
X84517Y337942D01*
X84517Y337944D01*
X83881Y338581D01*
X83881Y354619D01*
X85181Y355919D01*
X88419Y355919D01*
X88578Y355760D01*
X88585Y355760D01*
X89114Y356289D01*
X89851Y356715D01*
X90674Y356935D01*
X91795Y356935D01*
X91795Y346600D01*
X91795Y336265D01*
X90674Y336265D01*
X89851Y336485D01*
X89114Y336911D01*
X89090Y336935D01*
X89088Y336935D01*
X89087Y336936D01*
X89085Y336935D01*
X89083Y336935D01*
X89083Y336933D01*
X89081Y336932D01*
X89081Y334978D01*
X89083Y334976D01*
X89083Y334974D01*
X91661Y332396D01*
X91661Y328004D01*
X88556Y324899D01*
X84164Y324899D01*
X81828Y327235D01*
X81826Y327235D01*
X81825Y327237D01*
X81823Y327236D01*
X81821Y327236D01*
X81821Y327233D01*
X81819Y327232D01*
X81819Y325681D01*
X80942Y324804D01*
X80942Y324802D01*
X80941Y324801D01*
X80942Y324801D01*
X80942Y324797D01*
X80942Y324796D01*
X81819Y323919D01*
X81819Y320681D01*
X80942Y319804D01*
X80942Y319797D01*
X80942Y319796D01*
X81819Y318919D01*
X81819Y315681D01*
X80942Y314804D01*
X80942Y314797D01*
X80942Y314796D01*
X81819Y313919D01*
X81819Y310681D01*
X80942Y309804D01*
X80942Y309802D01*
X80941Y309801D01*
X80942Y309800D01*
X80942Y309797D01*
X80942Y309796D01*
X81819Y308919D01*
X81819Y305681D01*
X80942Y304804D01*
X80942Y304797D01*
X80942Y304796D01*
X81819Y303919D01*
X81819Y300681D01*
X81660Y300522D01*
X81660Y300520D01*
X81659Y300519D01*
X81660Y300518D01*
X81660Y300515D01*
X82189Y299986D01*
X82615Y299249D01*
X82835Y298426D01*
X82835Y297305D01*
X72500Y297305D01*
X62165Y297305D01*
X62165Y298426D01*
X62385Y299249D01*
X62811Y299986D01*
X62835Y300010D01*
X62835Y300012D01*
X62836Y300013D01*
X62835Y300015D01*
X62835Y300017D01*
X62833Y300017D01*
X62832Y300019D01*
X55626Y300019D01*
X55621Y300014D01*
X55622Y300014D01*
X55621Y300014D01*
X55621Y294586D01*
X55626Y294581D01*
X55626Y294582D01*
X55626Y294581D01*
X62832Y294581D01*
X62833Y294582D01*
X62835Y294582D01*
X62835Y294584D01*
X62836Y294586D01*
X62835Y294587D01*
X62835Y294590D01*
X62811Y294614D01*
X62385Y295351D01*
X62165Y296174D01*
X62165Y297295D01*
X72500Y297295D01*
X82835Y297295D01*
X82835Y296174D01*
X82615Y295351D01*
X82189Y294614D01*
X81660Y294085D01*
X81660Y294079D01*
X81660Y294078D01*
X81819Y293919D01*
X81819Y290681D01*
X80942Y289804D01*
X80942Y289802D01*
X80941Y289802D01*
X80942Y289801D01*
X80942Y289797D01*
X80942Y289796D01*
X81819Y288919D01*
X81819Y285681D01*
X81660Y285522D01*
X81660Y285519D01*
X81659Y285519D01*
X81660Y285518D01*
X81660Y285515D01*
X82189Y284986D01*
X82615Y284249D01*
X82835Y283426D01*
X82835Y282305D01*
X72500Y282305D01*
X62165Y282305D01*
X62165Y283426D01*
X62385Y284249D01*
X62664Y284731D01*
X62664Y284732D01*
X62665Y284733D01*
X62663Y284735D01*
X62663Y284738D01*
X62661Y284737D01*
X62660Y284739D01*
X61722Y284739D01*
X61717Y284734D01*
X61718Y284734D01*
X61717Y284734D01*
X61717Y256611D01*
X60381Y255275D01*
X58674Y255275D01*
X58669Y255270D01*
X58670Y255270D01*
X58669Y255270D01*
X58669Y212415D01*
X57333Y211079D01*
X52578Y211079D01*
X52573Y211074D01*
X52574Y211074D01*
X52573Y211074D01*
X52573Y200663D01*
X52574Y200662D01*
X52574Y200660D01*
X52576Y200660D01*
X52578Y200658D01*
X52579Y200660D01*
X52582Y200660D01*
X53101Y201179D01*
X54204Y201816D01*
X55433Y202145D01*
X58415Y202145D01*
X58415Y195010D01*
X58415Y187875D01*
X55433Y187875D01*
X54204Y188204D01*
X53101Y188841D01*
X52230Y189712D01*
X52223Y189713D01*
X52223Y189712D01*
X51237Y188727D01*
X49530Y188727D01*
X49525Y188722D01*
X49525Y167711D01*
X48189Y166375D01*
X46482Y166375D01*
X46477Y166370D01*
X46478Y166370D01*
X46477Y166370D01*
X46477Y143835D01*
X45141Y142499D01*
X43434Y142499D01*
X43429Y142494D01*
X43430Y142494D01*
X43429Y142494D01*
X43429Y123007D01*
X42093Y121671D01*
X40386Y121671D01*
X40381Y121666D01*
X40382Y121666D01*
X40381Y121666D01*
X40381Y100655D01*
X39045Y99319D01*
X36275Y99319D01*
X36272Y99316D01*
X36271Y99316D01*
X34655Y95416D01*
X31584Y92345D01*
X27572Y90683D01*
X23228Y90683D01*
X19216Y92345D01*
X16145Y95416D01*
X14483Y99428D01*
X14483Y103772D01*
X16145Y107784D01*
X19216Y110855D01*
X23228Y112517D01*
X27572Y112517D01*
X31584Y110855D01*
X34655Y107784D01*
X35809Y104998D01*
X35812Y104997D01*
X35813Y104995D01*
X35814Y104996D01*
X35815Y104995D01*
X35816Y104998D01*
X35819Y105000D01*
X35819Y123600D01*
X35817Y123602D01*
X35816Y123605D01*
X35815Y123604D01*
X35814Y123605D01*
X35812Y123603D01*
X35809Y123602D01*
X34655Y120816D01*
X31584Y117745D01*
X27572Y116083D01*
X23228Y116083D01*
X19216Y117745D01*
X16145Y120816D01*
X14483Y124828D01*
X14483Y129172D01*
X16145Y133184D01*
X19216Y136255D01*
X23228Y137917D01*
X27572Y137917D01*
X31584Y136255D01*
X34655Y133184D01*
X35809Y130398D01*
X35812Y130397D01*
X35813Y130395D01*
X35814Y130396D01*
X35815Y130395D01*
X35816Y130398D01*
X35819Y130400D01*
X35819Y149000D01*
X35817Y149002D01*
X35816Y149005D01*
X35815Y149004D01*
X35814Y149005D01*
X35812Y149003D01*
X35809Y149002D01*
X34655Y146216D01*
X31584Y143145D01*
X27572Y141483D01*
X23228Y141483D01*
X19216Y143145D01*
X16145Y146216D01*
X14529Y150116D01*
X14526Y150117D01*
X14525Y150119D01*
X5560Y150119D01*
X5555Y150114D01*
X5556Y150114D01*
X5555Y150114D01*
X5555Y26007D01*
X5556Y26007D01*
X5555Y26007D01*
X5861Y23959D01*
X5862Y23958D01*
X5861Y23958D01*
X7417Y19625D01*
X7418Y19624D01*
X7417Y19623D01*
X10041Y15841D01*
X10042Y15840D01*
X13556Y12865D01*
X13557Y12865D01*
X13557Y12864D01*
X17721Y10900D01*
X17722Y10900D01*
X22252Y10080D01*
X22253Y10081D01*
X22253Y10080D01*
X23240Y10097D01*
G37*
G36*
X45979Y629666D02*
X45979Y629666D01*
X45978Y629666D01*
X45979Y629666D01*
X45979Y637066D01*
X45974Y637071D01*
X45974Y637070D01*
X45974Y637071D01*
X44086Y637071D01*
X42091Y639066D01*
X42091Y645514D01*
X44086Y647509D01*
X52434Y647509D01*
X54429Y645514D01*
X54429Y639066D01*
X52434Y637071D01*
X50546Y637071D01*
X50541Y637066D01*
X50542Y637066D01*
X50541Y637066D01*
X50541Y629666D01*
X50546Y629661D01*
X50546Y629662D01*
X50546Y629661D01*
X114514Y629661D01*
X114519Y629666D01*
X114518Y629666D01*
X114519Y629666D01*
X114519Y639316D01*
X114514Y639321D01*
X114514Y639320D01*
X114514Y639321D01*
X114363Y639321D01*
X114304Y639380D01*
X114297Y639381D01*
X114297Y639380D01*
X114296Y639380D01*
X114237Y639321D01*
X109363Y639321D01*
X108381Y640303D01*
X108381Y641966D01*
X108376Y641971D01*
X108376Y641970D01*
X108376Y641971D01*
X104213Y641971D01*
X103231Y642953D01*
X103231Y646514D01*
X103229Y646516D01*
X103229Y646518D01*
X102753Y646994D01*
X102398Y647608D01*
X102215Y648293D01*
X102215Y650235D01*
X106650Y650235D01*
X106655Y650239D01*
X106655Y650240D01*
X106655Y655240D01*
X106655Y659525D01*
X108376Y659525D01*
X108381Y659530D01*
X108381Y660177D01*
X109363Y661159D01*
X114237Y661159D01*
X114296Y661100D01*
X114303Y661099D01*
X114303Y661100D01*
X114304Y661100D01*
X114363Y661159D01*
X114514Y661159D01*
X114519Y661164D01*
X114518Y661164D01*
X114519Y661164D01*
X114519Y668965D01*
X115855Y670301D01*
X124714Y670301D01*
X124719Y670306D01*
X124718Y670306D01*
X124719Y670306D01*
X124719Y686054D01*
X124714Y686059D01*
X124714Y686058D01*
X124714Y686059D01*
X109358Y686059D01*
X109356Y686057D01*
X109354Y686057D01*
X106336Y683039D01*
X101944Y683039D01*
X98839Y686144D01*
X98839Y690536D01*
X99517Y691214D01*
X99518Y691217D01*
X99519Y691218D01*
X99519Y696214D01*
X99514Y696219D01*
X99514Y696218D01*
X99514Y696219D01*
X74134Y696219D01*
X74129Y696214D01*
X74130Y696214D01*
X74129Y696214D01*
X74129Y694568D01*
X71892Y692331D01*
X64128Y692331D01*
X61891Y694568D01*
X61891Y702432D01*
X64128Y704669D01*
X71892Y704669D01*
X74129Y702432D01*
X74129Y700786D01*
X74134Y700781D01*
X74134Y700782D01*
X74134Y700781D01*
X99514Y700781D01*
X99519Y700786D01*
X99518Y700786D01*
X99519Y700786D01*
X99519Y713192D01*
X99517Y713194D01*
X99517Y713195D01*
X98981Y713732D01*
X98981Y721068D01*
X100079Y722166D01*
X100079Y722172D01*
X100079Y722173D01*
X99873Y722379D01*
X99866Y722379D01*
X98768Y721281D01*
X91432Y721281D01*
X90131Y722582D01*
X90131Y725618D01*
X90398Y725885D01*
X90398Y725886D01*
X90398Y725887D01*
X90399Y725888D01*
X90398Y725889D01*
X90398Y725892D01*
X90397Y725892D01*
X90397Y725893D01*
X90364Y725912D01*
X89762Y726514D01*
X89335Y727252D01*
X89115Y728076D01*
X89115Y729095D01*
X95100Y729095D01*
X95105Y729099D01*
X95104Y729100D01*
X95105Y729100D01*
X95100Y729105D01*
X89115Y729105D01*
X89115Y730124D01*
X89335Y730948D01*
X89762Y731686D01*
X89886Y731810D01*
X89886Y731812D01*
X89888Y731813D01*
X89887Y731815D01*
X89887Y731817D01*
X89884Y731817D01*
X89883Y731819D01*
X78486Y731819D01*
X78481Y731814D01*
X78482Y731814D01*
X78481Y731814D01*
X78481Y722955D01*
X77145Y721619D01*
X74134Y721619D01*
X74129Y721614D01*
X74130Y721614D01*
X74129Y721614D01*
X74129Y719968D01*
X71892Y717731D01*
X64128Y717731D01*
X61891Y719968D01*
X61891Y727832D01*
X64128Y730069D01*
X71892Y730069D01*
X73910Y728051D01*
X73912Y728051D01*
X73913Y728049D01*
X73914Y728050D01*
X73915Y728051D01*
X73917Y728050D01*
X73917Y728052D01*
X73919Y728054D01*
X73919Y735045D01*
X75255Y736381D01*
X89883Y736381D01*
X89884Y736382D01*
X89886Y736382D01*
X89886Y736384D01*
X89888Y736386D01*
X89886Y736387D01*
X89886Y736390D01*
X89762Y736514D01*
X89335Y737252D01*
X89115Y738076D01*
X89115Y739095D01*
X95100Y739095D01*
X95105Y739099D01*
X95104Y739100D01*
X95105Y739100D01*
X95100Y739105D01*
X89115Y739105D01*
X89115Y740124D01*
X89335Y740948D01*
X89762Y741686D01*
X89886Y741810D01*
X89886Y741812D01*
X89887Y741812D01*
X89887Y741813D01*
X89888Y741813D01*
X89887Y741815D01*
X89887Y741817D01*
X89884Y741817D01*
X89883Y741819D01*
X75255Y741819D01*
X73919Y743155D01*
X73919Y745146D01*
X73918Y745147D01*
X73918Y745149D01*
X73916Y745149D01*
X73914Y745151D01*
X73913Y745149D01*
X73910Y745149D01*
X71892Y743131D01*
X64128Y743131D01*
X61891Y745368D01*
X61891Y753232D01*
X64128Y755469D01*
X71892Y755469D01*
X73910Y753451D01*
X73912Y753451D01*
X73913Y753449D01*
X73914Y753450D01*
X73915Y753451D01*
X73917Y753450D01*
X73917Y753453D01*
X73919Y753454D01*
X73919Y761862D01*
X73917Y761864D01*
X73917Y761866D01*
X70899Y764884D01*
X70899Y769276D01*
X74004Y772381D01*
X78396Y772381D01*
X81501Y769276D01*
X81501Y764884D01*
X78483Y761866D01*
X78483Y761864D01*
X78481Y761863D01*
X78481Y761862D01*
X78481Y746386D01*
X78486Y746381D01*
X78486Y746382D01*
X78486Y746381D01*
X90892Y746381D01*
X90894Y746383D01*
X90895Y746383D01*
X91109Y746596D01*
X91110Y746603D01*
X91109Y746603D01*
X91109Y746604D01*
X90131Y747582D01*
X90131Y750618D01*
X91432Y751919D01*
X98768Y751919D01*
X99866Y750821D01*
X99872Y750821D01*
X99873Y750821D01*
X100079Y751027D01*
X100079Y751029D01*
X100080Y751030D01*
X100079Y751030D01*
X100079Y751034D01*
X98981Y752132D01*
X98981Y759468D01*
X100282Y760769D01*
X103318Y760769D01*
X104296Y759791D01*
X104299Y759791D01*
X104299Y759790D01*
X104301Y759790D01*
X104303Y759790D01*
X104303Y759791D01*
X104304Y759791D01*
X105282Y760769D01*
X108318Y760769D01*
X109296Y759791D01*
X109299Y759791D01*
X109299Y759790D01*
X109301Y759790D01*
X109303Y759790D01*
X109303Y759791D01*
X109304Y759791D01*
X110282Y760769D01*
X113318Y760769D01*
X114296Y759791D01*
X114299Y759791D01*
X114299Y759790D01*
X114301Y759790D01*
X114303Y759790D01*
X114303Y759791D01*
X114304Y759791D01*
X115282Y760769D01*
X118318Y760769D01*
X119296Y759791D01*
X119299Y759791D01*
X119299Y759790D01*
X119301Y759790D01*
X119303Y759790D01*
X119303Y759791D01*
X119304Y759791D01*
X120282Y760769D01*
X123318Y760769D01*
X123585Y760502D01*
X123586Y760502D01*
X123587Y760502D01*
X123592Y760502D01*
X123592Y760503D01*
X123593Y760503D01*
X123612Y760536D01*
X124214Y761138D01*
X124952Y761565D01*
X125776Y761785D01*
X126795Y761785D01*
X126795Y755800D01*
X126799Y755795D01*
X126800Y755795D01*
X130635Y755795D01*
X130635Y752626D01*
X130448Y751925D01*
X130447Y751925D01*
X130448Y751925D01*
X130447Y751925D01*
X130448Y751924D01*
X130450Y751920D01*
X130452Y751920D01*
X130452Y751919D01*
X137168Y751919D01*
X137705Y751383D01*
X137707Y751382D01*
X137708Y751381D01*
X168430Y751381D01*
X168435Y751386D01*
X168434Y751386D01*
X168435Y751386D01*
X168435Y752249D01*
X168784Y752598D01*
X168784Y752600D01*
X168786Y752601D01*
X168784Y752603D01*
X168785Y752605D01*
X168782Y752605D01*
X168781Y752607D01*
X144343Y752607D01*
X143007Y753943D01*
X143007Y785622D01*
X143002Y785627D01*
X143002Y785626D01*
X143002Y785627D01*
X37663Y785627D01*
X36327Y786963D01*
X36327Y836605D01*
X37628Y837907D01*
X37629Y837913D01*
X37628Y837913D01*
X37628Y837914D01*
X36961Y838581D01*
X36324Y839684D01*
X35995Y840913D01*
X35995Y843845D01*
X43180Y843845D01*
X50365Y843845D01*
X50365Y840913D01*
X50036Y839684D01*
X49399Y838581D01*
X48768Y837950D01*
X48768Y837948D01*
X48766Y837947D01*
X48767Y837945D01*
X48767Y837943D01*
X48770Y837943D01*
X48771Y837941D01*
X51054Y837941D01*
X51059Y837946D01*
X51058Y837946D01*
X51059Y837946D01*
X51059Y849305D01*
X52395Y850641D01*
X89931Y850641D01*
X89933Y850643D01*
X89935Y850643D01*
X90311Y851019D01*
X99289Y851019D01*
X99772Y850536D01*
X99774Y850536D01*
X99775Y850534D01*
X99777Y850535D01*
X99779Y850535D01*
X99779Y850538D01*
X99781Y850539D01*
X99781Y851829D01*
X100671Y852719D01*
X100739Y852719D01*
X100740Y852720D01*
X100741Y852720D01*
X100741Y852721D01*
X100744Y852724D01*
X100743Y852725D01*
X100743Y852727D01*
X100660Y852871D01*
X100465Y853598D01*
X100465Y857695D01*
X104300Y857695D01*
X104305Y857699D01*
X104304Y857700D01*
X104305Y857700D01*
X104300Y857705D01*
X100465Y857705D01*
X100465Y861802D01*
X100660Y862529D01*
X101036Y863181D01*
X101569Y863714D01*
X101804Y863850D01*
X101805Y863852D01*
X101806Y863853D01*
X101806Y863854D01*
X101806Y863856D01*
X101803Y863857D01*
X101802Y863859D01*
X47334Y863859D01*
X47333Y863858D01*
X47331Y863858D01*
X47331Y863856D01*
X47329Y863854D01*
X47331Y863853D01*
X47331Y863850D01*
X49349Y861832D01*
X49349Y854068D01*
X47112Y851831D01*
X39248Y851831D01*
X37011Y854068D01*
X37011Y861832D01*
X39248Y864069D01*
X40894Y864069D01*
X40899Y864074D01*
X40898Y864074D01*
X40899Y864074D01*
X40899Y867085D01*
X42235Y868421D01*
X53594Y868421D01*
X53599Y868426D01*
X53598Y868426D01*
X53599Y868426D01*
X53599Y876554D01*
X53594Y876559D01*
X53594Y876558D01*
X53594Y876559D01*
X48398Y876559D01*
X48396Y876557D01*
X48394Y876557D01*
X45376Y873539D01*
X40984Y873539D01*
X37879Y876644D01*
X37879Y881036D01*
X40984Y884141D01*
X45376Y884141D01*
X48394Y881123D01*
X48397Y881122D01*
X48398Y881121D01*
X56825Y881121D01*
X58161Y879785D01*
X58161Y871474D01*
X58166Y871469D01*
X58166Y871470D01*
X58166Y871469D01*
X115245Y871469D01*
X116581Y870133D01*
X116581Y863729D01*
X116582Y863729D01*
X116582Y863728D01*
X116583Y863727D01*
X116586Y863725D01*
X116587Y863726D01*
X116589Y863725D01*
X117221Y864090D01*
X117948Y864285D01*
X119295Y864285D01*
X119295Y857700D01*
X119299Y857695D01*
X119300Y857696D01*
X119300Y857695D01*
X119305Y857700D01*
X119305Y864285D01*
X120652Y864285D01*
X121379Y864090D01*
X122011Y863725D01*
X122012Y863725D01*
X122013Y863725D01*
X122015Y863726D01*
X122018Y863726D01*
X122017Y863728D01*
X122019Y863729D01*
X122019Y867085D01*
X123355Y868421D01*
X124322Y868421D01*
X124324Y868423D01*
X124326Y868423D01*
X127344Y871441D01*
X131736Y871441D01*
X134334Y868843D01*
X134336Y868843D01*
X134337Y868841D01*
X134339Y868842D01*
X134341Y868842D01*
X134341Y868845D01*
X134343Y868846D01*
X134343Y869625D01*
X135679Y870961D01*
X139550Y870961D01*
X139555Y870966D01*
X139555Y873340D01*
X139746Y873530D01*
X139746Y873532D01*
X139747Y873533D01*
X139746Y873535D01*
X139746Y873537D01*
X139744Y873537D01*
X139742Y873539D01*
X137504Y873539D01*
X134486Y876557D01*
X134483Y876558D01*
X134482Y876559D01*
X127474Y876559D01*
X127469Y876554D01*
X127470Y876554D01*
X127469Y876554D01*
X127469Y874908D01*
X125232Y872671D01*
X117468Y872671D01*
X115231Y874908D01*
X115231Y882772D01*
X117468Y885009D01*
X125232Y885009D01*
X127469Y882772D01*
X127469Y881126D01*
X127474Y881121D01*
X127474Y881122D01*
X127474Y881121D01*
X134482Y881121D01*
X134484Y881123D01*
X134486Y881123D01*
X137504Y884141D01*
X141896Y884141D01*
X145001Y881036D01*
X145001Y876644D01*
X144810Y876454D01*
X144810Y876452D01*
X144809Y876451D01*
X144810Y876449D01*
X144810Y876447D01*
X144812Y876447D01*
X144814Y876445D01*
X147052Y876445D01*
X150157Y873340D01*
X150157Y868948D01*
X147052Y865843D01*
X142660Y865843D01*
X142106Y866397D01*
X142103Y866398D01*
X142102Y866399D01*
X138910Y866399D01*
X138905Y866394D01*
X138906Y866394D01*
X138905Y866394D01*
X138905Y858111D01*
X137569Y856775D01*
X136086Y856775D01*
X136081Y856770D01*
X136082Y856770D01*
X136081Y856770D01*
X136081Y851024D01*
X136086Y851019D01*
X136086Y851020D01*
X136086Y851019D01*
X138289Y851019D01*
X139369Y849939D01*
X139369Y846461D01*
X139330Y846422D01*
X139330Y846415D01*
X139814Y845931D01*
X140190Y845279D01*
X140385Y844552D01*
X140385Y843205D01*
X133800Y843205D01*
X133795Y843201D01*
X133795Y843200D01*
X133796Y843200D01*
X133795Y843200D01*
X133800Y843195D01*
X140385Y843195D01*
X140385Y841848D01*
X140190Y841121D01*
X139825Y840489D01*
X139825Y840488D01*
X139825Y840487D01*
X139826Y840485D01*
X139826Y840482D01*
X139828Y840483D01*
X139829Y840481D01*
X150142Y840481D01*
X150147Y840486D01*
X150146Y840486D01*
X150147Y840486D01*
X150147Y859973D01*
X151483Y861309D01*
X160274Y861309D01*
X160279Y861314D01*
X160278Y861314D01*
X160279Y861314D01*
X160279Y889254D01*
X160274Y889259D01*
X160274Y889258D01*
X160274Y889259D01*
X87955Y889259D01*
X86619Y890595D01*
X86619Y907034D01*
X86614Y907039D01*
X86614Y907038D01*
X86614Y907039D01*
X72654Y907039D01*
X72649Y907034D01*
X72650Y907034D01*
X72649Y907034D01*
X72649Y903691D01*
X71759Y902801D01*
X58001Y902801D01*
X57111Y903691D01*
X57111Y914949D01*
X58001Y915839D01*
X71759Y915839D01*
X72649Y914949D01*
X72649Y911606D01*
X72654Y911601D01*
X72654Y911602D01*
X72654Y911601D01*
X97526Y911601D01*
X97531Y911606D01*
X97530Y911606D01*
X97531Y911606D01*
X97531Y914949D01*
X98421Y915839D01*
X112179Y915839D01*
X113069Y914949D01*
X113069Y903691D01*
X112179Y902801D01*
X98421Y902801D01*
X97531Y903691D01*
X97531Y907034D01*
X97526Y907039D01*
X97526Y907038D01*
X97526Y907039D01*
X91186Y907039D01*
X91181Y907034D01*
X91182Y907034D01*
X91181Y907034D01*
X91181Y893826D01*
X91186Y893821D01*
X91186Y893822D01*
X91186Y893821D01*
X134874Y893821D01*
X134879Y893826D01*
X134878Y893826D01*
X134879Y893826D01*
X134879Y907034D01*
X134874Y907039D01*
X134874Y907038D01*
X134874Y907039D01*
X131074Y907039D01*
X131069Y907034D01*
X131070Y907034D01*
X131069Y907034D01*
X131069Y903691D01*
X130179Y902801D01*
X116421Y902801D01*
X115531Y903691D01*
X115531Y914949D01*
X116421Y915839D01*
X130179Y915839D01*
X131069Y914949D01*
X131069Y911606D01*
X131074Y911601D01*
X131074Y911602D01*
X131074Y911601D01*
X155946Y911601D01*
X155951Y911606D01*
X155950Y911606D01*
X155951Y911606D01*
X155951Y914949D01*
X156841Y915839D01*
X170599Y915839D01*
X171489Y914949D01*
X171489Y903691D01*
X170599Y902801D01*
X156841Y902801D01*
X155951Y903691D01*
X155951Y907034D01*
X155946Y907039D01*
X155946Y907038D01*
X155946Y907039D01*
X139446Y907039D01*
X139441Y907034D01*
X139442Y907034D01*
X139441Y907034D01*
X139441Y896874D01*
X139446Y896869D01*
X139446Y896870D01*
X139446Y896869D01*
X166553Y896869D01*
X167889Y895533D01*
X167889Y855035D01*
X166553Y853699D01*
X159766Y853699D01*
X159761Y853694D01*
X159762Y853694D01*
X159761Y853694D01*
X159761Y849104D01*
X159766Y849099D01*
X159766Y849100D01*
X159766Y849099D01*
X179589Y849099D01*
X180479Y848209D01*
X180479Y835951D01*
X179589Y835061D01*
X159766Y835061D01*
X159761Y835056D01*
X159762Y835056D01*
X159761Y835056D01*
X159761Y834179D01*
X158425Y832843D01*
X155106Y832843D01*
X155105Y832842D01*
X155103Y832842D01*
X155103Y832840D01*
X155101Y832838D01*
X155103Y832837D01*
X155103Y832834D01*
X157701Y830236D01*
X157701Y825844D01*
X154596Y822739D01*
X150204Y822739D01*
X147099Y825844D01*
X147099Y825914D01*
X147094Y825919D01*
X147094Y825918D01*
X147094Y825919D01*
X138829Y825919D01*
X138827Y825917D01*
X138825Y825917D01*
X138289Y825381D01*
X129311Y825381D01*
X128828Y825864D01*
X128826Y825864D01*
X128825Y825866D01*
X128823Y825865D01*
X128821Y825865D01*
X128821Y825862D01*
X128819Y825861D01*
X128819Y824571D01*
X127929Y823681D01*
X126639Y823681D01*
X126638Y823680D01*
X126636Y823680D01*
X126636Y823678D01*
X126634Y823676D01*
X126636Y823675D01*
X126636Y823672D01*
X127119Y823189D01*
X127119Y820986D01*
X127124Y820981D01*
X127124Y820982D01*
X127124Y820981D01*
X158436Y820981D01*
X158441Y820986D01*
X158440Y820986D01*
X158441Y820986D01*
X158441Y825209D01*
X159331Y826099D01*
X179589Y826099D01*
X180479Y825209D01*
X180479Y822706D01*
X180484Y822701D01*
X180484Y822702D01*
X180484Y822701D01*
X180594Y822701D01*
X180599Y822706D01*
X180598Y822706D01*
X180599Y822706D01*
X180599Y851154D01*
X180594Y851159D01*
X180594Y851158D01*
X180594Y851159D01*
X179065Y851159D01*
X177729Y852495D01*
X177729Y859966D01*
X177724Y859971D01*
X177724Y859970D01*
X177724Y859971D01*
X176786Y859971D01*
X174791Y861966D01*
X174791Y870314D01*
X176786Y872309D01*
X183234Y872309D01*
X185229Y870314D01*
X185229Y861966D01*
X183234Y859971D01*
X182296Y859971D01*
X182291Y859966D01*
X182292Y859966D01*
X182291Y859966D01*
X182291Y855726D01*
X182296Y855721D01*
X182296Y855722D01*
X182296Y855721D01*
X183825Y855721D01*
X185161Y854385D01*
X185161Y796045D01*
X183825Y794709D01*
X173814Y794709D01*
X173809Y794704D01*
X173810Y794704D01*
X173809Y794704D01*
X173809Y793108D01*
X171572Y790871D01*
X163708Y790871D01*
X161471Y793108D01*
X161471Y800872D01*
X163708Y803109D01*
X171572Y803109D01*
X173809Y800872D01*
X173809Y799276D01*
X173814Y799271D01*
X173814Y799272D01*
X173814Y799271D01*
X180594Y799271D01*
X180599Y799276D01*
X180599Y818134D01*
X180594Y818139D01*
X180594Y818138D01*
X180594Y818139D01*
X180484Y818139D01*
X180479Y818134D01*
X180480Y818134D01*
X180479Y818134D01*
X180479Y812951D01*
X179589Y812061D01*
X159331Y812061D01*
X158441Y812951D01*
X158441Y816414D01*
X158436Y816419D01*
X158436Y816418D01*
X158436Y816419D01*
X153582Y816419D01*
X153581Y816418D01*
X153579Y816418D01*
X153579Y816416D01*
X153577Y816414D01*
X153579Y816413D01*
X153579Y816410D01*
X155161Y814828D01*
X155161Y810436D01*
X152056Y807331D01*
X147664Y807331D01*
X147018Y807977D01*
X147015Y807978D01*
X147014Y807979D01*
X118355Y807979D01*
X117019Y809315D01*
X117019Y812671D01*
X117018Y812671D01*
X117018Y812672D01*
X117017Y812673D01*
X117014Y812675D01*
X117013Y812674D01*
X117011Y812675D01*
X116379Y812310D01*
X115652Y812115D01*
X114305Y812115D01*
X114305Y818700D01*
X114301Y818705D01*
X114300Y818705D01*
X114300Y818704D01*
X114300Y818705D01*
X114295Y818700D01*
X114295Y812115D01*
X112948Y812115D01*
X112221Y812310D01*
X111589Y812675D01*
X111588Y812675D01*
X111587Y812675D01*
X111585Y812674D01*
X111582Y812674D01*
X111583Y812672D01*
X111581Y812671D01*
X111581Y806775D01*
X110245Y805439D01*
X106818Y805439D01*
X106816Y805437D01*
X106814Y805437D01*
X103796Y802419D01*
X99404Y802419D01*
X96299Y805524D01*
X96299Y809916D01*
X99404Y813021D01*
X103796Y813021D01*
X106814Y810003D01*
X106817Y810002D01*
X106818Y810001D01*
X107014Y810001D01*
X107019Y810006D01*
X107018Y810006D01*
X107019Y810006D01*
X107019Y813671D01*
X107017Y813673D01*
X107017Y813675D01*
X106804Y813888D01*
X106801Y813889D01*
X106800Y813890D01*
X106799Y813889D01*
X106797Y813889D01*
X106797Y813888D01*
X106796Y813888D01*
X106039Y813131D01*
X102561Y813131D01*
X101481Y814211D01*
X101481Y816414D01*
X101476Y816419D01*
X101476Y816418D01*
X101476Y816419D01*
X91186Y816419D01*
X91181Y816414D01*
X91182Y816414D01*
X91181Y816414D01*
X91181Y812938D01*
X91183Y812936D01*
X91183Y812934D01*
X94201Y809916D01*
X94201Y805524D01*
X91096Y802419D01*
X86704Y802419D01*
X83599Y805524D01*
X83599Y809916D01*
X86617Y812934D01*
X86618Y812937D01*
X86619Y812938D01*
X86619Y819645D01*
X87955Y820981D01*
X101476Y820981D01*
X101481Y820986D01*
X101480Y820986D01*
X101481Y820986D01*
X101481Y823189D01*
X101964Y823672D01*
X101964Y823674D01*
X101966Y823675D01*
X101965Y823677D01*
X101965Y823679D01*
X101962Y823679D01*
X101961Y823681D01*
X100671Y823681D01*
X99781Y824571D01*
X99781Y825861D01*
X99780Y825862D01*
X99780Y825864D01*
X99778Y825864D01*
X99776Y825866D01*
X99775Y825865D01*
X99774Y825864D01*
X99772Y825864D01*
X99289Y825381D01*
X90311Y825381D01*
X89775Y825917D01*
X89772Y825918D01*
X89771Y825919D01*
X87574Y825919D01*
X87569Y825914D01*
X87570Y825914D01*
X87569Y825914D01*
X87569Y824936D01*
X84464Y821831D01*
X80072Y821831D01*
X78490Y823413D01*
X78488Y823413D01*
X78487Y823415D01*
X78485Y823414D01*
X78483Y823414D01*
X78483Y823411D01*
X78481Y823410D01*
X78481Y802386D01*
X78486Y802381D01*
X78486Y802382D01*
X78486Y802381D01*
X158425Y802381D01*
X159761Y801045D01*
X159761Y769366D01*
X159766Y769361D01*
X159766Y769362D01*
X159766Y769361D01*
X218440Y769361D01*
X218445Y769366D01*
X218444Y769366D01*
X218445Y769366D01*
X218445Y893417D01*
X218444Y893418D01*
X218444Y893419D01*
X218443Y893420D01*
X218440Y893422D01*
X218439Y893421D01*
X218437Y893421D01*
X217576Y892924D01*
X216347Y892595D01*
X213365Y892595D01*
X213365Y899730D01*
X213365Y906865D01*
X216347Y906865D01*
X217576Y906536D01*
X218437Y906039D01*
X218438Y906039D01*
X218439Y906038D01*
X218441Y906039D01*
X218444Y906040D01*
X218443Y906042D01*
X218445Y906043D01*
X218445Y908852D01*
X218444Y908853D01*
X218444Y908855D01*
X218442Y908855D01*
X218440Y908857D01*
X218439Y908855D01*
X218436Y908855D01*
X217292Y907711D01*
X209428Y907711D01*
X207191Y909948D01*
X207191Y917712D01*
X209209Y919730D01*
X209209Y919732D01*
X209211Y919733D01*
X209209Y919735D01*
X209210Y919737D01*
X209207Y919737D01*
X209206Y919739D01*
X202946Y919739D01*
X202941Y919734D01*
X202942Y919734D01*
X202941Y919734D01*
X202941Y914538D01*
X202943Y914536D01*
X202943Y914534D01*
X205961Y911516D01*
X205961Y907124D01*
X202856Y904019D01*
X198464Y904019D01*
X195446Y907037D01*
X195443Y907038D01*
X195442Y907039D01*
X189494Y907039D01*
X189489Y907034D01*
X189490Y907034D01*
X189489Y907034D01*
X189489Y903691D01*
X188599Y902801D01*
X174841Y902801D01*
X173951Y903691D01*
X173951Y914949D01*
X174841Y915839D01*
X188599Y915839D01*
X189489Y914949D01*
X189489Y911606D01*
X189494Y911601D01*
X189494Y911602D01*
X189494Y911601D01*
X195442Y911601D01*
X195444Y911603D01*
X195446Y911603D01*
X198377Y914534D01*
X198377Y914536D01*
X198378Y914536D01*
X198377Y914536D01*
X198378Y914537D01*
X198379Y914538D01*
X198379Y922965D01*
X199715Y924301D01*
X214305Y924301D01*
X215641Y922965D01*
X215641Y919954D01*
X215646Y919949D01*
X215646Y919950D01*
X215646Y919949D01*
X217292Y919949D01*
X218436Y918805D01*
X218438Y918805D01*
X218439Y918803D01*
X218441Y918805D01*
X218443Y918804D01*
X218443Y918807D01*
X218445Y918808D01*
X218445Y939800D01*
X218440Y939805D01*
X9906Y939805D01*
X9901Y939801D01*
X9902Y939800D01*
X9901Y939800D01*
X9901Y884236D01*
X9906Y884231D01*
X9906Y884232D01*
X9906Y884231D01*
X11606Y884231D01*
X11611Y884236D01*
X11610Y884236D01*
X11611Y884236D01*
X11611Y885832D01*
X13848Y888069D01*
X21712Y888069D01*
X23949Y885832D01*
X23949Y878068D01*
X21712Y875831D01*
X20066Y875831D01*
X20061Y875826D01*
X20062Y875826D01*
X20061Y875826D01*
X20061Y864074D01*
X20066Y864069D01*
X20066Y864070D01*
X20066Y864069D01*
X21712Y864069D01*
X23949Y861832D01*
X23949Y854068D01*
X21712Y851831D01*
X13848Y851831D01*
X11611Y854068D01*
X11611Y861832D01*
X13848Y864069D01*
X15494Y864069D01*
X15499Y864074D01*
X15498Y864074D01*
X15499Y864074D01*
X15499Y875826D01*
X15494Y875831D01*
X15494Y875830D01*
X15494Y875831D01*
X13848Y875831D01*
X11611Y878068D01*
X11611Y879664D01*
X11606Y879669D01*
X11606Y879668D01*
X11606Y879669D01*
X6675Y879669D01*
X5564Y880780D01*
X5562Y880780D01*
X5561Y880782D01*
X5559Y880780D01*
X5557Y880781D01*
X5557Y880778D01*
X5555Y880777D01*
X5555Y634746D01*
X5560Y634741D01*
X5560Y634742D01*
X5560Y634741D01*
X20574Y634741D01*
X20579Y634746D01*
X20579Y637066D01*
X20574Y637071D01*
X20574Y637070D01*
X20574Y637071D01*
X18686Y637071D01*
X16691Y639066D01*
X16691Y645514D01*
X18686Y647509D01*
X27034Y647509D01*
X29029Y645514D01*
X29029Y644576D01*
X29034Y644571D01*
X29034Y644572D01*
X29034Y644571D01*
X30342Y644571D01*
X30344Y644573D01*
X30346Y644573D01*
X33364Y647591D01*
X37756Y647591D01*
X40861Y644486D01*
X40861Y640094D01*
X37756Y636989D01*
X33364Y636989D01*
X30346Y640007D01*
X30343Y640008D01*
X30342Y640008D01*
X30342Y640009D01*
X29034Y640009D01*
X29029Y640004D01*
X29029Y639066D01*
X27034Y637071D01*
X25146Y637071D01*
X25141Y637066D01*
X25142Y637066D01*
X25141Y637066D01*
X25141Y631515D01*
X23805Y630179D01*
X8608Y630179D01*
X8603Y630174D01*
X8604Y630174D01*
X8603Y630174D01*
X8603Y629666D01*
X8608Y629661D01*
X8608Y629662D01*
X8608Y629661D01*
X45974Y629661D01*
X45979Y629666D01*
G37*
%LPC*%
G36*
X77455Y33025D02*
X77455Y33025D01*
X77455Y43055D01*
X86881Y43055D01*
X86882Y43056D01*
X86884Y43056D01*
X86884Y43058D01*
X86886Y43060D01*
X86884Y43061D01*
X86884Y43064D01*
X83088Y46860D01*
X80895Y52155D01*
X80895Y57885D01*
X83088Y63180D01*
X87140Y67232D01*
X92435Y69425D01*
X97236Y69425D01*
X97241Y69430D01*
X97240Y69430D01*
X97241Y69430D01*
X97241Y77881D01*
X99619Y80259D01*
X100736Y80259D01*
X100741Y80264D01*
X100740Y80264D01*
X100741Y80264D01*
X100741Y86806D01*
X100736Y86811D01*
X100736Y86810D01*
X100736Y86811D01*
X87274Y86811D01*
X87272Y86809D01*
X87270Y86809D01*
X85212Y84751D01*
X77348Y84751D01*
X75290Y86809D01*
X75287Y86810D01*
X75286Y86811D01*
X43942Y86811D01*
X43937Y86806D01*
X43938Y86806D01*
X43937Y86806D01*
X43937Y74519D01*
X41559Y72141D01*
X35539Y72141D01*
X35536Y72138D01*
X35534Y72138D01*
X34655Y70016D01*
X31584Y66945D01*
X27572Y65283D01*
X23228Y65283D01*
X19216Y66945D01*
X16145Y70016D01*
X14483Y74028D01*
X14483Y78372D01*
X16145Y82384D01*
X19216Y85455D01*
X23228Y87117D01*
X27572Y87117D01*
X31584Y85455D01*
X34655Y82384D01*
X35534Y80262D01*
X35537Y80261D01*
X35539Y80259D01*
X35814Y80259D01*
X35819Y80264D01*
X35818Y80264D01*
X35819Y80264D01*
X35819Y92551D01*
X38197Y94929D01*
X75286Y94929D01*
X75288Y94931D01*
X75290Y94931D01*
X77348Y96989D01*
X85212Y96989D01*
X87270Y94931D01*
X87273Y94930D01*
X87274Y94929D01*
X100526Y94929D01*
X100531Y94934D01*
X100530Y94934D01*
X100531Y94934D01*
X100531Y107928D01*
X101421Y108818D01*
X108179Y108818D01*
X109062Y107935D01*
X109063Y107935D01*
X109065Y107935D01*
X109066Y107935D01*
X109069Y107935D01*
X109069Y107936D01*
X109070Y107937D01*
X109401Y108735D01*
X110114Y109448D01*
X111046Y109834D01*
X114295Y109834D01*
X114295Y101299D01*
X114295Y92764D01*
X111046Y92764D01*
X110114Y93150D01*
X109401Y93863D01*
X109070Y94661D01*
X109069Y94661D01*
X109070Y94662D01*
X109068Y94662D01*
X109066Y94663D01*
X109064Y94664D01*
X109064Y94663D01*
X109062Y94663D01*
X108861Y94461D01*
X108860Y94459D01*
X108859Y94458D01*
X108859Y80264D01*
X108864Y80259D01*
X108864Y80260D01*
X108864Y80259D01*
X119736Y80259D01*
X119741Y80264D01*
X119740Y80264D01*
X119741Y80264D01*
X119741Y94458D01*
X119739Y94459D01*
X119739Y94461D01*
X119538Y94663D01*
X119537Y94663D01*
X119535Y94663D01*
X119534Y94663D01*
X119531Y94663D01*
X119531Y94662D01*
X119530Y94661D01*
X119199Y93863D01*
X118486Y93150D01*
X117554Y92764D01*
X114305Y92764D01*
X114305Y101299D01*
X114305Y109834D01*
X117554Y109834D01*
X118486Y109448D01*
X119199Y108735D01*
X119530Y107937D01*
X119531Y107937D01*
X119530Y107936D01*
X119532Y107936D01*
X119534Y107935D01*
X119536Y107934D01*
X119536Y107935D01*
X119538Y107935D01*
X120421Y108818D01*
X127179Y108818D01*
X128069Y107928D01*
X128069Y94934D01*
X128074Y94929D01*
X128074Y94930D01*
X128074Y94929D01*
X141326Y94929D01*
X141328Y94931D01*
X141330Y94931D01*
X143388Y96989D01*
X151252Y96989D01*
X153489Y94752D01*
X153489Y86988D01*
X151252Y84751D01*
X143388Y84751D01*
X141330Y86809D01*
X141327Y86810D01*
X141326Y86811D01*
X127864Y86811D01*
X127859Y86806D01*
X127860Y86806D01*
X127859Y86806D01*
X127859Y74519D01*
X125481Y72141D01*
X105364Y72141D01*
X105359Y72136D01*
X105360Y72136D01*
X105359Y72136D01*
X105359Y69044D01*
X105364Y69039D01*
X105364Y69040D01*
X105364Y69039D01*
X110429Y69039D01*
X111046Y68422D01*
X111053Y68422D01*
X111054Y68422D01*
X111671Y69039D01*
X116732Y69039D01*
X116734Y69041D01*
X116735Y69041D01*
X117364Y69669D01*
X118296Y70055D01*
X120795Y70055D01*
X120795Y62498D01*
X120797Y62496D01*
X120798Y62493D01*
X120799Y62493D01*
X120802Y62495D01*
X120805Y62496D01*
X120804Y62497D01*
X120805Y62498D01*
X120805Y70055D01*
X123304Y70055D01*
X124048Y69747D01*
X124050Y69748D01*
X124052Y69747D01*
X124796Y70055D01*
X127295Y70055D01*
X127295Y68132D01*
X127295Y68131D01*
X127297Y68130D01*
X127299Y68127D01*
X127300Y68128D01*
X127302Y68127D01*
X127302Y68128D01*
X127304Y68131D01*
X127305Y68132D01*
X127305Y70055D01*
X129804Y70055D01*
X130736Y69669D01*
X130979Y69427D01*
X130981Y69426D01*
X130982Y69425D01*
X136165Y69425D01*
X141460Y67232D01*
X145512Y63180D01*
X147705Y57885D01*
X147705Y52155D01*
X145512Y46860D01*
X141716Y43064D01*
X141716Y43062D01*
X141714Y43061D01*
X141715Y43059D01*
X141715Y43057D01*
X141718Y43057D01*
X141719Y43055D01*
X151145Y43055D01*
X151145Y33025D01*
X139615Y33025D01*
X139615Y41024D01*
X140001Y41956D01*
X140405Y42361D01*
X140406Y42363D01*
X140407Y42366D01*
X140406Y42366D01*
X140406Y42367D01*
X140403Y42368D01*
X140400Y42369D01*
X136165Y40615D01*
X130435Y40615D01*
X129323Y41075D01*
X129322Y41075D01*
X129321Y41075D01*
X129320Y41075D01*
X129319Y41074D01*
X129317Y41073D01*
X129318Y41072D01*
X129317Y41071D01*
X129317Y41070D01*
X129317Y41069D01*
X129335Y41024D01*
X129335Y33025D01*
X114305Y33025D01*
X114305Y43055D01*
X124881Y43055D01*
X124882Y43056D01*
X124884Y43056D01*
X124884Y43058D01*
X124886Y43060D01*
X124884Y43061D01*
X124884Y43064D01*
X121088Y46860D01*
X119588Y50482D01*
X119584Y50483D01*
X119583Y50485D01*
X118296Y50485D01*
X117364Y50871D01*
X116735Y51499D01*
X116733Y51499D01*
X116733Y51500D01*
X116732Y51501D01*
X111671Y51501D01*
X111054Y52118D01*
X111047Y52118D01*
X111046Y52118D01*
X110429Y51501D01*
X109438Y51501D01*
X109435Y51498D01*
X109433Y51498D01*
X107512Y46860D01*
X103716Y43064D01*
X103716Y43062D01*
X103714Y43061D01*
X103715Y43059D01*
X103715Y43057D01*
X103718Y43057D01*
X103719Y43055D01*
X114295Y43055D01*
X114295Y33025D01*
X99265Y33025D01*
X99265Y41024D01*
X99283Y41069D01*
X99283Y41070D01*
X99283Y41072D01*
X99282Y41073D01*
X99281Y41075D01*
X99279Y41074D01*
X99278Y41075D01*
X99277Y41075D01*
X98165Y40615D01*
X92435Y40615D01*
X88200Y42369D01*
X88198Y42368D01*
X88195Y42368D01*
X88195Y42367D01*
X88194Y42367D01*
X88195Y42364D01*
X88195Y42361D01*
X88599Y41956D01*
X88985Y41024D01*
X88985Y33025D01*
X77455Y33025D01*
G37*
%LPD*%
%LPC*%
G36*
X197428Y446283D02*
X197428Y446283D01*
X193416Y447945D01*
X190345Y451016D01*
X188729Y454916D01*
X188726Y454917D01*
X188725Y454919D01*
X184475Y454919D01*
X183139Y456255D01*
X183139Y531114D01*
X183134Y531119D01*
X183134Y531118D01*
X183134Y531119D01*
X129286Y531119D01*
X129281Y531114D01*
X129282Y531114D01*
X129281Y531114D01*
X129281Y525918D01*
X129283Y525916D01*
X129283Y525914D01*
X132301Y522896D01*
X132301Y518504D01*
X129283Y515486D01*
X129282Y515483D01*
X129281Y515482D01*
X129281Y476575D01*
X127945Y475239D01*
X63246Y475239D01*
X63241Y475234D01*
X63242Y475234D01*
X63241Y475234D01*
X63241Y472914D01*
X63246Y472909D01*
X63246Y472910D01*
X63246Y472909D01*
X65134Y472909D01*
X67129Y470914D01*
X67129Y464466D01*
X65134Y462471D01*
X56786Y462471D01*
X54791Y464466D01*
X54791Y470914D01*
X56786Y472909D01*
X58674Y472909D01*
X58679Y472914D01*
X58679Y475234D01*
X58674Y475239D01*
X58674Y475238D01*
X58674Y475239D01*
X49855Y475239D01*
X48519Y476575D01*
X48519Y527226D01*
X48514Y527231D01*
X48514Y527230D01*
X48514Y527231D01*
X47488Y527231D01*
X45251Y529468D01*
X45251Y531114D01*
X45246Y531119D01*
X45246Y531118D01*
X45246Y531119D01*
X36275Y531119D01*
X36272Y531116D01*
X36271Y531116D01*
X34655Y527216D01*
X31584Y524145D01*
X27572Y522483D01*
X23228Y522483D01*
X19216Y524145D01*
X16145Y527216D01*
X14483Y531228D01*
X14483Y535572D01*
X16145Y539584D01*
X19216Y542655D01*
X23228Y544317D01*
X27572Y544317D01*
X31584Y542655D01*
X34655Y539584D01*
X36271Y535684D01*
X36274Y535683D01*
X36275Y535681D01*
X45246Y535681D01*
X45251Y535686D01*
X45250Y535686D01*
X45251Y535686D01*
X45251Y537332D01*
X47488Y539569D01*
X55252Y539569D01*
X57489Y537332D01*
X57489Y529468D01*
X55252Y527231D01*
X53086Y527231D01*
X53081Y527226D01*
X53082Y527226D01*
X53081Y527226D01*
X53081Y479806D01*
X53086Y479801D01*
X53086Y479802D01*
X53086Y479801D01*
X81864Y479801D01*
X81869Y479806D01*
X81868Y479806D01*
X81869Y479806D01*
X81869Y484046D01*
X81864Y484051D01*
X81864Y484050D01*
X81864Y484051D01*
X80926Y484051D01*
X78931Y486046D01*
X78931Y494394D01*
X80926Y496389D01*
X87374Y496389D01*
X89369Y494394D01*
X89369Y486046D01*
X87374Y484051D01*
X86436Y484051D01*
X86431Y484046D01*
X86432Y484046D01*
X86431Y484046D01*
X86431Y479806D01*
X86436Y479801D01*
X86436Y479802D01*
X86436Y479801D01*
X124714Y479801D01*
X124719Y479806D01*
X124718Y479806D01*
X124719Y479806D01*
X124719Y515482D01*
X124717Y515484D01*
X124717Y515486D01*
X121699Y518504D01*
X121699Y522896D01*
X124717Y525914D01*
X124718Y525917D01*
X124719Y525918D01*
X124719Y534345D01*
X126055Y535681D01*
X188725Y535681D01*
X188728Y535684D01*
X188729Y535684D01*
X190345Y539584D01*
X193416Y542655D01*
X197428Y544317D01*
X201772Y544317D01*
X205784Y542655D01*
X208855Y539584D01*
X210517Y535572D01*
X210517Y531228D01*
X208855Y527216D01*
X205784Y524145D01*
X201772Y522483D01*
X197428Y522483D01*
X193416Y524145D01*
X190345Y527216D01*
X188729Y531116D01*
X188726Y531117D01*
X188725Y531119D01*
X187706Y531119D01*
X187701Y531114D01*
X187702Y531114D01*
X187701Y531114D01*
X187701Y509219D01*
X187703Y509217D01*
X187705Y509215D01*
X187706Y509214D01*
X187708Y509217D01*
X187711Y509219D01*
X187961Y510794D01*
X188541Y512581D01*
X189394Y514254D01*
X190498Y515774D01*
X191826Y517102D01*
X193346Y518206D01*
X195019Y519059D01*
X196806Y519639D01*
X198661Y519933D01*
X199595Y519933D01*
X199595Y508000D01*
X199595Y496067D01*
X198661Y496067D01*
X196806Y496361D01*
X195019Y496941D01*
X193346Y497794D01*
X191826Y498898D01*
X190498Y500226D01*
X189394Y501746D01*
X188541Y503419D01*
X187961Y505206D01*
X187711Y506781D01*
X187709Y506783D01*
X187707Y506786D01*
X187706Y506785D01*
X187706Y506786D01*
X187704Y506783D01*
X187701Y506781D01*
X187701Y483819D01*
X187703Y483817D01*
X187705Y483815D01*
X187706Y483814D01*
X187708Y483817D01*
X187711Y483819D01*
X187961Y485394D01*
X188541Y487181D01*
X189394Y488854D01*
X190498Y490374D01*
X191826Y491702D01*
X193346Y492806D01*
X195019Y493659D01*
X196806Y494239D01*
X198661Y494533D01*
X199595Y494533D01*
X199595Y482600D01*
X199595Y470667D01*
X198661Y470667D01*
X196806Y470961D01*
X195019Y471541D01*
X193346Y472394D01*
X191826Y473498D01*
X190498Y474826D01*
X189394Y476346D01*
X188541Y478019D01*
X187961Y479806D01*
X187711Y481381D01*
X187709Y481383D01*
X187707Y481386D01*
X187706Y481385D01*
X187706Y481386D01*
X187704Y481383D01*
X187701Y481381D01*
X187701Y459486D01*
X187706Y459481D01*
X187706Y459482D01*
X187706Y459481D01*
X188725Y459481D01*
X188728Y459484D01*
X188729Y459484D01*
X190345Y463384D01*
X193416Y466455D01*
X197428Y468117D01*
X201772Y468117D01*
X205784Y466455D01*
X208855Y463384D01*
X210517Y459372D01*
X210517Y455028D01*
X208855Y451016D01*
X205784Y447945D01*
X201772Y446283D01*
X197428Y446283D01*
G37*
%LPD*%
%LPC*%
G36*
X204348Y790871D02*
X204348Y790871D01*
X202111Y793108D01*
X202111Y794704D01*
X202106Y794709D01*
X202106Y794708D01*
X202106Y794709D01*
X192095Y794709D01*
X190759Y796045D01*
X190759Y797422D01*
X190757Y797424D01*
X190757Y797426D01*
X187739Y800444D01*
X187739Y804836D01*
X190757Y807854D01*
X190757Y807856D01*
X190759Y807857D01*
X190758Y807857D01*
X190759Y807858D01*
X190759Y854385D01*
X192095Y855721D01*
X193624Y855721D01*
X193629Y855726D01*
X193629Y859966D01*
X193624Y859971D01*
X193624Y859970D01*
X193624Y859971D01*
X192686Y859971D01*
X190691Y861966D01*
X190691Y870314D01*
X192686Y872309D01*
X199134Y872309D01*
X201129Y870314D01*
X201129Y861966D01*
X199134Y859971D01*
X198196Y859971D01*
X198191Y859966D01*
X198192Y859966D01*
X198191Y859966D01*
X198191Y852495D01*
X196855Y851159D01*
X195326Y851159D01*
X195321Y851154D01*
X195322Y851154D01*
X195321Y851154D01*
X195321Y844366D01*
X195326Y844361D01*
X195326Y844362D01*
X195326Y844361D01*
X195436Y844361D01*
X195441Y844366D01*
X195440Y844366D01*
X195441Y844366D01*
X195441Y848209D01*
X196331Y849099D01*
X216589Y849099D01*
X217479Y848209D01*
X217479Y835951D01*
X216589Y835061D01*
X196331Y835061D01*
X195441Y835951D01*
X195441Y839794D01*
X195436Y839799D01*
X195436Y839798D01*
X195436Y839799D01*
X195326Y839799D01*
X195321Y839794D01*
X195322Y839794D01*
X195321Y839794D01*
X195321Y807858D01*
X195323Y807856D01*
X195323Y807854D01*
X198341Y804836D01*
X198341Y800444D01*
X197177Y799280D01*
X197177Y799278D01*
X197176Y799277D01*
X197175Y799277D01*
X197176Y799275D01*
X197176Y799273D01*
X197179Y799273D01*
X197180Y799271D01*
X202106Y799271D01*
X202111Y799276D01*
X202111Y800872D01*
X204348Y803109D01*
X212212Y803109D01*
X214449Y800872D01*
X214449Y793108D01*
X212212Y790871D01*
X204348Y790871D01*
G37*
%LPD*%
%LPC*%
G36*
X101421Y119782D02*
X101421Y119782D01*
X100531Y120672D01*
X100531Y126684D01*
X100526Y126689D01*
X100526Y126688D01*
X100526Y126689D01*
X87454Y126689D01*
X87449Y126684D01*
X87450Y126684D01*
X87449Y126684D01*
X87449Y125088D01*
X85212Y122851D01*
X77348Y122851D01*
X75111Y125088D01*
X75111Y126684D01*
X75106Y126689D01*
X75106Y126688D01*
X75106Y126689D01*
X67134Y126689D01*
X67129Y126684D01*
X67130Y126684D01*
X67129Y126684D01*
X67129Y125088D01*
X64892Y122851D01*
X57028Y122851D01*
X54791Y125088D01*
X54791Y132852D01*
X57028Y135089D01*
X64892Y135089D01*
X67129Y132852D01*
X67129Y131256D01*
X67134Y131251D01*
X67134Y131252D01*
X67134Y131251D01*
X75106Y131251D01*
X75111Y131256D01*
X75110Y131256D01*
X75111Y131256D01*
X75111Y132852D01*
X77348Y135089D01*
X85212Y135089D01*
X87449Y132852D01*
X87449Y131256D01*
X87454Y131251D01*
X87454Y131252D01*
X87454Y131251D01*
X100526Y131251D01*
X100531Y131256D01*
X100530Y131256D01*
X100531Y131256D01*
X100531Y133930D01*
X101421Y134820D01*
X108179Y134820D01*
X108637Y134363D01*
X108639Y134362D01*
X108640Y134361D01*
X109082Y134361D01*
X109084Y134363D01*
X109086Y134363D01*
X112104Y137381D01*
X116496Y137381D01*
X119601Y134276D01*
X119601Y134013D01*
X119602Y134011D01*
X119602Y134010D01*
X119604Y134009D01*
X119606Y134008D01*
X119607Y134009D01*
X119610Y134009D01*
X120421Y134820D01*
X127179Y134820D01*
X128069Y133930D01*
X128069Y129587D01*
X128074Y129582D01*
X128074Y129583D01*
X128074Y129582D01*
X141146Y129582D01*
X141151Y129587D01*
X141150Y129587D01*
X141151Y129587D01*
X141151Y132852D01*
X143388Y135089D01*
X151252Y135089D01*
X153489Y132852D01*
X153489Y125088D01*
X151252Y122851D01*
X143388Y122851D01*
X141221Y125018D01*
X141218Y125019D01*
X141217Y125020D01*
X128074Y125020D01*
X128069Y125015D01*
X128070Y125015D01*
X128069Y125015D01*
X128069Y120672D01*
X127179Y119782D01*
X120421Y119782D01*
X119531Y120672D01*
X119531Y129802D01*
X119530Y129803D01*
X119530Y129805D01*
X119528Y129805D01*
X119526Y129807D01*
X119525Y129805D01*
X119522Y129805D01*
X116496Y126779D01*
X112104Y126779D01*
X109086Y129797D01*
X109083Y129798D01*
X109082Y129799D01*
X109074Y129799D01*
X109069Y129794D01*
X109070Y129794D01*
X109069Y129794D01*
X109069Y120672D01*
X108179Y119782D01*
X101421Y119782D01*
G37*
%LPD*%
%LPC*%
G36*
X23228Y547883D02*
X23228Y547883D01*
X19216Y549545D01*
X16145Y552616D01*
X14483Y556628D01*
X14483Y560972D01*
X16145Y564984D01*
X19216Y568055D01*
X23228Y569717D01*
X27572Y569717D01*
X31584Y568055D01*
X34655Y564984D01*
X36271Y561084D01*
X36274Y561083D01*
X36275Y561081D01*
X98922Y561081D01*
X98924Y561083D01*
X98926Y561083D01*
X101944Y564101D01*
X106336Y564101D01*
X109441Y560996D01*
X109441Y556604D01*
X106336Y553499D01*
X101944Y553499D01*
X98926Y556517D01*
X98923Y556518D01*
X98922Y556519D01*
X36275Y556519D01*
X36272Y556516D01*
X36271Y556516D01*
X34655Y552616D01*
X31584Y549545D01*
X27572Y547883D01*
X23228Y547883D01*
G37*
%LPD*%
%LPC*%
G36*
X197428Y547883D02*
X197428Y547883D01*
X193416Y549545D01*
X190345Y552616D01*
X188729Y556516D01*
X188726Y556517D01*
X188725Y556519D01*
X177938Y556519D01*
X177936Y556517D01*
X177934Y556517D01*
X174916Y553499D01*
X170524Y553499D01*
X167419Y556604D01*
X167419Y560996D01*
X170524Y564101D01*
X174916Y564101D01*
X177934Y561083D01*
X177937Y561082D01*
X177938Y561081D01*
X188725Y561081D01*
X188728Y561084D01*
X188729Y561084D01*
X190345Y564984D01*
X193416Y568055D01*
X197428Y569717D01*
X201772Y569717D01*
X205784Y568055D01*
X208855Y564984D01*
X210517Y560972D01*
X210517Y556628D01*
X208855Y552616D01*
X205784Y549545D01*
X201772Y547883D01*
X197428Y547883D01*
G37*
%LPD*%
%LPC*%
G36*
X197428Y573283D02*
X197428Y573283D01*
X193416Y574945D01*
X190345Y578016D01*
X188729Y581916D01*
X188726Y581917D01*
X188725Y581919D01*
X177938Y581919D01*
X177936Y581917D01*
X177934Y581917D01*
X174916Y578899D01*
X170524Y578899D01*
X167419Y582004D01*
X167419Y586396D01*
X170524Y589501D01*
X174916Y589501D01*
X177934Y586483D01*
X177937Y586482D01*
X177938Y586481D01*
X188725Y586481D01*
X188728Y586484D01*
X188729Y586484D01*
X190345Y590384D01*
X193416Y593455D01*
X197428Y595117D01*
X201772Y595117D01*
X205784Y593455D01*
X208855Y590384D01*
X210517Y586372D01*
X210517Y582028D01*
X208855Y578016D01*
X205784Y574945D01*
X201772Y573283D01*
X197428Y573283D01*
G37*
%LPD*%
%LPC*%
G36*
X13848Y889931D02*
X13848Y889931D01*
X11611Y892168D01*
X11611Y899932D01*
X13848Y902169D01*
X15494Y902169D01*
X15499Y902174D01*
X15499Y910265D01*
X16835Y911601D01*
X39106Y911601D01*
X39111Y911606D01*
X39110Y911606D01*
X39111Y911606D01*
X39111Y914949D01*
X40001Y915839D01*
X53759Y915839D01*
X54649Y914949D01*
X54649Y903691D01*
X53759Y902801D01*
X40001Y902801D01*
X39111Y903691D01*
X39111Y907034D01*
X39106Y907039D01*
X39106Y907038D01*
X39106Y907039D01*
X20066Y907039D01*
X20061Y907034D01*
X20062Y907034D01*
X20061Y907034D01*
X20061Y902174D01*
X20066Y902169D01*
X20066Y902170D01*
X20066Y902169D01*
X21712Y902169D01*
X23949Y899932D01*
X23949Y892168D01*
X21712Y889931D01*
X13848Y889931D01*
G37*
%LPD*%
%LPC*%
G36*
X63844Y652889D02*
X63844Y652889D01*
X60826Y655907D01*
X60823Y655908D01*
X60822Y655908D01*
X60822Y655909D01*
X54434Y655909D01*
X54429Y655904D01*
X54429Y654966D01*
X52434Y652971D01*
X44086Y652971D01*
X42091Y654966D01*
X42091Y655904D01*
X42086Y655909D01*
X42086Y655908D01*
X42086Y655909D01*
X29034Y655909D01*
X29029Y655904D01*
X29029Y654966D01*
X27034Y652971D01*
X18686Y652971D01*
X16691Y654966D01*
X16691Y661414D01*
X18686Y663409D01*
X27034Y663409D01*
X29029Y661414D01*
X29029Y660476D01*
X29034Y660471D01*
X29034Y660472D01*
X29034Y660471D01*
X42086Y660471D01*
X42091Y660476D01*
X42090Y660476D01*
X42091Y660476D01*
X42091Y661414D01*
X44086Y663409D01*
X52434Y663409D01*
X54429Y661414D01*
X54429Y660476D01*
X54434Y660471D01*
X54434Y660472D01*
X54434Y660471D01*
X60822Y660471D01*
X60824Y660473D01*
X60826Y660473D01*
X63844Y663491D01*
X68236Y663491D01*
X71341Y660386D01*
X71341Y655994D01*
X68236Y652889D01*
X63844Y652889D01*
G37*
%LPD*%
%LPC*%
G36*
X197428Y90683D02*
X197428Y90683D01*
X193416Y92345D01*
X190345Y95416D01*
X188683Y99428D01*
X188683Y103772D01*
X190345Y107784D01*
X193416Y110855D01*
X197428Y112517D01*
X201772Y112517D01*
X205784Y110855D01*
X208855Y107784D01*
X210517Y103772D01*
X210517Y99428D01*
X208855Y95416D01*
X205784Y92345D01*
X201772Y90683D01*
X197428Y90683D01*
G37*
%LPD*%
%LPC*%
G36*
X197428Y65283D02*
X197428Y65283D01*
X193416Y66945D01*
X190345Y70016D01*
X188683Y74028D01*
X188683Y78372D01*
X190345Y82384D01*
X193416Y85455D01*
X197428Y87117D01*
X201772Y87117D01*
X205784Y85455D01*
X208855Y82384D01*
X210517Y78372D01*
X210517Y74028D01*
X208855Y70016D01*
X205784Y66945D01*
X201772Y65283D01*
X197428Y65283D01*
G37*
%LPD*%
%LPC*%
G36*
X197428Y14483D02*
X197428Y14483D01*
X193416Y16145D01*
X190345Y19216D01*
X188683Y23228D01*
X188683Y27572D01*
X190345Y31584D01*
X193416Y34655D01*
X197428Y36317D01*
X201772Y36317D01*
X205784Y34655D01*
X208855Y31584D01*
X210517Y27572D01*
X210517Y23228D01*
X208855Y19216D01*
X205784Y16145D01*
X201772Y14483D01*
X197428Y14483D01*
G37*
%LPD*%
%LPC*%
G36*
X23228Y573283D02*
X23228Y573283D01*
X19216Y574945D01*
X16145Y578016D01*
X14483Y582028D01*
X14483Y586372D01*
X16145Y590384D01*
X19216Y593455D01*
X23228Y595117D01*
X27572Y595117D01*
X31584Y593455D01*
X34655Y590384D01*
X36317Y586372D01*
X36317Y582028D01*
X34655Y578016D01*
X31584Y574945D01*
X27572Y573283D01*
X23228Y573283D01*
G37*
%LPD*%
%LPC*%
G36*
X23228Y14483D02*
X23228Y14483D01*
X19216Y16145D01*
X16145Y19216D01*
X14483Y23228D01*
X14483Y27572D01*
X16145Y31584D01*
X19216Y34655D01*
X23228Y36317D01*
X27572Y36317D01*
X31584Y34655D01*
X34655Y31584D01*
X36317Y27572D01*
X36317Y23228D01*
X34655Y19216D01*
X31584Y16145D01*
X27572Y14483D01*
X23228Y14483D01*
G37*
%LPD*%
%LPC*%
G36*
X104313Y871655D02*
X104313Y871655D01*
X103084Y871984D01*
X101981Y872621D01*
X101081Y873521D01*
X100444Y874624D01*
X100311Y875123D01*
X100310Y875124D01*
X100310Y875125D01*
X100308Y875125D01*
X100305Y875127D01*
X100304Y875125D01*
X100302Y875125D01*
X98716Y873539D01*
X94324Y873539D01*
X91306Y876557D01*
X91303Y876558D01*
X91302Y876559D01*
X86834Y876559D01*
X86829Y876554D01*
X86830Y876554D01*
X86829Y876554D01*
X86829Y874666D01*
X84834Y872671D01*
X78386Y872671D01*
X76391Y874666D01*
X76391Y883014D01*
X78386Y885009D01*
X84834Y885009D01*
X86829Y883014D01*
X86829Y881126D01*
X86834Y881121D01*
X86834Y881122D01*
X86834Y881121D01*
X91302Y881121D01*
X91304Y881123D01*
X91306Y881123D01*
X94324Y884141D01*
X98716Y884141D01*
X100302Y882555D01*
X100303Y882555D01*
X100304Y882554D01*
X100306Y882555D01*
X100309Y882554D01*
X100309Y882556D01*
X100311Y882557D01*
X100444Y883056D01*
X101081Y884159D01*
X101981Y885059D01*
X103084Y885696D01*
X104313Y886025D01*
X107245Y886025D01*
X107245Y878840D01*
X107245Y871655D01*
X104313Y871655D01*
G37*
%LPD*%
%LPC*%
G36*
X65026Y484051D02*
X65026Y484051D01*
X63031Y486046D01*
X63031Y494394D01*
X65026Y496389D01*
X65964Y496389D01*
X65969Y496394D01*
X65968Y496394D01*
X65969Y496394D01*
X65969Y501476D01*
X65964Y501481D01*
X65964Y501480D01*
X65964Y501481D01*
X62679Y501481D01*
X60911Y503249D01*
X60911Y512751D01*
X62679Y514519D01*
X72181Y514519D01*
X73949Y512751D01*
X73949Y503249D01*
X72181Y501481D01*
X70536Y501481D01*
X70531Y501476D01*
X70532Y501476D01*
X70531Y501476D01*
X70531Y496394D01*
X70536Y496389D01*
X70536Y496390D01*
X70536Y496389D01*
X71474Y496389D01*
X73469Y494394D01*
X73469Y486046D01*
X71474Y484051D01*
X65026Y484051D01*
G37*
%LPD*%
%LPC*%
G36*
X143766Y484051D02*
X143766Y484051D01*
X141771Y486046D01*
X141771Y494394D01*
X143766Y496389D01*
X144704Y496389D01*
X144709Y496394D01*
X144708Y496394D01*
X144709Y496394D01*
X144709Y501476D01*
X144704Y501481D01*
X144704Y501480D01*
X144704Y501481D01*
X141419Y501481D01*
X139651Y503249D01*
X139651Y512751D01*
X141419Y514519D01*
X150921Y514519D01*
X152689Y512751D01*
X152689Y503249D01*
X150921Y501481D01*
X149276Y501481D01*
X149271Y501476D01*
X149272Y501476D01*
X149271Y501476D01*
X149271Y496394D01*
X149276Y496389D01*
X149276Y496390D01*
X149276Y496389D01*
X150214Y496389D01*
X152209Y494394D01*
X152209Y486046D01*
X150214Y484051D01*
X143766Y484051D01*
G37*
%LPD*%
%LPC*%
G36*
X196331Y812061D02*
X196331Y812061D01*
X195441Y812951D01*
X195441Y825209D01*
X196331Y826099D01*
X216589Y826099D01*
X217479Y825209D01*
X217479Y812951D01*
X216589Y812061D01*
X196331Y812061D01*
G37*
%LPD*%
%LPC*%
G36*
X95831Y210221D02*
X95831Y210221D01*
X94941Y211111D01*
X94941Y223369D01*
X95831Y224259D01*
X116089Y224259D01*
X116979Y223369D01*
X116979Y211111D01*
X116089Y210221D01*
X95831Y210221D01*
G37*
%LPD*%
%LPC*%
G36*
X89244Y274099D02*
X89244Y274099D01*
X88326Y275017D01*
X88323Y275018D01*
X88322Y275019D01*
X81159Y275019D01*
X81158Y275017D01*
X81156Y275017D01*
X80519Y274381D01*
X64481Y274381D01*
X63181Y275681D01*
X63181Y278919D01*
X63340Y279078D01*
X63340Y279085D01*
X62811Y279614D01*
X62385Y280351D01*
X62165Y281174D01*
X62165Y282295D01*
X72500Y282295D01*
X82835Y282295D01*
X82835Y281174D01*
X82615Y280351D01*
X82189Y279614D01*
X82165Y279590D01*
X82165Y279588D01*
X82164Y279587D01*
X82165Y279585D01*
X82165Y279583D01*
X82167Y279583D01*
X82168Y279581D01*
X86134Y279581D01*
X86139Y279586D01*
X86138Y279586D01*
X86139Y279586D01*
X86139Y281596D01*
X89244Y284701D01*
X93636Y284701D01*
X96741Y281596D01*
X96741Y277204D01*
X93636Y274099D01*
X89244Y274099D01*
G37*
%LPD*%
%LPC*%
G36*
X193384Y662719D02*
X193384Y662719D01*
X190279Y665824D01*
X190279Y670216D01*
X190757Y670694D01*
X190758Y670697D01*
X190759Y670698D01*
X190759Y682786D01*
X190754Y682791D01*
X190754Y682790D01*
X190754Y682791D01*
X188866Y682791D01*
X186871Y684786D01*
X186871Y691234D01*
X188866Y693229D01*
X197214Y693229D01*
X199209Y691234D01*
X199209Y684786D01*
X197214Y682791D01*
X195326Y682791D01*
X195321Y682786D01*
X195322Y682786D01*
X195321Y682786D01*
X195321Y673326D01*
X195326Y673321D01*
X195326Y673322D01*
X195326Y673321D01*
X197776Y673321D01*
X200881Y670216D01*
X200881Y665824D01*
X197776Y662719D01*
X193384Y662719D01*
G37*
%LPD*%
G36*
X134879Y632206D02*
X134879Y632206D01*
X134878Y632206D01*
X134879Y632206D01*
X134879Y647954D01*
X134874Y647959D01*
X134874Y647958D01*
X134874Y647959D01*
X126160Y647959D01*
X126159Y647958D01*
X126158Y647958D01*
X126158Y647957D01*
X126155Y647954D01*
X126156Y647953D01*
X126156Y647951D01*
X126202Y647872D01*
X126385Y647187D01*
X126385Y645245D01*
X121950Y645245D01*
X121945Y645241D01*
X121945Y645240D01*
X121945Y640955D01*
X120224Y640955D01*
X120219Y640950D01*
X120220Y640950D01*
X120219Y640950D01*
X120219Y640303D01*
X119237Y639321D01*
X119086Y639321D01*
X119081Y639316D01*
X119082Y639316D01*
X119081Y639316D01*
X119081Y633642D01*
X119082Y633641D01*
X119082Y633639D01*
X119084Y633639D01*
X119086Y633637D01*
X119087Y633638D01*
X119088Y633639D01*
X119090Y633639D01*
X120672Y635221D01*
X125064Y635221D01*
X128082Y632203D01*
X128085Y632203D01*
X128085Y632202D01*
X128086Y632201D01*
X134874Y632201D01*
X134879Y632206D01*
G37*
%LPC*%
G36*
X65915Y33025D02*
X65915Y33025D01*
X65915Y41024D01*
X66301Y41956D01*
X67014Y42669D01*
X67946Y43055D01*
X77445Y43055D01*
X77445Y33025D01*
X65915Y33025D01*
G37*
%LPD*%
%LPC*%
G36*
X151155Y33025D02*
X151155Y33025D01*
X151155Y43055D01*
X160654Y43055D01*
X161586Y42669D01*
X162299Y41956D01*
X162685Y41024D01*
X162685Y33025D01*
X151155Y33025D01*
G37*
%LPD*%
%LPC*%
G36*
X13467Y50805D02*
X13467Y50805D01*
X13467Y51739D01*
X13761Y53594D01*
X14341Y55381D01*
X15194Y57054D01*
X16298Y58574D01*
X17626Y59902D01*
X19146Y61006D01*
X20819Y61859D01*
X22606Y62439D01*
X24461Y62733D01*
X25395Y62733D01*
X25395Y50805D01*
X13467Y50805D01*
G37*
%LPD*%
%LPC*%
G36*
X69855Y414279D02*
X69855Y414279D01*
X69855Y415213D01*
X70149Y417068D01*
X70729Y418855D01*
X71582Y420528D01*
X72686Y422048D01*
X74014Y423376D01*
X75534Y424480D01*
X77207Y425333D01*
X78994Y425913D01*
X80849Y426207D01*
X81783Y426207D01*
X81783Y414279D01*
X69855Y414279D01*
G37*
%LPD*%
%LPC*%
G36*
X25405Y50805D02*
X25405Y50805D01*
X25405Y62733D01*
X26339Y62733D01*
X28194Y62439D01*
X29981Y61859D01*
X31654Y61006D01*
X33174Y59902D01*
X34502Y58574D01*
X35606Y57054D01*
X36459Y55381D01*
X37039Y53594D01*
X37333Y51739D01*
X37333Y50805D01*
X25405Y50805D01*
G37*
%LPD*%
%LPC*%
G36*
X81793Y414279D02*
X81793Y414279D01*
X81793Y426207D01*
X82727Y426207D01*
X84582Y425913D01*
X86369Y425333D01*
X88042Y424480D01*
X89562Y423376D01*
X90890Y422048D01*
X91994Y420528D01*
X92847Y418855D01*
X93427Y417068D01*
X93721Y415213D01*
X93721Y414279D01*
X81793Y414279D01*
G37*
%LPD*%
%LPC*%
G36*
X13467Y609605D02*
X13467Y609605D01*
X13467Y610539D01*
X13761Y612394D01*
X14341Y614181D01*
X15194Y615854D01*
X16298Y617374D01*
X17626Y618702D01*
X19146Y619806D01*
X20819Y620659D01*
X22606Y621239D01*
X24461Y621533D01*
X25395Y621533D01*
X25395Y609605D01*
X13467Y609605D01*
G37*
%LPD*%
%LPC*%
G36*
X187667Y609605D02*
X187667Y609605D01*
X187667Y610539D01*
X187961Y612394D01*
X188541Y614181D01*
X189394Y615854D01*
X190498Y617374D01*
X191826Y618702D01*
X193346Y619806D01*
X195019Y620659D01*
X196806Y621239D01*
X198661Y621533D01*
X199595Y621533D01*
X199595Y609605D01*
X187667Y609605D01*
G37*
%LPD*%
%LPC*%
G36*
X25405Y609605D02*
X25405Y609605D01*
X25405Y621533D01*
X26339Y621533D01*
X28194Y621239D01*
X29981Y620659D01*
X31654Y619806D01*
X33174Y618702D01*
X34502Y617374D01*
X35606Y615854D01*
X36459Y614181D01*
X37039Y612394D01*
X37333Y610539D01*
X37333Y609605D01*
X25405Y609605D01*
G37*
%LPD*%
%LPC*%
G36*
X25405Y38867D02*
X25405Y38867D01*
X25405Y50795D01*
X37333Y50795D01*
X37333Y49861D01*
X37039Y48006D01*
X36459Y46219D01*
X35606Y44546D01*
X34502Y43026D01*
X33174Y41698D01*
X31654Y40594D01*
X29981Y39741D01*
X28194Y39161D01*
X26339Y38867D01*
X25405Y38867D01*
G37*
%LPD*%
%LPC*%
G36*
X81793Y402341D02*
X81793Y402341D01*
X81793Y414269D01*
X93721Y414269D01*
X93721Y413335D01*
X93427Y411480D01*
X92847Y409693D01*
X91994Y408020D01*
X90890Y406500D01*
X89562Y405172D01*
X88042Y404068D01*
X86369Y403215D01*
X84582Y402635D01*
X82727Y402341D01*
X81793Y402341D01*
G37*
%LPD*%
%LPC*%
G36*
X25405Y597667D02*
X25405Y597667D01*
X25405Y609595D01*
X37333Y609595D01*
X37333Y608661D01*
X37039Y606806D01*
X36459Y605019D01*
X35606Y603346D01*
X34502Y601826D01*
X33174Y600498D01*
X31654Y599394D01*
X29981Y598541D01*
X28194Y597961D01*
X26339Y597667D01*
X25405Y597667D01*
G37*
%LPD*%
%LPC*%
G36*
X24461Y38867D02*
X24461Y38867D01*
X22606Y39161D01*
X20819Y39741D01*
X19146Y40594D01*
X17626Y41698D01*
X16298Y43026D01*
X15194Y44546D01*
X14341Y46219D01*
X13761Y48006D01*
X13467Y49861D01*
X13467Y50795D01*
X25395Y50795D01*
X25395Y38867D01*
X24461Y38867D01*
G37*
%LPD*%
%LPC*%
G36*
X80849Y402341D02*
X80849Y402341D01*
X78994Y402635D01*
X77207Y403215D01*
X75534Y404068D01*
X74014Y405172D01*
X72686Y406500D01*
X71582Y408020D01*
X70729Y409693D01*
X70149Y411480D01*
X69855Y413335D01*
X69855Y414269D01*
X81783Y414269D01*
X81783Y402341D01*
X80849Y402341D01*
G37*
%LPD*%
%LPC*%
G36*
X24461Y597667D02*
X24461Y597667D01*
X22606Y597961D01*
X20819Y598541D01*
X19146Y599394D01*
X17626Y600498D01*
X16298Y601826D01*
X15194Y603346D01*
X14341Y605019D01*
X13761Y606806D01*
X13467Y608661D01*
X13467Y609595D01*
X25395Y609595D01*
X25395Y597667D01*
X24461Y597667D01*
G37*
%LPD*%
%LPC*%
G36*
X198661Y597667D02*
X198661Y597667D01*
X196806Y597961D01*
X195019Y598541D01*
X193346Y599394D01*
X191826Y600498D01*
X190498Y601826D01*
X189394Y603346D01*
X188541Y605019D01*
X187961Y606806D01*
X187667Y608661D01*
X187667Y609595D01*
X199595Y609595D01*
X199595Y597667D01*
X198661Y597667D01*
G37*
%LPD*%
%LPC*%
G36*
X163715Y508005D02*
X163715Y508005D01*
X163715Y515535D01*
X167741Y515535D01*
X168768Y515260D01*
X169688Y514729D01*
X170439Y513978D01*
X170970Y513058D01*
X171245Y512031D01*
X171245Y508005D01*
X163715Y508005D01*
G37*
%LPD*%
%LPC*%
G36*
X84975Y508005D02*
X84975Y508005D01*
X84975Y515535D01*
X89001Y515535D01*
X90028Y515260D01*
X90948Y514729D01*
X91699Y513978D01*
X92230Y513058D01*
X92505Y512031D01*
X92505Y508005D01*
X84975Y508005D01*
G37*
%LPD*%
%LPC*%
G36*
X156175Y508005D02*
X156175Y508005D01*
X156175Y512031D01*
X156450Y513058D01*
X156981Y513978D01*
X157732Y514729D01*
X158652Y515260D01*
X159679Y515535D01*
X163705Y515535D01*
X163705Y508005D01*
X156175Y508005D01*
G37*
%LPD*%
%LPC*%
G36*
X77435Y508005D02*
X77435Y508005D01*
X77435Y512031D01*
X77710Y513058D01*
X78241Y513978D01*
X78992Y514729D01*
X79912Y515260D01*
X80939Y515535D01*
X84965Y515535D01*
X84965Y508005D01*
X77435Y508005D01*
G37*
%LPD*%
%LPC*%
G36*
X84975Y500465D02*
X84975Y500465D01*
X84975Y507995D01*
X92505Y507995D01*
X92505Y503969D01*
X92230Y502942D01*
X91699Y502022D01*
X90948Y501271D01*
X90028Y500740D01*
X89001Y500465D01*
X84975Y500465D01*
G37*
%LPD*%
%LPC*%
G36*
X163715Y500465D02*
X163715Y500465D01*
X163715Y507995D01*
X171245Y507995D01*
X171245Y503969D01*
X170970Y502942D01*
X170439Y502022D01*
X169688Y501271D01*
X168768Y500740D01*
X167741Y500465D01*
X163715Y500465D01*
G37*
%LPD*%
%LPC*%
G36*
X80939Y500465D02*
X80939Y500465D01*
X79912Y500740D01*
X78992Y501271D01*
X78241Y502022D01*
X77710Y502942D01*
X77435Y503969D01*
X77435Y507995D01*
X84965Y507995D01*
X84965Y500465D01*
X80939Y500465D01*
G37*
%LPD*%
%LPC*%
G36*
X159679Y500465D02*
X159679Y500465D01*
X158652Y500740D01*
X157732Y501271D01*
X156981Y502022D01*
X156450Y502942D01*
X156175Y503969D01*
X156175Y507995D01*
X163705Y507995D01*
X163705Y500465D01*
X159679Y500465D01*
G37*
%LPD*%
%LPC*%
G36*
X144695Y149865D02*
X144695Y149865D01*
X144695Y152847D01*
X145024Y154076D01*
X145661Y155179D01*
X146561Y156079D01*
X147664Y156716D01*
X148893Y157045D01*
X151825Y157045D01*
X151825Y149865D01*
X144695Y149865D01*
G37*
%LPD*%
%LPC*%
G36*
X95035Y149865D02*
X95035Y149865D01*
X95035Y152847D01*
X95364Y154076D01*
X96001Y155179D01*
X96901Y156079D01*
X98004Y156716D01*
X99233Y157045D01*
X102165Y157045D01*
X102165Y149865D01*
X95035Y149865D01*
G37*
%LPD*%
%LPC*%
G36*
X46775Y749305D02*
X46775Y749305D01*
X46775Y752287D01*
X47104Y753516D01*
X47741Y754619D01*
X48641Y755519D01*
X49744Y756156D01*
X50973Y756485D01*
X53905Y756485D01*
X53905Y749305D01*
X46775Y749305D01*
G37*
%LPD*%
%LPC*%
G36*
X46775Y698505D02*
X46775Y698505D01*
X46775Y701487D01*
X47104Y702716D01*
X47741Y703819D01*
X48641Y704719D01*
X49744Y705356D01*
X50973Y705685D01*
X53905Y705685D01*
X53905Y698505D01*
X46775Y698505D01*
G37*
%LPD*%
%LPC*%
G36*
X46775Y723905D02*
X46775Y723905D01*
X46775Y726887D01*
X47104Y728116D01*
X47741Y729219D01*
X48641Y730119D01*
X49744Y730756D01*
X50973Y731085D01*
X53905Y731085D01*
X53905Y723905D01*
X46775Y723905D01*
G37*
%LPD*%
%LPC*%
G36*
X58335Y533405D02*
X58335Y533405D01*
X58335Y536387D01*
X58664Y537616D01*
X59301Y538719D01*
X60201Y539619D01*
X61304Y540256D01*
X62533Y540585D01*
X65465Y540585D01*
X65465Y533405D01*
X58335Y533405D01*
G37*
%LPD*%
%LPC*%
G36*
X43185Y843855D02*
X43185Y843855D01*
X43185Y850985D01*
X46167Y850985D01*
X47396Y850656D01*
X48499Y850019D01*
X49399Y849119D01*
X50036Y848016D01*
X50365Y846787D01*
X50365Y843855D01*
X43185Y843855D01*
G37*
%LPD*%
%LPC*%
G36*
X81285Y114875D02*
X81285Y114875D01*
X81285Y122005D01*
X84267Y122005D01*
X85496Y121676D01*
X86599Y121039D01*
X87499Y120139D01*
X88136Y119036D01*
X88465Y117807D01*
X88465Y114875D01*
X81285Y114875D01*
G37*
%LPD*%
%LPC*%
G36*
X167645Y643195D02*
X167645Y643195D01*
X167645Y650325D01*
X170627Y650325D01*
X171856Y649996D01*
X172959Y649359D01*
X173859Y648459D01*
X174496Y647356D01*
X174825Y646127D01*
X174825Y643195D01*
X167645Y643195D01*
G37*
%LPD*%
%LPC*%
G36*
X208285Y782895D02*
X208285Y782895D01*
X208285Y790025D01*
X211267Y790025D01*
X212496Y789696D01*
X213599Y789059D01*
X214499Y788159D01*
X215136Y787056D01*
X215465Y785827D01*
X215465Y782895D01*
X208285Y782895D01*
G37*
%LPD*%
%LPC*%
G36*
X147325Y643195D02*
X147325Y643195D01*
X147325Y650325D01*
X150307Y650325D01*
X151536Y649996D01*
X152639Y649359D01*
X153539Y648459D01*
X154176Y647356D01*
X154505Y646127D01*
X154505Y643195D01*
X147325Y643195D01*
G37*
%LPD*%
%LPC*%
G36*
X147325Y114875D02*
X147325Y114875D01*
X147325Y122005D01*
X150307Y122005D01*
X151536Y121676D01*
X152639Y121039D01*
X153539Y120139D01*
X154176Y119036D01*
X154505Y117807D01*
X154505Y114875D01*
X147325Y114875D01*
G37*
%LPD*%
%LPC*%
G36*
X81285Y76775D02*
X81285Y76775D01*
X81285Y83905D01*
X84267Y83905D01*
X85496Y83576D01*
X86599Y82939D01*
X87499Y82039D01*
X88136Y80936D01*
X88465Y79707D01*
X88465Y76775D01*
X81285Y76775D01*
G37*
%LPD*%
%LPC*%
G36*
X147325Y76775D02*
X147325Y76775D01*
X147325Y83905D01*
X150307Y83905D01*
X151536Y83576D01*
X152639Y82939D01*
X153539Y82039D01*
X154176Y80936D01*
X154505Y79707D01*
X154505Y76775D01*
X147325Y76775D01*
G37*
%LPD*%
%LPC*%
G36*
X167645Y782895D02*
X167645Y782895D01*
X167645Y790025D01*
X170627Y790025D01*
X171856Y789696D01*
X172959Y789059D01*
X173859Y788159D01*
X174496Y787056D01*
X174825Y785827D01*
X174825Y782895D01*
X167645Y782895D01*
G37*
%LPD*%
%LPC*%
G36*
X17785Y843855D02*
X17785Y843855D01*
X17785Y850985D01*
X20767Y850985D01*
X21996Y850656D01*
X23099Y850019D01*
X23999Y849119D01*
X24636Y848016D01*
X24965Y846787D01*
X24965Y843855D01*
X17785Y843855D01*
G37*
%LPD*%
%LPC*%
G36*
X60965Y409515D02*
X60965Y409515D01*
X60965Y416645D01*
X63947Y416645D01*
X65176Y416316D01*
X66279Y415679D01*
X67179Y414779D01*
X67816Y413676D01*
X68145Y412447D01*
X68145Y409515D01*
X60965Y409515D01*
G37*
%LPD*%
%LPC*%
G36*
X60965Y114875D02*
X60965Y114875D01*
X60965Y122005D01*
X63947Y122005D01*
X65176Y121676D01*
X66279Y121039D01*
X67179Y120139D01*
X67816Y119036D01*
X68145Y117807D01*
X68145Y114875D01*
X60965Y114875D01*
G37*
%LPD*%
%LPC*%
G36*
X160025Y714315D02*
X160025Y714315D01*
X160025Y721445D01*
X163007Y721445D01*
X164236Y721116D01*
X165339Y720479D01*
X166239Y719579D01*
X166876Y718476D01*
X167205Y717247D01*
X167205Y714315D01*
X160025Y714315D01*
G37*
%LPD*%
%LPC*%
G36*
X58425Y195015D02*
X58425Y195015D01*
X58425Y202145D01*
X61407Y202145D01*
X62636Y201816D01*
X63739Y201179D01*
X64639Y200279D01*
X65276Y199176D01*
X65605Y197947D01*
X65605Y195015D01*
X58425Y195015D01*
G37*
%LPD*%
%LPC*%
G36*
X83825Y195015D02*
X83825Y195015D01*
X83825Y202145D01*
X86807Y202145D01*
X88036Y201816D01*
X89139Y201179D01*
X90039Y200279D01*
X90676Y199176D01*
X91005Y197947D01*
X91005Y195015D01*
X83825Y195015D01*
G37*
%LPD*%
%LPC*%
G36*
X53915Y698505D02*
X53915Y698505D01*
X53915Y705685D01*
X56847Y705685D01*
X58076Y705356D01*
X59179Y704719D01*
X60079Y703819D01*
X60716Y702716D01*
X61045Y701487D01*
X61045Y698505D01*
X53915Y698505D01*
G37*
%LPD*%
%LPC*%
G36*
X102175Y149865D02*
X102175Y149865D01*
X102175Y157045D01*
X105107Y157045D01*
X106336Y156716D01*
X107439Y156079D01*
X108339Y155179D01*
X108976Y154076D01*
X109305Y152847D01*
X109305Y149865D01*
X102175Y149865D01*
G37*
%LPD*%
%LPC*%
G36*
X65475Y533405D02*
X65475Y533405D01*
X65475Y540585D01*
X68407Y540585D01*
X69636Y540256D01*
X70739Y539619D01*
X71639Y538719D01*
X72276Y537616D01*
X72605Y536387D01*
X72605Y533405D01*
X65475Y533405D01*
G37*
%LPD*%
%LPC*%
G36*
X151835Y149865D02*
X151835Y149865D01*
X151835Y157045D01*
X154767Y157045D01*
X155996Y156716D01*
X157099Y156079D01*
X157999Y155179D01*
X158636Y154076D01*
X158965Y152847D01*
X158965Y149865D01*
X151835Y149865D01*
G37*
%LPD*%
%LPC*%
G36*
X53915Y749305D02*
X53915Y749305D01*
X53915Y756485D01*
X56847Y756485D01*
X58076Y756156D01*
X59179Y755519D01*
X60079Y754619D01*
X60716Y753516D01*
X61045Y752287D01*
X61045Y749305D01*
X53915Y749305D01*
G37*
%LPD*%
%LPC*%
G36*
X107255Y878845D02*
X107255Y878845D01*
X107255Y886025D01*
X110187Y886025D01*
X111416Y885696D01*
X112519Y885059D01*
X113419Y884159D01*
X114056Y883056D01*
X114385Y881827D01*
X114385Y878845D01*
X107255Y878845D01*
G37*
%LPD*%
%LPC*%
G36*
X53915Y723905D02*
X53915Y723905D01*
X53915Y731085D01*
X56847Y731085D01*
X58076Y730756D01*
X59179Y730119D01*
X60079Y729219D01*
X60716Y728116D01*
X61045Y726887D01*
X61045Y723905D01*
X53915Y723905D01*
G37*
%LPD*%
%LPC*%
G36*
X210373Y892595D02*
X210373Y892595D01*
X209144Y892924D01*
X208041Y893561D01*
X207141Y894461D01*
X206504Y895564D01*
X206175Y896793D01*
X206175Y899725D01*
X213355Y899725D01*
X213355Y892595D01*
X210373Y892595D01*
G37*
%LPD*%
%LPC*%
G36*
X157033Y707175D02*
X157033Y707175D01*
X155804Y707504D01*
X154701Y708141D01*
X153801Y709041D01*
X153164Y710144D01*
X152835Y711373D01*
X152835Y714305D01*
X160015Y714305D01*
X160015Y707175D01*
X157033Y707175D01*
G37*
%LPD*%
%LPC*%
G36*
X144333Y69635D02*
X144333Y69635D01*
X143104Y69964D01*
X142001Y70601D01*
X141101Y71501D01*
X140464Y72604D01*
X140135Y73833D01*
X140135Y76765D01*
X147315Y76765D01*
X147315Y69635D01*
X144333Y69635D01*
G37*
%LPD*%
%LPC*%
G36*
X164653Y636055D02*
X164653Y636055D01*
X163424Y636384D01*
X162321Y637021D01*
X161421Y637921D01*
X160784Y639024D01*
X160455Y640253D01*
X160455Y643185D01*
X167635Y643185D01*
X167635Y636055D01*
X164653Y636055D01*
G37*
%LPD*%
%LPC*%
G36*
X144333Y107735D02*
X144333Y107735D01*
X143104Y108064D01*
X142001Y108701D01*
X141101Y109601D01*
X140464Y110704D01*
X140135Y111933D01*
X140135Y114865D01*
X147315Y114865D01*
X147315Y107735D01*
X144333Y107735D01*
G37*
%LPD*%
%LPC*%
G36*
X57973Y402375D02*
X57973Y402375D01*
X56744Y402704D01*
X55641Y403341D01*
X54741Y404241D01*
X54104Y405344D01*
X53775Y406573D01*
X53775Y409505D01*
X60955Y409505D01*
X60955Y402375D01*
X57973Y402375D01*
G37*
%LPD*%
%LPC*%
G36*
X80833Y187875D02*
X80833Y187875D01*
X79604Y188204D01*
X78501Y188841D01*
X77601Y189741D01*
X76964Y190844D01*
X76635Y192073D01*
X76635Y195005D01*
X83815Y195005D01*
X83815Y187875D01*
X80833Y187875D01*
G37*
%LPD*%
%LPC*%
G36*
X14793Y836715D02*
X14793Y836715D01*
X13564Y837044D01*
X12461Y837681D01*
X11561Y838581D01*
X10924Y839684D01*
X10595Y840913D01*
X10595Y843845D01*
X17775Y843845D01*
X17775Y836715D01*
X14793Y836715D01*
G37*
%LPD*%
%LPC*%
G36*
X144333Y636055D02*
X144333Y636055D01*
X143104Y636384D01*
X142001Y637021D01*
X141101Y637921D01*
X140464Y639024D01*
X140135Y640253D01*
X140135Y643185D01*
X147315Y643185D01*
X147315Y636055D01*
X144333Y636055D01*
G37*
%LPD*%
%LPC*%
G36*
X78293Y69635D02*
X78293Y69635D01*
X77064Y69964D01*
X75961Y70601D01*
X75061Y71501D01*
X74424Y72604D01*
X74095Y73833D01*
X74095Y76765D01*
X81275Y76765D01*
X81275Y69635D01*
X78293Y69635D01*
G37*
%LPD*%
%LPC*%
G36*
X164653Y775755D02*
X164653Y775755D01*
X163424Y776084D01*
X162321Y776721D01*
X161421Y777621D01*
X160784Y778724D01*
X160455Y779953D01*
X160455Y782885D01*
X167635Y782885D01*
X167635Y775755D01*
X164653Y775755D01*
G37*
%LPD*%
%LPC*%
G36*
X57973Y107735D02*
X57973Y107735D01*
X56744Y108064D01*
X55641Y108701D01*
X54741Y109601D01*
X54104Y110704D01*
X53775Y111933D01*
X53775Y114865D01*
X60955Y114865D01*
X60955Y107735D01*
X57973Y107735D01*
G37*
%LPD*%
%LPC*%
G36*
X78293Y107735D02*
X78293Y107735D01*
X77064Y108064D01*
X75961Y108701D01*
X75061Y109601D01*
X74424Y110704D01*
X74095Y111933D01*
X74095Y114865D01*
X81275Y114865D01*
X81275Y107735D01*
X78293Y107735D01*
G37*
%LPD*%
%LPC*%
G36*
X205293Y775755D02*
X205293Y775755D01*
X204064Y776084D01*
X202961Y776721D01*
X202061Y777621D01*
X201424Y778724D01*
X201095Y779953D01*
X201095Y782885D01*
X208275Y782885D01*
X208275Y775755D01*
X205293Y775755D01*
G37*
%LPD*%
%LPC*%
G36*
X10595Y843855D02*
X10595Y843855D01*
X10595Y846787D01*
X10924Y848016D01*
X11561Y849119D01*
X12461Y850019D01*
X13564Y850656D01*
X14793Y850985D01*
X17775Y850985D01*
X17775Y843855D01*
X10595Y843855D01*
G37*
%LPD*%
%LPC*%
G36*
X35995Y843855D02*
X35995Y843855D01*
X35995Y846787D01*
X36324Y848016D01*
X36961Y849119D01*
X37861Y850019D01*
X38964Y850656D01*
X40193Y850985D01*
X43175Y850985D01*
X43175Y843855D01*
X35995Y843855D01*
G37*
%LPD*%
%LPC*%
G36*
X160455Y782895D02*
X160455Y782895D01*
X160455Y785827D01*
X160784Y787056D01*
X161421Y788159D01*
X162321Y789059D01*
X163424Y789696D01*
X164653Y790025D01*
X167635Y790025D01*
X167635Y782895D01*
X160455Y782895D01*
G37*
%LPD*%
%LPC*%
G36*
X201095Y782895D02*
X201095Y782895D01*
X201095Y785827D01*
X201424Y787056D01*
X202061Y788159D01*
X202961Y789059D01*
X204064Y789696D01*
X205293Y790025D01*
X208275Y790025D01*
X208275Y782895D01*
X201095Y782895D01*
G37*
%LPD*%
%LPC*%
G36*
X206175Y899735D02*
X206175Y899735D01*
X206175Y902667D01*
X206504Y903896D01*
X207141Y904999D01*
X208041Y905899D01*
X209144Y906536D01*
X210373Y906865D01*
X213355Y906865D01*
X213355Y899735D01*
X206175Y899735D01*
G37*
%LPD*%
%LPC*%
G36*
X160455Y643195D02*
X160455Y643195D01*
X160455Y646127D01*
X160784Y647356D01*
X161421Y648459D01*
X162321Y649359D01*
X163424Y649996D01*
X164653Y650325D01*
X167635Y650325D01*
X167635Y643195D01*
X160455Y643195D01*
G37*
%LPD*%
%LPC*%
G36*
X53775Y409515D02*
X53775Y409515D01*
X53775Y412447D01*
X54104Y413676D01*
X54741Y414779D01*
X55641Y415679D01*
X56744Y416316D01*
X57973Y416645D01*
X60955Y416645D01*
X60955Y409515D01*
X53775Y409515D01*
G37*
%LPD*%
%LPC*%
G36*
X76635Y195015D02*
X76635Y195015D01*
X76635Y197947D01*
X76964Y199176D01*
X77601Y200279D01*
X78501Y201179D01*
X79604Y201816D01*
X80833Y202145D01*
X83815Y202145D01*
X83815Y195015D01*
X76635Y195015D01*
G37*
%LPD*%
%LPC*%
G36*
X140135Y643195D02*
X140135Y643195D01*
X140135Y646127D01*
X140464Y647356D01*
X141101Y648459D01*
X142001Y649359D01*
X143104Y649996D01*
X144333Y650325D01*
X147315Y650325D01*
X147315Y643195D01*
X140135Y643195D01*
G37*
%LPD*%
%LPC*%
G36*
X152835Y714315D02*
X152835Y714315D01*
X152835Y717247D01*
X153164Y718476D01*
X153801Y719579D01*
X154701Y720479D01*
X155804Y721116D01*
X157033Y721445D01*
X160015Y721445D01*
X160015Y714315D01*
X152835Y714315D01*
G37*
%LPD*%
%LPC*%
G36*
X140135Y114875D02*
X140135Y114875D01*
X140135Y117807D01*
X140464Y119036D01*
X141101Y120139D01*
X142001Y121039D01*
X143104Y121676D01*
X144333Y122005D01*
X147315Y122005D01*
X147315Y114875D01*
X140135Y114875D01*
G37*
%LPD*%
%LPC*%
G36*
X53775Y114875D02*
X53775Y114875D01*
X53775Y117807D01*
X54104Y119036D01*
X54741Y120139D01*
X55641Y121039D01*
X56744Y121676D01*
X57973Y122005D01*
X60955Y122005D01*
X60955Y114875D01*
X53775Y114875D01*
G37*
%LPD*%
%LPC*%
G36*
X74095Y114875D02*
X74095Y114875D01*
X74095Y117807D01*
X74424Y119036D01*
X75061Y120139D01*
X75961Y121039D01*
X77064Y121676D01*
X78293Y122005D01*
X81275Y122005D01*
X81275Y114875D01*
X74095Y114875D01*
G37*
%LPD*%
%LPC*%
G36*
X140135Y76775D02*
X140135Y76775D01*
X140135Y79707D01*
X140464Y80936D01*
X141101Y82039D01*
X142001Y82939D01*
X143104Y83576D01*
X144333Y83905D01*
X147315Y83905D01*
X147315Y76775D01*
X140135Y76775D01*
G37*
%LPD*%
%LPC*%
G36*
X74095Y76775D02*
X74095Y76775D01*
X74095Y79707D01*
X74424Y80936D01*
X75061Y82039D01*
X75961Y82939D01*
X77064Y83576D01*
X78293Y83905D01*
X81275Y83905D01*
X81275Y76775D01*
X74095Y76775D01*
G37*
%LPD*%
%LPC*%
G36*
X53915Y716715D02*
X53915Y716715D01*
X53915Y723895D01*
X61045Y723895D01*
X61045Y720913D01*
X60716Y719684D01*
X60079Y718581D01*
X59179Y717681D01*
X58076Y717044D01*
X56847Y716715D01*
X53915Y716715D01*
G37*
%LPD*%
%LPC*%
G36*
X151835Y142675D02*
X151835Y142675D01*
X151835Y149855D01*
X158965Y149855D01*
X158965Y146873D01*
X158636Y145644D01*
X157999Y144541D01*
X157099Y143641D01*
X155996Y143004D01*
X154767Y142675D01*
X151835Y142675D01*
G37*
%LPD*%
%LPC*%
G36*
X53915Y691315D02*
X53915Y691315D01*
X53915Y698495D01*
X61045Y698495D01*
X61045Y695513D01*
X60716Y694284D01*
X60079Y693181D01*
X59179Y692281D01*
X58076Y691644D01*
X56847Y691315D01*
X53915Y691315D01*
G37*
%LPD*%
%LPC*%
G36*
X102175Y142675D02*
X102175Y142675D01*
X102175Y149855D01*
X109305Y149855D01*
X109305Y146873D01*
X108976Y145644D01*
X108339Y144541D01*
X107439Y143641D01*
X106336Y143004D01*
X105107Y142675D01*
X102175Y142675D01*
G37*
%LPD*%
%LPC*%
G36*
X65475Y526215D02*
X65475Y526215D01*
X65475Y533395D01*
X72605Y533395D01*
X72605Y530413D01*
X72276Y529184D01*
X71639Y528081D01*
X70739Y527181D01*
X69636Y526544D01*
X68407Y526215D01*
X65475Y526215D01*
G37*
%LPD*%
%LPC*%
G36*
X107255Y871655D02*
X107255Y871655D01*
X107255Y878835D01*
X114385Y878835D01*
X114385Y875853D01*
X114056Y874624D01*
X113419Y873521D01*
X112519Y872621D01*
X111416Y871984D01*
X110187Y871655D01*
X107255Y871655D01*
G37*
%LPD*%
%LPC*%
G36*
X53915Y742115D02*
X53915Y742115D01*
X53915Y749295D01*
X61045Y749295D01*
X61045Y746313D01*
X60716Y745084D01*
X60079Y743981D01*
X59179Y743081D01*
X58076Y742444D01*
X56847Y742115D01*
X53915Y742115D01*
G37*
%LPD*%
%LPC*%
G36*
X83825Y187875D02*
X83825Y187875D01*
X83825Y195005D01*
X91005Y195005D01*
X91005Y192073D01*
X90676Y190844D01*
X90039Y189741D01*
X89139Y188841D01*
X88036Y188204D01*
X86807Y187875D01*
X83825Y187875D01*
G37*
%LPD*%
%LPC*%
G36*
X81285Y107735D02*
X81285Y107735D01*
X81285Y114865D01*
X88465Y114865D01*
X88465Y111933D01*
X88136Y110704D01*
X87499Y109601D01*
X86599Y108701D01*
X85496Y108064D01*
X84267Y107735D01*
X81285Y107735D01*
G37*
%LPD*%
%LPC*%
G36*
X60965Y402375D02*
X60965Y402375D01*
X60965Y409505D01*
X68145Y409505D01*
X68145Y406573D01*
X67816Y405344D01*
X67179Y404241D01*
X66279Y403341D01*
X65176Y402704D01*
X63947Y402375D01*
X60965Y402375D01*
G37*
%LPD*%
%LPC*%
G36*
X58425Y187875D02*
X58425Y187875D01*
X58425Y195005D01*
X65605Y195005D01*
X65605Y192073D01*
X65276Y190844D01*
X64639Y189741D01*
X63739Y188841D01*
X62636Y188204D01*
X61407Y187875D01*
X58425Y187875D01*
G37*
%LPD*%
%LPC*%
G36*
X160025Y707175D02*
X160025Y707175D01*
X160025Y714305D01*
X167205Y714305D01*
X167205Y711373D01*
X166876Y710144D01*
X166239Y709041D01*
X165339Y708141D01*
X164236Y707504D01*
X163007Y707175D01*
X160025Y707175D01*
G37*
%LPD*%
%LPC*%
G36*
X147325Y107735D02*
X147325Y107735D01*
X147325Y114865D01*
X154505Y114865D01*
X154505Y111933D01*
X154176Y110704D01*
X153539Y109601D01*
X152639Y108701D01*
X151536Y108064D01*
X150307Y107735D01*
X147325Y107735D01*
G37*
%LPD*%
%LPC*%
G36*
X208285Y775755D02*
X208285Y775755D01*
X208285Y782885D01*
X215465Y782885D01*
X215465Y779953D01*
X215136Y778724D01*
X214499Y777621D01*
X213599Y776721D01*
X212496Y776084D01*
X211267Y775755D01*
X208285Y775755D01*
G37*
%LPD*%
%LPC*%
G36*
X167645Y636055D02*
X167645Y636055D01*
X167645Y643185D01*
X174825Y643185D01*
X174825Y640253D01*
X174496Y639024D01*
X173859Y637921D01*
X172959Y637021D01*
X171856Y636384D01*
X170627Y636055D01*
X167645Y636055D01*
G37*
%LPD*%
%LPC*%
G36*
X147325Y636055D02*
X147325Y636055D01*
X147325Y643185D01*
X154505Y643185D01*
X154505Y640253D01*
X154176Y639024D01*
X153539Y637921D01*
X152639Y637021D01*
X151536Y636384D01*
X150307Y636055D01*
X147325Y636055D01*
G37*
%LPD*%
%LPC*%
G36*
X60965Y107735D02*
X60965Y107735D01*
X60965Y114865D01*
X68145Y114865D01*
X68145Y111933D01*
X67816Y110704D01*
X67179Y109601D01*
X66279Y108701D01*
X65176Y108064D01*
X63947Y107735D01*
X60965Y107735D01*
G37*
%LPD*%
%LPC*%
G36*
X81285Y69635D02*
X81285Y69635D01*
X81285Y76765D01*
X88465Y76765D01*
X88465Y73833D01*
X88136Y72604D01*
X87499Y71501D01*
X86599Y70601D01*
X85496Y69964D01*
X84267Y69635D01*
X81285Y69635D01*
G37*
%LPD*%
%LPC*%
G36*
X147325Y69635D02*
X147325Y69635D01*
X147325Y76765D01*
X154505Y76765D01*
X154505Y73833D01*
X154176Y72604D01*
X153539Y71501D01*
X152639Y70601D01*
X151536Y69964D01*
X150307Y69635D01*
X147325Y69635D01*
G37*
%LPD*%
%LPC*%
G36*
X17785Y836715D02*
X17785Y836715D01*
X17785Y843845D01*
X24965Y843845D01*
X24965Y840913D01*
X24636Y839684D01*
X23999Y838581D01*
X23099Y837681D01*
X21996Y837044D01*
X20767Y836715D01*
X17785Y836715D01*
G37*
%LPD*%
%LPC*%
G36*
X167645Y775755D02*
X167645Y775755D01*
X167645Y782885D01*
X174825Y782885D01*
X174825Y779953D01*
X174496Y778724D01*
X173859Y777621D01*
X172959Y776721D01*
X171856Y776084D01*
X170627Y775755D01*
X167645Y775755D01*
G37*
%LPD*%
%LPC*%
G36*
X62533Y526215D02*
X62533Y526215D01*
X61304Y526544D01*
X60201Y527181D01*
X59301Y528081D01*
X58664Y529184D01*
X58335Y530413D01*
X58335Y533395D01*
X65465Y533395D01*
X65465Y526215D01*
X62533Y526215D01*
G37*
%LPD*%
%LPC*%
G36*
X50973Y716715D02*
X50973Y716715D01*
X49744Y717044D01*
X48641Y717681D01*
X47741Y718581D01*
X47104Y719684D01*
X46775Y720913D01*
X46775Y723895D01*
X53905Y723895D01*
X53905Y716715D01*
X50973Y716715D01*
G37*
%LPD*%
%LPC*%
G36*
X99233Y142675D02*
X99233Y142675D01*
X98004Y143004D01*
X96901Y143641D01*
X96001Y144541D01*
X95364Y145644D01*
X95035Y146873D01*
X95035Y149855D01*
X102165Y149855D01*
X102165Y142675D01*
X99233Y142675D01*
G37*
%LPD*%
%LPC*%
G36*
X50973Y742115D02*
X50973Y742115D01*
X49744Y742444D01*
X48641Y743081D01*
X47741Y743981D01*
X47104Y745084D01*
X46775Y746313D01*
X46775Y749295D01*
X53905Y749295D01*
X53905Y742115D01*
X50973Y742115D01*
G37*
%LPD*%
%LPC*%
G36*
X50973Y691315D02*
X50973Y691315D01*
X49744Y691644D01*
X48641Y692281D01*
X47741Y693181D01*
X47104Y694284D01*
X46775Y695513D01*
X46775Y698495D01*
X53905Y698495D01*
X53905Y691315D01*
X50973Y691315D01*
G37*
%LPD*%
%LPC*%
G36*
X148893Y142675D02*
X148893Y142675D01*
X147664Y143004D01*
X146561Y143641D01*
X145661Y144541D01*
X145024Y145644D01*
X144695Y146873D01*
X144695Y149855D01*
X151825Y149855D01*
X151825Y142675D01*
X148893Y142675D01*
G37*
%LPD*%
%LPC*%
G36*
X63315Y871655D02*
X63315Y871655D01*
X62190Y871956D01*
X61182Y872538D01*
X60358Y873362D01*
X59776Y874370D01*
X59475Y875495D01*
X59475Y878835D01*
X65705Y878835D01*
X65705Y871655D01*
X63315Y871655D01*
G37*
%LPD*%
%LPC*%
G36*
X65715Y878845D02*
X65715Y878845D01*
X65715Y886025D01*
X68105Y886025D01*
X69230Y885724D01*
X70238Y885142D01*
X71062Y884318D01*
X71644Y883310D01*
X71945Y882185D01*
X71945Y878845D01*
X65715Y878845D01*
G37*
%LPD*%
%LPC*%
G36*
X65715Y871655D02*
X65715Y871655D01*
X65715Y878835D01*
X71945Y878835D01*
X71945Y875495D01*
X71644Y874370D01*
X71062Y873362D01*
X70238Y872538D01*
X69230Y871956D01*
X68105Y871655D01*
X65715Y871655D01*
G37*
%LPD*%
%LPC*%
G36*
X59475Y878845D02*
X59475Y878845D01*
X59475Y882185D01*
X59776Y883310D01*
X60358Y884318D01*
X61182Y885142D01*
X62190Y885724D01*
X63315Y886025D01*
X65705Y886025D01*
X65705Y878845D01*
X59475Y878845D01*
G37*
%LPD*%
%LPC*%
G36*
X102215Y650245D02*
X102215Y650245D01*
X102215Y652187D01*
X102363Y652739D01*
X102362Y652740D01*
X102363Y652741D01*
X102215Y653293D01*
X102215Y655235D01*
X106645Y655235D01*
X106645Y650245D01*
X102215Y650245D01*
G37*
%LPD*%
%LPC*%
G36*
X126805Y755805D02*
X126805Y755805D01*
X126805Y761785D01*
X127824Y761785D01*
X128648Y761565D01*
X129386Y761138D01*
X129988Y760536D01*
X130415Y759798D01*
X130635Y758974D01*
X130635Y755805D01*
X126805Y755805D01*
G37*
%LPD*%
%LPC*%
G36*
X126805Y711415D02*
X126805Y711415D01*
X126805Y717395D01*
X130635Y717395D01*
X130635Y714226D01*
X130415Y713402D01*
X129988Y712664D01*
X129386Y712062D01*
X128648Y711635D01*
X127824Y711415D01*
X126805Y711415D01*
G37*
%LPD*%
%LPC*%
G36*
X121955Y655245D02*
X121955Y655245D01*
X121955Y659525D01*
X124047Y659525D01*
X124732Y659342D01*
X125346Y658987D01*
X125847Y658486D01*
X126202Y657872D01*
X126385Y657187D01*
X126385Y655245D01*
X121955Y655245D01*
G37*
%LPD*%
%LPC*%
G36*
X102215Y655245D02*
X102215Y655245D01*
X102215Y657187D01*
X102398Y657872D01*
X102753Y658486D01*
X103254Y658987D01*
X103868Y659342D01*
X104553Y659525D01*
X106645Y659525D01*
X106645Y655245D01*
X102215Y655245D01*
G37*
%LPD*%
%LPC*%
G36*
X121955Y640955D02*
X121955Y640955D01*
X121955Y645235D01*
X126385Y645235D01*
X126385Y643293D01*
X126202Y642608D01*
X125847Y641994D01*
X125346Y641493D01*
X124732Y641138D01*
X124047Y640955D01*
X121955Y640955D01*
G37*
%LPD*%
D10*
X15430Y841550D02*
X15430Y846150D01*
X20130Y846150D01*
X20130Y841550D01*
X15430Y841550D01*
X15430Y845920D02*
X20130Y845920D01*
X20130Y855650D02*
X20130Y860250D01*
X20130Y855650D02*
X15430Y855650D01*
X15430Y860250D01*
X20130Y860250D01*
X20130Y860020D02*
X15430Y860020D01*
X211010Y897430D02*
X211010Y902030D01*
X215710Y902030D01*
X215710Y897430D01*
X211010Y897430D01*
X211010Y901800D02*
X215710Y901800D01*
X215710Y911530D02*
X215710Y916130D01*
X215710Y911530D02*
X211010Y911530D01*
X211010Y916130D01*
X215710Y916130D01*
X215710Y915900D02*
X211010Y915900D01*
X109550Y881190D02*
X104950Y881190D01*
X109550Y881190D02*
X109550Y876490D01*
X104950Y876490D01*
X104950Y881190D01*
X104950Y880860D02*
X109550Y880860D01*
X119050Y876490D02*
X123650Y876490D01*
X119050Y876490D02*
X119050Y881190D01*
X123650Y881190D01*
X123650Y876490D01*
X123650Y880860D02*
X119050Y880860D01*
X45530Y860250D02*
X45530Y855650D01*
X40830Y855650D01*
X40830Y860250D01*
X45530Y860250D01*
X45530Y860020D02*
X40830Y860020D01*
X40830Y846150D02*
X40830Y841550D01*
X40830Y846150D02*
X45530Y846150D01*
X45530Y841550D01*
X40830Y841550D01*
X40830Y845920D02*
X45530Y845920D01*
X113970Y147510D02*
X118570Y147510D01*
X113970Y147510D02*
X113970Y152210D01*
X118570Y152210D01*
X118570Y147510D01*
X118570Y151880D02*
X113970Y151880D01*
X104470Y152210D02*
X99870Y152210D01*
X104470Y152210D02*
X104470Y147510D01*
X99870Y147510D01*
X99870Y152210D01*
X99870Y151880D02*
X104470Y151880D01*
X135430Y152210D02*
X140030Y152210D01*
X140030Y147510D01*
X135430Y147510D01*
X135430Y152210D01*
X135430Y151880D02*
X140030Y151880D01*
X149530Y147510D02*
X154130Y147510D01*
X149530Y147510D02*
X149530Y152210D01*
X154130Y152210D01*
X154130Y147510D01*
X154130Y151880D02*
X149530Y151880D01*
X63310Y421310D02*
X63310Y425910D01*
X63310Y421310D02*
X58610Y421310D01*
X58610Y425910D01*
X63310Y425910D01*
X63310Y425680D02*
X58610Y425680D01*
X58610Y411810D02*
X58610Y407210D01*
X58610Y411810D02*
X63310Y411810D01*
X63310Y407210D01*
X58610Y407210D01*
X58610Y411580D02*
X63310Y411580D01*
X144970Y117170D02*
X144970Y112570D01*
X144970Y117170D02*
X149670Y117170D01*
X149670Y112570D01*
X144970Y112570D01*
X144970Y116940D02*
X149670Y116940D01*
X149670Y126670D02*
X149670Y131270D01*
X149670Y126670D02*
X144970Y126670D01*
X144970Y131270D01*
X149670Y131270D01*
X149670Y131040D02*
X144970Y131040D01*
X78930Y79070D02*
X78930Y74470D01*
X78930Y79070D02*
X83630Y79070D01*
X83630Y74470D01*
X78930Y74470D01*
X78930Y78840D02*
X83630Y78840D01*
X83630Y88570D02*
X83630Y93170D01*
X83630Y88570D02*
X78930Y88570D01*
X78930Y93170D01*
X83630Y93170D01*
X83630Y92940D02*
X78930Y92940D01*
X144970Y79070D02*
X144970Y74470D01*
X144970Y79070D02*
X149670Y79070D01*
X149670Y74470D01*
X144970Y74470D01*
X144970Y78840D02*
X149670Y78840D01*
X149670Y88570D02*
X149670Y93170D01*
X149670Y88570D02*
X144970Y88570D01*
X144970Y93170D01*
X149670Y93170D01*
X149670Y92940D02*
X144970Y92940D01*
X83630Y126670D02*
X83630Y131270D01*
X83630Y126670D02*
X78930Y126670D01*
X78930Y131270D01*
X83630Y131270D01*
X83630Y131040D02*
X78930Y131040D01*
X78930Y117170D02*
X78930Y112570D01*
X78930Y117170D02*
X83630Y117170D01*
X83630Y112570D01*
X78930Y112570D01*
X78930Y116940D02*
X83630Y116940D01*
X63310Y126670D02*
X63310Y131270D01*
X63310Y126670D02*
X58610Y126670D01*
X58610Y131270D01*
X63310Y131270D01*
X63310Y131040D02*
X58610Y131040D01*
X58610Y117170D02*
X58610Y112570D01*
X58610Y117170D02*
X63310Y117170D01*
X63310Y112570D01*
X58610Y112570D01*
X58610Y116940D02*
X63310Y116940D01*
X53670Y535750D02*
X49070Y535750D01*
X53670Y535750D02*
X53670Y531050D01*
X49070Y531050D01*
X49070Y535750D01*
X49070Y535420D02*
X53670Y535420D01*
X63170Y531050D02*
X67770Y531050D01*
X63170Y531050D02*
X63170Y535750D01*
X67770Y535750D01*
X67770Y531050D01*
X67770Y535420D02*
X63170Y535420D01*
X65710Y721550D02*
X70310Y721550D01*
X65710Y721550D02*
X65710Y726250D01*
X70310Y726250D01*
X70310Y721550D01*
X70310Y725920D02*
X65710Y725920D01*
X56210Y726250D02*
X51610Y726250D01*
X56210Y726250D02*
X56210Y721550D01*
X51610Y721550D01*
X51610Y726250D01*
X51610Y725920D02*
X56210Y725920D01*
X81470Y183210D02*
X81470Y178610D01*
X81470Y183210D02*
X86170Y183210D01*
X86170Y178610D01*
X81470Y178610D01*
X81470Y182980D02*
X86170Y182980D01*
X86170Y192710D02*
X86170Y197310D01*
X86170Y192710D02*
X81470Y192710D01*
X81470Y197310D01*
X86170Y197310D01*
X86170Y197080D02*
X81470Y197080D01*
X56070Y183210D02*
X56070Y178610D01*
X56070Y183210D02*
X60770Y183210D01*
X60770Y178610D01*
X56070Y178610D01*
X56070Y182980D02*
X60770Y182980D01*
X60770Y192710D02*
X60770Y197310D01*
X60770Y192710D02*
X56070Y192710D01*
X56070Y197310D01*
X60770Y197310D01*
X60770Y197080D02*
X56070Y197080D01*
X65710Y746950D02*
X70310Y746950D01*
X65710Y746950D02*
X65710Y751650D01*
X70310Y751650D01*
X70310Y746950D01*
X70310Y751320D02*
X65710Y751320D01*
X56210Y751650D02*
X51610Y751650D01*
X56210Y751650D02*
X56210Y746950D01*
X51610Y746950D01*
X51610Y751650D01*
X51610Y751320D02*
X56210Y751320D01*
X65710Y696150D02*
X70310Y696150D01*
X65710Y696150D02*
X65710Y700850D01*
X70310Y700850D01*
X70310Y696150D01*
X70310Y700520D02*
X65710Y700520D01*
X56210Y700850D02*
X51610Y700850D01*
X56210Y700850D02*
X56210Y696150D01*
X51610Y696150D01*
X51610Y700850D01*
X51610Y700520D02*
X56210Y700520D01*
X162370Y726110D02*
X162370Y730710D01*
X162370Y726110D02*
X157670Y726110D01*
X157670Y730710D01*
X162370Y730710D01*
X162370Y730480D02*
X157670Y730480D01*
X157670Y716610D02*
X157670Y712010D01*
X157670Y716610D02*
X162370Y716610D01*
X162370Y712010D01*
X157670Y712010D01*
X157670Y716380D02*
X162370Y716380D01*
X169990Y794690D02*
X169990Y799290D01*
X169990Y794690D02*
X165290Y794690D01*
X165290Y799290D01*
X169990Y799290D01*
X169990Y799060D02*
X165290Y799060D01*
X165290Y785190D02*
X165290Y780590D01*
X165290Y785190D02*
X169990Y785190D01*
X169990Y780590D01*
X165290Y780590D01*
X165290Y784960D02*
X169990Y784960D01*
X210630Y794690D02*
X210630Y799290D01*
X210630Y794690D02*
X205930Y794690D01*
X205930Y799290D01*
X210630Y799290D01*
X210630Y799060D02*
X205930Y799060D01*
X205930Y785190D02*
X205930Y780590D01*
X205930Y785190D02*
X210630Y785190D01*
X210630Y780590D01*
X205930Y780590D01*
X205930Y784960D02*
X210630Y784960D01*
X20130Y893750D02*
X20130Y898350D01*
X20130Y893750D02*
X15430Y893750D01*
X15430Y898350D01*
X20130Y898350D01*
X20130Y898120D02*
X15430Y898120D01*
X15430Y884250D02*
X15430Y879650D01*
X15430Y884250D02*
X20130Y884250D01*
X20130Y879650D01*
X15430Y879650D01*
X15430Y884020D02*
X20130Y884020D01*
D11*
X81470Y511500D02*
X81470Y504500D01*
X81470Y511500D02*
X88470Y511500D01*
X88470Y504500D01*
X81470Y504500D01*
X81470Y507350D02*
X88470Y507350D01*
X88470Y510200D02*
X81470Y510200D01*
X63930Y511500D02*
X63930Y504500D01*
X63930Y511500D02*
X70930Y511500D01*
X70930Y504500D01*
X63930Y504500D01*
X63930Y507350D02*
X70930Y507350D01*
X70930Y510200D02*
X63930Y510200D01*
X160210Y511500D02*
X160210Y504500D01*
X160210Y511500D02*
X167210Y511500D01*
X167210Y504500D01*
X160210Y504500D01*
X160210Y507350D02*
X167210Y507350D01*
X167210Y510200D02*
X160210Y510200D01*
X142670Y511500D02*
X142670Y504500D01*
X142670Y511500D02*
X149670Y511500D01*
X149670Y504500D01*
X142670Y504500D01*
X142670Y507350D02*
X149670Y507350D01*
X149670Y510200D02*
X142670Y510200D01*
D12*
X25400Y609600D03*
X25400Y584200D03*
X25400Y558800D03*
X25400Y533400D03*
X199600Y25400D03*
X199600Y50800D03*
X199600Y76200D03*
X199600Y101600D03*
X199600Y127000D03*
X199600Y152400D03*
X199600Y177800D03*
X199600Y203200D03*
X199600Y228600D03*
X199600Y254000D03*
X199600Y279400D03*
X199600Y304800D03*
X199600Y330200D03*
X199600Y355600D03*
X199600Y381000D03*
X199600Y406400D03*
X199600Y431800D03*
X199600Y457200D03*
X199600Y482600D03*
X199600Y508000D03*
X25400Y25400D03*
X25400Y50800D03*
X25400Y76200D03*
X25400Y101600D03*
X25400Y127000D03*
X25400Y152400D03*
X25400Y177800D03*
X25400Y203200D03*
X25400Y228600D03*
X25400Y254000D03*
X25400Y279400D03*
X25400Y304800D03*
X25400Y330200D03*
X25400Y355600D03*
X25400Y381000D03*
X25400Y406400D03*
X25400Y431800D03*
X25400Y457200D03*
X25400Y482600D03*
X25400Y508000D03*
D13*
X114300Y60270D03*
X107800Y60270D03*
X101300Y60270D03*
X120800Y60270D03*
X127300Y60270D03*
D14*
X77450Y33020D03*
D15*
X114300Y33020D03*
D14*
X151150Y33020D03*
D16*
X163720Y909320D03*
X181720Y909320D03*
X123300Y909320D03*
X105300Y909320D03*
X64880Y909320D03*
X46880Y909320D03*
D17*
X161077Y487457D02*
X164703Y487457D01*
X161077Y487457D02*
X161077Y492983D01*
X164703Y492983D01*
X164703Y487457D01*
X164703Y491042D02*
X161077Y491042D01*
X148803Y492983D02*
X145177Y492983D01*
X148803Y492983D02*
X148803Y487457D01*
X145177Y487457D01*
X145177Y492983D01*
X145177Y491042D02*
X148803Y491042D01*
X83423Y876077D02*
X79797Y876077D01*
X79797Y881603D01*
X83423Y881603D01*
X83423Y876077D01*
X83423Y879662D02*
X79797Y879662D01*
X67523Y881603D02*
X63897Y881603D01*
X67523Y881603D02*
X67523Y876077D01*
X63897Y876077D01*
X63897Y881603D01*
X63897Y879662D02*
X67523Y879662D01*
X130597Y172497D02*
X134223Y172497D01*
X130597Y172497D02*
X130597Y178023D01*
X134223Y178023D01*
X134223Y172497D01*
X134223Y176082D02*
X130597Y176082D01*
X118323Y178023D02*
X114697Y178023D01*
X118323Y178023D02*
X118323Y172497D01*
X114697Y172497D01*
X114697Y178023D01*
X114697Y176082D02*
X118323Y176082D01*
X58197Y449977D02*
X58197Y453603D01*
X63723Y453603D01*
X63723Y449977D01*
X58197Y449977D01*
X58197Y453562D02*
X63723Y453562D01*
X63723Y465877D02*
X63723Y469503D01*
X63723Y465877D02*
X58197Y465877D01*
X58197Y469503D01*
X63723Y469503D01*
X63723Y469462D02*
X58197Y469462D01*
X82337Y487457D02*
X85963Y487457D01*
X82337Y487457D02*
X82337Y492983D01*
X85963Y492983D01*
X85963Y487457D01*
X85963Y491042D02*
X82337Y491042D01*
X70063Y492983D02*
X66437Y492983D01*
X70063Y492983D02*
X70063Y487457D01*
X66437Y487457D01*
X66437Y492983D01*
X66437Y491042D02*
X70063Y491042D01*
D12*
X81788Y459486D03*
X146812Y459486D03*
X81788Y414274D03*
X146812Y414274D03*
D18*
X114300Y962660D03*
X114300Y1028700D03*
D19*
X87500Y270100D02*
X86100Y270100D01*
X87500Y270100D02*
X87500Y255900D01*
X86100Y255900D01*
X86100Y270100D01*
X86100Y257230D02*
X87500Y257230D01*
X87500Y258560D02*
X86100Y258560D01*
X86100Y259890D02*
X87500Y259890D01*
X87500Y261220D02*
X86100Y261220D01*
X86100Y262550D02*
X87500Y262550D01*
X87500Y263880D02*
X86100Y263880D01*
X86100Y265210D02*
X87500Y265210D01*
X87500Y266540D02*
X86100Y266540D01*
X86100Y267870D02*
X87500Y267870D01*
X87500Y269200D02*
X86100Y269200D01*
X91100Y270100D02*
X92500Y270100D01*
X92500Y255900D01*
X91100Y255900D01*
X91100Y270100D01*
X91100Y257230D02*
X92500Y257230D01*
X92500Y258560D02*
X91100Y258560D01*
X91100Y259890D02*
X92500Y259890D01*
X92500Y261220D02*
X91100Y261220D01*
X91100Y262550D02*
X92500Y262550D01*
X92500Y263880D02*
X91100Y263880D01*
X91100Y265210D02*
X92500Y265210D01*
X92500Y266540D02*
X91100Y266540D01*
X91100Y267870D02*
X92500Y267870D01*
X92500Y269200D02*
X91100Y269200D01*
X96100Y270100D02*
X97500Y270100D01*
X97500Y255900D01*
X96100Y255900D01*
X96100Y270100D01*
X96100Y257230D02*
X97500Y257230D01*
X97500Y258560D02*
X96100Y258560D01*
X96100Y259890D02*
X97500Y259890D01*
X97500Y261220D02*
X96100Y261220D01*
X96100Y262550D02*
X97500Y262550D01*
X97500Y263880D02*
X96100Y263880D01*
X96100Y265210D02*
X97500Y265210D01*
X97500Y266540D02*
X96100Y266540D01*
X96100Y267870D02*
X97500Y267870D01*
X97500Y269200D02*
X96100Y269200D01*
X101100Y270100D02*
X102500Y270100D01*
X102500Y255900D01*
X101100Y255900D01*
X101100Y270100D01*
X101100Y257230D02*
X102500Y257230D01*
X102500Y258560D02*
X101100Y258560D01*
X101100Y259890D02*
X102500Y259890D01*
X102500Y261220D02*
X101100Y261220D01*
X101100Y262550D02*
X102500Y262550D01*
X102500Y263880D02*
X101100Y263880D01*
X101100Y265210D02*
X102500Y265210D01*
X102500Y266540D02*
X101100Y266540D01*
X101100Y267870D02*
X102500Y267870D01*
X102500Y269200D02*
X101100Y269200D01*
X106100Y270100D02*
X107500Y270100D01*
X107500Y255900D01*
X106100Y255900D01*
X106100Y270100D01*
X106100Y257230D02*
X107500Y257230D01*
X107500Y258560D02*
X106100Y258560D01*
X106100Y259890D02*
X107500Y259890D01*
X107500Y261220D02*
X106100Y261220D01*
X106100Y262550D02*
X107500Y262550D01*
X107500Y263880D02*
X106100Y263880D01*
X106100Y265210D02*
X107500Y265210D01*
X107500Y266540D02*
X106100Y266540D01*
X106100Y267870D02*
X107500Y267870D01*
X107500Y269200D02*
X106100Y269200D01*
X111100Y270100D02*
X112500Y270100D01*
X112500Y255900D01*
X111100Y255900D01*
X111100Y270100D01*
X111100Y257230D02*
X112500Y257230D01*
X112500Y258560D02*
X111100Y258560D01*
X111100Y259890D02*
X112500Y259890D01*
X112500Y261220D02*
X111100Y261220D01*
X111100Y262550D02*
X112500Y262550D01*
X112500Y263880D02*
X111100Y263880D01*
X111100Y265210D02*
X112500Y265210D01*
X112500Y266540D02*
X111100Y266540D01*
X111100Y267870D02*
X112500Y267870D01*
X112500Y269200D02*
X111100Y269200D01*
X116100Y270100D02*
X117500Y270100D01*
X117500Y255900D01*
X116100Y255900D01*
X116100Y270100D01*
X116100Y257230D02*
X117500Y257230D01*
X117500Y258560D02*
X116100Y258560D01*
X116100Y259890D02*
X117500Y259890D01*
X117500Y261220D02*
X116100Y261220D01*
X116100Y262550D02*
X117500Y262550D01*
X117500Y263880D02*
X116100Y263880D01*
X116100Y265210D02*
X117500Y265210D01*
X117500Y266540D02*
X116100Y266540D01*
X116100Y267870D02*
X117500Y267870D01*
X117500Y269200D02*
X116100Y269200D01*
X121100Y270100D02*
X122500Y270100D01*
X122500Y255900D01*
X121100Y255900D01*
X121100Y270100D01*
X121100Y257230D02*
X122500Y257230D01*
X122500Y258560D02*
X121100Y258560D01*
X121100Y259890D02*
X122500Y259890D01*
X122500Y261220D02*
X121100Y261220D01*
X121100Y262550D02*
X122500Y262550D01*
X122500Y263880D02*
X121100Y263880D01*
X121100Y265210D02*
X122500Y265210D01*
X122500Y266540D02*
X121100Y266540D01*
X121100Y267870D02*
X122500Y267870D01*
X122500Y269200D02*
X121100Y269200D01*
X126100Y270100D02*
X127500Y270100D01*
X127500Y255900D01*
X126100Y255900D01*
X126100Y270100D01*
X126100Y257230D02*
X127500Y257230D01*
X127500Y258560D02*
X126100Y258560D01*
X126100Y259890D02*
X127500Y259890D01*
X127500Y261220D02*
X126100Y261220D01*
X126100Y262550D02*
X127500Y262550D01*
X127500Y263880D02*
X126100Y263880D01*
X126100Y265210D02*
X127500Y265210D01*
X127500Y266540D02*
X126100Y266540D01*
X126100Y267870D02*
X127500Y267870D01*
X127500Y269200D02*
X126100Y269200D01*
X131100Y270100D02*
X132500Y270100D01*
X132500Y255900D01*
X131100Y255900D01*
X131100Y270100D01*
X131100Y257230D02*
X132500Y257230D01*
X132500Y258560D02*
X131100Y258560D01*
X131100Y259890D02*
X132500Y259890D01*
X132500Y261220D02*
X131100Y261220D01*
X131100Y262550D02*
X132500Y262550D01*
X132500Y263880D02*
X131100Y263880D01*
X131100Y265210D02*
X132500Y265210D01*
X132500Y266540D02*
X131100Y266540D01*
X131100Y267870D02*
X132500Y267870D01*
X132500Y269200D02*
X131100Y269200D01*
X136100Y270100D02*
X137500Y270100D01*
X137500Y255900D01*
X136100Y255900D01*
X136100Y270100D01*
X136100Y257230D02*
X137500Y257230D01*
X137500Y258560D02*
X136100Y258560D01*
X136100Y259890D02*
X137500Y259890D01*
X137500Y261220D02*
X136100Y261220D01*
X136100Y262550D02*
X137500Y262550D01*
X137500Y263880D02*
X136100Y263880D01*
X136100Y265210D02*
X137500Y265210D01*
X137500Y266540D02*
X136100Y266540D01*
X136100Y267870D02*
X137500Y267870D01*
X137500Y269200D02*
X136100Y269200D01*
X141100Y270100D02*
X142500Y270100D01*
X142500Y255900D01*
X141100Y255900D01*
X141100Y270100D01*
X141100Y257230D02*
X142500Y257230D01*
X142500Y258560D02*
X141100Y258560D01*
X141100Y259890D02*
X142500Y259890D01*
X142500Y261220D02*
X141100Y261220D01*
X141100Y262550D02*
X142500Y262550D01*
X142500Y263880D02*
X141100Y263880D01*
X141100Y265210D02*
X142500Y265210D01*
X142500Y266540D02*
X141100Y266540D01*
X141100Y267870D02*
X142500Y267870D01*
X142500Y269200D02*
X141100Y269200D01*
X163200Y276600D02*
X163200Y278000D01*
X163200Y276600D02*
X149000Y276600D01*
X149000Y278000D01*
X163200Y278000D01*
X163200Y277930D02*
X149000Y277930D01*
X163200Y281600D02*
X163200Y283000D01*
X163200Y281600D02*
X149000Y281600D01*
X149000Y283000D01*
X163200Y283000D01*
X163200Y282930D02*
X149000Y282930D01*
X163200Y286600D02*
X163200Y288000D01*
X163200Y286600D02*
X149000Y286600D01*
X149000Y288000D01*
X163200Y288000D01*
X163200Y287930D02*
X149000Y287930D01*
X163200Y291600D02*
X163200Y293000D01*
X163200Y291600D02*
X149000Y291600D01*
X149000Y293000D01*
X163200Y293000D01*
X163200Y292930D02*
X149000Y292930D01*
X163200Y296600D02*
X163200Y298000D01*
X163200Y296600D02*
X149000Y296600D01*
X149000Y298000D01*
X163200Y298000D01*
X163200Y297930D02*
X149000Y297930D01*
X163200Y301600D02*
X163200Y303000D01*
X163200Y301600D02*
X149000Y301600D01*
X149000Y303000D01*
X163200Y303000D01*
X163200Y302930D02*
X149000Y302930D01*
X163200Y306600D02*
X163200Y308000D01*
X163200Y306600D02*
X149000Y306600D01*
X149000Y308000D01*
X163200Y308000D01*
X163200Y307930D02*
X149000Y307930D01*
X163200Y311600D02*
X163200Y313000D01*
X163200Y311600D02*
X149000Y311600D01*
X149000Y313000D01*
X163200Y313000D01*
X163200Y312930D02*
X149000Y312930D01*
X163200Y316600D02*
X163200Y318000D01*
X163200Y316600D02*
X149000Y316600D01*
X149000Y318000D01*
X163200Y318000D01*
X163200Y317930D02*
X149000Y317930D01*
X163200Y321600D02*
X163200Y323000D01*
X163200Y321600D02*
X149000Y321600D01*
X149000Y323000D01*
X163200Y323000D01*
X163200Y322930D02*
X149000Y322930D01*
X163200Y326600D02*
X163200Y328000D01*
X163200Y326600D02*
X149000Y326600D01*
X149000Y328000D01*
X163200Y328000D01*
X163200Y327930D02*
X149000Y327930D01*
X163200Y331600D02*
X163200Y333000D01*
X163200Y331600D02*
X149000Y331600D01*
X149000Y333000D01*
X163200Y333000D01*
X163200Y332930D02*
X149000Y332930D01*
X142500Y353700D02*
X141100Y353700D01*
X142500Y353700D02*
X142500Y339500D01*
X141100Y339500D01*
X141100Y353700D01*
X141100Y340830D02*
X142500Y340830D01*
X142500Y342160D02*
X141100Y342160D01*
X141100Y343490D02*
X142500Y343490D01*
X142500Y344820D02*
X141100Y344820D01*
X141100Y346150D02*
X142500Y346150D01*
X142500Y347480D02*
X141100Y347480D01*
X141100Y348810D02*
X142500Y348810D01*
X142500Y350140D02*
X141100Y350140D01*
X141100Y351470D02*
X142500Y351470D01*
X142500Y352800D02*
X141100Y352800D01*
X137500Y353700D02*
X136100Y353700D01*
X137500Y353700D02*
X137500Y339500D01*
X136100Y339500D01*
X136100Y353700D01*
X136100Y340830D02*
X137500Y340830D01*
X137500Y342160D02*
X136100Y342160D01*
X136100Y343490D02*
X137500Y343490D01*
X137500Y344820D02*
X136100Y344820D01*
X136100Y346150D02*
X137500Y346150D01*
X137500Y347480D02*
X136100Y347480D01*
X136100Y348810D02*
X137500Y348810D01*
X137500Y350140D02*
X136100Y350140D01*
X136100Y351470D02*
X137500Y351470D01*
X137500Y352800D02*
X136100Y352800D01*
X132500Y353700D02*
X131100Y353700D01*
X132500Y353700D02*
X132500Y339500D01*
X131100Y339500D01*
X131100Y353700D01*
X131100Y340830D02*
X132500Y340830D01*
X132500Y342160D02*
X131100Y342160D01*
X131100Y343490D02*
X132500Y343490D01*
X132500Y344820D02*
X131100Y344820D01*
X131100Y346150D02*
X132500Y346150D01*
X132500Y347480D02*
X131100Y347480D01*
X131100Y348810D02*
X132500Y348810D01*
X132500Y350140D02*
X131100Y350140D01*
X131100Y351470D02*
X132500Y351470D01*
X132500Y352800D02*
X131100Y352800D01*
X127500Y353700D02*
X126100Y353700D01*
X127500Y353700D02*
X127500Y339500D01*
X126100Y339500D01*
X126100Y353700D01*
X126100Y340830D02*
X127500Y340830D01*
X127500Y342160D02*
X126100Y342160D01*
X126100Y343490D02*
X127500Y343490D01*
X127500Y344820D02*
X126100Y344820D01*
X126100Y346150D02*
X127500Y346150D01*
X127500Y347480D02*
X126100Y347480D01*
X126100Y348810D02*
X127500Y348810D01*
X127500Y350140D02*
X126100Y350140D01*
X126100Y351470D02*
X127500Y351470D01*
X127500Y352800D02*
X126100Y352800D01*
X122500Y353700D02*
X121100Y353700D01*
X122500Y353700D02*
X122500Y339500D01*
X121100Y339500D01*
X121100Y353700D01*
X121100Y340830D02*
X122500Y340830D01*
X122500Y342160D02*
X121100Y342160D01*
X121100Y343490D02*
X122500Y343490D01*
X122500Y344820D02*
X121100Y344820D01*
X121100Y346150D02*
X122500Y346150D01*
X122500Y347480D02*
X121100Y347480D01*
X121100Y348810D02*
X122500Y348810D01*
X122500Y350140D02*
X121100Y350140D01*
X121100Y351470D02*
X122500Y351470D01*
X122500Y352800D02*
X121100Y352800D01*
X117500Y353700D02*
X116100Y353700D01*
X117500Y353700D02*
X117500Y339500D01*
X116100Y339500D01*
X116100Y353700D01*
X116100Y340830D02*
X117500Y340830D01*
X117500Y342160D02*
X116100Y342160D01*
X116100Y343490D02*
X117500Y343490D01*
X117500Y344820D02*
X116100Y344820D01*
X116100Y346150D02*
X117500Y346150D01*
X117500Y347480D02*
X116100Y347480D01*
X116100Y348810D02*
X117500Y348810D01*
X117500Y350140D02*
X116100Y350140D01*
X116100Y351470D02*
X117500Y351470D01*
X117500Y352800D02*
X116100Y352800D01*
X112500Y353700D02*
X111100Y353700D01*
X112500Y353700D02*
X112500Y339500D01*
X111100Y339500D01*
X111100Y353700D01*
X111100Y340830D02*
X112500Y340830D01*
X112500Y342160D02*
X111100Y342160D01*
X111100Y343490D02*
X112500Y343490D01*
X112500Y344820D02*
X111100Y344820D01*
X111100Y346150D02*
X112500Y346150D01*
X112500Y347480D02*
X111100Y347480D01*
X111100Y348810D02*
X112500Y348810D01*
X112500Y350140D02*
X111100Y350140D01*
X111100Y351470D02*
X112500Y351470D01*
X112500Y352800D02*
X111100Y352800D01*
X107500Y353700D02*
X106100Y353700D01*
X107500Y353700D02*
X107500Y339500D01*
X106100Y339500D01*
X106100Y353700D01*
X106100Y340830D02*
X107500Y340830D01*
X107500Y342160D02*
X106100Y342160D01*
X106100Y343490D02*
X107500Y343490D01*
X107500Y344820D02*
X106100Y344820D01*
X106100Y346150D02*
X107500Y346150D01*
X107500Y347480D02*
X106100Y347480D01*
X106100Y348810D02*
X107500Y348810D01*
X107500Y350140D02*
X106100Y350140D01*
X106100Y351470D02*
X107500Y351470D01*
X107500Y352800D02*
X106100Y352800D01*
X102500Y353700D02*
X101100Y353700D01*
X102500Y353700D02*
X102500Y339500D01*
X101100Y339500D01*
X101100Y353700D01*
X101100Y340830D02*
X102500Y340830D01*
X102500Y342160D02*
X101100Y342160D01*
X101100Y343490D02*
X102500Y343490D01*
X102500Y344820D02*
X101100Y344820D01*
X101100Y346150D02*
X102500Y346150D01*
X102500Y347480D02*
X101100Y347480D01*
X101100Y348810D02*
X102500Y348810D01*
X102500Y350140D02*
X101100Y350140D01*
X101100Y351470D02*
X102500Y351470D01*
X102500Y352800D02*
X101100Y352800D01*
X97500Y353700D02*
X96100Y353700D01*
X97500Y353700D02*
X97500Y339500D01*
X96100Y339500D01*
X96100Y353700D01*
X96100Y340830D02*
X97500Y340830D01*
X97500Y342160D02*
X96100Y342160D01*
X96100Y343490D02*
X97500Y343490D01*
X97500Y344820D02*
X96100Y344820D01*
X96100Y346150D02*
X97500Y346150D01*
X97500Y347480D02*
X96100Y347480D01*
X96100Y348810D02*
X97500Y348810D01*
X97500Y350140D02*
X96100Y350140D01*
X96100Y351470D02*
X97500Y351470D01*
X97500Y352800D02*
X96100Y352800D01*
X92500Y353700D02*
X91100Y353700D01*
X92500Y353700D02*
X92500Y339500D01*
X91100Y339500D01*
X91100Y353700D01*
X91100Y340830D02*
X92500Y340830D01*
X92500Y342160D02*
X91100Y342160D01*
X91100Y343490D02*
X92500Y343490D01*
X92500Y344820D02*
X91100Y344820D01*
X91100Y346150D02*
X92500Y346150D01*
X92500Y347480D02*
X91100Y347480D01*
X91100Y348810D02*
X92500Y348810D01*
X92500Y350140D02*
X91100Y350140D01*
X91100Y351470D02*
X92500Y351470D01*
X92500Y352800D02*
X91100Y352800D01*
X87500Y353700D02*
X86100Y353700D01*
X87500Y353700D02*
X87500Y339500D01*
X86100Y339500D01*
X86100Y353700D01*
X86100Y340830D02*
X87500Y340830D01*
X87500Y342160D02*
X86100Y342160D01*
X86100Y343490D02*
X87500Y343490D01*
X87500Y344820D02*
X86100Y344820D01*
X86100Y346150D02*
X87500Y346150D01*
X87500Y347480D02*
X86100Y347480D01*
X86100Y348810D02*
X87500Y348810D01*
X87500Y350140D02*
X86100Y350140D01*
X86100Y351470D02*
X87500Y351470D01*
X87500Y352800D02*
X86100Y352800D01*
X79600Y333000D02*
X79600Y331600D01*
X65400Y331600D01*
X65400Y333000D01*
X79600Y333000D01*
X79600Y332930D02*
X65400Y332930D01*
X79600Y328000D02*
X79600Y326600D01*
X65400Y326600D01*
X65400Y328000D01*
X79600Y328000D01*
X79600Y327930D02*
X65400Y327930D01*
X79600Y323000D02*
X79600Y321600D01*
X65400Y321600D01*
X65400Y323000D01*
X79600Y323000D01*
X79600Y322930D02*
X65400Y322930D01*
X79600Y318000D02*
X79600Y316600D01*
X65400Y316600D01*
X65400Y318000D01*
X79600Y318000D01*
X79600Y317930D02*
X65400Y317930D01*
X79600Y313000D02*
X79600Y311600D01*
X65400Y311600D01*
X65400Y313000D01*
X79600Y313000D01*
X79600Y312930D02*
X65400Y312930D01*
X79600Y308000D02*
X79600Y306600D01*
X65400Y306600D01*
X65400Y308000D01*
X79600Y308000D01*
X79600Y307930D02*
X65400Y307930D01*
X79600Y303000D02*
X79600Y301600D01*
X65400Y301600D01*
X65400Y303000D01*
X79600Y303000D01*
X79600Y302930D02*
X65400Y302930D01*
X79600Y298000D02*
X79600Y296600D01*
X65400Y296600D01*
X65400Y298000D01*
X79600Y298000D01*
X79600Y297930D02*
X65400Y297930D01*
X79600Y293000D02*
X79600Y291600D01*
X65400Y291600D01*
X65400Y293000D01*
X79600Y293000D01*
X79600Y292930D02*
X65400Y292930D01*
X79600Y288000D02*
X79600Y286600D01*
X65400Y286600D01*
X65400Y288000D01*
X79600Y288000D01*
X79600Y287930D02*
X65400Y287930D01*
X79600Y283000D02*
X79600Y281600D01*
X65400Y281600D01*
X65400Y283000D01*
X79600Y283000D01*
X79600Y282930D02*
X65400Y282930D01*
X79600Y278000D02*
X79600Y276600D01*
X65400Y276600D01*
X65400Y278000D01*
X79600Y278000D01*
X79600Y277930D02*
X65400Y277930D01*
D20*
X127398Y753052D02*
X127398Y758548D01*
X127398Y753052D02*
X126202Y753052D01*
X126202Y758548D01*
X127398Y758548D01*
X127398Y754386D02*
X126202Y754386D01*
X126202Y755720D02*
X127398Y755720D01*
X127398Y757054D02*
X126202Y757054D01*
X126202Y758388D02*
X127398Y758388D01*
X122398Y758548D02*
X122398Y753052D01*
X121202Y753052D01*
X121202Y758548D01*
X122398Y758548D01*
X122398Y754386D02*
X121202Y754386D01*
X121202Y755720D02*
X122398Y755720D01*
X122398Y757054D02*
X121202Y757054D01*
X121202Y758388D02*
X122398Y758388D01*
X117398Y758548D02*
X117398Y753052D01*
X116202Y753052D01*
X116202Y758548D01*
X117398Y758548D01*
X117398Y754386D02*
X116202Y754386D01*
X116202Y755720D02*
X117398Y755720D01*
X117398Y757054D02*
X116202Y757054D01*
X116202Y758388D02*
X117398Y758388D01*
X112398Y758548D02*
X112398Y753052D01*
X111202Y753052D01*
X111202Y758548D01*
X112398Y758548D01*
X112398Y754386D02*
X111202Y754386D01*
X111202Y755720D02*
X112398Y755720D01*
X112398Y757054D02*
X111202Y757054D01*
X111202Y758388D02*
X112398Y758388D01*
X107398Y758548D02*
X107398Y753052D01*
X106202Y753052D01*
X106202Y758548D01*
X107398Y758548D01*
X107398Y754386D02*
X106202Y754386D01*
X106202Y755720D02*
X107398Y755720D01*
X107398Y757054D02*
X106202Y757054D01*
X106202Y758388D02*
X107398Y758388D01*
X102398Y758548D02*
X102398Y753052D01*
X101202Y753052D01*
X101202Y758548D01*
X102398Y758548D01*
X102398Y754386D02*
X101202Y754386D01*
X101202Y755720D02*
X102398Y755720D01*
X102398Y757054D02*
X101202Y757054D01*
X101202Y758388D02*
X102398Y758388D01*
X97848Y749698D02*
X92352Y749698D01*
X97848Y749698D02*
X97848Y748502D01*
X92352Y748502D01*
X92352Y749698D01*
X92352Y744698D02*
X97848Y744698D01*
X97848Y743502D01*
X92352Y743502D01*
X92352Y744698D01*
X92352Y739698D02*
X97848Y739698D01*
X97848Y738502D01*
X92352Y738502D01*
X92352Y739698D01*
X92352Y734698D02*
X97848Y734698D01*
X97848Y733502D01*
X92352Y733502D01*
X92352Y734698D01*
X92352Y729698D02*
X97848Y729698D01*
X97848Y728502D01*
X92352Y728502D01*
X92352Y729698D01*
X92352Y724698D02*
X97848Y724698D01*
X97848Y723502D01*
X92352Y723502D01*
X92352Y724698D01*
X101202Y720148D02*
X101202Y714652D01*
X101202Y720148D02*
X102398Y720148D01*
X102398Y714652D01*
X101202Y714652D01*
X101202Y715986D02*
X102398Y715986D01*
X102398Y717320D02*
X101202Y717320D01*
X101202Y718654D02*
X102398Y718654D01*
X102398Y719988D02*
X101202Y719988D01*
X106202Y720148D02*
X106202Y714652D01*
X106202Y720148D02*
X107398Y720148D01*
X107398Y714652D01*
X106202Y714652D01*
X106202Y715986D02*
X107398Y715986D01*
X107398Y717320D02*
X106202Y717320D01*
X106202Y718654D02*
X107398Y718654D01*
X107398Y719988D02*
X106202Y719988D01*
X111202Y720148D02*
X111202Y714652D01*
X111202Y720148D02*
X112398Y720148D01*
X112398Y714652D01*
X111202Y714652D01*
X111202Y715986D02*
X112398Y715986D01*
X112398Y717320D02*
X111202Y717320D01*
X111202Y718654D02*
X112398Y718654D01*
X112398Y719988D02*
X111202Y719988D01*
X116202Y720148D02*
X116202Y714652D01*
X116202Y720148D02*
X117398Y720148D01*
X117398Y714652D01*
X116202Y714652D01*
X116202Y715986D02*
X117398Y715986D01*
X117398Y717320D02*
X116202Y717320D01*
X116202Y718654D02*
X117398Y718654D01*
X117398Y719988D02*
X116202Y719988D01*
X121202Y720148D02*
X121202Y714652D01*
X121202Y720148D02*
X122398Y720148D01*
X122398Y714652D01*
X121202Y714652D01*
X121202Y715986D02*
X122398Y715986D01*
X122398Y717320D02*
X121202Y717320D01*
X121202Y718654D02*
X122398Y718654D01*
X122398Y719988D02*
X121202Y719988D01*
X126202Y720148D02*
X126202Y714652D01*
X126202Y720148D02*
X127398Y720148D01*
X127398Y714652D01*
X126202Y714652D01*
X126202Y715986D02*
X127398Y715986D01*
X127398Y717320D02*
X126202Y717320D01*
X126202Y718654D02*
X127398Y718654D01*
X127398Y719988D02*
X126202Y719988D01*
X130752Y723502D02*
X136248Y723502D01*
X130752Y723502D02*
X130752Y724698D01*
X136248Y724698D01*
X136248Y723502D01*
X136248Y728502D02*
X130752Y728502D01*
X130752Y729698D01*
X136248Y729698D01*
X136248Y728502D01*
X136248Y733502D02*
X130752Y733502D01*
X130752Y734698D01*
X136248Y734698D01*
X136248Y733502D01*
X136248Y738502D02*
X130752Y738502D01*
X130752Y739698D01*
X136248Y739698D01*
X136248Y738502D01*
X136248Y743502D02*
X130752Y743502D01*
X130752Y744698D01*
X136248Y744698D01*
X136248Y743502D01*
X136248Y748502D02*
X130752Y748502D01*
X130752Y749698D01*
X136248Y749698D01*
X136248Y748502D01*
D21*
X114300Y736600D03*
D22*
X105275Y814975D02*
X105275Y822425D01*
X105275Y814975D02*
X103325Y814975D01*
X103325Y822425D01*
X105275Y822425D01*
X105275Y815592D02*
X103325Y815592D01*
X103325Y816209D02*
X105275Y816209D01*
X105275Y816826D02*
X103325Y816826D01*
X103325Y817443D02*
X105275Y817443D01*
X105275Y818060D02*
X103325Y818060D01*
X103325Y818677D02*
X105275Y818677D01*
X105275Y819294D02*
X103325Y819294D01*
X103325Y819911D02*
X105275Y819911D01*
X105275Y820528D02*
X103325Y820528D01*
X103325Y821145D02*
X105275Y821145D01*
X105275Y821762D02*
X103325Y821762D01*
X103325Y822379D02*
X105275Y822379D01*
X110275Y822425D02*
X110275Y814975D01*
X108325Y814975D01*
X108325Y822425D01*
X110275Y822425D01*
X110275Y815592D02*
X108325Y815592D01*
X108325Y816209D02*
X110275Y816209D01*
X110275Y816826D02*
X108325Y816826D01*
X108325Y817443D02*
X110275Y817443D01*
X110275Y818060D02*
X108325Y818060D01*
X108325Y818677D02*
X110275Y818677D01*
X110275Y819294D02*
X108325Y819294D01*
X108325Y819911D02*
X110275Y819911D01*
X110275Y820528D02*
X108325Y820528D01*
X108325Y821145D02*
X110275Y821145D01*
X110275Y821762D02*
X108325Y821762D01*
X108325Y822379D02*
X110275Y822379D01*
X115275Y822425D02*
X115275Y814975D01*
X113325Y814975D01*
X113325Y822425D01*
X115275Y822425D01*
X115275Y815592D02*
X113325Y815592D01*
X113325Y816209D02*
X115275Y816209D01*
X115275Y816826D02*
X113325Y816826D01*
X113325Y817443D02*
X115275Y817443D01*
X115275Y818060D02*
X113325Y818060D01*
X113325Y818677D02*
X115275Y818677D01*
X115275Y819294D02*
X113325Y819294D01*
X113325Y819911D02*
X115275Y819911D01*
X115275Y820528D02*
X113325Y820528D01*
X113325Y821145D02*
X115275Y821145D01*
X115275Y821762D02*
X113325Y821762D01*
X113325Y822379D02*
X115275Y822379D01*
X120275Y822425D02*
X120275Y814975D01*
X118325Y814975D01*
X118325Y822425D01*
X120275Y822425D01*
X120275Y815592D02*
X118325Y815592D01*
X118325Y816209D02*
X120275Y816209D01*
X120275Y816826D02*
X118325Y816826D01*
X118325Y817443D02*
X120275Y817443D01*
X120275Y818060D02*
X118325Y818060D01*
X118325Y818677D02*
X120275Y818677D01*
X120275Y819294D02*
X118325Y819294D01*
X118325Y819911D02*
X120275Y819911D01*
X120275Y820528D02*
X118325Y820528D01*
X118325Y821145D02*
X120275Y821145D01*
X120275Y821762D02*
X118325Y821762D01*
X118325Y822379D02*
X120275Y822379D01*
X125275Y822425D02*
X125275Y814975D01*
X123325Y814975D01*
X123325Y822425D01*
X125275Y822425D01*
X125275Y815592D02*
X123325Y815592D01*
X123325Y816209D02*
X125275Y816209D01*
X125275Y816826D02*
X123325Y816826D01*
X123325Y817443D02*
X125275Y817443D01*
X125275Y818060D02*
X123325Y818060D01*
X123325Y818677D02*
X125275Y818677D01*
X125275Y819294D02*
X123325Y819294D01*
X123325Y819911D02*
X125275Y819911D01*
X125275Y820528D02*
X123325Y820528D01*
X123325Y821145D02*
X125275Y821145D01*
X125275Y821762D02*
X123325Y821762D01*
X123325Y822379D02*
X125275Y822379D01*
X125275Y853975D02*
X125275Y861425D01*
X125275Y853975D02*
X123325Y853975D01*
X123325Y861425D01*
X125275Y861425D01*
X125275Y854592D02*
X123325Y854592D01*
X123325Y855209D02*
X125275Y855209D01*
X125275Y855826D02*
X123325Y855826D01*
X123325Y856443D02*
X125275Y856443D01*
X125275Y857060D02*
X123325Y857060D01*
X123325Y857677D02*
X125275Y857677D01*
X125275Y858294D02*
X123325Y858294D01*
X123325Y858911D02*
X125275Y858911D01*
X125275Y859528D02*
X123325Y859528D01*
X123325Y860145D02*
X125275Y860145D01*
X125275Y860762D02*
X123325Y860762D01*
X123325Y861379D02*
X125275Y861379D01*
X120275Y861425D02*
X120275Y853975D01*
X118325Y853975D01*
X118325Y861425D01*
X120275Y861425D01*
X120275Y854592D02*
X118325Y854592D01*
X118325Y855209D02*
X120275Y855209D01*
X120275Y855826D02*
X118325Y855826D01*
X118325Y856443D02*
X120275Y856443D01*
X120275Y857060D02*
X118325Y857060D01*
X118325Y857677D02*
X120275Y857677D01*
X120275Y858294D02*
X118325Y858294D01*
X118325Y858911D02*
X120275Y858911D01*
X120275Y859528D02*
X118325Y859528D01*
X118325Y860145D02*
X120275Y860145D01*
X120275Y860762D02*
X118325Y860762D01*
X118325Y861379D02*
X120275Y861379D01*
X115275Y861425D02*
X115275Y853975D01*
X113325Y853975D01*
X113325Y861425D01*
X115275Y861425D01*
X115275Y854592D02*
X113325Y854592D01*
X113325Y855209D02*
X115275Y855209D01*
X115275Y855826D02*
X113325Y855826D01*
X113325Y856443D02*
X115275Y856443D01*
X115275Y857060D02*
X113325Y857060D01*
X113325Y857677D02*
X115275Y857677D01*
X115275Y858294D02*
X113325Y858294D01*
X113325Y858911D02*
X115275Y858911D01*
X115275Y859528D02*
X113325Y859528D01*
X113325Y860145D02*
X115275Y860145D01*
X115275Y860762D02*
X113325Y860762D01*
X113325Y861379D02*
X115275Y861379D01*
X110275Y861425D02*
X110275Y853975D01*
X108325Y853975D01*
X108325Y861425D01*
X110275Y861425D01*
X110275Y854592D02*
X108325Y854592D01*
X108325Y855209D02*
X110275Y855209D01*
X110275Y855826D02*
X108325Y855826D01*
X108325Y856443D02*
X110275Y856443D01*
X110275Y857060D02*
X108325Y857060D01*
X108325Y857677D02*
X110275Y857677D01*
X110275Y858294D02*
X108325Y858294D01*
X108325Y858911D02*
X110275Y858911D01*
X110275Y859528D02*
X108325Y859528D01*
X108325Y860145D02*
X110275Y860145D01*
X110275Y860762D02*
X108325Y860762D01*
X108325Y861379D02*
X110275Y861379D01*
X105275Y861425D02*
X105275Y853975D01*
X103325Y853975D01*
X103325Y861425D01*
X105275Y861425D01*
X105275Y854592D02*
X103325Y854592D01*
X103325Y855209D02*
X105275Y855209D01*
X105275Y855826D02*
X103325Y855826D01*
X103325Y856443D02*
X105275Y856443D01*
X105275Y857060D02*
X103325Y857060D01*
X103325Y857677D02*
X105275Y857677D01*
X105275Y858294D02*
X103325Y858294D01*
X103325Y858911D02*
X105275Y858911D01*
X105275Y859528D02*
X103325Y859528D01*
X103325Y860145D02*
X105275Y860145D01*
X105275Y860762D02*
X103325Y860762D01*
X103325Y861379D02*
X105275Y861379D01*
X98525Y847225D02*
X91075Y847225D01*
X91075Y849175D01*
X98525Y849175D01*
X98525Y847225D01*
X98525Y847842D02*
X91075Y847842D01*
X91075Y848459D02*
X98525Y848459D01*
X98525Y849076D02*
X91075Y849076D01*
X91075Y842225D02*
X98525Y842225D01*
X91075Y842225D02*
X91075Y844175D01*
X98525Y844175D01*
X98525Y842225D01*
X98525Y842842D02*
X91075Y842842D01*
X91075Y843459D02*
X98525Y843459D01*
X98525Y844076D02*
X91075Y844076D01*
X91075Y837225D02*
X98525Y837225D01*
X91075Y837225D02*
X91075Y839175D01*
X98525Y839175D01*
X98525Y837225D01*
X98525Y837842D02*
X91075Y837842D01*
X91075Y838459D02*
X98525Y838459D01*
X98525Y839076D02*
X91075Y839076D01*
X91075Y832225D02*
X98525Y832225D01*
X91075Y832225D02*
X91075Y834175D01*
X98525Y834175D01*
X98525Y832225D01*
X98525Y832842D02*
X91075Y832842D01*
X91075Y833459D02*
X98525Y833459D01*
X98525Y834076D02*
X91075Y834076D01*
X91075Y827225D02*
X98525Y827225D01*
X91075Y827225D02*
X91075Y829175D01*
X98525Y829175D01*
X98525Y827225D01*
X98525Y827842D02*
X91075Y827842D01*
X91075Y828459D02*
X98525Y828459D01*
X98525Y829076D02*
X91075Y829076D01*
X130075Y827225D02*
X137525Y827225D01*
X130075Y827225D02*
X130075Y829175D01*
X137525Y829175D01*
X137525Y827225D01*
X137525Y827842D02*
X130075Y827842D01*
X130075Y828459D02*
X137525Y828459D01*
X137525Y829076D02*
X130075Y829076D01*
X130075Y832225D02*
X137525Y832225D01*
X130075Y832225D02*
X130075Y834175D01*
X137525Y834175D01*
X137525Y832225D01*
X137525Y832842D02*
X130075Y832842D01*
X130075Y833459D02*
X137525Y833459D01*
X137525Y834076D02*
X130075Y834076D01*
X130075Y837225D02*
X137525Y837225D01*
X130075Y837225D02*
X130075Y839175D01*
X137525Y839175D01*
X137525Y837225D01*
X137525Y837842D02*
X130075Y837842D01*
X130075Y838459D02*
X137525Y838459D01*
X137525Y839076D02*
X130075Y839076D01*
X130075Y842225D02*
X137525Y842225D01*
X130075Y842225D02*
X130075Y844175D01*
X137525Y844175D01*
X137525Y842225D01*
X137525Y842842D02*
X130075Y842842D01*
X130075Y843459D02*
X137525Y843459D01*
X137525Y844076D02*
X130075Y844076D01*
X130075Y847225D02*
X137525Y847225D01*
X130075Y847225D02*
X130075Y849175D01*
X137525Y849175D01*
X137525Y847225D01*
X137525Y847842D02*
X130075Y847842D01*
X130075Y848459D02*
X137525Y848459D01*
X137525Y849076D02*
X130075Y849076D01*
D23*
X114300Y838200D03*
D24*
X104800Y101299D03*
X114300Y101299D03*
X123800Y101299D03*
X123800Y127301D03*
X104800Y127301D03*
D25*
X105960Y194240D03*
X142960Y217240D03*
X105960Y217240D03*
X142960Y194240D03*
X206460Y842080D03*
X169460Y819080D03*
X206460Y819080D03*
X169460Y842080D03*
D26*
X83620Y157480D03*
X58620Y157480D03*
D17*
X178197Y868903D02*
X181823Y868903D01*
X181823Y863377D01*
X178197Y863377D01*
X178197Y868903D01*
X178197Y866962D02*
X181823Y866962D01*
X194097Y863377D02*
X197723Y863377D01*
X194097Y863377D02*
X194097Y868903D01*
X197723Y868903D01*
X197723Y863377D01*
X197723Y866962D02*
X194097Y866962D01*
X45497Y644103D02*
X45497Y640477D01*
X45497Y644103D02*
X51023Y644103D01*
X51023Y640477D01*
X45497Y640477D01*
X45497Y644062D02*
X51023Y644062D01*
X51023Y656377D02*
X51023Y660003D01*
X51023Y656377D02*
X45497Y656377D01*
X45497Y660003D01*
X51023Y660003D01*
X51023Y659962D02*
X45497Y659962D01*
X20097Y644103D02*
X20097Y640477D01*
X20097Y644103D02*
X25623Y644103D01*
X25623Y640477D01*
X20097Y640477D01*
X20097Y644062D02*
X25623Y644062D01*
X25623Y656377D02*
X25623Y660003D01*
X25623Y656377D02*
X20097Y656377D01*
X20097Y660003D01*
X25623Y660003D01*
X25623Y659962D02*
X20097Y659962D01*
X166157Y685577D02*
X169783Y685577D01*
X166157Y685577D02*
X166157Y691103D01*
X169783Y691103D01*
X169783Y685577D01*
X169783Y689162D02*
X166157Y689162D01*
X153883Y691103D02*
X150257Y691103D01*
X153883Y691103D02*
X153883Y685577D01*
X150257Y685577D01*
X150257Y691103D01*
X150257Y689162D02*
X153883Y689162D01*
X195803Y702097D02*
X195803Y705723D01*
X195803Y702097D02*
X190277Y702097D01*
X190277Y705723D01*
X195803Y705723D01*
X195803Y705682D02*
X190277Y705682D01*
X190277Y689823D02*
X190277Y686197D01*
X190277Y689823D02*
X195803Y689823D01*
X195803Y686197D01*
X190277Y686197D01*
X190277Y689782D02*
X195803Y689782D01*
D27*
X113543Y644183D02*
X110057Y644183D01*
X113543Y644183D02*
X113543Y640997D01*
X110057Y640997D01*
X110057Y644183D01*
X110057Y641296D02*
X113543Y641296D01*
X113543Y641595D02*
X110057Y641595D01*
X110057Y641894D02*
X113543Y641894D01*
X113543Y642193D02*
X110057Y642193D01*
X110057Y642492D02*
X113543Y642492D01*
X113543Y642791D02*
X110057Y642791D01*
X110057Y643090D02*
X113543Y643090D01*
X113543Y643389D02*
X110057Y643389D01*
X110057Y643688D02*
X113543Y643688D01*
X113543Y643987D02*
X110057Y643987D01*
X115057Y644183D02*
X118543Y644183D01*
X118543Y640997D01*
X115057Y640997D01*
X115057Y644183D01*
X115057Y641296D02*
X118543Y641296D01*
X118543Y641595D02*
X115057Y641595D01*
X115057Y641894D02*
X118543Y641894D01*
X118543Y642193D02*
X115057Y642193D01*
X115057Y642492D02*
X118543Y642492D01*
X118543Y642791D02*
X115057Y642791D01*
X115057Y643090D02*
X118543Y643090D01*
X118543Y643389D02*
X115057Y643389D01*
X115057Y643688D02*
X118543Y643688D01*
X118543Y643987D02*
X115057Y643987D01*
X120207Y646833D02*
X123693Y646833D01*
X123693Y643647D01*
X120207Y643647D01*
X120207Y646833D01*
X120207Y643946D02*
X123693Y643946D01*
X123693Y644245D02*
X120207Y644245D01*
X120207Y644544D02*
X123693Y644544D01*
X123693Y644843D02*
X120207Y644843D01*
X120207Y645142D02*
X123693Y645142D01*
X123693Y645441D02*
X120207Y645441D01*
X120207Y645740D02*
X123693Y645740D01*
X123693Y646039D02*
X120207Y646039D01*
X120207Y646338D02*
X123693Y646338D01*
X123693Y646637D02*
X120207Y646637D01*
X120207Y651833D02*
X123693Y651833D01*
X123693Y648647D01*
X120207Y648647D01*
X120207Y651833D01*
X120207Y648946D02*
X123693Y648946D01*
X123693Y649245D02*
X120207Y649245D01*
X120207Y649544D02*
X123693Y649544D01*
X123693Y649843D02*
X120207Y649843D01*
X120207Y650142D02*
X123693Y650142D01*
X123693Y650441D02*
X120207Y650441D01*
X120207Y650740D02*
X123693Y650740D01*
X123693Y651039D02*
X120207Y651039D01*
X120207Y651338D02*
X123693Y651338D01*
X123693Y651637D02*
X120207Y651637D01*
X120207Y656833D02*
X123693Y656833D01*
X123693Y653647D01*
X120207Y653647D01*
X120207Y656833D01*
X120207Y653946D02*
X123693Y653946D01*
X123693Y654245D02*
X120207Y654245D01*
X120207Y654544D02*
X123693Y654544D01*
X123693Y654843D02*
X120207Y654843D01*
X120207Y655142D02*
X123693Y655142D01*
X123693Y655441D02*
X120207Y655441D01*
X120207Y655740D02*
X123693Y655740D01*
X123693Y656039D02*
X120207Y656039D01*
X120207Y656338D02*
X123693Y656338D01*
X123693Y656637D02*
X120207Y656637D01*
X118543Y659483D02*
X115057Y659483D01*
X118543Y659483D02*
X118543Y656297D01*
X115057Y656297D01*
X115057Y659483D01*
X115057Y656596D02*
X118543Y656596D01*
X118543Y656895D02*
X115057Y656895D01*
X115057Y657194D02*
X118543Y657194D01*
X118543Y657493D02*
X115057Y657493D01*
X115057Y657792D02*
X118543Y657792D01*
X118543Y658091D02*
X115057Y658091D01*
X115057Y658390D02*
X118543Y658390D01*
X118543Y658689D02*
X115057Y658689D01*
X115057Y658988D02*
X118543Y658988D01*
X118543Y659287D02*
X115057Y659287D01*
X113543Y659483D02*
X110057Y659483D01*
X113543Y659483D02*
X113543Y656297D01*
X110057Y656297D01*
X110057Y659483D01*
X110057Y656596D02*
X113543Y656596D01*
X113543Y656895D02*
X110057Y656895D01*
X110057Y657194D02*
X113543Y657194D01*
X113543Y657493D02*
X110057Y657493D01*
X110057Y657792D02*
X113543Y657792D01*
X113543Y658091D02*
X110057Y658091D01*
X110057Y658390D02*
X113543Y658390D01*
X113543Y658689D02*
X110057Y658689D01*
X110057Y658988D02*
X113543Y658988D01*
X113543Y659287D02*
X110057Y659287D01*
X108393Y656833D02*
X104907Y656833D01*
X108393Y656833D02*
X108393Y653647D01*
X104907Y653647D01*
X104907Y656833D01*
X104907Y653946D02*
X108393Y653946D01*
X108393Y654245D02*
X104907Y654245D01*
X104907Y654544D02*
X108393Y654544D01*
X108393Y654843D02*
X104907Y654843D01*
X104907Y655142D02*
X108393Y655142D01*
X108393Y655441D02*
X104907Y655441D01*
X104907Y655740D02*
X108393Y655740D01*
X108393Y656039D02*
X104907Y656039D01*
X104907Y656338D02*
X108393Y656338D01*
X108393Y656637D02*
X104907Y656637D01*
X104907Y651833D02*
X108393Y651833D01*
X108393Y648647D01*
X104907Y648647D01*
X104907Y651833D01*
X104907Y648946D02*
X108393Y648946D01*
X108393Y649245D02*
X104907Y649245D01*
X104907Y649544D02*
X108393Y649544D01*
X108393Y649843D02*
X104907Y649843D01*
X104907Y650142D02*
X108393Y650142D01*
X108393Y650441D02*
X104907Y650441D01*
X104907Y650740D02*
X108393Y650740D01*
X108393Y651039D02*
X104907Y651039D01*
X104907Y651338D02*
X108393Y651338D01*
X108393Y651637D02*
X104907Y651637D01*
X104907Y646833D02*
X108393Y646833D01*
X108393Y643647D01*
X104907Y643647D01*
X104907Y646833D01*
X104907Y643946D02*
X108393Y643946D01*
X108393Y644245D02*
X104907Y644245D01*
X104907Y644544D02*
X108393Y644544D01*
X108393Y644843D02*
X104907Y644843D01*
X104907Y645142D02*
X108393Y645142D01*
X108393Y645441D02*
X104907Y645441D01*
X104907Y645740D02*
X108393Y645740D01*
X108393Y646039D02*
X104907Y646039D01*
X104907Y646338D02*
X108393Y646338D01*
X108393Y646637D02*
X104907Y646637D01*
D10*
X149670Y654990D02*
X149670Y659590D01*
X149670Y654990D02*
X144970Y654990D01*
X144970Y659590D01*
X149670Y659590D01*
X149670Y659360D02*
X144970Y659360D01*
X144970Y645490D02*
X144970Y640890D01*
X144970Y645490D02*
X149670Y645490D01*
X149670Y640890D01*
X144970Y640890D01*
X144970Y645260D02*
X149670Y645260D01*
X165290Y645490D02*
X165290Y640890D01*
X165290Y645490D02*
X169990Y645490D01*
X169990Y640890D01*
X165290Y640890D01*
X165290Y645260D02*
X169990Y645260D01*
X169990Y654990D02*
X169990Y659590D01*
X169990Y654990D02*
X165290Y654990D01*
X165290Y659590D01*
X169990Y659590D01*
X169990Y659360D02*
X165290Y659360D01*
D12*
X199600Y609600D03*
X199600Y584200D03*
X199600Y558800D03*
X199600Y533400D03*
D28*
X126800Y279400D02*
X126800Y263000D01*
X126800Y279400D02*
X127000Y279400D01*
D29*
X127000Y279400D03*
D28*
X91440Y277300D02*
X72500Y277300D01*
X91440Y277300D02*
X91440Y279400D01*
D29*
X91440Y279400D03*
D28*
X86800Y332740D02*
X86800Y346600D01*
X86800Y332740D02*
X86360Y332740D01*
X86360Y330200D01*
D29*
X86360Y330200D03*
D28*
X142240Y332300D02*
X156100Y332300D01*
X142240Y332300D02*
X142240Y332740D01*
D29*
X142240Y332740D03*
D28*
X81280Y128970D02*
X60960Y128970D01*
X81280Y128970D02*
X104800Y128970D01*
X104800Y127301D01*
X104800Y132080D01*
X114300Y132080D01*
D29*
X114300Y132080D03*
D28*
X60960Y467690D02*
X58750Y469900D01*
X50800Y533400D02*
X25400Y533400D01*
X50800Y533400D02*
X51370Y533400D01*
X106650Y645240D02*
X111800Y645240D01*
X111800Y642590D01*
X106650Y645240D02*
X106650Y646204D01*
X110836Y646204D01*
X110836Y653854D01*
X115986Y653854D01*
X115986Y657890D01*
X116800Y657890D01*
X116800Y668020D01*
X127000Y668020D01*
X137160Y668020D01*
X137160Y657290D02*
X147320Y657290D01*
X137160Y657290D02*
X137160Y668020D01*
X147320Y657290D02*
X167640Y657290D01*
X95100Y744100D02*
X76200Y744100D01*
X76200Y749300D02*
X68010Y749300D01*
X76200Y749300D02*
X76200Y744100D01*
X68010Y698500D02*
X101800Y698500D01*
X101800Y717400D01*
X114300Y869188D02*
X55880Y869188D01*
X55880Y878840D01*
D29*
X43180Y878840D03*
D28*
X114300Y869188D02*
X114300Y857700D01*
X55880Y878840D02*
X43180Y878840D01*
X133800Y859056D02*
X133800Y848200D01*
X133800Y859056D02*
X136624Y859056D01*
X136624Y868680D01*
X144856Y868680D02*
X144856Y871144D01*
D29*
X144856Y871144D03*
D28*
X144856Y868680D02*
X136624Y868680D01*
X76200Y767080D02*
X76200Y749300D01*
D29*
X76200Y767080D03*
D28*
X101800Y698500D02*
X101800Y688340D01*
X104140Y688340D01*
D29*
X104140Y688340D03*
D28*
X127000Y688340D02*
X127000Y668020D01*
X127000Y688340D02*
X104140Y688340D01*
D29*
X66040Y658190D03*
D28*
X48260Y658190D01*
X193040Y668020D02*
X193040Y688010D01*
X193040Y668020D02*
X195580Y668020D01*
D29*
X195580Y668020D03*
D28*
X109300Y807720D02*
X109300Y818700D01*
X109300Y807720D02*
X101600Y807720D01*
D29*
X101600Y807720D03*
D28*
X185420Y457200D02*
X199600Y457200D01*
X185420Y457200D02*
X185420Y533400D01*
X199600Y533400D01*
X185420Y533400D02*
X127000Y533400D01*
X127000Y520700D01*
D29*
X127000Y520700D03*
D28*
X127000Y477520D01*
X84150Y477520D01*
X84150Y490220D01*
X48260Y658190D02*
X22860Y658190D01*
X60960Y477520D02*
X60960Y467690D01*
X60960Y477520D02*
X84150Y477520D01*
X60960Y477520D02*
X50800Y477520D01*
X50800Y533400D01*
X127000Y688340D02*
X152070Y688340D01*
D29*
X114300Y279400D03*
D28*
X91800Y364772D02*
X91468Y364772D01*
D29*
X91468Y364772D03*
D28*
X91800Y364772D02*
X91800Y346600D01*
D29*
X104140Y406400D03*
D28*
X101600Y406400D01*
X104140Y406400D02*
X81788Y406400D01*
X81788Y414020D01*
X81788Y414274D01*
X60960Y414020D02*
X60960Y409510D01*
X60960Y414020D02*
X81788Y414020D01*
X121950Y645240D02*
X131092Y645240D01*
X131092Y640080D01*
D29*
X131092Y640080D03*
X131092Y656308D03*
D28*
X121950Y656308D01*
X121950Y655240D01*
D29*
X106680Y668020D03*
D28*
X96520Y668020D01*
X96520Y655240D02*
X106650Y655240D01*
X96520Y655240D02*
X96520Y668020D01*
X120800Y60270D02*
X127300Y60270D01*
X68250Y508000D02*
X67430Y508000D01*
X68250Y508000D02*
X68250Y490220D01*
D30*
X104800Y101299D02*
X104800Y76200D01*
X101300Y76200D02*
X101300Y60270D01*
X101300Y76200D02*
X104800Y76200D01*
X123800Y90870D02*
X123800Y101299D01*
X123800Y90870D02*
X123800Y76200D01*
X104800Y76200D01*
X104800Y90870D02*
X104800Y101299D01*
X104800Y90870D02*
X81280Y90870D01*
X123800Y90870D02*
X147320Y90870D01*
X81280Y90870D02*
X39878Y90870D01*
X39878Y76200D01*
X25400Y76200D01*
D28*
X147320Y127301D02*
X147320Y128970D01*
X147320Y127301D02*
X123800Y127301D01*
D29*
X104140Y558800D03*
D28*
X25400Y558800D01*
X96800Y358140D02*
X96800Y346600D01*
X96800Y358140D02*
X101600Y358140D01*
X101600Y364772D01*
X100732Y364772D01*
D29*
X100732Y364772D03*
D28*
X78740Y332300D02*
X72500Y332300D01*
X78740Y332300D02*
X78740Y340360D01*
X81280Y340360D01*
X81280Y364772D02*
X82268Y364772D01*
D29*
X82268Y364772D03*
D28*
X81280Y364772D02*
X81280Y340360D01*
X96800Y245844D02*
X101064Y245844D01*
X96800Y245844D02*
X96800Y263000D01*
X101064Y245844D02*
X101064Y231140D01*
X83820Y180910D02*
X83820Y157480D01*
X83620Y157480D01*
X83820Y180910D02*
X73660Y180910D01*
X73660Y231140D02*
X101064Y231140D01*
X73660Y231140D02*
X73660Y180910D01*
X101800Y248892D02*
X101800Y263000D01*
X101800Y248892D02*
X104112Y248892D01*
X58420Y180910D02*
X58420Y157480D01*
X58620Y157480D01*
X58420Y180910D02*
X68580Y180910D01*
X88900Y228092D02*
X104112Y228092D01*
X88900Y228092D02*
X88900Y215900D01*
X86360Y215900D01*
D29*
X86360Y215900D03*
X67592Y215900D03*
D28*
X68580Y215900D01*
X104112Y228092D02*
X104112Y248892D01*
X68580Y215900D02*
X68580Y180910D01*
X106800Y251940D02*
X106800Y263000D01*
X106800Y251940D02*
X107160Y251940D01*
X107160Y233680D01*
X119380Y233680D01*
X119380Y193040D01*
X106680Y193040D01*
X105960Y193040D01*
X105960Y194240D01*
X106680Y175260D02*
X116510Y175260D01*
X106680Y175260D02*
X106680Y193040D01*
X116510Y175260D02*
X116510Y149860D01*
X116270Y149860D01*
X111800Y238760D02*
X111800Y263000D01*
X111800Y238760D02*
X124996Y238760D01*
X124996Y231140D01*
X142960Y231140D02*
X142960Y217240D01*
X142960Y231140D02*
X124996Y231140D01*
X129540Y217240D02*
X142960Y217240D01*
X129540Y217240D02*
X129540Y175260D01*
X132410Y175260D01*
X137730Y175260D02*
X137730Y149860D01*
X137730Y175260D02*
X132410Y175260D01*
X185420Y50800D02*
X199600Y50800D01*
X185420Y50800D02*
X185420Y123952D01*
X176784Y123952D02*
X176784Y168656D01*
X155448Y168656D02*
X155448Y245364D01*
X132080Y245364D01*
X132080Y238760D01*
D29*
X132080Y238760D03*
D28*
X176784Y123952D02*
X185420Y123952D01*
X176784Y168656D02*
X155448Y168656D01*
X91800Y238760D02*
X91800Y263000D01*
X91800Y238760D02*
X93980Y238760D01*
D29*
X93980Y238760D03*
D28*
X162560Y340360D02*
X163068Y340360D01*
D29*
X162560Y340360D03*
D28*
X163068Y475488D02*
X162890Y475488D01*
X162890Y490220D01*
X163068Y475488D02*
X163068Y340360D01*
X146990Y508000D02*
X146170Y508000D01*
X146990Y508000D02*
X146990Y490220D01*
X60960Y439420D02*
X60960Y423610D01*
X60960Y439420D02*
X81788Y439420D01*
X81788Y459486D01*
X60960Y451790D02*
X60960Y439420D01*
X116800Y263000D02*
X116800Y246380D01*
X121920Y246380D01*
D29*
X121920Y246380D03*
X154940Y347980D03*
D28*
X160020Y472440D02*
X121920Y472440D01*
X93980Y472440D01*
X93980Y459486D02*
X81788Y459486D01*
X154940Y347980D02*
X160020Y347980D01*
X160020Y472440D01*
X93980Y472440D02*
X93980Y459486D01*
D29*
X170180Y431800D03*
X121920Y431800D03*
D28*
X121920Y472440D01*
X170180Y431800D02*
X199600Y431800D01*
X158496Y248412D02*
X131800Y248412D01*
X158496Y171704D02*
X179832Y171704D01*
X179832Y127000D01*
X199600Y127000D01*
X131800Y248412D02*
X131800Y263000D01*
X158496Y248412D02*
X158496Y171704D01*
X136800Y251460D02*
X136800Y263000D01*
X161544Y174752D02*
X182880Y174752D01*
X182880Y152400D01*
X199600Y152400D01*
X161544Y251460D02*
X136800Y251460D01*
X161544Y251460D02*
X161544Y174752D01*
X164592Y263000D02*
X141800Y263000D01*
X164592Y203200D02*
X164592Y198120D01*
X164592Y203200D02*
X164592Y263000D01*
X164592Y198120D02*
X164592Y177800D01*
X199600Y177800D01*
X167640Y277300D02*
X156100Y277300D01*
X167640Y203200D02*
X199600Y203200D01*
X167640Y203200D02*
X167640Y277300D01*
X170688Y282300D02*
X170688Y228600D01*
X199600Y228600D01*
X170688Y282300D02*
X156100Y282300D01*
D29*
X190500Y640080D03*
D28*
X197160Y640080D01*
X197160Y648716D01*
X204216Y648716D01*
X204216Y754888D02*
X145288Y754888D01*
X145288Y787908D01*
X204216Y754888D02*
X204216Y648716D01*
X145288Y787908D02*
X38608Y787908D01*
X38608Y835660D02*
X53340Y835660D01*
X53340Y848360D01*
X94800Y848360D01*
X94800Y848200D01*
X38608Y835660D02*
X38608Y787908D01*
X156100Y287300D02*
X173736Y287300D01*
X173736Y254000D01*
X199600Y254000D01*
D29*
X207292Y637540D03*
D28*
X207292Y642620D01*
X210312Y642620D01*
X151384Y760984D02*
X151384Y794004D01*
X210312Y760984D02*
X210312Y642620D01*
X210312Y760984D02*
X151384Y760984D01*
X70612Y815340D02*
X70612Y838200D01*
X94800Y838200D01*
X70612Y815340D02*
X70132Y815340D01*
D29*
X70132Y815340D03*
X56924Y812800D03*
D28*
X56924Y794004D01*
X151384Y794004D01*
X156100Y292300D02*
X177800Y292300D01*
X177800Y279400D02*
X199600Y279400D01*
X177800Y279400D02*
X177800Y292300D01*
D29*
X200660Y629920D03*
D28*
X200660Y630456D01*
X200208Y630456D01*
X200208Y645668D01*
X207264Y645668D01*
X148336Y790956D02*
X49276Y790956D01*
X207264Y757936D02*
X207264Y645668D01*
X207264Y757936D02*
X148336Y757936D01*
X148336Y790956D01*
X50800Y828040D02*
X49276Y828040D01*
D29*
X50800Y828040D03*
X82268Y827132D03*
D28*
X82268Y828200D01*
X94800Y828200D01*
X49276Y828040D02*
X49276Y790956D01*
X156100Y297300D02*
X177800Y297300D01*
X177800Y304800D01*
X199600Y304800D01*
X217678Y304800D01*
X157480Y767080D02*
X157480Y800100D01*
X217678Y767080D02*
X217678Y304800D01*
X217678Y767080D02*
X157480Y767080D01*
X157480Y800100D02*
X76200Y800100D01*
X76200Y833200D02*
X94800Y833200D01*
X76200Y833200D02*
X76200Y800100D01*
X121800Y381000D02*
X121800Y346600D01*
X66040Y354584D02*
X66040Y381000D01*
X66040Y354584D02*
X44196Y354584D01*
X66040Y381000D02*
X121800Y381000D01*
X38100Y406400D02*
X25400Y406400D01*
X38100Y406400D02*
X38100Y384048D01*
X44196Y384048D02*
X44196Y354584D01*
X44196Y384048D02*
X38100Y384048D01*
X70104Y376936D02*
X116800Y376936D01*
X70104Y351536D02*
X41148Y351536D01*
X41148Y381000D02*
X25400Y381000D01*
X116800Y376936D02*
X116800Y346600D01*
X70104Y351536D02*
X70104Y376936D01*
X41148Y381000D02*
X41148Y351536D01*
D29*
X119776Y330200D03*
D28*
X116800Y337284D02*
X116800Y346600D01*
X116800Y337284D02*
X117772Y337284D01*
X117772Y330200D01*
X119776Y330200D01*
D29*
X172720Y558800D03*
D28*
X199600Y558800D01*
X38100Y355600D02*
X25400Y355600D01*
X38100Y355600D02*
X38100Y348488D01*
X73152Y348488D01*
X111800Y346600D02*
X111800Y373888D01*
X73152Y373888D02*
X73152Y348488D01*
X73152Y373888D02*
X111800Y373888D01*
X111800Y346600D02*
X111800Y330200D01*
D29*
X110688Y330200D03*
D28*
X111800Y330200D01*
D29*
X172720Y584200D03*
D28*
X199600Y584200D01*
X106800Y370840D02*
X106800Y346600D01*
X106800Y370840D02*
X76200Y370840D01*
X76200Y345440D01*
X38100Y345440D01*
X38100Y330348D01*
X35052Y330348D01*
X35052Y330200D01*
X25400Y330200D01*
X101800Y330200D02*
X101800Y346600D01*
X101800Y330200D02*
X101600Y330200D01*
D29*
X101600Y330200D03*
D28*
X72500Y327300D02*
X38100Y327300D01*
X38100Y279400D01*
X25400Y279400D01*
X156100Y302300D02*
X174752Y302300D01*
X174752Y307848D02*
X185420Y307848D01*
X185420Y330200D01*
X199600Y330200D01*
X174752Y307848D02*
X174752Y302300D01*
X199600Y330200D02*
X213360Y330200D01*
X213360Y764032D02*
X154432Y764032D01*
X154432Y797052D01*
X213360Y764032D02*
X213360Y330200D01*
X62992Y797052D02*
X62992Y843280D01*
X62992Y797052D02*
X154432Y797052D01*
X94800Y843200D02*
X94800Y843280D01*
X62992Y843280D01*
X156100Y307300D02*
X171704Y307300D01*
X171704Y310896D02*
X182372Y310896D01*
X182372Y355600D01*
X199600Y355600D01*
X171704Y310896D02*
X171704Y307300D01*
X156100Y307300D02*
X96520Y307300D01*
X96520Y302260D01*
D29*
X96520Y302260D03*
X88900Y807720D03*
D28*
X88900Y818700D01*
X104300Y818700D01*
X72500Y322300D02*
X41148Y322300D01*
X41148Y276352D01*
X38100Y276352D01*
X38100Y254000D02*
X25400Y254000D01*
X38100Y254000D02*
X38100Y276352D01*
X44196Y273304D02*
X44196Y317300D01*
X44196Y273304D02*
X41148Y273304D01*
X41148Y250952D01*
X40640Y250952D01*
X40640Y228600D01*
X25400Y228600D01*
X44196Y317300D02*
X72500Y317300D01*
X38100Y203200D02*
X25400Y203200D01*
X38100Y203200D02*
X38100Y225552D01*
X44196Y225552D02*
X44196Y270256D01*
X47244Y270256D01*
X47244Y312420D02*
X72500Y312420D01*
X72500Y312300D01*
X44196Y225552D02*
X38100Y225552D01*
X47244Y270256D02*
X47244Y312420D01*
X50292Y307300D02*
X72500Y307300D01*
X50292Y307300D02*
X50292Y266700D01*
X47244Y266700D01*
X47244Y222504D02*
X41148Y222504D01*
X41148Y200152D02*
X38100Y200152D01*
X38100Y177800D01*
X25400Y177800D01*
X47244Y222504D02*
X47244Y266700D01*
X41148Y222504D02*
X41148Y200152D01*
X25400Y177800D02*
X9370Y177800D01*
X9370Y627380D01*
X48260Y627380D01*
X48260Y642290D01*
X48260Y627380D02*
X116800Y627380D01*
X116800Y642590D01*
X38100Y152400D02*
X25400Y152400D01*
X38100Y152400D02*
X38100Y174752D01*
X41148Y174752D01*
X41148Y197104D01*
X44196Y197104D01*
X44196Y219456D01*
X50292Y219456D01*
X50292Y263652D01*
X53340Y263652D01*
X53340Y302300D02*
X72500Y302300D01*
X53340Y302300D02*
X53340Y263652D01*
X25400Y152400D02*
X6322Y152400D01*
X6322Y632460D02*
X22860Y632460D01*
X22860Y642290D01*
X6322Y632460D02*
X6322Y152400D01*
X22860Y642290D02*
X35560Y642290D01*
D29*
X35560Y642290D03*
X122868Y629920D03*
D28*
X137160Y629920D01*
X137160Y650240D01*
X121950Y650240D01*
X72500Y292300D02*
X56388Y292300D01*
X38100Y127000D02*
X25400Y127000D01*
X38100Y127000D02*
X38100Y149352D01*
X41148Y149352D02*
X41148Y171704D01*
X44196Y171704D01*
X44196Y194056D02*
X47244Y194056D01*
X47244Y216408D02*
X53340Y216408D01*
X53340Y260604D02*
X56388Y260604D01*
X56388Y292300D01*
X41148Y149352D02*
X38100Y149352D01*
X44196Y171704D02*
X44196Y194056D01*
X47244Y194056D02*
X47244Y216408D01*
X53340Y216408D02*
X53340Y260604D01*
X72500Y287020D02*
X72500Y287300D01*
X72500Y287020D02*
X59436Y287020D01*
X38100Y101600D02*
X25400Y101600D01*
X38100Y101600D02*
X38100Y123952D01*
X41148Y123952D02*
X41148Y144780D01*
X44196Y144780D02*
X44196Y168656D01*
X47244Y168656D02*
X47244Y191008D01*
X50292Y191008D01*
X50292Y213360D01*
X56388Y213360D02*
X56388Y257556D01*
X59436Y257556D01*
X59436Y287020D01*
X41148Y123952D02*
X38100Y123952D01*
X41148Y144780D02*
X44196Y144780D01*
X44196Y168656D02*
X47244Y168656D01*
X50292Y213360D02*
X56388Y213360D01*
X156100Y317300D02*
X179324Y317300D01*
X179324Y381000D02*
X199600Y381000D01*
X179324Y381000D02*
X179324Y317300D01*
X179324Y381000D02*
X172720Y381000D01*
X172720Y383540D01*
D29*
X172720Y383540D03*
X177800Y744220D03*
D28*
X177800Y744100D01*
X133500Y744100D01*
X177800Y744100D02*
X177800Y688340D01*
X167970Y688340D01*
X165100Y322300D02*
X156100Y322300D01*
X177800Y406400D02*
X199600Y406400D01*
X177800Y406400D02*
X166116Y406400D01*
X166116Y347444D01*
X169644Y347444D01*
X165100Y323614D02*
X165100Y322300D01*
X169644Y323614D02*
X169644Y347444D01*
X169644Y323614D02*
X165100Y323614D01*
X177800Y406400D02*
X177800Y419100D01*
X172720Y419100D01*
D29*
X172720Y419100D03*
X187960Y736600D03*
D28*
X170716Y749100D02*
X133500Y749100D01*
X170716Y749100D02*
X170716Y751304D01*
X187960Y751304D01*
X187960Y736600D01*
X193040Y723900D02*
X193040Y703910D01*
X193040Y723900D02*
X187960Y723900D01*
X187960Y736600D01*
X141800Y394208D02*
X141800Y346600D01*
X141800Y394208D02*
X56388Y394208D01*
X56388Y396240D01*
X50292Y396240D01*
X50292Y418592D01*
X47244Y418592D01*
X47244Y440944D02*
X44196Y440944D01*
X44196Y463296D01*
X38100Y508000D02*
X25400Y508000D01*
X47244Y440944D02*
X47244Y418592D01*
X44196Y463296D02*
X41148Y463296D01*
X41148Y485648D02*
X38100Y485648D01*
X38100Y508000D01*
X41148Y485648D02*
X41148Y463296D01*
X38100Y482600D02*
X25400Y482600D01*
X38100Y482600D02*
X38100Y460248D01*
X41148Y460248D01*
X41148Y437896D01*
X44196Y437896D01*
X44196Y415544D01*
X47244Y415544D01*
X47244Y393192D01*
X53340Y393192D01*
X53340Y363728D01*
X56896Y363728D01*
X136800Y346600D02*
X136800Y391160D01*
X56896Y391160D02*
X56896Y363728D01*
X56896Y391160D02*
X136800Y391160D01*
X38100Y457200D02*
X25400Y457200D01*
X38100Y457200D02*
X38100Y434848D01*
X131800Y387096D02*
X131800Y346600D01*
X131800Y387096D02*
X59944Y387096D01*
X59944Y360680D01*
X50292Y360680D02*
X50292Y390144D01*
X44196Y390144D01*
X44196Y412496D01*
X41148Y412496D01*
X41148Y434848D01*
X38100Y434848D01*
X50292Y360680D02*
X59944Y360680D01*
X62992Y384048D02*
X126800Y384048D01*
X62992Y357632D02*
X50800Y357632D01*
X126800Y346600D02*
X126800Y384048D01*
X62992Y384048D02*
X62992Y357632D01*
X50800Y357632D02*
X47244Y357632D01*
X47244Y387096D01*
X41148Y409448D02*
X38100Y409448D01*
X38100Y431800D01*
X25400Y431800D01*
X41148Y387096D02*
X47244Y387096D01*
X41148Y387096D02*
X41148Y409448D01*
X76200Y723900D02*
X76200Y734100D01*
X76200Y723900D02*
X68010Y723900D01*
X76200Y734100D02*
X95100Y734100D01*
X133500Y729100D02*
X160020Y729100D01*
X160020Y728410D01*
X193040Y796990D02*
X208280Y796990D01*
X206460Y842080D02*
X193040Y842080D01*
X193040Y802640D02*
X193040Y796990D01*
X193040Y802640D02*
X193040Y842080D01*
X195910Y853440D02*
X195910Y866140D01*
X195910Y853440D02*
X193040Y853440D01*
X193040Y842080D01*
X119300Y818700D02*
X119300Y810260D01*
X149860Y810260D01*
X149860Y812632D01*
D29*
X149860Y812632D03*
X193040Y802640D03*
D28*
X182880Y796990D02*
X167640Y796990D01*
X182880Y796990D02*
X182880Y820420D01*
X169460Y820420D01*
X169460Y819080D01*
X180010Y853440D02*
X180010Y866140D01*
X180010Y853440D02*
X182880Y853440D01*
X182880Y820420D01*
X169460Y818700D02*
X124300Y818700D01*
X169460Y818700D02*
X169460Y819080D01*
D29*
X129540Y866140D03*
D28*
X124460Y866140D01*
D29*
X96520Y878840D03*
D28*
X81610Y878840D01*
X124300Y866140D02*
X124300Y857700D01*
X124300Y866140D02*
X124460Y866140D01*
X17780Y857950D02*
X17780Y881950D01*
X7620Y881950D01*
X7620Y962660D01*
X114300Y962660D01*
X17780Y909320D02*
X17780Y896050D01*
X17780Y909320D02*
X46880Y909320D01*
X133800Y828200D02*
X152400Y828200D01*
X152400Y828040D01*
D29*
X152400Y828040D03*
X139700Y878840D03*
D28*
X121350Y878840D01*
D29*
X200660Y909320D03*
D28*
X181720Y909320D01*
X200660Y909320D02*
X200660Y922020D01*
X213360Y922020D01*
X213360Y913830D01*
X109300Y866140D02*
X109300Y857700D01*
X109300Y866140D02*
X43180Y866140D01*
X43180Y857950D01*
X152428Y859028D02*
X162560Y859028D01*
X162560Y891540D02*
X88900Y891540D01*
X88900Y909320D02*
X105300Y909320D01*
X162560Y891540D02*
X162560Y859028D01*
X88900Y891540D02*
X88900Y909320D01*
X64880Y909320D01*
X133800Y838200D02*
X152428Y838200D01*
X152428Y859028D01*
X157480Y855980D02*
X165608Y855980D01*
X165608Y894588D01*
X137160Y894588D01*
X137160Y909320D01*
X123300Y909320D01*
X137160Y909320D02*
X163720Y909320D01*
X145316Y833200D02*
X133800Y833200D01*
X145316Y833200D02*
X145316Y835124D01*
X157480Y835124D02*
X157480Y855980D01*
X157480Y835124D02*
X145316Y835124D01*
M02*
