G04 EAGLE Gerber RS-274X export*
G75*
%MOMM*%
%FSLAX34Y34*%
%LPD*%
%INSilkscreen Bottom*%
%IPPOS*%
%AMOC8*
5,1,8,0,0,1.08239X$1,22.5*%
G01*
%ADD10C,0.127000*%
%ADD11C,0.025400*%


D10*
X94320Y287600D02*
X98620Y287600D01*
X98820Y296600D02*
X94520Y296600D01*
D11*
X88265Y299847D02*
X87757Y299847D01*
X88265Y299847D02*
X88309Y299849D01*
X88353Y299855D01*
X88396Y299864D01*
X88439Y299878D01*
X88480Y299895D01*
X88519Y299915D01*
X88556Y299939D01*
X88592Y299966D01*
X88624Y299996D01*
X88654Y300028D01*
X88681Y300064D01*
X88705Y300101D01*
X88725Y300140D01*
X88742Y300181D01*
X88756Y300224D01*
X88765Y300267D01*
X88771Y300311D01*
X88773Y300355D01*
X88773Y301625D01*
X88771Y301669D01*
X88765Y301713D01*
X88756Y301756D01*
X88742Y301799D01*
X88725Y301840D01*
X88705Y301879D01*
X88681Y301916D01*
X88654Y301952D01*
X88624Y301984D01*
X88592Y302014D01*
X88556Y302041D01*
X88519Y302065D01*
X88480Y302085D01*
X88439Y302102D01*
X88396Y302116D01*
X88353Y302125D01*
X88309Y302131D01*
X88265Y302133D01*
X87757Y302133D01*
X86861Y301625D02*
X86226Y302133D01*
X86226Y299847D01*
X86861Y299847D02*
X85591Y299847D01*
X84575Y300482D02*
X84573Y300531D01*
X84568Y300579D01*
X84558Y300627D01*
X84545Y300674D01*
X84529Y300719D01*
X84509Y300764D01*
X84486Y300806D01*
X84459Y300847D01*
X84430Y300886D01*
X84398Y300922D01*
X84362Y300956D01*
X84325Y300987D01*
X84285Y301015D01*
X84243Y301040D01*
X84200Y301061D01*
X84155Y301080D01*
X84108Y301094D01*
X84061Y301105D01*
X84013Y301113D01*
X83964Y301117D01*
X83916Y301117D01*
X83867Y301113D01*
X83819Y301105D01*
X83772Y301094D01*
X83725Y301080D01*
X83680Y301061D01*
X83637Y301040D01*
X83595Y301015D01*
X83555Y300987D01*
X83518Y300956D01*
X83482Y300922D01*
X83450Y300886D01*
X83421Y300847D01*
X83394Y300806D01*
X83371Y300764D01*
X83351Y300719D01*
X83335Y300674D01*
X83322Y300627D01*
X83312Y300579D01*
X83307Y300531D01*
X83305Y300482D01*
X83307Y300433D01*
X83312Y300385D01*
X83322Y300337D01*
X83335Y300290D01*
X83351Y300245D01*
X83371Y300200D01*
X83394Y300158D01*
X83421Y300117D01*
X83450Y300078D01*
X83482Y300042D01*
X83518Y300008D01*
X83555Y299977D01*
X83595Y299949D01*
X83637Y299924D01*
X83680Y299903D01*
X83725Y299884D01*
X83772Y299870D01*
X83819Y299859D01*
X83867Y299851D01*
X83916Y299847D01*
X83964Y299847D01*
X84013Y299851D01*
X84061Y299859D01*
X84108Y299870D01*
X84155Y299884D01*
X84200Y299903D01*
X84243Y299924D01*
X84285Y299949D01*
X84325Y299977D01*
X84362Y300008D01*
X84398Y300042D01*
X84430Y300078D01*
X84459Y300117D01*
X84486Y300158D01*
X84509Y300200D01*
X84529Y300245D01*
X84545Y300290D01*
X84558Y300337D01*
X84568Y300385D01*
X84573Y300433D01*
X84575Y300482D01*
X84448Y301625D02*
X84446Y301669D01*
X84440Y301713D01*
X84431Y301756D01*
X84417Y301799D01*
X84400Y301840D01*
X84380Y301879D01*
X84356Y301916D01*
X84329Y301952D01*
X84299Y301984D01*
X84267Y302014D01*
X84231Y302041D01*
X84194Y302065D01*
X84155Y302085D01*
X84114Y302102D01*
X84071Y302116D01*
X84028Y302125D01*
X83984Y302131D01*
X83940Y302133D01*
X83896Y302131D01*
X83852Y302125D01*
X83809Y302116D01*
X83766Y302102D01*
X83725Y302085D01*
X83686Y302065D01*
X83649Y302041D01*
X83613Y302014D01*
X83581Y301984D01*
X83551Y301952D01*
X83524Y301916D01*
X83500Y301879D01*
X83480Y301840D01*
X83463Y301799D01*
X83449Y301756D01*
X83440Y301713D01*
X83434Y301669D01*
X83432Y301625D01*
X83434Y301581D01*
X83440Y301537D01*
X83449Y301494D01*
X83463Y301451D01*
X83480Y301410D01*
X83500Y301371D01*
X83524Y301334D01*
X83551Y301298D01*
X83581Y301266D01*
X83613Y301236D01*
X83649Y301209D01*
X83686Y301185D01*
X83725Y301165D01*
X83766Y301148D01*
X83809Y301134D01*
X83852Y301125D01*
X83896Y301119D01*
X83940Y301117D01*
X83984Y301119D01*
X84028Y301125D01*
X84071Y301134D01*
X84114Y301148D01*
X84155Y301165D01*
X84194Y301185D01*
X84231Y301209D01*
X84267Y301236D01*
X84299Y301266D01*
X84329Y301298D01*
X84356Y301334D01*
X84380Y301371D01*
X84400Y301410D01*
X84417Y301451D01*
X84431Y301494D01*
X84440Y301537D01*
X84446Y301581D01*
X84448Y301625D01*
X81153Y287782D02*
X80645Y287147D01*
X81153Y287782D02*
X78867Y287782D01*
X78867Y287147D02*
X78867Y288417D01*
X80010Y289433D02*
X80095Y289435D01*
X80181Y289441D01*
X80266Y289450D01*
X80350Y289464D01*
X80434Y289481D01*
X80516Y289502D01*
X80598Y289527D01*
X80679Y289556D01*
X80758Y289588D01*
X80836Y289624D01*
X80835Y289623D02*
X80874Y289639D01*
X80911Y289657D01*
X80947Y289679D01*
X80980Y289704D01*
X81011Y289732D01*
X81040Y289762D01*
X81065Y289795D01*
X81088Y289830D01*
X81108Y289867D01*
X81124Y289905D01*
X81136Y289945D01*
X81146Y289985D01*
X81151Y290026D01*
X81153Y290068D01*
X81151Y290110D01*
X81146Y290151D01*
X81136Y290191D01*
X81124Y290231D01*
X81108Y290269D01*
X81088Y290306D01*
X81065Y290341D01*
X81040Y290374D01*
X81011Y290404D01*
X80980Y290432D01*
X80947Y290457D01*
X80911Y290479D01*
X80874Y290497D01*
X80835Y290513D01*
X80836Y290512D02*
X80758Y290548D01*
X80679Y290580D01*
X80598Y290609D01*
X80516Y290634D01*
X80434Y290655D01*
X80350Y290672D01*
X80266Y290686D01*
X80181Y290695D01*
X80095Y290701D01*
X80010Y290703D01*
X80010Y289433D02*
X79925Y289435D01*
X79839Y289441D01*
X79754Y289450D01*
X79670Y289464D01*
X79586Y289481D01*
X79504Y289502D01*
X79422Y289527D01*
X79341Y289556D01*
X79262Y289588D01*
X79184Y289624D01*
X79185Y289623D02*
X79146Y289639D01*
X79109Y289657D01*
X79073Y289679D01*
X79040Y289704D01*
X79009Y289732D01*
X78980Y289762D01*
X78955Y289795D01*
X78932Y289830D01*
X78912Y289867D01*
X78896Y289905D01*
X78884Y289945D01*
X78874Y289985D01*
X78869Y290026D01*
X78867Y290068D01*
X79184Y290512D02*
X79262Y290548D01*
X79341Y290580D01*
X79422Y290609D01*
X79504Y290634D01*
X79586Y290655D01*
X79670Y290672D01*
X79754Y290686D01*
X79839Y290695D01*
X79925Y290701D01*
X80010Y290703D01*
X79185Y290513D02*
X79146Y290497D01*
X79109Y290479D01*
X79073Y290457D01*
X79040Y290432D01*
X79009Y290404D01*
X78980Y290374D01*
X78955Y290341D01*
X78932Y290306D01*
X78912Y290269D01*
X78896Y290231D01*
X78884Y290191D01*
X78874Y290151D01*
X78869Y290110D01*
X78867Y290068D01*
X79375Y289560D02*
X80645Y290576D01*
X80010Y291719D02*
X80095Y291721D01*
X80181Y291727D01*
X80266Y291736D01*
X80350Y291750D01*
X80434Y291767D01*
X80516Y291788D01*
X80598Y291813D01*
X80679Y291842D01*
X80758Y291874D01*
X80836Y291910D01*
X80835Y291909D02*
X80874Y291925D01*
X80911Y291943D01*
X80947Y291965D01*
X80980Y291990D01*
X81011Y292018D01*
X81040Y292048D01*
X81065Y292081D01*
X81088Y292116D01*
X81108Y292153D01*
X81124Y292191D01*
X81136Y292231D01*
X81146Y292271D01*
X81151Y292312D01*
X81153Y292354D01*
X81151Y292396D01*
X81146Y292437D01*
X81136Y292477D01*
X81124Y292517D01*
X81108Y292555D01*
X81088Y292592D01*
X81065Y292627D01*
X81040Y292660D01*
X81011Y292690D01*
X80980Y292718D01*
X80947Y292743D01*
X80911Y292765D01*
X80874Y292783D01*
X80835Y292799D01*
X80836Y292798D02*
X80758Y292834D01*
X80679Y292866D01*
X80598Y292895D01*
X80516Y292920D01*
X80434Y292941D01*
X80350Y292958D01*
X80266Y292972D01*
X80181Y292981D01*
X80095Y292987D01*
X80010Y292989D01*
X80010Y291719D02*
X79925Y291721D01*
X79839Y291727D01*
X79754Y291736D01*
X79670Y291750D01*
X79586Y291767D01*
X79504Y291788D01*
X79422Y291813D01*
X79341Y291842D01*
X79262Y291874D01*
X79184Y291910D01*
X79185Y291909D02*
X79146Y291925D01*
X79109Y291943D01*
X79073Y291965D01*
X79040Y291990D01*
X79009Y292018D01*
X78980Y292048D01*
X78955Y292081D01*
X78932Y292116D01*
X78912Y292153D01*
X78896Y292191D01*
X78884Y292231D01*
X78874Y292271D01*
X78869Y292312D01*
X78867Y292354D01*
X79184Y292798D02*
X79262Y292834D01*
X79341Y292866D01*
X79422Y292895D01*
X79504Y292920D01*
X79586Y292941D01*
X79670Y292958D01*
X79754Y292972D01*
X79839Y292981D01*
X79925Y292987D01*
X80010Y292989D01*
X79185Y292799D02*
X79146Y292783D01*
X79109Y292765D01*
X79073Y292743D01*
X79040Y292718D01*
X79009Y292690D01*
X78980Y292660D01*
X78955Y292627D01*
X78932Y292592D01*
X78912Y292555D01*
X78896Y292517D01*
X78884Y292477D01*
X78874Y292437D01*
X78869Y292396D01*
X78867Y292354D01*
X79375Y291846D02*
X80645Y292862D01*
X80391Y294056D02*
X78867Y294056D01*
X80391Y294056D02*
X80391Y294691D01*
X80389Y294728D01*
X80384Y294765D01*
X80375Y294802D01*
X80362Y294837D01*
X80346Y294871D01*
X80327Y294903D01*
X80305Y294933D01*
X80279Y294960D01*
X80252Y294986D01*
X80222Y295008D01*
X80190Y295027D01*
X80156Y295043D01*
X80121Y295056D01*
X80084Y295065D01*
X80047Y295070D01*
X80010Y295072D01*
X78867Y295072D01*
X78867Y296220D02*
X81153Y296220D01*
X81153Y297236D01*
X80137Y297236D02*
X80137Y296220D01*
D10*
X129980Y319460D02*
X134280Y319460D01*
X134080Y310460D02*
X129780Y310460D01*
D11*
X123825Y304927D02*
X123317Y304927D01*
X123825Y304927D02*
X123869Y304929D01*
X123913Y304935D01*
X123956Y304944D01*
X123999Y304958D01*
X124040Y304975D01*
X124079Y304995D01*
X124116Y305019D01*
X124152Y305046D01*
X124184Y305076D01*
X124214Y305108D01*
X124241Y305144D01*
X124265Y305181D01*
X124285Y305220D01*
X124302Y305261D01*
X124316Y305304D01*
X124325Y305347D01*
X124331Y305391D01*
X124333Y305435D01*
X124333Y306705D01*
X124331Y306749D01*
X124325Y306793D01*
X124316Y306836D01*
X124302Y306879D01*
X124285Y306920D01*
X124265Y306959D01*
X124241Y306996D01*
X124214Y307032D01*
X124184Y307064D01*
X124152Y307094D01*
X124116Y307121D01*
X124079Y307145D01*
X124040Y307165D01*
X123999Y307182D01*
X123956Y307196D01*
X123913Y307205D01*
X123869Y307211D01*
X123825Y307213D01*
X123317Y307213D01*
X122421Y306705D02*
X121786Y307213D01*
X121786Y304927D01*
X122421Y304927D02*
X121151Y304927D01*
X119627Y305943D02*
X118865Y305943D01*
X119627Y305943D02*
X119671Y305945D01*
X119715Y305951D01*
X119758Y305960D01*
X119801Y305974D01*
X119842Y305991D01*
X119881Y306011D01*
X119918Y306035D01*
X119954Y306062D01*
X119986Y306092D01*
X120016Y306124D01*
X120043Y306160D01*
X120067Y306197D01*
X120087Y306236D01*
X120104Y306277D01*
X120118Y306320D01*
X120127Y306363D01*
X120133Y306407D01*
X120135Y306451D01*
X120135Y306578D01*
X120133Y306627D01*
X120128Y306675D01*
X120118Y306723D01*
X120105Y306770D01*
X120089Y306815D01*
X120069Y306860D01*
X120046Y306902D01*
X120019Y306943D01*
X119990Y306982D01*
X119958Y307018D01*
X119922Y307052D01*
X119885Y307083D01*
X119845Y307111D01*
X119803Y307136D01*
X119760Y307157D01*
X119715Y307176D01*
X119668Y307190D01*
X119621Y307201D01*
X119573Y307209D01*
X119524Y307213D01*
X119476Y307213D01*
X119427Y307209D01*
X119379Y307201D01*
X119332Y307190D01*
X119285Y307176D01*
X119240Y307157D01*
X119197Y307136D01*
X119155Y307111D01*
X119115Y307083D01*
X119078Y307052D01*
X119042Y307018D01*
X119010Y306982D01*
X118981Y306943D01*
X118954Y306902D01*
X118931Y306860D01*
X118911Y306815D01*
X118895Y306770D01*
X118882Y306723D01*
X118872Y306675D01*
X118867Y306627D01*
X118865Y306578D01*
X118865Y305943D01*
X118867Y305882D01*
X118872Y305821D01*
X118882Y305760D01*
X118895Y305700D01*
X118911Y305641D01*
X118931Y305583D01*
X118955Y305526D01*
X118981Y305471D01*
X119012Y305417D01*
X119045Y305366D01*
X119081Y305316D01*
X119121Y305269D01*
X119163Y305225D01*
X119207Y305183D01*
X119254Y305143D01*
X119304Y305107D01*
X119355Y305074D01*
X119409Y305043D01*
X119464Y305017D01*
X119521Y304993D01*
X119579Y304973D01*
X119638Y304957D01*
X119698Y304944D01*
X119759Y304934D01*
X119820Y304929D01*
X119881Y304927D01*
X146741Y307213D02*
X147376Y306705D01*
X146741Y307213D02*
X146741Y304927D01*
X147376Y304927D02*
X146106Y304927D01*
X145090Y306070D02*
X145088Y306155D01*
X145082Y306241D01*
X145073Y306326D01*
X145059Y306410D01*
X145042Y306494D01*
X145021Y306576D01*
X144996Y306658D01*
X144967Y306739D01*
X144935Y306818D01*
X144899Y306896D01*
X144900Y306895D02*
X144884Y306934D01*
X144866Y306971D01*
X144844Y307007D01*
X144819Y307040D01*
X144791Y307071D01*
X144761Y307100D01*
X144728Y307125D01*
X144693Y307148D01*
X144656Y307168D01*
X144618Y307184D01*
X144578Y307196D01*
X144538Y307206D01*
X144497Y307211D01*
X144455Y307213D01*
X144413Y307211D01*
X144372Y307206D01*
X144332Y307196D01*
X144292Y307184D01*
X144254Y307168D01*
X144217Y307148D01*
X144182Y307125D01*
X144149Y307100D01*
X144119Y307071D01*
X144091Y307040D01*
X144066Y307007D01*
X144044Y306971D01*
X144026Y306934D01*
X144010Y306895D01*
X144011Y306896D02*
X143975Y306818D01*
X143943Y306739D01*
X143914Y306658D01*
X143889Y306576D01*
X143868Y306494D01*
X143851Y306410D01*
X143837Y306326D01*
X143828Y306241D01*
X143822Y306155D01*
X143820Y306070D01*
X145090Y306070D02*
X145088Y305985D01*
X145082Y305899D01*
X145073Y305814D01*
X145059Y305730D01*
X145042Y305646D01*
X145021Y305564D01*
X144996Y305482D01*
X144967Y305401D01*
X144935Y305322D01*
X144899Y305244D01*
X144900Y305245D02*
X144884Y305206D01*
X144866Y305169D01*
X144844Y305133D01*
X144819Y305100D01*
X144791Y305069D01*
X144761Y305040D01*
X144728Y305015D01*
X144693Y304992D01*
X144656Y304972D01*
X144618Y304956D01*
X144578Y304944D01*
X144538Y304934D01*
X144497Y304929D01*
X144455Y304927D01*
X144011Y305244D02*
X143975Y305322D01*
X143943Y305401D01*
X143914Y305482D01*
X143889Y305564D01*
X143868Y305646D01*
X143851Y305730D01*
X143837Y305814D01*
X143828Y305899D01*
X143822Y305985D01*
X143820Y306070D01*
X144010Y305245D02*
X144026Y305206D01*
X144044Y305169D01*
X144066Y305133D01*
X144091Y305100D01*
X144119Y305069D01*
X144149Y305040D01*
X144182Y305015D01*
X144217Y304992D01*
X144254Y304972D01*
X144292Y304956D01*
X144332Y304944D01*
X144372Y304934D01*
X144413Y304929D01*
X144455Y304927D01*
X144963Y305435D02*
X143947Y306705D01*
X142804Y306070D02*
X142802Y306155D01*
X142796Y306241D01*
X142787Y306326D01*
X142773Y306410D01*
X142756Y306494D01*
X142735Y306576D01*
X142710Y306658D01*
X142681Y306739D01*
X142649Y306818D01*
X142613Y306896D01*
X142614Y306895D02*
X142598Y306934D01*
X142580Y306971D01*
X142558Y307007D01*
X142533Y307040D01*
X142505Y307071D01*
X142475Y307100D01*
X142442Y307125D01*
X142407Y307148D01*
X142370Y307168D01*
X142332Y307184D01*
X142292Y307196D01*
X142252Y307206D01*
X142211Y307211D01*
X142169Y307213D01*
X142127Y307211D01*
X142086Y307206D01*
X142046Y307196D01*
X142006Y307184D01*
X141968Y307168D01*
X141931Y307148D01*
X141896Y307125D01*
X141863Y307100D01*
X141833Y307071D01*
X141805Y307040D01*
X141780Y307007D01*
X141758Y306971D01*
X141740Y306934D01*
X141724Y306895D01*
X141725Y306896D02*
X141689Y306818D01*
X141657Y306739D01*
X141628Y306658D01*
X141603Y306576D01*
X141582Y306494D01*
X141565Y306410D01*
X141551Y306326D01*
X141542Y306241D01*
X141536Y306155D01*
X141534Y306070D01*
X142804Y306070D02*
X142802Y305985D01*
X142796Y305899D01*
X142787Y305814D01*
X142773Y305730D01*
X142756Y305646D01*
X142735Y305564D01*
X142710Y305482D01*
X142681Y305401D01*
X142649Y305322D01*
X142613Y305244D01*
X142614Y305245D02*
X142598Y305206D01*
X142580Y305169D01*
X142558Y305133D01*
X142533Y305100D01*
X142505Y305069D01*
X142475Y305040D01*
X142442Y305015D01*
X142407Y304992D01*
X142370Y304972D01*
X142332Y304956D01*
X142292Y304944D01*
X142252Y304934D01*
X142211Y304929D01*
X142169Y304927D01*
X141725Y305244D02*
X141689Y305322D01*
X141657Y305401D01*
X141628Y305482D01*
X141603Y305564D01*
X141582Y305646D01*
X141565Y305730D01*
X141551Y305814D01*
X141542Y305899D01*
X141536Y305985D01*
X141534Y306070D01*
X141724Y305245D02*
X141740Y305206D01*
X141758Y305169D01*
X141780Y305133D01*
X141805Y305100D01*
X141833Y305069D01*
X141863Y305040D01*
X141896Y305015D01*
X141931Y304992D01*
X141968Y304972D01*
X142006Y304956D01*
X142046Y304944D01*
X142086Y304934D01*
X142127Y304929D01*
X142169Y304927D01*
X142677Y305435D02*
X141661Y306705D01*
X140467Y306451D02*
X140467Y304927D01*
X140467Y306451D02*
X139832Y306451D01*
X139795Y306449D01*
X139758Y306444D01*
X139721Y306435D01*
X139686Y306422D01*
X139652Y306406D01*
X139620Y306387D01*
X139590Y306365D01*
X139563Y306339D01*
X139537Y306312D01*
X139515Y306282D01*
X139496Y306250D01*
X139480Y306216D01*
X139467Y306181D01*
X139458Y306144D01*
X139453Y306107D01*
X139451Y306070D01*
X139451Y304927D01*
X138303Y304927D02*
X138303Y307213D01*
X137287Y307213D01*
X137287Y306197D02*
X138303Y306197D01*
D10*
X134280Y296600D02*
X129980Y296600D01*
X129780Y287600D02*
X134080Y287600D01*
D11*
X124467Y299847D02*
X123959Y299847D01*
X124467Y299847D02*
X124511Y299849D01*
X124555Y299855D01*
X124598Y299864D01*
X124641Y299878D01*
X124682Y299895D01*
X124721Y299915D01*
X124758Y299939D01*
X124794Y299966D01*
X124826Y299996D01*
X124856Y300028D01*
X124883Y300064D01*
X124907Y300101D01*
X124927Y300140D01*
X124944Y300181D01*
X124958Y300224D01*
X124967Y300267D01*
X124973Y300311D01*
X124975Y300355D01*
X124975Y301625D01*
X124973Y301669D01*
X124967Y301713D01*
X124958Y301756D01*
X124944Y301799D01*
X124927Y301840D01*
X124907Y301879D01*
X124883Y301916D01*
X124856Y301952D01*
X124826Y301984D01*
X124794Y302014D01*
X124758Y302041D01*
X124721Y302065D01*
X124682Y302085D01*
X124641Y302102D01*
X124598Y302116D01*
X124555Y302125D01*
X124511Y302131D01*
X124467Y302133D01*
X123959Y302133D01*
X122365Y302134D02*
X122320Y302132D01*
X122276Y302127D01*
X122231Y302118D01*
X122188Y302106D01*
X122146Y302090D01*
X122105Y302072D01*
X122066Y302050D01*
X122029Y302025D01*
X121994Y301997D01*
X121961Y301966D01*
X121930Y301933D01*
X121902Y301898D01*
X121877Y301861D01*
X121855Y301822D01*
X121837Y301781D01*
X121821Y301739D01*
X121809Y301696D01*
X121800Y301651D01*
X121795Y301607D01*
X121793Y301562D01*
X122365Y302133D02*
X122416Y302131D01*
X122467Y302126D01*
X122518Y302117D01*
X122567Y302105D01*
X122616Y302089D01*
X122664Y302069D01*
X122710Y302047D01*
X122754Y302021D01*
X122797Y301993D01*
X122837Y301961D01*
X122875Y301927D01*
X122911Y301890D01*
X122944Y301850D01*
X122974Y301809D01*
X123001Y301765D01*
X123025Y301720D01*
X123046Y301673D01*
X123063Y301625D01*
X121984Y301117D02*
X121952Y301150D01*
X121923Y301184D01*
X121896Y301221D01*
X121873Y301259D01*
X121852Y301300D01*
X121834Y301341D01*
X121819Y301384D01*
X121808Y301427D01*
X121800Y301472D01*
X121795Y301517D01*
X121793Y301562D01*
X121984Y301117D02*
X123063Y299847D01*
X121793Y299847D01*
X120777Y300990D02*
X120775Y301075D01*
X120769Y301161D01*
X120760Y301246D01*
X120746Y301330D01*
X120729Y301414D01*
X120708Y301496D01*
X120683Y301578D01*
X120654Y301659D01*
X120622Y301738D01*
X120586Y301816D01*
X120587Y301815D02*
X120571Y301854D01*
X120553Y301891D01*
X120531Y301927D01*
X120506Y301960D01*
X120478Y301991D01*
X120448Y302020D01*
X120415Y302045D01*
X120380Y302068D01*
X120343Y302088D01*
X120305Y302104D01*
X120265Y302116D01*
X120225Y302126D01*
X120184Y302131D01*
X120142Y302133D01*
X120100Y302131D01*
X120059Y302126D01*
X120019Y302116D01*
X119979Y302104D01*
X119941Y302088D01*
X119904Y302068D01*
X119869Y302045D01*
X119836Y302020D01*
X119806Y301991D01*
X119778Y301960D01*
X119753Y301927D01*
X119731Y301891D01*
X119713Y301854D01*
X119697Y301815D01*
X119698Y301816D02*
X119662Y301738D01*
X119630Y301659D01*
X119601Y301578D01*
X119576Y301496D01*
X119555Y301414D01*
X119538Y301330D01*
X119524Y301246D01*
X119515Y301161D01*
X119509Y301075D01*
X119507Y300990D01*
X120777Y300990D02*
X120775Y300905D01*
X120769Y300819D01*
X120760Y300734D01*
X120746Y300650D01*
X120729Y300566D01*
X120708Y300484D01*
X120683Y300402D01*
X120654Y300321D01*
X120622Y300242D01*
X120586Y300164D01*
X120587Y300165D02*
X120571Y300126D01*
X120553Y300089D01*
X120531Y300053D01*
X120506Y300020D01*
X120478Y299989D01*
X120448Y299960D01*
X120415Y299935D01*
X120380Y299912D01*
X120343Y299892D01*
X120305Y299876D01*
X120265Y299864D01*
X120225Y299854D01*
X120184Y299849D01*
X120142Y299847D01*
X119698Y300164D02*
X119662Y300242D01*
X119630Y300321D01*
X119601Y300402D01*
X119576Y300484D01*
X119555Y300566D01*
X119538Y300650D01*
X119524Y300734D01*
X119515Y300819D01*
X119509Y300905D01*
X119507Y300990D01*
X119697Y300165D02*
X119713Y300126D01*
X119731Y300089D01*
X119753Y300053D01*
X119778Y300020D01*
X119806Y299989D01*
X119836Y299960D01*
X119869Y299935D01*
X119904Y299912D01*
X119941Y299892D01*
X119979Y299876D01*
X120019Y299864D01*
X120059Y299854D01*
X120100Y299849D01*
X120142Y299847D01*
X120650Y300355D02*
X119634Y301625D01*
X146741Y302133D02*
X147376Y301625D01*
X146741Y302133D02*
X146741Y299847D01*
X147376Y299847D02*
X146106Y299847D01*
X145090Y300990D02*
X145088Y301075D01*
X145082Y301161D01*
X145073Y301246D01*
X145059Y301330D01*
X145042Y301414D01*
X145021Y301496D01*
X144996Y301578D01*
X144967Y301659D01*
X144935Y301738D01*
X144899Y301816D01*
X144900Y301815D02*
X144884Y301854D01*
X144866Y301891D01*
X144844Y301927D01*
X144819Y301960D01*
X144791Y301991D01*
X144761Y302020D01*
X144728Y302045D01*
X144693Y302068D01*
X144656Y302088D01*
X144618Y302104D01*
X144578Y302116D01*
X144538Y302126D01*
X144497Y302131D01*
X144455Y302133D01*
X144413Y302131D01*
X144372Y302126D01*
X144332Y302116D01*
X144292Y302104D01*
X144254Y302088D01*
X144217Y302068D01*
X144182Y302045D01*
X144149Y302020D01*
X144119Y301991D01*
X144091Y301960D01*
X144066Y301927D01*
X144044Y301891D01*
X144026Y301854D01*
X144010Y301815D01*
X144011Y301816D02*
X143975Y301738D01*
X143943Y301659D01*
X143914Y301578D01*
X143889Y301496D01*
X143868Y301414D01*
X143851Y301330D01*
X143837Y301246D01*
X143828Y301161D01*
X143822Y301075D01*
X143820Y300990D01*
X145090Y300990D02*
X145088Y300905D01*
X145082Y300819D01*
X145073Y300734D01*
X145059Y300650D01*
X145042Y300566D01*
X145021Y300484D01*
X144996Y300402D01*
X144967Y300321D01*
X144935Y300242D01*
X144899Y300164D01*
X144900Y300165D02*
X144884Y300126D01*
X144866Y300089D01*
X144844Y300053D01*
X144819Y300020D01*
X144791Y299989D01*
X144761Y299960D01*
X144728Y299935D01*
X144693Y299912D01*
X144656Y299892D01*
X144618Y299876D01*
X144578Y299864D01*
X144538Y299854D01*
X144497Y299849D01*
X144455Y299847D01*
X144011Y300164D02*
X143975Y300242D01*
X143943Y300321D01*
X143914Y300402D01*
X143889Y300484D01*
X143868Y300566D01*
X143851Y300650D01*
X143837Y300734D01*
X143828Y300819D01*
X143822Y300905D01*
X143820Y300990D01*
X144010Y300165D02*
X144026Y300126D01*
X144044Y300089D01*
X144066Y300053D01*
X144091Y300020D01*
X144119Y299989D01*
X144149Y299960D01*
X144182Y299935D01*
X144217Y299912D01*
X144254Y299892D01*
X144292Y299876D01*
X144332Y299864D01*
X144372Y299854D01*
X144413Y299849D01*
X144455Y299847D01*
X144963Y300355D02*
X143947Y301625D01*
X142804Y300990D02*
X142802Y301075D01*
X142796Y301161D01*
X142787Y301246D01*
X142773Y301330D01*
X142756Y301414D01*
X142735Y301496D01*
X142710Y301578D01*
X142681Y301659D01*
X142649Y301738D01*
X142613Y301816D01*
X142614Y301815D02*
X142598Y301854D01*
X142580Y301891D01*
X142558Y301927D01*
X142533Y301960D01*
X142505Y301991D01*
X142475Y302020D01*
X142442Y302045D01*
X142407Y302068D01*
X142370Y302088D01*
X142332Y302104D01*
X142292Y302116D01*
X142252Y302126D01*
X142211Y302131D01*
X142169Y302133D01*
X142127Y302131D01*
X142086Y302126D01*
X142046Y302116D01*
X142006Y302104D01*
X141968Y302088D01*
X141931Y302068D01*
X141896Y302045D01*
X141863Y302020D01*
X141833Y301991D01*
X141805Y301960D01*
X141780Y301927D01*
X141758Y301891D01*
X141740Y301854D01*
X141724Y301815D01*
X141725Y301816D02*
X141689Y301738D01*
X141657Y301659D01*
X141628Y301578D01*
X141603Y301496D01*
X141582Y301414D01*
X141565Y301330D01*
X141551Y301246D01*
X141542Y301161D01*
X141536Y301075D01*
X141534Y300990D01*
X142804Y300990D02*
X142802Y300905D01*
X142796Y300819D01*
X142787Y300734D01*
X142773Y300650D01*
X142756Y300566D01*
X142735Y300484D01*
X142710Y300402D01*
X142681Y300321D01*
X142649Y300242D01*
X142613Y300164D01*
X142614Y300165D02*
X142598Y300126D01*
X142580Y300089D01*
X142558Y300053D01*
X142533Y300020D01*
X142505Y299989D01*
X142475Y299960D01*
X142442Y299935D01*
X142407Y299912D01*
X142370Y299892D01*
X142332Y299876D01*
X142292Y299864D01*
X142252Y299854D01*
X142211Y299849D01*
X142169Y299847D01*
X141725Y300164D02*
X141689Y300242D01*
X141657Y300321D01*
X141628Y300402D01*
X141603Y300484D01*
X141582Y300566D01*
X141565Y300650D01*
X141551Y300734D01*
X141542Y300819D01*
X141536Y300905D01*
X141534Y300990D01*
X141724Y300165D02*
X141740Y300126D01*
X141758Y300089D01*
X141780Y300053D01*
X141805Y300020D01*
X141833Y299989D01*
X141863Y299960D01*
X141896Y299935D01*
X141931Y299912D01*
X141968Y299892D01*
X142006Y299876D01*
X142046Y299864D01*
X142086Y299854D01*
X142127Y299849D01*
X142169Y299847D01*
X142677Y300355D02*
X141661Y301625D01*
X140467Y301371D02*
X140467Y299847D01*
X140467Y301371D02*
X139832Y301371D01*
X139795Y301369D01*
X139758Y301364D01*
X139721Y301355D01*
X139686Y301342D01*
X139652Y301326D01*
X139620Y301307D01*
X139590Y301285D01*
X139563Y301259D01*
X139537Y301232D01*
X139515Y301202D01*
X139496Y301170D01*
X139480Y301136D01*
X139467Y301101D01*
X139458Y301064D01*
X139453Y301027D01*
X139451Y300990D01*
X139451Y299847D01*
X138303Y299847D02*
X138303Y302133D01*
X137287Y302133D01*
X137287Y301117D02*
X138303Y301117D01*
D10*
X98620Y310460D02*
X94320Y310460D01*
X94520Y319460D02*
X98820Y319460D01*
D11*
X88265Y304927D02*
X87757Y304927D01*
X88265Y304927D02*
X88309Y304929D01*
X88353Y304935D01*
X88396Y304944D01*
X88439Y304958D01*
X88480Y304975D01*
X88519Y304995D01*
X88556Y305019D01*
X88592Y305046D01*
X88624Y305076D01*
X88654Y305108D01*
X88681Y305144D01*
X88705Y305181D01*
X88725Y305220D01*
X88742Y305261D01*
X88756Y305304D01*
X88765Y305347D01*
X88771Y305391D01*
X88773Y305435D01*
X88773Y306705D01*
X88771Y306749D01*
X88765Y306793D01*
X88756Y306836D01*
X88742Y306879D01*
X88725Y306920D01*
X88705Y306959D01*
X88681Y306996D01*
X88654Y307032D01*
X88624Y307064D01*
X88592Y307094D01*
X88556Y307121D01*
X88519Y307145D01*
X88480Y307165D01*
X88439Y307182D01*
X88396Y307196D01*
X88353Y307205D01*
X88309Y307211D01*
X88265Y307213D01*
X87757Y307213D01*
X86162Y307214D02*
X86117Y307212D01*
X86073Y307207D01*
X86028Y307198D01*
X85985Y307186D01*
X85943Y307170D01*
X85902Y307152D01*
X85863Y307130D01*
X85826Y307105D01*
X85791Y307077D01*
X85758Y307046D01*
X85727Y307013D01*
X85699Y306978D01*
X85674Y306941D01*
X85652Y306902D01*
X85634Y306861D01*
X85618Y306819D01*
X85606Y306776D01*
X85597Y306731D01*
X85592Y306687D01*
X85590Y306642D01*
X86162Y307213D02*
X86213Y307211D01*
X86264Y307206D01*
X86315Y307197D01*
X86364Y307185D01*
X86413Y307169D01*
X86461Y307149D01*
X86507Y307127D01*
X86551Y307101D01*
X86594Y307073D01*
X86634Y307041D01*
X86672Y307007D01*
X86708Y306970D01*
X86741Y306930D01*
X86771Y306889D01*
X86798Y306845D01*
X86822Y306800D01*
X86843Y306753D01*
X86860Y306705D01*
X85781Y306197D02*
X85749Y306230D01*
X85720Y306264D01*
X85693Y306301D01*
X85670Y306339D01*
X85649Y306380D01*
X85631Y306421D01*
X85616Y306464D01*
X85605Y306507D01*
X85597Y306552D01*
X85592Y306597D01*
X85590Y306642D01*
X85781Y306197D02*
X86861Y304927D01*
X85591Y304927D01*
X84575Y306705D02*
X83940Y307213D01*
X83940Y304927D01*
X84575Y304927D02*
X83305Y304927D01*
X110998Y307213D02*
X111633Y306705D01*
X110998Y307213D02*
X110998Y304927D01*
X111633Y304927D02*
X110363Y304927D01*
X109347Y306070D02*
X109345Y306155D01*
X109339Y306241D01*
X109330Y306326D01*
X109316Y306410D01*
X109299Y306494D01*
X109278Y306576D01*
X109253Y306658D01*
X109224Y306739D01*
X109192Y306818D01*
X109156Y306896D01*
X109157Y306895D02*
X109141Y306934D01*
X109123Y306971D01*
X109101Y307007D01*
X109076Y307040D01*
X109048Y307071D01*
X109018Y307100D01*
X108985Y307125D01*
X108950Y307148D01*
X108913Y307168D01*
X108875Y307184D01*
X108835Y307196D01*
X108795Y307206D01*
X108754Y307211D01*
X108712Y307213D01*
X108670Y307211D01*
X108629Y307206D01*
X108589Y307196D01*
X108549Y307184D01*
X108511Y307168D01*
X108474Y307148D01*
X108439Y307125D01*
X108406Y307100D01*
X108376Y307071D01*
X108348Y307040D01*
X108323Y307007D01*
X108301Y306971D01*
X108283Y306934D01*
X108267Y306895D01*
X108268Y306896D02*
X108232Y306818D01*
X108200Y306739D01*
X108171Y306658D01*
X108146Y306576D01*
X108125Y306494D01*
X108108Y306410D01*
X108094Y306326D01*
X108085Y306241D01*
X108079Y306155D01*
X108077Y306070D01*
X109347Y306070D02*
X109345Y305985D01*
X109339Y305899D01*
X109330Y305814D01*
X109316Y305730D01*
X109299Y305646D01*
X109278Y305564D01*
X109253Y305482D01*
X109224Y305401D01*
X109192Y305322D01*
X109156Y305244D01*
X109157Y305245D02*
X109141Y305206D01*
X109123Y305169D01*
X109101Y305133D01*
X109076Y305100D01*
X109048Y305069D01*
X109018Y305040D01*
X108985Y305015D01*
X108950Y304992D01*
X108913Y304972D01*
X108875Y304956D01*
X108835Y304944D01*
X108795Y304934D01*
X108754Y304929D01*
X108712Y304927D01*
X108268Y305244D02*
X108232Y305322D01*
X108200Y305401D01*
X108171Y305482D01*
X108146Y305564D01*
X108125Y305646D01*
X108108Y305730D01*
X108094Y305814D01*
X108085Y305899D01*
X108079Y305985D01*
X108077Y306070D01*
X108267Y305245D02*
X108283Y305206D01*
X108301Y305169D01*
X108323Y305133D01*
X108348Y305100D01*
X108376Y305069D01*
X108406Y305040D01*
X108439Y305015D01*
X108474Y304992D01*
X108511Y304972D01*
X108549Y304956D01*
X108589Y304944D01*
X108629Y304934D01*
X108670Y304929D01*
X108712Y304927D01*
X109220Y305435D02*
X108204Y306705D01*
X107061Y306070D02*
X107059Y306155D01*
X107053Y306241D01*
X107044Y306326D01*
X107030Y306410D01*
X107013Y306494D01*
X106992Y306576D01*
X106967Y306658D01*
X106938Y306739D01*
X106906Y306818D01*
X106870Y306896D01*
X106871Y306895D02*
X106855Y306934D01*
X106837Y306971D01*
X106815Y307007D01*
X106790Y307040D01*
X106762Y307071D01*
X106732Y307100D01*
X106699Y307125D01*
X106664Y307148D01*
X106627Y307168D01*
X106589Y307184D01*
X106549Y307196D01*
X106509Y307206D01*
X106468Y307211D01*
X106426Y307213D01*
X106384Y307211D01*
X106343Y307206D01*
X106303Y307196D01*
X106263Y307184D01*
X106225Y307168D01*
X106188Y307148D01*
X106153Y307125D01*
X106120Y307100D01*
X106090Y307071D01*
X106062Y307040D01*
X106037Y307007D01*
X106015Y306971D01*
X105997Y306934D01*
X105981Y306895D01*
X105982Y306896D02*
X105946Y306818D01*
X105914Y306739D01*
X105885Y306658D01*
X105860Y306576D01*
X105839Y306494D01*
X105822Y306410D01*
X105808Y306326D01*
X105799Y306241D01*
X105793Y306155D01*
X105791Y306070D01*
X107061Y306070D02*
X107059Y305985D01*
X107053Y305899D01*
X107044Y305814D01*
X107030Y305730D01*
X107013Y305646D01*
X106992Y305564D01*
X106967Y305482D01*
X106938Y305401D01*
X106906Y305322D01*
X106870Y305244D01*
X106871Y305245D02*
X106855Y305206D01*
X106837Y305169D01*
X106815Y305133D01*
X106790Y305100D01*
X106762Y305069D01*
X106732Y305040D01*
X106699Y305015D01*
X106664Y304992D01*
X106627Y304972D01*
X106589Y304956D01*
X106549Y304944D01*
X106509Y304934D01*
X106468Y304929D01*
X106426Y304927D01*
X105982Y305244D02*
X105946Y305322D01*
X105914Y305401D01*
X105885Y305482D01*
X105860Y305564D01*
X105839Y305646D01*
X105822Y305730D01*
X105808Y305814D01*
X105799Y305899D01*
X105793Y305985D01*
X105791Y306070D01*
X105981Y305245D02*
X105997Y305206D01*
X106015Y305169D01*
X106037Y305133D01*
X106062Y305100D01*
X106090Y305069D01*
X106120Y305040D01*
X106153Y305015D01*
X106188Y304992D01*
X106225Y304972D01*
X106263Y304956D01*
X106303Y304944D01*
X106343Y304934D01*
X106384Y304929D01*
X106426Y304927D01*
X106934Y305435D02*
X105918Y306705D01*
X104724Y306451D02*
X104724Y304927D01*
X104724Y306451D02*
X104089Y306451D01*
X104052Y306449D01*
X104015Y306444D01*
X103978Y306435D01*
X103943Y306422D01*
X103909Y306406D01*
X103877Y306387D01*
X103847Y306365D01*
X103820Y306339D01*
X103794Y306312D01*
X103772Y306282D01*
X103753Y306250D01*
X103737Y306216D01*
X103724Y306181D01*
X103715Y306144D01*
X103710Y306107D01*
X103708Y306070D01*
X103708Y304927D01*
X102560Y304927D02*
X102560Y307213D01*
X101544Y307213D01*
X101544Y306197D02*
X102560Y306197D01*
M02*
