M48
;GenerationSoftware,Autodesk,EAGLE,9.4.0*%
;CreationDate,2020-11-29T21:17:31Z*%
FMAT,2
ICI,OFF
METRIC,TZ,000.000
T3C0.350
T2C0.850
T1C1.016
%
G90
M71
T1
X2540Y35560
X19960Y17780
X19960Y55880
X19960Y53340
X2540Y60960
X2540Y58420
X2540Y55880
X2540Y53340
X19960Y2540
X19960Y5080
X19960Y7620
X19960Y10160
X19960Y12700
X19960Y15240
X19960Y20320
X19960Y22860
X19960Y25400
X19960Y27940
X19960Y30480
X19960Y33020
X19960Y35560
X19960Y38100
X19960Y40640
X19960Y43180
X19960Y45720
X19960Y48260
X19960Y50800
X2540Y2540
X2540Y5080
X2540Y7620
X2540Y10160
X2540Y12700
X2540Y15240
X2540Y17780
X2540Y20320
X2540Y22860
X2540Y25400
X2540Y27940
X2540Y30480
X2540Y33020
X2540Y38100
X2540Y40640
X2540Y43180
X2540Y45720
X2540Y48260
X2540Y50800
X8179Y45949
X14681Y45949
X8179Y41427
X14681Y41427
X19960Y60960
X19960Y58420
T2
X9530Y5502
X13330Y5502
T3
X9652Y87884
X15240Y82804
X9147Y36477
X20066Y90932
X12700Y27940
X9144Y27940
X8636Y33020
X14224Y33274
X11430Y13208
X4318Y87884
X14486Y87114
X7620Y76708
X10414Y68834
X6604Y65819
X19558Y66802
X10160Y80772
X13970Y87884
X12700Y52070
X11430Y27940
X10414Y40640
X13109Y64008
X13109Y65631
X10668Y66802
X10414Y55880
X10073Y36477
X8227Y36477
X8636Y21590
X6759Y21590
X13208Y23876
X9398Y23876
X16256Y34036
X12192Y24638
X15494Y34798
X17018Y43180
X12192Y43180
X19050Y64008
X20729Y63754
X7013Y81534
X5692Y81280
X20066Y62992
X5080Y82804
X8227Y82713
X11978Y33020
X10160Y33020
X17272Y55880
X11069Y33020
X17272Y58420
X9652Y30226
X8890Y80772
X3556Y64229
X12287Y62992
X17272Y38354
X17780Y74422
X17272Y41910
X18796Y73660
X14986Y81263
X19304Y80264
X12954Y86614
M30