%TF.GenerationSoftware,KiCad,Pcbnew,(5.1.9)-1*%
%TF.CreationDate,2021-03-06T18:52:22-05:00*%
%TF.ProjectId,final_design_v2,66696e61-6c5f-4646-9573-69676e5f7632,rev?*%
%TF.SameCoordinates,Original*%
%TF.FileFunction,Copper,L2,Inr*%
%TF.FilePolarity,Positive*%
%FSLAX46Y46*%
G04 Gerber Fmt 4.6, Leading zero omitted, Abs format (unit mm)*
G04 Created by KiCad (PCBNEW (5.1.9)-1) date 2021-03-06 18:52:22*
%MOMM*%
%LPD*%
G01*
G04 APERTURE LIST*
%TA.AperFunction,ComponentPad*%
%ADD10C,3.500000*%
%TD*%
%TA.AperFunction,ComponentPad*%
%ADD11R,1.700000X1.700000*%
%TD*%
%TA.AperFunction,ComponentPad*%
%ADD12O,1.700000X1.700000*%
%TD*%
%TA.AperFunction,ViaPad*%
%ADD13C,0.800000*%
%TD*%
%TA.AperFunction,Conductor*%
%ADD14C,0.254000*%
%TD*%
%TA.AperFunction,Conductor*%
%ADD15C,0.100000*%
%TD*%
G04 APERTURE END LIST*
D10*
%TO.N,GND*%
%TO.C,H4*%
X162090100Y-121564400D03*
%TD*%
%TO.N,GND*%
%TO.C,H1*%
X136690100Y-79654400D03*
%TD*%
%TO.N,GND*%
%TO.C,H2*%
X136690100Y-121564400D03*
%TD*%
%TO.N,GND*%
%TO.C,H3*%
X162090100Y-79654400D03*
%TD*%
D11*
%TO.N,GND*%
%TO.C,SWD*%
X139738100Y-91008200D03*
D12*
%TO.N,SWCLK*%
X139738100Y-93548200D03*
%TO.N,SWDIO*%
X139738100Y-96088200D03*
%TO.N,+3V3*%
X139738100Y-98628200D03*
%TD*%
%TO.N,+3V3*%
%TO.C,UART*%
X139738100Y-102997000D03*
%TO.N,UART1_TX*%
X139738100Y-105537000D03*
%TO.N,UART1_RX*%
X139738100Y-108077000D03*
D11*
%TO.N,GND*%
X139738100Y-110617000D03*
%TD*%
%TO.N,VCC*%
%TO.C,J3*%
X148120100Y-121564400D03*
D12*
%TO.N,GND*%
X150660100Y-121564400D03*
%TD*%
D13*
%TO.N,GND*%
X160444968Y-101068326D03*
X155386675Y-99063754D03*
X154826831Y-95243735D03*
X160312100Y-94386400D03*
X157377131Y-81414449D03*
X157710040Y-101394371D03*
X159695982Y-106235629D03*
X140381255Y-101659849D03*
X139738100Y-111912400D03*
X139738100Y-89560400D03*
X139536800Y-81231100D03*
X140314646Y-122470447D03*
X145096371Y-123291395D03*
X153528803Y-123316728D03*
X157772100Y-117146400D03*
X160337500Y-108839000D03*
X146850100Y-98044000D03*
X150837900Y-106349800D03*
X153377900Y-111353600D03*
X148450300Y-113385600D03*
X154665600Y-115214400D03*
X144259300Y-115163600D03*
X146951700Y-91160600D03*
X144360900Y-99872800D03*
X143776700Y-106259400D03*
%TO.N,+3V3*%
X160312100Y-98704400D03*
X156502100Y-100990400D03*
X139484967Y-99883934D03*
X140246100Y-120548400D03*
X157772100Y-121310400D03*
X146697700Y-105892600D03*
X151828500Y-105892600D03*
X146697700Y-102641400D03*
X149898100Y-112979200D03*
X143548100Y-112166400D03*
X147053300Y-86080600D03*
X143827500Y-92964000D03*
X152266376Y-109447150D03*
X158826200Y-111594900D03*
X148082000Y-110605400D03*
X154388739Y-107063057D03*
%TO.N,+3.3VA*%
X153365200Y-107594400D03*
X151879300Y-102285800D03*
X154686000Y-111658400D03*
%TO.N,OSC8_IN*%
X156357810Y-106297410D03*
%TO.N,OSC32_IN*%
X158051500Y-109270800D03*
%TO.N,OSC32_OUT*%
X158051500Y-106680000D03*
%TO.N,OSC8_OUT*%
X159680793Y-101943179D03*
%TO.N,VCC*%
X162109974Y-84298165D03*
X135779941Y-84318309D03*
X161328100Y-118516400D03*
X151968200Y-119468900D03*
%TO.N,Net-(C27-Pad2)*%
X160058100Y-93116400D03*
%TO.N,Net-(C28-Pad1)*%
X158697442Y-101144581D03*
%TO.N,Net-(D2-Pad1)*%
X155206700Y-109194600D03*
%TO.N,Net-(D3-Pad1)*%
X142582900Y-99517200D03*
%TO.N,UART1_RX*%
X143094992Y-104237508D03*
%TO.N,UART1_TX*%
X143802100Y-103530400D03*
%TO.N,I2C1_SDA*%
X149390100Y-109880400D03*
X151365100Y-109880400D03*
%TO.N,I2C2_SCL*%
X146088100Y-89560400D03*
X147104100Y-101244400D03*
%TO.N,I2C2_SDA*%
X144774079Y-90284053D03*
X144818100Y-97205800D03*
%TO.N,SPI1_CE*%
X147530100Y-94687517D03*
X152230801Y-98012451D03*
%TO.N,SPI1_SCK*%
X151676100Y-97180400D03*
X150152100Y-95148400D03*
%TO.N,ADC_BATT*%
X149085300Y-106451400D03*
X141160500Y-109524800D03*
X144335500Y-108700400D03*
%TO.N,M1_PWM*%
X152143715Y-101311666D03*
X152835097Y-88835400D03*
%TO.N,M2_PWM*%
X155168600Y-101117400D03*
%TO.N,M3_PWM*%
X153581100Y-100025200D03*
X153835100Y-88835400D03*
%TO.N,M4_PWM*%
X154495500Y-96545400D03*
%TO.N,Net-(Q3-Pad2)*%
X144360900Y-116484400D03*
%TO.N,Net-(Q4-Pad2)*%
X154444700Y-113842800D03*
%TD*%
D14*
%TO.N,GND*%
X160600097Y-77984791D02*
X162090100Y-79474795D01*
X162104242Y-79460652D01*
X162283848Y-79640258D01*
X162269705Y-79654400D01*
X163759709Y-81144403D01*
X163970100Y-81029650D01*
X163970101Y-120189150D01*
X163759709Y-120074397D01*
X162269705Y-121564400D01*
X162283848Y-121578542D01*
X162104242Y-121758148D01*
X162090100Y-121744005D01*
X160600097Y-123234009D01*
X160714850Y-123444400D01*
X138065350Y-123444400D01*
X138180103Y-123234009D01*
X136690100Y-121744005D01*
X136675958Y-121758148D01*
X136496352Y-121578542D01*
X136510495Y-121564400D01*
X136869705Y-121564400D01*
X138359709Y-123054403D01*
X138700866Y-122868327D01*
X138916613Y-122450991D01*
X139046796Y-121999585D01*
X139086413Y-121531454D01*
X139033942Y-121064589D01*
X138891397Y-120616932D01*
X138800279Y-120446461D01*
X139211100Y-120446461D01*
X139211100Y-120650339D01*
X139250874Y-120850298D01*
X139328895Y-121038656D01*
X139442163Y-121208174D01*
X139586326Y-121352337D01*
X139755844Y-121465605D01*
X139944202Y-121543626D01*
X140144161Y-121583400D01*
X140348039Y-121583400D01*
X140547998Y-121543626D01*
X140736356Y-121465605D01*
X140905874Y-121352337D01*
X141050037Y-121208174D01*
X141163305Y-121038656D01*
X141241326Y-120850298D01*
X141268357Y-120714400D01*
X146632028Y-120714400D01*
X146632028Y-122414400D01*
X146644288Y-122538882D01*
X146680598Y-122658580D01*
X146739563Y-122768894D01*
X146818915Y-122865585D01*
X146915606Y-122944937D01*
X147025920Y-123003902D01*
X147145618Y-123040212D01*
X147270100Y-123052472D01*
X148970100Y-123052472D01*
X149094582Y-123040212D01*
X149214280Y-123003902D01*
X149324594Y-122944937D01*
X149421285Y-122865585D01*
X149500637Y-122768894D01*
X149559602Y-122658580D01*
X149584066Y-122577934D01*
X149659831Y-122661988D01*
X149893180Y-122836041D01*
X150156001Y-122961225D01*
X150303210Y-123005876D01*
X150533100Y-122884555D01*
X150533100Y-121691400D01*
X150787100Y-121691400D01*
X150787100Y-122884555D01*
X151016990Y-123005876D01*
X151164199Y-122961225D01*
X151427020Y-122836041D01*
X151660369Y-122661988D01*
X151855278Y-122445755D01*
X152004257Y-122195652D01*
X152101581Y-121921291D01*
X151980914Y-121691400D01*
X150787100Y-121691400D01*
X150533100Y-121691400D01*
X150513100Y-121691400D01*
X150513100Y-121437400D01*
X150533100Y-121437400D01*
X150533100Y-120244245D01*
X150787100Y-120244245D01*
X150787100Y-121437400D01*
X151980914Y-121437400D01*
X152101081Y-121208461D01*
X156737100Y-121208461D01*
X156737100Y-121412339D01*
X156776874Y-121612298D01*
X156854895Y-121800656D01*
X156968163Y-121970174D01*
X157112326Y-122114337D01*
X157281844Y-122227605D01*
X157470202Y-122305626D01*
X157670161Y-122345400D01*
X157874039Y-122345400D01*
X158073998Y-122305626D01*
X158262356Y-122227605D01*
X158431874Y-122114337D01*
X158576037Y-121970174D01*
X158689305Y-121800656D01*
X158767326Y-121612298D01*
X158770300Y-121597346D01*
X159693787Y-121597346D01*
X159746258Y-122064211D01*
X159888803Y-122511868D01*
X160079334Y-122868327D01*
X160420491Y-123054403D01*
X161910495Y-121564400D01*
X160420491Y-120074397D01*
X160079334Y-120260473D01*
X159863587Y-120677809D01*
X159733404Y-121129215D01*
X159693787Y-121597346D01*
X158770300Y-121597346D01*
X158807100Y-121412339D01*
X158807100Y-121208461D01*
X158767326Y-121008502D01*
X158689305Y-120820144D01*
X158576037Y-120650626D01*
X158431874Y-120506463D01*
X158262356Y-120393195D01*
X158073998Y-120315174D01*
X157874039Y-120275400D01*
X157670161Y-120275400D01*
X157470202Y-120315174D01*
X157281844Y-120393195D01*
X157112326Y-120506463D01*
X156968163Y-120650626D01*
X156854895Y-120820144D01*
X156776874Y-121008502D01*
X156737100Y-121208461D01*
X152101081Y-121208461D01*
X152101581Y-121207509D01*
X152004257Y-120933148D01*
X151855278Y-120683045D01*
X151660369Y-120466812D01*
X151644861Y-120455245D01*
X151666302Y-120464126D01*
X151866261Y-120503900D01*
X152070139Y-120503900D01*
X152270098Y-120464126D01*
X152458456Y-120386105D01*
X152627974Y-120272837D01*
X152772137Y-120128674D01*
X152885405Y-119959156D01*
X152963426Y-119770798D01*
X153003200Y-119570839D01*
X153003200Y-119366961D01*
X152963426Y-119167002D01*
X152885405Y-118978644D01*
X152772137Y-118809126D01*
X152627974Y-118664963D01*
X152458456Y-118551695D01*
X152270098Y-118473674D01*
X152070139Y-118433900D01*
X151866261Y-118433900D01*
X151666302Y-118473674D01*
X151477944Y-118551695D01*
X151308426Y-118664963D01*
X151164263Y-118809126D01*
X151050995Y-118978644D01*
X150972974Y-119167002D01*
X150933200Y-119366961D01*
X150933200Y-119570839D01*
X150972974Y-119770798D01*
X151050995Y-119959156D01*
X151164263Y-120128674D01*
X151238604Y-120203015D01*
X151164199Y-120167575D01*
X151016990Y-120122924D01*
X150787100Y-120244245D01*
X150533100Y-120244245D01*
X150303210Y-120122924D01*
X150156001Y-120167575D01*
X149893180Y-120292759D01*
X149659831Y-120466812D01*
X149584066Y-120550866D01*
X149559602Y-120470220D01*
X149500637Y-120359906D01*
X149421285Y-120263215D01*
X149324594Y-120183863D01*
X149214280Y-120124898D01*
X149094582Y-120088588D01*
X148970100Y-120076328D01*
X147270100Y-120076328D01*
X147145618Y-120088588D01*
X147025920Y-120124898D01*
X146915606Y-120183863D01*
X146818915Y-120263215D01*
X146739563Y-120359906D01*
X146680598Y-120470220D01*
X146644288Y-120589918D01*
X146632028Y-120714400D01*
X141268357Y-120714400D01*
X141281100Y-120650339D01*
X141281100Y-120446461D01*
X141241326Y-120246502D01*
X141163305Y-120058144D01*
X141050037Y-119888626D01*
X140905874Y-119744463D01*
X140736356Y-119631195D01*
X140547998Y-119553174D01*
X140348039Y-119513400D01*
X140144161Y-119513400D01*
X139944202Y-119553174D01*
X139755844Y-119631195D01*
X139586326Y-119744463D01*
X139442163Y-119888626D01*
X139328895Y-120058144D01*
X139250874Y-120246502D01*
X139211100Y-120446461D01*
X138800279Y-120446461D01*
X138700866Y-120260473D01*
X138359709Y-120074397D01*
X136869705Y-121564400D01*
X136510495Y-121564400D01*
X135020491Y-120074397D01*
X134810100Y-120189150D01*
X134810100Y-119894791D01*
X135200097Y-119894791D01*
X136690100Y-121384795D01*
X138180103Y-119894791D01*
X137994027Y-119553634D01*
X137576691Y-119337887D01*
X137125285Y-119207704D01*
X136657154Y-119168087D01*
X136190289Y-119220558D01*
X135742632Y-119363103D01*
X135386173Y-119553634D01*
X135200097Y-119894791D01*
X134810100Y-119894791D01*
X134810100Y-118414461D01*
X160293100Y-118414461D01*
X160293100Y-118618339D01*
X160332874Y-118818298D01*
X160410895Y-119006656D01*
X160524163Y-119176174D01*
X160668326Y-119320337D01*
X160837844Y-119433605D01*
X160935249Y-119473952D01*
X160786173Y-119553634D01*
X160600097Y-119894791D01*
X162090100Y-121384795D01*
X163580103Y-119894791D01*
X163394027Y-119553634D01*
X162976691Y-119337887D01*
X162525285Y-119207704D01*
X162133144Y-119174518D01*
X162245305Y-119006656D01*
X162323326Y-118818298D01*
X162363100Y-118618339D01*
X162363100Y-118414461D01*
X162323326Y-118214502D01*
X162245305Y-118026144D01*
X162132037Y-117856626D01*
X161987874Y-117712463D01*
X161818356Y-117599195D01*
X161629998Y-117521174D01*
X161430039Y-117481400D01*
X161226161Y-117481400D01*
X161026202Y-117521174D01*
X160837844Y-117599195D01*
X160668326Y-117712463D01*
X160524163Y-117856626D01*
X160410895Y-118026144D01*
X160332874Y-118214502D01*
X160293100Y-118414461D01*
X134810100Y-118414461D01*
X134810100Y-116382461D01*
X143325900Y-116382461D01*
X143325900Y-116586339D01*
X143365674Y-116786298D01*
X143443695Y-116974656D01*
X143556963Y-117144174D01*
X143701126Y-117288337D01*
X143870644Y-117401605D01*
X144059002Y-117479626D01*
X144258961Y-117519400D01*
X144462839Y-117519400D01*
X144662798Y-117479626D01*
X144851156Y-117401605D01*
X145020674Y-117288337D01*
X145164837Y-117144174D01*
X145278105Y-116974656D01*
X145356126Y-116786298D01*
X145395900Y-116586339D01*
X145395900Y-116382461D01*
X145356126Y-116182502D01*
X145278105Y-115994144D01*
X145164837Y-115824626D01*
X145020674Y-115680463D01*
X144851156Y-115567195D01*
X144662798Y-115489174D01*
X144462839Y-115449400D01*
X144258961Y-115449400D01*
X144059002Y-115489174D01*
X143870644Y-115567195D01*
X143701126Y-115680463D01*
X143556963Y-115824626D01*
X143443695Y-115994144D01*
X143365674Y-116182502D01*
X143325900Y-116382461D01*
X134810100Y-116382461D01*
X134810100Y-111467000D01*
X138250028Y-111467000D01*
X138262288Y-111591482D01*
X138298598Y-111711180D01*
X138357563Y-111821494D01*
X138436915Y-111918185D01*
X138533606Y-111997537D01*
X138643920Y-112056502D01*
X138763618Y-112092812D01*
X138888100Y-112105072D01*
X139452350Y-112102000D01*
X139611100Y-111943250D01*
X139611100Y-110744000D01*
X139865100Y-110744000D01*
X139865100Y-111943250D01*
X140023850Y-112102000D01*
X140588100Y-112105072D01*
X140712582Y-112092812D01*
X140806042Y-112064461D01*
X142513100Y-112064461D01*
X142513100Y-112268339D01*
X142552874Y-112468298D01*
X142630895Y-112656656D01*
X142744163Y-112826174D01*
X142888326Y-112970337D01*
X143057844Y-113083605D01*
X143246202Y-113161626D01*
X143446161Y-113201400D01*
X143650039Y-113201400D01*
X143849998Y-113161626D01*
X144038356Y-113083605D01*
X144207874Y-112970337D01*
X144300950Y-112877261D01*
X148863100Y-112877261D01*
X148863100Y-113081139D01*
X148902874Y-113281098D01*
X148980895Y-113469456D01*
X149094163Y-113638974D01*
X149238326Y-113783137D01*
X149407844Y-113896405D01*
X149596202Y-113974426D01*
X149796161Y-114014200D01*
X150000039Y-114014200D01*
X150199998Y-113974426D01*
X150388356Y-113896405D01*
X150557874Y-113783137D01*
X150600150Y-113740861D01*
X153409700Y-113740861D01*
X153409700Y-113944739D01*
X153449474Y-114144698D01*
X153527495Y-114333056D01*
X153640763Y-114502574D01*
X153784926Y-114646737D01*
X153954444Y-114760005D01*
X154142802Y-114838026D01*
X154342761Y-114877800D01*
X154546639Y-114877800D01*
X154746598Y-114838026D01*
X154934956Y-114760005D01*
X155104474Y-114646737D01*
X155248637Y-114502574D01*
X155361905Y-114333056D01*
X155439926Y-114144698D01*
X155479700Y-113944739D01*
X155479700Y-113740861D01*
X155439926Y-113540902D01*
X155361905Y-113352544D01*
X155248637Y-113183026D01*
X155104474Y-113038863D01*
X154934956Y-112925595D01*
X154746598Y-112847574D01*
X154546639Y-112807800D01*
X154342761Y-112807800D01*
X154142802Y-112847574D01*
X153954444Y-112925595D01*
X153784926Y-113038863D01*
X153640763Y-113183026D01*
X153527495Y-113352544D01*
X153449474Y-113540902D01*
X153409700Y-113740861D01*
X150600150Y-113740861D01*
X150702037Y-113638974D01*
X150815305Y-113469456D01*
X150893326Y-113281098D01*
X150933100Y-113081139D01*
X150933100Y-112877261D01*
X150893326Y-112677302D01*
X150815305Y-112488944D01*
X150702037Y-112319426D01*
X150557874Y-112175263D01*
X150388356Y-112061995D01*
X150199998Y-111983974D01*
X150000039Y-111944200D01*
X149796161Y-111944200D01*
X149596202Y-111983974D01*
X149407844Y-112061995D01*
X149238326Y-112175263D01*
X149094163Y-112319426D01*
X148980895Y-112488944D01*
X148902874Y-112677302D01*
X148863100Y-112877261D01*
X144300950Y-112877261D01*
X144352037Y-112826174D01*
X144465305Y-112656656D01*
X144543326Y-112468298D01*
X144583100Y-112268339D01*
X144583100Y-112064461D01*
X144543326Y-111864502D01*
X144465305Y-111676144D01*
X144352037Y-111506626D01*
X144207874Y-111362463D01*
X144038356Y-111249195D01*
X143849998Y-111171174D01*
X143650039Y-111131400D01*
X143446161Y-111131400D01*
X143246202Y-111171174D01*
X143057844Y-111249195D01*
X142888326Y-111362463D01*
X142744163Y-111506626D01*
X142630895Y-111676144D01*
X142552874Y-111864502D01*
X142513100Y-112064461D01*
X140806042Y-112064461D01*
X140832280Y-112056502D01*
X140942594Y-111997537D01*
X141039285Y-111918185D01*
X141118637Y-111821494D01*
X141177602Y-111711180D01*
X141213912Y-111591482D01*
X141226172Y-111467000D01*
X141223100Y-110902750D01*
X141064350Y-110744000D01*
X139865100Y-110744000D01*
X139611100Y-110744000D01*
X138411850Y-110744000D01*
X138253100Y-110902750D01*
X138250028Y-111467000D01*
X134810100Y-111467000D01*
X134810100Y-109767000D01*
X138250028Y-109767000D01*
X138253100Y-110331250D01*
X138411850Y-110490000D01*
X139611100Y-110490000D01*
X139611100Y-110470000D01*
X139865100Y-110470000D01*
X139865100Y-110490000D01*
X140786113Y-110490000D01*
X140858602Y-110520026D01*
X141058561Y-110559800D01*
X141262439Y-110559800D01*
X141462398Y-110520026D01*
X141502389Y-110503461D01*
X147047000Y-110503461D01*
X147047000Y-110707339D01*
X147086774Y-110907298D01*
X147164795Y-111095656D01*
X147278063Y-111265174D01*
X147422226Y-111409337D01*
X147591744Y-111522605D01*
X147780102Y-111600626D01*
X147980061Y-111640400D01*
X148183939Y-111640400D01*
X148383898Y-111600626D01*
X148490520Y-111556461D01*
X153651000Y-111556461D01*
X153651000Y-111760339D01*
X153690774Y-111960298D01*
X153768795Y-112148656D01*
X153882063Y-112318174D01*
X154026226Y-112462337D01*
X154195744Y-112575605D01*
X154384102Y-112653626D01*
X154584061Y-112693400D01*
X154787939Y-112693400D01*
X154987898Y-112653626D01*
X155176256Y-112575605D01*
X155345774Y-112462337D01*
X155489937Y-112318174D01*
X155603205Y-112148656D01*
X155681226Y-111960298D01*
X155721000Y-111760339D01*
X155721000Y-111556461D01*
X155708370Y-111492961D01*
X157791200Y-111492961D01*
X157791200Y-111696839D01*
X157830974Y-111896798D01*
X157908995Y-112085156D01*
X158022263Y-112254674D01*
X158166426Y-112398837D01*
X158335944Y-112512105D01*
X158524302Y-112590126D01*
X158724261Y-112629900D01*
X158928139Y-112629900D01*
X159128098Y-112590126D01*
X159316456Y-112512105D01*
X159485974Y-112398837D01*
X159630137Y-112254674D01*
X159743405Y-112085156D01*
X159821426Y-111896798D01*
X159861200Y-111696839D01*
X159861200Y-111492961D01*
X159821426Y-111293002D01*
X159743405Y-111104644D01*
X159630137Y-110935126D01*
X159485974Y-110790963D01*
X159316456Y-110677695D01*
X159128098Y-110599674D01*
X158928139Y-110559900D01*
X158724261Y-110559900D01*
X158524302Y-110599674D01*
X158335944Y-110677695D01*
X158166426Y-110790963D01*
X158022263Y-110935126D01*
X157908995Y-111104644D01*
X157830974Y-111293002D01*
X157791200Y-111492961D01*
X155708370Y-111492961D01*
X155681226Y-111356502D01*
X155603205Y-111168144D01*
X155489937Y-110998626D01*
X155345774Y-110854463D01*
X155176256Y-110741195D01*
X154987898Y-110663174D01*
X154787939Y-110623400D01*
X154584061Y-110623400D01*
X154384102Y-110663174D01*
X154195744Y-110741195D01*
X154026226Y-110854463D01*
X153882063Y-110998626D01*
X153768795Y-111168144D01*
X153690774Y-111356502D01*
X153651000Y-111556461D01*
X148490520Y-111556461D01*
X148572256Y-111522605D01*
X148741774Y-111409337D01*
X148885937Y-111265174D01*
X148999205Y-111095656D01*
X149077226Y-110907298D01*
X149083882Y-110873837D01*
X149088202Y-110875626D01*
X149288161Y-110915400D01*
X149492039Y-110915400D01*
X149691998Y-110875626D01*
X149880356Y-110797605D01*
X150049874Y-110684337D01*
X150194037Y-110540174D01*
X150307305Y-110370656D01*
X150377600Y-110200950D01*
X150447895Y-110370656D01*
X150561163Y-110540174D01*
X150705326Y-110684337D01*
X150874844Y-110797605D01*
X151063202Y-110875626D01*
X151263161Y-110915400D01*
X151467039Y-110915400D01*
X151666998Y-110875626D01*
X151855356Y-110797605D01*
X152024874Y-110684337D01*
X152169037Y-110540174D01*
X152207807Y-110482150D01*
X152368315Y-110482150D01*
X152568274Y-110442376D01*
X152756632Y-110364355D01*
X152926150Y-110251087D01*
X153070313Y-110106924D01*
X153183581Y-109937406D01*
X153261602Y-109749048D01*
X153301376Y-109549089D01*
X153301376Y-109345211D01*
X153261602Y-109145252D01*
X153239818Y-109092661D01*
X154171700Y-109092661D01*
X154171700Y-109296539D01*
X154211474Y-109496498D01*
X154289495Y-109684856D01*
X154402763Y-109854374D01*
X154546926Y-109998537D01*
X154716444Y-110111805D01*
X154904802Y-110189826D01*
X155104761Y-110229600D01*
X155308639Y-110229600D01*
X155508598Y-110189826D01*
X155696956Y-110111805D01*
X155866474Y-109998537D01*
X156010637Y-109854374D01*
X156123905Y-109684856D01*
X156201926Y-109496498D01*
X156241700Y-109296539D01*
X156241700Y-109168861D01*
X157016500Y-109168861D01*
X157016500Y-109372739D01*
X157056274Y-109572698D01*
X157134295Y-109761056D01*
X157247563Y-109930574D01*
X157391726Y-110074737D01*
X157561244Y-110188005D01*
X157749602Y-110266026D01*
X157949561Y-110305800D01*
X158153439Y-110305800D01*
X158353398Y-110266026D01*
X158541756Y-110188005D01*
X158711274Y-110074737D01*
X158855437Y-109930574D01*
X158968705Y-109761056D01*
X159046726Y-109572698D01*
X159086500Y-109372739D01*
X159086500Y-109168861D01*
X159046726Y-108968902D01*
X158968705Y-108780544D01*
X158855437Y-108611026D01*
X158711274Y-108466863D01*
X158541756Y-108353595D01*
X158353398Y-108275574D01*
X158153439Y-108235800D01*
X157949561Y-108235800D01*
X157749602Y-108275574D01*
X157561244Y-108353595D01*
X157391726Y-108466863D01*
X157247563Y-108611026D01*
X157134295Y-108780544D01*
X157056274Y-108968902D01*
X157016500Y-109168861D01*
X156241700Y-109168861D01*
X156241700Y-109092661D01*
X156201926Y-108892702D01*
X156123905Y-108704344D01*
X156010637Y-108534826D01*
X155866474Y-108390663D01*
X155696956Y-108277395D01*
X155508598Y-108199374D01*
X155308639Y-108159600D01*
X155104761Y-108159600D01*
X154904802Y-108199374D01*
X154716444Y-108277395D01*
X154546926Y-108390663D01*
X154402763Y-108534826D01*
X154289495Y-108704344D01*
X154211474Y-108892702D01*
X154171700Y-109092661D01*
X153239818Y-109092661D01*
X153183581Y-108956894D01*
X153070313Y-108787376D01*
X152926150Y-108643213D01*
X152756632Y-108529945D01*
X152568274Y-108451924D01*
X152368315Y-108412150D01*
X152164437Y-108412150D01*
X151964478Y-108451924D01*
X151776120Y-108529945D01*
X151606602Y-108643213D01*
X151462439Y-108787376D01*
X151423669Y-108845400D01*
X151263161Y-108845400D01*
X151063202Y-108885174D01*
X150874844Y-108963195D01*
X150705326Y-109076463D01*
X150561163Y-109220626D01*
X150447895Y-109390144D01*
X150377600Y-109559850D01*
X150307305Y-109390144D01*
X150194037Y-109220626D01*
X150049874Y-109076463D01*
X149880356Y-108963195D01*
X149691998Y-108885174D01*
X149492039Y-108845400D01*
X149288161Y-108845400D01*
X149088202Y-108885174D01*
X148899844Y-108963195D01*
X148730326Y-109076463D01*
X148586163Y-109220626D01*
X148472895Y-109390144D01*
X148394874Y-109578502D01*
X148388218Y-109611963D01*
X148383898Y-109610174D01*
X148183939Y-109570400D01*
X147980061Y-109570400D01*
X147780102Y-109610174D01*
X147591744Y-109688195D01*
X147422226Y-109801463D01*
X147278063Y-109945626D01*
X147164795Y-110115144D01*
X147086774Y-110303502D01*
X147047000Y-110503461D01*
X141502389Y-110503461D01*
X141650756Y-110442005D01*
X141820274Y-110328737D01*
X141964437Y-110184574D01*
X142077705Y-110015056D01*
X142155726Y-109826698D01*
X142195500Y-109626739D01*
X142195500Y-109422861D01*
X142155726Y-109222902D01*
X142077705Y-109034544D01*
X141964437Y-108865026D01*
X141820274Y-108720863D01*
X141650756Y-108607595D01*
X141628705Y-108598461D01*
X143300500Y-108598461D01*
X143300500Y-108802339D01*
X143340274Y-109002298D01*
X143418295Y-109190656D01*
X143531563Y-109360174D01*
X143675726Y-109504337D01*
X143845244Y-109617605D01*
X144033602Y-109695626D01*
X144233561Y-109735400D01*
X144437439Y-109735400D01*
X144637398Y-109695626D01*
X144825756Y-109617605D01*
X144995274Y-109504337D01*
X145139437Y-109360174D01*
X145252705Y-109190656D01*
X145330726Y-109002298D01*
X145370500Y-108802339D01*
X145370500Y-108598461D01*
X145330726Y-108398502D01*
X145252705Y-108210144D01*
X145139437Y-108040626D01*
X144995274Y-107896463D01*
X144825756Y-107783195D01*
X144637398Y-107705174D01*
X144437439Y-107665400D01*
X144233561Y-107665400D01*
X144033602Y-107705174D01*
X143845244Y-107783195D01*
X143675726Y-107896463D01*
X143531563Y-108040626D01*
X143418295Y-108210144D01*
X143340274Y-108398502D01*
X143300500Y-108598461D01*
X141628705Y-108598461D01*
X141462398Y-108529574D01*
X141262439Y-108489800D01*
X141170081Y-108489800D01*
X141223100Y-108223260D01*
X141223100Y-107930740D01*
X141166032Y-107643842D01*
X141103329Y-107492461D01*
X152330200Y-107492461D01*
X152330200Y-107696339D01*
X152369974Y-107896298D01*
X152447995Y-108084656D01*
X152561263Y-108254174D01*
X152705426Y-108398337D01*
X152874944Y-108511605D01*
X153063302Y-108589626D01*
X153263261Y-108629400D01*
X153467139Y-108629400D01*
X153667098Y-108589626D01*
X153855456Y-108511605D01*
X154024974Y-108398337D01*
X154169137Y-108254174D01*
X154275017Y-108095713D01*
X154286800Y-108098057D01*
X154490678Y-108098057D01*
X154690637Y-108058283D01*
X154878995Y-107980262D01*
X155048513Y-107866994D01*
X155192676Y-107722831D01*
X155305944Y-107553313D01*
X155383965Y-107364955D01*
X155423739Y-107164996D01*
X155423739Y-106961118D01*
X155383965Y-106761159D01*
X155305944Y-106572801D01*
X155192676Y-106403283D01*
X155048513Y-106259120D01*
X154953256Y-106195471D01*
X155322810Y-106195471D01*
X155322810Y-106399349D01*
X155362584Y-106599308D01*
X155440605Y-106787666D01*
X155553873Y-106957184D01*
X155698036Y-107101347D01*
X155867554Y-107214615D01*
X156055912Y-107292636D01*
X156255871Y-107332410D01*
X156459749Y-107332410D01*
X156659708Y-107292636D01*
X156848066Y-107214615D01*
X157017584Y-107101347D01*
X157079928Y-107039003D01*
X157134295Y-107170256D01*
X157247563Y-107339774D01*
X157391726Y-107483937D01*
X157561244Y-107597205D01*
X157749602Y-107675226D01*
X157949561Y-107715000D01*
X158153439Y-107715000D01*
X158353398Y-107675226D01*
X158541756Y-107597205D01*
X158711274Y-107483937D01*
X158855437Y-107339774D01*
X158968705Y-107170256D01*
X159046726Y-106981898D01*
X159086500Y-106781939D01*
X159086500Y-106578061D01*
X159046726Y-106378102D01*
X158968705Y-106189744D01*
X158855437Y-106020226D01*
X158711274Y-105876063D01*
X158541756Y-105762795D01*
X158353398Y-105684774D01*
X158153439Y-105645000D01*
X157949561Y-105645000D01*
X157749602Y-105684774D01*
X157561244Y-105762795D01*
X157391726Y-105876063D01*
X157329382Y-105938407D01*
X157275015Y-105807154D01*
X157161747Y-105637636D01*
X157017584Y-105493473D01*
X156848066Y-105380205D01*
X156659708Y-105302184D01*
X156459749Y-105262410D01*
X156255871Y-105262410D01*
X156055912Y-105302184D01*
X155867554Y-105380205D01*
X155698036Y-105493473D01*
X155553873Y-105637636D01*
X155440605Y-105807154D01*
X155362584Y-105995512D01*
X155322810Y-106195471D01*
X154953256Y-106195471D01*
X154878995Y-106145852D01*
X154690637Y-106067831D01*
X154490678Y-106028057D01*
X154286800Y-106028057D01*
X154086841Y-106067831D01*
X153898483Y-106145852D01*
X153728965Y-106259120D01*
X153584802Y-106403283D01*
X153478922Y-106561744D01*
X153467139Y-106559400D01*
X153263261Y-106559400D01*
X153063302Y-106599174D01*
X152874944Y-106677195D01*
X152705426Y-106790463D01*
X152561263Y-106934626D01*
X152447995Y-107104144D01*
X152369974Y-107292502D01*
X152330200Y-107492461D01*
X141103329Y-107492461D01*
X141054090Y-107373589D01*
X140891575Y-107130368D01*
X140684732Y-106923525D01*
X140510340Y-106807000D01*
X140684732Y-106690475D01*
X140891575Y-106483632D01*
X141054090Y-106240411D01*
X141166032Y-105970158D01*
X141201736Y-105790661D01*
X145662700Y-105790661D01*
X145662700Y-105994539D01*
X145702474Y-106194498D01*
X145780495Y-106382856D01*
X145893763Y-106552374D01*
X146037926Y-106696537D01*
X146207444Y-106809805D01*
X146395802Y-106887826D01*
X146595761Y-106927600D01*
X146799639Y-106927600D01*
X146999598Y-106887826D01*
X147187956Y-106809805D01*
X147357474Y-106696537D01*
X147501637Y-106552374D01*
X147614905Y-106382856D01*
X147628737Y-106349461D01*
X148050300Y-106349461D01*
X148050300Y-106553339D01*
X148090074Y-106753298D01*
X148168095Y-106941656D01*
X148281363Y-107111174D01*
X148425526Y-107255337D01*
X148595044Y-107368605D01*
X148783402Y-107446626D01*
X148983361Y-107486400D01*
X149187239Y-107486400D01*
X149387198Y-107446626D01*
X149575556Y-107368605D01*
X149745074Y-107255337D01*
X149889237Y-107111174D01*
X150002505Y-106941656D01*
X150080526Y-106753298D01*
X150120300Y-106553339D01*
X150120300Y-106349461D01*
X150080526Y-106149502D01*
X150002505Y-105961144D01*
X149889237Y-105791626D01*
X149888272Y-105790661D01*
X150793500Y-105790661D01*
X150793500Y-105994539D01*
X150833274Y-106194498D01*
X150911295Y-106382856D01*
X151024563Y-106552374D01*
X151168726Y-106696537D01*
X151338244Y-106809805D01*
X151526602Y-106887826D01*
X151726561Y-106927600D01*
X151930439Y-106927600D01*
X152130398Y-106887826D01*
X152318756Y-106809805D01*
X152488274Y-106696537D01*
X152632437Y-106552374D01*
X152745705Y-106382856D01*
X152823726Y-106194498D01*
X152863500Y-105994539D01*
X152863500Y-105790661D01*
X152823726Y-105590702D01*
X152745705Y-105402344D01*
X152632437Y-105232826D01*
X152488274Y-105088663D01*
X152318756Y-104975395D01*
X152130398Y-104897374D01*
X151930439Y-104857600D01*
X151726561Y-104857600D01*
X151526602Y-104897374D01*
X151338244Y-104975395D01*
X151168726Y-105088663D01*
X151024563Y-105232826D01*
X150911295Y-105402344D01*
X150833274Y-105590702D01*
X150793500Y-105790661D01*
X149888272Y-105790661D01*
X149745074Y-105647463D01*
X149575556Y-105534195D01*
X149387198Y-105456174D01*
X149187239Y-105416400D01*
X148983361Y-105416400D01*
X148783402Y-105456174D01*
X148595044Y-105534195D01*
X148425526Y-105647463D01*
X148281363Y-105791626D01*
X148168095Y-105961144D01*
X148090074Y-106149502D01*
X148050300Y-106349461D01*
X147628737Y-106349461D01*
X147692926Y-106194498D01*
X147732700Y-105994539D01*
X147732700Y-105790661D01*
X147692926Y-105590702D01*
X147614905Y-105402344D01*
X147501637Y-105232826D01*
X147357474Y-105088663D01*
X147187956Y-104975395D01*
X146999598Y-104897374D01*
X146799639Y-104857600D01*
X146595761Y-104857600D01*
X146395802Y-104897374D01*
X146207444Y-104975395D01*
X146037926Y-105088663D01*
X145893763Y-105232826D01*
X145780495Y-105402344D01*
X145702474Y-105590702D01*
X145662700Y-105790661D01*
X141201736Y-105790661D01*
X141223100Y-105683260D01*
X141223100Y-105390740D01*
X141166032Y-105103842D01*
X141054090Y-104833589D01*
X140891575Y-104590368D01*
X140684732Y-104383525D01*
X140510340Y-104267000D01*
X140684732Y-104150475D01*
X140699638Y-104135569D01*
X142059992Y-104135569D01*
X142059992Y-104339447D01*
X142099766Y-104539406D01*
X142177787Y-104727764D01*
X142291055Y-104897282D01*
X142435218Y-105041445D01*
X142604736Y-105154713D01*
X142793094Y-105232734D01*
X142993053Y-105272508D01*
X143196931Y-105272508D01*
X143396890Y-105232734D01*
X143585248Y-105154713D01*
X143754766Y-105041445D01*
X143898929Y-104897282D01*
X144012197Y-104727764D01*
X144090218Y-104539406D01*
X144092504Y-104527912D01*
X144103998Y-104525626D01*
X144292356Y-104447605D01*
X144461874Y-104334337D01*
X144606037Y-104190174D01*
X144719305Y-104020656D01*
X144797326Y-103832298D01*
X144837100Y-103632339D01*
X144837100Y-103428461D01*
X144797326Y-103228502D01*
X144719305Y-103040144D01*
X144606037Y-102870626D01*
X144461874Y-102726463D01*
X144292356Y-102613195D01*
X144114348Y-102539461D01*
X145662700Y-102539461D01*
X145662700Y-102743339D01*
X145702474Y-102943298D01*
X145780495Y-103131656D01*
X145893763Y-103301174D01*
X146037926Y-103445337D01*
X146207444Y-103558605D01*
X146395802Y-103636626D01*
X146595761Y-103676400D01*
X146799639Y-103676400D01*
X146999598Y-103636626D01*
X147187956Y-103558605D01*
X147357474Y-103445337D01*
X147501637Y-103301174D01*
X147614905Y-103131656D01*
X147692926Y-102943298D01*
X147732700Y-102743339D01*
X147732700Y-102539461D01*
X147692926Y-102339502D01*
X147628457Y-102183861D01*
X150844300Y-102183861D01*
X150844300Y-102387739D01*
X150884074Y-102587698D01*
X150962095Y-102776056D01*
X151075363Y-102945574D01*
X151219526Y-103089737D01*
X151389044Y-103203005D01*
X151577402Y-103281026D01*
X151777361Y-103320800D01*
X151981239Y-103320800D01*
X152181198Y-103281026D01*
X152369556Y-103203005D01*
X152539074Y-103089737D01*
X152683237Y-102945574D01*
X152796505Y-102776056D01*
X152874526Y-102587698D01*
X152914300Y-102387739D01*
X152914300Y-102183861D01*
X152884591Y-102034501D01*
X152947652Y-101971440D01*
X153060920Y-101801922D01*
X153138941Y-101613564D01*
X153178715Y-101413605D01*
X153178715Y-101209727D01*
X153138941Y-101009768D01*
X153115221Y-100952502D01*
X153279202Y-101020426D01*
X153479161Y-101060200D01*
X153683039Y-101060200D01*
X153882998Y-101020426D01*
X154071356Y-100942405D01*
X154159900Y-100883242D01*
X154133600Y-101015461D01*
X154133600Y-101219339D01*
X154173374Y-101419298D01*
X154251395Y-101607656D01*
X154364663Y-101777174D01*
X154508826Y-101921337D01*
X154678344Y-102034605D01*
X154866702Y-102112626D01*
X155066661Y-102152400D01*
X155270539Y-102152400D01*
X155470498Y-102112626D01*
X155658856Y-102034605D01*
X155828374Y-101921337D01*
X155910093Y-101839618D01*
X156011844Y-101907605D01*
X156200202Y-101985626D01*
X156400161Y-102025400D01*
X156604039Y-102025400D01*
X156803998Y-101985626D01*
X156992356Y-101907605D01*
X157161874Y-101794337D01*
X157306037Y-101650174D01*
X157419305Y-101480656D01*
X157497326Y-101292298D01*
X157537100Y-101092339D01*
X157537100Y-101042642D01*
X157662442Y-101042642D01*
X157662442Y-101246520D01*
X157702216Y-101446479D01*
X157780237Y-101634837D01*
X157893505Y-101804355D01*
X158037668Y-101948518D01*
X158207186Y-102061786D01*
X158395544Y-102139807D01*
X158595503Y-102179581D01*
X158672539Y-102179581D01*
X158685567Y-102245077D01*
X158763588Y-102433435D01*
X158876856Y-102602953D01*
X159021019Y-102747116D01*
X159190537Y-102860384D01*
X159378895Y-102938405D01*
X159578854Y-102978179D01*
X159782732Y-102978179D01*
X159982691Y-102938405D01*
X160171049Y-102860384D01*
X160340567Y-102747116D01*
X160484730Y-102602953D01*
X160597998Y-102433435D01*
X160676019Y-102245077D01*
X160715793Y-102045118D01*
X160715793Y-101841240D01*
X160676019Y-101641281D01*
X160597998Y-101452923D01*
X160484730Y-101283405D01*
X160340567Y-101139242D01*
X160171049Y-101025974D01*
X159982691Y-100947953D01*
X159782732Y-100908179D01*
X159705696Y-100908179D01*
X159692668Y-100842683D01*
X159614647Y-100654325D01*
X159501379Y-100484807D01*
X159357216Y-100340644D01*
X159187698Y-100227376D01*
X158999340Y-100149355D01*
X158799381Y-100109581D01*
X158595503Y-100109581D01*
X158395544Y-100149355D01*
X158207186Y-100227376D01*
X158037668Y-100340644D01*
X157893505Y-100484807D01*
X157780237Y-100654325D01*
X157702216Y-100842683D01*
X157662442Y-101042642D01*
X157537100Y-101042642D01*
X157537100Y-100888461D01*
X157497326Y-100688502D01*
X157419305Y-100500144D01*
X157306037Y-100330626D01*
X157161874Y-100186463D01*
X156992356Y-100073195D01*
X156803998Y-99995174D01*
X156604039Y-99955400D01*
X156400161Y-99955400D01*
X156200202Y-99995174D01*
X156011844Y-100073195D01*
X155842326Y-100186463D01*
X155760607Y-100268182D01*
X155658856Y-100200195D01*
X155470498Y-100122174D01*
X155270539Y-100082400D01*
X155066661Y-100082400D01*
X154866702Y-100122174D01*
X154678344Y-100200195D01*
X154589800Y-100259358D01*
X154616100Y-100127139D01*
X154616100Y-99923261D01*
X154576326Y-99723302D01*
X154498305Y-99534944D01*
X154385037Y-99365426D01*
X154240874Y-99221263D01*
X154071356Y-99107995D01*
X153882998Y-99029974D01*
X153683039Y-98990200D01*
X153479161Y-98990200D01*
X153279202Y-99029974D01*
X153090844Y-99107995D01*
X152921326Y-99221263D01*
X152777163Y-99365426D01*
X152663895Y-99534944D01*
X152585874Y-99723302D01*
X152546100Y-99923261D01*
X152546100Y-100127139D01*
X152585874Y-100327098D01*
X152609594Y-100384364D01*
X152445613Y-100316440D01*
X152245654Y-100276666D01*
X152041776Y-100276666D01*
X151841817Y-100316440D01*
X151653459Y-100394461D01*
X151483941Y-100507729D01*
X151339778Y-100651892D01*
X151226510Y-100821410D01*
X151148489Y-101009768D01*
X151108715Y-101209727D01*
X151108715Y-101413605D01*
X151138424Y-101562965D01*
X151075363Y-101626026D01*
X150962095Y-101795544D01*
X150884074Y-101983902D01*
X150844300Y-102183861D01*
X147628457Y-102183861D01*
X147614905Y-102151144D01*
X147613395Y-102148884D01*
X147763874Y-102048337D01*
X147908037Y-101904174D01*
X148021305Y-101734656D01*
X148099326Y-101546298D01*
X148139100Y-101346339D01*
X148139100Y-101142461D01*
X148099326Y-100942502D01*
X148021305Y-100754144D01*
X147908037Y-100584626D01*
X147763874Y-100440463D01*
X147594356Y-100327195D01*
X147405998Y-100249174D01*
X147206039Y-100209400D01*
X147002161Y-100209400D01*
X146802202Y-100249174D01*
X146613844Y-100327195D01*
X146444326Y-100440463D01*
X146300163Y-100584626D01*
X146186895Y-100754144D01*
X146108874Y-100942502D01*
X146069100Y-101142461D01*
X146069100Y-101346339D01*
X146108874Y-101546298D01*
X146186895Y-101734656D01*
X146188405Y-101736916D01*
X146037926Y-101837463D01*
X145893763Y-101981626D01*
X145780495Y-102151144D01*
X145702474Y-102339502D01*
X145662700Y-102539461D01*
X144114348Y-102539461D01*
X144103998Y-102535174D01*
X143904039Y-102495400D01*
X143700161Y-102495400D01*
X143500202Y-102535174D01*
X143311844Y-102613195D01*
X143142326Y-102726463D01*
X142998163Y-102870626D01*
X142884895Y-103040144D01*
X142806874Y-103228502D01*
X142804588Y-103239996D01*
X142793094Y-103242282D01*
X142604736Y-103320303D01*
X142435218Y-103433571D01*
X142291055Y-103577734D01*
X142177787Y-103747252D01*
X142099766Y-103935610D01*
X142059992Y-104135569D01*
X140699638Y-104135569D01*
X140891575Y-103943632D01*
X141054090Y-103700411D01*
X141166032Y-103430158D01*
X141223100Y-103143260D01*
X141223100Y-102850740D01*
X141166032Y-102563842D01*
X141054090Y-102293589D01*
X140891575Y-102050368D01*
X140684732Y-101843525D01*
X140441511Y-101681010D01*
X140171258Y-101569068D01*
X139884360Y-101512000D01*
X139591840Y-101512000D01*
X139304942Y-101569068D01*
X139034689Y-101681010D01*
X138791468Y-101843525D01*
X138584625Y-102050368D01*
X138422110Y-102293589D01*
X138310168Y-102563842D01*
X138253100Y-102850740D01*
X138253100Y-103143260D01*
X138310168Y-103430158D01*
X138422110Y-103700411D01*
X138584625Y-103943632D01*
X138791468Y-104150475D01*
X138965860Y-104267000D01*
X138791468Y-104383525D01*
X138584625Y-104590368D01*
X138422110Y-104833589D01*
X138310168Y-105103842D01*
X138253100Y-105390740D01*
X138253100Y-105683260D01*
X138310168Y-105970158D01*
X138422110Y-106240411D01*
X138584625Y-106483632D01*
X138791468Y-106690475D01*
X138965860Y-106807000D01*
X138791468Y-106923525D01*
X138584625Y-107130368D01*
X138422110Y-107373589D01*
X138310168Y-107643842D01*
X138253100Y-107930740D01*
X138253100Y-108223260D01*
X138310168Y-108510158D01*
X138422110Y-108780411D01*
X138584625Y-109023632D01*
X138716480Y-109155487D01*
X138643920Y-109177498D01*
X138533606Y-109236463D01*
X138436915Y-109315815D01*
X138357563Y-109412506D01*
X138298598Y-109522820D01*
X138262288Y-109642518D01*
X138250028Y-109767000D01*
X134810100Y-109767000D01*
X134810100Y-91858200D01*
X138250028Y-91858200D01*
X138262288Y-91982682D01*
X138298598Y-92102380D01*
X138357563Y-92212694D01*
X138436915Y-92309385D01*
X138533606Y-92388737D01*
X138643920Y-92447702D01*
X138716480Y-92469713D01*
X138584625Y-92601568D01*
X138422110Y-92844789D01*
X138310168Y-93115042D01*
X138253100Y-93401940D01*
X138253100Y-93694460D01*
X138310168Y-93981358D01*
X138422110Y-94251611D01*
X138584625Y-94494832D01*
X138791468Y-94701675D01*
X138965860Y-94818200D01*
X138791468Y-94934725D01*
X138584625Y-95141568D01*
X138422110Y-95384789D01*
X138310168Y-95655042D01*
X138253100Y-95941940D01*
X138253100Y-96234460D01*
X138310168Y-96521358D01*
X138422110Y-96791611D01*
X138584625Y-97034832D01*
X138791468Y-97241675D01*
X138965860Y-97358200D01*
X138791468Y-97474725D01*
X138584625Y-97681568D01*
X138422110Y-97924789D01*
X138310168Y-98195042D01*
X138253100Y-98481940D01*
X138253100Y-98774460D01*
X138310168Y-99061358D01*
X138422110Y-99331611D01*
X138527894Y-99489928D01*
X138489741Y-99582036D01*
X138449967Y-99781995D01*
X138449967Y-99985873D01*
X138489741Y-100185832D01*
X138567762Y-100374190D01*
X138681030Y-100543708D01*
X138825193Y-100687871D01*
X138994711Y-100801139D01*
X139183069Y-100879160D01*
X139383028Y-100918934D01*
X139586906Y-100918934D01*
X139786865Y-100879160D01*
X139975223Y-100801139D01*
X140144741Y-100687871D01*
X140288904Y-100543708D01*
X140402172Y-100374190D01*
X140480193Y-100185832D01*
X140519967Y-99985873D01*
X140519967Y-99891767D01*
X140684732Y-99781675D01*
X140891575Y-99574832D01*
X140998196Y-99415261D01*
X141547900Y-99415261D01*
X141547900Y-99619139D01*
X141587674Y-99819098D01*
X141665695Y-100007456D01*
X141778963Y-100176974D01*
X141923126Y-100321137D01*
X142092644Y-100434405D01*
X142281002Y-100512426D01*
X142480961Y-100552200D01*
X142684839Y-100552200D01*
X142884798Y-100512426D01*
X143073156Y-100434405D01*
X143242674Y-100321137D01*
X143386837Y-100176974D01*
X143500105Y-100007456D01*
X143578126Y-99819098D01*
X143617900Y-99619139D01*
X143617900Y-99415261D01*
X143578126Y-99215302D01*
X143500105Y-99026944D01*
X143386837Y-98857426D01*
X143242674Y-98713263D01*
X143073156Y-98599995D01*
X142884798Y-98521974D01*
X142684839Y-98482200D01*
X142480961Y-98482200D01*
X142281002Y-98521974D01*
X142092644Y-98599995D01*
X141923126Y-98713263D01*
X141778963Y-98857426D01*
X141665695Y-99026944D01*
X141587674Y-99215302D01*
X141547900Y-99415261D01*
X140998196Y-99415261D01*
X141054090Y-99331611D01*
X141166032Y-99061358D01*
X141223100Y-98774460D01*
X141223100Y-98481940D01*
X141166032Y-98195042D01*
X141054090Y-97924789D01*
X140891575Y-97681568D01*
X140684732Y-97474725D01*
X140510340Y-97358200D01*
X140684732Y-97241675D01*
X140822546Y-97103861D01*
X143783100Y-97103861D01*
X143783100Y-97307739D01*
X143822874Y-97507698D01*
X143900895Y-97696056D01*
X144014163Y-97865574D01*
X144158326Y-98009737D01*
X144327844Y-98123005D01*
X144516202Y-98201026D01*
X144716161Y-98240800D01*
X144920039Y-98240800D01*
X145119998Y-98201026D01*
X145308356Y-98123005D01*
X145477874Y-98009737D01*
X145622037Y-97865574D01*
X145735305Y-97696056D01*
X145813326Y-97507698D01*
X145853100Y-97307739D01*
X145853100Y-97103861D01*
X145848048Y-97078461D01*
X150641100Y-97078461D01*
X150641100Y-97282339D01*
X150680874Y-97482298D01*
X150758895Y-97670656D01*
X150872163Y-97840174D01*
X151016326Y-97984337D01*
X151185844Y-98097605D01*
X151195801Y-98101729D01*
X151195801Y-98114390D01*
X151235575Y-98314349D01*
X151313596Y-98502707D01*
X151426864Y-98672225D01*
X151571027Y-98816388D01*
X151740545Y-98929656D01*
X151928903Y-99007677D01*
X152128862Y-99047451D01*
X152332740Y-99047451D01*
X152532699Y-99007677D01*
X152721057Y-98929656D01*
X152890575Y-98816388D01*
X153034738Y-98672225D01*
X153081352Y-98602461D01*
X159277100Y-98602461D01*
X159277100Y-98806339D01*
X159316874Y-99006298D01*
X159394895Y-99194656D01*
X159508163Y-99364174D01*
X159652326Y-99508337D01*
X159821844Y-99621605D01*
X160010202Y-99699626D01*
X160210161Y-99739400D01*
X160414039Y-99739400D01*
X160613998Y-99699626D01*
X160802356Y-99621605D01*
X160971874Y-99508337D01*
X161116037Y-99364174D01*
X161229305Y-99194656D01*
X161307326Y-99006298D01*
X161347100Y-98806339D01*
X161347100Y-98602461D01*
X161307326Y-98402502D01*
X161229305Y-98214144D01*
X161116037Y-98044626D01*
X160971874Y-97900463D01*
X160802356Y-97787195D01*
X160613998Y-97709174D01*
X160414039Y-97669400D01*
X160210161Y-97669400D01*
X160010202Y-97709174D01*
X159821844Y-97787195D01*
X159652326Y-97900463D01*
X159508163Y-98044626D01*
X159394895Y-98214144D01*
X159316874Y-98402502D01*
X159277100Y-98602461D01*
X153081352Y-98602461D01*
X153148006Y-98502707D01*
X153226027Y-98314349D01*
X153265801Y-98114390D01*
X153265801Y-97910512D01*
X153226027Y-97710553D01*
X153148006Y-97522195D01*
X153034738Y-97352677D01*
X152890575Y-97208514D01*
X152721057Y-97095246D01*
X152711100Y-97091122D01*
X152711100Y-97078461D01*
X152671326Y-96878502D01*
X152593305Y-96690144D01*
X152480037Y-96520626D01*
X152402872Y-96443461D01*
X153460500Y-96443461D01*
X153460500Y-96647339D01*
X153500274Y-96847298D01*
X153578295Y-97035656D01*
X153691563Y-97205174D01*
X153835726Y-97349337D01*
X154005244Y-97462605D01*
X154193602Y-97540626D01*
X154393561Y-97580400D01*
X154597439Y-97580400D01*
X154797398Y-97540626D01*
X154985756Y-97462605D01*
X155155274Y-97349337D01*
X155299437Y-97205174D01*
X155412705Y-97035656D01*
X155490726Y-96847298D01*
X155530500Y-96647339D01*
X155530500Y-96443461D01*
X155490726Y-96243502D01*
X155412705Y-96055144D01*
X155299437Y-95885626D01*
X155155274Y-95741463D01*
X154985756Y-95628195D01*
X154797398Y-95550174D01*
X154597439Y-95510400D01*
X154393561Y-95510400D01*
X154193602Y-95550174D01*
X154005244Y-95628195D01*
X153835726Y-95741463D01*
X153691563Y-95885626D01*
X153578295Y-96055144D01*
X153500274Y-96243502D01*
X153460500Y-96443461D01*
X152402872Y-96443461D01*
X152335874Y-96376463D01*
X152166356Y-96263195D01*
X151977998Y-96185174D01*
X151778039Y-96145400D01*
X151574161Y-96145400D01*
X151374202Y-96185174D01*
X151185844Y-96263195D01*
X151016326Y-96376463D01*
X150872163Y-96520626D01*
X150758895Y-96690144D01*
X150680874Y-96878502D01*
X150641100Y-97078461D01*
X145848048Y-97078461D01*
X145813326Y-96903902D01*
X145735305Y-96715544D01*
X145622037Y-96546026D01*
X145477874Y-96401863D01*
X145308356Y-96288595D01*
X145119998Y-96210574D01*
X144920039Y-96170800D01*
X144716161Y-96170800D01*
X144516202Y-96210574D01*
X144327844Y-96288595D01*
X144158326Y-96401863D01*
X144014163Y-96546026D01*
X143900895Y-96715544D01*
X143822874Y-96903902D01*
X143783100Y-97103861D01*
X140822546Y-97103861D01*
X140891575Y-97034832D01*
X141054090Y-96791611D01*
X141166032Y-96521358D01*
X141223100Y-96234460D01*
X141223100Y-95941940D01*
X141166032Y-95655042D01*
X141054090Y-95384789D01*
X140891575Y-95141568D01*
X140684732Y-94934725D01*
X140510340Y-94818200D01*
X140684732Y-94701675D01*
X140800829Y-94585578D01*
X146495100Y-94585578D01*
X146495100Y-94789456D01*
X146534874Y-94989415D01*
X146612895Y-95177773D01*
X146726163Y-95347291D01*
X146870326Y-95491454D01*
X147039844Y-95604722D01*
X147228202Y-95682743D01*
X147428161Y-95722517D01*
X147632039Y-95722517D01*
X147831998Y-95682743D01*
X148020356Y-95604722D01*
X148189874Y-95491454D01*
X148334037Y-95347291D01*
X148447305Y-95177773D01*
X148501696Y-95046461D01*
X149117100Y-95046461D01*
X149117100Y-95250339D01*
X149156874Y-95450298D01*
X149234895Y-95638656D01*
X149348163Y-95808174D01*
X149492326Y-95952337D01*
X149661844Y-96065605D01*
X149850202Y-96143626D01*
X150050161Y-96183400D01*
X150254039Y-96183400D01*
X150453998Y-96143626D01*
X150642356Y-96065605D01*
X150811874Y-95952337D01*
X150956037Y-95808174D01*
X151069305Y-95638656D01*
X151147326Y-95450298D01*
X151187100Y-95250339D01*
X151187100Y-95046461D01*
X151147326Y-94846502D01*
X151069305Y-94658144D01*
X150956037Y-94488626D01*
X150811874Y-94344463D01*
X150642356Y-94231195D01*
X150453998Y-94153174D01*
X150254039Y-94113400D01*
X150050161Y-94113400D01*
X149850202Y-94153174D01*
X149661844Y-94231195D01*
X149492326Y-94344463D01*
X149348163Y-94488626D01*
X149234895Y-94658144D01*
X149156874Y-94846502D01*
X149117100Y-95046461D01*
X148501696Y-95046461D01*
X148525326Y-94989415D01*
X148565100Y-94789456D01*
X148565100Y-94585578D01*
X148525326Y-94385619D01*
X148447305Y-94197261D01*
X148334037Y-94027743D01*
X148189874Y-93883580D01*
X148020356Y-93770312D01*
X147831998Y-93692291D01*
X147632039Y-93652517D01*
X147428161Y-93652517D01*
X147228202Y-93692291D01*
X147039844Y-93770312D01*
X146870326Y-93883580D01*
X146726163Y-94027743D01*
X146612895Y-94197261D01*
X146534874Y-94385619D01*
X146495100Y-94585578D01*
X140800829Y-94585578D01*
X140891575Y-94494832D01*
X141054090Y-94251611D01*
X141166032Y-93981358D01*
X141223100Y-93694460D01*
X141223100Y-93401940D01*
X141166032Y-93115042D01*
X141061245Y-92862061D01*
X142792500Y-92862061D01*
X142792500Y-93065939D01*
X142832274Y-93265898D01*
X142910295Y-93454256D01*
X143023563Y-93623774D01*
X143167726Y-93767937D01*
X143337244Y-93881205D01*
X143525602Y-93959226D01*
X143725561Y-93999000D01*
X143929439Y-93999000D01*
X144129398Y-93959226D01*
X144317756Y-93881205D01*
X144487274Y-93767937D01*
X144631437Y-93623774D01*
X144744705Y-93454256D01*
X144822726Y-93265898D01*
X144862500Y-93065939D01*
X144862500Y-93014461D01*
X159023100Y-93014461D01*
X159023100Y-93218339D01*
X159062874Y-93418298D01*
X159140895Y-93606656D01*
X159254163Y-93776174D01*
X159398326Y-93920337D01*
X159567844Y-94033605D01*
X159756202Y-94111626D01*
X159956161Y-94151400D01*
X160160039Y-94151400D01*
X160359998Y-94111626D01*
X160548356Y-94033605D01*
X160717874Y-93920337D01*
X160862037Y-93776174D01*
X160975305Y-93606656D01*
X161053326Y-93418298D01*
X161093100Y-93218339D01*
X161093100Y-93014461D01*
X161053326Y-92814502D01*
X160975305Y-92626144D01*
X160862037Y-92456626D01*
X160717874Y-92312463D01*
X160548356Y-92199195D01*
X160359998Y-92121174D01*
X160160039Y-92081400D01*
X159956161Y-92081400D01*
X159756202Y-92121174D01*
X159567844Y-92199195D01*
X159398326Y-92312463D01*
X159254163Y-92456626D01*
X159140895Y-92626144D01*
X159062874Y-92814502D01*
X159023100Y-93014461D01*
X144862500Y-93014461D01*
X144862500Y-92862061D01*
X144822726Y-92662102D01*
X144744705Y-92473744D01*
X144631437Y-92304226D01*
X144487274Y-92160063D01*
X144317756Y-92046795D01*
X144129398Y-91968774D01*
X143929439Y-91929000D01*
X143725561Y-91929000D01*
X143525602Y-91968774D01*
X143337244Y-92046795D01*
X143167726Y-92160063D01*
X143023563Y-92304226D01*
X142910295Y-92473744D01*
X142832274Y-92662102D01*
X142792500Y-92862061D01*
X141061245Y-92862061D01*
X141054090Y-92844789D01*
X140891575Y-92601568D01*
X140759720Y-92469713D01*
X140832280Y-92447702D01*
X140942594Y-92388737D01*
X141039285Y-92309385D01*
X141118637Y-92212694D01*
X141177602Y-92102380D01*
X141213912Y-91982682D01*
X141226172Y-91858200D01*
X141223100Y-91293950D01*
X141064350Y-91135200D01*
X139865100Y-91135200D01*
X139865100Y-91155200D01*
X139611100Y-91155200D01*
X139611100Y-91135200D01*
X138411850Y-91135200D01*
X138253100Y-91293950D01*
X138250028Y-91858200D01*
X134810100Y-91858200D01*
X134810100Y-90158200D01*
X138250028Y-90158200D01*
X138253100Y-90722450D01*
X138411850Y-90881200D01*
X139611100Y-90881200D01*
X139611100Y-89681950D01*
X139865100Y-89681950D01*
X139865100Y-90881200D01*
X141064350Y-90881200D01*
X141223100Y-90722450D01*
X141226041Y-90182114D01*
X143739079Y-90182114D01*
X143739079Y-90385992D01*
X143778853Y-90585951D01*
X143856874Y-90774309D01*
X143970142Y-90943827D01*
X144114305Y-91087990D01*
X144283823Y-91201258D01*
X144472181Y-91279279D01*
X144672140Y-91319053D01*
X144876018Y-91319053D01*
X145075977Y-91279279D01*
X145264335Y-91201258D01*
X145433853Y-91087990D01*
X145578016Y-90943827D01*
X145691284Y-90774309D01*
X145769305Y-90585951D01*
X145776164Y-90551468D01*
X145786202Y-90555626D01*
X145986161Y-90595400D01*
X146190039Y-90595400D01*
X146389998Y-90555626D01*
X146578356Y-90477605D01*
X146747874Y-90364337D01*
X146892037Y-90220174D01*
X147005305Y-90050656D01*
X147083326Y-89862298D01*
X147123100Y-89662339D01*
X147123100Y-89458461D01*
X147083326Y-89258502D01*
X147005305Y-89070144D01*
X146892037Y-88900626D01*
X146747874Y-88756463D01*
X146713449Y-88733461D01*
X151800097Y-88733461D01*
X151800097Y-88937339D01*
X151839871Y-89137298D01*
X151917892Y-89325656D01*
X152031160Y-89495174D01*
X152175323Y-89639337D01*
X152344841Y-89752605D01*
X152533199Y-89830626D01*
X152733158Y-89870400D01*
X152937036Y-89870400D01*
X153136995Y-89830626D01*
X153325353Y-89752605D01*
X153335099Y-89746093D01*
X153344844Y-89752605D01*
X153533202Y-89830626D01*
X153733161Y-89870400D01*
X153937039Y-89870400D01*
X154136998Y-89830626D01*
X154325356Y-89752605D01*
X154494874Y-89639337D01*
X154639037Y-89495174D01*
X154752305Y-89325656D01*
X154830326Y-89137298D01*
X154870100Y-88937339D01*
X154870100Y-88733461D01*
X154830326Y-88533502D01*
X154752305Y-88345144D01*
X154639037Y-88175626D01*
X154494874Y-88031463D01*
X154325356Y-87918195D01*
X154136998Y-87840174D01*
X153937039Y-87800400D01*
X153733161Y-87800400D01*
X153533202Y-87840174D01*
X153344844Y-87918195D01*
X153335099Y-87924707D01*
X153325353Y-87918195D01*
X153136995Y-87840174D01*
X152937036Y-87800400D01*
X152733158Y-87800400D01*
X152533199Y-87840174D01*
X152344841Y-87918195D01*
X152175323Y-88031463D01*
X152031160Y-88175626D01*
X151917892Y-88345144D01*
X151839871Y-88533502D01*
X151800097Y-88733461D01*
X146713449Y-88733461D01*
X146578356Y-88643195D01*
X146389998Y-88565174D01*
X146190039Y-88525400D01*
X145986161Y-88525400D01*
X145786202Y-88565174D01*
X145597844Y-88643195D01*
X145428326Y-88756463D01*
X145284163Y-88900626D01*
X145170895Y-89070144D01*
X145092874Y-89258502D01*
X145086015Y-89292985D01*
X145075977Y-89288827D01*
X144876018Y-89249053D01*
X144672140Y-89249053D01*
X144472181Y-89288827D01*
X144283823Y-89366848D01*
X144114305Y-89480116D01*
X143970142Y-89624279D01*
X143856874Y-89793797D01*
X143778853Y-89982155D01*
X143739079Y-90182114D01*
X141226041Y-90182114D01*
X141226172Y-90158200D01*
X141213912Y-90033718D01*
X141177602Y-89914020D01*
X141118637Y-89803706D01*
X141039285Y-89707015D01*
X140942594Y-89627663D01*
X140832280Y-89568698D01*
X140712582Y-89532388D01*
X140588100Y-89520128D01*
X140023850Y-89523200D01*
X139865100Y-89681950D01*
X139611100Y-89681950D01*
X139452350Y-89523200D01*
X138888100Y-89520128D01*
X138763618Y-89532388D01*
X138643920Y-89568698D01*
X138533606Y-89627663D01*
X138436915Y-89707015D01*
X138357563Y-89803706D01*
X138298598Y-89914020D01*
X138262288Y-90033718D01*
X138250028Y-90158200D01*
X134810100Y-90158200D01*
X134810100Y-85978661D01*
X146018300Y-85978661D01*
X146018300Y-86182539D01*
X146058074Y-86382498D01*
X146136095Y-86570856D01*
X146249363Y-86740374D01*
X146393526Y-86884537D01*
X146563044Y-86997805D01*
X146751402Y-87075826D01*
X146951361Y-87115600D01*
X147155239Y-87115600D01*
X147355198Y-87075826D01*
X147543556Y-86997805D01*
X147713074Y-86884537D01*
X147857237Y-86740374D01*
X147970505Y-86570856D01*
X148048526Y-86382498D01*
X148088300Y-86182539D01*
X148088300Y-85978661D01*
X148048526Y-85778702D01*
X147970505Y-85590344D01*
X147857237Y-85420826D01*
X147713074Y-85276663D01*
X147543556Y-85163395D01*
X147355198Y-85085374D01*
X147155239Y-85045600D01*
X146951361Y-85045600D01*
X146751402Y-85085374D01*
X146563044Y-85163395D01*
X146393526Y-85276663D01*
X146249363Y-85420826D01*
X146136095Y-85590344D01*
X146058074Y-85778702D01*
X146018300Y-85978661D01*
X134810100Y-85978661D01*
X134810100Y-84681491D01*
X134862736Y-84808565D01*
X134976004Y-84978083D01*
X135120167Y-85122246D01*
X135289685Y-85235514D01*
X135478043Y-85313535D01*
X135678002Y-85353309D01*
X135881880Y-85353309D01*
X136081839Y-85313535D01*
X136270197Y-85235514D01*
X136439715Y-85122246D01*
X136583878Y-84978083D01*
X136697146Y-84808565D01*
X136775167Y-84620207D01*
X136814941Y-84420248D01*
X136814941Y-84216370D01*
X136810935Y-84196226D01*
X161074974Y-84196226D01*
X161074974Y-84400104D01*
X161114748Y-84600063D01*
X161192769Y-84788421D01*
X161306037Y-84957939D01*
X161450200Y-85102102D01*
X161619718Y-85215370D01*
X161808076Y-85293391D01*
X162008035Y-85333165D01*
X162211913Y-85333165D01*
X162411872Y-85293391D01*
X162600230Y-85215370D01*
X162769748Y-85102102D01*
X162913911Y-84957939D01*
X163027179Y-84788421D01*
X163105200Y-84600063D01*
X163144974Y-84400104D01*
X163144974Y-84196226D01*
X163105200Y-83996267D01*
X163027179Y-83807909D01*
X162913911Y-83638391D01*
X162769748Y-83494228D01*
X162600230Y-83380960D01*
X162411872Y-83302939D01*
X162211913Y-83263165D01*
X162008035Y-83263165D01*
X161808076Y-83302939D01*
X161619718Y-83380960D01*
X161450200Y-83494228D01*
X161306037Y-83638391D01*
X161192769Y-83807909D01*
X161114748Y-83996267D01*
X161074974Y-84196226D01*
X136810935Y-84196226D01*
X136775167Y-84016411D01*
X136697146Y-83828053D01*
X136583878Y-83658535D01*
X136439715Y-83514372D01*
X136270197Y-83401104D01*
X136081839Y-83323083D01*
X135881880Y-83283309D01*
X135678002Y-83283309D01*
X135478043Y-83323083D01*
X135289685Y-83401104D01*
X135120167Y-83514372D01*
X134976004Y-83658535D01*
X134862736Y-83828053D01*
X134810100Y-83955127D01*
X134810100Y-81324009D01*
X135200097Y-81324009D01*
X135386173Y-81665166D01*
X135803509Y-81880913D01*
X136254915Y-82011096D01*
X136723046Y-82050713D01*
X137189911Y-81998242D01*
X137637568Y-81855697D01*
X137994027Y-81665166D01*
X138180103Y-81324009D01*
X160600097Y-81324009D01*
X160786173Y-81665166D01*
X161203509Y-81880913D01*
X161654915Y-82011096D01*
X162123046Y-82050713D01*
X162589911Y-81998242D01*
X163037568Y-81855697D01*
X163394027Y-81665166D01*
X163580103Y-81324009D01*
X162090100Y-79834005D01*
X160600097Y-81324009D01*
X138180103Y-81324009D01*
X136690100Y-79834005D01*
X135200097Y-81324009D01*
X134810100Y-81324009D01*
X134810100Y-81029650D01*
X135020491Y-81144403D01*
X136510495Y-79654400D01*
X136869705Y-79654400D01*
X138359709Y-81144403D01*
X138700866Y-80958327D01*
X138916613Y-80540991D01*
X139046796Y-80089585D01*
X139080836Y-79687346D01*
X159693787Y-79687346D01*
X159746258Y-80154211D01*
X159888803Y-80601868D01*
X160079334Y-80958327D01*
X160420491Y-81144403D01*
X161910495Y-79654400D01*
X160420491Y-78164397D01*
X160079334Y-78350473D01*
X159863587Y-78767809D01*
X159733404Y-79219215D01*
X159693787Y-79687346D01*
X139080836Y-79687346D01*
X139086413Y-79621454D01*
X139033942Y-79154589D01*
X138891397Y-78706932D01*
X138700866Y-78350473D01*
X138359709Y-78164397D01*
X136869705Y-79654400D01*
X136510495Y-79654400D01*
X136496352Y-79640258D01*
X136675958Y-79460652D01*
X136690100Y-79474795D01*
X138180103Y-77984791D01*
X138065350Y-77774400D01*
X160714850Y-77774400D01*
X160600097Y-77984791D01*
%TA.AperFunction,Conductor*%
D15*
G36*
X160600097Y-77984791D02*
G01*
X162090100Y-79474795D01*
X162104242Y-79460652D01*
X162283848Y-79640258D01*
X162269705Y-79654400D01*
X163759709Y-81144403D01*
X163970100Y-81029650D01*
X163970101Y-120189150D01*
X163759709Y-120074397D01*
X162269705Y-121564400D01*
X162283848Y-121578542D01*
X162104242Y-121758148D01*
X162090100Y-121744005D01*
X160600097Y-123234009D01*
X160714850Y-123444400D01*
X138065350Y-123444400D01*
X138180103Y-123234009D01*
X136690100Y-121744005D01*
X136675958Y-121758148D01*
X136496352Y-121578542D01*
X136510495Y-121564400D01*
X136869705Y-121564400D01*
X138359709Y-123054403D01*
X138700866Y-122868327D01*
X138916613Y-122450991D01*
X139046796Y-121999585D01*
X139086413Y-121531454D01*
X139033942Y-121064589D01*
X138891397Y-120616932D01*
X138800279Y-120446461D01*
X139211100Y-120446461D01*
X139211100Y-120650339D01*
X139250874Y-120850298D01*
X139328895Y-121038656D01*
X139442163Y-121208174D01*
X139586326Y-121352337D01*
X139755844Y-121465605D01*
X139944202Y-121543626D01*
X140144161Y-121583400D01*
X140348039Y-121583400D01*
X140547998Y-121543626D01*
X140736356Y-121465605D01*
X140905874Y-121352337D01*
X141050037Y-121208174D01*
X141163305Y-121038656D01*
X141241326Y-120850298D01*
X141268357Y-120714400D01*
X146632028Y-120714400D01*
X146632028Y-122414400D01*
X146644288Y-122538882D01*
X146680598Y-122658580D01*
X146739563Y-122768894D01*
X146818915Y-122865585D01*
X146915606Y-122944937D01*
X147025920Y-123003902D01*
X147145618Y-123040212D01*
X147270100Y-123052472D01*
X148970100Y-123052472D01*
X149094582Y-123040212D01*
X149214280Y-123003902D01*
X149324594Y-122944937D01*
X149421285Y-122865585D01*
X149500637Y-122768894D01*
X149559602Y-122658580D01*
X149584066Y-122577934D01*
X149659831Y-122661988D01*
X149893180Y-122836041D01*
X150156001Y-122961225D01*
X150303210Y-123005876D01*
X150533100Y-122884555D01*
X150533100Y-121691400D01*
X150787100Y-121691400D01*
X150787100Y-122884555D01*
X151016990Y-123005876D01*
X151164199Y-122961225D01*
X151427020Y-122836041D01*
X151660369Y-122661988D01*
X151855278Y-122445755D01*
X152004257Y-122195652D01*
X152101581Y-121921291D01*
X151980914Y-121691400D01*
X150787100Y-121691400D01*
X150533100Y-121691400D01*
X150513100Y-121691400D01*
X150513100Y-121437400D01*
X150533100Y-121437400D01*
X150533100Y-120244245D01*
X150787100Y-120244245D01*
X150787100Y-121437400D01*
X151980914Y-121437400D01*
X152101081Y-121208461D01*
X156737100Y-121208461D01*
X156737100Y-121412339D01*
X156776874Y-121612298D01*
X156854895Y-121800656D01*
X156968163Y-121970174D01*
X157112326Y-122114337D01*
X157281844Y-122227605D01*
X157470202Y-122305626D01*
X157670161Y-122345400D01*
X157874039Y-122345400D01*
X158073998Y-122305626D01*
X158262356Y-122227605D01*
X158431874Y-122114337D01*
X158576037Y-121970174D01*
X158689305Y-121800656D01*
X158767326Y-121612298D01*
X158770300Y-121597346D01*
X159693787Y-121597346D01*
X159746258Y-122064211D01*
X159888803Y-122511868D01*
X160079334Y-122868327D01*
X160420491Y-123054403D01*
X161910495Y-121564400D01*
X160420491Y-120074397D01*
X160079334Y-120260473D01*
X159863587Y-120677809D01*
X159733404Y-121129215D01*
X159693787Y-121597346D01*
X158770300Y-121597346D01*
X158807100Y-121412339D01*
X158807100Y-121208461D01*
X158767326Y-121008502D01*
X158689305Y-120820144D01*
X158576037Y-120650626D01*
X158431874Y-120506463D01*
X158262356Y-120393195D01*
X158073998Y-120315174D01*
X157874039Y-120275400D01*
X157670161Y-120275400D01*
X157470202Y-120315174D01*
X157281844Y-120393195D01*
X157112326Y-120506463D01*
X156968163Y-120650626D01*
X156854895Y-120820144D01*
X156776874Y-121008502D01*
X156737100Y-121208461D01*
X152101081Y-121208461D01*
X152101581Y-121207509D01*
X152004257Y-120933148D01*
X151855278Y-120683045D01*
X151660369Y-120466812D01*
X151644861Y-120455245D01*
X151666302Y-120464126D01*
X151866261Y-120503900D01*
X152070139Y-120503900D01*
X152270098Y-120464126D01*
X152458456Y-120386105D01*
X152627974Y-120272837D01*
X152772137Y-120128674D01*
X152885405Y-119959156D01*
X152963426Y-119770798D01*
X153003200Y-119570839D01*
X153003200Y-119366961D01*
X152963426Y-119167002D01*
X152885405Y-118978644D01*
X152772137Y-118809126D01*
X152627974Y-118664963D01*
X152458456Y-118551695D01*
X152270098Y-118473674D01*
X152070139Y-118433900D01*
X151866261Y-118433900D01*
X151666302Y-118473674D01*
X151477944Y-118551695D01*
X151308426Y-118664963D01*
X151164263Y-118809126D01*
X151050995Y-118978644D01*
X150972974Y-119167002D01*
X150933200Y-119366961D01*
X150933200Y-119570839D01*
X150972974Y-119770798D01*
X151050995Y-119959156D01*
X151164263Y-120128674D01*
X151238604Y-120203015D01*
X151164199Y-120167575D01*
X151016990Y-120122924D01*
X150787100Y-120244245D01*
X150533100Y-120244245D01*
X150303210Y-120122924D01*
X150156001Y-120167575D01*
X149893180Y-120292759D01*
X149659831Y-120466812D01*
X149584066Y-120550866D01*
X149559602Y-120470220D01*
X149500637Y-120359906D01*
X149421285Y-120263215D01*
X149324594Y-120183863D01*
X149214280Y-120124898D01*
X149094582Y-120088588D01*
X148970100Y-120076328D01*
X147270100Y-120076328D01*
X147145618Y-120088588D01*
X147025920Y-120124898D01*
X146915606Y-120183863D01*
X146818915Y-120263215D01*
X146739563Y-120359906D01*
X146680598Y-120470220D01*
X146644288Y-120589918D01*
X146632028Y-120714400D01*
X141268357Y-120714400D01*
X141281100Y-120650339D01*
X141281100Y-120446461D01*
X141241326Y-120246502D01*
X141163305Y-120058144D01*
X141050037Y-119888626D01*
X140905874Y-119744463D01*
X140736356Y-119631195D01*
X140547998Y-119553174D01*
X140348039Y-119513400D01*
X140144161Y-119513400D01*
X139944202Y-119553174D01*
X139755844Y-119631195D01*
X139586326Y-119744463D01*
X139442163Y-119888626D01*
X139328895Y-120058144D01*
X139250874Y-120246502D01*
X139211100Y-120446461D01*
X138800279Y-120446461D01*
X138700866Y-120260473D01*
X138359709Y-120074397D01*
X136869705Y-121564400D01*
X136510495Y-121564400D01*
X135020491Y-120074397D01*
X134810100Y-120189150D01*
X134810100Y-119894791D01*
X135200097Y-119894791D01*
X136690100Y-121384795D01*
X138180103Y-119894791D01*
X137994027Y-119553634D01*
X137576691Y-119337887D01*
X137125285Y-119207704D01*
X136657154Y-119168087D01*
X136190289Y-119220558D01*
X135742632Y-119363103D01*
X135386173Y-119553634D01*
X135200097Y-119894791D01*
X134810100Y-119894791D01*
X134810100Y-118414461D01*
X160293100Y-118414461D01*
X160293100Y-118618339D01*
X160332874Y-118818298D01*
X160410895Y-119006656D01*
X160524163Y-119176174D01*
X160668326Y-119320337D01*
X160837844Y-119433605D01*
X160935249Y-119473952D01*
X160786173Y-119553634D01*
X160600097Y-119894791D01*
X162090100Y-121384795D01*
X163580103Y-119894791D01*
X163394027Y-119553634D01*
X162976691Y-119337887D01*
X162525285Y-119207704D01*
X162133144Y-119174518D01*
X162245305Y-119006656D01*
X162323326Y-118818298D01*
X162363100Y-118618339D01*
X162363100Y-118414461D01*
X162323326Y-118214502D01*
X162245305Y-118026144D01*
X162132037Y-117856626D01*
X161987874Y-117712463D01*
X161818356Y-117599195D01*
X161629998Y-117521174D01*
X161430039Y-117481400D01*
X161226161Y-117481400D01*
X161026202Y-117521174D01*
X160837844Y-117599195D01*
X160668326Y-117712463D01*
X160524163Y-117856626D01*
X160410895Y-118026144D01*
X160332874Y-118214502D01*
X160293100Y-118414461D01*
X134810100Y-118414461D01*
X134810100Y-116382461D01*
X143325900Y-116382461D01*
X143325900Y-116586339D01*
X143365674Y-116786298D01*
X143443695Y-116974656D01*
X143556963Y-117144174D01*
X143701126Y-117288337D01*
X143870644Y-117401605D01*
X144059002Y-117479626D01*
X144258961Y-117519400D01*
X144462839Y-117519400D01*
X144662798Y-117479626D01*
X144851156Y-117401605D01*
X145020674Y-117288337D01*
X145164837Y-117144174D01*
X145278105Y-116974656D01*
X145356126Y-116786298D01*
X145395900Y-116586339D01*
X145395900Y-116382461D01*
X145356126Y-116182502D01*
X145278105Y-115994144D01*
X145164837Y-115824626D01*
X145020674Y-115680463D01*
X144851156Y-115567195D01*
X144662798Y-115489174D01*
X144462839Y-115449400D01*
X144258961Y-115449400D01*
X144059002Y-115489174D01*
X143870644Y-115567195D01*
X143701126Y-115680463D01*
X143556963Y-115824626D01*
X143443695Y-115994144D01*
X143365674Y-116182502D01*
X143325900Y-116382461D01*
X134810100Y-116382461D01*
X134810100Y-111467000D01*
X138250028Y-111467000D01*
X138262288Y-111591482D01*
X138298598Y-111711180D01*
X138357563Y-111821494D01*
X138436915Y-111918185D01*
X138533606Y-111997537D01*
X138643920Y-112056502D01*
X138763618Y-112092812D01*
X138888100Y-112105072D01*
X139452350Y-112102000D01*
X139611100Y-111943250D01*
X139611100Y-110744000D01*
X139865100Y-110744000D01*
X139865100Y-111943250D01*
X140023850Y-112102000D01*
X140588100Y-112105072D01*
X140712582Y-112092812D01*
X140806042Y-112064461D01*
X142513100Y-112064461D01*
X142513100Y-112268339D01*
X142552874Y-112468298D01*
X142630895Y-112656656D01*
X142744163Y-112826174D01*
X142888326Y-112970337D01*
X143057844Y-113083605D01*
X143246202Y-113161626D01*
X143446161Y-113201400D01*
X143650039Y-113201400D01*
X143849998Y-113161626D01*
X144038356Y-113083605D01*
X144207874Y-112970337D01*
X144300950Y-112877261D01*
X148863100Y-112877261D01*
X148863100Y-113081139D01*
X148902874Y-113281098D01*
X148980895Y-113469456D01*
X149094163Y-113638974D01*
X149238326Y-113783137D01*
X149407844Y-113896405D01*
X149596202Y-113974426D01*
X149796161Y-114014200D01*
X150000039Y-114014200D01*
X150199998Y-113974426D01*
X150388356Y-113896405D01*
X150557874Y-113783137D01*
X150600150Y-113740861D01*
X153409700Y-113740861D01*
X153409700Y-113944739D01*
X153449474Y-114144698D01*
X153527495Y-114333056D01*
X153640763Y-114502574D01*
X153784926Y-114646737D01*
X153954444Y-114760005D01*
X154142802Y-114838026D01*
X154342761Y-114877800D01*
X154546639Y-114877800D01*
X154746598Y-114838026D01*
X154934956Y-114760005D01*
X155104474Y-114646737D01*
X155248637Y-114502574D01*
X155361905Y-114333056D01*
X155439926Y-114144698D01*
X155479700Y-113944739D01*
X155479700Y-113740861D01*
X155439926Y-113540902D01*
X155361905Y-113352544D01*
X155248637Y-113183026D01*
X155104474Y-113038863D01*
X154934956Y-112925595D01*
X154746598Y-112847574D01*
X154546639Y-112807800D01*
X154342761Y-112807800D01*
X154142802Y-112847574D01*
X153954444Y-112925595D01*
X153784926Y-113038863D01*
X153640763Y-113183026D01*
X153527495Y-113352544D01*
X153449474Y-113540902D01*
X153409700Y-113740861D01*
X150600150Y-113740861D01*
X150702037Y-113638974D01*
X150815305Y-113469456D01*
X150893326Y-113281098D01*
X150933100Y-113081139D01*
X150933100Y-112877261D01*
X150893326Y-112677302D01*
X150815305Y-112488944D01*
X150702037Y-112319426D01*
X150557874Y-112175263D01*
X150388356Y-112061995D01*
X150199998Y-111983974D01*
X150000039Y-111944200D01*
X149796161Y-111944200D01*
X149596202Y-111983974D01*
X149407844Y-112061995D01*
X149238326Y-112175263D01*
X149094163Y-112319426D01*
X148980895Y-112488944D01*
X148902874Y-112677302D01*
X148863100Y-112877261D01*
X144300950Y-112877261D01*
X144352037Y-112826174D01*
X144465305Y-112656656D01*
X144543326Y-112468298D01*
X144583100Y-112268339D01*
X144583100Y-112064461D01*
X144543326Y-111864502D01*
X144465305Y-111676144D01*
X144352037Y-111506626D01*
X144207874Y-111362463D01*
X144038356Y-111249195D01*
X143849998Y-111171174D01*
X143650039Y-111131400D01*
X143446161Y-111131400D01*
X143246202Y-111171174D01*
X143057844Y-111249195D01*
X142888326Y-111362463D01*
X142744163Y-111506626D01*
X142630895Y-111676144D01*
X142552874Y-111864502D01*
X142513100Y-112064461D01*
X140806042Y-112064461D01*
X140832280Y-112056502D01*
X140942594Y-111997537D01*
X141039285Y-111918185D01*
X141118637Y-111821494D01*
X141177602Y-111711180D01*
X141213912Y-111591482D01*
X141226172Y-111467000D01*
X141223100Y-110902750D01*
X141064350Y-110744000D01*
X139865100Y-110744000D01*
X139611100Y-110744000D01*
X138411850Y-110744000D01*
X138253100Y-110902750D01*
X138250028Y-111467000D01*
X134810100Y-111467000D01*
X134810100Y-109767000D01*
X138250028Y-109767000D01*
X138253100Y-110331250D01*
X138411850Y-110490000D01*
X139611100Y-110490000D01*
X139611100Y-110470000D01*
X139865100Y-110470000D01*
X139865100Y-110490000D01*
X140786113Y-110490000D01*
X140858602Y-110520026D01*
X141058561Y-110559800D01*
X141262439Y-110559800D01*
X141462398Y-110520026D01*
X141502389Y-110503461D01*
X147047000Y-110503461D01*
X147047000Y-110707339D01*
X147086774Y-110907298D01*
X147164795Y-111095656D01*
X147278063Y-111265174D01*
X147422226Y-111409337D01*
X147591744Y-111522605D01*
X147780102Y-111600626D01*
X147980061Y-111640400D01*
X148183939Y-111640400D01*
X148383898Y-111600626D01*
X148490520Y-111556461D01*
X153651000Y-111556461D01*
X153651000Y-111760339D01*
X153690774Y-111960298D01*
X153768795Y-112148656D01*
X153882063Y-112318174D01*
X154026226Y-112462337D01*
X154195744Y-112575605D01*
X154384102Y-112653626D01*
X154584061Y-112693400D01*
X154787939Y-112693400D01*
X154987898Y-112653626D01*
X155176256Y-112575605D01*
X155345774Y-112462337D01*
X155489937Y-112318174D01*
X155603205Y-112148656D01*
X155681226Y-111960298D01*
X155721000Y-111760339D01*
X155721000Y-111556461D01*
X155708370Y-111492961D01*
X157791200Y-111492961D01*
X157791200Y-111696839D01*
X157830974Y-111896798D01*
X157908995Y-112085156D01*
X158022263Y-112254674D01*
X158166426Y-112398837D01*
X158335944Y-112512105D01*
X158524302Y-112590126D01*
X158724261Y-112629900D01*
X158928139Y-112629900D01*
X159128098Y-112590126D01*
X159316456Y-112512105D01*
X159485974Y-112398837D01*
X159630137Y-112254674D01*
X159743405Y-112085156D01*
X159821426Y-111896798D01*
X159861200Y-111696839D01*
X159861200Y-111492961D01*
X159821426Y-111293002D01*
X159743405Y-111104644D01*
X159630137Y-110935126D01*
X159485974Y-110790963D01*
X159316456Y-110677695D01*
X159128098Y-110599674D01*
X158928139Y-110559900D01*
X158724261Y-110559900D01*
X158524302Y-110599674D01*
X158335944Y-110677695D01*
X158166426Y-110790963D01*
X158022263Y-110935126D01*
X157908995Y-111104644D01*
X157830974Y-111293002D01*
X157791200Y-111492961D01*
X155708370Y-111492961D01*
X155681226Y-111356502D01*
X155603205Y-111168144D01*
X155489937Y-110998626D01*
X155345774Y-110854463D01*
X155176256Y-110741195D01*
X154987898Y-110663174D01*
X154787939Y-110623400D01*
X154584061Y-110623400D01*
X154384102Y-110663174D01*
X154195744Y-110741195D01*
X154026226Y-110854463D01*
X153882063Y-110998626D01*
X153768795Y-111168144D01*
X153690774Y-111356502D01*
X153651000Y-111556461D01*
X148490520Y-111556461D01*
X148572256Y-111522605D01*
X148741774Y-111409337D01*
X148885937Y-111265174D01*
X148999205Y-111095656D01*
X149077226Y-110907298D01*
X149083882Y-110873837D01*
X149088202Y-110875626D01*
X149288161Y-110915400D01*
X149492039Y-110915400D01*
X149691998Y-110875626D01*
X149880356Y-110797605D01*
X150049874Y-110684337D01*
X150194037Y-110540174D01*
X150307305Y-110370656D01*
X150377600Y-110200950D01*
X150447895Y-110370656D01*
X150561163Y-110540174D01*
X150705326Y-110684337D01*
X150874844Y-110797605D01*
X151063202Y-110875626D01*
X151263161Y-110915400D01*
X151467039Y-110915400D01*
X151666998Y-110875626D01*
X151855356Y-110797605D01*
X152024874Y-110684337D01*
X152169037Y-110540174D01*
X152207807Y-110482150D01*
X152368315Y-110482150D01*
X152568274Y-110442376D01*
X152756632Y-110364355D01*
X152926150Y-110251087D01*
X153070313Y-110106924D01*
X153183581Y-109937406D01*
X153261602Y-109749048D01*
X153301376Y-109549089D01*
X153301376Y-109345211D01*
X153261602Y-109145252D01*
X153239818Y-109092661D01*
X154171700Y-109092661D01*
X154171700Y-109296539D01*
X154211474Y-109496498D01*
X154289495Y-109684856D01*
X154402763Y-109854374D01*
X154546926Y-109998537D01*
X154716444Y-110111805D01*
X154904802Y-110189826D01*
X155104761Y-110229600D01*
X155308639Y-110229600D01*
X155508598Y-110189826D01*
X155696956Y-110111805D01*
X155866474Y-109998537D01*
X156010637Y-109854374D01*
X156123905Y-109684856D01*
X156201926Y-109496498D01*
X156241700Y-109296539D01*
X156241700Y-109168861D01*
X157016500Y-109168861D01*
X157016500Y-109372739D01*
X157056274Y-109572698D01*
X157134295Y-109761056D01*
X157247563Y-109930574D01*
X157391726Y-110074737D01*
X157561244Y-110188005D01*
X157749602Y-110266026D01*
X157949561Y-110305800D01*
X158153439Y-110305800D01*
X158353398Y-110266026D01*
X158541756Y-110188005D01*
X158711274Y-110074737D01*
X158855437Y-109930574D01*
X158968705Y-109761056D01*
X159046726Y-109572698D01*
X159086500Y-109372739D01*
X159086500Y-109168861D01*
X159046726Y-108968902D01*
X158968705Y-108780544D01*
X158855437Y-108611026D01*
X158711274Y-108466863D01*
X158541756Y-108353595D01*
X158353398Y-108275574D01*
X158153439Y-108235800D01*
X157949561Y-108235800D01*
X157749602Y-108275574D01*
X157561244Y-108353595D01*
X157391726Y-108466863D01*
X157247563Y-108611026D01*
X157134295Y-108780544D01*
X157056274Y-108968902D01*
X157016500Y-109168861D01*
X156241700Y-109168861D01*
X156241700Y-109092661D01*
X156201926Y-108892702D01*
X156123905Y-108704344D01*
X156010637Y-108534826D01*
X155866474Y-108390663D01*
X155696956Y-108277395D01*
X155508598Y-108199374D01*
X155308639Y-108159600D01*
X155104761Y-108159600D01*
X154904802Y-108199374D01*
X154716444Y-108277395D01*
X154546926Y-108390663D01*
X154402763Y-108534826D01*
X154289495Y-108704344D01*
X154211474Y-108892702D01*
X154171700Y-109092661D01*
X153239818Y-109092661D01*
X153183581Y-108956894D01*
X153070313Y-108787376D01*
X152926150Y-108643213D01*
X152756632Y-108529945D01*
X152568274Y-108451924D01*
X152368315Y-108412150D01*
X152164437Y-108412150D01*
X151964478Y-108451924D01*
X151776120Y-108529945D01*
X151606602Y-108643213D01*
X151462439Y-108787376D01*
X151423669Y-108845400D01*
X151263161Y-108845400D01*
X151063202Y-108885174D01*
X150874844Y-108963195D01*
X150705326Y-109076463D01*
X150561163Y-109220626D01*
X150447895Y-109390144D01*
X150377600Y-109559850D01*
X150307305Y-109390144D01*
X150194037Y-109220626D01*
X150049874Y-109076463D01*
X149880356Y-108963195D01*
X149691998Y-108885174D01*
X149492039Y-108845400D01*
X149288161Y-108845400D01*
X149088202Y-108885174D01*
X148899844Y-108963195D01*
X148730326Y-109076463D01*
X148586163Y-109220626D01*
X148472895Y-109390144D01*
X148394874Y-109578502D01*
X148388218Y-109611963D01*
X148383898Y-109610174D01*
X148183939Y-109570400D01*
X147980061Y-109570400D01*
X147780102Y-109610174D01*
X147591744Y-109688195D01*
X147422226Y-109801463D01*
X147278063Y-109945626D01*
X147164795Y-110115144D01*
X147086774Y-110303502D01*
X147047000Y-110503461D01*
X141502389Y-110503461D01*
X141650756Y-110442005D01*
X141820274Y-110328737D01*
X141964437Y-110184574D01*
X142077705Y-110015056D01*
X142155726Y-109826698D01*
X142195500Y-109626739D01*
X142195500Y-109422861D01*
X142155726Y-109222902D01*
X142077705Y-109034544D01*
X141964437Y-108865026D01*
X141820274Y-108720863D01*
X141650756Y-108607595D01*
X141628705Y-108598461D01*
X143300500Y-108598461D01*
X143300500Y-108802339D01*
X143340274Y-109002298D01*
X143418295Y-109190656D01*
X143531563Y-109360174D01*
X143675726Y-109504337D01*
X143845244Y-109617605D01*
X144033602Y-109695626D01*
X144233561Y-109735400D01*
X144437439Y-109735400D01*
X144637398Y-109695626D01*
X144825756Y-109617605D01*
X144995274Y-109504337D01*
X145139437Y-109360174D01*
X145252705Y-109190656D01*
X145330726Y-109002298D01*
X145370500Y-108802339D01*
X145370500Y-108598461D01*
X145330726Y-108398502D01*
X145252705Y-108210144D01*
X145139437Y-108040626D01*
X144995274Y-107896463D01*
X144825756Y-107783195D01*
X144637398Y-107705174D01*
X144437439Y-107665400D01*
X144233561Y-107665400D01*
X144033602Y-107705174D01*
X143845244Y-107783195D01*
X143675726Y-107896463D01*
X143531563Y-108040626D01*
X143418295Y-108210144D01*
X143340274Y-108398502D01*
X143300500Y-108598461D01*
X141628705Y-108598461D01*
X141462398Y-108529574D01*
X141262439Y-108489800D01*
X141170081Y-108489800D01*
X141223100Y-108223260D01*
X141223100Y-107930740D01*
X141166032Y-107643842D01*
X141103329Y-107492461D01*
X152330200Y-107492461D01*
X152330200Y-107696339D01*
X152369974Y-107896298D01*
X152447995Y-108084656D01*
X152561263Y-108254174D01*
X152705426Y-108398337D01*
X152874944Y-108511605D01*
X153063302Y-108589626D01*
X153263261Y-108629400D01*
X153467139Y-108629400D01*
X153667098Y-108589626D01*
X153855456Y-108511605D01*
X154024974Y-108398337D01*
X154169137Y-108254174D01*
X154275017Y-108095713D01*
X154286800Y-108098057D01*
X154490678Y-108098057D01*
X154690637Y-108058283D01*
X154878995Y-107980262D01*
X155048513Y-107866994D01*
X155192676Y-107722831D01*
X155305944Y-107553313D01*
X155383965Y-107364955D01*
X155423739Y-107164996D01*
X155423739Y-106961118D01*
X155383965Y-106761159D01*
X155305944Y-106572801D01*
X155192676Y-106403283D01*
X155048513Y-106259120D01*
X154953256Y-106195471D01*
X155322810Y-106195471D01*
X155322810Y-106399349D01*
X155362584Y-106599308D01*
X155440605Y-106787666D01*
X155553873Y-106957184D01*
X155698036Y-107101347D01*
X155867554Y-107214615D01*
X156055912Y-107292636D01*
X156255871Y-107332410D01*
X156459749Y-107332410D01*
X156659708Y-107292636D01*
X156848066Y-107214615D01*
X157017584Y-107101347D01*
X157079928Y-107039003D01*
X157134295Y-107170256D01*
X157247563Y-107339774D01*
X157391726Y-107483937D01*
X157561244Y-107597205D01*
X157749602Y-107675226D01*
X157949561Y-107715000D01*
X158153439Y-107715000D01*
X158353398Y-107675226D01*
X158541756Y-107597205D01*
X158711274Y-107483937D01*
X158855437Y-107339774D01*
X158968705Y-107170256D01*
X159046726Y-106981898D01*
X159086500Y-106781939D01*
X159086500Y-106578061D01*
X159046726Y-106378102D01*
X158968705Y-106189744D01*
X158855437Y-106020226D01*
X158711274Y-105876063D01*
X158541756Y-105762795D01*
X158353398Y-105684774D01*
X158153439Y-105645000D01*
X157949561Y-105645000D01*
X157749602Y-105684774D01*
X157561244Y-105762795D01*
X157391726Y-105876063D01*
X157329382Y-105938407D01*
X157275015Y-105807154D01*
X157161747Y-105637636D01*
X157017584Y-105493473D01*
X156848066Y-105380205D01*
X156659708Y-105302184D01*
X156459749Y-105262410D01*
X156255871Y-105262410D01*
X156055912Y-105302184D01*
X155867554Y-105380205D01*
X155698036Y-105493473D01*
X155553873Y-105637636D01*
X155440605Y-105807154D01*
X155362584Y-105995512D01*
X155322810Y-106195471D01*
X154953256Y-106195471D01*
X154878995Y-106145852D01*
X154690637Y-106067831D01*
X154490678Y-106028057D01*
X154286800Y-106028057D01*
X154086841Y-106067831D01*
X153898483Y-106145852D01*
X153728965Y-106259120D01*
X153584802Y-106403283D01*
X153478922Y-106561744D01*
X153467139Y-106559400D01*
X153263261Y-106559400D01*
X153063302Y-106599174D01*
X152874944Y-106677195D01*
X152705426Y-106790463D01*
X152561263Y-106934626D01*
X152447995Y-107104144D01*
X152369974Y-107292502D01*
X152330200Y-107492461D01*
X141103329Y-107492461D01*
X141054090Y-107373589D01*
X140891575Y-107130368D01*
X140684732Y-106923525D01*
X140510340Y-106807000D01*
X140684732Y-106690475D01*
X140891575Y-106483632D01*
X141054090Y-106240411D01*
X141166032Y-105970158D01*
X141201736Y-105790661D01*
X145662700Y-105790661D01*
X145662700Y-105994539D01*
X145702474Y-106194498D01*
X145780495Y-106382856D01*
X145893763Y-106552374D01*
X146037926Y-106696537D01*
X146207444Y-106809805D01*
X146395802Y-106887826D01*
X146595761Y-106927600D01*
X146799639Y-106927600D01*
X146999598Y-106887826D01*
X147187956Y-106809805D01*
X147357474Y-106696537D01*
X147501637Y-106552374D01*
X147614905Y-106382856D01*
X147628737Y-106349461D01*
X148050300Y-106349461D01*
X148050300Y-106553339D01*
X148090074Y-106753298D01*
X148168095Y-106941656D01*
X148281363Y-107111174D01*
X148425526Y-107255337D01*
X148595044Y-107368605D01*
X148783402Y-107446626D01*
X148983361Y-107486400D01*
X149187239Y-107486400D01*
X149387198Y-107446626D01*
X149575556Y-107368605D01*
X149745074Y-107255337D01*
X149889237Y-107111174D01*
X150002505Y-106941656D01*
X150080526Y-106753298D01*
X150120300Y-106553339D01*
X150120300Y-106349461D01*
X150080526Y-106149502D01*
X150002505Y-105961144D01*
X149889237Y-105791626D01*
X149888272Y-105790661D01*
X150793500Y-105790661D01*
X150793500Y-105994539D01*
X150833274Y-106194498D01*
X150911295Y-106382856D01*
X151024563Y-106552374D01*
X151168726Y-106696537D01*
X151338244Y-106809805D01*
X151526602Y-106887826D01*
X151726561Y-106927600D01*
X151930439Y-106927600D01*
X152130398Y-106887826D01*
X152318756Y-106809805D01*
X152488274Y-106696537D01*
X152632437Y-106552374D01*
X152745705Y-106382856D01*
X152823726Y-106194498D01*
X152863500Y-105994539D01*
X152863500Y-105790661D01*
X152823726Y-105590702D01*
X152745705Y-105402344D01*
X152632437Y-105232826D01*
X152488274Y-105088663D01*
X152318756Y-104975395D01*
X152130398Y-104897374D01*
X151930439Y-104857600D01*
X151726561Y-104857600D01*
X151526602Y-104897374D01*
X151338244Y-104975395D01*
X151168726Y-105088663D01*
X151024563Y-105232826D01*
X150911295Y-105402344D01*
X150833274Y-105590702D01*
X150793500Y-105790661D01*
X149888272Y-105790661D01*
X149745074Y-105647463D01*
X149575556Y-105534195D01*
X149387198Y-105456174D01*
X149187239Y-105416400D01*
X148983361Y-105416400D01*
X148783402Y-105456174D01*
X148595044Y-105534195D01*
X148425526Y-105647463D01*
X148281363Y-105791626D01*
X148168095Y-105961144D01*
X148090074Y-106149502D01*
X148050300Y-106349461D01*
X147628737Y-106349461D01*
X147692926Y-106194498D01*
X147732700Y-105994539D01*
X147732700Y-105790661D01*
X147692926Y-105590702D01*
X147614905Y-105402344D01*
X147501637Y-105232826D01*
X147357474Y-105088663D01*
X147187956Y-104975395D01*
X146999598Y-104897374D01*
X146799639Y-104857600D01*
X146595761Y-104857600D01*
X146395802Y-104897374D01*
X146207444Y-104975395D01*
X146037926Y-105088663D01*
X145893763Y-105232826D01*
X145780495Y-105402344D01*
X145702474Y-105590702D01*
X145662700Y-105790661D01*
X141201736Y-105790661D01*
X141223100Y-105683260D01*
X141223100Y-105390740D01*
X141166032Y-105103842D01*
X141054090Y-104833589D01*
X140891575Y-104590368D01*
X140684732Y-104383525D01*
X140510340Y-104267000D01*
X140684732Y-104150475D01*
X140699638Y-104135569D01*
X142059992Y-104135569D01*
X142059992Y-104339447D01*
X142099766Y-104539406D01*
X142177787Y-104727764D01*
X142291055Y-104897282D01*
X142435218Y-105041445D01*
X142604736Y-105154713D01*
X142793094Y-105232734D01*
X142993053Y-105272508D01*
X143196931Y-105272508D01*
X143396890Y-105232734D01*
X143585248Y-105154713D01*
X143754766Y-105041445D01*
X143898929Y-104897282D01*
X144012197Y-104727764D01*
X144090218Y-104539406D01*
X144092504Y-104527912D01*
X144103998Y-104525626D01*
X144292356Y-104447605D01*
X144461874Y-104334337D01*
X144606037Y-104190174D01*
X144719305Y-104020656D01*
X144797326Y-103832298D01*
X144837100Y-103632339D01*
X144837100Y-103428461D01*
X144797326Y-103228502D01*
X144719305Y-103040144D01*
X144606037Y-102870626D01*
X144461874Y-102726463D01*
X144292356Y-102613195D01*
X144114348Y-102539461D01*
X145662700Y-102539461D01*
X145662700Y-102743339D01*
X145702474Y-102943298D01*
X145780495Y-103131656D01*
X145893763Y-103301174D01*
X146037926Y-103445337D01*
X146207444Y-103558605D01*
X146395802Y-103636626D01*
X146595761Y-103676400D01*
X146799639Y-103676400D01*
X146999598Y-103636626D01*
X147187956Y-103558605D01*
X147357474Y-103445337D01*
X147501637Y-103301174D01*
X147614905Y-103131656D01*
X147692926Y-102943298D01*
X147732700Y-102743339D01*
X147732700Y-102539461D01*
X147692926Y-102339502D01*
X147628457Y-102183861D01*
X150844300Y-102183861D01*
X150844300Y-102387739D01*
X150884074Y-102587698D01*
X150962095Y-102776056D01*
X151075363Y-102945574D01*
X151219526Y-103089737D01*
X151389044Y-103203005D01*
X151577402Y-103281026D01*
X151777361Y-103320800D01*
X151981239Y-103320800D01*
X152181198Y-103281026D01*
X152369556Y-103203005D01*
X152539074Y-103089737D01*
X152683237Y-102945574D01*
X152796505Y-102776056D01*
X152874526Y-102587698D01*
X152914300Y-102387739D01*
X152914300Y-102183861D01*
X152884591Y-102034501D01*
X152947652Y-101971440D01*
X153060920Y-101801922D01*
X153138941Y-101613564D01*
X153178715Y-101413605D01*
X153178715Y-101209727D01*
X153138941Y-101009768D01*
X153115221Y-100952502D01*
X153279202Y-101020426D01*
X153479161Y-101060200D01*
X153683039Y-101060200D01*
X153882998Y-101020426D01*
X154071356Y-100942405D01*
X154159900Y-100883242D01*
X154133600Y-101015461D01*
X154133600Y-101219339D01*
X154173374Y-101419298D01*
X154251395Y-101607656D01*
X154364663Y-101777174D01*
X154508826Y-101921337D01*
X154678344Y-102034605D01*
X154866702Y-102112626D01*
X155066661Y-102152400D01*
X155270539Y-102152400D01*
X155470498Y-102112626D01*
X155658856Y-102034605D01*
X155828374Y-101921337D01*
X155910093Y-101839618D01*
X156011844Y-101907605D01*
X156200202Y-101985626D01*
X156400161Y-102025400D01*
X156604039Y-102025400D01*
X156803998Y-101985626D01*
X156992356Y-101907605D01*
X157161874Y-101794337D01*
X157306037Y-101650174D01*
X157419305Y-101480656D01*
X157497326Y-101292298D01*
X157537100Y-101092339D01*
X157537100Y-101042642D01*
X157662442Y-101042642D01*
X157662442Y-101246520D01*
X157702216Y-101446479D01*
X157780237Y-101634837D01*
X157893505Y-101804355D01*
X158037668Y-101948518D01*
X158207186Y-102061786D01*
X158395544Y-102139807D01*
X158595503Y-102179581D01*
X158672539Y-102179581D01*
X158685567Y-102245077D01*
X158763588Y-102433435D01*
X158876856Y-102602953D01*
X159021019Y-102747116D01*
X159190537Y-102860384D01*
X159378895Y-102938405D01*
X159578854Y-102978179D01*
X159782732Y-102978179D01*
X159982691Y-102938405D01*
X160171049Y-102860384D01*
X160340567Y-102747116D01*
X160484730Y-102602953D01*
X160597998Y-102433435D01*
X160676019Y-102245077D01*
X160715793Y-102045118D01*
X160715793Y-101841240D01*
X160676019Y-101641281D01*
X160597998Y-101452923D01*
X160484730Y-101283405D01*
X160340567Y-101139242D01*
X160171049Y-101025974D01*
X159982691Y-100947953D01*
X159782732Y-100908179D01*
X159705696Y-100908179D01*
X159692668Y-100842683D01*
X159614647Y-100654325D01*
X159501379Y-100484807D01*
X159357216Y-100340644D01*
X159187698Y-100227376D01*
X158999340Y-100149355D01*
X158799381Y-100109581D01*
X158595503Y-100109581D01*
X158395544Y-100149355D01*
X158207186Y-100227376D01*
X158037668Y-100340644D01*
X157893505Y-100484807D01*
X157780237Y-100654325D01*
X157702216Y-100842683D01*
X157662442Y-101042642D01*
X157537100Y-101042642D01*
X157537100Y-100888461D01*
X157497326Y-100688502D01*
X157419305Y-100500144D01*
X157306037Y-100330626D01*
X157161874Y-100186463D01*
X156992356Y-100073195D01*
X156803998Y-99995174D01*
X156604039Y-99955400D01*
X156400161Y-99955400D01*
X156200202Y-99995174D01*
X156011844Y-100073195D01*
X155842326Y-100186463D01*
X155760607Y-100268182D01*
X155658856Y-100200195D01*
X155470498Y-100122174D01*
X155270539Y-100082400D01*
X155066661Y-100082400D01*
X154866702Y-100122174D01*
X154678344Y-100200195D01*
X154589800Y-100259358D01*
X154616100Y-100127139D01*
X154616100Y-99923261D01*
X154576326Y-99723302D01*
X154498305Y-99534944D01*
X154385037Y-99365426D01*
X154240874Y-99221263D01*
X154071356Y-99107995D01*
X153882998Y-99029974D01*
X153683039Y-98990200D01*
X153479161Y-98990200D01*
X153279202Y-99029974D01*
X153090844Y-99107995D01*
X152921326Y-99221263D01*
X152777163Y-99365426D01*
X152663895Y-99534944D01*
X152585874Y-99723302D01*
X152546100Y-99923261D01*
X152546100Y-100127139D01*
X152585874Y-100327098D01*
X152609594Y-100384364D01*
X152445613Y-100316440D01*
X152245654Y-100276666D01*
X152041776Y-100276666D01*
X151841817Y-100316440D01*
X151653459Y-100394461D01*
X151483941Y-100507729D01*
X151339778Y-100651892D01*
X151226510Y-100821410D01*
X151148489Y-101009768D01*
X151108715Y-101209727D01*
X151108715Y-101413605D01*
X151138424Y-101562965D01*
X151075363Y-101626026D01*
X150962095Y-101795544D01*
X150884074Y-101983902D01*
X150844300Y-102183861D01*
X147628457Y-102183861D01*
X147614905Y-102151144D01*
X147613395Y-102148884D01*
X147763874Y-102048337D01*
X147908037Y-101904174D01*
X148021305Y-101734656D01*
X148099326Y-101546298D01*
X148139100Y-101346339D01*
X148139100Y-101142461D01*
X148099326Y-100942502D01*
X148021305Y-100754144D01*
X147908037Y-100584626D01*
X147763874Y-100440463D01*
X147594356Y-100327195D01*
X147405998Y-100249174D01*
X147206039Y-100209400D01*
X147002161Y-100209400D01*
X146802202Y-100249174D01*
X146613844Y-100327195D01*
X146444326Y-100440463D01*
X146300163Y-100584626D01*
X146186895Y-100754144D01*
X146108874Y-100942502D01*
X146069100Y-101142461D01*
X146069100Y-101346339D01*
X146108874Y-101546298D01*
X146186895Y-101734656D01*
X146188405Y-101736916D01*
X146037926Y-101837463D01*
X145893763Y-101981626D01*
X145780495Y-102151144D01*
X145702474Y-102339502D01*
X145662700Y-102539461D01*
X144114348Y-102539461D01*
X144103998Y-102535174D01*
X143904039Y-102495400D01*
X143700161Y-102495400D01*
X143500202Y-102535174D01*
X143311844Y-102613195D01*
X143142326Y-102726463D01*
X142998163Y-102870626D01*
X142884895Y-103040144D01*
X142806874Y-103228502D01*
X142804588Y-103239996D01*
X142793094Y-103242282D01*
X142604736Y-103320303D01*
X142435218Y-103433571D01*
X142291055Y-103577734D01*
X142177787Y-103747252D01*
X142099766Y-103935610D01*
X142059992Y-104135569D01*
X140699638Y-104135569D01*
X140891575Y-103943632D01*
X141054090Y-103700411D01*
X141166032Y-103430158D01*
X141223100Y-103143260D01*
X141223100Y-102850740D01*
X141166032Y-102563842D01*
X141054090Y-102293589D01*
X140891575Y-102050368D01*
X140684732Y-101843525D01*
X140441511Y-101681010D01*
X140171258Y-101569068D01*
X139884360Y-101512000D01*
X139591840Y-101512000D01*
X139304942Y-101569068D01*
X139034689Y-101681010D01*
X138791468Y-101843525D01*
X138584625Y-102050368D01*
X138422110Y-102293589D01*
X138310168Y-102563842D01*
X138253100Y-102850740D01*
X138253100Y-103143260D01*
X138310168Y-103430158D01*
X138422110Y-103700411D01*
X138584625Y-103943632D01*
X138791468Y-104150475D01*
X138965860Y-104267000D01*
X138791468Y-104383525D01*
X138584625Y-104590368D01*
X138422110Y-104833589D01*
X138310168Y-105103842D01*
X138253100Y-105390740D01*
X138253100Y-105683260D01*
X138310168Y-105970158D01*
X138422110Y-106240411D01*
X138584625Y-106483632D01*
X138791468Y-106690475D01*
X138965860Y-106807000D01*
X138791468Y-106923525D01*
X138584625Y-107130368D01*
X138422110Y-107373589D01*
X138310168Y-107643842D01*
X138253100Y-107930740D01*
X138253100Y-108223260D01*
X138310168Y-108510158D01*
X138422110Y-108780411D01*
X138584625Y-109023632D01*
X138716480Y-109155487D01*
X138643920Y-109177498D01*
X138533606Y-109236463D01*
X138436915Y-109315815D01*
X138357563Y-109412506D01*
X138298598Y-109522820D01*
X138262288Y-109642518D01*
X138250028Y-109767000D01*
X134810100Y-109767000D01*
X134810100Y-91858200D01*
X138250028Y-91858200D01*
X138262288Y-91982682D01*
X138298598Y-92102380D01*
X138357563Y-92212694D01*
X138436915Y-92309385D01*
X138533606Y-92388737D01*
X138643920Y-92447702D01*
X138716480Y-92469713D01*
X138584625Y-92601568D01*
X138422110Y-92844789D01*
X138310168Y-93115042D01*
X138253100Y-93401940D01*
X138253100Y-93694460D01*
X138310168Y-93981358D01*
X138422110Y-94251611D01*
X138584625Y-94494832D01*
X138791468Y-94701675D01*
X138965860Y-94818200D01*
X138791468Y-94934725D01*
X138584625Y-95141568D01*
X138422110Y-95384789D01*
X138310168Y-95655042D01*
X138253100Y-95941940D01*
X138253100Y-96234460D01*
X138310168Y-96521358D01*
X138422110Y-96791611D01*
X138584625Y-97034832D01*
X138791468Y-97241675D01*
X138965860Y-97358200D01*
X138791468Y-97474725D01*
X138584625Y-97681568D01*
X138422110Y-97924789D01*
X138310168Y-98195042D01*
X138253100Y-98481940D01*
X138253100Y-98774460D01*
X138310168Y-99061358D01*
X138422110Y-99331611D01*
X138527894Y-99489928D01*
X138489741Y-99582036D01*
X138449967Y-99781995D01*
X138449967Y-99985873D01*
X138489741Y-100185832D01*
X138567762Y-100374190D01*
X138681030Y-100543708D01*
X138825193Y-100687871D01*
X138994711Y-100801139D01*
X139183069Y-100879160D01*
X139383028Y-100918934D01*
X139586906Y-100918934D01*
X139786865Y-100879160D01*
X139975223Y-100801139D01*
X140144741Y-100687871D01*
X140288904Y-100543708D01*
X140402172Y-100374190D01*
X140480193Y-100185832D01*
X140519967Y-99985873D01*
X140519967Y-99891767D01*
X140684732Y-99781675D01*
X140891575Y-99574832D01*
X140998196Y-99415261D01*
X141547900Y-99415261D01*
X141547900Y-99619139D01*
X141587674Y-99819098D01*
X141665695Y-100007456D01*
X141778963Y-100176974D01*
X141923126Y-100321137D01*
X142092644Y-100434405D01*
X142281002Y-100512426D01*
X142480961Y-100552200D01*
X142684839Y-100552200D01*
X142884798Y-100512426D01*
X143073156Y-100434405D01*
X143242674Y-100321137D01*
X143386837Y-100176974D01*
X143500105Y-100007456D01*
X143578126Y-99819098D01*
X143617900Y-99619139D01*
X143617900Y-99415261D01*
X143578126Y-99215302D01*
X143500105Y-99026944D01*
X143386837Y-98857426D01*
X143242674Y-98713263D01*
X143073156Y-98599995D01*
X142884798Y-98521974D01*
X142684839Y-98482200D01*
X142480961Y-98482200D01*
X142281002Y-98521974D01*
X142092644Y-98599995D01*
X141923126Y-98713263D01*
X141778963Y-98857426D01*
X141665695Y-99026944D01*
X141587674Y-99215302D01*
X141547900Y-99415261D01*
X140998196Y-99415261D01*
X141054090Y-99331611D01*
X141166032Y-99061358D01*
X141223100Y-98774460D01*
X141223100Y-98481940D01*
X141166032Y-98195042D01*
X141054090Y-97924789D01*
X140891575Y-97681568D01*
X140684732Y-97474725D01*
X140510340Y-97358200D01*
X140684732Y-97241675D01*
X140822546Y-97103861D01*
X143783100Y-97103861D01*
X143783100Y-97307739D01*
X143822874Y-97507698D01*
X143900895Y-97696056D01*
X144014163Y-97865574D01*
X144158326Y-98009737D01*
X144327844Y-98123005D01*
X144516202Y-98201026D01*
X144716161Y-98240800D01*
X144920039Y-98240800D01*
X145119998Y-98201026D01*
X145308356Y-98123005D01*
X145477874Y-98009737D01*
X145622037Y-97865574D01*
X145735305Y-97696056D01*
X145813326Y-97507698D01*
X145853100Y-97307739D01*
X145853100Y-97103861D01*
X145848048Y-97078461D01*
X150641100Y-97078461D01*
X150641100Y-97282339D01*
X150680874Y-97482298D01*
X150758895Y-97670656D01*
X150872163Y-97840174D01*
X151016326Y-97984337D01*
X151185844Y-98097605D01*
X151195801Y-98101729D01*
X151195801Y-98114390D01*
X151235575Y-98314349D01*
X151313596Y-98502707D01*
X151426864Y-98672225D01*
X151571027Y-98816388D01*
X151740545Y-98929656D01*
X151928903Y-99007677D01*
X152128862Y-99047451D01*
X152332740Y-99047451D01*
X152532699Y-99007677D01*
X152721057Y-98929656D01*
X152890575Y-98816388D01*
X153034738Y-98672225D01*
X153081352Y-98602461D01*
X159277100Y-98602461D01*
X159277100Y-98806339D01*
X159316874Y-99006298D01*
X159394895Y-99194656D01*
X159508163Y-99364174D01*
X159652326Y-99508337D01*
X159821844Y-99621605D01*
X160010202Y-99699626D01*
X160210161Y-99739400D01*
X160414039Y-99739400D01*
X160613998Y-99699626D01*
X160802356Y-99621605D01*
X160971874Y-99508337D01*
X161116037Y-99364174D01*
X161229305Y-99194656D01*
X161307326Y-99006298D01*
X161347100Y-98806339D01*
X161347100Y-98602461D01*
X161307326Y-98402502D01*
X161229305Y-98214144D01*
X161116037Y-98044626D01*
X160971874Y-97900463D01*
X160802356Y-97787195D01*
X160613998Y-97709174D01*
X160414039Y-97669400D01*
X160210161Y-97669400D01*
X160010202Y-97709174D01*
X159821844Y-97787195D01*
X159652326Y-97900463D01*
X159508163Y-98044626D01*
X159394895Y-98214144D01*
X159316874Y-98402502D01*
X159277100Y-98602461D01*
X153081352Y-98602461D01*
X153148006Y-98502707D01*
X153226027Y-98314349D01*
X153265801Y-98114390D01*
X153265801Y-97910512D01*
X153226027Y-97710553D01*
X153148006Y-97522195D01*
X153034738Y-97352677D01*
X152890575Y-97208514D01*
X152721057Y-97095246D01*
X152711100Y-97091122D01*
X152711100Y-97078461D01*
X152671326Y-96878502D01*
X152593305Y-96690144D01*
X152480037Y-96520626D01*
X152402872Y-96443461D01*
X153460500Y-96443461D01*
X153460500Y-96647339D01*
X153500274Y-96847298D01*
X153578295Y-97035656D01*
X153691563Y-97205174D01*
X153835726Y-97349337D01*
X154005244Y-97462605D01*
X154193602Y-97540626D01*
X154393561Y-97580400D01*
X154597439Y-97580400D01*
X154797398Y-97540626D01*
X154985756Y-97462605D01*
X155155274Y-97349337D01*
X155299437Y-97205174D01*
X155412705Y-97035656D01*
X155490726Y-96847298D01*
X155530500Y-96647339D01*
X155530500Y-96443461D01*
X155490726Y-96243502D01*
X155412705Y-96055144D01*
X155299437Y-95885626D01*
X155155274Y-95741463D01*
X154985756Y-95628195D01*
X154797398Y-95550174D01*
X154597439Y-95510400D01*
X154393561Y-95510400D01*
X154193602Y-95550174D01*
X154005244Y-95628195D01*
X153835726Y-95741463D01*
X153691563Y-95885626D01*
X153578295Y-96055144D01*
X153500274Y-96243502D01*
X153460500Y-96443461D01*
X152402872Y-96443461D01*
X152335874Y-96376463D01*
X152166356Y-96263195D01*
X151977998Y-96185174D01*
X151778039Y-96145400D01*
X151574161Y-96145400D01*
X151374202Y-96185174D01*
X151185844Y-96263195D01*
X151016326Y-96376463D01*
X150872163Y-96520626D01*
X150758895Y-96690144D01*
X150680874Y-96878502D01*
X150641100Y-97078461D01*
X145848048Y-97078461D01*
X145813326Y-96903902D01*
X145735305Y-96715544D01*
X145622037Y-96546026D01*
X145477874Y-96401863D01*
X145308356Y-96288595D01*
X145119998Y-96210574D01*
X144920039Y-96170800D01*
X144716161Y-96170800D01*
X144516202Y-96210574D01*
X144327844Y-96288595D01*
X144158326Y-96401863D01*
X144014163Y-96546026D01*
X143900895Y-96715544D01*
X143822874Y-96903902D01*
X143783100Y-97103861D01*
X140822546Y-97103861D01*
X140891575Y-97034832D01*
X141054090Y-96791611D01*
X141166032Y-96521358D01*
X141223100Y-96234460D01*
X141223100Y-95941940D01*
X141166032Y-95655042D01*
X141054090Y-95384789D01*
X140891575Y-95141568D01*
X140684732Y-94934725D01*
X140510340Y-94818200D01*
X140684732Y-94701675D01*
X140800829Y-94585578D01*
X146495100Y-94585578D01*
X146495100Y-94789456D01*
X146534874Y-94989415D01*
X146612895Y-95177773D01*
X146726163Y-95347291D01*
X146870326Y-95491454D01*
X147039844Y-95604722D01*
X147228202Y-95682743D01*
X147428161Y-95722517D01*
X147632039Y-95722517D01*
X147831998Y-95682743D01*
X148020356Y-95604722D01*
X148189874Y-95491454D01*
X148334037Y-95347291D01*
X148447305Y-95177773D01*
X148501696Y-95046461D01*
X149117100Y-95046461D01*
X149117100Y-95250339D01*
X149156874Y-95450298D01*
X149234895Y-95638656D01*
X149348163Y-95808174D01*
X149492326Y-95952337D01*
X149661844Y-96065605D01*
X149850202Y-96143626D01*
X150050161Y-96183400D01*
X150254039Y-96183400D01*
X150453998Y-96143626D01*
X150642356Y-96065605D01*
X150811874Y-95952337D01*
X150956037Y-95808174D01*
X151069305Y-95638656D01*
X151147326Y-95450298D01*
X151187100Y-95250339D01*
X151187100Y-95046461D01*
X151147326Y-94846502D01*
X151069305Y-94658144D01*
X150956037Y-94488626D01*
X150811874Y-94344463D01*
X150642356Y-94231195D01*
X150453998Y-94153174D01*
X150254039Y-94113400D01*
X150050161Y-94113400D01*
X149850202Y-94153174D01*
X149661844Y-94231195D01*
X149492326Y-94344463D01*
X149348163Y-94488626D01*
X149234895Y-94658144D01*
X149156874Y-94846502D01*
X149117100Y-95046461D01*
X148501696Y-95046461D01*
X148525326Y-94989415D01*
X148565100Y-94789456D01*
X148565100Y-94585578D01*
X148525326Y-94385619D01*
X148447305Y-94197261D01*
X148334037Y-94027743D01*
X148189874Y-93883580D01*
X148020356Y-93770312D01*
X147831998Y-93692291D01*
X147632039Y-93652517D01*
X147428161Y-93652517D01*
X147228202Y-93692291D01*
X147039844Y-93770312D01*
X146870326Y-93883580D01*
X146726163Y-94027743D01*
X146612895Y-94197261D01*
X146534874Y-94385619D01*
X146495100Y-94585578D01*
X140800829Y-94585578D01*
X140891575Y-94494832D01*
X141054090Y-94251611D01*
X141166032Y-93981358D01*
X141223100Y-93694460D01*
X141223100Y-93401940D01*
X141166032Y-93115042D01*
X141061245Y-92862061D01*
X142792500Y-92862061D01*
X142792500Y-93065939D01*
X142832274Y-93265898D01*
X142910295Y-93454256D01*
X143023563Y-93623774D01*
X143167726Y-93767937D01*
X143337244Y-93881205D01*
X143525602Y-93959226D01*
X143725561Y-93999000D01*
X143929439Y-93999000D01*
X144129398Y-93959226D01*
X144317756Y-93881205D01*
X144487274Y-93767937D01*
X144631437Y-93623774D01*
X144744705Y-93454256D01*
X144822726Y-93265898D01*
X144862500Y-93065939D01*
X144862500Y-93014461D01*
X159023100Y-93014461D01*
X159023100Y-93218339D01*
X159062874Y-93418298D01*
X159140895Y-93606656D01*
X159254163Y-93776174D01*
X159398326Y-93920337D01*
X159567844Y-94033605D01*
X159756202Y-94111626D01*
X159956161Y-94151400D01*
X160160039Y-94151400D01*
X160359998Y-94111626D01*
X160548356Y-94033605D01*
X160717874Y-93920337D01*
X160862037Y-93776174D01*
X160975305Y-93606656D01*
X161053326Y-93418298D01*
X161093100Y-93218339D01*
X161093100Y-93014461D01*
X161053326Y-92814502D01*
X160975305Y-92626144D01*
X160862037Y-92456626D01*
X160717874Y-92312463D01*
X160548356Y-92199195D01*
X160359998Y-92121174D01*
X160160039Y-92081400D01*
X159956161Y-92081400D01*
X159756202Y-92121174D01*
X159567844Y-92199195D01*
X159398326Y-92312463D01*
X159254163Y-92456626D01*
X159140895Y-92626144D01*
X159062874Y-92814502D01*
X159023100Y-93014461D01*
X144862500Y-93014461D01*
X144862500Y-92862061D01*
X144822726Y-92662102D01*
X144744705Y-92473744D01*
X144631437Y-92304226D01*
X144487274Y-92160063D01*
X144317756Y-92046795D01*
X144129398Y-91968774D01*
X143929439Y-91929000D01*
X143725561Y-91929000D01*
X143525602Y-91968774D01*
X143337244Y-92046795D01*
X143167726Y-92160063D01*
X143023563Y-92304226D01*
X142910295Y-92473744D01*
X142832274Y-92662102D01*
X142792500Y-92862061D01*
X141061245Y-92862061D01*
X141054090Y-92844789D01*
X140891575Y-92601568D01*
X140759720Y-92469713D01*
X140832280Y-92447702D01*
X140942594Y-92388737D01*
X141039285Y-92309385D01*
X141118637Y-92212694D01*
X141177602Y-92102380D01*
X141213912Y-91982682D01*
X141226172Y-91858200D01*
X141223100Y-91293950D01*
X141064350Y-91135200D01*
X139865100Y-91135200D01*
X139865100Y-91155200D01*
X139611100Y-91155200D01*
X139611100Y-91135200D01*
X138411850Y-91135200D01*
X138253100Y-91293950D01*
X138250028Y-91858200D01*
X134810100Y-91858200D01*
X134810100Y-90158200D01*
X138250028Y-90158200D01*
X138253100Y-90722450D01*
X138411850Y-90881200D01*
X139611100Y-90881200D01*
X139611100Y-89681950D01*
X139865100Y-89681950D01*
X139865100Y-90881200D01*
X141064350Y-90881200D01*
X141223100Y-90722450D01*
X141226041Y-90182114D01*
X143739079Y-90182114D01*
X143739079Y-90385992D01*
X143778853Y-90585951D01*
X143856874Y-90774309D01*
X143970142Y-90943827D01*
X144114305Y-91087990D01*
X144283823Y-91201258D01*
X144472181Y-91279279D01*
X144672140Y-91319053D01*
X144876018Y-91319053D01*
X145075977Y-91279279D01*
X145264335Y-91201258D01*
X145433853Y-91087990D01*
X145578016Y-90943827D01*
X145691284Y-90774309D01*
X145769305Y-90585951D01*
X145776164Y-90551468D01*
X145786202Y-90555626D01*
X145986161Y-90595400D01*
X146190039Y-90595400D01*
X146389998Y-90555626D01*
X146578356Y-90477605D01*
X146747874Y-90364337D01*
X146892037Y-90220174D01*
X147005305Y-90050656D01*
X147083326Y-89862298D01*
X147123100Y-89662339D01*
X147123100Y-89458461D01*
X147083326Y-89258502D01*
X147005305Y-89070144D01*
X146892037Y-88900626D01*
X146747874Y-88756463D01*
X146713449Y-88733461D01*
X151800097Y-88733461D01*
X151800097Y-88937339D01*
X151839871Y-89137298D01*
X151917892Y-89325656D01*
X152031160Y-89495174D01*
X152175323Y-89639337D01*
X152344841Y-89752605D01*
X152533199Y-89830626D01*
X152733158Y-89870400D01*
X152937036Y-89870400D01*
X153136995Y-89830626D01*
X153325353Y-89752605D01*
X153335099Y-89746093D01*
X153344844Y-89752605D01*
X153533202Y-89830626D01*
X153733161Y-89870400D01*
X153937039Y-89870400D01*
X154136998Y-89830626D01*
X154325356Y-89752605D01*
X154494874Y-89639337D01*
X154639037Y-89495174D01*
X154752305Y-89325656D01*
X154830326Y-89137298D01*
X154870100Y-88937339D01*
X154870100Y-88733461D01*
X154830326Y-88533502D01*
X154752305Y-88345144D01*
X154639037Y-88175626D01*
X154494874Y-88031463D01*
X154325356Y-87918195D01*
X154136998Y-87840174D01*
X153937039Y-87800400D01*
X153733161Y-87800400D01*
X153533202Y-87840174D01*
X153344844Y-87918195D01*
X153335099Y-87924707D01*
X153325353Y-87918195D01*
X153136995Y-87840174D01*
X152937036Y-87800400D01*
X152733158Y-87800400D01*
X152533199Y-87840174D01*
X152344841Y-87918195D01*
X152175323Y-88031463D01*
X152031160Y-88175626D01*
X151917892Y-88345144D01*
X151839871Y-88533502D01*
X151800097Y-88733461D01*
X146713449Y-88733461D01*
X146578356Y-88643195D01*
X146389998Y-88565174D01*
X146190039Y-88525400D01*
X145986161Y-88525400D01*
X145786202Y-88565174D01*
X145597844Y-88643195D01*
X145428326Y-88756463D01*
X145284163Y-88900626D01*
X145170895Y-89070144D01*
X145092874Y-89258502D01*
X145086015Y-89292985D01*
X145075977Y-89288827D01*
X144876018Y-89249053D01*
X144672140Y-89249053D01*
X144472181Y-89288827D01*
X144283823Y-89366848D01*
X144114305Y-89480116D01*
X143970142Y-89624279D01*
X143856874Y-89793797D01*
X143778853Y-89982155D01*
X143739079Y-90182114D01*
X141226041Y-90182114D01*
X141226172Y-90158200D01*
X141213912Y-90033718D01*
X141177602Y-89914020D01*
X141118637Y-89803706D01*
X141039285Y-89707015D01*
X140942594Y-89627663D01*
X140832280Y-89568698D01*
X140712582Y-89532388D01*
X140588100Y-89520128D01*
X140023850Y-89523200D01*
X139865100Y-89681950D01*
X139611100Y-89681950D01*
X139452350Y-89523200D01*
X138888100Y-89520128D01*
X138763618Y-89532388D01*
X138643920Y-89568698D01*
X138533606Y-89627663D01*
X138436915Y-89707015D01*
X138357563Y-89803706D01*
X138298598Y-89914020D01*
X138262288Y-90033718D01*
X138250028Y-90158200D01*
X134810100Y-90158200D01*
X134810100Y-85978661D01*
X146018300Y-85978661D01*
X146018300Y-86182539D01*
X146058074Y-86382498D01*
X146136095Y-86570856D01*
X146249363Y-86740374D01*
X146393526Y-86884537D01*
X146563044Y-86997805D01*
X146751402Y-87075826D01*
X146951361Y-87115600D01*
X147155239Y-87115600D01*
X147355198Y-87075826D01*
X147543556Y-86997805D01*
X147713074Y-86884537D01*
X147857237Y-86740374D01*
X147970505Y-86570856D01*
X148048526Y-86382498D01*
X148088300Y-86182539D01*
X148088300Y-85978661D01*
X148048526Y-85778702D01*
X147970505Y-85590344D01*
X147857237Y-85420826D01*
X147713074Y-85276663D01*
X147543556Y-85163395D01*
X147355198Y-85085374D01*
X147155239Y-85045600D01*
X146951361Y-85045600D01*
X146751402Y-85085374D01*
X146563044Y-85163395D01*
X146393526Y-85276663D01*
X146249363Y-85420826D01*
X146136095Y-85590344D01*
X146058074Y-85778702D01*
X146018300Y-85978661D01*
X134810100Y-85978661D01*
X134810100Y-84681491D01*
X134862736Y-84808565D01*
X134976004Y-84978083D01*
X135120167Y-85122246D01*
X135289685Y-85235514D01*
X135478043Y-85313535D01*
X135678002Y-85353309D01*
X135881880Y-85353309D01*
X136081839Y-85313535D01*
X136270197Y-85235514D01*
X136439715Y-85122246D01*
X136583878Y-84978083D01*
X136697146Y-84808565D01*
X136775167Y-84620207D01*
X136814941Y-84420248D01*
X136814941Y-84216370D01*
X136810935Y-84196226D01*
X161074974Y-84196226D01*
X161074974Y-84400104D01*
X161114748Y-84600063D01*
X161192769Y-84788421D01*
X161306037Y-84957939D01*
X161450200Y-85102102D01*
X161619718Y-85215370D01*
X161808076Y-85293391D01*
X162008035Y-85333165D01*
X162211913Y-85333165D01*
X162411872Y-85293391D01*
X162600230Y-85215370D01*
X162769748Y-85102102D01*
X162913911Y-84957939D01*
X163027179Y-84788421D01*
X163105200Y-84600063D01*
X163144974Y-84400104D01*
X163144974Y-84196226D01*
X163105200Y-83996267D01*
X163027179Y-83807909D01*
X162913911Y-83638391D01*
X162769748Y-83494228D01*
X162600230Y-83380960D01*
X162411872Y-83302939D01*
X162211913Y-83263165D01*
X162008035Y-83263165D01*
X161808076Y-83302939D01*
X161619718Y-83380960D01*
X161450200Y-83494228D01*
X161306037Y-83638391D01*
X161192769Y-83807909D01*
X161114748Y-83996267D01*
X161074974Y-84196226D01*
X136810935Y-84196226D01*
X136775167Y-84016411D01*
X136697146Y-83828053D01*
X136583878Y-83658535D01*
X136439715Y-83514372D01*
X136270197Y-83401104D01*
X136081839Y-83323083D01*
X135881880Y-83283309D01*
X135678002Y-83283309D01*
X135478043Y-83323083D01*
X135289685Y-83401104D01*
X135120167Y-83514372D01*
X134976004Y-83658535D01*
X134862736Y-83828053D01*
X134810100Y-83955127D01*
X134810100Y-81324009D01*
X135200097Y-81324009D01*
X135386173Y-81665166D01*
X135803509Y-81880913D01*
X136254915Y-82011096D01*
X136723046Y-82050713D01*
X137189911Y-81998242D01*
X137637568Y-81855697D01*
X137994027Y-81665166D01*
X138180103Y-81324009D01*
X160600097Y-81324009D01*
X160786173Y-81665166D01*
X161203509Y-81880913D01*
X161654915Y-82011096D01*
X162123046Y-82050713D01*
X162589911Y-81998242D01*
X163037568Y-81855697D01*
X163394027Y-81665166D01*
X163580103Y-81324009D01*
X162090100Y-79834005D01*
X160600097Y-81324009D01*
X138180103Y-81324009D01*
X136690100Y-79834005D01*
X135200097Y-81324009D01*
X134810100Y-81324009D01*
X134810100Y-81029650D01*
X135020491Y-81144403D01*
X136510495Y-79654400D01*
X136869705Y-79654400D01*
X138359709Y-81144403D01*
X138700866Y-80958327D01*
X138916613Y-80540991D01*
X139046796Y-80089585D01*
X139080836Y-79687346D01*
X159693787Y-79687346D01*
X159746258Y-80154211D01*
X159888803Y-80601868D01*
X160079334Y-80958327D01*
X160420491Y-81144403D01*
X161910495Y-79654400D01*
X160420491Y-78164397D01*
X160079334Y-78350473D01*
X159863587Y-78767809D01*
X159733404Y-79219215D01*
X159693787Y-79687346D01*
X139080836Y-79687346D01*
X139086413Y-79621454D01*
X139033942Y-79154589D01*
X138891397Y-78706932D01*
X138700866Y-78350473D01*
X138359709Y-78164397D01*
X136869705Y-79654400D01*
X136510495Y-79654400D01*
X136496352Y-79640258D01*
X136675958Y-79460652D01*
X136690100Y-79474795D01*
X138180103Y-77984791D01*
X138065350Y-77774400D01*
X160714850Y-77774400D01*
X160600097Y-77984791D01*
G37*
%TD.AperFunction*%
%TD*%
M02*
