%TF.GenerationSoftware,KiCad,Pcbnew,(5.1.9)-1*%
%TF.CreationDate,2021-03-06T18:52:22-05:00*%
%TF.ProjectId,final_design_v2,66696e61-6c5f-4646-9573-69676e5f7632,rev?*%
%TF.SameCoordinates,Original*%
%TF.FileFunction,Soldermask,Top*%
%TF.FilePolarity,Negative*%
%FSLAX46Y46*%
G04 Gerber Fmt 4.6, Leading zero omitted, Abs format (unit mm)*
G04 Created by KiCad (PCBNEW (5.1.9)-1) date 2021-03-06 18:52:22*
%MOMM*%
%LPD*%
G01*
G04 APERTURE LIST*
%ADD10R,1.000000X2.000000*%
%ADD11C,3.500000*%
%ADD12R,1.700000X1.700000*%
%ADD13O,1.700000X1.700000*%
%ADD14R,2.500000X2.500000*%
%ADD15R,0.800000X0.900000*%
%ADD16R,0.900000X0.800000*%
%ADD17R,0.350000X0.380000*%
%ADD18R,0.900000X1.300000*%
%ADD19C,0.100000*%
%ADD20R,1.800000X1.000000*%
%ADD21R,1.600000X1.300000*%
G04 APERTURE END LIST*
D10*
%TO.C,U4*%
X144990100Y-93002600D03*
X146260100Y-93002600D03*
X147530100Y-93002600D03*
X148800100Y-93002600D03*
X150070100Y-93002600D03*
X151340100Y-93002600D03*
X152610100Y-93002600D03*
X153880100Y-93002600D03*
%TD*%
D11*
%TO.C,H4*%
X162090100Y-121564400D03*
%TD*%
%TO.C,C19*%
G36*
G01*
X138039300Y-83150700D02*
X138039300Y-83625700D01*
G75*
G02*
X137801800Y-83863200I-237500J0D01*
G01*
X137201800Y-83863200D01*
G75*
G02*
X136964300Y-83625700I0J237500D01*
G01*
X136964300Y-83150700D01*
G75*
G02*
X137201800Y-82913200I237500J0D01*
G01*
X137801800Y-82913200D01*
G75*
G02*
X138039300Y-83150700I0J-237500D01*
G01*
G37*
G36*
G01*
X136314300Y-83150700D02*
X136314300Y-83625700D01*
G75*
G02*
X136076800Y-83863200I-237500J0D01*
G01*
X135476800Y-83863200D01*
G75*
G02*
X135239300Y-83625700I0J237500D01*
G01*
X135239300Y-83150700D01*
G75*
G02*
X135476800Y-82913200I237500J0D01*
G01*
X136076800Y-82913200D01*
G75*
G02*
X136314300Y-83150700I0J-237500D01*
G01*
G37*
%TD*%
%TO.C,C20*%
G36*
G01*
X160690100Y-83651100D02*
X160690100Y-83176100D01*
G75*
G02*
X160927600Y-82938600I237500J0D01*
G01*
X161527600Y-82938600D01*
G75*
G02*
X161765100Y-83176100I0J-237500D01*
G01*
X161765100Y-83651100D01*
G75*
G02*
X161527600Y-83888600I-237500J0D01*
G01*
X160927600Y-83888600D01*
G75*
G02*
X160690100Y-83651100I0J237500D01*
G01*
G37*
G36*
G01*
X162415100Y-83651100D02*
X162415100Y-83176100D01*
G75*
G02*
X162652600Y-82938600I237500J0D01*
G01*
X163252600Y-82938600D01*
G75*
G02*
X163490100Y-83176100I0J-237500D01*
G01*
X163490100Y-83651100D01*
G75*
G02*
X163252600Y-83888600I-237500J0D01*
G01*
X162652600Y-83888600D01*
G75*
G02*
X162415100Y-83651100I0J237500D01*
G01*
G37*
%TD*%
%TO.C,C22*%
G36*
G01*
X148187400Y-115539400D02*
X148662400Y-115539400D01*
G75*
G02*
X148899900Y-115776900I0J-237500D01*
G01*
X148899900Y-116376900D01*
G75*
G02*
X148662400Y-116614400I-237500J0D01*
G01*
X148187400Y-116614400D01*
G75*
G02*
X147949900Y-116376900I0J237500D01*
G01*
X147949900Y-115776900D01*
G75*
G02*
X148187400Y-115539400I237500J0D01*
G01*
G37*
G36*
G01*
X148187400Y-113814400D02*
X148662400Y-113814400D01*
G75*
G02*
X148899900Y-114051900I0J-237500D01*
G01*
X148899900Y-114651900D01*
G75*
G02*
X148662400Y-114889400I-237500J0D01*
G01*
X148187400Y-114889400D01*
G75*
G02*
X147949900Y-114651900I0J237500D01*
G01*
X147949900Y-114051900D01*
G75*
G02*
X148187400Y-113814400I237500J0D01*
G01*
G37*
%TD*%
%TO.C,C23*%
G36*
G01*
X150270200Y-115539400D02*
X150745200Y-115539400D01*
G75*
G02*
X150982700Y-115776900I0J-237500D01*
G01*
X150982700Y-116376900D01*
G75*
G02*
X150745200Y-116614400I-237500J0D01*
G01*
X150270200Y-116614400D01*
G75*
G02*
X150032700Y-116376900I0J237500D01*
G01*
X150032700Y-115776900D01*
G75*
G02*
X150270200Y-115539400I237500J0D01*
G01*
G37*
G36*
G01*
X150270200Y-113814400D02*
X150745200Y-113814400D01*
G75*
G02*
X150982700Y-114051900I0J-237500D01*
G01*
X150982700Y-114651900D01*
G75*
G02*
X150745200Y-114889400I-237500J0D01*
G01*
X150270200Y-114889400D01*
G75*
G02*
X150032700Y-114651900I0J237500D01*
G01*
X150032700Y-114051900D01*
G75*
G02*
X150270200Y-113814400I237500J0D01*
G01*
G37*
%TD*%
%TO.C,C25*%
G36*
G01*
X146561800Y-113814400D02*
X147036800Y-113814400D01*
G75*
G02*
X147274300Y-114051900I0J-237500D01*
G01*
X147274300Y-114651900D01*
G75*
G02*
X147036800Y-114889400I-237500J0D01*
G01*
X146561800Y-114889400D01*
G75*
G02*
X146324300Y-114651900I0J237500D01*
G01*
X146324300Y-114051900D01*
G75*
G02*
X146561800Y-113814400I237500J0D01*
G01*
G37*
G36*
G01*
X146561800Y-115539400D02*
X147036800Y-115539400D01*
G75*
G02*
X147274300Y-115776900I0J-237500D01*
G01*
X147274300Y-116376900D01*
G75*
G02*
X147036800Y-116614400I-237500J0D01*
G01*
X146561800Y-116614400D01*
G75*
G02*
X146324300Y-116376900I0J237500D01*
G01*
X146324300Y-115776900D01*
G75*
G02*
X146561800Y-115539400I237500J0D01*
G01*
G37*
%TD*%
%TO.C,C26*%
G36*
G01*
X151870400Y-113814400D02*
X152345400Y-113814400D01*
G75*
G02*
X152582900Y-114051900I0J-237500D01*
G01*
X152582900Y-114651900D01*
G75*
G02*
X152345400Y-114889400I-237500J0D01*
G01*
X151870400Y-114889400D01*
G75*
G02*
X151632900Y-114651900I0J237500D01*
G01*
X151632900Y-114051900D01*
G75*
G02*
X151870400Y-113814400I237500J0D01*
G01*
G37*
G36*
G01*
X151870400Y-115539400D02*
X152345400Y-115539400D01*
G75*
G02*
X152582900Y-115776900I0J-237500D01*
G01*
X152582900Y-116376900D01*
G75*
G02*
X152345400Y-116614400I-237500J0D01*
G01*
X151870400Y-116614400D01*
G75*
G02*
X151632900Y-116376900I0J237500D01*
G01*
X151632900Y-115776900D01*
G75*
G02*
X151870400Y-115539400I237500J0D01*
G01*
G37*
%TD*%
%TO.C,PWR*%
G36*
G01*
X143678100Y-120310900D02*
X143678100Y-120785900D01*
G75*
G02*
X143440600Y-121023400I-237500J0D01*
G01*
X142865600Y-121023400D01*
G75*
G02*
X142628100Y-120785900I0J237500D01*
G01*
X142628100Y-120310900D01*
G75*
G02*
X142865600Y-120073400I237500J0D01*
G01*
X143440600Y-120073400D01*
G75*
G02*
X143678100Y-120310900I0J-237500D01*
G01*
G37*
G36*
G01*
X141928100Y-120310900D02*
X141928100Y-120785900D01*
G75*
G02*
X141690600Y-121023400I-237500J0D01*
G01*
X141115600Y-121023400D01*
G75*
G02*
X140878100Y-120785900I0J237500D01*
G01*
X140878100Y-120310900D01*
G75*
G02*
X141115600Y-120073400I237500J0D01*
G01*
X141690600Y-120073400D01*
G75*
G02*
X141928100Y-120310900I0J-237500D01*
G01*
G37*
%TD*%
%TO.C,HEARTBEAT*%
G36*
G01*
X153993100Y-109871500D02*
X153993100Y-110346500D01*
G75*
G02*
X153755600Y-110584000I-237500J0D01*
G01*
X153180600Y-110584000D01*
G75*
G02*
X152943100Y-110346500I0J237500D01*
G01*
X152943100Y-109871500D01*
G75*
G02*
X153180600Y-109634000I237500J0D01*
G01*
X153755600Y-109634000D01*
G75*
G02*
X153993100Y-109871500I0J-237500D01*
G01*
G37*
G36*
G01*
X155743100Y-109871500D02*
X155743100Y-110346500D01*
G75*
G02*
X155505600Y-110584000I-237500J0D01*
G01*
X154930600Y-110584000D01*
G75*
G02*
X154693100Y-110346500I0J237500D01*
G01*
X154693100Y-109871500D01*
G75*
G02*
X154930600Y-109634000I237500J0D01*
G01*
X155505600Y-109634000D01*
G75*
G02*
X155743100Y-109871500I0J-237500D01*
G01*
G37*
%TD*%
%TO.C,COMMS*%
G36*
G01*
X142046500Y-98916500D02*
X142046500Y-98441500D01*
G75*
G02*
X142284000Y-98204000I237500J0D01*
G01*
X142859000Y-98204000D01*
G75*
G02*
X143096500Y-98441500I0J-237500D01*
G01*
X143096500Y-98916500D01*
G75*
G02*
X142859000Y-99154000I-237500J0D01*
G01*
X142284000Y-99154000D01*
G75*
G02*
X142046500Y-98916500I0J237500D01*
G01*
G37*
G36*
G01*
X143796500Y-98916500D02*
X143796500Y-98441500D01*
G75*
G02*
X144034000Y-98204000I237500J0D01*
G01*
X144609000Y-98204000D01*
G75*
G02*
X144846500Y-98441500I0J-237500D01*
G01*
X144846500Y-98916500D01*
G75*
G02*
X144609000Y-99154000I-237500J0D01*
G01*
X144034000Y-99154000D01*
G75*
G02*
X143796500Y-98916500I0J237500D01*
G01*
G37*
%TD*%
%TO.C,H1*%
X136690100Y-79654400D03*
%TD*%
%TO.C,H2*%
X136690100Y-121564400D03*
%TD*%
%TO.C,H3*%
X162090100Y-79654400D03*
%TD*%
D12*
%TO.C,SWD*%
X139738100Y-91008200D03*
D13*
X139738100Y-93548200D03*
X139738100Y-96088200D03*
X139738100Y-98628200D03*
%TD*%
%TO.C,UART*%
X139738100Y-102997000D03*
X139738100Y-105537000D03*
X139738100Y-108077000D03*
D12*
X139738100Y-110617000D03*
%TD*%
%TO.C,J3*%
X148120100Y-121564400D03*
D13*
X150660100Y-121564400D03*
%TD*%
D14*
%TO.C,M1+*%
X136690100Y-86004400D03*
%TD*%
%TO.C,M1-*%
X140500100Y-86004400D03*
%TD*%
%TO.C,M3+*%
X162090100Y-86004400D03*
%TD*%
%TO.C,M3-*%
X158280100Y-86004400D03*
%TD*%
%TO.C,M2+*%
X136690100Y-115214400D03*
%TD*%
%TO.C,M2-*%
X140500100Y-115214400D03*
%TD*%
%TO.C,M4+*%
X162090100Y-115214400D03*
%TD*%
%TO.C,M4-*%
X158280100Y-115214400D03*
%TD*%
D15*
%TO.C,Q1*%
X140500100Y-81423000D03*
X141450100Y-83423000D03*
X139550100Y-83423000D03*
%TD*%
%TO.C,Q2*%
X158280100Y-81423000D03*
X159230100Y-83423000D03*
X157330100Y-83423000D03*
%TD*%
D16*
%TO.C,Q3*%
X143157700Y-114264400D03*
X143157700Y-116164400D03*
X145157700Y-115214400D03*
%TD*%
%TO.C,Q4*%
X155698700Y-116164400D03*
X155698700Y-114264400D03*
X153698700Y-115214400D03*
%TD*%
%TO.C,R1*%
G36*
G01*
X142703100Y-122690900D02*
X142703100Y-122215900D01*
G75*
G02*
X142940600Y-121978400I237500J0D01*
G01*
X143440600Y-121978400D01*
G75*
G02*
X143678100Y-122215900I0J-237500D01*
G01*
X143678100Y-122690900D01*
G75*
G02*
X143440600Y-122928400I-237500J0D01*
G01*
X142940600Y-122928400D01*
G75*
G02*
X142703100Y-122690900I0J237500D01*
G01*
G37*
G36*
G01*
X140878100Y-122690900D02*
X140878100Y-122215900D01*
G75*
G02*
X141115600Y-121978400I237500J0D01*
G01*
X141615600Y-121978400D01*
G75*
G02*
X141853100Y-122215900I0J-237500D01*
G01*
X141853100Y-122690900D01*
G75*
G02*
X141615600Y-122928400I-237500J0D01*
G01*
X141115600Y-122928400D01*
G75*
G02*
X140878100Y-122690900I0J237500D01*
G01*
G37*
%TD*%
%TO.C,R4*%
G36*
G01*
X144862100Y-109940100D02*
X144862100Y-109465100D01*
G75*
G02*
X145099600Y-109227600I237500J0D01*
G01*
X145599600Y-109227600D01*
G75*
G02*
X145837100Y-109465100I0J-237500D01*
G01*
X145837100Y-109940100D01*
G75*
G02*
X145599600Y-110177600I-237500J0D01*
G01*
X145099600Y-110177600D01*
G75*
G02*
X144862100Y-109940100I0J237500D01*
G01*
G37*
G36*
G01*
X143037100Y-109940100D02*
X143037100Y-109465100D01*
G75*
G02*
X143274600Y-109227600I237500J0D01*
G01*
X143774600Y-109227600D01*
G75*
G02*
X144012100Y-109465100I0J-237500D01*
G01*
X144012100Y-109940100D01*
G75*
G02*
X143774600Y-110177600I-237500J0D01*
G01*
X143274600Y-110177600D01*
G75*
G02*
X143037100Y-109940100I0J237500D01*
G01*
G37*
%TD*%
%TO.C,R5*%
G36*
G01*
X144862100Y-111514900D02*
X144862100Y-111039900D01*
G75*
G02*
X145099600Y-110802400I237500J0D01*
G01*
X145599600Y-110802400D01*
G75*
G02*
X145837100Y-111039900I0J-237500D01*
G01*
X145837100Y-111514900D01*
G75*
G02*
X145599600Y-111752400I-237500J0D01*
G01*
X145099600Y-111752400D01*
G75*
G02*
X144862100Y-111514900I0J237500D01*
G01*
G37*
G36*
G01*
X143037100Y-111514900D02*
X143037100Y-111039900D01*
G75*
G02*
X143274600Y-110802400I237500J0D01*
G01*
X143774600Y-110802400D01*
G75*
G02*
X144012100Y-111039900I0J-237500D01*
G01*
X144012100Y-111514900D01*
G75*
G02*
X143774600Y-111752400I-237500J0D01*
G01*
X143274600Y-111752400D01*
G75*
G02*
X143037100Y-111514900I0J237500D01*
G01*
G37*
%TD*%
%TO.C,R11*%
G36*
G01*
X140874300Y-78469500D02*
X140874300Y-77994500D01*
G75*
G02*
X141111800Y-77757000I237500J0D01*
G01*
X141611800Y-77757000D01*
G75*
G02*
X141849300Y-77994500I0J-237500D01*
G01*
X141849300Y-78469500D01*
G75*
G02*
X141611800Y-78707000I-237500J0D01*
G01*
X141111800Y-78707000D01*
G75*
G02*
X140874300Y-78469500I0J237500D01*
G01*
G37*
G36*
G01*
X139049300Y-78469500D02*
X139049300Y-77994500D01*
G75*
G02*
X139286800Y-77757000I237500J0D01*
G01*
X139786800Y-77757000D01*
G75*
G02*
X140024300Y-77994500I0J-237500D01*
G01*
X140024300Y-78469500D01*
G75*
G02*
X139786800Y-78707000I-237500J0D01*
G01*
X139286800Y-78707000D01*
G75*
G02*
X139049300Y-78469500I0J237500D01*
G01*
G37*
%TD*%
%TO.C,R12*%
G36*
G01*
X157855100Y-78096100D02*
X157855100Y-78571100D01*
G75*
G02*
X157617600Y-78808600I-237500J0D01*
G01*
X157117600Y-78808600D01*
G75*
G02*
X156880100Y-78571100I0J237500D01*
G01*
X156880100Y-78096100D01*
G75*
G02*
X157117600Y-77858600I237500J0D01*
G01*
X157617600Y-77858600D01*
G75*
G02*
X157855100Y-78096100I0J-237500D01*
G01*
G37*
G36*
G01*
X159680100Y-78096100D02*
X159680100Y-78571100D01*
G75*
G02*
X159442600Y-78808600I-237500J0D01*
G01*
X158942600Y-78808600D01*
G75*
G02*
X158705100Y-78571100I0J237500D01*
G01*
X158705100Y-78096100D01*
G75*
G02*
X158942600Y-77858600I237500J0D01*
G01*
X159442600Y-77858600D01*
G75*
G02*
X159680100Y-78096100I0J-237500D01*
G01*
G37*
%TD*%
%TO.C,R13*%
G36*
G01*
X139049300Y-80069700D02*
X139049300Y-79594700D01*
G75*
G02*
X139286800Y-79357200I237500J0D01*
G01*
X139786800Y-79357200D01*
G75*
G02*
X140024300Y-79594700I0J-237500D01*
G01*
X140024300Y-80069700D01*
G75*
G02*
X139786800Y-80307200I-237500J0D01*
G01*
X139286800Y-80307200D01*
G75*
G02*
X139049300Y-80069700I0J237500D01*
G01*
G37*
G36*
G01*
X140874300Y-80069700D02*
X140874300Y-79594700D01*
G75*
G02*
X141111800Y-79357200I237500J0D01*
G01*
X141611800Y-79357200D01*
G75*
G02*
X141849300Y-79594700I0J-237500D01*
G01*
X141849300Y-80069700D01*
G75*
G02*
X141611800Y-80307200I-237500J0D01*
G01*
X141111800Y-80307200D01*
G75*
G02*
X140874300Y-80069700I0J237500D01*
G01*
G37*
%TD*%
%TO.C,R14*%
G36*
G01*
X156880100Y-80145900D02*
X156880100Y-79670900D01*
G75*
G02*
X157117600Y-79433400I237500J0D01*
G01*
X157617600Y-79433400D01*
G75*
G02*
X157855100Y-79670900I0J-237500D01*
G01*
X157855100Y-80145900D01*
G75*
G02*
X157617600Y-80383400I-237500J0D01*
G01*
X157117600Y-80383400D01*
G75*
G02*
X156880100Y-80145900I0J237500D01*
G01*
G37*
G36*
G01*
X158705100Y-80145900D02*
X158705100Y-79670900D01*
G75*
G02*
X158942600Y-79433400I237500J0D01*
G01*
X159442600Y-79433400D01*
G75*
G02*
X159680100Y-79670900I0J-237500D01*
G01*
X159680100Y-80145900D01*
G75*
G02*
X159442600Y-80383400I-237500J0D01*
G01*
X158942600Y-80383400D01*
G75*
G02*
X158705100Y-80145900I0J237500D01*
G01*
G37*
%TD*%
%TO.C,U1*%
G36*
G01*
X154290100Y-106459400D02*
X154290100Y-106609400D01*
G75*
G02*
X154215100Y-106684400I-75000J0D01*
G01*
X152890100Y-106684400D01*
G75*
G02*
X152815100Y-106609400I0J75000D01*
G01*
X152815100Y-106459400D01*
G75*
G02*
X152890100Y-106384400I75000J0D01*
G01*
X154215100Y-106384400D01*
G75*
G02*
X154290100Y-106459400I0J-75000D01*
G01*
G37*
G36*
G01*
X154290100Y-105959400D02*
X154290100Y-106109400D01*
G75*
G02*
X154215100Y-106184400I-75000J0D01*
G01*
X152890100Y-106184400D01*
G75*
G02*
X152815100Y-106109400I0J75000D01*
G01*
X152815100Y-105959400D01*
G75*
G02*
X152890100Y-105884400I75000J0D01*
G01*
X154215100Y-105884400D01*
G75*
G02*
X154290100Y-105959400I0J-75000D01*
G01*
G37*
G36*
G01*
X154290100Y-105459400D02*
X154290100Y-105609400D01*
G75*
G02*
X154215100Y-105684400I-75000J0D01*
G01*
X152890100Y-105684400D01*
G75*
G02*
X152815100Y-105609400I0J75000D01*
G01*
X152815100Y-105459400D01*
G75*
G02*
X152890100Y-105384400I75000J0D01*
G01*
X154215100Y-105384400D01*
G75*
G02*
X154290100Y-105459400I0J-75000D01*
G01*
G37*
G36*
G01*
X154290100Y-104959400D02*
X154290100Y-105109400D01*
G75*
G02*
X154215100Y-105184400I-75000J0D01*
G01*
X152890100Y-105184400D01*
G75*
G02*
X152815100Y-105109400I0J75000D01*
G01*
X152815100Y-104959400D01*
G75*
G02*
X152890100Y-104884400I75000J0D01*
G01*
X154215100Y-104884400D01*
G75*
G02*
X154290100Y-104959400I0J-75000D01*
G01*
G37*
G36*
G01*
X154290100Y-104459400D02*
X154290100Y-104609400D01*
G75*
G02*
X154215100Y-104684400I-75000J0D01*
G01*
X152890100Y-104684400D01*
G75*
G02*
X152815100Y-104609400I0J75000D01*
G01*
X152815100Y-104459400D01*
G75*
G02*
X152890100Y-104384400I75000J0D01*
G01*
X154215100Y-104384400D01*
G75*
G02*
X154290100Y-104459400I0J-75000D01*
G01*
G37*
G36*
G01*
X154290100Y-103959400D02*
X154290100Y-104109400D01*
G75*
G02*
X154215100Y-104184400I-75000J0D01*
G01*
X152890100Y-104184400D01*
G75*
G02*
X152815100Y-104109400I0J75000D01*
G01*
X152815100Y-103959400D01*
G75*
G02*
X152890100Y-103884400I75000J0D01*
G01*
X154215100Y-103884400D01*
G75*
G02*
X154290100Y-103959400I0J-75000D01*
G01*
G37*
G36*
G01*
X154290100Y-103459400D02*
X154290100Y-103609400D01*
G75*
G02*
X154215100Y-103684400I-75000J0D01*
G01*
X152890100Y-103684400D01*
G75*
G02*
X152815100Y-103609400I0J75000D01*
G01*
X152815100Y-103459400D01*
G75*
G02*
X152890100Y-103384400I75000J0D01*
G01*
X154215100Y-103384400D01*
G75*
G02*
X154290100Y-103459400I0J-75000D01*
G01*
G37*
G36*
G01*
X154290100Y-102959400D02*
X154290100Y-103109400D01*
G75*
G02*
X154215100Y-103184400I-75000J0D01*
G01*
X152890100Y-103184400D01*
G75*
G02*
X152815100Y-103109400I0J75000D01*
G01*
X152815100Y-102959400D01*
G75*
G02*
X152890100Y-102884400I75000J0D01*
G01*
X154215100Y-102884400D01*
G75*
G02*
X154290100Y-102959400I0J-75000D01*
G01*
G37*
G36*
G01*
X154290100Y-102459400D02*
X154290100Y-102609400D01*
G75*
G02*
X154215100Y-102684400I-75000J0D01*
G01*
X152890100Y-102684400D01*
G75*
G02*
X152815100Y-102609400I0J75000D01*
G01*
X152815100Y-102459400D01*
G75*
G02*
X152890100Y-102384400I75000J0D01*
G01*
X154215100Y-102384400D01*
G75*
G02*
X154290100Y-102459400I0J-75000D01*
G01*
G37*
G36*
G01*
X154290100Y-101959400D02*
X154290100Y-102109400D01*
G75*
G02*
X154215100Y-102184400I-75000J0D01*
G01*
X152890100Y-102184400D01*
G75*
G02*
X152815100Y-102109400I0J75000D01*
G01*
X152815100Y-101959400D01*
G75*
G02*
X152890100Y-101884400I75000J0D01*
G01*
X154215100Y-101884400D01*
G75*
G02*
X154290100Y-101959400I0J-75000D01*
G01*
G37*
G36*
G01*
X154290100Y-101459400D02*
X154290100Y-101609400D01*
G75*
G02*
X154215100Y-101684400I-75000J0D01*
G01*
X152890100Y-101684400D01*
G75*
G02*
X152815100Y-101609400I0J75000D01*
G01*
X152815100Y-101459400D01*
G75*
G02*
X152890100Y-101384400I75000J0D01*
G01*
X154215100Y-101384400D01*
G75*
G02*
X154290100Y-101459400I0J-75000D01*
G01*
G37*
G36*
G01*
X154290100Y-100959400D02*
X154290100Y-101109400D01*
G75*
G02*
X154215100Y-101184400I-75000J0D01*
G01*
X152890100Y-101184400D01*
G75*
G02*
X152815100Y-101109400I0J75000D01*
G01*
X152815100Y-100959400D01*
G75*
G02*
X152890100Y-100884400I75000J0D01*
G01*
X154215100Y-100884400D01*
G75*
G02*
X154290100Y-100959400I0J-75000D01*
G01*
G37*
G36*
G01*
X152290100Y-98959400D02*
X152290100Y-100284400D01*
G75*
G02*
X152215100Y-100359400I-75000J0D01*
G01*
X152065100Y-100359400D01*
G75*
G02*
X151990100Y-100284400I0J75000D01*
G01*
X151990100Y-98959400D01*
G75*
G02*
X152065100Y-98884400I75000J0D01*
G01*
X152215100Y-98884400D01*
G75*
G02*
X152290100Y-98959400I0J-75000D01*
G01*
G37*
G36*
G01*
X151790100Y-98959400D02*
X151790100Y-100284400D01*
G75*
G02*
X151715100Y-100359400I-75000J0D01*
G01*
X151565100Y-100359400D01*
G75*
G02*
X151490100Y-100284400I0J75000D01*
G01*
X151490100Y-98959400D01*
G75*
G02*
X151565100Y-98884400I75000J0D01*
G01*
X151715100Y-98884400D01*
G75*
G02*
X151790100Y-98959400I0J-75000D01*
G01*
G37*
G36*
G01*
X151290100Y-98959400D02*
X151290100Y-100284400D01*
G75*
G02*
X151215100Y-100359400I-75000J0D01*
G01*
X151065100Y-100359400D01*
G75*
G02*
X150990100Y-100284400I0J75000D01*
G01*
X150990100Y-98959400D01*
G75*
G02*
X151065100Y-98884400I75000J0D01*
G01*
X151215100Y-98884400D01*
G75*
G02*
X151290100Y-98959400I0J-75000D01*
G01*
G37*
G36*
G01*
X150790100Y-98959400D02*
X150790100Y-100284400D01*
G75*
G02*
X150715100Y-100359400I-75000J0D01*
G01*
X150565100Y-100359400D01*
G75*
G02*
X150490100Y-100284400I0J75000D01*
G01*
X150490100Y-98959400D01*
G75*
G02*
X150565100Y-98884400I75000J0D01*
G01*
X150715100Y-98884400D01*
G75*
G02*
X150790100Y-98959400I0J-75000D01*
G01*
G37*
G36*
G01*
X150290100Y-98959400D02*
X150290100Y-100284400D01*
G75*
G02*
X150215100Y-100359400I-75000J0D01*
G01*
X150065100Y-100359400D01*
G75*
G02*
X149990100Y-100284400I0J75000D01*
G01*
X149990100Y-98959400D01*
G75*
G02*
X150065100Y-98884400I75000J0D01*
G01*
X150215100Y-98884400D01*
G75*
G02*
X150290100Y-98959400I0J-75000D01*
G01*
G37*
G36*
G01*
X149790100Y-98959400D02*
X149790100Y-100284400D01*
G75*
G02*
X149715100Y-100359400I-75000J0D01*
G01*
X149565100Y-100359400D01*
G75*
G02*
X149490100Y-100284400I0J75000D01*
G01*
X149490100Y-98959400D01*
G75*
G02*
X149565100Y-98884400I75000J0D01*
G01*
X149715100Y-98884400D01*
G75*
G02*
X149790100Y-98959400I0J-75000D01*
G01*
G37*
G36*
G01*
X149290100Y-98959400D02*
X149290100Y-100284400D01*
G75*
G02*
X149215100Y-100359400I-75000J0D01*
G01*
X149065100Y-100359400D01*
G75*
G02*
X148990100Y-100284400I0J75000D01*
G01*
X148990100Y-98959400D01*
G75*
G02*
X149065100Y-98884400I75000J0D01*
G01*
X149215100Y-98884400D01*
G75*
G02*
X149290100Y-98959400I0J-75000D01*
G01*
G37*
G36*
G01*
X148790100Y-98959400D02*
X148790100Y-100284400D01*
G75*
G02*
X148715100Y-100359400I-75000J0D01*
G01*
X148565100Y-100359400D01*
G75*
G02*
X148490100Y-100284400I0J75000D01*
G01*
X148490100Y-98959400D01*
G75*
G02*
X148565100Y-98884400I75000J0D01*
G01*
X148715100Y-98884400D01*
G75*
G02*
X148790100Y-98959400I0J-75000D01*
G01*
G37*
G36*
G01*
X148290100Y-98959400D02*
X148290100Y-100284400D01*
G75*
G02*
X148215100Y-100359400I-75000J0D01*
G01*
X148065100Y-100359400D01*
G75*
G02*
X147990100Y-100284400I0J75000D01*
G01*
X147990100Y-98959400D01*
G75*
G02*
X148065100Y-98884400I75000J0D01*
G01*
X148215100Y-98884400D01*
G75*
G02*
X148290100Y-98959400I0J-75000D01*
G01*
G37*
G36*
G01*
X147790100Y-98959400D02*
X147790100Y-100284400D01*
G75*
G02*
X147715100Y-100359400I-75000J0D01*
G01*
X147565100Y-100359400D01*
G75*
G02*
X147490100Y-100284400I0J75000D01*
G01*
X147490100Y-98959400D01*
G75*
G02*
X147565100Y-98884400I75000J0D01*
G01*
X147715100Y-98884400D01*
G75*
G02*
X147790100Y-98959400I0J-75000D01*
G01*
G37*
G36*
G01*
X147290100Y-98959400D02*
X147290100Y-100284400D01*
G75*
G02*
X147215100Y-100359400I-75000J0D01*
G01*
X147065100Y-100359400D01*
G75*
G02*
X146990100Y-100284400I0J75000D01*
G01*
X146990100Y-98959400D01*
G75*
G02*
X147065100Y-98884400I75000J0D01*
G01*
X147215100Y-98884400D01*
G75*
G02*
X147290100Y-98959400I0J-75000D01*
G01*
G37*
G36*
G01*
X146790100Y-98959400D02*
X146790100Y-100284400D01*
G75*
G02*
X146715100Y-100359400I-75000J0D01*
G01*
X146565100Y-100359400D01*
G75*
G02*
X146490100Y-100284400I0J75000D01*
G01*
X146490100Y-98959400D01*
G75*
G02*
X146565100Y-98884400I75000J0D01*
G01*
X146715100Y-98884400D01*
G75*
G02*
X146790100Y-98959400I0J-75000D01*
G01*
G37*
G36*
G01*
X145965100Y-100959400D02*
X145965100Y-101109400D01*
G75*
G02*
X145890100Y-101184400I-75000J0D01*
G01*
X144565100Y-101184400D01*
G75*
G02*
X144490100Y-101109400I0J75000D01*
G01*
X144490100Y-100959400D01*
G75*
G02*
X144565100Y-100884400I75000J0D01*
G01*
X145890100Y-100884400D01*
G75*
G02*
X145965100Y-100959400I0J-75000D01*
G01*
G37*
G36*
G01*
X145965100Y-101459400D02*
X145965100Y-101609400D01*
G75*
G02*
X145890100Y-101684400I-75000J0D01*
G01*
X144565100Y-101684400D01*
G75*
G02*
X144490100Y-101609400I0J75000D01*
G01*
X144490100Y-101459400D01*
G75*
G02*
X144565100Y-101384400I75000J0D01*
G01*
X145890100Y-101384400D01*
G75*
G02*
X145965100Y-101459400I0J-75000D01*
G01*
G37*
G36*
G01*
X145965100Y-101959400D02*
X145965100Y-102109400D01*
G75*
G02*
X145890100Y-102184400I-75000J0D01*
G01*
X144565100Y-102184400D01*
G75*
G02*
X144490100Y-102109400I0J75000D01*
G01*
X144490100Y-101959400D01*
G75*
G02*
X144565100Y-101884400I75000J0D01*
G01*
X145890100Y-101884400D01*
G75*
G02*
X145965100Y-101959400I0J-75000D01*
G01*
G37*
G36*
G01*
X145965100Y-102459400D02*
X145965100Y-102609400D01*
G75*
G02*
X145890100Y-102684400I-75000J0D01*
G01*
X144565100Y-102684400D01*
G75*
G02*
X144490100Y-102609400I0J75000D01*
G01*
X144490100Y-102459400D01*
G75*
G02*
X144565100Y-102384400I75000J0D01*
G01*
X145890100Y-102384400D01*
G75*
G02*
X145965100Y-102459400I0J-75000D01*
G01*
G37*
G36*
G01*
X145965100Y-102959400D02*
X145965100Y-103109400D01*
G75*
G02*
X145890100Y-103184400I-75000J0D01*
G01*
X144565100Y-103184400D01*
G75*
G02*
X144490100Y-103109400I0J75000D01*
G01*
X144490100Y-102959400D01*
G75*
G02*
X144565100Y-102884400I75000J0D01*
G01*
X145890100Y-102884400D01*
G75*
G02*
X145965100Y-102959400I0J-75000D01*
G01*
G37*
G36*
G01*
X145965100Y-103459400D02*
X145965100Y-103609400D01*
G75*
G02*
X145890100Y-103684400I-75000J0D01*
G01*
X144565100Y-103684400D01*
G75*
G02*
X144490100Y-103609400I0J75000D01*
G01*
X144490100Y-103459400D01*
G75*
G02*
X144565100Y-103384400I75000J0D01*
G01*
X145890100Y-103384400D01*
G75*
G02*
X145965100Y-103459400I0J-75000D01*
G01*
G37*
G36*
G01*
X145965100Y-103959400D02*
X145965100Y-104109400D01*
G75*
G02*
X145890100Y-104184400I-75000J0D01*
G01*
X144565100Y-104184400D01*
G75*
G02*
X144490100Y-104109400I0J75000D01*
G01*
X144490100Y-103959400D01*
G75*
G02*
X144565100Y-103884400I75000J0D01*
G01*
X145890100Y-103884400D01*
G75*
G02*
X145965100Y-103959400I0J-75000D01*
G01*
G37*
G36*
G01*
X145965100Y-104459400D02*
X145965100Y-104609400D01*
G75*
G02*
X145890100Y-104684400I-75000J0D01*
G01*
X144565100Y-104684400D01*
G75*
G02*
X144490100Y-104609400I0J75000D01*
G01*
X144490100Y-104459400D01*
G75*
G02*
X144565100Y-104384400I75000J0D01*
G01*
X145890100Y-104384400D01*
G75*
G02*
X145965100Y-104459400I0J-75000D01*
G01*
G37*
G36*
G01*
X145965100Y-104959400D02*
X145965100Y-105109400D01*
G75*
G02*
X145890100Y-105184400I-75000J0D01*
G01*
X144565100Y-105184400D01*
G75*
G02*
X144490100Y-105109400I0J75000D01*
G01*
X144490100Y-104959400D01*
G75*
G02*
X144565100Y-104884400I75000J0D01*
G01*
X145890100Y-104884400D01*
G75*
G02*
X145965100Y-104959400I0J-75000D01*
G01*
G37*
G36*
G01*
X145965100Y-105459400D02*
X145965100Y-105609400D01*
G75*
G02*
X145890100Y-105684400I-75000J0D01*
G01*
X144565100Y-105684400D01*
G75*
G02*
X144490100Y-105609400I0J75000D01*
G01*
X144490100Y-105459400D01*
G75*
G02*
X144565100Y-105384400I75000J0D01*
G01*
X145890100Y-105384400D01*
G75*
G02*
X145965100Y-105459400I0J-75000D01*
G01*
G37*
G36*
G01*
X145965100Y-105959400D02*
X145965100Y-106109400D01*
G75*
G02*
X145890100Y-106184400I-75000J0D01*
G01*
X144565100Y-106184400D01*
G75*
G02*
X144490100Y-106109400I0J75000D01*
G01*
X144490100Y-105959400D01*
G75*
G02*
X144565100Y-105884400I75000J0D01*
G01*
X145890100Y-105884400D01*
G75*
G02*
X145965100Y-105959400I0J-75000D01*
G01*
G37*
G36*
G01*
X145965100Y-106459400D02*
X145965100Y-106609400D01*
G75*
G02*
X145890100Y-106684400I-75000J0D01*
G01*
X144565100Y-106684400D01*
G75*
G02*
X144490100Y-106609400I0J75000D01*
G01*
X144490100Y-106459400D01*
G75*
G02*
X144565100Y-106384400I75000J0D01*
G01*
X145890100Y-106384400D01*
G75*
G02*
X145965100Y-106459400I0J-75000D01*
G01*
G37*
G36*
G01*
X146790100Y-107284400D02*
X146790100Y-108609400D01*
G75*
G02*
X146715100Y-108684400I-75000J0D01*
G01*
X146565100Y-108684400D01*
G75*
G02*
X146490100Y-108609400I0J75000D01*
G01*
X146490100Y-107284400D01*
G75*
G02*
X146565100Y-107209400I75000J0D01*
G01*
X146715100Y-107209400D01*
G75*
G02*
X146790100Y-107284400I0J-75000D01*
G01*
G37*
G36*
G01*
X147290100Y-107284400D02*
X147290100Y-108609400D01*
G75*
G02*
X147215100Y-108684400I-75000J0D01*
G01*
X147065100Y-108684400D01*
G75*
G02*
X146990100Y-108609400I0J75000D01*
G01*
X146990100Y-107284400D01*
G75*
G02*
X147065100Y-107209400I75000J0D01*
G01*
X147215100Y-107209400D01*
G75*
G02*
X147290100Y-107284400I0J-75000D01*
G01*
G37*
G36*
G01*
X147790100Y-107284400D02*
X147790100Y-108609400D01*
G75*
G02*
X147715100Y-108684400I-75000J0D01*
G01*
X147565100Y-108684400D01*
G75*
G02*
X147490100Y-108609400I0J75000D01*
G01*
X147490100Y-107284400D01*
G75*
G02*
X147565100Y-107209400I75000J0D01*
G01*
X147715100Y-107209400D01*
G75*
G02*
X147790100Y-107284400I0J-75000D01*
G01*
G37*
G36*
G01*
X148290100Y-107284400D02*
X148290100Y-108609400D01*
G75*
G02*
X148215100Y-108684400I-75000J0D01*
G01*
X148065100Y-108684400D01*
G75*
G02*
X147990100Y-108609400I0J75000D01*
G01*
X147990100Y-107284400D01*
G75*
G02*
X148065100Y-107209400I75000J0D01*
G01*
X148215100Y-107209400D01*
G75*
G02*
X148290100Y-107284400I0J-75000D01*
G01*
G37*
G36*
G01*
X148790100Y-107284400D02*
X148790100Y-108609400D01*
G75*
G02*
X148715100Y-108684400I-75000J0D01*
G01*
X148565100Y-108684400D01*
G75*
G02*
X148490100Y-108609400I0J75000D01*
G01*
X148490100Y-107284400D01*
G75*
G02*
X148565100Y-107209400I75000J0D01*
G01*
X148715100Y-107209400D01*
G75*
G02*
X148790100Y-107284400I0J-75000D01*
G01*
G37*
G36*
G01*
X149290100Y-107284400D02*
X149290100Y-108609400D01*
G75*
G02*
X149215100Y-108684400I-75000J0D01*
G01*
X149065100Y-108684400D01*
G75*
G02*
X148990100Y-108609400I0J75000D01*
G01*
X148990100Y-107284400D01*
G75*
G02*
X149065100Y-107209400I75000J0D01*
G01*
X149215100Y-107209400D01*
G75*
G02*
X149290100Y-107284400I0J-75000D01*
G01*
G37*
G36*
G01*
X149790100Y-107284400D02*
X149790100Y-108609400D01*
G75*
G02*
X149715100Y-108684400I-75000J0D01*
G01*
X149565100Y-108684400D01*
G75*
G02*
X149490100Y-108609400I0J75000D01*
G01*
X149490100Y-107284400D01*
G75*
G02*
X149565100Y-107209400I75000J0D01*
G01*
X149715100Y-107209400D01*
G75*
G02*
X149790100Y-107284400I0J-75000D01*
G01*
G37*
G36*
G01*
X150290100Y-107284400D02*
X150290100Y-108609400D01*
G75*
G02*
X150215100Y-108684400I-75000J0D01*
G01*
X150065100Y-108684400D01*
G75*
G02*
X149990100Y-108609400I0J75000D01*
G01*
X149990100Y-107284400D01*
G75*
G02*
X150065100Y-107209400I75000J0D01*
G01*
X150215100Y-107209400D01*
G75*
G02*
X150290100Y-107284400I0J-75000D01*
G01*
G37*
G36*
G01*
X150790100Y-107284400D02*
X150790100Y-108609400D01*
G75*
G02*
X150715100Y-108684400I-75000J0D01*
G01*
X150565100Y-108684400D01*
G75*
G02*
X150490100Y-108609400I0J75000D01*
G01*
X150490100Y-107284400D01*
G75*
G02*
X150565100Y-107209400I75000J0D01*
G01*
X150715100Y-107209400D01*
G75*
G02*
X150790100Y-107284400I0J-75000D01*
G01*
G37*
G36*
G01*
X151290100Y-107284400D02*
X151290100Y-108609400D01*
G75*
G02*
X151215100Y-108684400I-75000J0D01*
G01*
X151065100Y-108684400D01*
G75*
G02*
X150990100Y-108609400I0J75000D01*
G01*
X150990100Y-107284400D01*
G75*
G02*
X151065100Y-107209400I75000J0D01*
G01*
X151215100Y-107209400D01*
G75*
G02*
X151290100Y-107284400I0J-75000D01*
G01*
G37*
G36*
G01*
X151790100Y-107284400D02*
X151790100Y-108609400D01*
G75*
G02*
X151715100Y-108684400I-75000J0D01*
G01*
X151565100Y-108684400D01*
G75*
G02*
X151490100Y-108609400I0J75000D01*
G01*
X151490100Y-107284400D01*
G75*
G02*
X151565100Y-107209400I75000J0D01*
G01*
X151715100Y-107209400D01*
G75*
G02*
X151790100Y-107284400I0J-75000D01*
G01*
G37*
G36*
G01*
X152290100Y-107284400D02*
X152290100Y-108609400D01*
G75*
G02*
X152215100Y-108684400I-75000J0D01*
G01*
X152065100Y-108684400D01*
G75*
G02*
X151990100Y-108609400I0J75000D01*
G01*
X151990100Y-107284400D01*
G75*
G02*
X152065100Y-107209400I75000J0D01*
G01*
X152215100Y-107209400D01*
G75*
G02*
X152290100Y-107284400I0J-75000D01*
G01*
G37*
%TD*%
D17*
%TO.C,U2*%
X150155100Y-111705200D03*
X150155100Y-111205200D03*
X149890100Y-110690200D03*
X149390100Y-110690200D03*
X148890100Y-110690200D03*
X148625100Y-111205200D03*
X148625100Y-111705200D03*
X148890100Y-112220200D03*
X149390100Y-112220200D03*
X149890100Y-112220200D03*
%TD*%
D18*
%TO.C,U3*%
X154748100Y-122452400D03*
X157748100Y-122452400D03*
D19*
G36*
X157114600Y-118502400D02*
G01*
X157114600Y-121627400D01*
X156698100Y-121627400D01*
X156698100Y-123102400D01*
X155798100Y-123102400D01*
X155798100Y-121627400D01*
X155381600Y-121627400D01*
X155381600Y-118502400D01*
X157114600Y-118502400D01*
G37*
%TD*%
%TO.C,U5*%
G36*
G01*
X155639100Y-95313800D02*
X155639100Y-95163800D01*
G75*
G02*
X155714100Y-95088800I75000J0D01*
G01*
X156414100Y-95088800D01*
G75*
G02*
X156489100Y-95163800I0J-75000D01*
G01*
X156489100Y-95313800D01*
G75*
G02*
X156414100Y-95388800I-75000J0D01*
G01*
X155714100Y-95388800D01*
G75*
G02*
X155639100Y-95313800I0J75000D01*
G01*
G37*
G36*
G01*
X155639100Y-95813800D02*
X155639100Y-95663800D01*
G75*
G02*
X155714100Y-95588800I75000J0D01*
G01*
X156414100Y-95588800D01*
G75*
G02*
X156489100Y-95663800I0J-75000D01*
G01*
X156489100Y-95813800D01*
G75*
G02*
X156414100Y-95888800I-75000J0D01*
G01*
X155714100Y-95888800D01*
G75*
G02*
X155639100Y-95813800I0J75000D01*
G01*
G37*
G36*
G01*
X155639100Y-96313800D02*
X155639100Y-96163800D01*
G75*
G02*
X155714100Y-96088800I75000J0D01*
G01*
X156414100Y-96088800D01*
G75*
G02*
X156489100Y-96163800I0J-75000D01*
G01*
X156489100Y-96313800D01*
G75*
G02*
X156414100Y-96388800I-75000J0D01*
G01*
X155714100Y-96388800D01*
G75*
G02*
X155639100Y-96313800I0J75000D01*
G01*
G37*
G36*
G01*
X155639100Y-96813800D02*
X155639100Y-96663800D01*
G75*
G02*
X155714100Y-96588800I75000J0D01*
G01*
X156414100Y-96588800D01*
G75*
G02*
X156489100Y-96663800I0J-75000D01*
G01*
X156489100Y-96813800D01*
G75*
G02*
X156414100Y-96888800I-75000J0D01*
G01*
X155714100Y-96888800D01*
G75*
G02*
X155639100Y-96813800I0J75000D01*
G01*
G37*
G36*
G01*
X155639100Y-97313800D02*
X155639100Y-97163800D01*
G75*
G02*
X155714100Y-97088800I75000J0D01*
G01*
X156414100Y-97088800D01*
G75*
G02*
X156489100Y-97163800I0J-75000D01*
G01*
X156489100Y-97313800D01*
G75*
G02*
X156414100Y-97388800I-75000J0D01*
G01*
X155714100Y-97388800D01*
G75*
G02*
X155639100Y-97313800I0J75000D01*
G01*
G37*
G36*
G01*
X155639100Y-97813800D02*
X155639100Y-97663800D01*
G75*
G02*
X155714100Y-97588800I75000J0D01*
G01*
X156414100Y-97588800D01*
G75*
G02*
X156489100Y-97663800I0J-75000D01*
G01*
X156489100Y-97813800D01*
G75*
G02*
X156414100Y-97888800I-75000J0D01*
G01*
X155714100Y-97888800D01*
G75*
G02*
X155639100Y-97813800I0J75000D01*
G01*
G37*
G36*
G01*
X156839100Y-98863800D02*
X156689100Y-98863800D01*
G75*
G02*
X156614100Y-98788800I0J75000D01*
G01*
X156614100Y-98088800D01*
G75*
G02*
X156689100Y-98013800I75000J0D01*
G01*
X156839100Y-98013800D01*
G75*
G02*
X156914100Y-98088800I0J-75000D01*
G01*
X156914100Y-98788800D01*
G75*
G02*
X156839100Y-98863800I-75000J0D01*
G01*
G37*
G36*
G01*
X157339100Y-98863800D02*
X157189100Y-98863800D01*
G75*
G02*
X157114100Y-98788800I0J75000D01*
G01*
X157114100Y-98088800D01*
G75*
G02*
X157189100Y-98013800I75000J0D01*
G01*
X157339100Y-98013800D01*
G75*
G02*
X157414100Y-98088800I0J-75000D01*
G01*
X157414100Y-98788800D01*
G75*
G02*
X157339100Y-98863800I-75000J0D01*
G01*
G37*
G36*
G01*
X157839100Y-98863800D02*
X157689100Y-98863800D01*
G75*
G02*
X157614100Y-98788800I0J75000D01*
G01*
X157614100Y-98088800D01*
G75*
G02*
X157689100Y-98013800I75000J0D01*
G01*
X157839100Y-98013800D01*
G75*
G02*
X157914100Y-98088800I0J-75000D01*
G01*
X157914100Y-98788800D01*
G75*
G02*
X157839100Y-98863800I-75000J0D01*
G01*
G37*
G36*
G01*
X158339100Y-98863800D02*
X158189100Y-98863800D01*
G75*
G02*
X158114100Y-98788800I0J75000D01*
G01*
X158114100Y-98088800D01*
G75*
G02*
X158189100Y-98013800I75000J0D01*
G01*
X158339100Y-98013800D01*
G75*
G02*
X158414100Y-98088800I0J-75000D01*
G01*
X158414100Y-98788800D01*
G75*
G02*
X158339100Y-98863800I-75000J0D01*
G01*
G37*
G36*
G01*
X158839100Y-98863800D02*
X158689100Y-98863800D01*
G75*
G02*
X158614100Y-98788800I0J75000D01*
G01*
X158614100Y-98088800D01*
G75*
G02*
X158689100Y-98013800I75000J0D01*
G01*
X158839100Y-98013800D01*
G75*
G02*
X158914100Y-98088800I0J-75000D01*
G01*
X158914100Y-98788800D01*
G75*
G02*
X158839100Y-98863800I-75000J0D01*
G01*
G37*
G36*
G01*
X159339100Y-98863800D02*
X159189100Y-98863800D01*
G75*
G02*
X159114100Y-98788800I0J75000D01*
G01*
X159114100Y-98088800D01*
G75*
G02*
X159189100Y-98013800I75000J0D01*
G01*
X159339100Y-98013800D01*
G75*
G02*
X159414100Y-98088800I0J-75000D01*
G01*
X159414100Y-98788800D01*
G75*
G02*
X159339100Y-98863800I-75000J0D01*
G01*
G37*
G36*
G01*
X159539100Y-97813800D02*
X159539100Y-97663800D01*
G75*
G02*
X159614100Y-97588800I75000J0D01*
G01*
X160314100Y-97588800D01*
G75*
G02*
X160389100Y-97663800I0J-75000D01*
G01*
X160389100Y-97813800D01*
G75*
G02*
X160314100Y-97888800I-75000J0D01*
G01*
X159614100Y-97888800D01*
G75*
G02*
X159539100Y-97813800I0J75000D01*
G01*
G37*
G36*
G01*
X159539100Y-97313800D02*
X159539100Y-97163800D01*
G75*
G02*
X159614100Y-97088800I75000J0D01*
G01*
X160314100Y-97088800D01*
G75*
G02*
X160389100Y-97163800I0J-75000D01*
G01*
X160389100Y-97313800D01*
G75*
G02*
X160314100Y-97388800I-75000J0D01*
G01*
X159614100Y-97388800D01*
G75*
G02*
X159539100Y-97313800I0J75000D01*
G01*
G37*
G36*
G01*
X159539100Y-96813800D02*
X159539100Y-96663800D01*
G75*
G02*
X159614100Y-96588800I75000J0D01*
G01*
X160314100Y-96588800D01*
G75*
G02*
X160389100Y-96663800I0J-75000D01*
G01*
X160389100Y-96813800D01*
G75*
G02*
X160314100Y-96888800I-75000J0D01*
G01*
X159614100Y-96888800D01*
G75*
G02*
X159539100Y-96813800I0J75000D01*
G01*
G37*
G36*
G01*
X159539100Y-96313800D02*
X159539100Y-96163800D01*
G75*
G02*
X159614100Y-96088800I75000J0D01*
G01*
X160314100Y-96088800D01*
G75*
G02*
X160389100Y-96163800I0J-75000D01*
G01*
X160389100Y-96313800D01*
G75*
G02*
X160314100Y-96388800I-75000J0D01*
G01*
X159614100Y-96388800D01*
G75*
G02*
X159539100Y-96313800I0J75000D01*
G01*
G37*
G36*
G01*
X159539100Y-95813800D02*
X159539100Y-95663800D01*
G75*
G02*
X159614100Y-95588800I75000J0D01*
G01*
X160314100Y-95588800D01*
G75*
G02*
X160389100Y-95663800I0J-75000D01*
G01*
X160389100Y-95813800D01*
G75*
G02*
X160314100Y-95888800I-75000J0D01*
G01*
X159614100Y-95888800D01*
G75*
G02*
X159539100Y-95813800I0J75000D01*
G01*
G37*
G36*
G01*
X159539100Y-95313800D02*
X159539100Y-95163800D01*
G75*
G02*
X159614100Y-95088800I75000J0D01*
G01*
X160314100Y-95088800D01*
G75*
G02*
X160389100Y-95163800I0J-75000D01*
G01*
X160389100Y-95313800D01*
G75*
G02*
X160314100Y-95388800I-75000J0D01*
G01*
X159614100Y-95388800D01*
G75*
G02*
X159539100Y-95313800I0J75000D01*
G01*
G37*
G36*
G01*
X159339100Y-94963800D02*
X159189100Y-94963800D01*
G75*
G02*
X159114100Y-94888800I0J75000D01*
G01*
X159114100Y-94188800D01*
G75*
G02*
X159189100Y-94113800I75000J0D01*
G01*
X159339100Y-94113800D01*
G75*
G02*
X159414100Y-94188800I0J-75000D01*
G01*
X159414100Y-94888800D01*
G75*
G02*
X159339100Y-94963800I-75000J0D01*
G01*
G37*
G36*
G01*
X158839100Y-94963800D02*
X158689100Y-94963800D01*
G75*
G02*
X158614100Y-94888800I0J75000D01*
G01*
X158614100Y-94188800D01*
G75*
G02*
X158689100Y-94113800I75000J0D01*
G01*
X158839100Y-94113800D01*
G75*
G02*
X158914100Y-94188800I0J-75000D01*
G01*
X158914100Y-94888800D01*
G75*
G02*
X158839100Y-94963800I-75000J0D01*
G01*
G37*
G36*
G01*
X158339100Y-94963800D02*
X158189100Y-94963800D01*
G75*
G02*
X158114100Y-94888800I0J75000D01*
G01*
X158114100Y-94188800D01*
G75*
G02*
X158189100Y-94113800I75000J0D01*
G01*
X158339100Y-94113800D01*
G75*
G02*
X158414100Y-94188800I0J-75000D01*
G01*
X158414100Y-94888800D01*
G75*
G02*
X158339100Y-94963800I-75000J0D01*
G01*
G37*
G36*
G01*
X157839100Y-94963800D02*
X157689100Y-94963800D01*
G75*
G02*
X157614100Y-94888800I0J75000D01*
G01*
X157614100Y-94188800D01*
G75*
G02*
X157689100Y-94113800I75000J0D01*
G01*
X157839100Y-94113800D01*
G75*
G02*
X157914100Y-94188800I0J-75000D01*
G01*
X157914100Y-94888800D01*
G75*
G02*
X157839100Y-94963800I-75000J0D01*
G01*
G37*
G36*
G01*
X157339100Y-94963800D02*
X157189100Y-94963800D01*
G75*
G02*
X157114100Y-94888800I0J75000D01*
G01*
X157114100Y-94188800D01*
G75*
G02*
X157189100Y-94113800I75000J0D01*
G01*
X157339100Y-94113800D01*
G75*
G02*
X157414100Y-94188800I0J-75000D01*
G01*
X157414100Y-94888800D01*
G75*
G02*
X157339100Y-94963800I-75000J0D01*
G01*
G37*
G36*
G01*
X156839100Y-94963800D02*
X156689100Y-94963800D01*
G75*
G02*
X156614100Y-94888800I0J75000D01*
G01*
X156614100Y-94188800D01*
G75*
G02*
X156689100Y-94113800I75000J0D01*
G01*
X156839100Y-94113800D01*
G75*
G02*
X156914100Y-94188800I0J-75000D01*
G01*
X156914100Y-94888800D01*
G75*
G02*
X156839100Y-94963800I-75000J0D01*
G01*
G37*
%TD*%
D20*
%TO.C,Y1*%
X159677166Y-110070842D03*
X159677166Y-107570842D03*
%TD*%
D21*
%TO.C,Y2*%
X156376100Y-105038400D03*
X159676100Y-105038400D03*
X159676100Y-103038400D03*
X156376100Y-103038400D03*
%TD*%
M02*
