%TF.GenerationSoftware,KiCad,Pcbnew,(5.1.9)-1*%
%TF.CreationDate,2021-03-06T18:52:22-05:00*%
%TF.ProjectId,final_design_v2,66696e61-6c5f-4646-9573-69676e5f7632,rev?*%
%TF.SameCoordinates,Original*%
%TF.FileFunction,Copper,L3,Inr*%
%TF.FilePolarity,Positive*%
%FSLAX46Y46*%
G04 Gerber Fmt 4.6, Leading zero omitted, Abs format (unit mm)*
G04 Created by KiCad (PCBNEW (5.1.9)-1) date 2021-03-06 18:52:22*
%MOMM*%
%LPD*%
G01*
G04 APERTURE LIST*
%TA.AperFunction,ComponentPad*%
%ADD10C,3.500000*%
%TD*%
%TA.AperFunction,ComponentPad*%
%ADD11R,1.700000X1.700000*%
%TD*%
%TA.AperFunction,ComponentPad*%
%ADD12O,1.700000X1.700000*%
%TD*%
%TA.AperFunction,ViaPad*%
%ADD13C,0.800000*%
%TD*%
%TA.AperFunction,Conductor*%
%ADD14C,0.254000*%
%TD*%
%TA.AperFunction,Conductor*%
%ADD15C,0.100000*%
%TD*%
G04 APERTURE END LIST*
D10*
%TO.N,GND*%
%TO.C,H4*%
X162090100Y-121564400D03*
%TD*%
%TO.N,GND*%
%TO.C,H1*%
X136690100Y-79654400D03*
%TD*%
%TO.N,GND*%
%TO.C,H2*%
X136690100Y-121564400D03*
%TD*%
%TO.N,GND*%
%TO.C,H3*%
X162090100Y-79654400D03*
%TD*%
D11*
%TO.N,GND*%
%TO.C,SWD*%
X139738100Y-91008200D03*
D12*
%TO.N,SWCLK*%
X139738100Y-93548200D03*
%TO.N,SWDIO*%
X139738100Y-96088200D03*
%TO.N,+3V3*%
X139738100Y-98628200D03*
%TD*%
%TO.N,+3V3*%
%TO.C,UART*%
X139738100Y-102997000D03*
%TO.N,UART1_TX*%
X139738100Y-105537000D03*
%TO.N,UART1_RX*%
X139738100Y-108077000D03*
D11*
%TO.N,GND*%
X139738100Y-110617000D03*
%TD*%
%TO.N,VCC*%
%TO.C,J3*%
X148120100Y-121564400D03*
D12*
%TO.N,GND*%
X150660100Y-121564400D03*
%TD*%
D13*
%TO.N,GND*%
X160444968Y-101068326D03*
X155386675Y-99063754D03*
X154826831Y-95243735D03*
X160312100Y-94386400D03*
X157377131Y-81414449D03*
X157710040Y-101394371D03*
X159695982Y-106235629D03*
X140381255Y-101659849D03*
X139738100Y-111912400D03*
X139738100Y-89560400D03*
X139536800Y-81231100D03*
X140314646Y-122470447D03*
X145096371Y-123291395D03*
X153528803Y-123316728D03*
X157772100Y-117146400D03*
X160337500Y-108839000D03*
X146850100Y-98044000D03*
X150837900Y-106349800D03*
X153377900Y-111353600D03*
X148450300Y-113385600D03*
X154665600Y-115214400D03*
X144259300Y-115163600D03*
X146951700Y-91160600D03*
X144360900Y-99872800D03*
X143776700Y-106259400D03*
%TO.N,+3V3*%
X160312100Y-98704400D03*
X156502100Y-100990400D03*
X139484967Y-99883934D03*
X140246100Y-120548400D03*
X157772100Y-121310400D03*
X146697700Y-105892600D03*
X151828500Y-105892600D03*
X146697700Y-102641400D03*
X149898100Y-112979200D03*
X143548100Y-112166400D03*
X147053300Y-86080600D03*
X143827500Y-92964000D03*
X152266376Y-109447150D03*
X158826200Y-111594900D03*
X148082000Y-110605400D03*
X154388739Y-107063057D03*
%TO.N,+3.3VA*%
X153365200Y-107594400D03*
X151879300Y-102285800D03*
X154686000Y-111658400D03*
%TO.N,OSC8_IN*%
X156357810Y-106297410D03*
%TO.N,OSC32_IN*%
X158051500Y-109270800D03*
%TO.N,OSC32_OUT*%
X158051500Y-106680000D03*
%TO.N,OSC8_OUT*%
X159680793Y-101943179D03*
%TO.N,VCC*%
X162109974Y-84298165D03*
X135779941Y-84318309D03*
X161328100Y-118516400D03*
X151968200Y-119468900D03*
%TO.N,Net-(C27-Pad2)*%
X160058100Y-93116400D03*
%TO.N,Net-(C28-Pad1)*%
X158697442Y-101144581D03*
%TO.N,Net-(D2-Pad1)*%
X155206700Y-109194600D03*
%TO.N,Net-(D3-Pad1)*%
X142582900Y-99517200D03*
%TO.N,UART1_RX*%
X143094992Y-104237508D03*
%TO.N,UART1_TX*%
X143802100Y-103530400D03*
%TO.N,I2C1_SDA*%
X149390100Y-109880400D03*
X151365100Y-109880400D03*
%TO.N,I2C2_SCL*%
X146088100Y-89560400D03*
X147104100Y-101244400D03*
%TO.N,I2C2_SDA*%
X144774079Y-90284053D03*
X144818100Y-97205800D03*
%TO.N,SPI1_CE*%
X147530100Y-94687517D03*
X152230801Y-98012451D03*
%TO.N,SPI1_SCK*%
X151676100Y-97180400D03*
X150152100Y-95148400D03*
%TO.N,ADC_BATT*%
X149085300Y-106451400D03*
X141160500Y-109524800D03*
X144335500Y-108700400D03*
%TO.N,M1_PWM*%
X152143715Y-101311666D03*
X152835097Y-88835400D03*
%TO.N,M2_PWM*%
X155168600Y-101117400D03*
%TO.N,M3_PWM*%
X153581100Y-100025200D03*
X153835100Y-88835400D03*
%TO.N,M4_PWM*%
X154495500Y-96545400D03*
%TO.N,Net-(Q3-Pad2)*%
X144360900Y-116484400D03*
%TO.N,Net-(Q4-Pad2)*%
X154444700Y-113842800D03*
%TD*%
D14*
%TO.N,+3V3*%
X160569751Y-77801850D02*
X160237550Y-78134051D01*
X159976540Y-78524679D01*
X159796754Y-78958721D01*
X159705100Y-79419498D01*
X159705100Y-79889302D01*
X159796754Y-80350079D01*
X159976540Y-80784121D01*
X160237550Y-81174749D01*
X160569751Y-81506950D01*
X160960379Y-81767960D01*
X161394421Y-81947746D01*
X161855198Y-82039400D01*
X162325002Y-82039400D01*
X162785779Y-81947746D01*
X163219821Y-81767960D01*
X163610449Y-81506950D01*
X163942650Y-81174749D01*
X163970100Y-81133667D01*
X163970101Y-120085134D01*
X163942650Y-120044051D01*
X163610449Y-119711850D01*
X163219821Y-119450840D01*
X162785779Y-119271054D01*
X162325002Y-119179400D01*
X162128811Y-119179400D01*
X162132037Y-119176174D01*
X162245305Y-119006656D01*
X162323326Y-118818298D01*
X162363100Y-118618339D01*
X162363100Y-118414461D01*
X162323326Y-118214502D01*
X162245305Y-118026144D01*
X162132037Y-117856626D01*
X161987874Y-117712463D01*
X161818356Y-117599195D01*
X161629998Y-117521174D01*
X161430039Y-117481400D01*
X161226161Y-117481400D01*
X161026202Y-117521174D01*
X160837844Y-117599195D01*
X160668326Y-117712463D01*
X160524163Y-117856626D01*
X160410895Y-118026144D01*
X160332874Y-118214502D01*
X160293100Y-118414461D01*
X160293100Y-118618339D01*
X160332874Y-118818298D01*
X160410895Y-119006656D01*
X160524163Y-119176174D01*
X160668326Y-119320337D01*
X160837844Y-119433605D01*
X160929410Y-119471533D01*
X160569751Y-119711850D01*
X160237550Y-120044051D01*
X159976540Y-120434679D01*
X159796754Y-120868721D01*
X159705100Y-121329498D01*
X159705100Y-121799302D01*
X159796754Y-122260079D01*
X159976540Y-122694121D01*
X160237550Y-123084749D01*
X160569751Y-123416950D01*
X160610833Y-123444400D01*
X154558684Y-123444400D01*
X154563803Y-123418667D01*
X154563803Y-123214789D01*
X154524029Y-123014830D01*
X154446008Y-122826472D01*
X154332740Y-122656954D01*
X154188577Y-122512791D01*
X154019059Y-122399523D01*
X153830701Y-122321502D01*
X153630742Y-122281728D01*
X153426864Y-122281728D01*
X153226905Y-122321502D01*
X153038547Y-122399523D01*
X152869029Y-122512791D01*
X152724866Y-122656954D01*
X152611598Y-122826472D01*
X152533577Y-123014830D01*
X152493803Y-123214789D01*
X152493803Y-123418667D01*
X152498922Y-123444400D01*
X146121213Y-123444400D01*
X146131371Y-123393334D01*
X146131371Y-123189456D01*
X146091597Y-122989497D01*
X146013576Y-122801139D01*
X145900308Y-122631621D01*
X145756145Y-122487458D01*
X145586627Y-122374190D01*
X145398269Y-122296169D01*
X145198310Y-122256395D01*
X144994432Y-122256395D01*
X144794473Y-122296169D01*
X144606115Y-122374190D01*
X144436597Y-122487458D01*
X144292434Y-122631621D01*
X144179166Y-122801139D01*
X144101145Y-122989497D01*
X144061371Y-123189456D01*
X144061371Y-123393334D01*
X144071529Y-123444400D01*
X140667901Y-123444400D01*
X140804902Y-123387652D01*
X140974420Y-123274384D01*
X141118583Y-123130221D01*
X141231851Y-122960703D01*
X141309872Y-122772345D01*
X141349646Y-122572386D01*
X141349646Y-122368508D01*
X141309872Y-122168549D01*
X141231851Y-121980191D01*
X141118583Y-121810673D01*
X140974420Y-121666510D01*
X140804902Y-121553242D01*
X140616544Y-121475221D01*
X140416585Y-121435447D01*
X140212707Y-121435447D01*
X140012748Y-121475221D01*
X139824390Y-121553242D01*
X139654872Y-121666510D01*
X139510709Y-121810673D01*
X139397441Y-121980191D01*
X139319420Y-122168549D01*
X139279646Y-122368508D01*
X139279646Y-122572386D01*
X139319420Y-122772345D01*
X139397441Y-122960703D01*
X139510709Y-123130221D01*
X139654872Y-123274384D01*
X139824390Y-123387652D01*
X139961391Y-123444400D01*
X138169367Y-123444400D01*
X138210449Y-123416950D01*
X138542650Y-123084749D01*
X138803660Y-122694121D01*
X138983446Y-122260079D01*
X139075100Y-121799302D01*
X139075100Y-121329498D01*
X138983446Y-120868721D01*
X138919525Y-120714400D01*
X146632028Y-120714400D01*
X146632028Y-122414400D01*
X146644288Y-122538882D01*
X146680598Y-122658580D01*
X146739563Y-122768894D01*
X146818915Y-122865585D01*
X146915606Y-122944937D01*
X147025920Y-123003902D01*
X147145618Y-123040212D01*
X147270100Y-123052472D01*
X148970100Y-123052472D01*
X149094582Y-123040212D01*
X149214280Y-123003902D01*
X149324594Y-122944937D01*
X149421285Y-122865585D01*
X149500637Y-122768894D01*
X149559602Y-122658580D01*
X149581613Y-122586020D01*
X149713468Y-122717875D01*
X149956689Y-122880390D01*
X150226942Y-122992332D01*
X150513840Y-123049400D01*
X150806360Y-123049400D01*
X151093258Y-122992332D01*
X151363511Y-122880390D01*
X151606732Y-122717875D01*
X151813575Y-122511032D01*
X151976090Y-122267811D01*
X152088032Y-121997558D01*
X152145100Y-121710660D01*
X152145100Y-121418140D01*
X152088032Y-121131242D01*
X151976090Y-120860989D01*
X151813575Y-120617768D01*
X151655429Y-120459622D01*
X151666302Y-120464126D01*
X151866261Y-120503900D01*
X152070139Y-120503900D01*
X152270098Y-120464126D01*
X152458456Y-120386105D01*
X152627974Y-120272837D01*
X152772137Y-120128674D01*
X152885405Y-119959156D01*
X152963426Y-119770798D01*
X153003200Y-119570839D01*
X153003200Y-119366961D01*
X152963426Y-119167002D01*
X152885405Y-118978644D01*
X152772137Y-118809126D01*
X152627974Y-118664963D01*
X152458456Y-118551695D01*
X152270098Y-118473674D01*
X152070139Y-118433900D01*
X151866261Y-118433900D01*
X151666302Y-118473674D01*
X151477944Y-118551695D01*
X151308426Y-118664963D01*
X151164263Y-118809126D01*
X151050995Y-118978644D01*
X150972974Y-119167002D01*
X150933200Y-119366961D01*
X150933200Y-119570839D01*
X150972974Y-119770798D01*
X151050995Y-119959156D01*
X151164263Y-120128674D01*
X151227776Y-120192187D01*
X151093258Y-120136468D01*
X150806360Y-120079400D01*
X150513840Y-120079400D01*
X150226942Y-120136468D01*
X149956689Y-120248410D01*
X149713468Y-120410925D01*
X149581613Y-120542780D01*
X149559602Y-120470220D01*
X149500637Y-120359906D01*
X149421285Y-120263215D01*
X149324594Y-120183863D01*
X149214280Y-120124898D01*
X149094582Y-120088588D01*
X148970100Y-120076328D01*
X147270100Y-120076328D01*
X147145618Y-120088588D01*
X147025920Y-120124898D01*
X146915606Y-120183863D01*
X146818915Y-120263215D01*
X146739563Y-120359906D01*
X146680598Y-120470220D01*
X146644288Y-120589918D01*
X146632028Y-120714400D01*
X138919525Y-120714400D01*
X138803660Y-120434679D01*
X138542650Y-120044051D01*
X138210449Y-119711850D01*
X137819821Y-119450840D01*
X137385779Y-119271054D01*
X136925002Y-119179400D01*
X136455198Y-119179400D01*
X135994421Y-119271054D01*
X135560379Y-119450840D01*
X135169751Y-119711850D01*
X134837550Y-120044051D01*
X134810100Y-120085133D01*
X134810100Y-115061661D01*
X143224300Y-115061661D01*
X143224300Y-115265539D01*
X143264074Y-115465498D01*
X143342095Y-115653856D01*
X143455363Y-115823374D01*
X143516769Y-115884780D01*
X143443695Y-115994144D01*
X143365674Y-116182502D01*
X143325900Y-116382461D01*
X143325900Y-116586339D01*
X143365674Y-116786298D01*
X143443695Y-116974656D01*
X143556963Y-117144174D01*
X143701126Y-117288337D01*
X143870644Y-117401605D01*
X144059002Y-117479626D01*
X144258961Y-117519400D01*
X144462839Y-117519400D01*
X144662798Y-117479626D01*
X144851156Y-117401605D01*
X145020674Y-117288337D01*
X145164837Y-117144174D01*
X145231462Y-117044461D01*
X156737100Y-117044461D01*
X156737100Y-117248339D01*
X156776874Y-117448298D01*
X156854895Y-117636656D01*
X156968163Y-117806174D01*
X157112326Y-117950337D01*
X157281844Y-118063605D01*
X157470202Y-118141626D01*
X157670161Y-118181400D01*
X157874039Y-118181400D01*
X158073998Y-118141626D01*
X158262356Y-118063605D01*
X158431874Y-117950337D01*
X158576037Y-117806174D01*
X158689305Y-117636656D01*
X158767326Y-117448298D01*
X158807100Y-117248339D01*
X158807100Y-117044461D01*
X158767326Y-116844502D01*
X158689305Y-116656144D01*
X158576037Y-116486626D01*
X158431874Y-116342463D01*
X158262356Y-116229195D01*
X158073998Y-116151174D01*
X157874039Y-116111400D01*
X157670161Y-116111400D01*
X157470202Y-116151174D01*
X157281844Y-116229195D01*
X157112326Y-116342463D01*
X156968163Y-116486626D01*
X156854895Y-116656144D01*
X156776874Y-116844502D01*
X156737100Y-117044461D01*
X145231462Y-117044461D01*
X145278105Y-116974656D01*
X145356126Y-116786298D01*
X145395900Y-116586339D01*
X145395900Y-116382461D01*
X145356126Y-116182502D01*
X145278105Y-115994144D01*
X145164837Y-115824626D01*
X145103431Y-115763220D01*
X145176505Y-115653856D01*
X145254526Y-115465498D01*
X145294300Y-115265539D01*
X145294300Y-115061661D01*
X145254526Y-114861702D01*
X145176505Y-114673344D01*
X145063237Y-114503826D01*
X144919074Y-114359663D01*
X144749556Y-114246395D01*
X144561198Y-114168374D01*
X144361239Y-114128600D01*
X144157361Y-114128600D01*
X143957402Y-114168374D01*
X143769044Y-114246395D01*
X143599526Y-114359663D01*
X143455363Y-114503826D01*
X143342095Y-114673344D01*
X143264074Y-114861702D01*
X143224300Y-115061661D01*
X134810100Y-115061661D01*
X134810100Y-113283661D01*
X147415300Y-113283661D01*
X147415300Y-113487539D01*
X147455074Y-113687498D01*
X147533095Y-113875856D01*
X147646363Y-114045374D01*
X147790526Y-114189537D01*
X147960044Y-114302805D01*
X148148402Y-114380826D01*
X148348361Y-114420600D01*
X148552239Y-114420600D01*
X148752198Y-114380826D01*
X148940556Y-114302805D01*
X149110074Y-114189537D01*
X149254237Y-114045374D01*
X149367505Y-113875856D01*
X149423422Y-113740861D01*
X153409700Y-113740861D01*
X153409700Y-113944739D01*
X153449474Y-114144698D01*
X153527495Y-114333056D01*
X153640763Y-114502574D01*
X153784926Y-114646737D01*
X153795428Y-114653754D01*
X153748395Y-114724144D01*
X153670374Y-114912502D01*
X153630600Y-115112461D01*
X153630600Y-115316339D01*
X153670374Y-115516298D01*
X153748395Y-115704656D01*
X153861663Y-115874174D01*
X154005826Y-116018337D01*
X154175344Y-116131605D01*
X154363702Y-116209626D01*
X154563661Y-116249400D01*
X154767539Y-116249400D01*
X154967498Y-116209626D01*
X155155856Y-116131605D01*
X155325374Y-116018337D01*
X155469537Y-115874174D01*
X155582805Y-115704656D01*
X155660826Y-115516298D01*
X155700600Y-115316339D01*
X155700600Y-115112461D01*
X155660826Y-114912502D01*
X155582805Y-114724144D01*
X155469537Y-114554626D01*
X155325374Y-114410463D01*
X155314872Y-114403446D01*
X155361905Y-114333056D01*
X155439926Y-114144698D01*
X155479700Y-113944739D01*
X155479700Y-113740861D01*
X155439926Y-113540902D01*
X155361905Y-113352544D01*
X155248637Y-113183026D01*
X155104474Y-113038863D01*
X154934956Y-112925595D01*
X154746598Y-112847574D01*
X154546639Y-112807800D01*
X154342761Y-112807800D01*
X154142802Y-112847574D01*
X153954444Y-112925595D01*
X153784926Y-113038863D01*
X153640763Y-113183026D01*
X153527495Y-113352544D01*
X153449474Y-113540902D01*
X153409700Y-113740861D01*
X149423422Y-113740861D01*
X149445526Y-113687498D01*
X149485300Y-113487539D01*
X149485300Y-113283661D01*
X149445526Y-113083702D01*
X149367505Y-112895344D01*
X149254237Y-112725826D01*
X149110074Y-112581663D01*
X148940556Y-112468395D01*
X148752198Y-112390374D01*
X148552239Y-112350600D01*
X148348361Y-112350600D01*
X148148402Y-112390374D01*
X147960044Y-112468395D01*
X147790526Y-112581663D01*
X147646363Y-112725826D01*
X147533095Y-112895344D01*
X147455074Y-113083702D01*
X147415300Y-113283661D01*
X134810100Y-113283661D01*
X134810100Y-109767000D01*
X138250028Y-109767000D01*
X138250028Y-111467000D01*
X138262288Y-111591482D01*
X138298598Y-111711180D01*
X138357563Y-111821494D01*
X138436915Y-111918185D01*
X138533606Y-111997537D01*
X138643920Y-112056502D01*
X138715825Y-112078314D01*
X138742874Y-112214298D01*
X138820895Y-112402656D01*
X138934163Y-112572174D01*
X139078326Y-112716337D01*
X139247844Y-112829605D01*
X139436202Y-112907626D01*
X139636161Y-112947400D01*
X139840039Y-112947400D01*
X140039998Y-112907626D01*
X140228356Y-112829605D01*
X140397874Y-112716337D01*
X140542037Y-112572174D01*
X140655305Y-112402656D01*
X140733326Y-112214298D01*
X140760375Y-112078314D01*
X140832280Y-112056502D01*
X140942594Y-111997537D01*
X141039285Y-111918185D01*
X141118637Y-111821494D01*
X141177602Y-111711180D01*
X141213912Y-111591482D01*
X141226172Y-111467000D01*
X141226172Y-111251661D01*
X152342900Y-111251661D01*
X152342900Y-111455539D01*
X152382674Y-111655498D01*
X152460695Y-111843856D01*
X152573963Y-112013374D01*
X152718126Y-112157537D01*
X152887644Y-112270805D01*
X153076002Y-112348826D01*
X153275961Y-112388600D01*
X153479839Y-112388600D01*
X153679798Y-112348826D01*
X153854259Y-112276562D01*
X153882063Y-112318174D01*
X154026226Y-112462337D01*
X154195744Y-112575605D01*
X154384102Y-112653626D01*
X154584061Y-112693400D01*
X154787939Y-112693400D01*
X154987898Y-112653626D01*
X155176256Y-112575605D01*
X155345774Y-112462337D01*
X155489937Y-112318174D01*
X155603205Y-112148656D01*
X155681226Y-111960298D01*
X155721000Y-111760339D01*
X155721000Y-111556461D01*
X155681226Y-111356502D01*
X155603205Y-111168144D01*
X155489937Y-110998626D01*
X155345774Y-110854463D01*
X155176256Y-110741195D01*
X154987898Y-110663174D01*
X154787939Y-110623400D01*
X154584061Y-110623400D01*
X154384102Y-110663174D01*
X154209641Y-110735438D01*
X154181837Y-110693826D01*
X154037674Y-110549663D01*
X153868156Y-110436395D01*
X153679798Y-110358374D01*
X153479839Y-110318600D01*
X153275961Y-110318600D01*
X153076002Y-110358374D01*
X152887644Y-110436395D01*
X152718126Y-110549663D01*
X152573963Y-110693826D01*
X152460695Y-110863344D01*
X152382674Y-111051702D01*
X152342900Y-111251661D01*
X141226172Y-111251661D01*
X141226172Y-110559800D01*
X141262439Y-110559800D01*
X141462398Y-110520026D01*
X141650756Y-110442005D01*
X141820274Y-110328737D01*
X141964437Y-110184574D01*
X142077705Y-110015056D01*
X142155726Y-109826698D01*
X142165320Y-109778461D01*
X148355100Y-109778461D01*
X148355100Y-109982339D01*
X148394874Y-110182298D01*
X148472895Y-110370656D01*
X148586163Y-110540174D01*
X148730326Y-110684337D01*
X148899844Y-110797605D01*
X149088202Y-110875626D01*
X149288161Y-110915400D01*
X149492039Y-110915400D01*
X149691998Y-110875626D01*
X149880356Y-110797605D01*
X150049874Y-110684337D01*
X150194037Y-110540174D01*
X150307305Y-110370656D01*
X150377600Y-110200950D01*
X150447895Y-110370656D01*
X150561163Y-110540174D01*
X150705326Y-110684337D01*
X150874844Y-110797605D01*
X151063202Y-110875626D01*
X151263161Y-110915400D01*
X151467039Y-110915400D01*
X151666998Y-110875626D01*
X151855356Y-110797605D01*
X152024874Y-110684337D01*
X152169037Y-110540174D01*
X152282305Y-110370656D01*
X152360326Y-110182298D01*
X152400100Y-109982339D01*
X152400100Y-109778461D01*
X152360326Y-109578502D01*
X152282305Y-109390144D01*
X152169037Y-109220626D01*
X152041072Y-109092661D01*
X154171700Y-109092661D01*
X154171700Y-109296539D01*
X154211474Y-109496498D01*
X154289495Y-109684856D01*
X154402763Y-109854374D01*
X154546926Y-109998537D01*
X154716444Y-110111805D01*
X154904802Y-110189826D01*
X155104761Y-110229600D01*
X155308639Y-110229600D01*
X155508598Y-110189826D01*
X155696956Y-110111805D01*
X155866474Y-109998537D01*
X156010637Y-109854374D01*
X156123905Y-109684856D01*
X156201926Y-109496498D01*
X156241700Y-109296539D01*
X156241700Y-109168861D01*
X157016500Y-109168861D01*
X157016500Y-109372739D01*
X157056274Y-109572698D01*
X157134295Y-109761056D01*
X157247563Y-109930574D01*
X157391726Y-110074737D01*
X157561244Y-110188005D01*
X157749602Y-110266026D01*
X157949561Y-110305800D01*
X158153439Y-110305800D01*
X158353398Y-110266026D01*
X158541756Y-110188005D01*
X158711274Y-110074737D01*
X158855437Y-109930574D01*
X158968705Y-109761056D01*
X159046726Y-109572698D01*
X159086500Y-109372739D01*
X159086500Y-109168861D01*
X159046726Y-108968902D01*
X158968705Y-108780544D01*
X158939651Y-108737061D01*
X159302500Y-108737061D01*
X159302500Y-108940939D01*
X159342274Y-109140898D01*
X159420295Y-109329256D01*
X159533563Y-109498774D01*
X159677726Y-109642937D01*
X159847244Y-109756205D01*
X160035602Y-109834226D01*
X160235561Y-109874000D01*
X160439439Y-109874000D01*
X160639398Y-109834226D01*
X160827756Y-109756205D01*
X160997274Y-109642937D01*
X161141437Y-109498774D01*
X161254705Y-109329256D01*
X161332726Y-109140898D01*
X161372500Y-108940939D01*
X161372500Y-108737061D01*
X161332726Y-108537102D01*
X161254705Y-108348744D01*
X161141437Y-108179226D01*
X160997274Y-108035063D01*
X160827756Y-107921795D01*
X160639398Y-107843774D01*
X160439439Y-107804000D01*
X160235561Y-107804000D01*
X160035602Y-107843774D01*
X159847244Y-107921795D01*
X159677726Y-108035063D01*
X159533563Y-108179226D01*
X159420295Y-108348744D01*
X159342274Y-108537102D01*
X159302500Y-108737061D01*
X158939651Y-108737061D01*
X158855437Y-108611026D01*
X158711274Y-108466863D01*
X158541756Y-108353595D01*
X158353398Y-108275574D01*
X158153439Y-108235800D01*
X157949561Y-108235800D01*
X157749602Y-108275574D01*
X157561244Y-108353595D01*
X157391726Y-108466863D01*
X157247563Y-108611026D01*
X157134295Y-108780544D01*
X157056274Y-108968902D01*
X157016500Y-109168861D01*
X156241700Y-109168861D01*
X156241700Y-109092661D01*
X156201926Y-108892702D01*
X156123905Y-108704344D01*
X156010637Y-108534826D01*
X155866474Y-108390663D01*
X155696956Y-108277395D01*
X155508598Y-108199374D01*
X155308639Y-108159600D01*
X155104761Y-108159600D01*
X154904802Y-108199374D01*
X154716444Y-108277395D01*
X154546926Y-108390663D01*
X154402763Y-108534826D01*
X154289495Y-108704344D01*
X154211474Y-108892702D01*
X154171700Y-109092661D01*
X152041072Y-109092661D01*
X152024874Y-109076463D01*
X151855356Y-108963195D01*
X151666998Y-108885174D01*
X151467039Y-108845400D01*
X151263161Y-108845400D01*
X151063202Y-108885174D01*
X150874844Y-108963195D01*
X150705326Y-109076463D01*
X150561163Y-109220626D01*
X150447895Y-109390144D01*
X150377600Y-109559850D01*
X150307305Y-109390144D01*
X150194037Y-109220626D01*
X150049874Y-109076463D01*
X149880356Y-108963195D01*
X149691998Y-108885174D01*
X149492039Y-108845400D01*
X149288161Y-108845400D01*
X149088202Y-108885174D01*
X148899844Y-108963195D01*
X148730326Y-109076463D01*
X148586163Y-109220626D01*
X148472895Y-109390144D01*
X148394874Y-109578502D01*
X148355100Y-109778461D01*
X142165320Y-109778461D01*
X142195500Y-109626739D01*
X142195500Y-109422861D01*
X142155726Y-109222902D01*
X142077705Y-109034544D01*
X141964437Y-108865026D01*
X141820274Y-108720863D01*
X141650756Y-108607595D01*
X141628705Y-108598461D01*
X143300500Y-108598461D01*
X143300500Y-108802339D01*
X143340274Y-109002298D01*
X143418295Y-109190656D01*
X143531563Y-109360174D01*
X143675726Y-109504337D01*
X143845244Y-109617605D01*
X144033602Y-109695626D01*
X144233561Y-109735400D01*
X144437439Y-109735400D01*
X144637398Y-109695626D01*
X144825756Y-109617605D01*
X144995274Y-109504337D01*
X145139437Y-109360174D01*
X145252705Y-109190656D01*
X145330726Y-109002298D01*
X145370500Y-108802339D01*
X145370500Y-108598461D01*
X145330726Y-108398502D01*
X145252705Y-108210144D01*
X145139437Y-108040626D01*
X144995274Y-107896463D01*
X144825756Y-107783195D01*
X144637398Y-107705174D01*
X144437439Y-107665400D01*
X144233561Y-107665400D01*
X144033602Y-107705174D01*
X143845244Y-107783195D01*
X143675726Y-107896463D01*
X143531563Y-108040626D01*
X143418295Y-108210144D01*
X143340274Y-108398502D01*
X143300500Y-108598461D01*
X141628705Y-108598461D01*
X141462398Y-108529574D01*
X141262439Y-108489800D01*
X141170081Y-108489800D01*
X141223100Y-108223260D01*
X141223100Y-107930740D01*
X141166032Y-107643842D01*
X141103329Y-107492461D01*
X152330200Y-107492461D01*
X152330200Y-107696339D01*
X152369974Y-107896298D01*
X152447995Y-108084656D01*
X152561263Y-108254174D01*
X152705426Y-108398337D01*
X152874944Y-108511605D01*
X153063302Y-108589626D01*
X153263261Y-108629400D01*
X153467139Y-108629400D01*
X153667098Y-108589626D01*
X153855456Y-108511605D01*
X154024974Y-108398337D01*
X154169137Y-108254174D01*
X154282405Y-108084656D01*
X154360426Y-107896298D01*
X154400200Y-107696339D01*
X154400200Y-107492461D01*
X154360426Y-107292502D01*
X154282405Y-107104144D01*
X154169137Y-106934626D01*
X154024974Y-106790463D01*
X153855456Y-106677195D01*
X153667098Y-106599174D01*
X153467139Y-106559400D01*
X153263261Y-106559400D01*
X153063302Y-106599174D01*
X152874944Y-106677195D01*
X152705426Y-106790463D01*
X152561263Y-106934626D01*
X152447995Y-107104144D01*
X152369974Y-107292502D01*
X152330200Y-107492461D01*
X141103329Y-107492461D01*
X141054090Y-107373589D01*
X140891575Y-107130368D01*
X140684732Y-106923525D01*
X140510340Y-106807000D01*
X140684732Y-106690475D01*
X140891575Y-106483632D01*
X141054090Y-106240411D01*
X141088448Y-106157461D01*
X142741700Y-106157461D01*
X142741700Y-106361339D01*
X142781474Y-106561298D01*
X142859495Y-106749656D01*
X142972763Y-106919174D01*
X143116926Y-107063337D01*
X143286444Y-107176605D01*
X143474802Y-107254626D01*
X143674761Y-107294400D01*
X143878639Y-107294400D01*
X144078598Y-107254626D01*
X144266956Y-107176605D01*
X144436474Y-107063337D01*
X144580637Y-106919174D01*
X144693905Y-106749656D01*
X144771926Y-106561298D01*
X144811700Y-106361339D01*
X144811700Y-106349461D01*
X148050300Y-106349461D01*
X148050300Y-106553339D01*
X148090074Y-106753298D01*
X148168095Y-106941656D01*
X148281363Y-107111174D01*
X148425526Y-107255337D01*
X148595044Y-107368605D01*
X148783402Y-107446626D01*
X148983361Y-107486400D01*
X149187239Y-107486400D01*
X149387198Y-107446626D01*
X149575556Y-107368605D01*
X149745074Y-107255337D01*
X149889237Y-107111174D01*
X149995543Y-106952075D01*
X150033963Y-107009574D01*
X150178126Y-107153737D01*
X150347644Y-107267005D01*
X150536002Y-107345026D01*
X150735961Y-107384800D01*
X150939839Y-107384800D01*
X151139798Y-107345026D01*
X151328156Y-107267005D01*
X151497674Y-107153737D01*
X151641837Y-107009574D01*
X151755105Y-106840056D01*
X151833126Y-106651698D01*
X151872900Y-106451739D01*
X151872900Y-106247861D01*
X151862480Y-106195471D01*
X155322810Y-106195471D01*
X155322810Y-106399349D01*
X155362584Y-106599308D01*
X155440605Y-106787666D01*
X155553873Y-106957184D01*
X155698036Y-107101347D01*
X155867554Y-107214615D01*
X156055912Y-107292636D01*
X156255871Y-107332410D01*
X156459749Y-107332410D01*
X156659708Y-107292636D01*
X156848066Y-107214615D01*
X157017584Y-107101347D01*
X157079928Y-107039003D01*
X157134295Y-107170256D01*
X157247563Y-107339774D01*
X157391726Y-107483937D01*
X157561244Y-107597205D01*
X157749602Y-107675226D01*
X157949561Y-107715000D01*
X158153439Y-107715000D01*
X158353398Y-107675226D01*
X158541756Y-107597205D01*
X158711274Y-107483937D01*
X158855437Y-107339774D01*
X158968705Y-107170256D01*
X159026755Y-107030113D01*
X159036208Y-107039566D01*
X159205726Y-107152834D01*
X159394084Y-107230855D01*
X159594043Y-107270629D01*
X159797921Y-107270629D01*
X159997880Y-107230855D01*
X160186238Y-107152834D01*
X160355756Y-107039566D01*
X160499919Y-106895403D01*
X160613187Y-106725885D01*
X160691208Y-106537527D01*
X160730982Y-106337568D01*
X160730982Y-106133690D01*
X160691208Y-105933731D01*
X160613187Y-105745373D01*
X160499919Y-105575855D01*
X160355756Y-105431692D01*
X160186238Y-105318424D01*
X159997880Y-105240403D01*
X159797921Y-105200629D01*
X159594043Y-105200629D01*
X159394084Y-105240403D01*
X159205726Y-105318424D01*
X159036208Y-105431692D01*
X158892045Y-105575855D01*
X158778777Y-105745373D01*
X158720727Y-105885516D01*
X158711274Y-105876063D01*
X158541756Y-105762795D01*
X158353398Y-105684774D01*
X158153439Y-105645000D01*
X157949561Y-105645000D01*
X157749602Y-105684774D01*
X157561244Y-105762795D01*
X157391726Y-105876063D01*
X157329382Y-105938407D01*
X157275015Y-105807154D01*
X157161747Y-105637636D01*
X157017584Y-105493473D01*
X156848066Y-105380205D01*
X156659708Y-105302184D01*
X156459749Y-105262410D01*
X156255871Y-105262410D01*
X156055912Y-105302184D01*
X155867554Y-105380205D01*
X155698036Y-105493473D01*
X155553873Y-105637636D01*
X155440605Y-105807154D01*
X155362584Y-105995512D01*
X155322810Y-106195471D01*
X151862480Y-106195471D01*
X151833126Y-106047902D01*
X151755105Y-105859544D01*
X151641837Y-105690026D01*
X151497674Y-105545863D01*
X151328156Y-105432595D01*
X151139798Y-105354574D01*
X150939839Y-105314800D01*
X150735961Y-105314800D01*
X150536002Y-105354574D01*
X150347644Y-105432595D01*
X150178126Y-105545863D01*
X150033963Y-105690026D01*
X149927657Y-105849125D01*
X149889237Y-105791626D01*
X149745074Y-105647463D01*
X149575556Y-105534195D01*
X149387198Y-105456174D01*
X149187239Y-105416400D01*
X148983361Y-105416400D01*
X148783402Y-105456174D01*
X148595044Y-105534195D01*
X148425526Y-105647463D01*
X148281363Y-105791626D01*
X148168095Y-105961144D01*
X148090074Y-106149502D01*
X148050300Y-106349461D01*
X144811700Y-106349461D01*
X144811700Y-106157461D01*
X144771926Y-105957502D01*
X144693905Y-105769144D01*
X144580637Y-105599626D01*
X144436474Y-105455463D01*
X144266956Y-105342195D01*
X144078598Y-105264174D01*
X143878639Y-105224400D01*
X143674761Y-105224400D01*
X143474802Y-105264174D01*
X143286444Y-105342195D01*
X143116926Y-105455463D01*
X142972763Y-105599626D01*
X142859495Y-105769144D01*
X142781474Y-105957502D01*
X142741700Y-106157461D01*
X141088448Y-106157461D01*
X141166032Y-105970158D01*
X141223100Y-105683260D01*
X141223100Y-105390740D01*
X141166032Y-105103842D01*
X141054090Y-104833589D01*
X140891575Y-104590368D01*
X140684732Y-104383525D01*
X140502566Y-104261805D01*
X140619455Y-104192178D01*
X140682257Y-104135569D01*
X142059992Y-104135569D01*
X142059992Y-104339447D01*
X142099766Y-104539406D01*
X142177787Y-104727764D01*
X142291055Y-104897282D01*
X142435218Y-105041445D01*
X142604736Y-105154713D01*
X142793094Y-105232734D01*
X142993053Y-105272508D01*
X143196931Y-105272508D01*
X143396890Y-105232734D01*
X143585248Y-105154713D01*
X143754766Y-105041445D01*
X143898929Y-104897282D01*
X144012197Y-104727764D01*
X144090218Y-104539406D01*
X144092504Y-104527912D01*
X144103998Y-104525626D01*
X144292356Y-104447605D01*
X144461874Y-104334337D01*
X144606037Y-104190174D01*
X144719305Y-104020656D01*
X144797326Y-103832298D01*
X144837100Y-103632339D01*
X144837100Y-103428461D01*
X144797326Y-103228502D01*
X144719305Y-103040144D01*
X144606037Y-102870626D01*
X144461874Y-102726463D01*
X144292356Y-102613195D01*
X144103998Y-102535174D01*
X143904039Y-102495400D01*
X143700161Y-102495400D01*
X143500202Y-102535174D01*
X143311844Y-102613195D01*
X143142326Y-102726463D01*
X142998163Y-102870626D01*
X142884895Y-103040144D01*
X142806874Y-103228502D01*
X142804588Y-103239996D01*
X142793094Y-103242282D01*
X142604736Y-103320303D01*
X142435218Y-103433571D01*
X142291055Y-103577734D01*
X142177787Y-103747252D01*
X142099766Y-103935610D01*
X142059992Y-104135569D01*
X140682257Y-104135569D01*
X140835688Y-103997269D01*
X141009741Y-103763920D01*
X141134925Y-103501099D01*
X141179576Y-103353890D01*
X141058255Y-103124000D01*
X139865100Y-103124000D01*
X139865100Y-103144000D01*
X139611100Y-103144000D01*
X139611100Y-103124000D01*
X138417945Y-103124000D01*
X138296624Y-103353890D01*
X138341275Y-103501099D01*
X138466459Y-103763920D01*
X138640512Y-103997269D01*
X138856745Y-104192178D01*
X138973634Y-104261805D01*
X138791468Y-104383525D01*
X138584625Y-104590368D01*
X138422110Y-104833589D01*
X138310168Y-105103842D01*
X138253100Y-105390740D01*
X138253100Y-105683260D01*
X138310168Y-105970158D01*
X138422110Y-106240411D01*
X138584625Y-106483632D01*
X138791468Y-106690475D01*
X138965860Y-106807000D01*
X138791468Y-106923525D01*
X138584625Y-107130368D01*
X138422110Y-107373589D01*
X138310168Y-107643842D01*
X138253100Y-107930740D01*
X138253100Y-108223260D01*
X138310168Y-108510158D01*
X138422110Y-108780411D01*
X138584625Y-109023632D01*
X138716480Y-109155487D01*
X138643920Y-109177498D01*
X138533606Y-109236463D01*
X138436915Y-109315815D01*
X138357563Y-109412506D01*
X138298598Y-109522820D01*
X138262288Y-109642518D01*
X138250028Y-109767000D01*
X134810100Y-109767000D01*
X134810100Y-102640110D01*
X138296624Y-102640110D01*
X138417945Y-102870000D01*
X139611100Y-102870000D01*
X139611100Y-102850000D01*
X139865100Y-102850000D01*
X139865100Y-102870000D01*
X141058255Y-102870000D01*
X141179576Y-102640110D01*
X141134925Y-102492901D01*
X141095237Y-102409578D01*
X141185192Y-102319623D01*
X141298460Y-102150105D01*
X141376481Y-101961747D01*
X141416255Y-101761788D01*
X141416255Y-101557910D01*
X141376481Y-101357951D01*
X141298460Y-101169593D01*
X141280332Y-101142461D01*
X146069100Y-101142461D01*
X146069100Y-101346339D01*
X146108874Y-101546298D01*
X146186895Y-101734656D01*
X146300163Y-101904174D01*
X146444326Y-102048337D01*
X146613844Y-102161605D01*
X146802202Y-102239626D01*
X147002161Y-102279400D01*
X147206039Y-102279400D01*
X147405998Y-102239626D01*
X147540625Y-102183861D01*
X150844300Y-102183861D01*
X150844300Y-102387739D01*
X150884074Y-102587698D01*
X150962095Y-102776056D01*
X151075363Y-102945574D01*
X151219526Y-103089737D01*
X151389044Y-103203005D01*
X151577402Y-103281026D01*
X151777361Y-103320800D01*
X151981239Y-103320800D01*
X152181198Y-103281026D01*
X152369556Y-103203005D01*
X152539074Y-103089737D01*
X152683237Y-102945574D01*
X152796505Y-102776056D01*
X152874526Y-102587698D01*
X152914300Y-102387739D01*
X152914300Y-102183861D01*
X152884591Y-102034501D01*
X152947652Y-101971440D01*
X153060920Y-101801922D01*
X153138941Y-101613564D01*
X153178715Y-101413605D01*
X153178715Y-101209727D01*
X153138941Y-101009768D01*
X153115221Y-100952502D01*
X153279202Y-101020426D01*
X153479161Y-101060200D01*
X153683039Y-101060200D01*
X153882998Y-101020426D01*
X154071356Y-100942405D01*
X154159900Y-100883242D01*
X154133600Y-101015461D01*
X154133600Y-101219339D01*
X154173374Y-101419298D01*
X154251395Y-101607656D01*
X154364663Y-101777174D01*
X154508826Y-101921337D01*
X154678344Y-102034605D01*
X154866702Y-102112626D01*
X155066661Y-102152400D01*
X155270539Y-102152400D01*
X155470498Y-102112626D01*
X155658856Y-102034605D01*
X155828374Y-101921337D01*
X155972537Y-101777174D01*
X156085805Y-101607656D01*
X156163826Y-101419298D01*
X156189061Y-101292432D01*
X156675040Y-101292432D01*
X156675040Y-101496310D01*
X156714814Y-101696269D01*
X156792835Y-101884627D01*
X156906103Y-102054145D01*
X157050266Y-102198308D01*
X157219784Y-102311576D01*
X157408142Y-102389597D01*
X157608101Y-102429371D01*
X157811979Y-102429371D01*
X158011938Y-102389597D01*
X158200296Y-102311576D01*
X158369814Y-102198308D01*
X158422878Y-102145244D01*
X158595503Y-102179581D01*
X158672539Y-102179581D01*
X158685567Y-102245077D01*
X158763588Y-102433435D01*
X158876856Y-102602953D01*
X159021019Y-102747116D01*
X159190537Y-102860384D01*
X159378895Y-102938405D01*
X159578854Y-102978179D01*
X159782732Y-102978179D01*
X159982691Y-102938405D01*
X160171049Y-102860384D01*
X160340567Y-102747116D01*
X160484730Y-102602953D01*
X160597998Y-102433435D01*
X160676019Y-102245077D01*
X160710695Y-102070747D01*
X160746866Y-102063552D01*
X160935224Y-101985531D01*
X161104742Y-101872263D01*
X161248905Y-101728100D01*
X161362173Y-101558582D01*
X161440194Y-101370224D01*
X161479968Y-101170265D01*
X161479968Y-100966387D01*
X161440194Y-100766428D01*
X161362173Y-100578070D01*
X161248905Y-100408552D01*
X161104742Y-100264389D01*
X160935224Y-100151121D01*
X160746866Y-100073100D01*
X160546907Y-100033326D01*
X160343029Y-100033326D01*
X160143070Y-100073100D01*
X159954712Y-100151121D01*
X159785194Y-100264389D01*
X159641031Y-100408552D01*
X159545729Y-100551182D01*
X159501379Y-100484807D01*
X159357216Y-100340644D01*
X159187698Y-100227376D01*
X158999340Y-100149355D01*
X158799381Y-100109581D01*
X158595503Y-100109581D01*
X158395544Y-100149355D01*
X158207186Y-100227376D01*
X158037668Y-100340644D01*
X157984604Y-100393708D01*
X157811979Y-100359371D01*
X157608101Y-100359371D01*
X157408142Y-100399145D01*
X157219784Y-100477166D01*
X157050266Y-100590434D01*
X156906103Y-100734597D01*
X156792835Y-100904115D01*
X156714814Y-101092473D01*
X156675040Y-101292432D01*
X156189061Y-101292432D01*
X156203600Y-101219339D01*
X156203600Y-101015461D01*
X156163826Y-100815502D01*
X156085805Y-100627144D01*
X155972537Y-100457626D01*
X155828374Y-100313463D01*
X155658856Y-100200195D01*
X155470498Y-100122174D01*
X155352757Y-100098754D01*
X155488614Y-100098754D01*
X155688573Y-100058980D01*
X155876931Y-99980959D01*
X156046449Y-99867691D01*
X156190612Y-99723528D01*
X156303880Y-99554010D01*
X156381901Y-99365652D01*
X156421675Y-99165693D01*
X156421675Y-98961815D01*
X156381901Y-98761856D01*
X156303880Y-98573498D01*
X156190612Y-98403980D01*
X156046449Y-98259817D01*
X155876931Y-98146549D01*
X155688573Y-98068528D01*
X155488614Y-98028754D01*
X155284736Y-98028754D01*
X155084777Y-98068528D01*
X154896419Y-98146549D01*
X154726901Y-98259817D01*
X154582738Y-98403980D01*
X154469470Y-98573498D01*
X154391449Y-98761856D01*
X154351675Y-98961815D01*
X154351675Y-99165693D01*
X154391449Y-99365652D01*
X154401661Y-99390305D01*
X154385037Y-99365426D01*
X154240874Y-99221263D01*
X154071356Y-99107995D01*
X153882998Y-99029974D01*
X153683039Y-98990200D01*
X153479161Y-98990200D01*
X153279202Y-99029974D01*
X153090844Y-99107995D01*
X152921326Y-99221263D01*
X152777163Y-99365426D01*
X152663895Y-99534944D01*
X152585874Y-99723302D01*
X152546100Y-99923261D01*
X152546100Y-100127139D01*
X152585874Y-100327098D01*
X152609594Y-100384364D01*
X152445613Y-100316440D01*
X152245654Y-100276666D01*
X152041776Y-100276666D01*
X151841817Y-100316440D01*
X151653459Y-100394461D01*
X151483941Y-100507729D01*
X151339778Y-100651892D01*
X151226510Y-100821410D01*
X151148489Y-101009768D01*
X151108715Y-101209727D01*
X151108715Y-101413605D01*
X151138424Y-101562965D01*
X151075363Y-101626026D01*
X150962095Y-101795544D01*
X150884074Y-101983902D01*
X150844300Y-102183861D01*
X147540625Y-102183861D01*
X147594356Y-102161605D01*
X147763874Y-102048337D01*
X147908037Y-101904174D01*
X148021305Y-101734656D01*
X148099326Y-101546298D01*
X148139100Y-101346339D01*
X148139100Y-101142461D01*
X148099326Y-100942502D01*
X148021305Y-100754144D01*
X147908037Y-100584626D01*
X147763874Y-100440463D01*
X147594356Y-100327195D01*
X147405998Y-100249174D01*
X147206039Y-100209400D01*
X147002161Y-100209400D01*
X146802202Y-100249174D01*
X146613844Y-100327195D01*
X146444326Y-100440463D01*
X146300163Y-100584626D01*
X146186895Y-100754144D01*
X146108874Y-100942502D01*
X146069100Y-101142461D01*
X141280332Y-101142461D01*
X141185192Y-101000075D01*
X141041029Y-100855912D01*
X140871511Y-100742644D01*
X140683153Y-100664623D01*
X140483194Y-100624849D01*
X140279316Y-100624849D01*
X140079357Y-100664623D01*
X139890999Y-100742644D01*
X139721481Y-100855912D01*
X139577318Y-101000075D01*
X139464050Y-101169593D01*
X139386029Y-101357951D01*
X139346255Y-101557910D01*
X139346255Y-101567918D01*
X139106848Y-101652843D01*
X138856745Y-101801822D01*
X138640512Y-101996731D01*
X138466459Y-102230080D01*
X138341275Y-102492901D01*
X138296624Y-102640110D01*
X134810100Y-102640110D01*
X134810100Y-98985090D01*
X138296624Y-98985090D01*
X138341275Y-99132299D01*
X138466459Y-99395120D01*
X138640512Y-99628469D01*
X138856745Y-99823378D01*
X139106848Y-99972357D01*
X139381209Y-100069681D01*
X139611100Y-99949014D01*
X139611100Y-98755200D01*
X139865100Y-98755200D01*
X139865100Y-99949014D01*
X140094991Y-100069681D01*
X140369352Y-99972357D01*
X140619455Y-99823378D01*
X140835688Y-99628469D01*
X140994718Y-99415261D01*
X141547900Y-99415261D01*
X141547900Y-99619139D01*
X141587674Y-99819098D01*
X141665695Y-100007456D01*
X141778963Y-100176974D01*
X141923126Y-100321137D01*
X142092644Y-100434405D01*
X142281002Y-100512426D01*
X142480961Y-100552200D01*
X142684839Y-100552200D01*
X142884798Y-100512426D01*
X143073156Y-100434405D01*
X143242674Y-100321137D01*
X143372539Y-100191272D01*
X143443695Y-100363056D01*
X143556963Y-100532574D01*
X143701126Y-100676737D01*
X143870644Y-100790005D01*
X144059002Y-100868026D01*
X144258961Y-100907800D01*
X144462839Y-100907800D01*
X144662798Y-100868026D01*
X144851156Y-100790005D01*
X145020674Y-100676737D01*
X145164837Y-100532574D01*
X145278105Y-100363056D01*
X145356126Y-100174698D01*
X145395900Y-99974739D01*
X145395900Y-99770861D01*
X145356126Y-99570902D01*
X145278105Y-99382544D01*
X145164837Y-99213026D01*
X145020674Y-99068863D01*
X144851156Y-98955595D01*
X144662798Y-98877574D01*
X144462839Y-98837800D01*
X144258961Y-98837800D01*
X144059002Y-98877574D01*
X143870644Y-98955595D01*
X143701126Y-99068863D01*
X143571261Y-99198728D01*
X143500105Y-99026944D01*
X143386837Y-98857426D01*
X143242674Y-98713263D01*
X143073156Y-98599995D01*
X142884798Y-98521974D01*
X142684839Y-98482200D01*
X142480961Y-98482200D01*
X142281002Y-98521974D01*
X142092644Y-98599995D01*
X141923126Y-98713263D01*
X141778963Y-98857426D01*
X141665695Y-99026944D01*
X141587674Y-99215302D01*
X141547900Y-99415261D01*
X140994718Y-99415261D01*
X141009741Y-99395120D01*
X141134925Y-99132299D01*
X141179576Y-98985090D01*
X141058255Y-98755200D01*
X139865100Y-98755200D01*
X139611100Y-98755200D01*
X138417945Y-98755200D01*
X138296624Y-98985090D01*
X134810100Y-98985090D01*
X134810100Y-90158200D01*
X138250028Y-90158200D01*
X138250028Y-91858200D01*
X138262288Y-91982682D01*
X138298598Y-92102380D01*
X138357563Y-92212694D01*
X138436915Y-92309385D01*
X138533606Y-92388737D01*
X138643920Y-92447702D01*
X138716480Y-92469713D01*
X138584625Y-92601568D01*
X138422110Y-92844789D01*
X138310168Y-93115042D01*
X138253100Y-93401940D01*
X138253100Y-93694460D01*
X138310168Y-93981358D01*
X138422110Y-94251611D01*
X138584625Y-94494832D01*
X138791468Y-94701675D01*
X138965860Y-94818200D01*
X138791468Y-94934725D01*
X138584625Y-95141568D01*
X138422110Y-95384789D01*
X138310168Y-95655042D01*
X138253100Y-95941940D01*
X138253100Y-96234460D01*
X138310168Y-96521358D01*
X138422110Y-96791611D01*
X138584625Y-97034832D01*
X138791468Y-97241675D01*
X138973634Y-97363395D01*
X138856745Y-97433022D01*
X138640512Y-97627931D01*
X138466459Y-97861280D01*
X138341275Y-98124101D01*
X138296624Y-98271310D01*
X138417945Y-98501200D01*
X139611100Y-98501200D01*
X139611100Y-98481200D01*
X139865100Y-98481200D01*
X139865100Y-98501200D01*
X141058255Y-98501200D01*
X141179576Y-98271310D01*
X141134925Y-98124101D01*
X141009741Y-97861280D01*
X140835688Y-97627931D01*
X140619455Y-97433022D01*
X140502566Y-97363395D01*
X140684732Y-97241675D01*
X140822546Y-97103861D01*
X143783100Y-97103861D01*
X143783100Y-97307739D01*
X143822874Y-97507698D01*
X143900895Y-97696056D01*
X144014163Y-97865574D01*
X144158326Y-98009737D01*
X144327844Y-98123005D01*
X144516202Y-98201026D01*
X144716161Y-98240800D01*
X144920039Y-98240800D01*
X145119998Y-98201026D01*
X145308356Y-98123005D01*
X145477874Y-98009737D01*
X145545550Y-97942061D01*
X145815100Y-97942061D01*
X145815100Y-98145939D01*
X145854874Y-98345898D01*
X145932895Y-98534256D01*
X146046163Y-98703774D01*
X146190326Y-98847937D01*
X146359844Y-98961205D01*
X146548202Y-99039226D01*
X146748161Y-99079000D01*
X146952039Y-99079000D01*
X147151998Y-99039226D01*
X147340356Y-98961205D01*
X147509874Y-98847937D01*
X147654037Y-98703774D01*
X147767305Y-98534256D01*
X147845326Y-98345898D01*
X147885100Y-98145939D01*
X147885100Y-97942061D01*
X147845326Y-97742102D01*
X147767305Y-97553744D01*
X147654037Y-97384226D01*
X147509874Y-97240063D01*
X147340356Y-97126795D01*
X147223669Y-97078461D01*
X150641100Y-97078461D01*
X150641100Y-97282339D01*
X150680874Y-97482298D01*
X150758895Y-97670656D01*
X150872163Y-97840174D01*
X151016326Y-97984337D01*
X151185844Y-98097605D01*
X151195801Y-98101729D01*
X151195801Y-98114390D01*
X151235575Y-98314349D01*
X151313596Y-98502707D01*
X151426864Y-98672225D01*
X151571027Y-98816388D01*
X151740545Y-98929656D01*
X151928903Y-99007677D01*
X152128862Y-99047451D01*
X152332740Y-99047451D01*
X152532699Y-99007677D01*
X152721057Y-98929656D01*
X152890575Y-98816388D01*
X153034738Y-98672225D01*
X153148006Y-98502707D01*
X153226027Y-98314349D01*
X153265801Y-98114390D01*
X153265801Y-97910512D01*
X153226027Y-97710553D01*
X153148006Y-97522195D01*
X153034738Y-97352677D01*
X152890575Y-97208514D01*
X152721057Y-97095246D01*
X152711100Y-97091122D01*
X152711100Y-97078461D01*
X152671326Y-96878502D01*
X152593305Y-96690144D01*
X152480037Y-96520626D01*
X152402872Y-96443461D01*
X153460500Y-96443461D01*
X153460500Y-96647339D01*
X153500274Y-96847298D01*
X153578295Y-97035656D01*
X153691563Y-97205174D01*
X153835726Y-97349337D01*
X154005244Y-97462605D01*
X154193602Y-97540626D01*
X154393561Y-97580400D01*
X154597439Y-97580400D01*
X154797398Y-97540626D01*
X154985756Y-97462605D01*
X155155274Y-97349337D01*
X155299437Y-97205174D01*
X155412705Y-97035656D01*
X155490726Y-96847298D01*
X155530500Y-96647339D01*
X155530500Y-96443461D01*
X155490726Y-96243502D01*
X155426300Y-96087966D01*
X155486605Y-96047672D01*
X155630768Y-95903509D01*
X155744036Y-95733991D01*
X155822057Y-95545633D01*
X155861831Y-95345674D01*
X155861831Y-95141796D01*
X155822057Y-94941837D01*
X155744036Y-94753479D01*
X155630768Y-94583961D01*
X155486605Y-94439798D01*
X155317087Y-94326530D01*
X155128729Y-94248509D01*
X154928770Y-94208735D01*
X154724892Y-94208735D01*
X154524933Y-94248509D01*
X154336575Y-94326530D01*
X154167057Y-94439798D01*
X154022894Y-94583961D01*
X153909626Y-94753479D01*
X153831605Y-94941837D01*
X153791831Y-95141796D01*
X153791831Y-95345674D01*
X153831605Y-95545633D01*
X153896031Y-95701169D01*
X153835726Y-95741463D01*
X153691563Y-95885626D01*
X153578295Y-96055144D01*
X153500274Y-96243502D01*
X153460500Y-96443461D01*
X152402872Y-96443461D01*
X152335874Y-96376463D01*
X152166356Y-96263195D01*
X151977998Y-96185174D01*
X151778039Y-96145400D01*
X151574161Y-96145400D01*
X151374202Y-96185174D01*
X151185844Y-96263195D01*
X151016326Y-96376463D01*
X150872163Y-96520626D01*
X150758895Y-96690144D01*
X150680874Y-96878502D01*
X150641100Y-97078461D01*
X147223669Y-97078461D01*
X147151998Y-97048774D01*
X146952039Y-97009000D01*
X146748161Y-97009000D01*
X146548202Y-97048774D01*
X146359844Y-97126795D01*
X146190326Y-97240063D01*
X146046163Y-97384226D01*
X145932895Y-97553744D01*
X145854874Y-97742102D01*
X145815100Y-97942061D01*
X145545550Y-97942061D01*
X145622037Y-97865574D01*
X145735305Y-97696056D01*
X145813326Y-97507698D01*
X145853100Y-97307739D01*
X145853100Y-97103861D01*
X145813326Y-96903902D01*
X145735305Y-96715544D01*
X145622037Y-96546026D01*
X145477874Y-96401863D01*
X145308356Y-96288595D01*
X145119998Y-96210574D01*
X144920039Y-96170800D01*
X144716161Y-96170800D01*
X144516202Y-96210574D01*
X144327844Y-96288595D01*
X144158326Y-96401863D01*
X144014163Y-96546026D01*
X143900895Y-96715544D01*
X143822874Y-96903902D01*
X143783100Y-97103861D01*
X140822546Y-97103861D01*
X140891575Y-97034832D01*
X141054090Y-96791611D01*
X141166032Y-96521358D01*
X141223100Y-96234460D01*
X141223100Y-95941940D01*
X141166032Y-95655042D01*
X141054090Y-95384789D01*
X140891575Y-95141568D01*
X140684732Y-94934725D01*
X140510340Y-94818200D01*
X140684732Y-94701675D01*
X140800829Y-94585578D01*
X146495100Y-94585578D01*
X146495100Y-94789456D01*
X146534874Y-94989415D01*
X146612895Y-95177773D01*
X146726163Y-95347291D01*
X146870326Y-95491454D01*
X147039844Y-95604722D01*
X147228202Y-95682743D01*
X147428161Y-95722517D01*
X147632039Y-95722517D01*
X147831998Y-95682743D01*
X148020356Y-95604722D01*
X148189874Y-95491454D01*
X148334037Y-95347291D01*
X148447305Y-95177773D01*
X148501696Y-95046461D01*
X149117100Y-95046461D01*
X149117100Y-95250339D01*
X149156874Y-95450298D01*
X149234895Y-95638656D01*
X149348163Y-95808174D01*
X149492326Y-95952337D01*
X149661844Y-96065605D01*
X149850202Y-96143626D01*
X150050161Y-96183400D01*
X150254039Y-96183400D01*
X150453998Y-96143626D01*
X150642356Y-96065605D01*
X150811874Y-95952337D01*
X150956037Y-95808174D01*
X151069305Y-95638656D01*
X151147326Y-95450298D01*
X151187100Y-95250339D01*
X151187100Y-95046461D01*
X151147326Y-94846502D01*
X151069305Y-94658144D01*
X150956037Y-94488626D01*
X150811874Y-94344463D01*
X150642356Y-94231195D01*
X150453998Y-94153174D01*
X150254039Y-94113400D01*
X150050161Y-94113400D01*
X149850202Y-94153174D01*
X149661844Y-94231195D01*
X149492326Y-94344463D01*
X149348163Y-94488626D01*
X149234895Y-94658144D01*
X149156874Y-94846502D01*
X149117100Y-95046461D01*
X148501696Y-95046461D01*
X148525326Y-94989415D01*
X148565100Y-94789456D01*
X148565100Y-94585578D01*
X148525326Y-94385619D01*
X148447305Y-94197261D01*
X148334037Y-94027743D01*
X148189874Y-93883580D01*
X148020356Y-93770312D01*
X147831998Y-93692291D01*
X147632039Y-93652517D01*
X147428161Y-93652517D01*
X147228202Y-93692291D01*
X147039844Y-93770312D01*
X146870326Y-93883580D01*
X146726163Y-94027743D01*
X146612895Y-94197261D01*
X146534874Y-94385619D01*
X146495100Y-94585578D01*
X140800829Y-94585578D01*
X140891575Y-94494832D01*
X141054090Y-94251611D01*
X141166032Y-93981358D01*
X141223100Y-93694460D01*
X141223100Y-93401940D01*
X141166032Y-93115042D01*
X141124371Y-93014461D01*
X159023100Y-93014461D01*
X159023100Y-93218339D01*
X159062874Y-93418298D01*
X159140895Y-93606656D01*
X159254163Y-93776174D01*
X159388814Y-93910825D01*
X159316874Y-94084502D01*
X159277100Y-94284461D01*
X159277100Y-94488339D01*
X159316874Y-94688298D01*
X159394895Y-94876656D01*
X159508163Y-95046174D01*
X159652326Y-95190337D01*
X159821844Y-95303605D01*
X160010202Y-95381626D01*
X160210161Y-95421400D01*
X160414039Y-95421400D01*
X160613998Y-95381626D01*
X160802356Y-95303605D01*
X160971874Y-95190337D01*
X161116037Y-95046174D01*
X161229305Y-94876656D01*
X161307326Y-94688298D01*
X161347100Y-94488339D01*
X161347100Y-94284461D01*
X161307326Y-94084502D01*
X161229305Y-93896144D01*
X161116037Y-93726626D01*
X160981386Y-93591975D01*
X161053326Y-93418298D01*
X161093100Y-93218339D01*
X161093100Y-93014461D01*
X161053326Y-92814502D01*
X160975305Y-92626144D01*
X160862037Y-92456626D01*
X160717874Y-92312463D01*
X160548356Y-92199195D01*
X160359998Y-92121174D01*
X160160039Y-92081400D01*
X159956161Y-92081400D01*
X159756202Y-92121174D01*
X159567844Y-92199195D01*
X159398326Y-92312463D01*
X159254163Y-92456626D01*
X159140895Y-92626144D01*
X159062874Y-92814502D01*
X159023100Y-93014461D01*
X141124371Y-93014461D01*
X141054090Y-92844789D01*
X140891575Y-92601568D01*
X140759720Y-92469713D01*
X140832280Y-92447702D01*
X140942594Y-92388737D01*
X141039285Y-92309385D01*
X141118637Y-92212694D01*
X141177602Y-92102380D01*
X141213912Y-91982682D01*
X141226172Y-91858200D01*
X141226172Y-90182114D01*
X143739079Y-90182114D01*
X143739079Y-90385992D01*
X143778853Y-90585951D01*
X143856874Y-90774309D01*
X143970142Y-90943827D01*
X144114305Y-91087990D01*
X144283823Y-91201258D01*
X144472181Y-91279279D01*
X144672140Y-91319053D01*
X144876018Y-91319053D01*
X145075977Y-91279279D01*
X145264335Y-91201258D01*
X145433853Y-91087990D01*
X145578016Y-90943827D01*
X145691284Y-90774309D01*
X145769305Y-90585951D01*
X145776164Y-90551468D01*
X145786202Y-90555626D01*
X145986161Y-90595400D01*
X146084571Y-90595400D01*
X146034495Y-90670344D01*
X145956474Y-90858702D01*
X145916700Y-91058661D01*
X145916700Y-91262539D01*
X145956474Y-91462498D01*
X146034495Y-91650856D01*
X146147763Y-91820374D01*
X146291926Y-91964537D01*
X146461444Y-92077805D01*
X146649802Y-92155826D01*
X146849761Y-92195600D01*
X147053639Y-92195600D01*
X147253598Y-92155826D01*
X147441956Y-92077805D01*
X147611474Y-91964537D01*
X147755637Y-91820374D01*
X147868905Y-91650856D01*
X147946926Y-91462498D01*
X147986700Y-91262539D01*
X147986700Y-91058661D01*
X147946926Y-90858702D01*
X147868905Y-90670344D01*
X147755637Y-90500826D01*
X147611474Y-90356663D01*
X147441956Y-90243395D01*
X147253598Y-90165374D01*
X147053639Y-90125600D01*
X146955229Y-90125600D01*
X147005305Y-90050656D01*
X147083326Y-89862298D01*
X147123100Y-89662339D01*
X147123100Y-89458461D01*
X147083326Y-89258502D01*
X147005305Y-89070144D01*
X146892037Y-88900626D01*
X146747874Y-88756463D01*
X146713449Y-88733461D01*
X151800097Y-88733461D01*
X151800097Y-88937339D01*
X151839871Y-89137298D01*
X151917892Y-89325656D01*
X152031160Y-89495174D01*
X152175323Y-89639337D01*
X152344841Y-89752605D01*
X152533199Y-89830626D01*
X152733158Y-89870400D01*
X152937036Y-89870400D01*
X153136995Y-89830626D01*
X153325353Y-89752605D01*
X153335099Y-89746093D01*
X153344844Y-89752605D01*
X153533202Y-89830626D01*
X153733161Y-89870400D01*
X153937039Y-89870400D01*
X154136998Y-89830626D01*
X154325356Y-89752605D01*
X154494874Y-89639337D01*
X154639037Y-89495174D01*
X154752305Y-89325656D01*
X154830326Y-89137298D01*
X154870100Y-88937339D01*
X154870100Y-88733461D01*
X154830326Y-88533502D01*
X154752305Y-88345144D01*
X154639037Y-88175626D01*
X154494874Y-88031463D01*
X154325356Y-87918195D01*
X154136998Y-87840174D01*
X153937039Y-87800400D01*
X153733161Y-87800400D01*
X153533202Y-87840174D01*
X153344844Y-87918195D01*
X153335099Y-87924707D01*
X153325353Y-87918195D01*
X153136995Y-87840174D01*
X152937036Y-87800400D01*
X152733158Y-87800400D01*
X152533199Y-87840174D01*
X152344841Y-87918195D01*
X152175323Y-88031463D01*
X152031160Y-88175626D01*
X151917892Y-88345144D01*
X151839871Y-88533502D01*
X151800097Y-88733461D01*
X146713449Y-88733461D01*
X146578356Y-88643195D01*
X146389998Y-88565174D01*
X146190039Y-88525400D01*
X145986161Y-88525400D01*
X145786202Y-88565174D01*
X145597844Y-88643195D01*
X145428326Y-88756463D01*
X145284163Y-88900626D01*
X145170895Y-89070144D01*
X145092874Y-89258502D01*
X145086015Y-89292985D01*
X145075977Y-89288827D01*
X144876018Y-89249053D01*
X144672140Y-89249053D01*
X144472181Y-89288827D01*
X144283823Y-89366848D01*
X144114305Y-89480116D01*
X143970142Y-89624279D01*
X143856874Y-89793797D01*
X143778853Y-89982155D01*
X143739079Y-90182114D01*
X141226172Y-90182114D01*
X141226172Y-90158200D01*
X141213912Y-90033718D01*
X141177602Y-89914020D01*
X141118637Y-89803706D01*
X141039285Y-89707015D01*
X140942594Y-89627663D01*
X140832280Y-89568698D01*
X140773100Y-89550746D01*
X140773100Y-89458461D01*
X140733326Y-89258502D01*
X140655305Y-89070144D01*
X140542037Y-88900626D01*
X140397874Y-88756463D01*
X140228356Y-88643195D01*
X140039998Y-88565174D01*
X139840039Y-88525400D01*
X139636161Y-88525400D01*
X139436202Y-88565174D01*
X139247844Y-88643195D01*
X139078326Y-88756463D01*
X138934163Y-88900626D01*
X138820895Y-89070144D01*
X138742874Y-89258502D01*
X138703100Y-89458461D01*
X138703100Y-89550746D01*
X138643920Y-89568698D01*
X138533606Y-89627663D01*
X138436915Y-89707015D01*
X138357563Y-89803706D01*
X138298598Y-89914020D01*
X138262288Y-90033718D01*
X138250028Y-90158200D01*
X134810100Y-90158200D01*
X134810100Y-84681491D01*
X134862736Y-84808565D01*
X134976004Y-84978083D01*
X135120167Y-85122246D01*
X135289685Y-85235514D01*
X135478043Y-85313535D01*
X135678002Y-85353309D01*
X135881880Y-85353309D01*
X136081839Y-85313535D01*
X136270197Y-85235514D01*
X136439715Y-85122246D01*
X136583878Y-84978083D01*
X136697146Y-84808565D01*
X136775167Y-84620207D01*
X136814941Y-84420248D01*
X136814941Y-84216370D01*
X136810935Y-84196226D01*
X161074974Y-84196226D01*
X161074974Y-84400104D01*
X161114748Y-84600063D01*
X161192769Y-84788421D01*
X161306037Y-84957939D01*
X161450200Y-85102102D01*
X161619718Y-85215370D01*
X161808076Y-85293391D01*
X162008035Y-85333165D01*
X162211913Y-85333165D01*
X162411872Y-85293391D01*
X162600230Y-85215370D01*
X162769748Y-85102102D01*
X162913911Y-84957939D01*
X163027179Y-84788421D01*
X163105200Y-84600063D01*
X163144974Y-84400104D01*
X163144974Y-84196226D01*
X163105200Y-83996267D01*
X163027179Y-83807909D01*
X162913911Y-83638391D01*
X162769748Y-83494228D01*
X162600230Y-83380960D01*
X162411872Y-83302939D01*
X162211913Y-83263165D01*
X162008035Y-83263165D01*
X161808076Y-83302939D01*
X161619718Y-83380960D01*
X161450200Y-83494228D01*
X161306037Y-83638391D01*
X161192769Y-83807909D01*
X161114748Y-83996267D01*
X161074974Y-84196226D01*
X136810935Y-84196226D01*
X136775167Y-84016411D01*
X136697146Y-83828053D01*
X136583878Y-83658535D01*
X136439715Y-83514372D01*
X136270197Y-83401104D01*
X136081839Y-83323083D01*
X135881880Y-83283309D01*
X135678002Y-83283309D01*
X135478043Y-83323083D01*
X135289685Y-83401104D01*
X135120167Y-83514372D01*
X134976004Y-83658535D01*
X134862736Y-83828053D01*
X134810100Y-83955127D01*
X134810100Y-81133667D01*
X134837550Y-81174749D01*
X135169751Y-81506950D01*
X135560379Y-81767960D01*
X135994421Y-81947746D01*
X136455198Y-82039400D01*
X136925002Y-82039400D01*
X137385779Y-81947746D01*
X137819821Y-81767960D01*
X138210449Y-81506950D01*
X138501800Y-81215599D01*
X138501800Y-81333039D01*
X138541574Y-81532998D01*
X138619595Y-81721356D01*
X138732863Y-81890874D01*
X138877026Y-82035037D01*
X139046544Y-82148305D01*
X139234902Y-82226326D01*
X139434861Y-82266100D01*
X139638739Y-82266100D01*
X139838698Y-82226326D01*
X140027056Y-82148305D01*
X140196574Y-82035037D01*
X140340737Y-81890874D01*
X140454005Y-81721356D01*
X140532026Y-81532998D01*
X140571800Y-81333039D01*
X140571800Y-81312510D01*
X156342131Y-81312510D01*
X156342131Y-81516388D01*
X156381905Y-81716347D01*
X156459926Y-81904705D01*
X156573194Y-82074223D01*
X156717357Y-82218386D01*
X156886875Y-82331654D01*
X157075233Y-82409675D01*
X157275192Y-82449449D01*
X157479070Y-82449449D01*
X157679029Y-82409675D01*
X157867387Y-82331654D01*
X158036905Y-82218386D01*
X158181068Y-82074223D01*
X158294336Y-81904705D01*
X158372357Y-81716347D01*
X158412131Y-81516388D01*
X158412131Y-81312510D01*
X158372357Y-81112551D01*
X158294336Y-80924193D01*
X158181068Y-80754675D01*
X158036905Y-80610512D01*
X157867387Y-80497244D01*
X157679029Y-80419223D01*
X157479070Y-80379449D01*
X157275192Y-80379449D01*
X157075233Y-80419223D01*
X156886875Y-80497244D01*
X156717357Y-80610512D01*
X156573194Y-80754675D01*
X156459926Y-80924193D01*
X156381905Y-81112551D01*
X156342131Y-81312510D01*
X140571800Y-81312510D01*
X140571800Y-81129161D01*
X140532026Y-80929202D01*
X140454005Y-80740844D01*
X140340737Y-80571326D01*
X140196574Y-80427163D01*
X140027056Y-80313895D01*
X139838698Y-80235874D01*
X139638739Y-80196100D01*
X139434861Y-80196100D01*
X139234902Y-80235874D01*
X139046544Y-80313895D01*
X138980023Y-80358343D01*
X138983446Y-80350079D01*
X139075100Y-79889302D01*
X139075100Y-79419498D01*
X138983446Y-78958721D01*
X138803660Y-78524679D01*
X138542650Y-78134051D01*
X138210449Y-77801850D01*
X138169367Y-77774400D01*
X160610833Y-77774400D01*
X160569751Y-77801850D01*
%TA.AperFunction,Conductor*%
D15*
G36*
X160569751Y-77801850D02*
G01*
X160237550Y-78134051D01*
X159976540Y-78524679D01*
X159796754Y-78958721D01*
X159705100Y-79419498D01*
X159705100Y-79889302D01*
X159796754Y-80350079D01*
X159976540Y-80784121D01*
X160237550Y-81174749D01*
X160569751Y-81506950D01*
X160960379Y-81767960D01*
X161394421Y-81947746D01*
X161855198Y-82039400D01*
X162325002Y-82039400D01*
X162785779Y-81947746D01*
X163219821Y-81767960D01*
X163610449Y-81506950D01*
X163942650Y-81174749D01*
X163970100Y-81133667D01*
X163970101Y-120085134D01*
X163942650Y-120044051D01*
X163610449Y-119711850D01*
X163219821Y-119450840D01*
X162785779Y-119271054D01*
X162325002Y-119179400D01*
X162128811Y-119179400D01*
X162132037Y-119176174D01*
X162245305Y-119006656D01*
X162323326Y-118818298D01*
X162363100Y-118618339D01*
X162363100Y-118414461D01*
X162323326Y-118214502D01*
X162245305Y-118026144D01*
X162132037Y-117856626D01*
X161987874Y-117712463D01*
X161818356Y-117599195D01*
X161629998Y-117521174D01*
X161430039Y-117481400D01*
X161226161Y-117481400D01*
X161026202Y-117521174D01*
X160837844Y-117599195D01*
X160668326Y-117712463D01*
X160524163Y-117856626D01*
X160410895Y-118026144D01*
X160332874Y-118214502D01*
X160293100Y-118414461D01*
X160293100Y-118618339D01*
X160332874Y-118818298D01*
X160410895Y-119006656D01*
X160524163Y-119176174D01*
X160668326Y-119320337D01*
X160837844Y-119433605D01*
X160929410Y-119471533D01*
X160569751Y-119711850D01*
X160237550Y-120044051D01*
X159976540Y-120434679D01*
X159796754Y-120868721D01*
X159705100Y-121329498D01*
X159705100Y-121799302D01*
X159796754Y-122260079D01*
X159976540Y-122694121D01*
X160237550Y-123084749D01*
X160569751Y-123416950D01*
X160610833Y-123444400D01*
X154558684Y-123444400D01*
X154563803Y-123418667D01*
X154563803Y-123214789D01*
X154524029Y-123014830D01*
X154446008Y-122826472D01*
X154332740Y-122656954D01*
X154188577Y-122512791D01*
X154019059Y-122399523D01*
X153830701Y-122321502D01*
X153630742Y-122281728D01*
X153426864Y-122281728D01*
X153226905Y-122321502D01*
X153038547Y-122399523D01*
X152869029Y-122512791D01*
X152724866Y-122656954D01*
X152611598Y-122826472D01*
X152533577Y-123014830D01*
X152493803Y-123214789D01*
X152493803Y-123418667D01*
X152498922Y-123444400D01*
X146121213Y-123444400D01*
X146131371Y-123393334D01*
X146131371Y-123189456D01*
X146091597Y-122989497D01*
X146013576Y-122801139D01*
X145900308Y-122631621D01*
X145756145Y-122487458D01*
X145586627Y-122374190D01*
X145398269Y-122296169D01*
X145198310Y-122256395D01*
X144994432Y-122256395D01*
X144794473Y-122296169D01*
X144606115Y-122374190D01*
X144436597Y-122487458D01*
X144292434Y-122631621D01*
X144179166Y-122801139D01*
X144101145Y-122989497D01*
X144061371Y-123189456D01*
X144061371Y-123393334D01*
X144071529Y-123444400D01*
X140667901Y-123444400D01*
X140804902Y-123387652D01*
X140974420Y-123274384D01*
X141118583Y-123130221D01*
X141231851Y-122960703D01*
X141309872Y-122772345D01*
X141349646Y-122572386D01*
X141349646Y-122368508D01*
X141309872Y-122168549D01*
X141231851Y-121980191D01*
X141118583Y-121810673D01*
X140974420Y-121666510D01*
X140804902Y-121553242D01*
X140616544Y-121475221D01*
X140416585Y-121435447D01*
X140212707Y-121435447D01*
X140012748Y-121475221D01*
X139824390Y-121553242D01*
X139654872Y-121666510D01*
X139510709Y-121810673D01*
X139397441Y-121980191D01*
X139319420Y-122168549D01*
X139279646Y-122368508D01*
X139279646Y-122572386D01*
X139319420Y-122772345D01*
X139397441Y-122960703D01*
X139510709Y-123130221D01*
X139654872Y-123274384D01*
X139824390Y-123387652D01*
X139961391Y-123444400D01*
X138169367Y-123444400D01*
X138210449Y-123416950D01*
X138542650Y-123084749D01*
X138803660Y-122694121D01*
X138983446Y-122260079D01*
X139075100Y-121799302D01*
X139075100Y-121329498D01*
X138983446Y-120868721D01*
X138919525Y-120714400D01*
X146632028Y-120714400D01*
X146632028Y-122414400D01*
X146644288Y-122538882D01*
X146680598Y-122658580D01*
X146739563Y-122768894D01*
X146818915Y-122865585D01*
X146915606Y-122944937D01*
X147025920Y-123003902D01*
X147145618Y-123040212D01*
X147270100Y-123052472D01*
X148970100Y-123052472D01*
X149094582Y-123040212D01*
X149214280Y-123003902D01*
X149324594Y-122944937D01*
X149421285Y-122865585D01*
X149500637Y-122768894D01*
X149559602Y-122658580D01*
X149581613Y-122586020D01*
X149713468Y-122717875D01*
X149956689Y-122880390D01*
X150226942Y-122992332D01*
X150513840Y-123049400D01*
X150806360Y-123049400D01*
X151093258Y-122992332D01*
X151363511Y-122880390D01*
X151606732Y-122717875D01*
X151813575Y-122511032D01*
X151976090Y-122267811D01*
X152088032Y-121997558D01*
X152145100Y-121710660D01*
X152145100Y-121418140D01*
X152088032Y-121131242D01*
X151976090Y-120860989D01*
X151813575Y-120617768D01*
X151655429Y-120459622D01*
X151666302Y-120464126D01*
X151866261Y-120503900D01*
X152070139Y-120503900D01*
X152270098Y-120464126D01*
X152458456Y-120386105D01*
X152627974Y-120272837D01*
X152772137Y-120128674D01*
X152885405Y-119959156D01*
X152963426Y-119770798D01*
X153003200Y-119570839D01*
X153003200Y-119366961D01*
X152963426Y-119167002D01*
X152885405Y-118978644D01*
X152772137Y-118809126D01*
X152627974Y-118664963D01*
X152458456Y-118551695D01*
X152270098Y-118473674D01*
X152070139Y-118433900D01*
X151866261Y-118433900D01*
X151666302Y-118473674D01*
X151477944Y-118551695D01*
X151308426Y-118664963D01*
X151164263Y-118809126D01*
X151050995Y-118978644D01*
X150972974Y-119167002D01*
X150933200Y-119366961D01*
X150933200Y-119570839D01*
X150972974Y-119770798D01*
X151050995Y-119959156D01*
X151164263Y-120128674D01*
X151227776Y-120192187D01*
X151093258Y-120136468D01*
X150806360Y-120079400D01*
X150513840Y-120079400D01*
X150226942Y-120136468D01*
X149956689Y-120248410D01*
X149713468Y-120410925D01*
X149581613Y-120542780D01*
X149559602Y-120470220D01*
X149500637Y-120359906D01*
X149421285Y-120263215D01*
X149324594Y-120183863D01*
X149214280Y-120124898D01*
X149094582Y-120088588D01*
X148970100Y-120076328D01*
X147270100Y-120076328D01*
X147145618Y-120088588D01*
X147025920Y-120124898D01*
X146915606Y-120183863D01*
X146818915Y-120263215D01*
X146739563Y-120359906D01*
X146680598Y-120470220D01*
X146644288Y-120589918D01*
X146632028Y-120714400D01*
X138919525Y-120714400D01*
X138803660Y-120434679D01*
X138542650Y-120044051D01*
X138210449Y-119711850D01*
X137819821Y-119450840D01*
X137385779Y-119271054D01*
X136925002Y-119179400D01*
X136455198Y-119179400D01*
X135994421Y-119271054D01*
X135560379Y-119450840D01*
X135169751Y-119711850D01*
X134837550Y-120044051D01*
X134810100Y-120085133D01*
X134810100Y-115061661D01*
X143224300Y-115061661D01*
X143224300Y-115265539D01*
X143264074Y-115465498D01*
X143342095Y-115653856D01*
X143455363Y-115823374D01*
X143516769Y-115884780D01*
X143443695Y-115994144D01*
X143365674Y-116182502D01*
X143325900Y-116382461D01*
X143325900Y-116586339D01*
X143365674Y-116786298D01*
X143443695Y-116974656D01*
X143556963Y-117144174D01*
X143701126Y-117288337D01*
X143870644Y-117401605D01*
X144059002Y-117479626D01*
X144258961Y-117519400D01*
X144462839Y-117519400D01*
X144662798Y-117479626D01*
X144851156Y-117401605D01*
X145020674Y-117288337D01*
X145164837Y-117144174D01*
X145231462Y-117044461D01*
X156737100Y-117044461D01*
X156737100Y-117248339D01*
X156776874Y-117448298D01*
X156854895Y-117636656D01*
X156968163Y-117806174D01*
X157112326Y-117950337D01*
X157281844Y-118063605D01*
X157470202Y-118141626D01*
X157670161Y-118181400D01*
X157874039Y-118181400D01*
X158073998Y-118141626D01*
X158262356Y-118063605D01*
X158431874Y-117950337D01*
X158576037Y-117806174D01*
X158689305Y-117636656D01*
X158767326Y-117448298D01*
X158807100Y-117248339D01*
X158807100Y-117044461D01*
X158767326Y-116844502D01*
X158689305Y-116656144D01*
X158576037Y-116486626D01*
X158431874Y-116342463D01*
X158262356Y-116229195D01*
X158073998Y-116151174D01*
X157874039Y-116111400D01*
X157670161Y-116111400D01*
X157470202Y-116151174D01*
X157281844Y-116229195D01*
X157112326Y-116342463D01*
X156968163Y-116486626D01*
X156854895Y-116656144D01*
X156776874Y-116844502D01*
X156737100Y-117044461D01*
X145231462Y-117044461D01*
X145278105Y-116974656D01*
X145356126Y-116786298D01*
X145395900Y-116586339D01*
X145395900Y-116382461D01*
X145356126Y-116182502D01*
X145278105Y-115994144D01*
X145164837Y-115824626D01*
X145103431Y-115763220D01*
X145176505Y-115653856D01*
X145254526Y-115465498D01*
X145294300Y-115265539D01*
X145294300Y-115061661D01*
X145254526Y-114861702D01*
X145176505Y-114673344D01*
X145063237Y-114503826D01*
X144919074Y-114359663D01*
X144749556Y-114246395D01*
X144561198Y-114168374D01*
X144361239Y-114128600D01*
X144157361Y-114128600D01*
X143957402Y-114168374D01*
X143769044Y-114246395D01*
X143599526Y-114359663D01*
X143455363Y-114503826D01*
X143342095Y-114673344D01*
X143264074Y-114861702D01*
X143224300Y-115061661D01*
X134810100Y-115061661D01*
X134810100Y-113283661D01*
X147415300Y-113283661D01*
X147415300Y-113487539D01*
X147455074Y-113687498D01*
X147533095Y-113875856D01*
X147646363Y-114045374D01*
X147790526Y-114189537D01*
X147960044Y-114302805D01*
X148148402Y-114380826D01*
X148348361Y-114420600D01*
X148552239Y-114420600D01*
X148752198Y-114380826D01*
X148940556Y-114302805D01*
X149110074Y-114189537D01*
X149254237Y-114045374D01*
X149367505Y-113875856D01*
X149423422Y-113740861D01*
X153409700Y-113740861D01*
X153409700Y-113944739D01*
X153449474Y-114144698D01*
X153527495Y-114333056D01*
X153640763Y-114502574D01*
X153784926Y-114646737D01*
X153795428Y-114653754D01*
X153748395Y-114724144D01*
X153670374Y-114912502D01*
X153630600Y-115112461D01*
X153630600Y-115316339D01*
X153670374Y-115516298D01*
X153748395Y-115704656D01*
X153861663Y-115874174D01*
X154005826Y-116018337D01*
X154175344Y-116131605D01*
X154363702Y-116209626D01*
X154563661Y-116249400D01*
X154767539Y-116249400D01*
X154967498Y-116209626D01*
X155155856Y-116131605D01*
X155325374Y-116018337D01*
X155469537Y-115874174D01*
X155582805Y-115704656D01*
X155660826Y-115516298D01*
X155700600Y-115316339D01*
X155700600Y-115112461D01*
X155660826Y-114912502D01*
X155582805Y-114724144D01*
X155469537Y-114554626D01*
X155325374Y-114410463D01*
X155314872Y-114403446D01*
X155361905Y-114333056D01*
X155439926Y-114144698D01*
X155479700Y-113944739D01*
X155479700Y-113740861D01*
X155439926Y-113540902D01*
X155361905Y-113352544D01*
X155248637Y-113183026D01*
X155104474Y-113038863D01*
X154934956Y-112925595D01*
X154746598Y-112847574D01*
X154546639Y-112807800D01*
X154342761Y-112807800D01*
X154142802Y-112847574D01*
X153954444Y-112925595D01*
X153784926Y-113038863D01*
X153640763Y-113183026D01*
X153527495Y-113352544D01*
X153449474Y-113540902D01*
X153409700Y-113740861D01*
X149423422Y-113740861D01*
X149445526Y-113687498D01*
X149485300Y-113487539D01*
X149485300Y-113283661D01*
X149445526Y-113083702D01*
X149367505Y-112895344D01*
X149254237Y-112725826D01*
X149110074Y-112581663D01*
X148940556Y-112468395D01*
X148752198Y-112390374D01*
X148552239Y-112350600D01*
X148348361Y-112350600D01*
X148148402Y-112390374D01*
X147960044Y-112468395D01*
X147790526Y-112581663D01*
X147646363Y-112725826D01*
X147533095Y-112895344D01*
X147455074Y-113083702D01*
X147415300Y-113283661D01*
X134810100Y-113283661D01*
X134810100Y-109767000D01*
X138250028Y-109767000D01*
X138250028Y-111467000D01*
X138262288Y-111591482D01*
X138298598Y-111711180D01*
X138357563Y-111821494D01*
X138436915Y-111918185D01*
X138533606Y-111997537D01*
X138643920Y-112056502D01*
X138715825Y-112078314D01*
X138742874Y-112214298D01*
X138820895Y-112402656D01*
X138934163Y-112572174D01*
X139078326Y-112716337D01*
X139247844Y-112829605D01*
X139436202Y-112907626D01*
X139636161Y-112947400D01*
X139840039Y-112947400D01*
X140039998Y-112907626D01*
X140228356Y-112829605D01*
X140397874Y-112716337D01*
X140542037Y-112572174D01*
X140655305Y-112402656D01*
X140733326Y-112214298D01*
X140760375Y-112078314D01*
X140832280Y-112056502D01*
X140942594Y-111997537D01*
X141039285Y-111918185D01*
X141118637Y-111821494D01*
X141177602Y-111711180D01*
X141213912Y-111591482D01*
X141226172Y-111467000D01*
X141226172Y-111251661D01*
X152342900Y-111251661D01*
X152342900Y-111455539D01*
X152382674Y-111655498D01*
X152460695Y-111843856D01*
X152573963Y-112013374D01*
X152718126Y-112157537D01*
X152887644Y-112270805D01*
X153076002Y-112348826D01*
X153275961Y-112388600D01*
X153479839Y-112388600D01*
X153679798Y-112348826D01*
X153854259Y-112276562D01*
X153882063Y-112318174D01*
X154026226Y-112462337D01*
X154195744Y-112575605D01*
X154384102Y-112653626D01*
X154584061Y-112693400D01*
X154787939Y-112693400D01*
X154987898Y-112653626D01*
X155176256Y-112575605D01*
X155345774Y-112462337D01*
X155489937Y-112318174D01*
X155603205Y-112148656D01*
X155681226Y-111960298D01*
X155721000Y-111760339D01*
X155721000Y-111556461D01*
X155681226Y-111356502D01*
X155603205Y-111168144D01*
X155489937Y-110998626D01*
X155345774Y-110854463D01*
X155176256Y-110741195D01*
X154987898Y-110663174D01*
X154787939Y-110623400D01*
X154584061Y-110623400D01*
X154384102Y-110663174D01*
X154209641Y-110735438D01*
X154181837Y-110693826D01*
X154037674Y-110549663D01*
X153868156Y-110436395D01*
X153679798Y-110358374D01*
X153479839Y-110318600D01*
X153275961Y-110318600D01*
X153076002Y-110358374D01*
X152887644Y-110436395D01*
X152718126Y-110549663D01*
X152573963Y-110693826D01*
X152460695Y-110863344D01*
X152382674Y-111051702D01*
X152342900Y-111251661D01*
X141226172Y-111251661D01*
X141226172Y-110559800D01*
X141262439Y-110559800D01*
X141462398Y-110520026D01*
X141650756Y-110442005D01*
X141820274Y-110328737D01*
X141964437Y-110184574D01*
X142077705Y-110015056D01*
X142155726Y-109826698D01*
X142165320Y-109778461D01*
X148355100Y-109778461D01*
X148355100Y-109982339D01*
X148394874Y-110182298D01*
X148472895Y-110370656D01*
X148586163Y-110540174D01*
X148730326Y-110684337D01*
X148899844Y-110797605D01*
X149088202Y-110875626D01*
X149288161Y-110915400D01*
X149492039Y-110915400D01*
X149691998Y-110875626D01*
X149880356Y-110797605D01*
X150049874Y-110684337D01*
X150194037Y-110540174D01*
X150307305Y-110370656D01*
X150377600Y-110200950D01*
X150447895Y-110370656D01*
X150561163Y-110540174D01*
X150705326Y-110684337D01*
X150874844Y-110797605D01*
X151063202Y-110875626D01*
X151263161Y-110915400D01*
X151467039Y-110915400D01*
X151666998Y-110875626D01*
X151855356Y-110797605D01*
X152024874Y-110684337D01*
X152169037Y-110540174D01*
X152282305Y-110370656D01*
X152360326Y-110182298D01*
X152400100Y-109982339D01*
X152400100Y-109778461D01*
X152360326Y-109578502D01*
X152282305Y-109390144D01*
X152169037Y-109220626D01*
X152041072Y-109092661D01*
X154171700Y-109092661D01*
X154171700Y-109296539D01*
X154211474Y-109496498D01*
X154289495Y-109684856D01*
X154402763Y-109854374D01*
X154546926Y-109998537D01*
X154716444Y-110111805D01*
X154904802Y-110189826D01*
X155104761Y-110229600D01*
X155308639Y-110229600D01*
X155508598Y-110189826D01*
X155696956Y-110111805D01*
X155866474Y-109998537D01*
X156010637Y-109854374D01*
X156123905Y-109684856D01*
X156201926Y-109496498D01*
X156241700Y-109296539D01*
X156241700Y-109168861D01*
X157016500Y-109168861D01*
X157016500Y-109372739D01*
X157056274Y-109572698D01*
X157134295Y-109761056D01*
X157247563Y-109930574D01*
X157391726Y-110074737D01*
X157561244Y-110188005D01*
X157749602Y-110266026D01*
X157949561Y-110305800D01*
X158153439Y-110305800D01*
X158353398Y-110266026D01*
X158541756Y-110188005D01*
X158711274Y-110074737D01*
X158855437Y-109930574D01*
X158968705Y-109761056D01*
X159046726Y-109572698D01*
X159086500Y-109372739D01*
X159086500Y-109168861D01*
X159046726Y-108968902D01*
X158968705Y-108780544D01*
X158939651Y-108737061D01*
X159302500Y-108737061D01*
X159302500Y-108940939D01*
X159342274Y-109140898D01*
X159420295Y-109329256D01*
X159533563Y-109498774D01*
X159677726Y-109642937D01*
X159847244Y-109756205D01*
X160035602Y-109834226D01*
X160235561Y-109874000D01*
X160439439Y-109874000D01*
X160639398Y-109834226D01*
X160827756Y-109756205D01*
X160997274Y-109642937D01*
X161141437Y-109498774D01*
X161254705Y-109329256D01*
X161332726Y-109140898D01*
X161372500Y-108940939D01*
X161372500Y-108737061D01*
X161332726Y-108537102D01*
X161254705Y-108348744D01*
X161141437Y-108179226D01*
X160997274Y-108035063D01*
X160827756Y-107921795D01*
X160639398Y-107843774D01*
X160439439Y-107804000D01*
X160235561Y-107804000D01*
X160035602Y-107843774D01*
X159847244Y-107921795D01*
X159677726Y-108035063D01*
X159533563Y-108179226D01*
X159420295Y-108348744D01*
X159342274Y-108537102D01*
X159302500Y-108737061D01*
X158939651Y-108737061D01*
X158855437Y-108611026D01*
X158711274Y-108466863D01*
X158541756Y-108353595D01*
X158353398Y-108275574D01*
X158153439Y-108235800D01*
X157949561Y-108235800D01*
X157749602Y-108275574D01*
X157561244Y-108353595D01*
X157391726Y-108466863D01*
X157247563Y-108611026D01*
X157134295Y-108780544D01*
X157056274Y-108968902D01*
X157016500Y-109168861D01*
X156241700Y-109168861D01*
X156241700Y-109092661D01*
X156201926Y-108892702D01*
X156123905Y-108704344D01*
X156010637Y-108534826D01*
X155866474Y-108390663D01*
X155696956Y-108277395D01*
X155508598Y-108199374D01*
X155308639Y-108159600D01*
X155104761Y-108159600D01*
X154904802Y-108199374D01*
X154716444Y-108277395D01*
X154546926Y-108390663D01*
X154402763Y-108534826D01*
X154289495Y-108704344D01*
X154211474Y-108892702D01*
X154171700Y-109092661D01*
X152041072Y-109092661D01*
X152024874Y-109076463D01*
X151855356Y-108963195D01*
X151666998Y-108885174D01*
X151467039Y-108845400D01*
X151263161Y-108845400D01*
X151063202Y-108885174D01*
X150874844Y-108963195D01*
X150705326Y-109076463D01*
X150561163Y-109220626D01*
X150447895Y-109390144D01*
X150377600Y-109559850D01*
X150307305Y-109390144D01*
X150194037Y-109220626D01*
X150049874Y-109076463D01*
X149880356Y-108963195D01*
X149691998Y-108885174D01*
X149492039Y-108845400D01*
X149288161Y-108845400D01*
X149088202Y-108885174D01*
X148899844Y-108963195D01*
X148730326Y-109076463D01*
X148586163Y-109220626D01*
X148472895Y-109390144D01*
X148394874Y-109578502D01*
X148355100Y-109778461D01*
X142165320Y-109778461D01*
X142195500Y-109626739D01*
X142195500Y-109422861D01*
X142155726Y-109222902D01*
X142077705Y-109034544D01*
X141964437Y-108865026D01*
X141820274Y-108720863D01*
X141650756Y-108607595D01*
X141628705Y-108598461D01*
X143300500Y-108598461D01*
X143300500Y-108802339D01*
X143340274Y-109002298D01*
X143418295Y-109190656D01*
X143531563Y-109360174D01*
X143675726Y-109504337D01*
X143845244Y-109617605D01*
X144033602Y-109695626D01*
X144233561Y-109735400D01*
X144437439Y-109735400D01*
X144637398Y-109695626D01*
X144825756Y-109617605D01*
X144995274Y-109504337D01*
X145139437Y-109360174D01*
X145252705Y-109190656D01*
X145330726Y-109002298D01*
X145370500Y-108802339D01*
X145370500Y-108598461D01*
X145330726Y-108398502D01*
X145252705Y-108210144D01*
X145139437Y-108040626D01*
X144995274Y-107896463D01*
X144825756Y-107783195D01*
X144637398Y-107705174D01*
X144437439Y-107665400D01*
X144233561Y-107665400D01*
X144033602Y-107705174D01*
X143845244Y-107783195D01*
X143675726Y-107896463D01*
X143531563Y-108040626D01*
X143418295Y-108210144D01*
X143340274Y-108398502D01*
X143300500Y-108598461D01*
X141628705Y-108598461D01*
X141462398Y-108529574D01*
X141262439Y-108489800D01*
X141170081Y-108489800D01*
X141223100Y-108223260D01*
X141223100Y-107930740D01*
X141166032Y-107643842D01*
X141103329Y-107492461D01*
X152330200Y-107492461D01*
X152330200Y-107696339D01*
X152369974Y-107896298D01*
X152447995Y-108084656D01*
X152561263Y-108254174D01*
X152705426Y-108398337D01*
X152874944Y-108511605D01*
X153063302Y-108589626D01*
X153263261Y-108629400D01*
X153467139Y-108629400D01*
X153667098Y-108589626D01*
X153855456Y-108511605D01*
X154024974Y-108398337D01*
X154169137Y-108254174D01*
X154282405Y-108084656D01*
X154360426Y-107896298D01*
X154400200Y-107696339D01*
X154400200Y-107492461D01*
X154360426Y-107292502D01*
X154282405Y-107104144D01*
X154169137Y-106934626D01*
X154024974Y-106790463D01*
X153855456Y-106677195D01*
X153667098Y-106599174D01*
X153467139Y-106559400D01*
X153263261Y-106559400D01*
X153063302Y-106599174D01*
X152874944Y-106677195D01*
X152705426Y-106790463D01*
X152561263Y-106934626D01*
X152447995Y-107104144D01*
X152369974Y-107292502D01*
X152330200Y-107492461D01*
X141103329Y-107492461D01*
X141054090Y-107373589D01*
X140891575Y-107130368D01*
X140684732Y-106923525D01*
X140510340Y-106807000D01*
X140684732Y-106690475D01*
X140891575Y-106483632D01*
X141054090Y-106240411D01*
X141088448Y-106157461D01*
X142741700Y-106157461D01*
X142741700Y-106361339D01*
X142781474Y-106561298D01*
X142859495Y-106749656D01*
X142972763Y-106919174D01*
X143116926Y-107063337D01*
X143286444Y-107176605D01*
X143474802Y-107254626D01*
X143674761Y-107294400D01*
X143878639Y-107294400D01*
X144078598Y-107254626D01*
X144266956Y-107176605D01*
X144436474Y-107063337D01*
X144580637Y-106919174D01*
X144693905Y-106749656D01*
X144771926Y-106561298D01*
X144811700Y-106361339D01*
X144811700Y-106349461D01*
X148050300Y-106349461D01*
X148050300Y-106553339D01*
X148090074Y-106753298D01*
X148168095Y-106941656D01*
X148281363Y-107111174D01*
X148425526Y-107255337D01*
X148595044Y-107368605D01*
X148783402Y-107446626D01*
X148983361Y-107486400D01*
X149187239Y-107486400D01*
X149387198Y-107446626D01*
X149575556Y-107368605D01*
X149745074Y-107255337D01*
X149889237Y-107111174D01*
X149995543Y-106952075D01*
X150033963Y-107009574D01*
X150178126Y-107153737D01*
X150347644Y-107267005D01*
X150536002Y-107345026D01*
X150735961Y-107384800D01*
X150939839Y-107384800D01*
X151139798Y-107345026D01*
X151328156Y-107267005D01*
X151497674Y-107153737D01*
X151641837Y-107009574D01*
X151755105Y-106840056D01*
X151833126Y-106651698D01*
X151872900Y-106451739D01*
X151872900Y-106247861D01*
X151862480Y-106195471D01*
X155322810Y-106195471D01*
X155322810Y-106399349D01*
X155362584Y-106599308D01*
X155440605Y-106787666D01*
X155553873Y-106957184D01*
X155698036Y-107101347D01*
X155867554Y-107214615D01*
X156055912Y-107292636D01*
X156255871Y-107332410D01*
X156459749Y-107332410D01*
X156659708Y-107292636D01*
X156848066Y-107214615D01*
X157017584Y-107101347D01*
X157079928Y-107039003D01*
X157134295Y-107170256D01*
X157247563Y-107339774D01*
X157391726Y-107483937D01*
X157561244Y-107597205D01*
X157749602Y-107675226D01*
X157949561Y-107715000D01*
X158153439Y-107715000D01*
X158353398Y-107675226D01*
X158541756Y-107597205D01*
X158711274Y-107483937D01*
X158855437Y-107339774D01*
X158968705Y-107170256D01*
X159026755Y-107030113D01*
X159036208Y-107039566D01*
X159205726Y-107152834D01*
X159394084Y-107230855D01*
X159594043Y-107270629D01*
X159797921Y-107270629D01*
X159997880Y-107230855D01*
X160186238Y-107152834D01*
X160355756Y-107039566D01*
X160499919Y-106895403D01*
X160613187Y-106725885D01*
X160691208Y-106537527D01*
X160730982Y-106337568D01*
X160730982Y-106133690D01*
X160691208Y-105933731D01*
X160613187Y-105745373D01*
X160499919Y-105575855D01*
X160355756Y-105431692D01*
X160186238Y-105318424D01*
X159997880Y-105240403D01*
X159797921Y-105200629D01*
X159594043Y-105200629D01*
X159394084Y-105240403D01*
X159205726Y-105318424D01*
X159036208Y-105431692D01*
X158892045Y-105575855D01*
X158778777Y-105745373D01*
X158720727Y-105885516D01*
X158711274Y-105876063D01*
X158541756Y-105762795D01*
X158353398Y-105684774D01*
X158153439Y-105645000D01*
X157949561Y-105645000D01*
X157749602Y-105684774D01*
X157561244Y-105762795D01*
X157391726Y-105876063D01*
X157329382Y-105938407D01*
X157275015Y-105807154D01*
X157161747Y-105637636D01*
X157017584Y-105493473D01*
X156848066Y-105380205D01*
X156659708Y-105302184D01*
X156459749Y-105262410D01*
X156255871Y-105262410D01*
X156055912Y-105302184D01*
X155867554Y-105380205D01*
X155698036Y-105493473D01*
X155553873Y-105637636D01*
X155440605Y-105807154D01*
X155362584Y-105995512D01*
X155322810Y-106195471D01*
X151862480Y-106195471D01*
X151833126Y-106047902D01*
X151755105Y-105859544D01*
X151641837Y-105690026D01*
X151497674Y-105545863D01*
X151328156Y-105432595D01*
X151139798Y-105354574D01*
X150939839Y-105314800D01*
X150735961Y-105314800D01*
X150536002Y-105354574D01*
X150347644Y-105432595D01*
X150178126Y-105545863D01*
X150033963Y-105690026D01*
X149927657Y-105849125D01*
X149889237Y-105791626D01*
X149745074Y-105647463D01*
X149575556Y-105534195D01*
X149387198Y-105456174D01*
X149187239Y-105416400D01*
X148983361Y-105416400D01*
X148783402Y-105456174D01*
X148595044Y-105534195D01*
X148425526Y-105647463D01*
X148281363Y-105791626D01*
X148168095Y-105961144D01*
X148090074Y-106149502D01*
X148050300Y-106349461D01*
X144811700Y-106349461D01*
X144811700Y-106157461D01*
X144771926Y-105957502D01*
X144693905Y-105769144D01*
X144580637Y-105599626D01*
X144436474Y-105455463D01*
X144266956Y-105342195D01*
X144078598Y-105264174D01*
X143878639Y-105224400D01*
X143674761Y-105224400D01*
X143474802Y-105264174D01*
X143286444Y-105342195D01*
X143116926Y-105455463D01*
X142972763Y-105599626D01*
X142859495Y-105769144D01*
X142781474Y-105957502D01*
X142741700Y-106157461D01*
X141088448Y-106157461D01*
X141166032Y-105970158D01*
X141223100Y-105683260D01*
X141223100Y-105390740D01*
X141166032Y-105103842D01*
X141054090Y-104833589D01*
X140891575Y-104590368D01*
X140684732Y-104383525D01*
X140502566Y-104261805D01*
X140619455Y-104192178D01*
X140682257Y-104135569D01*
X142059992Y-104135569D01*
X142059992Y-104339447D01*
X142099766Y-104539406D01*
X142177787Y-104727764D01*
X142291055Y-104897282D01*
X142435218Y-105041445D01*
X142604736Y-105154713D01*
X142793094Y-105232734D01*
X142993053Y-105272508D01*
X143196931Y-105272508D01*
X143396890Y-105232734D01*
X143585248Y-105154713D01*
X143754766Y-105041445D01*
X143898929Y-104897282D01*
X144012197Y-104727764D01*
X144090218Y-104539406D01*
X144092504Y-104527912D01*
X144103998Y-104525626D01*
X144292356Y-104447605D01*
X144461874Y-104334337D01*
X144606037Y-104190174D01*
X144719305Y-104020656D01*
X144797326Y-103832298D01*
X144837100Y-103632339D01*
X144837100Y-103428461D01*
X144797326Y-103228502D01*
X144719305Y-103040144D01*
X144606037Y-102870626D01*
X144461874Y-102726463D01*
X144292356Y-102613195D01*
X144103998Y-102535174D01*
X143904039Y-102495400D01*
X143700161Y-102495400D01*
X143500202Y-102535174D01*
X143311844Y-102613195D01*
X143142326Y-102726463D01*
X142998163Y-102870626D01*
X142884895Y-103040144D01*
X142806874Y-103228502D01*
X142804588Y-103239996D01*
X142793094Y-103242282D01*
X142604736Y-103320303D01*
X142435218Y-103433571D01*
X142291055Y-103577734D01*
X142177787Y-103747252D01*
X142099766Y-103935610D01*
X142059992Y-104135569D01*
X140682257Y-104135569D01*
X140835688Y-103997269D01*
X141009741Y-103763920D01*
X141134925Y-103501099D01*
X141179576Y-103353890D01*
X141058255Y-103124000D01*
X139865100Y-103124000D01*
X139865100Y-103144000D01*
X139611100Y-103144000D01*
X139611100Y-103124000D01*
X138417945Y-103124000D01*
X138296624Y-103353890D01*
X138341275Y-103501099D01*
X138466459Y-103763920D01*
X138640512Y-103997269D01*
X138856745Y-104192178D01*
X138973634Y-104261805D01*
X138791468Y-104383525D01*
X138584625Y-104590368D01*
X138422110Y-104833589D01*
X138310168Y-105103842D01*
X138253100Y-105390740D01*
X138253100Y-105683260D01*
X138310168Y-105970158D01*
X138422110Y-106240411D01*
X138584625Y-106483632D01*
X138791468Y-106690475D01*
X138965860Y-106807000D01*
X138791468Y-106923525D01*
X138584625Y-107130368D01*
X138422110Y-107373589D01*
X138310168Y-107643842D01*
X138253100Y-107930740D01*
X138253100Y-108223260D01*
X138310168Y-108510158D01*
X138422110Y-108780411D01*
X138584625Y-109023632D01*
X138716480Y-109155487D01*
X138643920Y-109177498D01*
X138533606Y-109236463D01*
X138436915Y-109315815D01*
X138357563Y-109412506D01*
X138298598Y-109522820D01*
X138262288Y-109642518D01*
X138250028Y-109767000D01*
X134810100Y-109767000D01*
X134810100Y-102640110D01*
X138296624Y-102640110D01*
X138417945Y-102870000D01*
X139611100Y-102870000D01*
X139611100Y-102850000D01*
X139865100Y-102850000D01*
X139865100Y-102870000D01*
X141058255Y-102870000D01*
X141179576Y-102640110D01*
X141134925Y-102492901D01*
X141095237Y-102409578D01*
X141185192Y-102319623D01*
X141298460Y-102150105D01*
X141376481Y-101961747D01*
X141416255Y-101761788D01*
X141416255Y-101557910D01*
X141376481Y-101357951D01*
X141298460Y-101169593D01*
X141280332Y-101142461D01*
X146069100Y-101142461D01*
X146069100Y-101346339D01*
X146108874Y-101546298D01*
X146186895Y-101734656D01*
X146300163Y-101904174D01*
X146444326Y-102048337D01*
X146613844Y-102161605D01*
X146802202Y-102239626D01*
X147002161Y-102279400D01*
X147206039Y-102279400D01*
X147405998Y-102239626D01*
X147540625Y-102183861D01*
X150844300Y-102183861D01*
X150844300Y-102387739D01*
X150884074Y-102587698D01*
X150962095Y-102776056D01*
X151075363Y-102945574D01*
X151219526Y-103089737D01*
X151389044Y-103203005D01*
X151577402Y-103281026D01*
X151777361Y-103320800D01*
X151981239Y-103320800D01*
X152181198Y-103281026D01*
X152369556Y-103203005D01*
X152539074Y-103089737D01*
X152683237Y-102945574D01*
X152796505Y-102776056D01*
X152874526Y-102587698D01*
X152914300Y-102387739D01*
X152914300Y-102183861D01*
X152884591Y-102034501D01*
X152947652Y-101971440D01*
X153060920Y-101801922D01*
X153138941Y-101613564D01*
X153178715Y-101413605D01*
X153178715Y-101209727D01*
X153138941Y-101009768D01*
X153115221Y-100952502D01*
X153279202Y-101020426D01*
X153479161Y-101060200D01*
X153683039Y-101060200D01*
X153882998Y-101020426D01*
X154071356Y-100942405D01*
X154159900Y-100883242D01*
X154133600Y-101015461D01*
X154133600Y-101219339D01*
X154173374Y-101419298D01*
X154251395Y-101607656D01*
X154364663Y-101777174D01*
X154508826Y-101921337D01*
X154678344Y-102034605D01*
X154866702Y-102112626D01*
X155066661Y-102152400D01*
X155270539Y-102152400D01*
X155470498Y-102112626D01*
X155658856Y-102034605D01*
X155828374Y-101921337D01*
X155972537Y-101777174D01*
X156085805Y-101607656D01*
X156163826Y-101419298D01*
X156189061Y-101292432D01*
X156675040Y-101292432D01*
X156675040Y-101496310D01*
X156714814Y-101696269D01*
X156792835Y-101884627D01*
X156906103Y-102054145D01*
X157050266Y-102198308D01*
X157219784Y-102311576D01*
X157408142Y-102389597D01*
X157608101Y-102429371D01*
X157811979Y-102429371D01*
X158011938Y-102389597D01*
X158200296Y-102311576D01*
X158369814Y-102198308D01*
X158422878Y-102145244D01*
X158595503Y-102179581D01*
X158672539Y-102179581D01*
X158685567Y-102245077D01*
X158763588Y-102433435D01*
X158876856Y-102602953D01*
X159021019Y-102747116D01*
X159190537Y-102860384D01*
X159378895Y-102938405D01*
X159578854Y-102978179D01*
X159782732Y-102978179D01*
X159982691Y-102938405D01*
X160171049Y-102860384D01*
X160340567Y-102747116D01*
X160484730Y-102602953D01*
X160597998Y-102433435D01*
X160676019Y-102245077D01*
X160710695Y-102070747D01*
X160746866Y-102063552D01*
X160935224Y-101985531D01*
X161104742Y-101872263D01*
X161248905Y-101728100D01*
X161362173Y-101558582D01*
X161440194Y-101370224D01*
X161479968Y-101170265D01*
X161479968Y-100966387D01*
X161440194Y-100766428D01*
X161362173Y-100578070D01*
X161248905Y-100408552D01*
X161104742Y-100264389D01*
X160935224Y-100151121D01*
X160746866Y-100073100D01*
X160546907Y-100033326D01*
X160343029Y-100033326D01*
X160143070Y-100073100D01*
X159954712Y-100151121D01*
X159785194Y-100264389D01*
X159641031Y-100408552D01*
X159545729Y-100551182D01*
X159501379Y-100484807D01*
X159357216Y-100340644D01*
X159187698Y-100227376D01*
X158999340Y-100149355D01*
X158799381Y-100109581D01*
X158595503Y-100109581D01*
X158395544Y-100149355D01*
X158207186Y-100227376D01*
X158037668Y-100340644D01*
X157984604Y-100393708D01*
X157811979Y-100359371D01*
X157608101Y-100359371D01*
X157408142Y-100399145D01*
X157219784Y-100477166D01*
X157050266Y-100590434D01*
X156906103Y-100734597D01*
X156792835Y-100904115D01*
X156714814Y-101092473D01*
X156675040Y-101292432D01*
X156189061Y-101292432D01*
X156203600Y-101219339D01*
X156203600Y-101015461D01*
X156163826Y-100815502D01*
X156085805Y-100627144D01*
X155972537Y-100457626D01*
X155828374Y-100313463D01*
X155658856Y-100200195D01*
X155470498Y-100122174D01*
X155352757Y-100098754D01*
X155488614Y-100098754D01*
X155688573Y-100058980D01*
X155876931Y-99980959D01*
X156046449Y-99867691D01*
X156190612Y-99723528D01*
X156303880Y-99554010D01*
X156381901Y-99365652D01*
X156421675Y-99165693D01*
X156421675Y-98961815D01*
X156381901Y-98761856D01*
X156303880Y-98573498D01*
X156190612Y-98403980D01*
X156046449Y-98259817D01*
X155876931Y-98146549D01*
X155688573Y-98068528D01*
X155488614Y-98028754D01*
X155284736Y-98028754D01*
X155084777Y-98068528D01*
X154896419Y-98146549D01*
X154726901Y-98259817D01*
X154582738Y-98403980D01*
X154469470Y-98573498D01*
X154391449Y-98761856D01*
X154351675Y-98961815D01*
X154351675Y-99165693D01*
X154391449Y-99365652D01*
X154401661Y-99390305D01*
X154385037Y-99365426D01*
X154240874Y-99221263D01*
X154071356Y-99107995D01*
X153882998Y-99029974D01*
X153683039Y-98990200D01*
X153479161Y-98990200D01*
X153279202Y-99029974D01*
X153090844Y-99107995D01*
X152921326Y-99221263D01*
X152777163Y-99365426D01*
X152663895Y-99534944D01*
X152585874Y-99723302D01*
X152546100Y-99923261D01*
X152546100Y-100127139D01*
X152585874Y-100327098D01*
X152609594Y-100384364D01*
X152445613Y-100316440D01*
X152245654Y-100276666D01*
X152041776Y-100276666D01*
X151841817Y-100316440D01*
X151653459Y-100394461D01*
X151483941Y-100507729D01*
X151339778Y-100651892D01*
X151226510Y-100821410D01*
X151148489Y-101009768D01*
X151108715Y-101209727D01*
X151108715Y-101413605D01*
X151138424Y-101562965D01*
X151075363Y-101626026D01*
X150962095Y-101795544D01*
X150884074Y-101983902D01*
X150844300Y-102183861D01*
X147540625Y-102183861D01*
X147594356Y-102161605D01*
X147763874Y-102048337D01*
X147908037Y-101904174D01*
X148021305Y-101734656D01*
X148099326Y-101546298D01*
X148139100Y-101346339D01*
X148139100Y-101142461D01*
X148099326Y-100942502D01*
X148021305Y-100754144D01*
X147908037Y-100584626D01*
X147763874Y-100440463D01*
X147594356Y-100327195D01*
X147405998Y-100249174D01*
X147206039Y-100209400D01*
X147002161Y-100209400D01*
X146802202Y-100249174D01*
X146613844Y-100327195D01*
X146444326Y-100440463D01*
X146300163Y-100584626D01*
X146186895Y-100754144D01*
X146108874Y-100942502D01*
X146069100Y-101142461D01*
X141280332Y-101142461D01*
X141185192Y-101000075D01*
X141041029Y-100855912D01*
X140871511Y-100742644D01*
X140683153Y-100664623D01*
X140483194Y-100624849D01*
X140279316Y-100624849D01*
X140079357Y-100664623D01*
X139890999Y-100742644D01*
X139721481Y-100855912D01*
X139577318Y-101000075D01*
X139464050Y-101169593D01*
X139386029Y-101357951D01*
X139346255Y-101557910D01*
X139346255Y-101567918D01*
X139106848Y-101652843D01*
X138856745Y-101801822D01*
X138640512Y-101996731D01*
X138466459Y-102230080D01*
X138341275Y-102492901D01*
X138296624Y-102640110D01*
X134810100Y-102640110D01*
X134810100Y-98985090D01*
X138296624Y-98985090D01*
X138341275Y-99132299D01*
X138466459Y-99395120D01*
X138640512Y-99628469D01*
X138856745Y-99823378D01*
X139106848Y-99972357D01*
X139381209Y-100069681D01*
X139611100Y-99949014D01*
X139611100Y-98755200D01*
X139865100Y-98755200D01*
X139865100Y-99949014D01*
X140094991Y-100069681D01*
X140369352Y-99972357D01*
X140619455Y-99823378D01*
X140835688Y-99628469D01*
X140994718Y-99415261D01*
X141547900Y-99415261D01*
X141547900Y-99619139D01*
X141587674Y-99819098D01*
X141665695Y-100007456D01*
X141778963Y-100176974D01*
X141923126Y-100321137D01*
X142092644Y-100434405D01*
X142281002Y-100512426D01*
X142480961Y-100552200D01*
X142684839Y-100552200D01*
X142884798Y-100512426D01*
X143073156Y-100434405D01*
X143242674Y-100321137D01*
X143372539Y-100191272D01*
X143443695Y-100363056D01*
X143556963Y-100532574D01*
X143701126Y-100676737D01*
X143870644Y-100790005D01*
X144059002Y-100868026D01*
X144258961Y-100907800D01*
X144462839Y-100907800D01*
X144662798Y-100868026D01*
X144851156Y-100790005D01*
X145020674Y-100676737D01*
X145164837Y-100532574D01*
X145278105Y-100363056D01*
X145356126Y-100174698D01*
X145395900Y-99974739D01*
X145395900Y-99770861D01*
X145356126Y-99570902D01*
X145278105Y-99382544D01*
X145164837Y-99213026D01*
X145020674Y-99068863D01*
X144851156Y-98955595D01*
X144662798Y-98877574D01*
X144462839Y-98837800D01*
X144258961Y-98837800D01*
X144059002Y-98877574D01*
X143870644Y-98955595D01*
X143701126Y-99068863D01*
X143571261Y-99198728D01*
X143500105Y-99026944D01*
X143386837Y-98857426D01*
X143242674Y-98713263D01*
X143073156Y-98599995D01*
X142884798Y-98521974D01*
X142684839Y-98482200D01*
X142480961Y-98482200D01*
X142281002Y-98521974D01*
X142092644Y-98599995D01*
X141923126Y-98713263D01*
X141778963Y-98857426D01*
X141665695Y-99026944D01*
X141587674Y-99215302D01*
X141547900Y-99415261D01*
X140994718Y-99415261D01*
X141009741Y-99395120D01*
X141134925Y-99132299D01*
X141179576Y-98985090D01*
X141058255Y-98755200D01*
X139865100Y-98755200D01*
X139611100Y-98755200D01*
X138417945Y-98755200D01*
X138296624Y-98985090D01*
X134810100Y-98985090D01*
X134810100Y-90158200D01*
X138250028Y-90158200D01*
X138250028Y-91858200D01*
X138262288Y-91982682D01*
X138298598Y-92102380D01*
X138357563Y-92212694D01*
X138436915Y-92309385D01*
X138533606Y-92388737D01*
X138643920Y-92447702D01*
X138716480Y-92469713D01*
X138584625Y-92601568D01*
X138422110Y-92844789D01*
X138310168Y-93115042D01*
X138253100Y-93401940D01*
X138253100Y-93694460D01*
X138310168Y-93981358D01*
X138422110Y-94251611D01*
X138584625Y-94494832D01*
X138791468Y-94701675D01*
X138965860Y-94818200D01*
X138791468Y-94934725D01*
X138584625Y-95141568D01*
X138422110Y-95384789D01*
X138310168Y-95655042D01*
X138253100Y-95941940D01*
X138253100Y-96234460D01*
X138310168Y-96521358D01*
X138422110Y-96791611D01*
X138584625Y-97034832D01*
X138791468Y-97241675D01*
X138973634Y-97363395D01*
X138856745Y-97433022D01*
X138640512Y-97627931D01*
X138466459Y-97861280D01*
X138341275Y-98124101D01*
X138296624Y-98271310D01*
X138417945Y-98501200D01*
X139611100Y-98501200D01*
X139611100Y-98481200D01*
X139865100Y-98481200D01*
X139865100Y-98501200D01*
X141058255Y-98501200D01*
X141179576Y-98271310D01*
X141134925Y-98124101D01*
X141009741Y-97861280D01*
X140835688Y-97627931D01*
X140619455Y-97433022D01*
X140502566Y-97363395D01*
X140684732Y-97241675D01*
X140822546Y-97103861D01*
X143783100Y-97103861D01*
X143783100Y-97307739D01*
X143822874Y-97507698D01*
X143900895Y-97696056D01*
X144014163Y-97865574D01*
X144158326Y-98009737D01*
X144327844Y-98123005D01*
X144516202Y-98201026D01*
X144716161Y-98240800D01*
X144920039Y-98240800D01*
X145119998Y-98201026D01*
X145308356Y-98123005D01*
X145477874Y-98009737D01*
X145545550Y-97942061D01*
X145815100Y-97942061D01*
X145815100Y-98145939D01*
X145854874Y-98345898D01*
X145932895Y-98534256D01*
X146046163Y-98703774D01*
X146190326Y-98847937D01*
X146359844Y-98961205D01*
X146548202Y-99039226D01*
X146748161Y-99079000D01*
X146952039Y-99079000D01*
X147151998Y-99039226D01*
X147340356Y-98961205D01*
X147509874Y-98847937D01*
X147654037Y-98703774D01*
X147767305Y-98534256D01*
X147845326Y-98345898D01*
X147885100Y-98145939D01*
X147885100Y-97942061D01*
X147845326Y-97742102D01*
X147767305Y-97553744D01*
X147654037Y-97384226D01*
X147509874Y-97240063D01*
X147340356Y-97126795D01*
X147223669Y-97078461D01*
X150641100Y-97078461D01*
X150641100Y-97282339D01*
X150680874Y-97482298D01*
X150758895Y-97670656D01*
X150872163Y-97840174D01*
X151016326Y-97984337D01*
X151185844Y-98097605D01*
X151195801Y-98101729D01*
X151195801Y-98114390D01*
X151235575Y-98314349D01*
X151313596Y-98502707D01*
X151426864Y-98672225D01*
X151571027Y-98816388D01*
X151740545Y-98929656D01*
X151928903Y-99007677D01*
X152128862Y-99047451D01*
X152332740Y-99047451D01*
X152532699Y-99007677D01*
X152721057Y-98929656D01*
X152890575Y-98816388D01*
X153034738Y-98672225D01*
X153148006Y-98502707D01*
X153226027Y-98314349D01*
X153265801Y-98114390D01*
X153265801Y-97910512D01*
X153226027Y-97710553D01*
X153148006Y-97522195D01*
X153034738Y-97352677D01*
X152890575Y-97208514D01*
X152721057Y-97095246D01*
X152711100Y-97091122D01*
X152711100Y-97078461D01*
X152671326Y-96878502D01*
X152593305Y-96690144D01*
X152480037Y-96520626D01*
X152402872Y-96443461D01*
X153460500Y-96443461D01*
X153460500Y-96647339D01*
X153500274Y-96847298D01*
X153578295Y-97035656D01*
X153691563Y-97205174D01*
X153835726Y-97349337D01*
X154005244Y-97462605D01*
X154193602Y-97540626D01*
X154393561Y-97580400D01*
X154597439Y-97580400D01*
X154797398Y-97540626D01*
X154985756Y-97462605D01*
X155155274Y-97349337D01*
X155299437Y-97205174D01*
X155412705Y-97035656D01*
X155490726Y-96847298D01*
X155530500Y-96647339D01*
X155530500Y-96443461D01*
X155490726Y-96243502D01*
X155426300Y-96087966D01*
X155486605Y-96047672D01*
X155630768Y-95903509D01*
X155744036Y-95733991D01*
X155822057Y-95545633D01*
X155861831Y-95345674D01*
X155861831Y-95141796D01*
X155822057Y-94941837D01*
X155744036Y-94753479D01*
X155630768Y-94583961D01*
X155486605Y-94439798D01*
X155317087Y-94326530D01*
X155128729Y-94248509D01*
X154928770Y-94208735D01*
X154724892Y-94208735D01*
X154524933Y-94248509D01*
X154336575Y-94326530D01*
X154167057Y-94439798D01*
X154022894Y-94583961D01*
X153909626Y-94753479D01*
X153831605Y-94941837D01*
X153791831Y-95141796D01*
X153791831Y-95345674D01*
X153831605Y-95545633D01*
X153896031Y-95701169D01*
X153835726Y-95741463D01*
X153691563Y-95885626D01*
X153578295Y-96055144D01*
X153500274Y-96243502D01*
X153460500Y-96443461D01*
X152402872Y-96443461D01*
X152335874Y-96376463D01*
X152166356Y-96263195D01*
X151977998Y-96185174D01*
X151778039Y-96145400D01*
X151574161Y-96145400D01*
X151374202Y-96185174D01*
X151185844Y-96263195D01*
X151016326Y-96376463D01*
X150872163Y-96520626D01*
X150758895Y-96690144D01*
X150680874Y-96878502D01*
X150641100Y-97078461D01*
X147223669Y-97078461D01*
X147151998Y-97048774D01*
X146952039Y-97009000D01*
X146748161Y-97009000D01*
X146548202Y-97048774D01*
X146359844Y-97126795D01*
X146190326Y-97240063D01*
X146046163Y-97384226D01*
X145932895Y-97553744D01*
X145854874Y-97742102D01*
X145815100Y-97942061D01*
X145545550Y-97942061D01*
X145622037Y-97865574D01*
X145735305Y-97696056D01*
X145813326Y-97507698D01*
X145853100Y-97307739D01*
X145853100Y-97103861D01*
X145813326Y-96903902D01*
X145735305Y-96715544D01*
X145622037Y-96546026D01*
X145477874Y-96401863D01*
X145308356Y-96288595D01*
X145119998Y-96210574D01*
X144920039Y-96170800D01*
X144716161Y-96170800D01*
X144516202Y-96210574D01*
X144327844Y-96288595D01*
X144158326Y-96401863D01*
X144014163Y-96546026D01*
X143900895Y-96715544D01*
X143822874Y-96903902D01*
X143783100Y-97103861D01*
X140822546Y-97103861D01*
X140891575Y-97034832D01*
X141054090Y-96791611D01*
X141166032Y-96521358D01*
X141223100Y-96234460D01*
X141223100Y-95941940D01*
X141166032Y-95655042D01*
X141054090Y-95384789D01*
X140891575Y-95141568D01*
X140684732Y-94934725D01*
X140510340Y-94818200D01*
X140684732Y-94701675D01*
X140800829Y-94585578D01*
X146495100Y-94585578D01*
X146495100Y-94789456D01*
X146534874Y-94989415D01*
X146612895Y-95177773D01*
X146726163Y-95347291D01*
X146870326Y-95491454D01*
X147039844Y-95604722D01*
X147228202Y-95682743D01*
X147428161Y-95722517D01*
X147632039Y-95722517D01*
X147831998Y-95682743D01*
X148020356Y-95604722D01*
X148189874Y-95491454D01*
X148334037Y-95347291D01*
X148447305Y-95177773D01*
X148501696Y-95046461D01*
X149117100Y-95046461D01*
X149117100Y-95250339D01*
X149156874Y-95450298D01*
X149234895Y-95638656D01*
X149348163Y-95808174D01*
X149492326Y-95952337D01*
X149661844Y-96065605D01*
X149850202Y-96143626D01*
X150050161Y-96183400D01*
X150254039Y-96183400D01*
X150453998Y-96143626D01*
X150642356Y-96065605D01*
X150811874Y-95952337D01*
X150956037Y-95808174D01*
X151069305Y-95638656D01*
X151147326Y-95450298D01*
X151187100Y-95250339D01*
X151187100Y-95046461D01*
X151147326Y-94846502D01*
X151069305Y-94658144D01*
X150956037Y-94488626D01*
X150811874Y-94344463D01*
X150642356Y-94231195D01*
X150453998Y-94153174D01*
X150254039Y-94113400D01*
X150050161Y-94113400D01*
X149850202Y-94153174D01*
X149661844Y-94231195D01*
X149492326Y-94344463D01*
X149348163Y-94488626D01*
X149234895Y-94658144D01*
X149156874Y-94846502D01*
X149117100Y-95046461D01*
X148501696Y-95046461D01*
X148525326Y-94989415D01*
X148565100Y-94789456D01*
X148565100Y-94585578D01*
X148525326Y-94385619D01*
X148447305Y-94197261D01*
X148334037Y-94027743D01*
X148189874Y-93883580D01*
X148020356Y-93770312D01*
X147831998Y-93692291D01*
X147632039Y-93652517D01*
X147428161Y-93652517D01*
X147228202Y-93692291D01*
X147039844Y-93770312D01*
X146870326Y-93883580D01*
X146726163Y-94027743D01*
X146612895Y-94197261D01*
X146534874Y-94385619D01*
X146495100Y-94585578D01*
X140800829Y-94585578D01*
X140891575Y-94494832D01*
X141054090Y-94251611D01*
X141166032Y-93981358D01*
X141223100Y-93694460D01*
X141223100Y-93401940D01*
X141166032Y-93115042D01*
X141124371Y-93014461D01*
X159023100Y-93014461D01*
X159023100Y-93218339D01*
X159062874Y-93418298D01*
X159140895Y-93606656D01*
X159254163Y-93776174D01*
X159388814Y-93910825D01*
X159316874Y-94084502D01*
X159277100Y-94284461D01*
X159277100Y-94488339D01*
X159316874Y-94688298D01*
X159394895Y-94876656D01*
X159508163Y-95046174D01*
X159652326Y-95190337D01*
X159821844Y-95303605D01*
X160010202Y-95381626D01*
X160210161Y-95421400D01*
X160414039Y-95421400D01*
X160613998Y-95381626D01*
X160802356Y-95303605D01*
X160971874Y-95190337D01*
X161116037Y-95046174D01*
X161229305Y-94876656D01*
X161307326Y-94688298D01*
X161347100Y-94488339D01*
X161347100Y-94284461D01*
X161307326Y-94084502D01*
X161229305Y-93896144D01*
X161116037Y-93726626D01*
X160981386Y-93591975D01*
X161053326Y-93418298D01*
X161093100Y-93218339D01*
X161093100Y-93014461D01*
X161053326Y-92814502D01*
X160975305Y-92626144D01*
X160862037Y-92456626D01*
X160717874Y-92312463D01*
X160548356Y-92199195D01*
X160359998Y-92121174D01*
X160160039Y-92081400D01*
X159956161Y-92081400D01*
X159756202Y-92121174D01*
X159567844Y-92199195D01*
X159398326Y-92312463D01*
X159254163Y-92456626D01*
X159140895Y-92626144D01*
X159062874Y-92814502D01*
X159023100Y-93014461D01*
X141124371Y-93014461D01*
X141054090Y-92844789D01*
X140891575Y-92601568D01*
X140759720Y-92469713D01*
X140832280Y-92447702D01*
X140942594Y-92388737D01*
X141039285Y-92309385D01*
X141118637Y-92212694D01*
X141177602Y-92102380D01*
X141213912Y-91982682D01*
X141226172Y-91858200D01*
X141226172Y-90182114D01*
X143739079Y-90182114D01*
X143739079Y-90385992D01*
X143778853Y-90585951D01*
X143856874Y-90774309D01*
X143970142Y-90943827D01*
X144114305Y-91087990D01*
X144283823Y-91201258D01*
X144472181Y-91279279D01*
X144672140Y-91319053D01*
X144876018Y-91319053D01*
X145075977Y-91279279D01*
X145264335Y-91201258D01*
X145433853Y-91087990D01*
X145578016Y-90943827D01*
X145691284Y-90774309D01*
X145769305Y-90585951D01*
X145776164Y-90551468D01*
X145786202Y-90555626D01*
X145986161Y-90595400D01*
X146084571Y-90595400D01*
X146034495Y-90670344D01*
X145956474Y-90858702D01*
X145916700Y-91058661D01*
X145916700Y-91262539D01*
X145956474Y-91462498D01*
X146034495Y-91650856D01*
X146147763Y-91820374D01*
X146291926Y-91964537D01*
X146461444Y-92077805D01*
X146649802Y-92155826D01*
X146849761Y-92195600D01*
X147053639Y-92195600D01*
X147253598Y-92155826D01*
X147441956Y-92077805D01*
X147611474Y-91964537D01*
X147755637Y-91820374D01*
X147868905Y-91650856D01*
X147946926Y-91462498D01*
X147986700Y-91262539D01*
X147986700Y-91058661D01*
X147946926Y-90858702D01*
X147868905Y-90670344D01*
X147755637Y-90500826D01*
X147611474Y-90356663D01*
X147441956Y-90243395D01*
X147253598Y-90165374D01*
X147053639Y-90125600D01*
X146955229Y-90125600D01*
X147005305Y-90050656D01*
X147083326Y-89862298D01*
X147123100Y-89662339D01*
X147123100Y-89458461D01*
X147083326Y-89258502D01*
X147005305Y-89070144D01*
X146892037Y-88900626D01*
X146747874Y-88756463D01*
X146713449Y-88733461D01*
X151800097Y-88733461D01*
X151800097Y-88937339D01*
X151839871Y-89137298D01*
X151917892Y-89325656D01*
X152031160Y-89495174D01*
X152175323Y-89639337D01*
X152344841Y-89752605D01*
X152533199Y-89830626D01*
X152733158Y-89870400D01*
X152937036Y-89870400D01*
X153136995Y-89830626D01*
X153325353Y-89752605D01*
X153335099Y-89746093D01*
X153344844Y-89752605D01*
X153533202Y-89830626D01*
X153733161Y-89870400D01*
X153937039Y-89870400D01*
X154136998Y-89830626D01*
X154325356Y-89752605D01*
X154494874Y-89639337D01*
X154639037Y-89495174D01*
X154752305Y-89325656D01*
X154830326Y-89137298D01*
X154870100Y-88937339D01*
X154870100Y-88733461D01*
X154830326Y-88533502D01*
X154752305Y-88345144D01*
X154639037Y-88175626D01*
X154494874Y-88031463D01*
X154325356Y-87918195D01*
X154136998Y-87840174D01*
X153937039Y-87800400D01*
X153733161Y-87800400D01*
X153533202Y-87840174D01*
X153344844Y-87918195D01*
X153335099Y-87924707D01*
X153325353Y-87918195D01*
X153136995Y-87840174D01*
X152937036Y-87800400D01*
X152733158Y-87800400D01*
X152533199Y-87840174D01*
X152344841Y-87918195D01*
X152175323Y-88031463D01*
X152031160Y-88175626D01*
X151917892Y-88345144D01*
X151839871Y-88533502D01*
X151800097Y-88733461D01*
X146713449Y-88733461D01*
X146578356Y-88643195D01*
X146389998Y-88565174D01*
X146190039Y-88525400D01*
X145986161Y-88525400D01*
X145786202Y-88565174D01*
X145597844Y-88643195D01*
X145428326Y-88756463D01*
X145284163Y-88900626D01*
X145170895Y-89070144D01*
X145092874Y-89258502D01*
X145086015Y-89292985D01*
X145075977Y-89288827D01*
X144876018Y-89249053D01*
X144672140Y-89249053D01*
X144472181Y-89288827D01*
X144283823Y-89366848D01*
X144114305Y-89480116D01*
X143970142Y-89624279D01*
X143856874Y-89793797D01*
X143778853Y-89982155D01*
X143739079Y-90182114D01*
X141226172Y-90182114D01*
X141226172Y-90158200D01*
X141213912Y-90033718D01*
X141177602Y-89914020D01*
X141118637Y-89803706D01*
X141039285Y-89707015D01*
X140942594Y-89627663D01*
X140832280Y-89568698D01*
X140773100Y-89550746D01*
X140773100Y-89458461D01*
X140733326Y-89258502D01*
X140655305Y-89070144D01*
X140542037Y-88900626D01*
X140397874Y-88756463D01*
X140228356Y-88643195D01*
X140039998Y-88565174D01*
X139840039Y-88525400D01*
X139636161Y-88525400D01*
X139436202Y-88565174D01*
X139247844Y-88643195D01*
X139078326Y-88756463D01*
X138934163Y-88900626D01*
X138820895Y-89070144D01*
X138742874Y-89258502D01*
X138703100Y-89458461D01*
X138703100Y-89550746D01*
X138643920Y-89568698D01*
X138533606Y-89627663D01*
X138436915Y-89707015D01*
X138357563Y-89803706D01*
X138298598Y-89914020D01*
X138262288Y-90033718D01*
X138250028Y-90158200D01*
X134810100Y-90158200D01*
X134810100Y-84681491D01*
X134862736Y-84808565D01*
X134976004Y-84978083D01*
X135120167Y-85122246D01*
X135289685Y-85235514D01*
X135478043Y-85313535D01*
X135678002Y-85353309D01*
X135881880Y-85353309D01*
X136081839Y-85313535D01*
X136270197Y-85235514D01*
X136439715Y-85122246D01*
X136583878Y-84978083D01*
X136697146Y-84808565D01*
X136775167Y-84620207D01*
X136814941Y-84420248D01*
X136814941Y-84216370D01*
X136810935Y-84196226D01*
X161074974Y-84196226D01*
X161074974Y-84400104D01*
X161114748Y-84600063D01*
X161192769Y-84788421D01*
X161306037Y-84957939D01*
X161450200Y-85102102D01*
X161619718Y-85215370D01*
X161808076Y-85293391D01*
X162008035Y-85333165D01*
X162211913Y-85333165D01*
X162411872Y-85293391D01*
X162600230Y-85215370D01*
X162769748Y-85102102D01*
X162913911Y-84957939D01*
X163027179Y-84788421D01*
X163105200Y-84600063D01*
X163144974Y-84400104D01*
X163144974Y-84196226D01*
X163105200Y-83996267D01*
X163027179Y-83807909D01*
X162913911Y-83638391D01*
X162769748Y-83494228D01*
X162600230Y-83380960D01*
X162411872Y-83302939D01*
X162211913Y-83263165D01*
X162008035Y-83263165D01*
X161808076Y-83302939D01*
X161619718Y-83380960D01*
X161450200Y-83494228D01*
X161306037Y-83638391D01*
X161192769Y-83807909D01*
X161114748Y-83996267D01*
X161074974Y-84196226D01*
X136810935Y-84196226D01*
X136775167Y-84016411D01*
X136697146Y-83828053D01*
X136583878Y-83658535D01*
X136439715Y-83514372D01*
X136270197Y-83401104D01*
X136081839Y-83323083D01*
X135881880Y-83283309D01*
X135678002Y-83283309D01*
X135478043Y-83323083D01*
X135289685Y-83401104D01*
X135120167Y-83514372D01*
X134976004Y-83658535D01*
X134862736Y-83828053D01*
X134810100Y-83955127D01*
X134810100Y-81133667D01*
X134837550Y-81174749D01*
X135169751Y-81506950D01*
X135560379Y-81767960D01*
X135994421Y-81947746D01*
X136455198Y-82039400D01*
X136925002Y-82039400D01*
X137385779Y-81947746D01*
X137819821Y-81767960D01*
X138210449Y-81506950D01*
X138501800Y-81215599D01*
X138501800Y-81333039D01*
X138541574Y-81532998D01*
X138619595Y-81721356D01*
X138732863Y-81890874D01*
X138877026Y-82035037D01*
X139046544Y-82148305D01*
X139234902Y-82226326D01*
X139434861Y-82266100D01*
X139638739Y-82266100D01*
X139838698Y-82226326D01*
X140027056Y-82148305D01*
X140196574Y-82035037D01*
X140340737Y-81890874D01*
X140454005Y-81721356D01*
X140532026Y-81532998D01*
X140571800Y-81333039D01*
X140571800Y-81312510D01*
X156342131Y-81312510D01*
X156342131Y-81516388D01*
X156381905Y-81716347D01*
X156459926Y-81904705D01*
X156573194Y-82074223D01*
X156717357Y-82218386D01*
X156886875Y-82331654D01*
X157075233Y-82409675D01*
X157275192Y-82449449D01*
X157479070Y-82449449D01*
X157679029Y-82409675D01*
X157867387Y-82331654D01*
X158036905Y-82218386D01*
X158181068Y-82074223D01*
X158294336Y-81904705D01*
X158372357Y-81716347D01*
X158412131Y-81516388D01*
X158412131Y-81312510D01*
X158372357Y-81112551D01*
X158294336Y-80924193D01*
X158181068Y-80754675D01*
X158036905Y-80610512D01*
X157867387Y-80497244D01*
X157679029Y-80419223D01*
X157479070Y-80379449D01*
X157275192Y-80379449D01*
X157075233Y-80419223D01*
X156886875Y-80497244D01*
X156717357Y-80610512D01*
X156573194Y-80754675D01*
X156459926Y-80924193D01*
X156381905Y-81112551D01*
X156342131Y-81312510D01*
X140571800Y-81312510D01*
X140571800Y-81129161D01*
X140532026Y-80929202D01*
X140454005Y-80740844D01*
X140340737Y-80571326D01*
X140196574Y-80427163D01*
X140027056Y-80313895D01*
X139838698Y-80235874D01*
X139638739Y-80196100D01*
X139434861Y-80196100D01*
X139234902Y-80235874D01*
X139046544Y-80313895D01*
X138980023Y-80358343D01*
X138983446Y-80350079D01*
X139075100Y-79889302D01*
X139075100Y-79419498D01*
X138983446Y-78958721D01*
X138803660Y-78524679D01*
X138542650Y-78134051D01*
X138210449Y-77801850D01*
X138169367Y-77774400D01*
X160610833Y-77774400D01*
X160569751Y-77801850D01*
G37*
%TD.AperFunction*%
%TD*%
M02*
