%TF.GenerationSoftware,KiCad,Pcbnew,(5.1.9)-1*%
%TF.CreationDate,2021-03-06T18:52:22-05:00*%
%TF.ProjectId,final_design_v2,66696e61-6c5f-4646-9573-69676e5f7632,rev?*%
%TF.SameCoordinates,Original*%
%TF.FileFunction,Paste,Bot*%
%TF.FilePolarity,Positive*%
%FSLAX46Y46*%
G04 Gerber Fmt 4.6, Leading zero omitted, Abs format (unit mm)*
G04 Created by KiCad (PCBNEW (5.1.9)-1) date 2021-03-06 18:52:22*
%MOMM*%
%LPD*%
G01*
G04 APERTURE LIST*
G04 APERTURE END LIST*
%TO.C,C1*%
G36*
G01*
X148091700Y-102091500D02*
X148091700Y-101616500D01*
G75*
G02*
X148329200Y-101379000I237500J0D01*
G01*
X148929200Y-101379000D01*
G75*
G02*
X149166700Y-101616500I0J-237500D01*
G01*
X149166700Y-102091500D01*
G75*
G02*
X148929200Y-102329000I-237500J0D01*
G01*
X148329200Y-102329000D01*
G75*
G02*
X148091700Y-102091500I0J237500D01*
G01*
G37*
G36*
G01*
X149816700Y-102091500D02*
X149816700Y-101616500D01*
G75*
G02*
X150054200Y-101379000I237500J0D01*
G01*
X150654200Y-101379000D01*
G75*
G02*
X150891700Y-101616500I0J-237500D01*
G01*
X150891700Y-102091500D01*
G75*
G02*
X150654200Y-102329000I-237500J0D01*
G01*
X150054200Y-102329000D01*
G75*
G02*
X149816700Y-102091500I0J237500D01*
G01*
G37*
%TD*%
%TO.C,C2*%
G36*
G01*
X147886300Y-103666300D02*
X147886300Y-103191300D01*
G75*
G02*
X148123800Y-102953800I237500J0D01*
G01*
X148723800Y-102953800D01*
G75*
G02*
X148961300Y-103191300I0J-237500D01*
G01*
X148961300Y-103666300D01*
G75*
G02*
X148723800Y-103903800I-237500J0D01*
G01*
X148123800Y-103903800D01*
G75*
G02*
X147886300Y-103666300I0J237500D01*
G01*
G37*
G36*
G01*
X146161300Y-103666300D02*
X146161300Y-103191300D01*
G75*
G02*
X146398800Y-102953800I237500J0D01*
G01*
X146998800Y-102953800D01*
G75*
G02*
X147236300Y-103191300I0J-237500D01*
G01*
X147236300Y-103666300D01*
G75*
G02*
X146998800Y-103903800I-237500J0D01*
G01*
X146398800Y-103903800D01*
G75*
G02*
X146161300Y-103666300I0J237500D01*
G01*
G37*
%TD*%
%TO.C,C3*%
G36*
G01*
X146161300Y-105215700D02*
X146161300Y-104740700D01*
G75*
G02*
X146398800Y-104503200I237500J0D01*
G01*
X146998800Y-104503200D01*
G75*
G02*
X147236300Y-104740700I0J-237500D01*
G01*
X147236300Y-105215700D01*
G75*
G02*
X146998800Y-105453200I-237500J0D01*
G01*
X146398800Y-105453200D01*
G75*
G02*
X146161300Y-105215700I0J237500D01*
G01*
G37*
G36*
G01*
X147886300Y-105215700D02*
X147886300Y-104740700D01*
G75*
G02*
X148123800Y-104503200I237500J0D01*
G01*
X148723800Y-104503200D01*
G75*
G02*
X148961300Y-104740700I0J-237500D01*
G01*
X148961300Y-105215700D01*
G75*
G02*
X148723800Y-105453200I-237500J0D01*
G01*
X148123800Y-105453200D01*
G75*
G02*
X147886300Y-105215700I0J237500D01*
G01*
G37*
%TD*%
%TO.C,C4*%
G36*
G01*
X150639900Y-103191300D02*
X150639900Y-103666300D01*
G75*
G02*
X150402400Y-103903800I-237500J0D01*
G01*
X149802400Y-103903800D01*
G75*
G02*
X149564900Y-103666300I0J237500D01*
G01*
X149564900Y-103191300D01*
G75*
G02*
X149802400Y-102953800I237500J0D01*
G01*
X150402400Y-102953800D01*
G75*
G02*
X150639900Y-103191300I0J-237500D01*
G01*
G37*
G36*
G01*
X152364900Y-103191300D02*
X152364900Y-103666300D01*
G75*
G02*
X152127400Y-103903800I-237500J0D01*
G01*
X151527400Y-103903800D01*
G75*
G02*
X151289900Y-103666300I0J237500D01*
G01*
X151289900Y-103191300D01*
G75*
G02*
X151527400Y-102953800I237500J0D01*
G01*
X152127400Y-102953800D01*
G75*
G02*
X152364900Y-103191300I0J-237500D01*
G01*
G37*
%TD*%
%TO.C,C5*%
G36*
G01*
X152364900Y-104740700D02*
X152364900Y-105215700D01*
G75*
G02*
X152127400Y-105453200I-237500J0D01*
G01*
X151527400Y-105453200D01*
G75*
G02*
X151289900Y-105215700I0J237500D01*
G01*
X151289900Y-104740700D01*
G75*
G02*
X151527400Y-104503200I237500J0D01*
G01*
X152127400Y-104503200D01*
G75*
G02*
X152364900Y-104740700I0J-237500D01*
G01*
G37*
G36*
G01*
X150639900Y-104740700D02*
X150639900Y-105215700D01*
G75*
G02*
X150402400Y-105453200I-237500J0D01*
G01*
X149802400Y-105453200D01*
G75*
G02*
X149564900Y-105215700I0J237500D01*
G01*
X149564900Y-104740700D01*
G75*
G02*
X149802400Y-104503200I237500J0D01*
G01*
X150402400Y-104503200D01*
G75*
G02*
X150639900Y-104740700I0J-237500D01*
G01*
G37*
%TD*%
%TO.C,C6*%
G36*
G01*
X157077400Y-114371000D02*
X157552400Y-114371000D01*
G75*
G02*
X157789900Y-114608500I0J-237500D01*
G01*
X157789900Y-115208500D01*
G75*
G02*
X157552400Y-115446000I-237500J0D01*
G01*
X157077400Y-115446000D01*
G75*
G02*
X156839900Y-115208500I0J237500D01*
G01*
X156839900Y-114608500D01*
G75*
G02*
X157077400Y-114371000I237500J0D01*
G01*
G37*
G36*
G01*
X157077400Y-112646000D02*
X157552400Y-112646000D01*
G75*
G02*
X157789900Y-112883500I0J-237500D01*
G01*
X157789900Y-113483500D01*
G75*
G02*
X157552400Y-113721000I-237500J0D01*
G01*
X157077400Y-113721000D01*
G75*
G02*
X156839900Y-113483500I0J237500D01*
G01*
X156839900Y-112883500D01*
G75*
G02*
X157077400Y-112646000I237500J0D01*
G01*
G37*
%TD*%
%TO.C,C7*%
G36*
G01*
X155553400Y-115666400D02*
X156028400Y-115666400D01*
G75*
G02*
X156265900Y-115903900I0J-237500D01*
G01*
X156265900Y-116503900D01*
G75*
G02*
X156028400Y-116741400I-237500J0D01*
G01*
X155553400Y-116741400D01*
G75*
G02*
X155315900Y-116503900I0J237500D01*
G01*
X155315900Y-115903900D01*
G75*
G02*
X155553400Y-115666400I237500J0D01*
G01*
G37*
G36*
G01*
X155553400Y-113941400D02*
X156028400Y-113941400D01*
G75*
G02*
X156265900Y-114178900I0J-237500D01*
G01*
X156265900Y-114778900D01*
G75*
G02*
X156028400Y-115016400I-237500J0D01*
G01*
X155553400Y-115016400D01*
G75*
G02*
X155315900Y-114778900I0J237500D01*
G01*
X155315900Y-114178900D01*
G75*
G02*
X155553400Y-113941400I237500J0D01*
G01*
G37*
%TD*%
%TO.C,C8*%
G36*
G01*
X158587113Y-104626708D02*
X158587113Y-105101708D01*
G75*
G02*
X158349613Y-105339208I-237500J0D01*
G01*
X157749613Y-105339208D01*
G75*
G02*
X157512113Y-105101708I0J237500D01*
G01*
X157512113Y-104626708D01*
G75*
G02*
X157749613Y-104389208I237500J0D01*
G01*
X158349613Y-104389208D01*
G75*
G02*
X158587113Y-104626708I0J-237500D01*
G01*
G37*
G36*
G01*
X160312113Y-104626708D02*
X160312113Y-105101708D01*
G75*
G02*
X160074613Y-105339208I-237500J0D01*
G01*
X159474613Y-105339208D01*
G75*
G02*
X159237113Y-105101708I0J237500D01*
G01*
X159237113Y-104626708D01*
G75*
G02*
X159474613Y-104389208I237500J0D01*
G01*
X160074613Y-104389208D01*
G75*
G02*
X160312113Y-104626708I0J-237500D01*
G01*
G37*
%TD*%
%TO.C,C9*%
G36*
G01*
X160315100Y-109896900D02*
X160315100Y-110371900D01*
G75*
G02*
X160077600Y-110609400I-237500J0D01*
G01*
X159477600Y-110609400D01*
G75*
G02*
X159240100Y-110371900I0J237500D01*
G01*
X159240100Y-109896900D01*
G75*
G02*
X159477600Y-109659400I237500J0D01*
G01*
X160077600Y-109659400D01*
G75*
G02*
X160315100Y-109896900I0J-237500D01*
G01*
G37*
G36*
G01*
X158590100Y-109896900D02*
X158590100Y-110371900D01*
G75*
G02*
X158352600Y-110609400I-237500J0D01*
G01*
X157752600Y-110609400D01*
G75*
G02*
X157515100Y-110371900I0J237500D01*
G01*
X157515100Y-109896900D01*
G75*
G02*
X157752600Y-109659400I237500J0D01*
G01*
X158352600Y-109659400D01*
G75*
G02*
X158590100Y-109896900I0J-237500D01*
G01*
G37*
%TD*%
%TO.C,C10*%
G36*
G01*
X160315100Y-107356900D02*
X160315100Y-107831900D01*
G75*
G02*
X160077600Y-108069400I-237500J0D01*
G01*
X159477600Y-108069400D01*
G75*
G02*
X159240100Y-107831900I0J237500D01*
G01*
X159240100Y-107356900D01*
G75*
G02*
X159477600Y-107119400I237500J0D01*
G01*
X160077600Y-107119400D01*
G75*
G02*
X160315100Y-107356900I0J-237500D01*
G01*
G37*
G36*
G01*
X158590100Y-107356900D02*
X158590100Y-107831900D01*
G75*
G02*
X158352600Y-108069400I-237500J0D01*
G01*
X157752600Y-108069400D01*
G75*
G02*
X157515100Y-107831900I0J237500D01*
G01*
X157515100Y-107356900D01*
G75*
G02*
X157752600Y-107119400I237500J0D01*
G01*
X158352600Y-107119400D01*
G75*
G02*
X158590100Y-107356900I0J-237500D01*
G01*
G37*
%TD*%
%TO.C,C11*%
G36*
G01*
X158587113Y-102797908D02*
X158587113Y-103272908D01*
G75*
G02*
X158349613Y-103510408I-237500J0D01*
G01*
X157749613Y-103510408D01*
G75*
G02*
X157512113Y-103272908I0J237500D01*
G01*
X157512113Y-102797908D01*
G75*
G02*
X157749613Y-102560408I237500J0D01*
G01*
X158349613Y-102560408D01*
G75*
G02*
X158587113Y-102797908I0J-237500D01*
G01*
G37*
G36*
G01*
X160312113Y-102797908D02*
X160312113Y-103272908D01*
G75*
G02*
X160074613Y-103510408I-237500J0D01*
G01*
X159474613Y-103510408D01*
G75*
G02*
X159237113Y-103272908I0J237500D01*
G01*
X159237113Y-102797908D01*
G75*
G02*
X159474613Y-102560408I237500J0D01*
G01*
X160074613Y-102560408D01*
G75*
G02*
X160312113Y-102797908I0J-237500D01*
G01*
G37*
%TD*%
%TO.C,C12*%
G36*
G01*
X151812000Y-111689000D02*
X151337000Y-111689000D01*
G75*
G02*
X151099500Y-111451500I0J237500D01*
G01*
X151099500Y-110851500D01*
G75*
G02*
X151337000Y-110614000I237500J0D01*
G01*
X151812000Y-110614000D01*
G75*
G02*
X152049500Y-110851500I0J-237500D01*
G01*
X152049500Y-111451500D01*
G75*
G02*
X151812000Y-111689000I-237500J0D01*
G01*
G37*
G36*
G01*
X151812000Y-113414000D02*
X151337000Y-113414000D01*
G75*
G02*
X151099500Y-113176500I0J237500D01*
G01*
X151099500Y-112576500D01*
G75*
G02*
X151337000Y-112339000I237500J0D01*
G01*
X151812000Y-112339000D01*
G75*
G02*
X152049500Y-112576500I0J-237500D01*
G01*
X152049500Y-113176500D01*
G75*
G02*
X151812000Y-113414000I-237500J0D01*
G01*
G37*
%TD*%
%TO.C,C13*%
G36*
G01*
X147468600Y-113388600D02*
X146993600Y-113388600D01*
G75*
G02*
X146756100Y-113151100I0J237500D01*
G01*
X146756100Y-112551100D01*
G75*
G02*
X146993600Y-112313600I237500J0D01*
G01*
X147468600Y-112313600D01*
G75*
G02*
X147706100Y-112551100I0J-237500D01*
G01*
X147706100Y-113151100D01*
G75*
G02*
X147468600Y-113388600I-237500J0D01*
G01*
G37*
G36*
G01*
X147468600Y-111663600D02*
X146993600Y-111663600D01*
G75*
G02*
X146756100Y-111426100I0J237500D01*
G01*
X146756100Y-110826100D01*
G75*
G02*
X146993600Y-110588600I237500J0D01*
G01*
X147468600Y-110588600D01*
G75*
G02*
X147706100Y-110826100I0J-237500D01*
G01*
X147706100Y-111426100D01*
G75*
G02*
X147468600Y-111663600I-237500J0D01*
G01*
G37*
%TD*%
%TO.C,C14*%
G36*
G01*
X141138100Y-100498900D02*
X141138100Y-100973900D01*
G75*
G02*
X140900600Y-101211400I-237500J0D01*
G01*
X140300600Y-101211400D01*
G75*
G02*
X140063100Y-100973900I0J237500D01*
G01*
X140063100Y-100498900D01*
G75*
G02*
X140300600Y-100261400I237500J0D01*
G01*
X140900600Y-100261400D01*
G75*
G02*
X141138100Y-100498900I0J-237500D01*
G01*
G37*
G36*
G01*
X139413100Y-100498900D02*
X139413100Y-100973900D01*
G75*
G02*
X139175600Y-101211400I-237500J0D01*
G01*
X138575600Y-101211400D01*
G75*
G02*
X138338100Y-100973900I0J237500D01*
G01*
X138338100Y-100498900D01*
G75*
G02*
X138575600Y-100261400I237500J0D01*
G01*
X139175600Y-100261400D01*
G75*
G02*
X139413100Y-100498900I0J-237500D01*
G01*
G37*
%TD*%
%TO.C,C15*%
G36*
G01*
X159058600Y-117878400D02*
X159533600Y-117878400D01*
G75*
G02*
X159771100Y-118115900I0J-237500D01*
G01*
X159771100Y-118715900D01*
G75*
G02*
X159533600Y-118953400I-237500J0D01*
G01*
X159058600Y-118953400D01*
G75*
G02*
X158821100Y-118715900I0J237500D01*
G01*
X158821100Y-118115900D01*
G75*
G02*
X159058600Y-117878400I237500J0D01*
G01*
G37*
G36*
G01*
X159058600Y-119603400D02*
X159533600Y-119603400D01*
G75*
G02*
X159771100Y-119840900I0J-237500D01*
G01*
X159771100Y-120440900D01*
G75*
G02*
X159533600Y-120678400I-237500J0D01*
G01*
X159058600Y-120678400D01*
G75*
G02*
X158821100Y-120440900I0J237500D01*
G01*
X158821100Y-119840900D01*
G75*
G02*
X159058600Y-119603400I237500J0D01*
G01*
G37*
%TD*%
%TO.C,C16*%
G36*
G01*
X157534600Y-119603400D02*
X158009600Y-119603400D01*
G75*
G02*
X158247100Y-119840900I0J-237500D01*
G01*
X158247100Y-120440900D01*
G75*
G02*
X158009600Y-120678400I-237500J0D01*
G01*
X157534600Y-120678400D01*
G75*
G02*
X157297100Y-120440900I0J237500D01*
G01*
X157297100Y-119840900D01*
G75*
G02*
X157534600Y-119603400I237500J0D01*
G01*
G37*
G36*
G01*
X157534600Y-117878400D02*
X158009600Y-117878400D01*
G75*
G02*
X158247100Y-118115900I0J-237500D01*
G01*
X158247100Y-118715900D01*
G75*
G02*
X158009600Y-118953400I-237500J0D01*
G01*
X157534600Y-118953400D01*
G75*
G02*
X157297100Y-118715900I0J237500D01*
G01*
X157297100Y-118115900D01*
G75*
G02*
X157534600Y-117878400I237500J0D01*
G01*
G37*
%TD*%
%TO.C,C17*%
G36*
G01*
X136314300Y-82591900D02*
X136314300Y-83066900D01*
G75*
G02*
X136076800Y-83304400I-237500J0D01*
G01*
X135476800Y-83304400D01*
G75*
G02*
X135239300Y-83066900I0J237500D01*
G01*
X135239300Y-82591900D01*
G75*
G02*
X135476800Y-82354400I237500J0D01*
G01*
X136076800Y-82354400D01*
G75*
G02*
X136314300Y-82591900I0J-237500D01*
G01*
G37*
G36*
G01*
X138039300Y-82591900D02*
X138039300Y-83066900D01*
G75*
G02*
X137801800Y-83304400I-237500J0D01*
G01*
X137201800Y-83304400D01*
G75*
G02*
X136964300Y-83066900I0J237500D01*
G01*
X136964300Y-82591900D01*
G75*
G02*
X137201800Y-82354400I237500J0D01*
G01*
X137801800Y-82354400D01*
G75*
G02*
X138039300Y-82591900I0J-237500D01*
G01*
G37*
%TD*%
%TO.C,C18*%
G36*
G01*
X162415100Y-83066900D02*
X162415100Y-82591900D01*
G75*
G02*
X162652600Y-82354400I237500J0D01*
G01*
X163252600Y-82354400D01*
G75*
G02*
X163490100Y-82591900I0J-237500D01*
G01*
X163490100Y-83066900D01*
G75*
G02*
X163252600Y-83304400I-237500J0D01*
G01*
X162652600Y-83304400D01*
G75*
G02*
X162415100Y-83066900I0J237500D01*
G01*
G37*
G36*
G01*
X160690100Y-83066900D02*
X160690100Y-82591900D01*
G75*
G02*
X160927600Y-82354400I237500J0D01*
G01*
X161527600Y-82354400D01*
G75*
G02*
X161765100Y-82591900I0J-237500D01*
G01*
X161765100Y-83066900D01*
G75*
G02*
X161527600Y-83304400I-237500J0D01*
G01*
X160927600Y-83304400D01*
G75*
G02*
X160690100Y-83066900I0J237500D01*
G01*
G37*
%TD*%
%TO.C,C21*%
G36*
G01*
X155923100Y-99736900D02*
X155923100Y-100211900D01*
G75*
G02*
X155685600Y-100449400I-237500J0D01*
G01*
X155085600Y-100449400D01*
G75*
G02*
X154848100Y-100211900I0J237500D01*
G01*
X154848100Y-99736900D01*
G75*
G02*
X155085600Y-99499400I237500J0D01*
G01*
X155685600Y-99499400D01*
G75*
G02*
X155923100Y-99736900I0J-237500D01*
G01*
G37*
G36*
G01*
X157648100Y-99736900D02*
X157648100Y-100211900D01*
G75*
G02*
X157410600Y-100449400I-237500J0D01*
G01*
X156810600Y-100449400D01*
G75*
G02*
X156573100Y-100211900I0J237500D01*
G01*
X156573100Y-99736900D01*
G75*
G02*
X156810600Y-99499400I237500J0D01*
G01*
X157410600Y-99499400D01*
G75*
G02*
X157648100Y-99736900I0J-237500D01*
G01*
G37*
%TD*%
%TO.C,C24*%
G36*
G01*
X161243000Y-95094600D02*
X161718000Y-95094600D01*
G75*
G02*
X161955500Y-95332100I0J-237500D01*
G01*
X161955500Y-95932100D01*
G75*
G02*
X161718000Y-96169600I-237500J0D01*
G01*
X161243000Y-96169600D01*
G75*
G02*
X161005500Y-95932100I0J237500D01*
G01*
X161005500Y-95332100D01*
G75*
G02*
X161243000Y-95094600I237500J0D01*
G01*
G37*
G36*
G01*
X161243000Y-96819600D02*
X161718000Y-96819600D01*
G75*
G02*
X161955500Y-97057100I0J-237500D01*
G01*
X161955500Y-97657100D01*
G75*
G02*
X161718000Y-97894600I-237500J0D01*
G01*
X161243000Y-97894600D01*
G75*
G02*
X161005500Y-97657100I0J237500D01*
G01*
X161005500Y-97057100D01*
G75*
G02*
X161243000Y-96819600I237500J0D01*
G01*
G37*
%TD*%
%TO.C,C27*%
G36*
G01*
X158352200Y-93379300D02*
X158352200Y-92904300D01*
G75*
G02*
X158589700Y-92666800I237500J0D01*
G01*
X159189700Y-92666800D01*
G75*
G02*
X159427200Y-92904300I0J-237500D01*
G01*
X159427200Y-93379300D01*
G75*
G02*
X159189700Y-93616800I-237500J0D01*
G01*
X158589700Y-93616800D01*
G75*
G02*
X158352200Y-93379300I0J237500D01*
G01*
G37*
G36*
G01*
X156627200Y-93379300D02*
X156627200Y-92904300D01*
G75*
G02*
X156864700Y-92666800I237500J0D01*
G01*
X157464700Y-92666800D01*
G75*
G02*
X157702200Y-92904300I0J-237500D01*
G01*
X157702200Y-93379300D01*
G75*
G02*
X157464700Y-93616800I-237500J0D01*
G01*
X156864700Y-93616800D01*
G75*
G02*
X156627200Y-93379300I0J237500D01*
G01*
G37*
%TD*%
%TO.C,C28*%
G36*
G01*
X158150100Y-100211900D02*
X158150100Y-99736900D01*
G75*
G02*
X158387600Y-99499400I237500J0D01*
G01*
X158987600Y-99499400D01*
G75*
G02*
X159225100Y-99736900I0J-237500D01*
G01*
X159225100Y-100211900D01*
G75*
G02*
X158987600Y-100449400I-237500J0D01*
G01*
X158387600Y-100449400D01*
G75*
G02*
X158150100Y-100211900I0J237500D01*
G01*
G37*
G36*
G01*
X159875100Y-100211900D02*
X159875100Y-99736900D01*
G75*
G02*
X160112600Y-99499400I237500J0D01*
G01*
X160712600Y-99499400D01*
G75*
G02*
X160950100Y-99736900I0J-237500D01*
G01*
X160950100Y-100211900D01*
G75*
G02*
X160712600Y-100449400I-237500J0D01*
G01*
X160112600Y-100449400D01*
G75*
G02*
X159875100Y-100211900I0J237500D01*
G01*
G37*
%TD*%
%TO.C,L1*%
G36*
G01*
X158219600Y-111382800D02*
X158219600Y-111857800D01*
G75*
G02*
X157982100Y-112095300I-237500J0D01*
G01*
X157407100Y-112095300D01*
G75*
G02*
X157169600Y-111857800I0J237500D01*
G01*
X157169600Y-111382800D01*
G75*
G02*
X157407100Y-111145300I237500J0D01*
G01*
X157982100Y-111145300D01*
G75*
G02*
X158219600Y-111382800I0J-237500D01*
G01*
G37*
G36*
G01*
X156469600Y-111382800D02*
X156469600Y-111857800D01*
G75*
G02*
X156232100Y-112095300I-237500J0D01*
G01*
X155657100Y-112095300D01*
G75*
G02*
X155419600Y-111857800I0J237500D01*
G01*
X155419600Y-111382800D01*
G75*
G02*
X155657100Y-111145300I237500J0D01*
G01*
X156232100Y-111145300D01*
G75*
G02*
X156469600Y-111382800I0J-237500D01*
G01*
G37*
%TD*%
%TO.C,R2*%
G36*
G01*
X152892300Y-110346500D02*
X152892300Y-109871500D01*
G75*
G02*
X153129800Y-109634000I237500J0D01*
G01*
X153629800Y-109634000D01*
G75*
G02*
X153867300Y-109871500I0J-237500D01*
G01*
X153867300Y-110346500D01*
G75*
G02*
X153629800Y-110584000I-237500J0D01*
G01*
X153129800Y-110584000D01*
G75*
G02*
X152892300Y-110346500I0J237500D01*
G01*
G37*
G36*
G01*
X154717300Y-110346500D02*
X154717300Y-109871500D01*
G75*
G02*
X154954800Y-109634000I237500J0D01*
G01*
X155454800Y-109634000D01*
G75*
G02*
X155692300Y-109871500I0J-237500D01*
G01*
X155692300Y-110346500D01*
G75*
G02*
X155454800Y-110584000I-237500J0D01*
G01*
X154954800Y-110584000D01*
G75*
G02*
X154717300Y-110346500I0J237500D01*
G01*
G37*
%TD*%
%TO.C,R3*%
G36*
G01*
X143021500Y-98441500D02*
X143021500Y-98916500D01*
G75*
G02*
X142784000Y-99154000I-237500J0D01*
G01*
X142284000Y-99154000D01*
G75*
G02*
X142046500Y-98916500I0J237500D01*
G01*
X142046500Y-98441500D01*
G75*
G02*
X142284000Y-98204000I237500J0D01*
G01*
X142784000Y-98204000D01*
G75*
G02*
X143021500Y-98441500I0J-237500D01*
G01*
G37*
G36*
G01*
X144846500Y-98441500D02*
X144846500Y-98916500D01*
G75*
G02*
X144609000Y-99154000I-237500J0D01*
G01*
X144109000Y-99154000D01*
G75*
G02*
X143871500Y-98916500I0J237500D01*
G01*
X143871500Y-98441500D01*
G75*
G02*
X144109000Y-98204000I237500J0D01*
G01*
X144609000Y-98204000D01*
G75*
G02*
X144846500Y-98441500I0J-237500D01*
G01*
G37*
%TD*%
%TO.C,R6*%
G36*
G01*
X145850600Y-87445400D02*
X146325600Y-87445400D01*
G75*
G02*
X146563100Y-87682900I0J-237500D01*
G01*
X146563100Y-88182900D01*
G75*
G02*
X146325600Y-88420400I-237500J0D01*
G01*
X145850600Y-88420400D01*
G75*
G02*
X145613100Y-88182900I0J237500D01*
G01*
X145613100Y-87682900D01*
G75*
G02*
X145850600Y-87445400I237500J0D01*
G01*
G37*
G36*
G01*
X145850600Y-85620400D02*
X146325600Y-85620400D01*
G75*
G02*
X146563100Y-85857900I0J-237500D01*
G01*
X146563100Y-86357900D01*
G75*
G02*
X146325600Y-86595400I-237500J0D01*
G01*
X145850600Y-86595400D01*
G75*
G02*
X145613100Y-86357900I0J237500D01*
G01*
X145613100Y-85857900D01*
G75*
G02*
X145850600Y-85620400I237500J0D01*
G01*
G37*
%TD*%
%TO.C,R7*%
G36*
G01*
X144326600Y-85620400D02*
X144801600Y-85620400D01*
G75*
G02*
X145039100Y-85857900I0J-237500D01*
G01*
X145039100Y-86357900D01*
G75*
G02*
X144801600Y-86595400I-237500J0D01*
G01*
X144326600Y-86595400D01*
G75*
G02*
X144089100Y-86357900I0J237500D01*
G01*
X144089100Y-85857900D01*
G75*
G02*
X144326600Y-85620400I237500J0D01*
G01*
G37*
G36*
G01*
X144326600Y-87445400D02*
X144801600Y-87445400D01*
G75*
G02*
X145039100Y-87682900I0J-237500D01*
G01*
X145039100Y-88182900D01*
G75*
G02*
X144801600Y-88420400I-237500J0D01*
G01*
X144326600Y-88420400D01*
G75*
G02*
X144089100Y-88182900I0J237500D01*
G01*
X144089100Y-87682900D01*
G75*
G02*
X144326600Y-87445400I237500J0D01*
G01*
G37*
%TD*%
%TO.C,R8*%
G36*
G01*
X155956813Y-102549808D02*
X156431813Y-102549808D01*
G75*
G02*
X156669313Y-102787308I0J-237500D01*
G01*
X156669313Y-103287308D01*
G75*
G02*
X156431813Y-103524808I-237500J0D01*
G01*
X155956813Y-103524808D01*
G75*
G02*
X155719313Y-103287308I0J237500D01*
G01*
X155719313Y-102787308D01*
G75*
G02*
X155956813Y-102549808I237500J0D01*
G01*
G37*
G36*
G01*
X155956813Y-104374808D02*
X156431813Y-104374808D01*
G75*
G02*
X156669313Y-104612308I0J-237500D01*
G01*
X156669313Y-105112308D01*
G75*
G02*
X156431813Y-105349808I-237500J0D01*
G01*
X155956813Y-105349808D01*
G75*
G02*
X155719313Y-105112308I0J237500D01*
G01*
X155719313Y-104612308D01*
G75*
G02*
X155956813Y-104374808I237500J0D01*
G01*
G37*
%TD*%
%TO.C,R9*%
G36*
G01*
X149641100Y-118779300D02*
X149641100Y-118304300D01*
G75*
G02*
X149878600Y-118066800I237500J0D01*
G01*
X150378600Y-118066800D01*
G75*
G02*
X150616100Y-118304300I0J-237500D01*
G01*
X150616100Y-118779300D01*
G75*
G02*
X150378600Y-119016800I-237500J0D01*
G01*
X149878600Y-119016800D01*
G75*
G02*
X149641100Y-118779300I0J237500D01*
G01*
G37*
G36*
G01*
X151466100Y-118779300D02*
X151466100Y-118304300D01*
G75*
G02*
X151703600Y-118066800I237500J0D01*
G01*
X152203600Y-118066800D01*
G75*
G02*
X152441100Y-118304300I0J-237500D01*
G01*
X152441100Y-118779300D01*
G75*
G02*
X152203600Y-119016800I-237500J0D01*
G01*
X151703600Y-119016800D01*
G75*
G02*
X151466100Y-118779300I0J237500D01*
G01*
G37*
%TD*%
%TO.C,R10*%
G36*
G01*
X148087900Y-118779300D02*
X148087900Y-118304300D01*
G75*
G02*
X148325400Y-118066800I237500J0D01*
G01*
X148825400Y-118066800D01*
G75*
G02*
X149062900Y-118304300I0J-237500D01*
G01*
X149062900Y-118779300D01*
G75*
G02*
X148825400Y-119016800I-237500J0D01*
G01*
X148325400Y-119016800D01*
G75*
G02*
X148087900Y-118779300I0J237500D01*
G01*
G37*
G36*
G01*
X146262900Y-118779300D02*
X146262900Y-118304300D01*
G75*
G02*
X146500400Y-118066800I237500J0D01*
G01*
X147000400Y-118066800D01*
G75*
G02*
X147237900Y-118304300I0J-237500D01*
G01*
X147237900Y-118779300D01*
G75*
G02*
X147000400Y-119016800I-237500J0D01*
G01*
X146500400Y-119016800D01*
G75*
G02*
X146262900Y-118779300I0J237500D01*
G01*
G37*
%TD*%
%TO.C,R15*%
G36*
G01*
X145532300Y-117542300D02*
X145532300Y-118017300D01*
G75*
G02*
X145294800Y-118254800I-237500J0D01*
G01*
X144794800Y-118254800D01*
G75*
G02*
X144557300Y-118017300I0J237500D01*
G01*
X144557300Y-117542300D01*
G75*
G02*
X144794800Y-117304800I237500J0D01*
G01*
X145294800Y-117304800D01*
G75*
G02*
X145532300Y-117542300I0J-237500D01*
G01*
G37*
G36*
G01*
X143707300Y-117542300D02*
X143707300Y-118017300D01*
G75*
G02*
X143469800Y-118254800I-237500J0D01*
G01*
X142969800Y-118254800D01*
G75*
G02*
X142732300Y-118017300I0J237500D01*
G01*
X142732300Y-117542300D01*
G75*
G02*
X142969800Y-117304800I237500J0D01*
G01*
X143469800Y-117304800D01*
G75*
G02*
X143707300Y-117542300I0J-237500D01*
G01*
G37*
%TD*%
%TO.C,R16*%
G36*
G01*
X153324100Y-118093500D02*
X153324100Y-117618500D01*
G75*
G02*
X153561600Y-117381000I237500J0D01*
G01*
X154061600Y-117381000D01*
G75*
G02*
X154299100Y-117618500I0J-237500D01*
G01*
X154299100Y-118093500D01*
G75*
G02*
X154061600Y-118331000I-237500J0D01*
G01*
X153561600Y-118331000D01*
G75*
G02*
X153324100Y-118093500I0J237500D01*
G01*
G37*
G36*
G01*
X155149100Y-118093500D02*
X155149100Y-117618500D01*
G75*
G02*
X155386600Y-117381000I237500J0D01*
G01*
X155886600Y-117381000D01*
G75*
G02*
X156124100Y-117618500I0J-237500D01*
G01*
X156124100Y-118093500D01*
G75*
G02*
X155886600Y-118331000I-237500J0D01*
G01*
X155386600Y-118331000D01*
G75*
G02*
X155149100Y-118093500I0J237500D01*
G01*
G37*
%TD*%
%TO.C,R17*%
G36*
G01*
X145335000Y-121063200D02*
X144860000Y-121063200D01*
G75*
G02*
X144622500Y-120825700I0J237500D01*
G01*
X144622500Y-120325700D01*
G75*
G02*
X144860000Y-120088200I237500J0D01*
G01*
X145335000Y-120088200D01*
G75*
G02*
X145572500Y-120325700I0J-237500D01*
G01*
X145572500Y-120825700D01*
G75*
G02*
X145335000Y-121063200I-237500J0D01*
G01*
G37*
G36*
G01*
X145335000Y-122888200D02*
X144860000Y-122888200D01*
G75*
G02*
X144622500Y-122650700I0J237500D01*
G01*
X144622500Y-122150700D01*
G75*
G02*
X144860000Y-121913200I237500J0D01*
G01*
X145335000Y-121913200D01*
G75*
G02*
X145572500Y-122150700I0J-237500D01*
G01*
X145572500Y-122650700D01*
G75*
G02*
X145335000Y-122888200I-237500J0D01*
G01*
G37*
%TD*%
%TO.C,R18*%
G36*
G01*
X153742400Y-122862800D02*
X153267400Y-122862800D01*
G75*
G02*
X153029900Y-122625300I0J237500D01*
G01*
X153029900Y-122125300D01*
G75*
G02*
X153267400Y-121887800I237500J0D01*
G01*
X153742400Y-121887800D01*
G75*
G02*
X153979900Y-122125300I0J-237500D01*
G01*
X153979900Y-122625300D01*
G75*
G02*
X153742400Y-122862800I-237500J0D01*
G01*
G37*
G36*
G01*
X153742400Y-121037800D02*
X153267400Y-121037800D01*
G75*
G02*
X153029900Y-120800300I0J237500D01*
G01*
X153029900Y-120300300D01*
G75*
G02*
X153267400Y-120062800I237500J0D01*
G01*
X153742400Y-120062800D01*
G75*
G02*
X153979900Y-120300300I0J-237500D01*
G01*
X153979900Y-120800300D01*
G75*
G02*
X153742400Y-121037800I-237500J0D01*
G01*
G37*
%TD*%
M02*
